<?xml version="1.0" encoding="UTF-8" standalone="no"?>
<!-- Created with Inkscape (http://www.inkscape.org/) -->

<svg
   xmlns:dc="http://purl.org/dc/elements/1.1/"
   xmlns:cc="http://creativecommons.org/ns#"
   xmlns:rdf="http://www.w3.org/1999/02/22-rdf-syntax-ns#"
   xmlns:svg="http://www.w3.org/2000/svg"
   xmlns="http://www.w3.org/2000/svg"
   xmlns:sodipodi="http://sodipodi.sourceforge.net/DTD/sodipodi-0.dtd"
   xmlns:inkscape="http://www.inkscape.org/namespaces/inkscape"
   width="210mm"
   height="297mm"
   viewBox="0 0 744.09448819 1052.3622047"
   id="svg3472"
   version="1.1"
   inkscape:version="0.91 r13725"
   sodipodi:docname="final-mofed-colored.svg"
   inkscape:export-filename="C:\Users\Home\Desktop\mofed.png"
   inkscape:export-xdpi="90"
   inkscape:export-ydpi="90">
  <defs
     id="defs3474" />
  <sodipodi:namedview
     id="base"
     pagecolor="#ffffff"
     bordercolor="#666666"
     borderopacity="1.0"
     inkscape:pageopacity="0.0"
     inkscape:pageshadow="2"
     inkscape:zoom="1.4142136"
     inkscape:cx="467.10247"
     inkscape:cy="940.8659"
     inkscape:document-units="px"
     inkscape:current-layer="layer2"
     showgrid="false"
     inkscape:window-width="1024"
     inkscape:window-height="706"
     inkscape:window-x="-8"
     inkscape:window-y="-8"
     inkscape:window-maximized="1"
     showguides="true"
     inkscape:guide-bbox="true">
    <sodipodi:guide
       position="859.84185,1578.2624"
       orientation="0,1"
       id="guide4169" />
  </sodipodi:namedview>
  <metadata
     id="metadata3477">
    <rdf:RDF>
      <cc:Work
         rdf:about="">
        <dc:format>image/svg+xml</dc:format>
        <dc:type
           rdf:resource="http://purl.org/dc/dcmitype/StillImage" />
        <dc:title />
      </cc:Work>
    </rdf:RDF>
  </metadata>
  <g
     inkscape:groupmode="layer"
     id="layer11"
     inkscape:label="Head"
     style="display:inline">
    <g
       inkscape:groupmode="layer"
       id="layer10"
       inkscape:label="Face-Color"
       style="display:inline" />
    <g
       inkscape:groupmode="layer"
       id="layer12"
       inkscape:label="EYES"
       style="display:inline" />
    <g
       inkscape:label="Layer 1"
       inkscape:groupmode="layer"
       id="layer1"
       style="display:inline" />
    <g
       inkscape:groupmode="layer"
       id="layer7"
       inkscape:label="Mouth"
       style="display:inline" />
    <g
       inkscape:groupmode="layer"
       id="layer8"
       inkscape:label="Left-Moustach"
       style="display:inline" />
    <g
       inkscape:groupmode="layer"
       id="layer9"
       inkscape:label="Right-Moustach"
       style="display:inline" />
    <g
       inkscape:groupmode="layer"
       id="layer4"
       inkscape:label="Left-Eye"
       style="display:inline" />
    <g
       inkscape:groupmode="layer"
       id="layer5"
       inkscape:label="Right-Eye"
       style="display:inline">
      <g
         id="g3387"
         transform="translate(-42,24)"
         inkscape:export-filename="./g3387.png"
         inkscape:export-xdpi="90"
         inkscape:export-ydpi="90">
        <g
           transform="translate(-125.3695,-846.09519)"
           id="layer14"
           inkscape:label="Whole-Body without head">
          <g
             inkscape:label="Body"
             inkscape:groupmode="layer"
             id="layer1-4"
             style="display:inline">
            <path
               style="opacity:0.72899996;fill:#ffffff;fill-opacity:1;stroke:none"
               id="path3704"
               d="m 528.02955,2432.0393 c -0.78927,0.5096 -1.57521,1.0247 -2.37294,1.521 -0.82434,0.4438 -1.57269,1.0022 -2.34481,1.5265 -0.53318,0.3901 -1.09302,0.7444 -1.58195,1.1904 -0.36687,0.3728 -0.41287,0.8191 -0.41863,1.3141 0.0817,0.3874 0.19316,0.7378 0.16933,1.1378 -0.0538,0.4676 -0.3154,0.9282 -0.2174,1.4016 0.16495,0.3455 0.50375,0.3315 0.81716,0.4485 0.33891,0.1389 0.69413,0.1802 1.05607,0.2025 0.57293,0.062 1.13374,-0.04 1.70036,-0.1068 0.55243,-0.1201 2.20314,-0.3093 -0.34315,0.062 -0.16002,0.023 0.31771,-0.061 0.47542,-0.097 0.27426,-0.062 0.57095,-0.1467 0.84274,-0.2213 0.82134,-0.2593 1.60661,-0.6227 2.40229,-0.9518 0.88713,-0.3944 1.82675,-0.659 2.75916,-0.9243 0.62557,-0.171 1.21823,-0.4351 1.82742,-0.6528 0.60727,-0.2359 1.16746,-0.5699 1.77225,-0.8128 0.55977,-0.236 1.14937,-0.3813 1.71119,-0.6123 0.54397,-0.2627 1.09963,-0.5034 1.66864,-0.7067 0.83538,-0.2424 1.73182,-0.3457 2.57671,-0.4742 0.33539,-0.051 0.68296,-0.037 1.02095,-0.079 0.1287,-0.016 0.25725,-0.033 0.38609,-0.048 0.13837,-0.016 0.27763,-0.024 0.41551,-0.044 0.13699,-0.019 0.54493,-0.097 0.40854,-0.073 -2.59039,0.4423 -1.23984,0.2332 -0.6606,0.088 0.35105,-0.162 0.7998,-0.1414 1.12087,-0.3682 0,0 1.75822,-0.1763 1.75822,-0.1763 l 0,0 c -0.16004,0.4017 -0.78006,0.3262 -1.11495,0.4968 -1.28837,0.3907 -2.65204,0.5179 -3.98558,0.688 -0.81168,0.078 0.0772,0 -0.69275,0.053 -0.10947,0.01 -0.43529,0.052 -0.32796,0.029 2.68062,-0.5717 1.45892,-0.2644 0.85908,-0.1496 -0.57302,0.1846 -1.12924,0.4265 -1.66904,0.6918 -0.55515,0.256 -1.14779,0.3878 -1.71134,0.6203 -0.61491,0.2245 -1.17625,0.5533 -1.77229,0.8193 -0.61659,0.2011 -1.20249,0.4848 -1.82751,0.6631 -0.93316,0.2534 -1.87236,0.5201 -2.76069,0.9026 -0.79705,0.3327 -1.58796,0.6849 -2.40101,0.9735 -1.44483,0.4052 -2.92512,0.652 -4.40964,0.8691 -0.56977,0.07 -1.13792,0.1409 -1.71262,0.074 -0.36746,-0.036 -0.72371,-0.1082 -1.06874,-0.2437 -0.38065,-0.1123 -0.70527,-0.2251 -0.85919,-0.6289 -0.0976,-0.495 0.1118,-0.9653 0.2098,-1.4482 0.0312,-0.3962 -0.0975,-0.7402 -0.1673,-1.1273 0.003,-0.5316 0.0406,-1.031 0.40261,-1.4559 0.48222,-0.4648 1.04194,-0.8232 1.5809,-1.2184 0.7747,-0.5235 1.5172,-1.0931 2.34584,-1.5337 0.79657,-0.4902 1.56961,-1.0178 2.37101,-1.4996 0,0 1.76193,-0.1191 1.76193,-0.1191 z"
               inkscape:connector-curvature="0" />
          </g>
          <g
             inkscape:groupmode="layer"
             id="layer3"
             inkscape:label="Left-Hand"
             style="display:inline" />
          <g
             inkscape:groupmode="layer"
             id="layer2"
             inkscape:label="Right-Hand"
             style="display:inline">
            <path
               inkscape:connector-curvature="0"
               id="path3414"
               d="m 806.33049,1360.0214 c -0.68525,-1.8065 -5.32568,-6.274 -10.31207,-9.928 -11.8961,-8.7174 -27.98788,-9.1307 -44.06191,-1.1321 -5.94066,2.9563 -13.82796,5.3839 -17.52735,5.3949 -6.37008,0.018 -7.50157,-1.3971 -21.37457,-26.7496 -19.07445,-34.858 -33.30684,-57.491 -74.54878,-118.551 -49.37075,-73.095 -50.18905,-74.4785 -48.54043,-82.0716 0.76808,-3.5377 2.13021,-6.432 3.02697,-6.432 7.38955,0 57.69656,43.9223 125.70692,109.7529 41.08916,39.7721 59.45779,60.9346 72.66001,83.7116 6.5603,11.3181 19.09829,46.3746 17.25338,48.2409 -0.56996,0.5767 -1.59692,-0.4297 -2.28217,-2.236 z"
               style="opacity:0.72899996;fill:#eeffaa;fill-opacity:1;stroke:none"
               inkscape:export-filename="C:\Users\Home\Desktop\mofed.png"
               inkscape:export-xdpi="90"
               inkscape:export-ydpi="90" />
            <rect
               style="fill:#ffe6d5;fill-opacity:1;fill-rule:evenodd;stroke:#000000;stroke-width:4;stroke-linecap:round;stroke-linejoin:miter;stroke-miterlimit:4;stroke-dasharray:none;stroke-opacity:1"
               id="rect4183"
               width="57.982758"
               height="113.13708"
               x="525.59192"
               y="1047.1008"
               inkscape:export-filename="C:\Users\Home\Desktop\mofed.png"
               inkscape:export-xdpi="90"
               inkscape:export-ydpi="90" />
            <path
               inkscape:connector-curvature="0"
               id="path3453"
               d="m 713.40194,1472.789 c 0,-3.5761 4.50903,-12.6183 13.43202,-26.9362 8.91618,-14.3068 11.01015,-19.4337 7.93726,-19.4337 -1.57999,0 -12.26171,12.7198 -12.26171,14.6012 0,2.6968 -25.33582,21.643 -26.83206,20.0652 -2.04389,-2.1553 15.94857,-34.0505 25.63068,-45.4354 3.16534,-3.7222 5.75518,-7.5039 5.75518,-8.404 0,-3.8903 -4.38756,3.187 -16.25053,15.3978 -6.96462,7.1688 -13.09133,8.5825 -13.6149,8.0304 -0.52357,-0.5522 -1.81746,0.2443 -2.87533,1.7701 -3.46461,4.9964 -3.83212,0.9938 -0.63169,-6.8797 3.98474,-9.8032 17.98574,-31.0969 27.52973,-41.8693 9.89728,-11.171 9.59784,-14.5032 -0.92674,-14.5032 -4.67187,0 -14.48155,-6.4231 -14.48155,-8.5297 0,-7.3996 8.26894,-11.0547 25.04583,-11.0708 8.75951,-0.011 12.3582,-0.8863 20.49203,-4.9988 13.59607,-6.8744 27.37015,-8.0251 37.03047,-3.0935 8.728,4.4555 13.45801,10.3682 17.65273,22.0662 3.25936,9.0894 3.26996,9.4108 0.70048,21.2346 -3.53182,16.252 -8.77643,24.5842 -36.01916,57.2237 -20.64868,24.7392 -28.13482,31.7057 -30.91755,28.7711 -1.99345,-2.1021 1.76464,-16.8219 7.13972,-24.3656 6.26624,-8.7945 7.41079,-8.8051 3.65435,-8.8051 -1.25229,0 -2.27689,0.9549 -2.27689,2.1221 0,1.1671 -1.70767,3.8138 -3.79483,5.8816 -2.08714,2.0677 -3.79481,4.6891 -3.79481,5.8252 0,1.1361 -1.36893,2.8384 -3.04205,3.7826 -1.67313,0.9443 -7.22385,5.6517 -12.33494,10.4611 -9.20425,8.6607 -11.94574,10.2885 -11.94574,7.0921 z"
               style="display:inline;opacity:0.72899996;fill:#ffccaa;fill-opacity:1;stroke:none"
               sodipodi:nodetypes="ssssscssccsssscscssscssscsccs"
               inkscape:export-filename="C:\Users\Home\Desktop\mofed.png"
               inkscape:export-xdpi="90"
               inkscape:export-ydpi="90" />
            <path
               inkscape:connector-curvature="0"
               id="path3455"
               d="m 375.52718,1466.1309 c -20.6711,-20.9015 -22.48928,-25.2006 -22.48928,-27.4796 0,-0.7746 3.0454,-1.4085 1.87867,-1.4085 -3.24211,0 -2.59242,2.0582 3.06301,9.7035 4.7904,6.4759 5.84511,21.0536 4.29858,22.6494 -3.22082,3.3236 -23.82114,-17.6335 -48.9638,-49.8646 -10.41493,-13.3512 -12.64306,-19.6964 -15.93643,-33.0784 -2.54074,-10.3238 -0.53614,-10.5227 2.44402,-19.198 7.3107,-21.2817 27.58724,-28.7747 48.9733,-18.0976 7.72279,3.8556 11.55263,4.7582 23.95573,5.6455 13.65331,0.9766 16.50903,-0.6492 19.53122,2.9764 1.79734,2.1562 3.76789,8.4511 3.76789,9.1 0,1.6621 -11.3778,5.9541 -15.78402,5.9541 -4.26034,0 -9.57986,3.4018 -7.98965,6.1382 0.60348,1.0383 5.09581,5.3336 10.49389,11.5625 33.89324,39.1095 28.2476,45.5904 22.59349,45.5904 -0.77782,0 -1.41422,-0.9138 -1.41422,-2.0308 0,-1.1169 -1.70626,-2.4727 -3.79169,-3.0128 -2.08543,-0.5401 -8.70154,-7.9123 -14.70248,-13.9383 -11.45485,-11.5028 -13.74126,-14.8005 -5.75727,-3.7494 8.68938,12.0275 19.47379,32.3142 22.51527,38.3834 2.29141,4.5724 1.06228,9.1562 -0.46018,9.1562 -3.49672,0 -22.52085,-16.8121 -28.44073,-25.1338 -5.51074,-7.7465 -9.86287,-11.6091 -7.506,-5.2123 0.76169,2.0672 3.45062,6.8282 5.9754,10.5799 5.74509,8.537 10.17747,10.5555 13.89617,18.6585 5.30038,11.5493 1.34746,17.7326 -10.15089,6.1061 z"
               style="display:inline;opacity:0.72899996;fill:#ffccaa;fill-opacity:1;stroke:none"
               sodipodi:nodetypes="sssscsssscssscssssssssscsss"
               inkscape:export-filename="C:\Users\Home\Desktop\mofed.png"
               inkscape:export-xdpi="90"
               inkscape:export-ydpi="90" />
            <path
               inkscape:connector-curvature="0"
               id="path3457"
               d="m 554.09988,1626.5896 c -0.52431,-21.762 0.93545,-47.3826 0.79948,-56.9346 -0.13592,-9.552 -0.70055,7.288 -1.25461,37.4221 -0.55405,30.1342 3.75493,41.6759 -3.69352,55.5038 -0.3774,0.3929 -6.83119,-0.6359 -14.34178,-2.2863 -7.51057,-1.6503 -15.02311,-3.0112 -16.69452,-3.0243 -1.67139,-0.012 -4.22037,-1.3828 -5.66437,-3.0441 -1.444,-1.6611 -3.50341,-3.0203 -4.57647,-3.0203 -1.07305,0 -1.951,-0.6383 -1.951,-1.4185 0,-0.7802 -12.89176,-13.8598 -28.64834,-29.0657 -15.7566,-15.2061 -36.70779,-35.8051 -46.55821,-45.7755 -20.64127,-20.8926 -48.6801,-54.4224 -47.36397,-56.6395 0.49258,-0.8298 2.65214,-1.5222 4.79902,-1.5386 2.14686,-0.015 9.42038,-2.055 16.16336,-4.5305 16.86855,-6.1928 24.52944,-5.9887 43.66381,1.1623 l 15.15314,5.6634 45.69228,-0.163 c 50.69152,-0.1806 95.26867,-2.5954 111.38577,-6.034 5.81493,-1.2404 18.00403,-5.2808 27.08686,-8.9782 22.83759,-9.2969 26.78945,-9.1677 48.79924,1.5956 9.35558,4.5751 19.0236,8.7374 21.48449,9.25 2.4609,0.5124 4.47146,1.3564 4.46791,1.8754 -0.0231,3.3704 -28.09978,36.5312 -48.10965,56.8214 -38.06852,38.6019 -81.20013,81.4525 -83.23479,82.6926 -1.03028,0.628 -8.57165,2.5399 -16.75861,4.2486 -8.18696,1.7087 -15.96692,3.7093 -17.28881,4.446 -2.19836,1.2249 -2.48476,-2.0369 -3.35671,-38.2281 z"
               style="display:inline;opacity:0.72899996;fill:#803300;fill-opacity:1;stroke:none"
               sodipodi:nodetypes="sssccccssssccsccscsscsscscs"
               inkscape:export-filename="C:\Users\Home\Desktop\mofed.png"
               inkscape:export-xdpi="90"
               inkscape:export-ydpi="90" />
            <g
               transform="matrix(1,0,0,1.0318893,174.63874,736.30473)"
               id="g3446"
               inkscape:export-filename="C:\Users\Home\Desktop\mofed.png"
               inkscape:export-xdpi="90"
               inkscape:export-ydpi="90">
              <path
                 sodipodi:nodetypes="csssssssccccscsssssccccsssccscssssssssccsccssssscscsssccsscssssccssscssscscsscscsssssscsscssssscsssccsscssssscsccscscsscccccssssscssssssssccccccscc"
                 inkscape:connector-curvature="0"
                 id="path3466"
                 d="m 413.39251,936.3907 c -3.4223,-0.4507 -12.852,-2.3268 -20.9548,-4.1691 -13.034,-2.9635 -16.3132,-3.0243 -28.4454,-0.5279 -19.9541,4.1059 -74.08797,3.5909 -89.75334,-0.8539 -35.16225,-9.9767 -36.78277,-24.4779 -3.91268,-35.0126 6.9107,-2.2148 20.71238,-3.7932 39.53281,-4.5211 24.20571,-0.9362 28.58611,-1.5728 26.89431,-3.9086 -1.2503,-1.7262 -1.3326,-2.7903 -0.2157,-2.7903 0.9929,0 2.2658,1.3751 2.8286,3.0556 0.614,1.8334 3.3569,3.0843 6.8571,3.1272 3.2086,0.039 11.0339,1.3822 17.3897,2.984 6.3558,1.6019 12.1427,2.9447 12.8598,2.9841 0.7171,0.039 1.531,-23.9913 1.8086,-53.4015 l 0.5048,-53.473 0.4137,54.4916 c 0.2275,29.9703 0.7616,54.4915 1.1868,54.4915 0.4253,0 2.7309,-0.8528 5.1236,-1.8952 2.3927,-1.0424 10.6294,-2.8959 18.3036,-4.1189 12.3637,-1.9704 14.767,-3.0888 21.0971,-9.8179 l 9.394,-8.3443 -8.3744,8.389 -6.1243,7.639 12.3491,0.016 c 18.7109,0.025 43.0801,3.6645 55.2089,8.2447 12.7001,4.7958 20.2585,12.4894 17.3897,17.7006 -6.3282,11.495 -28.5748,18.5746 -61.9977,19.7298 -12.7278,0.4399 -25.9416,0.4311 -29.3639,-0.02 z m -85.4707,-57.3854 -4.30998,-5.6019 4.88908,4.9384 c 4.5695,4.6158 5.7043,6.2654 4.31,6.2654 -0.3185,0 -2.5185,-2.5208 -4.8891,-5.6019 z m 108.5826,-7.639 c 2.2965,-2.801 18.8255,-17.0927 19.3144,-17.0927 0.4889,0 -15.2401,14.2917 -17.5366,17.0927 -2.2965,2.801 -13.2005,12.5927 -13.6894,12.5927 -0.4889,0 9.6151,-9.7917 11.9116,-12.5927 z m -120.94454,-3.62 c -3.45076,-3.6109 -9.85097,-10.0715 -14.22269,-14.3569 -5.90885,-5.792 -5.15942,-5.3789 2.9204,1.61 9.8211,8.4952 35.24373,33.7572 33.33073,33.6174 -0.4149,-0.03 -18.57768,-17.2595 -22.02844,-20.8705 z m 134.79224,-10.2002 c 4.4001,-4.682 10.7753,-9.8946 13.7087,-12.1947 7.6817,-6.0231 3.5605,-1.534 -9.7781,10.6509 -9.3873,8.5754 -10.4296,8.459 -3.9306,1.5438 z m -164.24375,-18.2636 -12.22559,-11.8312 13.28342,11.3002 c 2.51966,2.1435 15.65293,15.2914 16.06036,15.5834 0.40741,0.292 2.4314,2.031 1.44215,2.031 -0.98922,0 -16.69763,-14.5625 -18.56034,-17.0834 z M 463.57581,846.5 c 0,-0.4403 9.7269,-10.8924 11.2444,-11.5596 1.5821,-0.6957 30.1309,-26.8676 1.6729,0.8006 -1.0441,1.9356 -12.9173,12.4088 -12.9173,10.759 z m -186.35664,-15.3658 -14.34692,-13.4222 14.96029,12.7194 c 3.99016,3.3925 6.05948,5.7862 4.63677,5.7862 -0.33736,0 -3.38742,-2.5625 -5.25014,-5.0834 z m 198.12924,3.7708 c 0.4074,-0.317 15.7158,-15.1712 17.6715,-16.8149 3.289,-2.7643 -0.1274,1.4039 -2.3843,4.7015 -1.342,1.9606 -7.4004,6.8148 -8.4215,6.8148 -1.021,0 -7.2731,5.6156 -6.8657,5.2986 z m -207.01842,-11.919 -3.38676,-4.5834 4.00013,3.8805 c 3.75913,3.6468 8.30948,7.7863 6.88676,7.7863 -0.33736,0 -5.63742,-4.5626 -7.50013,-7.0834 z m 221.67722,-2.0371 c 0.4182,-0.2801 3.9517,-3.7177 7.8521,-7.639 l 19.9668,-19.2547 -19.0018,19.764 c -3.7327,3.8825 -6.9031,7.639 -7.8521,7.639 -0.9489,0 -1.3832,-0.2292 -0.965,-0.5093 z m -233.1988,-9.1668 -4.31003,-5.6019 4.88905,4.9384 c 4.56955,4.6158 34.16539,32.0748 32.77108,32.0748 -0.31846,0 -30.97958,-28.3302 -33.3501,-31.4113 z m 260.0772,-17.8022 c 7.1349,-7.2292 15.3096,-17.5521 15.6151,-17.0438 0.3055,0.5083 -8.19,10.7252 -15.0596,17.968 l -21.99,20.7937 z m -274.26104,3.5427 -6.12672,-7.639 6.66689,7.0201 c 6.20539,6.5341 15.29681,14.7579 13.93922,14.7579 -0.29709,0 -11.10969,-9.9375 -14.47939,-14.139 z m 286.71104,-17.1904 c 0,-0.3506 20.3573,-27.09 18.1027,-23.1095 l -0.222,0.392 -7.4717,10.7454 c -4.487,6.4531 -10.409,13.5459 -10.409,11.9721 z m -312.56287,-12.3471 -5.50808,-8.4725 30.78808,36.4523 c 2.20008,2.1344 -4.8349,-4.237 -4.57981,-3.9467 7.95495,9.0549 -17.51748,-19.7258 -20.70019,-24.0331 z m -10.94256,-12.7314 c -3.17788,-3.3628 -5.77797,-6.7595 -5.77797,-7.5481 0,-0.7885 1.9637,0.8163 4.36378,3.5663 5.60702,6.4246 12.11685,6.3988 29.92729,-0.1185 17.84113,-6.5286 25.79203,-6.3829 44.09366,0.8081 19.85011,7.7994 91.28654,0.16326 62.88747,6.2064 l -17.29746,3.68079 c 14.7496,-99.12197 19.32372,-117.36667 20.81118,-172.36398 1.1219,-41.48124 22.64527,-179.8164 0.15179,-198.11168 -4.86487,-19.51207 10.22202,18.74418 -8.26311,-16.9144 -13.46699,5.78336 -10.70927,13.74446 -13.46699,16.06218 -2.98528,2.50897 -10.8402,-2.82653 12.42541,-20.74357 15.52582,-9.74514 16.12834,-9.78438 41.90648,-9.55927 25.77814,0.22512 32.47886,1.44854 32.47925,0.22724 -2.5039,-2.2502 9.82227,7.22749 14.02565,10.20104 7.65343,5.41417 13.49776,7.82959 10.44596,12.82399 -1.4616,2.392 -2.41688,0.0922 -5.3381,-2.21306 -15.68075,-13.26806 -8.03914,-11.84918 -17.20721,9.10287 -15.55635,44.50248 -10.60512,48.18306 -7.93888,90.80814 0.69091,87.40772 -0.63794,75.19064 27.30553,274.53737 L 415.5604,755.609 c 0,0 44.2707,-5.9751 60.94,-14.2654 14.3029,-7.1133 26.7909,-5.9365 46.4639,4.3788 20.3402,10.6651 24.1562,10.7683 32.3009,0.8737 3.4584,-4.2014 9.6613,-16.2353 8.5986,-13.9945 -1.0626,2.2407 -9.1606,17.7122 -12.81,21.6335 -3.6495,3.9214 -6.068,5.9839 -5.3745,4.5834 0.8748,-1.7667 -0.2182,-2.5463 -3.5701,-2.5463 -2.657,0 -11.7715,-3.6634 -20.2546,-8.1408 -21.7479,-11.4788 -27.6828,-12.006 -46.2378,-4.1074 -27.523,11.7161 -31.613,12.4131 -87.114,14.8444 -82.54731,3.6162 -90.0582,3.3085 -110.99161,-4.5466 -19.63537,-7.3681 -26.08332,-7.374 -44.68401,-0.041 -5.62085,2.2159 -12.4279,4.0288 -15.12676,4.0288 -2.69887,0 -5.17371,0.6883 -5.49965,1.5295 -0.32594,0.8412 -3.1927,-1.2219 -6.37058,-4.5848 z m -20.51746,-41.56613 c -8.0717,-20.8414 18.07084,27.3185 17.63916,38.2063 -0.3672,0.4207 -15.55033,-32.6427 -17.63916,-38.2063 z m 370.05639,33.3363 c -0.035,-0.7117 8.5304,-17.8133 9.9588,-21.5832 1.4285,-3.7699 9.14737,-22.1748 9.15107,-20.4942 0.01,2.9356 -18.98077,44.7277 -19.10987,42.0774 z"
                 style="display:inline;fill:#000000" />
              <path
                 sodipodi:nodetypes="cscsscsssscsssscsssssssssccccccccsscsscccscccscssscssscccssssscscsscssscsssssssccscsssssssscssscccssssccscssssssccscsssssssscsscscssssssscsssscssscssssscssccsssssss"
                 inkscape:connector-curvature="0"
                 id="path4566"
                 d="m 329.50487,406.6743 c -0.5712,-0.012 -7.3714,9.2571 -15.1116,20.5979 -7.7401,11.3408 -15.273,22.2265 -16.7398,24.1904 -2.8975,3.8799 -38.9585,55.0963 -50.9929,72.4239 -10.8038,15.5556 -29.6521,47.1123 -36.8285,61.6602 l -6.2108,12.5902 6.8179,0 c 8.6862,0 13.0786,10.1351 10.9345,15.6912 -1.4007,3.6294 -0.4493,3.6857 -1.104,-0.603 -1.0499,-6.8781 -3.9462,-12.8199 -21.4096,-12.6109 -13.4315,0.1607 -16.8889,-0.5069 -22.447,-4.335 -3.6135,-2.4887 -11.0071,-5.0497 -16.4302,-5.691 -18.03796,-2.1332 -32.36426,8.04 -36.57906,25.9749 -1.0412,4.4306 -2.2622,8.0557 -2.7135,8.0557 -0.4512,0 -0.7641,-4.3543 -0.6954,-9.6761 0.094,-7.2804 0.5032,-8.6674 1.6529,-5.6019 0.8403,2.2407 1.5841,2.9601 1.6529,1.5986 0.2558,-5.0692 11.2215,-16.7277 18.8899,-20.0833 9.97866,-4.3665 24.98026,-2.9455 34.11786,3.232 3.7976,2.5673 10.0971,4.5621 15.2664,4.8342 8.6861,0.4572 8.8613,0.3445 13.4383,-8.6378 15.3415,-30.1075 38.8555,-67.0282 72.1919,-113.3531 18.9178,-26.2884 41.0941,-58.1416 47.51,-68.2417 4.3946,-6.918 4.4532,-7.4219 1.9732,-16.9655 -2.2833,-8.7864 -37.8778,21.8778 -40.5728,24.2638 -2.2625,2.0031 32.83,-29.895 35.37,-33.3061 5.3342,-6.5307 12.7857,17.0362 8.0194,23.9924 z m -144.4537,287.3955 4.3234,16.6612 -10.2792,-3.0466 c 15.8314,13.7963 11.4552,-3.6771 5.9558,-13.6146 z m 16.901,14.0275 c -6.0398,-5.5766 -11.6832,-9.9112 -12.5408,-9.6324 -0.8577,0.2787 -4.923,-3.8474 -9.034,-9.1693 -5.6524,-7.3172 -6.7154,-9.676 -4.3604,-9.676 1.7128,0 2.5915,0.5988 1.9528,1.3307 -0.6388,0.7318 1.0996,3.2527 3.863,5.6019 2.7634,2.3492 4.649,5.5447 4.1901,7.1011 -0.4591,1.5574 -3.135,-0.3619 -2.1451,-1.0631 0.9895,-0.7007 8.8035,4.9746 13.5632,9.411 24.5975,24.6528 13.7367,-0.4338 2.4254,-15.975 -11.8586,-16.1541 -12.6454,-23.9508 -0.8827,-8.7486 3.9112,5.0549 7.0115,9.4945 5.7892,8.6653 -4.0345,-2.7369 -3.227,-0.084 4.8778,11.3159 13.2272,18.9031 3.4367,21.0641 -7.6985,10.8385 z m -11.0368,-37.0128 c 0,-0.423 4.0015,3.7017 2.2903,2.164 -2.8198,-2.5338 -2.8826,-2.4618 -0.6712,0.7691 2.3225,3.3933 -1.6191,-1.2565 -1.6191,-2.9331 z m 26.2281,26.3085 c -5.6049,-4.5272 -13.627,-11.4124 -13.197,-11.9051 0.43,-0.4928 7.2252,4.3096 10.4706,7.2767 3.2453,2.9671 6.6112,5.2701 7.4797,5.1177 0.8684,-0.1524 2.179,0.8353 2.9124,2.1949 0.7334,1.3596 2.2359,1.8329 3.339,1.0518 1.1031,-0.7812 1.4048,-2.5028 0.6704,-3.8259 -0.7343,-1.323 -1.3474,-3.0776 -1.3623,-3.899 -0.015,-0.8214 -3.5895,-6.7195 -7.9433,-13.107 -4.3538,-6.3874 -10.447,-16.8301 -9.3448,-16.0496 1.1021,0.7805 9.0971,12.8538 13.571,19.6733 13.3018,20.2754 10.05,26.9175 -6.5957,13.4722 z m -62.7747,-16.2456 -3.38666,-4.5834 4.00006,3.8806 c 3.7591,3.6468 23.9638,28.4052 28.2087,30.3983 2.1224,0.9965 -5.4509,-3.9918 -11.9125,-10.4238 -6.4616,-6.432 -15.9782,-18.0113 -16.9096,-19.2717 z m 66.2875,-8.9586 c -5.5642,-5.0577 -10.1167,-8.4834 -10.1167,-7.6127 0,0.8708 -2.769,-1.4919 -6.1533,-5.2504 -7.1768,-7.9703 -6.7929,-12.498 0.4087,-4.8194 13.4808,14.3739 21.4671,20.9997 22.3347,18.53 0.5753,-1.6377 0.9589,-1.3247 1.0479,0.8547 0.086,2.1063 1.4827,3.3224 3.6054,3.1392 2.7507,-0.2374 3.0416,-0.8836 1.4113,-3.1345 -1.1296,-1.5595 -2.2172,-4.1116 -2.417,-5.6714 -0.3643,-2.8441 -7.9938,-14.9269 -16.5516,-26.2127 -2.7263,-3.5953 -3.1916,-4.8301 -1.1516,-3.0556 4.0185,3.4953 24.133,34.0794 24.133,36.6942 0,0.9839 -1.4476,2.6767 -3.217,3.7617 -2.5576,1.5684 -5.2908,0.088 -13.3338,-7.2231 z m -78.73226,-5.3009 -11.2439,-13.8691 11.8572,13.1663 c 3.5049,3.8918 13.02376,14.3933 11.60106,14.3933 -0.3374,0 -10.35166,-11.1696 -12.21436,-13.6905 z m -10.1454,-12.2228 c -4.8237,-7.474 -8.0767,-13.9112 -5.4045,-10.6946 3.2984,3.9704 11.4417,17.3151 10.5662,17.3151 -0.4889,0 -2.8117,-2.9792 -5.1617,-6.6205 z m -10.743,-23.9355 c 0,-2.801 -0.6679,-11.6254 -0.1747,-10.225 0.4932,1.4005 6.2075,23.1565 5.7143,24.557 -0.4932,1.4005 -5.5396,-11.5311 -5.5396,-14.332 z m 80.80906,-2.826 c -6.5935,-7.7946 -5.4755,-10.0927 5.1392,-10.5643 3.4223,-0.1519 9.9903,-3.6987 12.4348,-4.4863 4.0377,-1.301 2.2058,1.6563 -2.4685,4.7374 -3.3191,2.1879 -7.2512,3 -11.0789,2.2883 -5.2605,-0.9781 -9.9672,1.242 -6.4543,3.0445 1.7918,0.9194 13.989,15.9211 12.9026,15.9211 -0.4676,0 -7.2647,-7.1456 -10.4749,-10.9407 z M 121.41531,611.311 c -0.01,-2.9357 7.1518,-33.883 7.2808,-31.2327 0.035,0.7116 -1.1057,4.3784 -2.5342,8.1483 -1.4284,3.7699 -4.743,24.765 -4.7466,23.0844 z m 9.1216,-37.6189 c 1.0467,-2.2408 18.7316,-29.7885 19.2205,-29.7885 0.4889,0 -16.396,27.5477 -17.4426,29.7885 -1.0466,2.2408 -11.5887,36.2169 -12.0776,36.2169 -0.4889,0 9.2531,-33.9761 10.2997,-36.2169 z m -0.3072,1.3229 c 0,-1.1335 10.9965,-20.7713 13.1965,-22.9057 l 3.8216,-4.2377 -3.3581,5.4498 c -1.789,2.9033 -3.7453,5.4746 -4.0002,5.9415 -0.2548,0.4668 -9.6598,16.8852 -9.6598,15.7521 z m 11.8919,-20.5261 c 1.0069,-2.2533 10.81456,-16.3946 12.82716,-18.8696 27.7296,-34.1 5.0268,-3.7606 0.5045,2.4387 -7.11086,9.7478 -15.26506,20.7575 -13.33166,16.4309 z m 24.66546,-32.6116 c 4.099,-5.5248 21.3124,-20.7258 21.5977,-20.7258 1.335,0 -12.2194,13.2575 -20.0688,21.699 l -26.21256,32.2959 z m 13.8524,-14.4085 c 3.1327,-3.7941 16.9597,-16.5108 17.3278,-16.008 0.3682,0.5027 -8.6348,10.5618 -12.1495,13.8417 l -22.8053,23.5147 z m 16.5663,-15.2594 c 1.7698,-2.2408 7.8262,-7.0491 8.3151,-7.0491 0.4889,0 -4.7674,4.8083 -6.5372,7.0491 -1.7699,2.2408 -15.7608,15.5026 -16.2497,15.5026 -0.4889,0 12.702,-13.2618 14.4718,-15.5026 z m 4.8753,-4.3915 c 0,-0.8918 6.4161,-5.4972 9.8385,-8.4881 3.4223,-2.991 8.9903,-8.2268 8.9903,-7.8158 0,0.4111 -6.9073,6.6683 -10.3296,10.14 -3.4223,3.4717 -8.4992,7.0557 -8.4992,6.1639 z m -1.2182,1.7307 c 1.6879,-2.0192 47.023,-42.5185 47.4907,-41.9825 -1.4564,3.8345 -68.2512,63.5489 -70.239,64.7445 -3.8952,2.3429 19.8162,-19.2543 22.7483,-22.762 z m 34.5664,-30.7014 c 0.3124,-0.2852 2.025,-1.8486 3.7362,-3.3862 2.8198,-2.5339 3.1948,-1.7367 0.046,0.5905 z m -22.9777,19.9268 c 0,-1.2551 62.1517,-55.2399 70.0904,-60.9107 8.0089,-5.721 3.4426,-1.2383 -12.4449,12.2169 -7.8225,6.6249 -17.2228,14.6827 -20.8896,17.9063 -3.6668,3.2235 -36.7559,31.3849 -36.7559,30.7875 z m 68.2517,-59.22 c 0,-0.423 13.0168,-11.6236 14.728,-13.1613 2.8197,-2.5338 3.329,-3.1761 1.1176,0.055 -2.3225,3.3932 -15.8456,14.783 -15.8456,13.1064 z m 13.6388,-11.7168 c 0,-0.4789 9.2894,-8.6349 14.4229,-13.541 5.1336,-4.906 10.9785,-9.3602 9.2487,-7.4774 -1.6331,1.7776 -39.2612,35.4386 -44.8343,40.3708 -5.5732,4.9321 21.1627,-18.661 21.1627,-19.3524 z"
                 style="display:inline;fill:#000000" />
              <path
                 style="display:inline;fill:#000000"
                 d="m 425.30351,402.746 c 0.5712,-0.012 7.3714,9.2571 15.1116,20.5979 7.7401,11.3408 15.273,22.2265 16.7398,24.1904 2.8975,3.8799 38.9585,55.0963 50.9929,72.4239 10.8038,15.5556 29.6521,47.1123 36.8285,61.6602 l 6.2108,12.5902 -6.8179,0 c -8.6862,0 -13.07869,10.1351 -10.93459,15.6912 1.4007,3.6294 0.44937,3.6857 1.10407,-0.603 1.0499,-6.8781 3.94622,-12.8199 21.40962,-12.6109 13.4315,0.1607 16.8889,-0.5069 22.447,-4.335 3.6135,-2.4887 11.0071,-5.0497 16.4302,-5.691 18.038,-2.1332 32.3643,8.04 36.5791,25.9749 1.0412,4.4306 2.2622,8.0557 2.7135,8.0557 0.4512,0 0.7641,-4.3543 0.6954,-9.6761 -0.094,-7.2804 -0.5032,-8.6674 -1.6529,-5.6019 -0.8403,2.2407 -1.5841,2.9601 -1.6529,1.5986 -0.2558,-5.0692 -11.2215,-16.7277 -18.8899,-20.0833 -9.9787,-4.3665 -24.9803,-2.9455 -34.1179,3.232 -3.7976,2.5673 -10.0971,4.5621 -15.2664,4.8342 -8.6861,0.4572 -8.8613,0.3445 -13.4383,-8.6378 -15.3415,-30.1075 -38.8555,-67.0282 -72.1919,-113.3531 -18.9178,-26.2884 -41.0941,-58.1416 -47.51,-68.2417 -4.3946,-6.918 -4.4532,-7.4219 -1.9732,-16.9655 2.2833,-8.7864 37.8778,21.8778 40.5728,24.2638 2.2625,2.0031 -32.83,-29.895 -35.37,-33.3061 -5.3342,-6.5307 -12.7857,17.0362 -8.0194,23.9924 z m 144.45364,287.3955 -4.3234,16.6612 10.27918,-3.0466 c -15.8314,13.7963 -11.45518,-3.6771 -5.95578,-13.6146 z m -16.90094,14.0275 c 6.0398,-5.5766 11.6832,-9.9112 12.5408,-9.6324 0.8577,0.2787 4.923,-3.8474 9.034,-9.1693 5.6524,-7.3172 6.7154,-9.676 4.3604,-9.676 -1.7128,0 -2.5915,0.5988 -1.9528,1.3307 0.6388,0.7318 -1.0996,3.2527 -3.863,5.6019 -2.7634,2.3492 -4.649,5.5447 -4.1901,7.1011 0.4591,1.5574 3.13495,-0.3619 2.14505,-1.0631 -0.9895,-0.7007 -8.80345,4.9746 -13.56315,9.411 -24.5975,24.6528 -13.7367,-0.4338 -2.4254,-15.975 11.8586,-16.1541 12.6454,-23.9508 0.8827,-8.7486 -3.9112,5.0549 -7.01155,9.4945 -5.78925,8.6653 4.0345,-2.7369 3.22705,-0.084 -4.87775,11.3159 -13.2272,18.9031 -3.4367,21.0641 7.6985,10.8385 z M 563.893,667.1562 c 0,-0.423 -4.00149,3.7017 -2.29029,2.164 2.8198,-2.5338 2.8826,-2.4618 0.6712,0.7691 -2.3225,3.3933 1.61909,-1.2565 1.61909,-2.9331 z m -26.22809,26.3085 c 5.6049,-4.5272 13.627,-11.4124 13.197,-11.9051 -0.43,-0.4928 -7.2252,4.3096 -10.4706,7.2767 -3.2453,2.9671 -6.6112,5.2701 -7.4797,5.1177 -0.8684,-0.1524 -2.179,0.8353 -2.9124,2.1949 -0.7334,1.3596 -2.2359,1.8329 -3.339,1.0518 -1.1031,-0.7812 -1.4048,-2.5028 -0.6704,-3.8259 0.7343,-1.323 1.3474,-3.0776 1.3623,-3.899 0.015,-0.8214 3.5895,-6.7195 7.9433,-13.107 4.3538,-6.3874 10.44693,-16.8301 9.34473,-16.0496 -1.1021,0.7805 -9.09703,12.8538 -13.57093,19.6733 -13.3018,20.2754 -10.05,26.9175 6.5957,13.4722 z m 62.7747,-16.2456 3.3867,-4.5834 -4.0001,3.8806 c -3.7591,3.6468 -23.96385,28.4052 -28.20875,30.3983 -2.1224,0.9965 5.45091,-3.9918 11.91251,-10.4238 6.4616,-6.432 15.97824,-18.0113 16.90964,-19.2717 z m -66.2875,-8.9586 c 5.5642,-5.0577 10.1167,-8.4834 10.1167,-7.6127 0,0.8708 2.769,-1.4919 6.1533,-5.2504 7.1768,-7.9703 6.7929,-12.498 -0.4087,-4.8194 -13.4808,14.3739 -21.4671,20.9997 -22.3347,18.53 -0.5753,-1.6377 -0.9589,-1.3247 -1.0479,0.8547 -0.086,2.1063 -1.4827,3.3224 -3.6054,3.1392 -2.7507,-0.2374 -3.0416,-0.8836 -1.4113,-3.1345 1.1296,-1.5595 2.2172,-4.1116 2.417,-5.6714 0.3643,-2.8441 7.9938,-14.9269 16.5516,-26.2127 2.7263,-3.5953 3.1916,-4.8301 1.1516,-3.0556 -4.0185,3.4953 -24.133,34.0794 -24.133,36.6942 0,0.9839 1.4476,2.6767 3.217,3.7617 2.5576,1.5684 5.2908,0.088 13.3338,-7.2231 z m 78.7323,-5.3009 11.2439,-13.8691 -11.8572,13.1663 c -3.5049,3.8918 -13.0238,14.3933 -11.6011,14.3933 0.3374,0 10.3517,-11.1696 12.2144,-13.6905 z m 10.1454,-12.2228 c 4.8237,-7.474 8.0767,-13.9112 5.4045,-10.6946 -3.2984,3.9704 -11.4417,17.3151 -10.5662,17.3151 0.4889,0 2.8117,-2.9792 5.1617,-6.6205 z m 10.743,-23.9355 c 0,-2.801 0.6679,-11.6254 0.1747,-10.225 -0.4932,1.4005 -6.2075,23.1565 -5.7143,24.557 0.4932,1.4005 5.5396,-11.5311 5.5396,-14.332 z m -80.8091,-2.826 c 6.5935,-7.7946 5.4755,-10.0927 -5.1392,-10.5643 -3.4223,-0.1519 -9.9903,-3.6987 -12.4348,-4.4863 -4.0377,-1.301 -2.2058,1.6563 2.4685,4.7374 3.3191,2.1879 7.2512,3 11.0789,2.2883 5.2605,-0.9781 9.9672,1.242 6.4543,3.0445 -1.7918,0.9194 -13.989,15.9211 -12.9026,15.9211 0.4676,0 7.2647,-7.1456 10.4749,-10.9407 z m 80.4294,-16.5926 c 0.01,-2.9357 -7.1518,-33.883 -7.2808,-31.2327 -0.035,0.7116 1.1057,4.3784 2.5342,8.1483 1.4284,3.7699 4.743,24.765 4.7466,23.0844 z m -9.1216,-37.6189 c -1.0467,-2.2408 -18.7316,-29.7885 -19.2205,-29.7885 -0.4889,0 16.396,27.5477 17.4426,29.7885 1.0466,2.2408 11.5887,36.2169 12.0776,36.2169 0.4889,0 -9.2531,-33.9761 -10.2997,-36.2169 z m 0.3072,1.3229 c 0,-1.1335 -10.9965,-20.7713 -13.1965,-22.9057 l -3.8216,-4.2377 3.3581,5.4498 c 1.789,2.9033 3.7453,5.4746 4.0002,5.9415 0.2548,0.4668 9.6598,16.8852 9.6598,15.7521 z m -11.8919,-20.5261 c -1.0069,-2.2533 -10.8146,-16.3946 -12.8272,-18.8696 -27.7296,-34.1 -5.0268,-3.7606 -0.5045,2.4387 7.1109,9.7478 15.2651,20.7575 13.3317,16.4309 z m -24.6655,-32.6116 c -4.099,-5.5248 -21.3124,-20.7258 -21.5977,-20.7258 -1.335,0 12.2194,13.2575 20.0688,21.699 l 26.2126,32.2959 z m -13.8524,-14.4085 c -3.1327,-3.7941 -16.9597,-16.5108 -17.3278,-16.008 -0.3682,0.5027 8.6348,10.5618 12.1495,13.8417 l 22.8053,23.5147 z m -16.5663,-15.2594 c -1.7698,-2.2408 -7.8262,-7.0491 -8.3151,-7.0491 -0.4889,0 4.7674,4.8083 6.5372,7.0491 1.7699,2.2408 15.7608,15.5026 16.2497,15.5026 0.4889,0 -12.702,-13.2618 -14.4718,-15.5026 z m -4.8753,-4.3915 c 0,-0.8918 -6.4161,-5.4972 -9.8385,-8.4881 -3.4223,-2.991 -8.9903,-8.2268 -8.9903,-7.8158 0,0.4111 6.9073,6.6683 10.3296,10.14 3.4223,3.4717 8.4992,7.0557 8.4992,6.1639 z m 1.2182,1.7307 c -1.6879,-2.0192 -47.023,-42.5185 -47.4907,-41.9825 1.4564,3.8345 68.2512,63.5489 70.239,64.7445 3.8952,2.3429 -19.8162,-19.2543 -22.7483,-22.762 z m -34.5664,-30.7014 c -0.3124,-0.2852 -2.025,-1.8486 -3.7362,-3.3862 -2.8198,-2.5339 -3.1948,-1.7367 -0.046,0.5905 z m 22.9777,19.9268 c 0,-1.2551 -62.1517,-55.2399 -70.0904,-60.9107 -8.0089,-5.721 -3.4426,-1.2383 12.4449,12.2169 7.8225,6.6249 17.2228,14.6827 20.8896,17.9063 3.6668,3.2235 36.7559,31.3849 36.7559,30.7875 z m -68.2517,-59.22 c 0,-0.423 -13.0168,-11.6236 -14.728,-13.1613 -2.8197,-2.5338 -3.329,-3.1761 -1.1176,0.055 2.3225,3.3932 15.8456,14.783 15.8456,13.1064 z m -13.6388,-11.7168 c 0,-0.4789 -9.2894,-8.6349 -14.4229,-13.541 -5.1336,-4.906 -10.9785,-9.3602 -9.2487,-7.4774 1.6331,1.7776 39.2612,35.4386 44.8343,40.3708 5.5732,4.9321 -21.1627,-18.661 -21.1627,-19.3524 z"
                 id="path4558"
                 inkscape:connector-curvature="0"
                 sodipodi:nodetypes="cscsscsssscsssscsssssssssccccccccsscsscccscccscssscssscccssssscscsscssscsssssssccscsssssssscssscccssssccscssssssccscsssssssscsscscssssssscsssscssscssssscssccsssssss" />
            </g>
            <path
               transform="translate(125.3695,846.09519)"
               inkscape:connector-curvature="0"
               id="path3392"
               d=""
               style="opacity:0.72899996;fill:#ffeeaa;fill-opacity:1;stroke:none" />
            <path
               inkscape:connector-curvature="0"
               id="path3416"
               d="m 480.38898,663.7696 c 0,-1.543 -4.0383,-32.7081 -8.97399,-69.2558 -13.75125,-101.82494 -14.96802,-115.27882 -17.22437,-190.45034 -2.1829,-72.7241 -1.63797,-87 3.3209,-87 2.08768,0 2.87746,-2.5338 2.87746,-9.23157 0,-7.24045 4.49576,-25.73862 7.42565,-30.55343 0.26272,-0.43175 1.82614,0.33412 3.47424,1.70193 2.27012,1.88402 2.74383,5.22589 1.95404,13.785 l -1.04252,11.29807 43.22023,63 c 23.77112,34.65 48.97615,72.62319 56.01117,84.38487 11.88036,19.8625 26.95719,48.14299 26.95719,50.56521 0,0.57746 -2.025,1.0637 -4.5,1.08054 -2.475,0.016 -5.5687,0.71016 -6.87488,1.5407 -3.08201,1.95972 -6.10589,10.52786 -5.1703,14.65002 0.92185,4.06158 8.9142,7.77866 16.72549,7.77866 l 5.99209,0 -10.81649,13.5 c -13.04841,16.28564 -27.35591,38.77634 -27.35591,43.00214 0,3.5531 5.28631,6.115 8.68048,4.20682 1.27573,-0.71722 4.34452,-3.12702 6.81952,-5.35512 5.58753,-5.03014 5.80869,-2.80922 0.46726,4.69214 -5.43497,7.6327 -11.92776,22.3999 -10.71295,24.3655 2.10775,3.41042 8.39149,1.2754 16.38569,-5.56732 4.598,-3.93572 8.36,-6.74908 8.36,-6.25192 0,0.49718 -2.31563,5.04706 -5.14585,10.11086 -8.3145,14.87628 -1.20124,18.28356 13.14585,6.2969 4.60815,-3.85 8.74672,-7 9.19684,-7 0.45011,0 0.58995,2.925 0.31077,6.5 -0.40097,5.13444 0.22768,6.44164 2.99239,6.22222 4.54952,-0.36108 4.66387,-0.8238 -5.25831,21.27778 -11.93489,26.58484 -13.50445,27.27612 -37.59388,16.5573 -28.18346,-12.54048 -28.99235,-12.5789 -56.24082,-2.67182 -6.37616,2.31826 -17.40116,5.43252 -24.5,6.92056 -11.02756,2.31156 -12.90699,2.29702 -12.90699,-0.0999 z"
               style="opacity:0.72899996;fill:#eeffaa;fill-opacity:1;stroke:none"
               transform="translate(125.3695,846.09519)"
               inkscape:export-filename="C:\Users\Home\Desktop\mofed.png"
               inkscape:export-xdpi="90"
               inkscape:export-ydpi="90" />
            <path
               transform="translate(125.3695,846.09519)"
               inkscape:connector-curvature="0"
               id="path3418"
               d="m 172.9112,512.79842 c 0.64455,-1.79578 3.02314,-9.25864 5.28576,-16.58414 9.75417,-31.58031 30.77446,-58.31589 87.39543,-111.15769 68.53989,-63.96519 89.87746,-82.48993 102.25145,-88.77209 6.4342,-3.26659 6.45922,-3.25971 7.81632,2.14741 1.77626,7.07716 0.25402,9.64932 -45.35162,76.63155 -34.72465,51.00105 -61.23469,93.3195 -75.17299,120 -4.93026,9.43742 -6.65224,11.0877 -12.12218,11.61744 -3.80919,0.3689 -10.72999,-1.44252 -17.19298,-4.5 -11.30669,-5.34892 -25.09798,-6.666 -34.07236,-3.25396 -2.69574,1.02492 -8.30051,5.29992 -12.45504,9.5 -4.15453,4.20008 -7.02633,6.16726 -6.38179,4.37148 z"
               style="opacity:0.72899996;fill:#eeffaa;fill-opacity:1;stroke:none"
               inkscape:export-filename="C:\Users\Home\Desktop\mofed.png"
               inkscape:export-xdpi="90"
               inkscape:export-ydpi="90" />
            <path
               transform="translate(125.3695,846.09519)"
               inkscape:connector-curvature="0"
               id="path3420"
               d="m 256.45574,666.1439 c -7.87515,-9.48898 -21.45976,-53.08044 -16.54171,-53.08044 0.4615,0 4.51916,3.15 9.01702,7 14.08833,12.05908 22.34466,8.0395 13.45045,-6.54834 -5.53733,-9.08206 -5.14107,-9.30874 4.30755,-2.4642 4.56505,3.3069 10.06261,6.01254 12.21682,6.01254 3.25815,0 3.6957,-0.9248 2.60217,-5.5 -0.72301,-3.025 -3.97057,-9.8348 -7.21681,-15.1329 -3.24624,-5.29808 -5.90225,-10.08436 -5.90225,-10.63618 0,-0.55182 2.73194,0.94202 6.07098,3.31962 6.758,4.81212 11.92902,4.0617 11.92902,-1.73116 0,-4.64272 -17.20668,-31.46388 -29.39467,-45.81938 l -8.91463,-10.5 6.25397,0 c 9.20467,0 18.05533,-5.1992 18.05533,-10.60634 0,-7.3184 -5.50366,-13.39366 -12.13348,-13.39366 l -5.90667,0 8.93131,-17.7833 c 13.57935,-27.0381 27.27814,-48.75124 74.1502,-117.53106 38.18041,-56.02573 42.95864,-63.92217 42.95864,-70.99294 0,-4.37561 -0.89822,-9.63399 -1.99604,-11.68529 -1.47503,-2.75612 -1.17672,-4.54893 1.14286,-6.86851 1.72639,-1.72639 3.97248,-3.1389 4.9913,-3.1389 3.26672,0 11.86188,20.48813 11.86188,28.27493 0,4.20321 1.19424,8.23249 2.70478,9.12569 6.01407,3.55621 5.38656,51.74939 -1.67444,128.59938 -1.66763,18.15 -3.91044,49.2 -4.98403,69 -1.1296,20.83318 -5.5117,61.17188 -10.40135,95.74802 l -8.44938,59.74804 -19.09779,-1.00068 c -11.41342,-0.59802 -25.27839,-2.85436 -34.45826,-5.60764 l -15.36047,-4.60698 -16.63953,4.64166 c -23.46388,6.54532 -28.3555,7.0346 -31.57277,3.15802 z"
               style="opacity:0.72899996;fill:#eeffaa;fill-opacity:1;stroke:none"
               inkscape:export-filename="C:\Users\Home\Desktop\mofed.png"
               inkscape:export-xdpi="90"
               inkscape:export-ydpi="90" />
          </g>
        </g>
        <g
           transform="translate(188.96045,-380.80824)"
           id="g4482"
           inkscape:export-filename="C:\Users\Home\Desktop\mofed.png"
           inkscape:export-xdpi="90"
           inkscape:export-ydpi="90">
          <path
             sodipodi:nodetypes="ssssssscccssssss"
             inkscape:connector-curvature="0"
             id="path3389"
             d="M 224.66117,635.00036 C 209.49363,631.462 196.58405,624.07861 184.532,612.04924 c -7.25721,-7.24356 -8.77674,-9.45461 -14.16633,-20.61328 -6.9666,-14.42372 -14.36121,-36.65942 -17.2656,-51.91792 -3.08286,-16.19611 -3.51676,-17.4009 -7.01007,-19.46445 -3.42972,-2.02598 -6.87207,-8.47162 -6.90686,-12.93277 -0.0259,-3.31932 1.34611,-6.24167 4.54661,-9.68426 3.39505,-3.65186 8.779,1.34059 10.53616,-7.98392 35.97536,-98.74606 101.3753,-85.88457 139.62154,-60.17403 23.61888,18.55376 34.29432,37.03384 43.90585,69.22646 3.07106,10.22005 1.18508,19.78928 -4.73041,24.00149 -3.1831,2.26656 -4.0143,4.71408 -6.85874,20.1961 -6.12234,33.32321 -15.20354,53.52486 -31.97438,71.12884 -8.22988,8.63872 -18.73867,15.61399 -28.79774,19.11466 -6.60636,2.29908 -9.79392,2.76051 -21.27087,3.07913 -9.26385,0.25719 -15.38271,-0.0644 -19.49999,-1.02493 z"
             style="display:inline;fill:#ffe6d5" />
          <path
             sodipodi:nodetypes="sssssssssssssssscssssssscssssccssssscsccsssssscsssssssscccsssc"
             inkscape:connector-curvature="0"
             id="path4427"
             d="m 209.61259,565.24078 c -5.68716,-2.46905 -12.83518,-8.29555 -15.95445,-13.00478 -6.84169,-10.32907 -8.3086,-32.07033 -2.94785,-43.69034 7.55329,-16.37258 18.0015,-21.44061 32.99889,-16.00651 7.69162,2.78695 11.24037,5.48028 14.46032,10.97471 2.37677,4.05567 2.82245,4.38977 3.75385,2.81407 3.73387,-6.31678 5.56404,-8.29486 9.52684,-10.29681 11.59627,-5.85825 27.54183,0.19721 34.11611,12.95589 6.01321,11.66979 3.38643,31.43781 -5.77409,43.45344 -10.57274,13.86801 -24.75751,12.33416 -35.57284,-3.8466 -1.84139,-2.75488 -2.75218,-3.39969 -3.60187,-2.55 -0.6255,0.6255 -1.13727,1.64844 -1.13727,2.27321 0,2.02007 -13.69396,14.42403 -18.16312,16.45209 -5.1522,2.33804 -7.21413,2.42112 -11.70452,0.47163 z m 18.16408,-8.48984 c 8.25027,-6.58567 11.23385,-11.26371 12.34249,-19.35219 l 0.65603,-4.78623 -16.39748,0.61105 c -26.01939,0.96962 -32.97646,1.59982 -33.52799,3.03708 -0.70171,1.82861 4.95612,13.88117 8.78654,18.71746 3.88789,4.90886 9.72009,7.75137 15.96501,7.78105 4.16298,0.0198 5.36984,-0.57577 12.1754,-6.00822 z m 43.60478,0.58126 c 5.99833,-3.10186 13.52977,-14.72518 14.2882,-22.05108 l 0.31058,-3 -21,0.36625 c -11.55,0.20143 -21.1875,0.53893 -21.41667,0.75 -0.22916,0.21106 -0.41666,2.38578 -0.41666,4.8327 0,12.28019 17.9468,24.42213 28.23455,19.10213 z m -46.02209,-25.54591 16.37912,-0.005 -0.68974,-8.25 c -1.32191,-15.81141 -3.78895,-20.49097 -13.43533,-25.48459 -5.04884,-2.61362 -7.49451,-3.26541 -12.25267,-3.26541 -7.5628,0 -11.54835,1.6909 -16.7533,7.10771 -6.28739,6.5433 -8.30182,11.55093 -8.90547,22.13792 l -0.51745,9.07544 9.89786,-0.65536 c 5.44382,-0.36045 17.26846,-0.65769 26.27698,-0.66054 z m 60.86885,-8.85161 c -1.08722,-15.86226 -9.35364,-24.3841 -25.01992,-25.79301 -5.44559,-0.48974 -6.6648,-0.2619 -9.70426,1.81347 -6.588,4.49833 -8.0238,7.87892 -8.0238,18.89208 0,5.37368 0.27314,10.48213 0.60699,11.35211 0.52687,1.37302 3.38339,1.58179 21.64289,1.58179 l 21.03591,0 z m -12.95439,-37.16891 c -2.03852,-1.4882 -6.87602,-3.72498 -10.75,-4.97063 -3.87397,-1.24565 -7.04359,-2.50634 -7.04359,-2.80153 0,-0.29519 0.76541,-2.96485 1.7009,-5.93258 1.57911,-5.00952 1.88343,-5.3504 4.25,-4.76078 7.89088,1.96599 14.33433,8.15389 15.61849,14.99907 1.08922,5.80604 0.3538,6.48121 -3.7758,3.46645 z m -74.77714,-5.73465 c 0.0237,-5.38967 3.70561,-11.13224 9.92242,-15.47549 7.80685,-8.53315 12.53875,3.69792 11.70059,7.72267 -0.27325,0.71209 -2.79574,2.05829 -5.60553,2.99155 -2.80979,0.93327 -7.3871,3.23009 -10.1718,5.10406 -2.78471,1.87396 -5.24288,3.40721 -5.46261,3.40721 -0.21974,0 -0.39211,-1.6875 -0.38307,-3.75 z"
             style="display:inline;fill:#000000" />
          <path
             style="display:inline;fill:#000000"
             d="m 224.27312,636.34492 c -15.16754,-3.53836 -28.07712,-10.92175 -40.12917,-22.95112 -7.25721,-7.24356 -8.77674,-9.45461 -14.16633,-20.61328 -6.9666,-14.42372 -14.36121,-36.65942 -17.2656,-51.91792 -3.08286,-16.19611 -3.51676,-17.4009 -7.01007,-19.46445 -3.42972,-2.02598 -6.87207,-8.47162 -6.90686,-12.93277 -0.0259,-3.31932 1.34611,-8.04676 4.54661,-11.48934 3.39505,-3.65186 4.04066,0.43804 6.36191,-7.1942 35.97536,-98.74606 105.54956,-87.57683 143.7958,-61.8663 23.61888,18.55377 33.87376,38.75416 41.06474,62.67244 2.61653,8.70297 6.02619,23.05093 0.1107,27.26314 -3.1831,2.26656 -6.0143,4.71408 -8.85874,20.1961 -6.12234,33.32321 -15.20354,59.52486 -31.97438,77.12884 -8.22988,8.63872 -18.73867,15.61399 -28.79774,19.11466 -6.60636,2.29908 -9.79392,2.76051 -21.27087,3.07913 -9.26386,0.25719 -15.38272,-0.0644 -19.5,-1.02493 z m 37.13161,-2.93091 c 2.82238,-0.76417 7.80017,-2.81173 11.06174,-4.55013 24.47806,-13.04667 46.04918,-56.27612 54.74697,-106.33874 0.5201,-2.99356 1.30285,-4.03123 3.85613,-5.11198 5.79464,-2.45276 5.40713,-8.01732 5.28898,-12.98561 0,0 -4.29011,-7.99655 -6.28703,-12.0697 -3.51221,-7.16389 -5.23381,-10.63345 -10.00929,-21.74227 -12.50343,-16.72155 -16.43947,-27.16337 -32.59944,-37.3965 -26.99661,-29.39731 -56.42412,-17.32407 -70.54199,26.92985 -1.66904,7.09886 -51.49325,27.39231 -60.57559,31.98587 -17.34726,8.77369 -19.87552,18.1027 -9.02572,27.37683 4.39553,3.75718 4.50827,4.00664 6.01021,13.29925 5.15426,31.88957 18.89069,64.75416 33.66801,80.55117 9.01589,9.63802 26.22788,19.08789 38.91701,21.36656 7.03053,1.26252 28.97369,0.44971 35.49001,-1.3146 z m 65.6184,-120.29517 c -0.6875,-0.27741 -1.25,-1.15046 -1.25,-1.9401 0,-1.04785 0.70439,-1.25893 2.60733,-0.78132 3.105,0.7793 4.35525,-0.72244 4.37736,-5.25789 0.0125,-2.5687 -0.46696,-3.26263 -2.62933,-3.80536 -1.83738,-0.46115 -2.32598,-0.98243 -1.60067,-1.70774 1.63543,-1.63543 5.17614,0.0309 5.86063,2.75813 0.73462,2.92698 -0.17297,8.15864 -1.7437,10.05125 -1.12311,1.35326 -3.30394,1.61823 -5.62162,0.68303 z m -179.05001,1.46228 c -1.57567,-1.57568 -1.54238,-8.95974 0.05,-11.08981 1.52447,-2.03921 5.8619,-2.6826 6.47311,-0.96019 0.26225,0.73906 -0.39859,1.25 -1.61672,1.25 -1.13315,0 -2.79741,1.125 -3.69834,2.5 -1.51894,2.31819 -1.51734,2.68425 0.022,5.0335 0.91301,1.39343 2.38058,2.40593 3.26126,2.25 0.88069,-0.15592 1.79794,0.279 2.03833,0.9665 0.57346,1.64002 -4.89767,1.68192 -6.52959,0.05 z m 59.73887,-50.02549 c 2.9715,-2.07598 5.76828,-3.77451 6.21508,-3.77451 -19.94393,13.97747 -38.36238,17.90287 -6.21508,3.77451 z"
             id="path3338"
             inkscape:connector-curvature="0"
             sodipodi:nodetypes="sssssssccasssssssssssacccssssssssssssssscssssccsccccc" />
          <path
             style="display:inline;opacity:0.72899996;fill:#a05a2c;fill-opacity:1;stroke:none"
             d="m 224.86815,599.28405 c -0.079,-2.24168 6.97225,-1.60021 16.18805,-1.92479 9.21581,-0.32458 17.10638,-1.4923 17.18533,0.74938 0.0789,2.24168 -7.20085,7.92998 -16.41666,8.25456 -9.21581,0.32458 -16.87777,-4.83747 -16.95672,-7.07915 z"
             id="path3348"
             inkscape:connector-curvature="0"
             sodipodi:nodetypes="sssss" />
          <path
             sodipodi:nodetypes="ccccccccccccc"
             style="display:inline;opacity:0.72899996;fill:#000000;fill-opacity:1;stroke:none"
             id="path3386"
             d="m 224.59194,593.29882 c 0.0129,-0.55338 0.0129,-1.10676 0.0115,-1.66014 -6e-5,-0.3621 -0.007,-0.72419 -0.0129,-1.08628 -0.001,-0.13734 -0.001,-0.27467 -0.001,-0.41201 -1.6e-4,-0.0183 -3.5e-4,-0.0366 -5.4e-4,-0.0548 l 14.83049,-0.61133 0,0 -5.5e-4,0.0549 c -3.9e-4,0.13741 4.6e-4,0.27482 -0.001,0.41223 -0.004,0.36251 -0.0129,0.72503 -0.0129,1.08755 -0.001,0.55299 -0.001,1.10598 0.01,1.65897 l -13.408,3.31859 z"
             inkscape:connector-curvature="0" />
          <path
             inkscape:connector-curvature="0"
             d="m 256.71807,593.29882 c -0.013,-0.55338 -0.013,-1.10676 -0.0115,-1.66014 7e-5,-0.3621 0.007,-0.72419 0.013,-1.08628 0.001,-0.13734 0.001,-0.27467 0.001,-0.41201 1.6e-4,-0.0183 3.4e-4,-0.0366 5.3e-4,-0.0548 l -14.83048,-0.61133 0,0 5.5e-4,0.0549 c 3.9e-4,0.13741 -4.6e-4,0.27482 0.002,0.41223 0.004,0.36251 0.0129,0.72503 0.0129,1.08755 0.002,0.55299 0.001,1.10598 -0.01,1.65897 l 13.408,3.31859 z"
             id="path3384"
             style="display:inline;opacity:0.72899996;fill:#000000;fill-opacity:1;stroke:none"
             sodipodi:nodetypes="ccccccccccccc" />
          <ellipse
             ry="6.3177962"
             rx="6.9828277"
             cy="538.50146"
             cx="216.15428"
             id="ellipse3346"
             style="display:inline;opacity:0.72899996;fill:#000000;fill-opacity:1;stroke:none" />
          <ellipse
             style="display:inline;opacity:0.72899996;fill:#000000;fill-opacity:1;stroke:none"
             id="path3344"
             cx="258.57376"
             cy="538.50146"
             rx="6.9828277"
             ry="6.3177962" />
        </g>
      </g>
    </g>
  </g>
</svg>
