<?xml version="1.0" encoding="UTF-8" standalone="no"?>
<!-- Created with Inkscape (http://www.inkscape.org/) -->

<svg
   xmlns:dc="http://purl.org/dc/elements/1.1/"
   xmlns:cc="http://creativecommons.org/ns#"
   xmlns:rdf="http://www.w3.org/1999/02/22-rdf-syntax-ns#"
   xmlns:svg="http://www.w3.org/2000/svg"
   xmlns="http://www.w3.org/2000/svg"
   xmlns:sodipodi="http://sodipodi.sourceforge.net/DTD/sodipodi-0.dtd"
   xmlns:inkscape="http://www.inkscape.org/namespaces/inkscape"
   id="svg4136"
   version="1.1"
   inkscape:version="0.91 r13725"
   width="1438.75"
   height="2560"
   viewBox="0 0 1438.75 2560"
   sodipodi:docname="3alaa.svg">
  <metadata
     id="metadata4142">
    <rdf:RDF>
      <cc:Work
         rdf:about="">
        <dc:format>image/svg+xml</dc:format>
        <dc:type
           rdf:resource="http://purl.org/dc/dcmitype/StillImage" />
        <dc:title />
      </cc:Work>
    </rdf:RDF>
  </metadata>
  <defs
     id="defs4140">
    <inkscape:path-effect
       fuse_tolerance="0"
       vertical_pattern="false"
       prop_units="false"
       tang_offset="0"
       normal_offset="0"
       spacing="0"
       scale_y_rel="false"
       prop_scale="1"
       copytype="single_stretched"
       pattern="m 413.32934,166.00599 c 0,-2.76 2.24,-5 5,-5 2.76,0 5,2.24 5,5 0,2.76 -2.24,5 -5,5 -2.76,0 -5,-2.24 -5,-5 z"
       is_visible="true"
       id="path-effect4276"
       effect="skeletal" />
    <inkscape:path-effect
       is_visible="true"
       id="path-effect4274"
       effect="spiro" />
    <inkscape:path-effect
       effect="skeletal"
       id="path-effect4270"
       is_visible="true"
       pattern="m 7.329341,162.00599 c 0,-2.76 2.24,-5 5,-5 2.76,0 5,2.24 5,5 0,2.76 -2.24,5 -5,5 -2.76,0 -5,-2.24 -5,-5 z"
       copytype="single_stretched"
       prop_scale="1"
       scale_y_rel="false"
       spacing="0"
       normal_offset="0"
       tang_offset="0"
       prop_units="false"
       vertical_pattern="false"
       fuse_tolerance="0" />
    <inkscape:path-effect
       effect="spiro"
       id="path-effect4268"
       is_visible="true" />
  </defs>
  <sodipodi:namedview
     pagecolor="#ffffff"
     bordercolor="#666666"
     borderopacity="1"
     objecttolerance="10"
     gridtolerance="10"
     guidetolerance="10"
     inkscape:pageopacity="0"
     inkscape:pageshadow="2"
     inkscape:window-width="1024"
     inkscape:window-height="706"
     id="namedview4138"
     showgrid="false"
     showguides="true"
     inkscape:zoom="0.097851565"
     inkscape:cx="639.52418"
     inkscape:cy="1071.5783"
     inkscape:window-x="-8"
     inkscape:window-y="-8"
     inkscape:window-maximized="1"
     inkscape:current-layer="svg4136" />
  <rect
     style="fill:#f8e1c7;fill-opacity:1;fill-rule:evenodd;stroke:#000000;stroke-width:8.919;stroke-linecap:round;stroke-linejoin:miter;stroke-miterlimit:4;stroke-dasharray:none;stroke-opacity:1"
     id="rect4280"
     width="72.417778"
     height="151.90727"
     x="682.80988"
     y="1681.9247"
     inkscape:export-xdpi="90"
     inkscape:export-ydpi="90" />
  <path
     inkscape:export-ydpi="90"
     inkscape:export-xdpi="90"
     sodipodi:nodetypes="cccsssscc"
     inkscape:connector-curvature="0"
     id="path4282"
     d="m 569.55036,1818.8022 0,2.5 0,2.5 c 0,0 33.56977,185.4254 13.71703,398.8043 -19.85274,213.3789 -93.12799,454.7115 19.2811,566.5258 51.2818,51.0106 162.30808,50.7429 213.8395,0 113.58732,-111.8492 38.85627,-354.4318 21.1353,-569.052 -17.72096,-214.6202 21.56816,-401.2781 21.56816,-401.2781 z"
     style="color:#000000;font-style:normal;font-variant:normal;font-weight:normal;font-stretch:normal;font-size:medium;line-height:normal;font-family:sans-serif;text-indent:0;text-align:start;text-decoration:none;text-decoration-line:none;text-decoration-style:solid;text-decoration-color:#000000;letter-spacing:normal;word-spacing:normal;text-transform:none;direction:ltr;block-progression:tb;writing-mode:lr-tb;baseline-shift:baseline;text-anchor:start;white-space:normal;clip-rule:nonzero;display:inline;overflow:visible;visibility:visible;opacity:1;isolation:auto;mix-blend-mode:normal;color-interpolation:sRGB;color-interpolation-filters:linearRGB;solid-color:#000000;solid-opacity:1;fill:#aa0000;fill-opacity:1;fill-rule:nonzero;stroke:none;stroke-width:10;stroke-linecap:round;stroke-linejoin:miter;stroke-miterlimit:4;stroke-dasharray:none;stroke-dashoffset:0;stroke-opacity:1;color-rendering:auto;image-rendering:auto;shape-rendering:auto;text-rendering:auto;enable-background:accumulate" />
  <path
     style="color:#000000;font-style:normal;font-variant:normal;font-weight:normal;font-stretch:normal;font-size:medium;line-height:normal;font-family:sans-serif;text-indent:0;text-align:start;text-decoration:none;text-decoration-line:none;text-decoration-style:solid;text-decoration-color:#000000;letter-spacing:normal;word-spacing:normal;text-transform:none;direction:ltr;block-progression:tb;writing-mode:lr-tb;baseline-shift:baseline;text-anchor:start;white-space:normal;clip-rule:nonzero;display:inline;overflow:visible;visibility:visible;opacity:1;isolation:auto;mix-blend-mode:normal;color-interpolation:sRGB;color-interpolation-filters:linearRGB;solid-color:#000000;solid-opacity:1;fill:#000000;fill-opacity:1;fill-rule:nonzero;stroke:none;stroke-width:10;stroke-linecap:round;stroke-linejoin:miter;stroke-miterlimit:4;stroke-dasharray:none;stroke-dashoffset:0;stroke-opacity:1;color-rendering:auto;image-rendering:auto;shape-rendering:auto;text-rendering:auto;enable-background:accumulate"
     d="m 569.76953,1810.3496 0,2.5 0,2.5 c 0,0 34.58903,185.4254 14.13355,398.8043 -20.45548,213.3789 -95.95548,454.7115 19.86645,566.5258 52.83887,51.0106 167.23604,50.7429 220.33203,0 117.03602,-111.8492 40.03602,-354.4318 21.77702,-569.052 -18.25901,-214.6202 22.22298,-401.2781 22.22298,-401.2781 z m 10,10 278.33203,0 c 0,0 -41.65956,182.8355 -23.98935,393.0445 17.67022,210.209 94.67022,447.7916 -20.01065,557.2856 -48.29828,46.1138 -152.2766,46.3669 -200.33203,0 -114.055,-110.0474 -38.555,-347.63 -18.54125,-557.7006 20.01375,-210.0707 -15.45875,-392.6295 -15.45875,-392.6295 z"
     id="rect4211"
     inkscape:connector-curvature="0"
     sodipodi:nodetypes="cccssssccccssssc"
     inkscape:export-xdpi="90"
     inkscape:export-ydpi="90" />
  <path
     inkscape:connector-curvature="0"
     id="path4207"
     d="m 746.58108,1725.7622 c -10.3682,-2.7165 -24.26306,-7.4837 -32.3262,-16.1097 l -6.4318,-4.8808 -4.1932,4.3815 c -4.0879,4.2713 -4.3817,4.3641 -11.6932,3.6897 -16.8014,-1.5495 -44.2963,-10.4567 -59.3325,-19.2212 -12.0247,-7.0092 -26.3813,-21.2064 -31.6612,-31.3098 -7.5171,-14.3845 -8.5821,-19.6741 -8.9903,-44.6515 -0.2787,-17.0575 -0.988,-29.2786 -2.9325,-37.9874 -6.0701,-27.1861 -18.9372,-49.4407 -40.0956,-69.3487 -8.2267,-7.7404 -11.647,-12.3676 -22.0192,-29.7889 -56.5997,-95.0659 -84.2251,-183.4367 -81.4733,-260.625 0.7101,-19.9186 2.921,-36.3074 6.6595,-49.3645 1.9999,-6.9846 2.5681,-27.3437 0.997,-35.7187 -0.6651,-3.5454 -1.8441,-4.7653 -7.2234,-7.4735 -3.5357,-1.78 -9.0623,-5.0268 -12.2814,-7.2149 -3.219,-2.1881 -10.2503,-6.7769 -15.625,-10.1973 -5.3747,-3.4202 -10.5072,-7.2171 -11.4055,-8.4375 -0.8984,-1.2202 -2.0978,-2.2186 -2.6655,-2.2186 -0.5676,0 -3.2162,-2.1094 -5.8858,-4.6875 -2.6696,-2.5781 -6.2514,-5.8659 -7.9596,-7.306 -1.7081,-1.4402 -3.9495,-3.9029 -4.9807,-5.4726 -1.0313,-1.5698 -2.8528,-4.0476 -4.0479,-5.5065 -13.6606,-16.6753 -15.0991,-20.5828 -15.2416,-41.4024 -0.064,-9.3806 0.4906,-13.95 2.2232,-18.3102 l 2.3087,-5.8103 -12.5764,-17.52311 c -22.8449,-31.8305 -39.2122,-58.9452 -53.9288,-89.3401 -10.6951,-22.0893 -18.7372,-43.7034 -18.7372,-50.3587 0,-5.278 -4.9331,-18.5439 -10.8778,-29.2521 -15.1526,-27.2944 -35.5312,-49.9502 -55.1797,-61.3458 l -7.4308,-4.3097 -10.0493,-20.625 c -18.7846,-38.5534 -27.0495,-69.2412 -29.6255,-110 -2.096,-33.1635 6.1437,-79.0342 20.855,-116.1 l 3.6613,-9.225 -2.1678,-13.275 c -2.9376,-17.9893 -2.8965,-58.9895 0.079,-78.275 11.9177,-77.2569 47.6212,-130.5473 109.6797,-163.7059 9.7012,-5.1835 10.5396,-6.001 22.5354,-21.976 49.1547,-65.4597 107.3864,-119.1437 169.771,-156.512202 57.4843,-34.4332 118.3792,-55.436 182.5,-62.9446 23.7068,-2.7760998 84.4521,-3.2176998 91.6697,-0.6665 6.4499,2.2799 13.2258,8.4397 15.9991,14.5445 4.4623,9.8227 2.249,30.4846 -5.2431,48.9438 -1.5139,3.73 -2.5162,7.0181 -2.2273,7.307 0.2888,0.2888 10.3467,-0.2667 22.3509,-1.2344 185.682,-14.9695 300.17822,-8.2823 356.51792,20.822602 8.2187,4.2458 12.9887,7.9948 23.5357,18.4983 15.4753,15.4116 19.1208,21.7287 19.144,33.1734 0.018,9.1538 -3.2503,16.1682 -11.494,24.6646 l -5.7387,5.9145 8.3004,15.9727 c 11.9265,22.9506 19.2527,42.5184 24.2229,64.6982 3.0505,13.6135 3.1072,40.5927 0.109,51.875 -3.6045,13.5633 -11.4538,27.9689 -20.4167,37.47 l -8.0641,8.5483 7.0519,4.0347 c 20.2665,11.5953 35.0521,32.8652 41.9006,60.2763 3.7142,14.8663 4.5947,47.4944 1.8462,68.4207 -134.483,195.33716 -204.2383,390.40128 -206.3149,456.32638 -5.5,1.8777 2.0879,116.71423 -7.5823,158.07913 -5.3252,22.7787 -19.2511,55.8445 -20.754,59.9695 -1.5029,4.125 -4.14322,10.0313 -5.86732,13.125 l -3.1346,5.625 1.6455,15 c 2.1432,19.5369 -23.833,80.2694 -25.961,100 -10.6112,98.3966 -45.1705,189.4488 -103.4289,272.5 l -10.5222,19 -0.023,12.5328 c -0.063,34.9427 -7.3283,59.0205 -24.8849,82.4672 -14.8867,19.8811 -16.8244,22.1474 -24.15,28.2439 -17.9852,14.9674 -38.22,19.5024 -60.7182,13.6079 z m -296.6274,-611.7893 c -0.059,-1.5469 -1.3517,-9 -2.872,-16.5625 l -2.7642,-13.75 -1.5998,4.6875 c -0.88,2.5781 -2.0521,4.6875 -2.6047,4.6875 -1.3977,0 -19.8008,-20.6356 -39.2752,-44.0396 -18.1175,-21.7734 -17.6364,-21.5891 -19.0503,-7.2989 -0.7077,7.1529 1.5005,18.327 4.7269,23.9195 3.9371,6.8245 25.3327,28.669 28.0798,28.669 0.6139,0 1.8187,1.125 2.6774,2.5 0.8587,1.375 2.3314,2.5 3.2726,2.5 0.9412,0 2.4834,0.9351 3.4269,2.0781 0.9436,1.143 3.9656,3.1527 6.7156,4.4659 2.75,1.3134 7.806,4.3156 11.2357,6.6719 7.3476,5.0481 8.1744,5.1996 8.0313,1.4716 z m 180.108,-24.6875 c 0,-0.6875 1.9355,-1.25 4.3012,-1.25 2.3657,0 4.6489,-0.5625 5.0738,-1.25 0.4249,-0.6875 2.1456,-1.25 3.8237,-1.25 1.6782,0 3.0513,-0.4297 3.0513,-0.9551 0,-0.9523 9.0749,-5.2949 11.0648,-5.2949 0.5762,0 2.0658,-1.125 3.3102,-2.5 1.2443,-1.375 2.8678,-2.5 3.6077,-2.5 1.8138,0 24.5173,-22.6965 24.5173,-24.5097 0,-0.7888 0.8774,-2.1623 1.9497,-3.0523 2.1924,-1.8195 6.8003,-10.8044 6.8003,-13.2597 0,-0.8813 1.125,-3.6052 2.5,-6.0533 1.375,-2.4481 2.5,-6.1214 2.5,-8.163 0,-2.0416 0.5625,-3.712 1.25,-3.712 0.7843,0 1.25,-7.9166 1.25,-21.25 l 0,-21.25001 -96.875,0 -96.875,0 0,21.25001 c 0,13.3334 0.4657,21.25 1.25,21.25 0.6875,0 1.25,1.6704 1.25,3.712 0,2.0416 1.125,5.7149 2.5,8.163 1.375,2.4481 2.5,5.172 2.5,6.0533 0,2.4553 4.6079,11.4402 6.8002,13.2597 1.0724,0.89 1.9498,2.2418 1.9498,3.0041 0,1.8168 22.6588,24.5579 24.469,24.5579 0.7664,0 2.4116,1.125 3.656,2.5 1.2443,1.375 2.7934,2.5 3.4423,2.5 1.3058,0 7.7374,2.7096 15.1133,6.367 2.6431,1.3106 6.44,2.383 8.4375,2.383 1.9975,0 3.6319,0.5625 3.6319,1.25 0,0.7858 8.125,1.25 21.875,1.25 13.75,0 21.875,-0.4642 21.875,-1.25 z m -38.4458,-27.0806 c -12.7803,-4.5235 -22.2245,-20.4389 -22.1303,-37.2944 0.072,-12.8824 6.1859,-22.6538 18.0761,-28.8896 6.3746,-3.34311 20.2604,-3.14701 26.875,0.3797 10.7387,5.7256 19.0179,19.1984 20.2936,33.0244 2.1696,23.5138 -20.5311,40.7731 -43.1144,32.7799 z m 17.8776,-23.4875 c 1.6875,-1.6875 3.0682,-4.2444 3.0682,-5.6819 0,-3.3725 -5.3775,-8.75 -8.75,-8.75 -3.3725,0 -8.75,5.3775 -8.75,8.75 0,3.3725 5.3775,8.75 8.75,8.75 1.4375,0 3.9943,-1.3806 5.6818,-3.0681 z m -7.4895,-18.2908 c 1.2881,-2.0843 -1.609,-4.4743 -3.3334,-2.75 -1.4424,1.4424 -0.5397,4.1089 1.3911,4.1089 0.6063,0 1.4804,-0.6115 1.9423,-1.3589 z m 328.0577,61.3589 c 0,-0.6875 1.6343,-1.25 3.6318,-1.25 1.9976,0 5.7944,-1.0724 8.4375,-2.383 7.3759,-3.6574 13.8076,-6.367 15.1133,-6.367 0.649,0 2.198,-1.125 3.4424,-2.5 1.2443,-1.375 2.8678,-2.5 3.6077,-2.5 1.8139,0 24.51732,-22.6965 24.51732,-24.5097 0,-0.7888 0.8774,-2.1623 1.9497,-3.0523 2.1924,-1.8195 6.8003,-10.8044 6.8003,-13.2597 0,-0.8813 1.125,-3.6052 2.5,-6.0533 1.375,-2.4481 2.5,-6.1214 2.5,-8.163 0,-2.0416 0.5625,-3.712 1.25,-3.712 0.7843,0 1.25,-7.9166 1.25,-21.25001 l 0,-21.25 -96.87502,0 -96.875,0 0,21.25 c 0,13.33341 0.4657,21.25001 1.25,21.25001 0.6875,0 1.25,1.6704 1.25,3.712 0,2.0416 1.125,5.7149 2.5,8.163 1.375,2.4481 2.5,5.172 2.5,6.0533 0,2.4553 4.6079,11.4402 6.8002,13.2597 1.0724,0.89 1.9498,2.2418 1.9498,3.0041 0,1.8168 22.6588,24.5579 24.469,24.5579 0.7664,0 2.4116,1.125 3.656,2.5 1.2443,1.375 2.7339,2.5 3.3101,2.5 1.99,0 11.0649,4.3426 11.0649,5.2949 0,0.5254 1.373,0.9551 3.0512,0.9551 1.6782,0 3.3989,0.5625 3.8238,1.25 0.4249,0.6875 2.7081,1.25 5.0738,1.25 2.3656,0 4.3012,0.5625 4.3012,1.25 0,0.7858 8.125,1.25 21.875,1.25 13.75,0 21.875,-0.4642 21.875,-1.25 z m -28.4458,-27.0806 c -7.4601,-2.6404 -15.857,-11.4253 -18.4858,-19.3398 -5.382,-16.2037 3.5802,-38.3463 18.8066,-46.46451 6.6145,-3.5267 20.5003,-3.7228 26.875,-0.3797 11.8901,6.23581 18.0041,16.00731 18.0761,28.88961 0.1536,27.4979 -21.8161,45.5964 -45.2719,37.2944 z m 16.6276,-23.4875 c 1.6875,-1.6875 3.0682,-4.2444 3.0682,-5.6819 0,-1.4375 -1.3807,-3.9944 -3.0682,-5.6819 -1.6875,-1.6875 -4.2443,-3.0681 -5.6818,-3.0681 -1.4375,0 -3.9943,1.3806 -5.6818,3.0681 -1.6875,1.6875 -3.0682,4.2444 -3.0682,5.6819 0,1.4375 1.3807,3.9944 3.0682,5.6819 1.6875,1.6875 4.2443,3.0681 5.6818,3.0681 1.4375,0 3.9943,-1.3806 5.6818,-3.0681 z m 0.01,-18.2908 c 1.2881,-2.0843 -1.609,-4.4744 -3.3334,-2.75 -1.4424,1.4424 -0.5397,4.1089 1.3911,4.1089 0.6063,0 1.4804,-0.6115 1.9423,-1.3589 z M 1029.5664,800.87399 c -0.4154,-0.4154 -0.7108,0.3229 -0.6565,1.6406 0.06,1.4562 0.3561,1.7524 0.7552,0.7552 0.361,-0.9023 0.3166,-1.9805 -0.099,-2.3958 z"
     style="fill:#f8e1c7"
     sodipodi:nodetypes="cscccsssssssssscccssccccccssssscssscscssssssssssscscsssscssccssccscsccsscccsccsssssssccscsssssscsscssssscccssssscsscssssssssssssssssssscsssssscsscssssscccssssscsscssssssssssscssssssssssssssscsccc"
     inkscape:export-xdpi="90"
     inkscape:export-ydpi="90" />
  <path
     style="color:#000000;font-style:normal;font-variant:normal;font-weight:normal;font-stretch:normal;font-size:medium;line-height:normal;font-family:sans-serif;text-indent:0;text-align:start;text-decoration:none;text-decoration-line:none;text-decoration-style:solid;text-decoration-color:#000000;letter-spacing:normal;word-spacing:normal;text-transform:none;direction:ltr;block-progression:tb;writing-mode:lr-tb;baseline-shift:baseline;text-anchor:start;white-space:normal;clip-rule:nonzero;display:inline;overflow:visible;visibility:visible;opacity:1;isolation:auto;mix-blend-mode:normal;color-interpolation:sRGB;color-interpolation-filters:linearRGB;solid-color:#000000;solid-opacity:1;fill:#000000;fill-opacity:1;fill-rule:nonzero;stroke:#000000;stroke-width:5;stroke-linecap:butt;stroke-linejoin:miter;stroke-miterlimit:4;stroke-dasharray:none;stroke-dashoffset:0;stroke-opacity:1;color-rendering:auto;image-rendering:auto;shape-rendering:auto;text-rendering:auto;enable-background:accumulate"
     d="M 730.83203,7.015625 C 711.76877,7.1542153 690.65911,7.9561829 678.75977,9.3496094 614.56834,16.866513 553.6015,37.894186 496.06055,72.361328 433.61255,109.76779 375.33617,163.49555 326.14648,229.00195 c -5.99702,7.98631 -9.20117,12.17298 -12.07812,14.97852 -2.87696,2.80554 -5.44671,4.26801 -10.29297,6.85742 -62.18455,33.22592 -98.00213,86.69891 -109.9375,164.07031 -2.9912,19.39036 -3.03535,60.32235 -0.0781,78.43164 l 2.14453,13.13868 -3.60938,9.09765 c -14.7398,37.13775 -22.99365,83.03967 -20.89062,116.31445 2.57927,40.81023 10.8707,71.59207 29.67578,110.1875 l 10.11719,20.76368 7.5625,4.38476 c 19.52949,11.32658 39.87498,33.92553 54.99218,61.15625 2.95832,5.32881 5.66978,11.30434 7.63672,16.59375 1.96694,5.28941 3.17774,9.93279 3.17774,12.41602 0,3.52904 2.03618,10.55092 5.39062,19.5664 3.35444,9.01549 8.0444,19.95179 13.39844,31.00977 14.72914,30.4208 31.11532,57.5661 53.97265,89.41406 l 12.41602,17.30079 -2.20703,5.5566 c -1.76331,4.4376 -2.32401,9.0967 -2.25977,18.4981 0.14263,20.8422 1.68149,25.0232 15.35547,41.7148 1.17703,1.4368 3.00211,3.9191 4.01758,5.4649 1.08203,1.647 3.31806,4.0976 5.07617,5.58 1.6848,1.4204 5.27199,4.7128 7.9336,7.2832 1.34521,1.2992 2.68386,2.4788 3.76757,3.3418 0.54186,0.4316 1.01912,0.7842 1.41211,1.0372 0.1965,0.1264 0.37107,0.2276 0.53321,0.3046 0.16213,0.077 0.29373,0.1446 0.51953,0.1446 -0.009,0 0.44451,0.1658 0.89062,0.5371 0.44611,0.3713 0.94826,0.9015 1.37305,1.4785 0.28596,0.3885 0.78293,0.8465 1.48633,1.4375 0.70339,0.591 1.60313,1.2935 2.64258,2.0625 2.07889,1.5379 4.71292,3.3461 7.41015,5.0625 5.37044,3.4177 12.4054,8.0089 15.61328,10.1895 3.24892,2.2084 8.77102,5.4523 12.33789,7.248 2.67583,1.3472 4.26994,2.3163 5.24414,3.3242 0.97421,1.008 1.38829,2.0647 1.7129,3.7949 0.77002,4.1046 1.02708,11.2852 0.83203,18.2735 -0.19505,6.9883 -0.85038,13.8341 -1.81836,17.2148 -3.75462,13.1134 -5.96861,29.5386 -6.67969,49.4844 -2.75655,77.3208 24.91207,165.777 81.54492,260.8984 10.37697,17.4293 13.85671,22.1373 22.10547,29.8985 21.0967,19.8499 33.89925,41.9957 39.94922,69.0918 1.93551,8.6687 2.64334,16.8404 2.92187,33.8867 0.40836,24.9904 1.51544,30.4631 9.04688,44.875 5.36311,10.2627 19.72268,24.4418 31.85156,31.5117 15.13799,8.8238 42.61287,21.7261 59.53906,23.2871 3.65847,0.3375 5.60976,0.5065 7.25196,-0.012 1.64219,-0.5182 2.80085,-1.6933 4.84765,-3.832 l 3.88477,-4.0586 6.07812,4.6113 c 9.30891,7.0642 21.61491,9.2118 31.96485,12.0195 l -0.0117,0.031 0.54883,0.1445 c 22.6301,5.9291 43.07529,1.3466 61.16406,-13.707 7.33914,-6.1078 9.34222,-8.445 24.23047,-28.3281 17.61535,-23.5252 24.92155,-47.756 24.98437,-82.7676 l 0.0215,-12.375 10.43164,-14.8711 c 58.30368,-83.1158 92.31725,-165.2206 102.93732,-263.6995 17.41691,-102.4946 38.50396,-152.3945 51.54666,-210.5909 12.0946,-53.9659 -5.0395,-152.0264 18.2941,-196.05216 23.3336,-44.02576 63.394,-62.92206 87.4292,-130.17667 24.0351,-67.25461 88.0448,-154.86752 111.277,-280.32649 0.6898,-5.25163 1.153,-11.22697 1.4013,-17.47053 0.2483,-6.24357 0.2816,-12.75537 0.1114,-19.07994 -0.1701,-6.32457 -0.5437,-12.46191 -1.1092,-17.95656 -0.5656,-5.49464 -1.323,-10.3466 -2.2609,-14.10039 -6.8749,-27.51627 -21.7325,-48.91572 -42.1367,-60.58984 l -6.5,-3.72071 7.627,-8.08398 c 9.036,-9.57867 16.909,-24.03308 20.5371,-37.68555 3.0495,-11.47508 2.9776,-38.36356 -0.1035,-52.11328 -4.9795,-22.22086 -12.326,-41.8389 -24.2676,-64.81836 l -8.1348,-15.6543 5.4883,-5.65429 c 8.2935,-8.54765 11.653,-15.74039 11.6348,-25.01367 -0.012,-5.77529 -0.9534,-10.34112 -3.8438,-15.34961 -2.8903,-5.00849 -7.6993,-10.46169 -15.4473,-18.17774 -10.5581,-10.51471 -15.4049,-14.32326 -23.6601,-18.587889 -56.5574,-29.217309 -171.07674,-35.848685 -356.78711,-20.876953 -5.99856,0.483601 -11.51178,0.864505 -15.55664,1.08789 -2.02243,0.111693 -3.67867,0.182634 -4.83984,0.208984 -0.58059,0.01318 -1.03869,0.01587 -1.34766,0.0059 -0.0411,-0.0013 -0.0542,-0.0041 -0.0898,-0.0059 0.009,-0.07092 0.009,-0.115234 0.0273,-0.210937 0.071,-0.375614 0.21342,-0.918497 0.41211,-1.570313 0.39738,-1.30363 1.02324,-3.049164 1.77539,-4.902343 3.76402,-9.273938 6.1991,-19.09307 7.13672,-27.845703 0.93762,-8.752634 0.39631,-16.432297 -1.90234,-21.492188 C 784.09362,17.248912 777.26724,11.046514 770.6543,8.7089844 769.64607,8.3525979 767.90894,8.0913459 765.49609,7.8632812 763.08325,7.6352166 760.0187,7.455585 756.47266,7.3183594 749.38057,7.0439082 740.36366,6.9463299 730.83203,7.015625 Z m 0.008,1 c 9.52025,-0.069212 18.5253,0.027244 25.59375,0.3007812 3.53423,0.1367685 6.58353,0.3176996 8.9668,0.5429688 2.38327,0.2252692 4.12374,0.5095846 4.91992,0.7910156 6.28682,2.2222504 13.01207,8.3403964 15.71094,14.2812504 2.16369,4.762809 2.74485,12.323865 1.81836,20.972656 -0.92649,8.648791 -3.34229,18.390909 -7.07031,27.576172 -0.76174,1.8768 -1.39466,3.641184 -1.80469,4.986328 -0.20502,0.672572 -0.35453,1.237067 -0.4375,1.675781 -0.0415,0.219357 -0.0666,0.405952 -0.0703,0.578125 -0.004,0.172174 -0.0596,0.35251 0.19531,0.607422 0.14435,0.144347 0.21797,0.137516 0.28125,0.154297 0.0633,0.01678 0.1179,0.02572 0.17773,0.0332 0.11968,0.01497 0.25806,0.02374 0.42969,0.0293 0.34326,0.01112 0.81182,0.0075 1.40234,-0.0059 1.18105,-0.0268 2.84438,-0.0989 4.87305,-0.210937 4.05734,-0.224075 9.5745,-0.605676 15.58008,-1.089844 185.65377,-14.967168 300.12605,-8.22288 356.24805,20.769529 8.1822,4.22687 12.8784,7.91592 23.4141,18.40821 7.7273,7.69555 12.4781,13.10464 15.2851,17.96875 2.807,4.86411 3.6995,9.18208 3.711,14.85156 0.018,9.03425 -3.1596,15.86942 -11.3536,24.31445 l -5.9902,6.17383 8.4668,16.29297 c 11.9116,22.92176 19.2187,42.43745 24.1797,64.57617 3.0201,13.47722 3.0604,40.5471 0.1133,51.63672 -3.5807,13.47405 -11.4071,27.83221 -20.2969,37.25586 l -8.5,9.00976 7.6035,4.35157 c 20.1286,11.51646 34.8418,32.65695 41.6641,59.96289 0.9193,3.67935 1.6648,8.48079 2.2232,13.93903 0.5583,5.45825 0.9296,11.5733 1.1004,17.87988 0.1708,6.30657 0.1411,12.80467 -0.1024,19.02901 -0.2435,6.22434 -0.7008,12.17491 -1.3853,17.38645 -15.0226,90.69874 -77.4322,172.86678 -102.9337,248.52326 -25.5015,75.65648 -61.0622,118.60799 -88.4529,183.26052 -27.3907,64.65252 -6.6114,151.00604 -27.3016,208.69294 -20.69013,57.6869 -41.88258,112.9005 -47.28246,167.66 -10.6023,98.3143 -43.12868,189.279 -101.3418,272.2657 l -8.61133,15.1289 -0.0234,12.6914 c -0.0626,34.8738 -11.28734,64.7997 -28.78515,88.1679 -14.88515,19.8791 -16.75819,22.073 -24.07031,28.1583 -17.88165,14.8812 -39.90523,19.3697 -62.27149,13.5097 -10.28182,-2.6939 -22.80283,-4.932 -32.15039,-12.0254 l -6.78711,-5.1504 -4.50195,-1.2968 c -2.04104,2.1326 -3.07122,3.1428 -4.42578,3.5703 -1.35457,0.4274 -3.20631,0.3057 -6.85938,-0.031 -16.67657,-1.538 -44.19252,-4.4511 -59.12695,-13.1562 -11.9205,-6.9485 -26.27218,-25.1653 -31.46875,-35.1094 -7.50279,-14.3571 -14.52567,-25.4634 -14.9336,-50.4277 -0.2789,-17.0688 -0.9919,-25.3391 -2.94531,-34.0879 -6.09017,-27.2762 -15.02001,-45.6374 -36.24023,-65.6035 -8.20464,-7.7197 -15.56624,-16.2686 -25.9336,-33.6817 -56.56666,-95.0103 -82.14943,-183.296 -79.40234,-260.3515 0.70914,-19.8915 2.91824,-36.2434 6.64062,-49.2442 1.03187,-3.6038 1.66118,-10.4297 1.85743,-17.4609 0.19625,-7.0312 3.9515,-14.2179 3.15039,-18.4883 -0.34052,-1.8151 -2.85018,-3.1393 -3.97656,-4.3047 -1.12639,-1.1654 -0.8102,-2.1623 -3.51368,-3.5234 -3.50448,-1.7643 -9.03543,-5.0139 -12.22461,-7.1817 -3.23024,-2.1958 -10.25973,-6.7819 -15.63867,-10.205 -2.67746,-1.7039 -5.29595,-3.5028 -7.35156,-5.0235 -1.02781,-0.7603 -1.91613,-1.4524 -2.5957,-2.0234 -0.67957,-0.571 -1.161,-1.0439 -1.32422,-1.2657 -0.47357,-0.6432 -1.01895,-1.2213 -1.53906,-1.6542 -0.52012,-0.433 -0.95234,-0.7676 -1.5293,-0.7676 0.0839,0 0.0119,0 -0.0899,-0.047 -0.10178,-0.048 -0.24853,-0.1306 -0.42187,-0.2422 -0.34669,-0.2231 -0.80512,-0.5604 -1.33008,-0.9785 -1.04991,-0.8362 -2.37094,-2.0003 -3.69531,-3.2793 -2.67753,-2.5858 -6.25281,-5.8683 -7.98438,-7.3281 -1.65823,-1.3982 -3.90625,-3.8729 -4.88671,-5.3653 -1.04703,-1.5938 -2.86498,-4.0679 -4.07813,-5.5488 -13.64726,-16.659 -14.98659,-20.2928 -15.12891,-41.0898 -0.0639,-9.3598 0.48568,-13.8383 2.1875,-18.1211 l 2.41016,-6.0645 -12.73633,-17.74611 c -22.8324,-31.81323 -39.1807,-58.89663 -53.88476,-89.26563 -5.34113,-11.03132 -10.01899,-21.94611 -13.35938,-30.92382 -3.34039,-8.97772 -5.32812,-16.09055 -5.32812,-19.2168 0,-2.79478 -1.25445,-7.42358 -3.24024,-12.76367 -1.98578,-5.34009 -4.71282,-11.35108 -7.69922,-16.73047 -15.1879,-27.35808 -35.59773,-50.07249 -55.36523,-61.53711 l -7.30078,-4.23242 -9.98242,-20.48829 c -18.76415,-38.51142 -27.00341,-69.10512 -29.57618,-109.8125 -2.08895,-33.05219 6.13959,-78.89095 20.82227,-115.88476 l 3.71094,-9.35352 -2.18946,-13.41015 c -2.91803,-17.86931 -2.87877,-58.93848 0.0801,-78.11914 11.90005,-77.14248 47.48755,-130.24867 109.41992,-163.33985 4.85498,-2.59406 7.555,-4.13254 10.52149,-7.02539 2.96648,-2.89284 6.17891,-7.1031 12.17773,-15.09179 C 376.06493,164.19043 434.25308,110.54923 496.57422,73.21875 554.00188,38.819472 614.82489,17.842153 678.875,10.341797 690.68243,8.9591334 711.79936,8.1540497 730.83984,8.015625 Z m 79.97628,960.843755 0,21.75 c 0,6.67247 0.11652,11.99062 0.33203,15.65432 0.10775,1.8318 0.23924,3.2475 0.39844,4.2304 0.0796,0.4915 0.16371,0.8723 0.27148,1.17 0.0539,0.1488 0.10981,0.2782 0.20703,0.4062 0.0972,0.1281 0.28171,0.2891 0.54102,0.2891 -0.0306,0 -8.2e-4,-0.016 0.0937,0.1035 0.0946,0.1193 0.21533,0.3463 0.3164,0.6465 0.20216,0.6003 0.33985,1.488 0.33985,2.4629 0,2.2252 1.1419,5.8754 2.56445,8.4082 0.67724,1.2057 1.29612,2.4832 1.74023,3.5586 0.44411,1.0753 0.69532,2.0221 0.69532,2.25 0,0.7702 0.31393,1.7901 0.78906,3.0293 0.47513,1.2392 1.12588,2.6628 1.8457,4.0664 0.71983,1.4035 1.50699,2.7856 2.25977,3.9414 0.75277,1.1557 1.45042,2.0764 2.08789,2.6054 0.49202,0.4084 0.95295,0.9377 1.27734,1.4375 0.32439,0.4998 0.49024,0.9943 0.49024,1.1836 0,0.3734 0.14966,0.548 0.33203,0.8399 0.18237,0.2919 0.434,0.6389 0.75195,1.0449 0.63589,0.812 1.53451,1.8541 2.61523,3.0527 2.16145,2.3974 5.0539,5.4143 8.00391,8.375 2.95001,2.9608 5.95508,5.8639 8.34375,8.0332 1.19433,1.0847 2.23385,1.9848 3.04297,2.6231 0.40456,0.3191 0.75003,0.5727 1.04102,0.7558 0.29099,0.1832 0.46498,0.3321 0.83984,0.3321 0.13855,0 0.73967,0.2206 1.36523,0.6484 0.62557,0.4278 1.32578,1.031 1.91993,1.6875 0.64326,0.7108 1.34392,1.3538 1.97461,1.8301 0.31534,0.2382 0.61203,0.4348 0.88671,0.5801 0.27469,0.1452 0.51161,0.2539 0.81836,0.2539 0.31562,0 1.28321,0.2473 2.39453,0.6621 1.11132,0.4148 2.42081,0.9833 3.66797,1.5801 1.24717,0.5968 2.43498,1.2236 3.29297,1.75 0.429,0.2632 0.77643,0.5026 0.9961,0.6855 0.10983,0.091 0.18769,0.1714 0.2207,0.2129 0.033,0.042 -0.008,0.043 -0.008,-0.096 0,0.3491 0.22062,0.6079 0.44531,0.7734 0.22469,0.1656 0.49181,0.2816 0.80273,0.3789 0.62184,0.1947 1.42293,0.3028 2.30469,0.3028 0.78323,0 1.59015,0.1357 2.22656,0.3437 0.63642,0.2081 1.08606,0.5311 1.17188,0.6699 0.19548,0.3163 0.49202,0.5009 0.84765,0.6719 0.35564,0.171 0.7836,0.3144 1.26758,0.4336 0.96797,0.2385 2.16035,0.3809 3.38281,0.3809 1.14321,0 2.18392,0.14 2.89844,0.3476 0.35726,0.1039 0.6326,0.2284 0.78125,0.3301 0.14865,0.1017 0.1211,0.135 0.1211,0.072 0,0.2645 0.16897,0.4487 0.29882,0.5449 0.12986,0.096 0.26045,0.1535 0.41211,0.207 0.30334,0.1071 0.69315,0.1901 1.19727,0.2696 1.00823,0.159 2.46201,0.2908 4.3457,0.3984 3.76738,0.2153 9.24047,0.3301 16.1211,0.3301 6.88062,0 12.35567,-0.1148 16.12304,-0.3301 1.88369,-0.1076 3.33748,-0.2394 4.34571,-0.3984 0.50411,-0.08 0.89393,-0.1625 1.19726,-0.2696 0.15167,-0.053 0.28226,-0.1108 0.41211,-0.207 0.12985,-0.096 0.29688,-0.2804 0.29688,-0.5449 0,0.026 -0.0139,0 0.10156,-0.096 0.11549,-0.094 0.33656,-0.2139 0.62891,-0.3145 0.58469,-0.2012 1.45051,-0.3398 2.40234,-0.3398 2.17648,0 5.94358,-1.0885 8.66016,-2.4356 3.68015,-1.8248 7.12488,-3.412 9.80468,-4.541 1.3399,-0.5645 2.48802,-1.0149 3.37305,-1.3203 0.88503,-0.3054 1.55937,-0.4531 1.71289,-0.4531 0.6134,0 1.13375,-0.3528 1.79102,-0.8301 0.65726,-0.4773 1.37556,-1.1203 2.02148,-1.834 0.59511,-0.6576 1.29058,-1.2615 1.9082,-1.6894 0.61762,-0.428 1.21354,-0.6465 1.33008,-0.6465 0.37405,0 0.54835,-0.1493 0.83984,-0.3321 0.2915,-0.1827 0.63762,-0.4354 1.04297,-0.7539 0.8107,-0.6369 1.85215,-1.5346 3.04883,-2.6172 2.39337,-2.165 5.40356,-5.0626 8.35938,-8.0175 2.95582,-2.9549 5.85383,-5.9668 8.01953,-8.3594 1.08285,-1.1963 1.98198,-2.2364 2.61914,-3.0469 0.31858,-0.4052 0.57309,-0.7515 0.75586,-1.0429 0.18277,-0.2915 0.33008,-0.4657 0.33008,-0.8399 0,-0.209 0.16976,-0.7109 0.49414,-1.2187 0.32437,-0.5078 0.78491,-1.0422 1.27539,-1.4493 0.63747,-0.529 1.33511,-1.4497 2.08789,-2.6054 0.75277,-1.1558 1.53994,-2.5379 2.25976,-3.9414 0.71983,-1.4036 1.37058,-2.8272 1.84571,-4.0664 0.47513,-1.2392 0.78711,-2.2591 0.78711,-3.0293 0,-0.2279 0.25315,-1.1747 0.69726,-2.25 0.44412,-1.0754 1.06298,-2.3529 1.74027,-3.5586 1.4226,-2.5328 2.5645,-6.183 2.5645,-8.4082 0,-0.9749 0.1376,-1.8626 0.3398,-2.4629 0.1011,-0.3002 0.2218,-0.5272 0.3164,-0.6465 0.095,-0.1193 0.1244,-0.1035 0.094,-0.1035 0.2593,0 0.4438,-0.161 0.541,-0.2891 0.097,-0.128 0.1531,-0.2574 0.207,-0.4062 0.1078,-0.2977 0.1919,-0.6785 0.2715,-1.17 0.1592,-0.9829 0.2907,-2.3986 0.3984,-4.2304 0.2155,-3.6637 0.3321,-8.98185 0.3321,-15.65432 l 0,-21.75 -97.37703,0 -97.375,0 z m 1,1 96.375,0 96.37699,0 0,20.75 c 0,6.66082 -0.1167,11.96772 -0.3301,15.59572 -0.1067,1.814 -0.24,3.2108 -0.3887,4.1289 -0.074,0.4591 -0.1548,0.8029 -0.2226,0.9902 -0.034,0.094 -0.069,0.1462 -0.064,0.1406 0,-0.01 0.095,-0.1054 0.2559,-0.1054 -0.3744,0 -0.6747,0.2247 -0.8789,0.4824 -0.2043,0.2577 -0.3531,0.5766 -0.4786,0.9492 -0.2509,0.7453 -0.3925,1.7145 -0.3925,2.7813 0,1.8579 -1.1101,5.5545 -2.43754,7.9179 -0.69778,1.2424 -1.32887,2.549 -1.79102,3.668 -0.46214,1.119 -0.77343,1.9775 -0.77343,2.6309 0,0.4574 -0.26334,1.479 -0.72071,2.6718 -0.45736,1.1929 -1.09459,2.5898 -1.80078,3.9668 -0.70619,1.377 -1.48118,2.7362 -2.20898,3.8535 -0.72781,1.1174 -1.42997,2.0002 -1.88867,2.3809 -0.58188,0.4829 -1.09611,1.081 -1.47852,1.6797 -0.38241,0.5986 -0.65234,1.178 -0.65234,1.7578 0,-0.1475 -0.0271,0.068 -0.17774,0.3086 -0.15068,0.2403 -0.3876,0.5681 -0.69336,0.957 -0.61151,0.7779 -1.50028,1.8077 -2.57422,2.9942 -2.14787,2.3729 -5.03956,5.3764 -7.98632,8.3222 -2.94677,2.9459 -5.95056,5.8352 -8.32422,7.9825 -1.18684,1.0736 -2.21607,1.9628 -2.99414,2.5742 -0.38904,0.3056 -0.71669,0.5427 -0.95703,0.6933 -0.24035,0.1507 -0.45592,0.1778 -0.3086,0.1778 -0.62336,0 -1.2102,0.3459 -1.90039,0.8242 -0.69019,0.4783 -1.42888,1.1224 -2.07812,1.8398 -0.59844,0.6613 -1.27857,1.2684 -1.86915,1.6973 -0.59057,0.4289 -1.1676,0.6387 -1.20312,0.6387 -0.49937,0 -1.12042,0.1908 -2.03906,0.5078 -0.91865,0.317 -2.08233,0.7736 -3.43555,1.3437 -2.70644,1.1402 -6.16559,2.7358 -9.86133,4.5684 -2.5696,1.2742 -6.39627,2.3301 -8.21484,2.3301 -1.0457,0 -1.99666,0.1426 -2.72852,0.3945 -0.36592,0.1259 -0.67827,0.2772 -0.93164,0.4824 -0.25337,0.2053 -0.47265,0.5031 -0.47265,0.8731 0,-0.1663 0.10525,-0.2548 0.10937,-0.2578 0.004,0 -0.053,0.032 -0.15039,0.066 -0.19471,0.069 -0.54708,0.1501 -1.01953,0.2246 -0.9449,0.149 -2.38174,0.282 -4.24805,0.3886 -3.73262,0.2133 -9.19703,0.3282 -16.0664,0.3282 -6.86938,0 -12.33183,-0.1149 -16.06446,-0.3282 -1.86631,-0.1066 -3.30315,-0.2396 -4.24804,-0.3886 -0.47245,-0.074 -0.82482,-0.1559 -1.01953,-0.2246 -0.0974,-0.034 -0.15452,-0.069 -0.1504,-0.066 0.004,0 0.10743,0.091 0.10743,0.2578 0,-0.4065 -0.26845,-0.7013 -0.55664,-0.8985 -0.2882,-0.1971 -0.64408,-0.3421 -1.06641,-0.4648 -0.84467,-0.2455 -1.95527,-0.3867 -3.17774,-0.3867 -1.14321,0 -2.27325,-0.1369 -3.14453,-0.3516 -0.43563,-0.1073 -0.80637,-0.2354 -1.07226,-0.3633 -0.26589,-0.1278 -0.41467,-0.2694 -0.43164,-0.2968 -0.33908,-0.5487 -0.96123,-0.8507 -1.71094,-1.0957 -0.74971,-0.2451 -1.64216,-0.3926 -2.53711,-0.3926 -0.79641,0 -1.52163,-0.1063 -2.00586,-0.2578 -0.24211,-0.076 -0.42261,-0.1658 -0.50781,-0.2286 -0.0852,-0.063 -0.0391,-0.055 -0.0391,0.031 0,-0.2581 -0.11005,-0.4006 -0.21094,-0.5273 -0.10089,-0.1268 -0.21913,-0.2391 -0.36133,-0.3575 -0.28439,-0.2368 -0.66236,-0.4917 -1.11523,-0.7695 -0.90574,-0.5557 -2.11251,-1.1929 -3.38282,-1.8008 -1.2703,-0.6079 -2.6001,-1.186 -3.75,-1.6152 -1.14989,-0.4292 -2.0648,-0.7246 -2.74414,-0.7246 0.0186,0 -0.14599,-0.03 -0.35156,-0.1387 -0.20556,-0.1087 -0.46733,-0.2792 -0.75195,-0.4941 -0.56925,-0.43 -1.23484,-1.039 -1.83594,-1.7032 -0.65022,-0.7184 -1.396,-1.3633 -2.0957,-1.8418 -0.69971,-0.4784 -1.30184,-0.8222 -1.92969,-0.8222 0.14858,0 -0.0668,-0.027 -0.30664,-0.1778 -0.23981,-0.1509 -0.56682,-0.389 -0.95508,-0.6953 -0.77652,-0.6125 -1.80574,-1.5024 -2.99023,-2.5781 -2.369,-2.1514 -5.36762,-5.0464 -8.3086,-7.998 -2.94097,-2.9517 -5.82509,-5.9623 -7.96875,-8.3399 -1.07183,-1.1888 -1.95998,-2.2206 -2.57031,-3 -0.30517,-0.3897 -0.54098,-0.7182 -0.69141,-0.959 -0.15043,-0.2408 -0.17968,-0.4548 -0.17968,-0.3086 0,-0.5729 -0.26995,-1.1374 -0.65235,-1.7265 -0.38239,-0.5892 -0.89622,-1.1824 -1.47656,-1.6641 -0.45871,-0.3807 -1.16087,-1.2635 -1.88867,-2.3809 -0.72781,-1.1173 -1.5028,-2.4765 -2.20899,-3.8535 -0.70619,-1.377 -1.34342,-2.7739 -1.80078,-3.9668 -0.45736,-1.1928 -0.72265,-2.2144 -0.72265,-2.6718 0,-0.6534 -0.30935,-1.5119 -0.77149,-2.6309 -0.46214,-1.119 -1.09325,-2.4256 -1.79101,-3.668 -1.32745,-2.3634 -2.4375,-6.06 -2.4375,-7.9179 0,-1.0668 -0.14161,-2.036 -0.39258,-2.7813 -0.12549,-0.3726 -0.27425,-0.6915 -0.47852,-0.9492 -0.20426,-0.2577 -0.50456,-0.4824 -0.8789,-0.4824 0.16127,0 0.25162,0.1 0.25586,0.1054 0.004,0.01 -0.0305,-0.047 -0.0645,-0.1406 -0.0678,-0.1873 -0.1483,-0.5311 -0.22265,-0.9902 -0.14871,-0.9181 -0.28197,-2.3149 -0.38868,-4.1289 -0.21341,-3.628 -0.33007,-8.9349 -0.33007,-15.59572 l 0,-20.75 z m -301,6.5 0,21.75 c 0,6.67242 0.11652,11.99062 0.33203,15.65432 0.10775,1.8318 0.23924,3.2475 0.39844,4.2304 0.0796,0.4915 0.16371,0.8723 0.27148,1.17 0.0539,0.1488 0.10981,0.2782 0.20703,0.4062 0.0972,0.1281 0.28171,0.2891 0.54102,0.2891 -0.0306,0 -8.2e-4,-0.016 0.0937,0.1035 0.0946,0.1193 0.21533,0.3463 0.3164,0.6465 0.20216,0.6003 0.33985,1.488 0.33985,2.4629 0,2.2252 1.1419,5.8754 2.56445,8.4082 0.67724,1.2057 1.29612,2.4832 1.74023,3.5586 0.44411,1.0753 0.69532,2.0221 0.69532,2.25 0,0.7702 0.31393,1.7901 0.78906,3.0293 0.47513,1.2392 1.12588,2.6628 1.8457,4.0664 0.71983,1.4035 1.50699,2.7856 2.25977,3.9414 0.75277,1.1557 1.45042,2.0764 2.08789,2.6054 0.49202,0.4084 0.95295,0.9377 1.27734,1.4375 0.32439,0.4998 0.49024,0.9943 0.49024,1.1836 0,0.3734 0.14966,0.548 0.33203,0.8399 0.18237,0.2919 0.434,0.6389 0.75195,1.0449 0.63589,0.812 1.53451,1.8541 2.61523,3.0527 2.16145,2.3974 5.0539,5.4143 8.00391,8.375 2.95002,2.9608 5.95508,5.8639 8.34375,8.0332 1.19434,1.0847 2.23384,1.9848 3.04297,2.6231 0.40456,0.3191 0.75003,0.5727 1.04102,0.7558 0.29099,0.1832 0.46498,0.3321 0.83984,0.3321 0.13854,0 0.73967,0.2206 1.36523,0.6484 0.62557,0.4278 1.32578,1.031 1.91993,1.6875 0.64592,0.7137 1.36422,1.3567 2.02148,1.834 0.65726,0.4773 1.17761,0.8301 1.79102,0.8301 0.15351,0 0.82785,0.1477 1.71289,0.4531 0.88503,0.3054 2.03314,0.7558 3.37304,1.3203 2.6798,1.129 6.12454,2.7162 9.80469,4.541 2.71659,1.3471 6.48368,2.4356 8.66016,2.4356 0.95183,0 1.81764,0.1386 2.40234,0.3398 0.29235,0.1006 0.51342,0.2209 0.62891,0.3145 0.11549,0.093 0.0996,0.1219 0.0996,0.096 0,0.2645 0.16897,0.4487 0.29882,0.5449 0.12986,0.096 0.26045,0.1535 0.41211,0.207 0.30334,0.1071 0.69315,0.1901 1.19727,0.2696 1.00823,0.159 2.46201,0.2908 4.3457,0.3984 3.76738,0.2153 9.24047,0.3301 16.1211,0.3301 6.88062,0 12.35567,-0.1148 16.12304,-0.3301 1.88369,-0.1076 3.33748,-0.2394 4.34571,-0.3984 0.50411,-0.08 0.89393,-0.1625 1.19726,-0.2696 0.15167,-0.053 0.28226,-0.1108 0.41211,-0.207 0.12985,-0.096 0.29688,-0.2804 0.29688,-0.5449 0,0.063 -0.0256,0.029 0.12304,-0.072 0.14866,-0.1017 0.42399,-0.2262 0.78125,-0.3301 0.71453,-0.2076 1.75523,-0.3476 2.89844,-0.3476 1.22246,0 2.41485,-0.1424 3.38281,-0.3809 0.48399,-0.1192 0.91194,-0.2626 1.26758,-0.4336 0.35564,-0.171 0.65218,-0.3556 0.84766,-0.6719 0.0858,-0.1388 0.53546,-0.4618 1.17187,-0.6699 0.63642,-0.208 1.44334,-0.3437 2.22656,-0.3437 0.88178,0 1.68286,-0.1081 2.30469,-0.3028 0.31092,-0.097 0.57805,-0.2133 0.80274,-0.3789 0.22468,-0.1655 0.44336,-0.4243 0.44336,-0.7734 0,0.139 -0.0389,0.1372 -0.006,0.096 0.033,-0.042 0.11087,-0.1214 0.2207,-0.2129 0.21966,-0.1829 0.5671,-0.4223 0.99609,-0.6855 0.858,-0.5264 2.04581,-1.1532 3.29297,-1.75 1.24717,-0.5968 2.55665,-1.1653 3.66797,-1.5801 1.11132,-0.4148 2.07891,-0.6621 2.39453,-0.6621 0.30676,0 0.54368,-0.1087 0.81836,-0.2539 0.27468,-0.1453 0.57138,-0.3419 0.88672,-0.5801 0.63068,-0.4763 1.33135,-1.1193 1.97461,-1.8301 0.59511,-0.6576 1.29058,-1.2615 1.9082,-1.6894 0.61762,-0.428 1.21354,-0.6465 1.33008,-0.6465 0.37405,0 0.54835,-0.1493 0.83984,-0.3321 0.2915,-0.1827 0.63762,-0.4354 1.04297,-0.7539 0.8107,-0.6369 1.85215,-1.5346 3.04883,-2.6172 2.39337,-2.165 5.40356,-5.0626 8.35938,-8.0175 2.95582,-2.9549 5.85383,-5.9668 8.01953,-8.3594 1.08285,-1.1963 1.98198,-2.2364 2.61914,-3.0469 0.31858,-0.4052 0.57309,-0.7515 0.75586,-1.0429 0.18277,-0.2915 0.33008,-0.4657 0.33008,-0.8399 0,-0.209 0.16976,-0.7109 0.49414,-1.2187 0.32437,-0.5078 0.78491,-1.0422 1.27539,-1.4493 0.63747,-0.529 1.33511,-1.4497 2.08789,-2.6054 0.75277,-1.1558 1.53994,-2.5379 2.25976,-3.9414 0.71983,-1.4036 1.37058,-2.8272 1.84571,-4.0664 0.47513,-1.2392 0.78711,-2.2591 0.78711,-3.0293 0,-0.2279 0.25315,-1.1747 0.69726,-2.25 0.44411,-1.0754 1.063,-2.3529 1.74024,-3.5586 1.42255,-2.5328 2.5625,-6.183 2.5625,-8.4082 0,-0.9749 0.13964,-1.8626 0.34179,-2.4629 0.10108,-0.3002 0.22185,-0.5272 0.31641,-0.6465 0.0946,-0.1193 0.12239,-0.1035 0.0918,-0.1035 0.2593,0 0.44574,-0.161 0.54297,-0.2891 0.0972,-0.128 0.15314,-0.2574 0.20703,-0.4062 0.10776,-0.2977 0.19188,-0.6785 0.27148,-1.17 0.1592,-0.9829 0.29068,-2.3986 0.39844,-4.2304 0.21551,-3.6637 0.33008,-8.9819 0.33008,-15.65432 l 0,-21.75 -97.375,0 -97.375,0 z m 1,1 96.375,0 96.375,0 0,20.75 c 0,6.66082 -0.11472,11.96772 -0.32813,15.59572 -0.1067,1.814 -0.23996,3.2108 -0.38867,4.1289 -0.0743,0.4591 -0.15483,0.8029 -0.22266,0.9902 -0.0339,0.094 -0.0687,0.1462 -0.0644,0.1406 0.004,-0.01 0.0926,-0.1054 0.25391,-0.1054 -0.37435,0 -0.67269,0.2247 -0.87696,0.4824 -0.20426,0.2577 -0.35303,0.5766 -0.47851,0.9492 -0.25097,0.7453 -0.39453,1.7145 -0.39453,2.7813 0,1.8579 -1.1081,5.5545 -2.43555,7.9179 -0.69776,1.2424 -1.32888,2.549 -1.79102,3.668 -0.46214,1.119 -0.77343,1.9775 -0.77343,2.6309 0,0.4574 -0.26334,1.479 -0.72071,2.6718 -0.45736,1.1929 -1.09459,2.5898 -1.80078,3.9668 -0.70619,1.377 -1.48118,2.7362 -2.20898,3.8535 -0.72781,1.1174 -1.42997,2.0002 -1.88867,2.3809 -0.58188,0.4829 -1.09611,1.081 -1.47852,1.6797 -0.38241,0.5986 -0.65234,1.178 -0.65234,1.7578 0,-0.1475 -0.0271,0.068 -0.17774,0.3086 -0.15068,0.2403 -0.3876,0.5681 -0.69336,0.957 -0.61151,0.7779 -1.50028,1.8077 -2.57422,2.9942 -2.14787,2.3729 -5.03956,5.3764 -7.98632,8.3222 -2.94677,2.9459 -5.95056,5.8352 -8.32422,7.9825 -1.18684,1.0736 -2.21607,1.9628 -2.99414,2.5742 -0.38904,0.3056 -0.71669,0.5427 -0.95703,0.6933 -0.24035,0.1507 -0.45592,0.1778 -0.3086,0.1778 -0.62336,0 -1.2102,0.3459 -1.90039,0.8242 -0.69019,0.4783 -1.42888,1.1224 -2.07812,1.8398 -0.6011,0.6642 -1.26669,1.2732 -1.83594,1.7032 -0.28463,0.2149 -0.54639,0.3854 -0.75195,0.4941 -0.20557,0.1087 -0.37021,0.1387 -0.35157,0.1387 -0.67934,0 -1.59425,0.2954 -2.74414,0.7246 -1.14989,0.4292 -2.4797,1.0073 -3.75,1.6152 -1.2703,0.6079 -2.47707,1.2451 -3.38281,1.8008 -0.45287,0.2778 -0.83084,0.5327 -1.11524,0.7695 -0.14219,0.1184 -0.26043,0.2307 -0.36132,0.3575 -0.10089,0.1267 -0.21289,0.2692 -0.21289,0.5273 0,-0.086 0.0481,-0.094 -0.0371,-0.031 -0.0852,0.063 -0.2657,0.1528 -0.50782,0.2286 -0.48423,0.1515 -1.20945,0.2578 -2.00586,0.2578 -0.89494,0 -1.7874,0.1475 -2.5371,0.3926 -0.74971,0.245 -1.37186,0.547 -1.71094,1.0957 -0.017,0.027 -0.16575,0.169 -0.43164,0.2968 -0.2659,0.1279 -0.63663,0.256 -1.07227,0.3633 -0.87127,0.2147 -2.00132,0.3516 -3.14453,0.3516 -1.22247,0 -2.33306,0.1412 -3.17773,0.3867 -0.42234,0.1227 -0.77822,0.2677 -1.06641,0.4648 -0.28819,0.1972 -0.55859,0.492 -0.55859,0.8985 0,-0.1663 0.10525,-0.2548 0.10937,-0.2578 0.004,0 -0.053,0.032 -0.15039,0.066 -0.19471,0.069 -0.54708,0.1501 -1.01953,0.2246 -0.9449,0.149 -2.38174,0.282 -4.24805,0.3886 -3.73262,0.2133 -9.19703,0.3282 -16.0664,0.3282 -6.86938,0 -12.33183,-0.1149 -16.06446,-0.3282 -1.86631,-0.1066 -3.30315,-0.2396 -4.24804,-0.3886 -0.47245,-0.074 -0.82482,-0.1559 -1.01953,-0.2246 -0.0974,-0.034 -0.15452,-0.069 -0.1504,-0.066 0.004,0 0.10743,0.091 0.10743,0.2578 0,-0.37 -0.21734,-0.6678 -0.47071,-0.8731 -0.25337,-0.2052 -0.56571,-0.3565 -0.93164,-0.4824 -0.73185,-0.2519 -1.68281,-0.3945 -2.72851,-0.3945 -1.81857,0 -5.64523,-1.0559 -8.21485,-2.3301 -3.69573,-1.8326 -7.15488,-3.4282 -9.86132,-4.5684 -1.35323,-0.5701 -2.51691,-1.0267 -3.43555,-1.3437 -0.91865,-0.317 -1.5397,-0.5078 -2.03906,-0.5078 -0.0355,0 -0.61451,-0.2098 -1.20508,-0.6387 -0.59058,-0.4289 -1.26875,-1.036 -1.86719,-1.6973 -0.65022,-0.7184 -1.396,-1.3633 -2.0957,-1.8418 -0.69971,-0.4784 -1.30184,-0.8222 -1.92969,-0.8222 0.14858,0 -0.0668,-0.027 -0.30664,-0.1778 -0.23981,-0.1509 -0.56682,-0.389 -0.95508,-0.6953 -0.77652,-0.6125 -1.80574,-1.5024 -2.99023,-2.5781 -2.369,-2.1514 -5.36762,-5.0464 -8.3086,-7.998 -2.94097,-2.9517 -5.82509,-5.9623 -7.96875,-8.3399 -1.07183,-1.1888 -1.95998,-2.2206 -2.57031,-3 -0.30517,-0.3897 -0.54098,-0.7182 -0.69141,-0.959 -0.15043,-0.2408 -0.17968,-0.4548 -0.17968,-0.3086 0,-0.5729 -0.26995,-1.1374 -0.65235,-1.7265 -0.38239,-0.5892 -0.89622,-1.1824 -1.47656,-1.6641 -0.45871,-0.3807 -1.16087,-1.2635 -1.88867,-2.3809 -0.72781,-1.1173 -1.5028,-2.4765 -2.20899,-3.8535 -0.70619,-1.377 -1.34342,-2.7739 -1.80078,-3.9668 -0.45736,-1.1928 -0.72265,-2.2144 -0.72265,-2.6718 0,-0.6534 -0.30935,-1.5119 -0.77149,-2.6309 -0.46214,-1.119 -1.09325,-2.4256 -1.79101,-3.668 -1.32745,-2.3634 -2.4375,-6.06 -2.4375,-7.9179 0,-1.0668 -0.14161,-2.036 -0.39258,-2.7813 -0.12549,-0.3726 -0.27425,-0.6915 -0.47852,-0.9492 -0.20426,-0.2577 -0.50456,-0.4824 -0.8789,-0.4824 0.16127,0 0.25162,0.1 0.25586,0.1054 0.004,0.01 -0.0305,-0.047 -0.0645,-0.1406 -0.0678,-0.1873 -0.1483,-0.5311 -0.22265,-0.9902 -0.14871,-0.9181 -0.28197,-2.3149 -0.38868,-4.1289 -0.21341,-3.628 -0.33007,-8.9349 -0.33007,-15.59572 l 0,-20.75 z M 384.20698,1035.043 c -0.32861,0.042 -0.63159,0.174 -0.87695,0.3965 -0.49073,0.4449 -0.76697,1.1211 -0.9961,2.0058 -0.45825,1.7695 -0.68587,4.4577 -1.03906,8.0274 -0.72277,7.305 1.47183,18.462 4.79297,24.2187 2.04906,3.5518 8.36318,10.6648 14.56055,16.9922 3.09868,3.1637 6.16018,6.1135 8.6289,8.2812 1.23437,1.0839 2.32012,1.9723 3.19922,2.5997 0.43955,0.3136 0.82532,0.5637 1.16602,0.7421 0.34069,0.1785 0.61967,0.3028 0.95703,0.3028 10e-4,0 0.45941,0.1823 0.90625,0.5996 0.44684,0.4172 0.9415,1.0156 1.34766,1.666 0.46492,0.7445 1.0827,1.4066 1.72656,1.8984 0.64385,0.4919 1.30087,0.836 1.9707,0.836 0.30504,0 0.87988,0.1914 1.45313,0.539 0.57325,0.3477 1.15863,0.8375 1.58789,1.3575 0.54702,0.6626 1.55149,1.4445 2.78906,2.2675 1.23757,0.823 2.69548,1.6634 4.0957,2.3321 2.69768,1.2884 7.76399,4.2941 11.16797,6.6328 1.83956,1.2638 3.27339,2.2234 4.40039,2.9004 1.127,0.6769 1.93099,1.0793 2.61719,1.2051 0.3431,0.063 0.68106,0.053 0.97851,-0.094 0.29746,-0.1472 0.50402,-0.4217 0.6211,-0.7148 0.23415,-0.5863 0.23373,-1.3075 0.19726,-2.2579 -0.0338,-0.8816 -0.37301,-3.0843 -0.89453,-6.0918 -0.52151,-3.0074 -1.22533,-6.7633 -1.98633,-10.5488 l -3.1289,-15.5664 -2.19922,6.4414 c -0.43151,1.2643 -0.9367,2.4151 -1.38867,3.2285 -0.22599,0.4067 -0.44053,0.7305 -0.60742,0.9278 -0.14488,0.1712 -0.20302,0.1639 -0.11719,0.166 -0.0444,-0.025 -0.10089,-0.059 -0.18164,-0.1172 -0.19106,-0.1385 -0.46113,-0.3621 -0.79102,-0.6602 -0.65977,-0.5962 -1.56503,-1.489 -2.67383,-2.6347 -2.21759,-2.2915 -5.25519,-5.5995 -8.85742,-9.6387 -7.20445,-8.0784 -16.67041,-19.0852 -26.40429,-30.7832 -4.5289,-5.4428 -7.89676,-9.5148 -10.4336,-12.3496 -2.53684,-2.8348 -4.18513,-4.443 -5.5625,-4.9707 -0.34434,-0.1319 -0.69678,-0.1789 -1.02539,-0.1367 z m 0.66797,1.0703 c 0.94377,0.3616 2.66115,1.8972 5.17383,4.7051 2.51268,2.8078 5.88031,6.8783 10.41015,12.3222 9.74053,11.706 19.2126,22.7182 26.42774,30.8086 3.60757,4.0452 6.65009,7.3589 8.88476,9.668 1.11734,1.1545 2.03241,2.0579 2.72266,2.6816 0.34513,0.3119 0.63146,0.5534 0.87305,0.7285 0.12079,0.088 0.22927,0.1593 0.33984,0.2168 0.11057,0.058 0.21464,0.1153 0.41211,0.1153 0.45625,0 0.66264,-0.2681 0.89844,-0.5469 0.2358,-0.2788 0.47069,-0.643 0.7168,-1.0859 0.4922,-0.8859 1.01446,-2.0788 1.46289,-3.3926 l 1.00195,-2.9356 2.39844,11.9356 c 0.75928,3.777 1.46087,7.527 1.98046,10.5234 0.5196,2.9964 0.85532,5.2937 0.88086,5.959 0.0351,0.9137 -0.0147,1.5716 -0.125,1.8477 -0.0551,0.138 -0.0929,0.1678 -0.13671,0.1894 -0.0438,0.022 -0.14299,0.046 -0.35352,0.01 -0.42107,-0.077 -1.19312,-0.4253 -2.2832,-1.0801 -1.09008,-0.6547 -2.51534,-1.6069 -4.34961,-2.8671 -3.4553,-2.374 -8.50042,-5.3726 -11.30274,-6.711 -1.34977,-0.6446 -2.77779,-1.4658 -3.97461,-2.2617 -1.19681,-0.7959 -2.17378,-1.5919 -2.57031,-2.0723 -0.5143,-0.623 -1.17279,-1.1704 -1.8418,-1.5761 -0.669,-0.4057 -1.3345,-0.6836 -1.9707,-0.6836 -0.27142,0 -0.82276,-0.2165 -1.36523,-0.6309 -0.54247,-0.4144 -1.0906,-1.0023 -1.48438,-1.6328 -0.45255,-0.7246 -0.98997,-1.3782 -1.51367,-1.8672 -0.5237,-0.489 -0.97552,-0.8691 -1.58789,-0.8691 -0.006,0 -0.21574,-0.045 -0.49219,-0.1895 -0.27645,-0.1448 -0.6347,-0.373 -1.05078,-0.6699 -0.83217,-0.5939 -1.89983,-1.4645 -3.11914,-2.5352 -2.43861,-2.1413 -5.48848,-5.0799 -8.57422,-8.2304 -6.17147,-6.301 -12.52213,-13.5203 -14.41016,-16.793 -3.1317,-5.4283 -5.35476,-16.6204 -4.6621,-23.6211 0.35375,-3.5754 0.59635,-6.2692 1.01171,-7.873 0.20769,-0.8019 0.47131,-1.3109 0.69922,-1.5176 0.22791,-0.2067 0.40116,-0.2472 0.87305,-0.066 z"
     id="path4158"
     inkscape:connector-curvature="0"
     sodipodi:nodetypes="ssssssscccscccsssssccccscccccccscsccccccsssssssssccccccccssccscssscsssscccsssccccssssscccssscsssscssssssscccccssssssscscssscccsssscsssccccssssccccsssssssssssccscscccccssccscccssssssccsscccsssssscccssccccccsccsscccsssscccccsscccsssscccccsccscscscccscsccccccsscssssccscccssccsccccssccscccccccscccccccssccccccscsscsccccccccccccscsssssscccccscscccccccsccccsccccccssccccccccscsssccccscsscsccccccsscccssccccccsccsscccsssscccccssssssscssccccscscccccccscsccscccccssssccscscccssccsccccssccsccccccsscccccccssccccccscsscsccccccccccccsscccssccccscsccccscccccscscccccccsssssscccccscsssccccscsscsccccccsscccccssscccscscsccscccccccscccscccscssscccccssccccssccccscccccccscsssssscccscscscc"
     inkscape:export-xdpi="90"
     inkscape:export-ydpi="90" />
  <path
     inkscape:connector-curvature="0"
     id="path4156"
     d="m 711.66197,1459.7016 c -10.4644,-4.4341 -15.7646,-6.2283 -29.1066,-9.8528 -6.3836,-1.7342 -15.1023,-4.9947 -19.375,-7.2455 -6.3345,-3.337 -7.7684,-4.6644 -7.7684,-7.1909 0,-4.6623 4.109,-4.541 15.2835,0.4509 5.3441,2.3872 13.9353,5.3302 19.0915,6.54 5.1563,1.2097 13.8407,4.1436 19.2987,6.5198 8.6612,3.7706 10.8408,4.2371 17.1335,3.6665 7.342,-0.6657 10.3672,-2.0865 24.223,-11.3762 10.677,-7.1585 18.541,-9.5294 31.5011,-9.4969 8.1264,0.02 12.3477,0.6534 16.2905,2.443 6.6087,2.9997 8.8477,7.6242 5.8824,12.1498 -2.5797,3.9372 -7.0716,3.4536 -8.0818,-0.8703 -0.7124,-3.0495 -1.0365,-3.1336 -13.4214,-3.4805 -11.7091,-0.328 -13.304,-0.078 -20.609,3.2346 -4.3548,1.9745 -9.8695,5.2864 -12.2549,7.3596 -5.5545,4.8278 -8.9825,6.6004 -16.7794,8.6768 -8.9053,2.3716 -12.7569,2.0954 -21.3077,-1.5279 z m 7.5,-214.1231 c -2.0625,-0.4481 5.8125,5.3965 17.5,5.6549 47.0629,1.0404 71.4518,-14.2083 83.3799,-37.619 3.2752,-6.4279 3.9338,-9.4279 4.8026,-21.875 l 1.007,-14.4254 -0.3548,14.375 c -0.3258,13.201 -0.6672,20.9875 -4.1794,27.875 -8.6065,16.8773 -27.0418,31.108 -54.3165,39.1023 -22.9442,6.725 -40.4564,-11.4839 -47.8388,-13.0878 z m -47.9608,-18.5806 c -3.7436,-8.0491 -6.384,-18.5116 -6.3871,-25.3089 0,-8.2847 7.6828,-23.8244 11.7292,-23.712 0.7528,0.021 2.3339,0.6396 1.0691,1.3749 -3.6035,2.0947 -5.5733,15.9099 -5.5744,22.1567 0,6.701 -2.9035,19.0009 0.432,25.539 1.3703,2.686 4.2663,5.1088 3.9912,5.3839 -0.2751,0.2751 -3.7421,-2.17 -5.26,-5.4336 z m 168.1459,-3.1629 c -0.033,-0.5385 -0.6473,-3.767 1.0794,-7.1745 4.9991,-9.8654 7.0302,-21.8992 5.6,-33.1792 -0.6651,-5.2459 -1.8155,-11.7894 -2.5565,-14.5413 -0.741,-2.7519 0.8987,-5.2494 1.1994,-5.55 0.8499,-0.85 5.3303,10.0204 6.6356,20.3155 1.4511,11.4456 -4.7162,23.3209 -10.1927,33.9306 -2.0378,3.9479 -1.7321,6.7373 -1.7652,6.1989 z m -243.3101,-47.1585 c -8.5937,-0.4734 -17.875,-1.482 -20.625,-2.2414 -2.75,-0.7595 -9.619,-1.9507 -15.2645,-2.6474 -5.6455,-0.6966 -12.958,-2.0965 -16.25,-3.1108 -3.292,-1.0145 -10.7044,-3.279 -16.4719,-5.0325 -5.7675,-1.7534 -11.1113,-3.6769 -11.875,-4.2743 -0.7637,-0.5975 -2.9509,-1.4597 -4.8604,-1.9162 -3.2737,-0.7824 -9.1755,-3.279 -24.262,-10.2633 -3.5661,-1.6508 -7.0718,-3.0016 -7.7905,-3.0016 -0.7186,0 -4.9827,-2.25 -9.4757,-5 -4.4929,-2.75 -8.7754,-5 -9.5165,-5 -0.7412,0 -2.8406,-1.0606 -4.6655,-2.357 -1.8249,-1.2964 -5.2867,-3.2804 -7.693,-4.4089 -2.4062,-1.1285 -6.9918,-3.8647 -10.1901,-6.0805 -3.1983,-2.2157 -10.6514,-7.083 -16.5625,-10.8162 -5.911,-3.7333 -10.7474,-7.2628 -10.7474,-7.8435 0,-0.5806 -1.4062,-1.5904 -3.125,-2.2439 -1.7187,-0.6535 -3.125,-1.7515 -3.125,-2.44 0,-0.6885 -2.9352,-3.572 -6.5228,-6.4079 -3.5875,-2.8357 -7.7863,-6.927 -9.3307,-9.0915 -1.5443,-2.1646 -3.5228,-4.7568 -4.3966,-5.7605 -0.8737,-1.0037 -4.0613,-5.1837 -7.0833,-9.2888 -4.9774,-6.7613 -5.5998,-8.4138 -6.61,-17.5502 -0.6133,-5.5473 -1.3567,-10.9298 -1.652,-11.9611 -0.8612,-3.0084 1.3234,-16.4808 3.4543,-21.3015 l 1.9566,-4.4265 -14.0087,-19.6152 c -7.7047,-10.78811 -19.0314,-27.63991 -25.1703,-37.44821 -22.5689,-36.0591 -45.032,-84.8136 -46.2221,-100.3213 -0.9503,-12.3834 -14.2572,-38.3662 -29.3451,-57.2984 -9.9661,-12.5054 -26.9202,-28.1434 -36.1445,-33.3387 l -7.7679,-4.375 -10.5277,-21.2501 c -21.9663,-44.3382 -30.4534,-81.95859 -29.035,-128.70219 1.0103,-33.2973 7.2281,-63.1572 19.6616,-94.4228 l 4.7224,-11.875 -1.7761,-8.75 c -2.5997,-12.8069 -3.6336,-54.8195 -1.7732,-72.0494 8.6206,-79.83713 46.5125,-139.83073 109.2344,-172.94881 l 11.4617,-6.05197 15.2153,-20.09991 c 87.7844,-115.96648 201.6589,-190.965777 321.6597,-211.849597 28.9767,-5.04284 38.6653,-5.75029 78.75,-5.75029 l 39.375,0 5.8287,3.42644 c 14.9365,8.78048 17.1224,27.59638 6.6198,56.98142 l -4.228,11.82942 11.5148,-0.81217 c 6.3331,-0.44667 26.7022,-1.90875 45.2647,-3.24903 59.2755,-4.27994 95.468,-5.42044 148.4917,-4.67928 51.56703,0.72081 74.26393,2.28053 104.63333,7.19031 39.0357,6.31089 68.1178,16.584657 83.75,29.586197 8.8121,7.32914 23.0323,23.19524 25.6186,28.58369 1.2917,2.69114 2.5886,8.07761 2.8822,11.96994 0.6655,8.82425 -3.0211,17.57845 -11.1836,26.55649 l -5.5762,6.13345 10.1883,20.23117 c 11.0849,22.01139 19.2749,44.95118 22.3739,62.66753 2.4315,13.9011 2.4676,35.88057 0.078,47.33437 -2.6314,12.6109 -11.4688,29.566 -20.7159,39.7448 -4.2444,4.672 -7.5086,8.6786 -7.2536,8.9035 0.255,0.2248 2.1748,1.278 4.2661,2.3404 7.548,3.8343 18.946,13.3764 24.6493,20.63593 29.6311,37.7157 30.7325,99.77 3.2623,183.809 -26.5086,81.0973 -55.3186,154.90002 -134.5862,273.77042 -12.2579,18.3812 -44.0032,55.42587 -44.0032,55.77907 0,0.3531 0.9843,0.6519 2.1875,0.664 4.384,0.044 36.3526,8.6527 52.1875,14.0531 8.9375,3.0481 18.7813,6.2906 21.875,7.2056 8.904,2.6334 12.762,4.8348 18.2245,10.3995 2.8047,2.8571 9.2127,8.8202 14.24,13.2512 7.4595,6.5749 9.9659,9.7931 13.6294,17.5 4.358,9.1681 4.5011,9.9358 4.9087,26.3185 l 0.4198,16.87491 -4.1678,6.25 c -2.2923,3.4375 -5.7524,9.394 -7.6891,13.2368 -6.28,12.4608 -23.1038,32.1227 -43.7331,51.1107 -10.814,9.9536 -20.6283,18.6183 -21.8096,19.2546 -1.1813,0.6364 -4.5221,3.3172 -7.4241,5.9574 -2.9019,2.6401 -8.2457,6.7723 -11.875,9.1825 -3.6293,2.4101 -8.005,5.4618 -9.7237,6.7813 -9.7505,7.4856 -34.341,22.3752 -46.5362,28.1777 -29.76103,14.1605 -66.25203,24.977 -90.81173,26.9181 -8.5101,0.6727 -16.9476,0.8802 -18.75,0.4612 -1.8024,-0.419 -10.9245,-4.9655 -20.2714,-10.1035 -25.9592,-14.2695 -45.5013,-31.7915 -62.7085,-56.2258 -13.0471,-18.5269 -23.9712,-47.8832 -28.3668,-76.23 -1.4055,-9.0635 -2.5554,-18.1403 -2.5554,-20.1706 0,-3.2047 -0.5359,-3.7733 -4.0625,-4.3104 -2.2344,-0.3403 -4.2603,-0.4407 -4.5021,-0.2231 -1.2564,1.1307 -1.5273,38.0699 -0.3678,50.1575 15.71444,75.3684 6.87038,69.2032 -1.253,0 -0.7388,-7.6859 -1.0418,-22.2713 -0.6732,-32.4119 0.6209,-17.0785 0.5067,-18.4375 -1.549,-18.4375 -2.2735,0 -10.0924,2.4306 -10.0924,3.1373 0,0.216 -0.8881,4.8016 -1.9736,10.1902 -1.0855,5.3886 -2.7143,13.8075 -3.6195,18.7086 -0.9053,4.9012 -2.4721,10.8074 -3.482,13.125 -1.0098,2.3177 -3.3765,8.4327 -5.2592,13.5889 -1.8827,5.1563 -4.0407,10.5 -4.7954,11.875 -0.7548,1.375 -3.7079,7 -6.5625,12.5 -2.8545,5.5 -7.3824,13.0938 -10.062,16.875 -8.8768,12.5266 -14.7668,20 -15.7626,20 -0.5407,0 -0.9832,0.7188 -0.9832,1.5973 0,0.8783 -0.9844,2.4643 -2.1875,3.5241 -1.2031,1.0599 -6.125,5.4677 -10.9375,9.7952 -4.8125,4.3275 -10.4375,9.3839 -12.5,11.2367 -5.1938,4.6652 -18.3637,13.5218 -36.6902,24.6736 -9.9102,6.0304 -25.4074,7.3952 -61.4348,5.4106 z m 37.5,-9.3702 c 5.3058,-0.7657 9.033,-1.9632 14.0456,-4.5132 1.1938,-0.6072 3.6494,-1.1041 5.4569,-1.1041 2.9897,0 8.6373,-3.2505 27.685,-15.9345 3.6094,-2.4035 6.5625,-4.8821 6.5625,-5.508 0,-0.6259 1.0815,-1.5417 2.4033,-2.0352 4.6992,-1.7544 22.1358,-19.9172 32.8436,-34.2116 9.8429,-13.1397 15.7722,-23.7193 25.2054,-44.9735 13.663,-30.7845 21.4563,-87.21181 15.916,-115.24091 -2.695,-13.6343 -12.7736,-26.3174 -25.1183,-31.6094 -1.0312,-0.4421 -4.6875,-2.076 -8.125,-3.6311 -14.2248,-6.4348 -27.7771,-6.2236 -68.1627,1.0622 -16.823,3.035 -31.9935,5.5599 -33.7123,5.611 -1.7187,0.051 -5.5464,0.7659 -8.5059,1.5886 -4.0423,1.1237 -5.737,1.1397 -6.8125,0.064 -1.932,-1.9319 -6.8275,-1.8019 -19.5842,0.5203 -10.0514,1.8298 -34.3147,9.1729 -39.1429,11.8463 -1.1938,0.661 -2.9115,1.2018 -3.8172,1.2018 -1.9503,0 -25.7606,7.7423 -32.3643,10.5238 -2.5311,1.0661 -4.9549,2.5094 -5.3863,3.2073 -0.4313,0.6979 -2.1649,1.2689 -3.8524,1.2689 -1.6875,0 -4.0449,0.537 -5.2387,1.1932 -1.1938,0.6563 -8.6393,3.21 -16.5456,5.675 -7.9062,2.465 -15.5,4.9442 -16.875,5.5093 -10.05,4.1307 -19.1387,8.4431 -21.25,10.0826 -2.2925,1.7802 -6.0866,3.7048 -14.375,7.2919 -1.7187,0.7438 -4.9531,1.7111 -7.1875,2.1496 -2.2344,0.4384 -4.0625,1.2862 -4.0625,1.8839 0,2.5745 6.722,33.10411 14.203,64.50721 4.4441,18.6548 8.2376,35.2485 8.4299,36.875 0.4187,3.5406 -2.3752,12.3321 -3.9191,12.3321 -1.9038,0 -37.1686,-40.1291 -52.6441,-59.9058 l -3.3054,-4.224 -1.5149,6.7696 c -2.7115,12.1162 -0.3235,26.0131 6.0174,35.018 5.8638,8.327 22.5989,24.8422 25.1731,24.8422 0.6722,0 1.8242,1.125 2.5601,2.5 0.7359,1.375 2.0213,2.5229 2.8565,2.5508 0.8352,0.027 3.466,1.7155 5.8463,3.75 2.3803,2.0346 5.2645,3.6992 6.4094,3.6992 1.145,0 2.7183,0.767 3.4962,1.7044 1.7416,2.0985 15.698,10.7956 17.3238,10.7956 0.6492,0 2.1885,1.114 3.4207,2.4755 1.2322,1.3617 4.1118,2.8268 6.3992,3.2558 2.2874,0.4291 4.8189,1.5755 5.6256,2.5476 0.8067,0.972 3.4986,2.6606 5.982,3.7524 2.4834,1.0919 9.0153,4.1045 14.5153,6.6947 5.5,2.5903 12.25,5.4577 15,6.3719 2.75,0.9144 5.5344,2.1101 6.1875,2.6573 0.6531,0.5472 2.0944,0.9948 3.2027,0.9948 1.1084,0 4.4006,1.1525 7.316,2.561 14.5024,7.0069 48.6655,13.7147 79.5438,15.6182 7.5625,0.4662 13.9883,1.0705 14.2794,1.3428 0.5723,0.5353 8.5831,-0.1037 17.5956,-1.4047 z m -40.6527,-105.4562 c -11.4966,-5.2225 -23.2704,-16.0067 -24.2405,-31.2861 -0.493,-7.7656 -0.1576,-13.5225 2.9813,-19.6164 8.9366,-17.3493 34.3644,-22.399 49.8211,-10.7982 11.2849,8.4696 17.7006,31.786 12.8152,44.5783 -2.5694,6.7279 -9.5123,14.0303 -16.2484,17.0897 -6.7028,3.0442 -18.4656,3.0596 -25.1287,0.033 z m 14.22288,-22.6864 c 6.23747,-6.1692 7.74429,-6.9561 1.98242,-13.9211 -8.3713,0.8768 -8.15866,0.7935 -8.3713,0.8768 -3.3507,1.2859 -3.2153,7.5126 -1.494,11.6682 2.2939,5.538 2.32198,3.9097 7.88288,1.3761 z m 349.88362,114.3733 c 17.8675,-4.729 42.83543,-13.7051 57.79623,-20.7781 12.3979,-5.8614 43.198,-24.5968 50,-30.4146 1.7187,-1.47 5.5909,-4.2454 8.6047,-6.1675 3.0139,-1.922 7.7951,-5.6004 10.625,-8.174 2.8299,-2.5738 6.0802,-5.1879 7.2229,-5.8092 1.1426,-0.6212 9.7829,-8.1608 19.2005,-16.7546 17.7374,-16.1857 30.1984,-30.7104 40.0689,-46.7045 8.9093,-14.4368 10.125,-24.0801 5.0046,-39.69831 -6.3292,-19.3054 -12.2947,-29.1502 -23.8642,-39.3833 -9.1983,-8.1359 -12.844,-9.7725 -27.5392,-12.3634 -5.5285,-0.9747 -12.841,-2.8395 -16.25,-4.1439 -10.4121,-3.9842 -14.3363,-4.9432 -31.1982,-7.6238 -8.9375,-1.4208 -18.04,-2.8827 -20.2276,-3.2487 -2.9733,-0.4973 -4.3051,-0.1027 -5.2745,1.5629 -1.16,1.993 -1.3009,2.0075 -1.3349,0.1376 -0.061,-3.3373 -6.9151,-4.9046 -43.35793,-9.9144 -19.6628,-2.703 -27.9961,-2.7071 -59.1801,-0.029 -7.9062,0.679 -24.5,1.2781 -36.875,1.3312 -12.375,0.053 -26.1562,0.6883 -30.625,1.4114 -9.1024,1.4729 -20.6119,6.1204 -28.125,11.3567 -2.75,1.9167 -7.0557,4.8811 -9.5682,6.5876 -2.5125,1.7066 -7.1251,6.9266 -10.2502,11.6 -5.1302,7.6718 -5.8842,9.7719 -7.7637,21.6221 -1.6222,10.2279 -1.8946,17.1257 -1.234,31.24981 3.0333,64.854 22.3765,110.3095 60.4794,142.1232 14.1131,11.7838 36.3113,24.1407 44.6905,24.8776 3.3804,0.2972 10.6462,0.9586 16.1462,1.4697 11.1684,1.0379 15.285,0.5209 32.8288,-4.1225 z m -54.1798,-99.2196 c -6.7361,-3.0594 -17.679,-10.3618 -20.2484,-17.0896 -4.9007,-12.8324 1.5285,-36.1064 12.8831,-44.6302 15.3818,-11.54691 40.8374,-6.459 49.7532,10.85 3.139,6.0939 3.4744,9.8508 2.9813,17.6164 -0.9701,15.2794 -8.7438,28.0636 -20.2404,33.2861 -6.6631,3.0269 -18.4259,3.0115 -25.1288,-0.033 z m 16.2077,-25.0405 c 4.4302,-2.0187 2.4942,-1.5678 0.5555,-6.248 -0.8338,-2.0131 -0.3947,-1.9974 -1.4685,-2.4095 -3.40979,-5.4068 -6.3713,-2.8768 -6.3713,-2.8768 -5.4239,1.9613 -7.9054,7.3659 -5.7601,12.545 2.2939,5.538 7.4835,1.5229 13.0444,-1.0107 z m -125.4817,-45.71281 c 0,-3.9558 -0.5131,-5.6249 -1.7292,-5.6249 -3.4175,0 -4.4102,9.5187 -1.0833,10.38811 1.2031,0.3145 2.3281,0.637 2.5,0.7167 0.1719,0.08 0.3125,-2.38611 0.3125,-5.47991 z m -5.7665,-0.647 c 0.4417,-2.762 0.4826,-6.299 0.091,-7.86 -0.3917,-1.5609 0.7179,-7.3166 2.4658,-12.7904 1.7479,-5.4739 3.199,-11.9212 3.2246,-14.3275 0.074,-6.9319 2.2759,-14.7876 6.6032,-23.5551 3.0993,-6.2796 5.5989,-9.2954 11.0331,-13.3118 14.7479,-10.9 28.2738,-15.849 56.5912,-20.7064 15.5187,-2.662 18.1876,-2.7369 71.875,-2.0163 49.8144,0.6686 69.02233,1.5785 85.94173,4.0712 l 5.1838,0.7637 0.89,-13.0574 c 1.1933,-17.5074 -0.082,-96.3618 -1.6732,-103.4379 -0.6956,-3.0938 -2.4259,-14.3438 -3.8451,-25.0001 -1.4192,-10.6562 -3.9699,-26.6875 -5.6683,-35.625 l -3.088,-16.25 -6.5593,-5.9528 c -6.7218,-6.1005 -17.3171,-12.1722 -21.24093,-12.1722 -1.2188,0 -5.209,3.766 -8.94,8.4375 -29.0841,36.4158 -76.1577,58.2445 -138.3678,64.1631 -18.932,1.8012 -60.6011,0.7961 -81.25,-1.9596 -36.1434,-4.8237 -104.7041,-20.3552 -124.7311,-28.2561 -19.4263,-7.664 -43.2544,-22.234 -66.5189,-40.6739 -15.0457,-11.92549 -55.7657,-53.01999 -72.1788,-72.84259 -12.9389,-15.6267 -13.7578,-16.9346 -12.1454,-19.3954 1.8817,-2.8718 5.7709,-13.223 4.9683,-13.223 -0.2723,0 -4.6067,1.4639 -9.6321,3.2531 -21.5714,7.6801 -41.1054,20.6446 -52.6068,34.9144 -4.8485,6.0156 -6.8448,10.0907 -10.3249,21.0761 -22.7787,71.90489 -23.3609,178.29639 -1.6629,303.88609 3.8152,22.0826 5.3085,26.1568 7.9944,21.8109 0.4451,-0.7203 6.5252,-4.133 13.5113,-7.5839 6.986,-3.451 13.8632,-7.3617 15.2825,-8.6905 1.4193,-1.3289 3.232,-2.4161 4.0283,-2.4161 1.3189,0 12.7912,-4.8318 18.0617,-7.6071 1.1938,-0.6286 2.7678,-1.1429 3.4978,-1.1429 0.7301,0 3.6559,-1.125 6.5018,-2.5 2.8459,-1.375 5.9663,-2.5 6.9342,-2.5 0.968,0 3.2529,-0.7889 5.0778,-1.7532 1.8248,-0.9642 8.3803,-3.2934 14.5678,-5.176 6.1875,-1.8826 12.1273,-3.844 13.1995,-4.3588 1.0723,-0.5148 5.291,-1.6235 9.375,-2.4639 4.0841,-0.8404 8.3073,-1.9924 9.3851,-2.5601 1.0778,-0.5676 7.2653,-1.9252 13.75,-3.0169 6.4847,-1.0917 12.9154,-2.5128 14.2904,-3.1581 1.375,-0.6452 11.7813,-2.8786 23.125,-4.963 11.3438,-2.0845 33.7765,-6.2904 49.8505,-9.3466 25.5513,-4.8581 32.028,-5.6387 51.517,-6.2093 13.6901,-0.4008 22.5787,-0.188 23.0358,0.5516 0.4093,0.6624 3.2146,1.2043 6.234,1.2043 7.3719,0 18.2784,2.378 20.7111,4.5158 1.0854,0.9538 2.6399,1.7342 3.4545,1.7342 0.8146,0 2.739,0.7031 4.2766,1.5625 9.6855,5.4135 18.986,18.038 20.845,28.2948 0.5749,3.1722 0.8354,18.5646 0.5788,34.2052 l -0.4665,28.4373 6.0718,0 6.0719,0 z m 32.7919,191.32091 c -547.04158,923.8413 -273.52079,461.9207 0,0 z"
     style="fill:#000000"
     sodipodi:nodetypes="sssscccsscssssccsssssscsssssccccssscssscsscscccccccsssssccsssccscscscssssscssscssscssscsscsssssscscsscsscsscscssscsscssscscsscsssssscccssssscsssssscscssccsssssssccscscsssssscsccccssssscssssccscsccccccsscsccccssssccccccccssscccssssscscccssssccsssscsscsssscccccccccssccsscscssssscscsscsssssssssssssscccscssscssscscssscsssssscccscc"
     inkscape:export-xdpi="90"
     inkscape:export-ydpi="90" />
  <path
     style="fill:#000000;fill-opacity:1;stroke:#000000;stroke-width:10;stroke-linecap:round;stroke-linejoin:miter;stroke-miterlimit:4;stroke-dasharray:none;stroke-opacity:1"
     d="m 545.19763,2517.1099 335.01398,0 c 0,0 26.57178,1169.3177 -42,882.2714 -126.5606,-529.7916 -74.90891,-536.1966 -126.5606,-529.7916 -48.24229,5.9822 0,0 -86.45338,529.7916 -47.51314,291.1634 -80,-882.2714 -80,-882.2714 z"
     id="rect4219"
     inkscape:connector-curvature="0"
     sodipodi:nodetypes="ccsssc"
     inkscape:export-xdpi="90"
     inkscape:export-ydpi="90" />
  <flowRoot
     xml:space="preserve"
     id="flowRoot4222"
     style="font-style:normal;font-variant:normal;font-weight:bold;font-stretch:normal;font-size:70px;line-height:125%;font-family:'Segoe Print';-inkscape-font-specification:'Segoe Print Bold';text-align:center;letter-spacing:0px;word-spacing:0px;text-anchor:middle;fill:#000000;fill-opacity:1;stroke:none;stroke-width:1px;stroke-linecap:butt;stroke-linejoin:miter;stroke-opacity:1"
     inkscape:export-xdpi="90"
     inkscape:export-ydpi="90"
     transform="translate(0,170)"><flowRegion
       id="flowRegion4224"><rect
         id="rect4226"
         width="202.33698"
         height="289.05283"
         x="621.46356"
         y="1895.1785"
         style="font-style:normal;font-variant:normal;font-weight:bold;font-stretch:normal;font-size:70px;font-family:'Segoe Print';-inkscape-font-specification:'Segoe Print Bold';text-align:center;text-anchor:middle" /></flowRegion><flowPara
       id="flowPara4228"
       style="font-style:normal;font-variant:normal;font-weight:bold;font-stretch:normal;font-size:70px;font-family:'Segoe Print';-inkscape-font-specification:'Segoe Print Bold';text-align:center;text-anchor:middle">GNU Linux</flowPara></flowRoot>  <path
     style="fill:#000000;fill-rule:evenodd;stroke:#000000;stroke-width:10;stroke-linecap:butt;stroke-linejoin:miter;stroke-miterlimit:4;stroke-dasharray:none;stroke-opacity:1"
     d="m 574.51497,1815.1298 c 2.66712,1.2145 -51.60318,124.5864 -120.42332,274.7362 -1.76864,3.8588 -3.5302,7.6991 -5.2837,11.519 0,0 10e-6,0 10e-6,0 59.43088,147.6767 105.36544,267.0949 102.713,268.1559 -2.65093,1.0604 -52.02446,-117.7828 -111.89776,-268.3708 0,0 -10e-6,-10e-5 -10e-6,-10e-5 1.74938,-3.8727 3.50948,-7.7662 5.27936,-11.6783 69.19781,-152.9532 126.94708,-275.5756 129.61242,-274.3619 z"
     id="path4266"
     inkscape:path-effect="#path-effect4268;#path-effect4270"
     inkscape:original-d="m 574.51497,1815.1298 c -60.92915,71.7621 -89.50223,188.7908 -130.2994,286.1477 46.91408,92.541 73.00535,182.5133 107.30539,268.2634"
     inkscape:connector-curvature="0"
     inkscape:export-xdpi="90"
     inkscape:export-ydpi="90" />
  <path
     inkscape:connector-curvature="0"
     inkscape:original-d="m 863.64616,1815.2885 c 56.08537,75.6082 76.91205,194.2606 111.22819,294.0863 -52.88956,89.2606 -84.83258,177.3255 -124.68939,260.6382"
     inkscape:path-effect="#path-effect4274;#path-effect4276"
     id="path4272"
     d="m 863.64616,1815.2885 c 2.73929,-1.036 52.31187,125.1138 111.31661,282.2808 1.50918,4.0199 3.0098,8.0206 4.5011,11.9998 0,0 -1e-5,0 -1e-5,0 -69.63248,146.3315 -126.70332,261.6761 -129.2789,260.4439 -2.57705,-1.2329 51.1,-117.3771 120.09986,-260.8325 0,0 1e-5,0 1e-5,0 -1.49889,-3.9268 -3.00447,-7.8745 -4.51591,-11.8411 -58.81197,-154.3448 -104.86387,-281.0142 -102.12276,-282.0509 z"
     style="fill:#000000;fill-rule:evenodd;stroke:#000000;stroke-width:10;stroke-linecap:butt;stroke-linejoin:miter;stroke-miterlimit:4;stroke-dasharray:none;stroke-opacity:1"
     inkscape:export-xdpi="90"
     inkscape:export-ydpi="90" />
</svg>
