<?xml version="1.0" encoding="UTF-8" standalone="no"?>
<!-- Created with Inkscape (http://www.inkscape.org/) -->

<svg
   xmlns:dc="http://purl.org/dc/elements/1.1/"
   xmlns:cc="http://creativecommons.org/ns#"
   xmlns:rdf="http://www.w3.org/1999/02/22-rdf-syntax-ns#"
   xmlns:svg="http://www.w3.org/2000/svg"
   xmlns="http://www.w3.org/2000/svg"
   xmlns:sodipodi="http://sodipodi.sourceforge.net/DTD/sodipodi-0.dtd"
   xmlns:inkscape="http://www.inkscape.org/namespaces/inkscape"
   id="svg4136"
   version="1.1"
   inkscape:version="0.91 r13725"
   width="1438.75"
   height="2560"
   viewBox="0 0 1438.75 2560"
   sodipodi:docname="3alaaBELGANB.svg">
  <metadata
     id="metadata4142">
    <rdf:RDF>
      <cc:Work
         rdf:about="">
        <dc:format>image/svg+xml</dc:format>
        <dc:type
           rdf:resource="http://purl.org/dc/dcmitype/StillImage" />
        <dc:title></dc:title>
      </cc:Work>
    </rdf:RDF>
  </metadata>
  <defs
     id="defs4140">
    <inkscape:path-effect
       fuse_tolerance="0"
       vertical_pattern="false"
       prop_units="false"
       tang_offset="0"
       normal_offset="0"
       spacing="0"
       scale_y_rel="false"
       prop_scale="1"
       copytype="single_stretched"
       pattern="m -3845.8233,4798.95 c 0,-2.76 2.24,-5 5,-5 2.76,0 5,2.24 5,5 0,2.76 -2.24,5 -5,5 -2.76,0 -5,-2.24 -5,-5 z"
       is_visible="true"
       id="path-effect3510"
       effect="skeletal" />
    <inkscape:path-effect
       is_visible="true"
       id="path-effect3508"
       effect="spiro" />
    <inkscape:path-effect
       fuse_tolerance="0"
       vertical_pattern="false"
       prop_units="false"
       tang_offset="0"
       normal_offset="0"
       spacing="0"
       scale_y_rel="false"
       prop_scale="1"
       copytype="single_stretched"
       pattern="m 1281.7854,329.92615 c 0,-2.76 2.24,-5 5,-5 2.76,0 5,2.24 5,5 0,2.76 -2.24,5 -5,5 -2.76,0 -5,-2.24 -5,-5 z"
       is_visible="true"
       id="path-effect4276"
       effect="skeletal" />
    <inkscape:path-effect
       is_visible="true"
       id="path-effect4274"
       effect="spiro" />
    <inkscape:path-effect
       effect="skeletal"
       id="path-effect4270"
       is_visible="true"
       pattern="m -2682.9829,4475.1364 c 0,-2.76 2.24,-5 5,-5 2.76,0 5,2.24 5,5 0,2.76 -2.24,5 -5,5 -2.76,0 -5,-2.24 -5,-5 z"
       copytype="single_stretched"
       prop_scale="1"
       scale_y_rel="false"
       spacing="0"
       normal_offset="0"
       tang_offset="0"
       prop_units="false"
       vertical_pattern="false"
       fuse_tolerance="0" />
    <inkscape:path-effect
       effect="spiro"
       id="path-effect4268"
       is_visible="true" />
  </defs>
  <sodipodi:namedview
     pagecolor="#ffffff"
     bordercolor="#666666"
     borderopacity="1"
     objecttolerance="10"
     gridtolerance="10"
     guidetolerance="10"
     inkscape:pageopacity="0"
     inkscape:pageshadow="2"
     inkscape:window-width="1024"
     inkscape:window-height="706"
     id="namedview4138"
     showgrid="false"
     showguides="false"
     inkscape:zoom="0.27676602"
     inkscape:cx="70.343522"
     inkscape:cy="1220.7783"
     inkscape:window-x="-8"
     inkscape:window-y="-8"
     inkscape:window-maximized="1"
     inkscape:current-layer="svg4136"
     inkscape:snap-to-guides="false">
    <sodipodi:guide
       position="798.88174,1122.3604"
       orientation="0,0"
       id="guide3707" />
    <sodipodi:guide
       position="798.88174,1122.3604"
       orientation="0,0"
       id="guide3709" />
    <sodipodi:guide
       position="798.88174,1122.3604"
       orientation="0,0"
       id="guide3711" />
    <sodipodi:guide
       position="798.88174,1122.3604"
       orientation="0,0"
       id="guide3713" />
  </sodipodi:namedview>
  <rect
     inkscape:export-ydpi="90"
     inkscape:export-xdpi="90"
     y="1196.0037"
     x="756.51392"
     height="79.350998"
     width="37.828491"
     id="rect3482"
     style="fill:#f8e1c7;fill-opacity:1;fill-rule:evenodd;stroke:#000000;stroke-width:4.65897036;stroke-linecap:round;stroke-linejoin:miter;stroke-miterlimit:4;stroke-dasharray:none;stroke-opacity:1" />
  <path
     style="color:#000000;font-style:normal;font-variant:normal;font-weight:normal;font-stretch:normal;font-size:medium;line-height:normal;font-family:sans-serif;text-indent:0;text-align:start;text-decoration:none;text-decoration-line:none;text-decoration-style:solid;text-decoration-color:#000000;letter-spacing:normal;word-spacing:normal;text-transform:none;direction:ltr;block-progression:tb;writing-mode:lr-tb;baseline-shift:baseline;text-anchor:start;white-space:normal;clip-rule:nonzero;display:inline;overflow:visible;visibility:visible;opacity:1;isolation:auto;mix-blend-mode:normal;color-interpolation:sRGB;color-interpolation-filters:linearRGB;solid-color:#000000;solid-opacity:1;fill:#aa0000;fill-opacity:1;fill-rule:nonzero;stroke:none;stroke-width:10;stroke-linecap:round;stroke-linejoin:miter;stroke-miterlimit:4;stroke-dasharray:none;stroke-dashoffset:0;stroke-opacity:1;color-rendering:auto;image-rendering:auto;shape-rendering:auto;text-rendering:auto;enable-background:accumulate"
     d="m 697.35113,1267.5036 0,1.3059 0,1.3059 c 0,0 17.53563,96.8597 7.16533,208.3213 -10.3704,111.4616 -48.64678,237.5252 10.07171,295.9331 26.78786,26.6461 84.78403,26.5063 111.70226,0 59.33395,-58.4261 20.29711,-185.1427 11.04028,-297.2527 -9.25682,-112.11 11.26642,-209.6135 11.26642,-209.6135 z"
     id="path3484"
     inkscape:connector-curvature="0"
     sodipodi:nodetypes="cccsssscc"
     inkscape:export-xdpi="90"
     inkscape:export-ydpi="90" />
  <path
     inkscape:export-ydpi="90"
     inkscape:export-xdpi="90"
     sodipodi:nodetypes="cccssssccccssssc"
     inkscape:connector-curvature="0"
     id="path3486"
     d="m 697.46558,1263.0883 0,1.3059 0,1.3059 c 0,0 18.06813,96.8597 7.38289,208.3213 -10.68523,111.4616 -50.12376,237.5252 10.37751,295.9331 27.60118,26.6461 87.35824,26.5063 115.09371,0 61.13548,-58.4261 20.9134,-185.1427 11.37554,-297.2527 -9.53786,-112.11 11.60851,-209.6135 11.60851,-209.6135 z m 5.22365,5.2236 145.39086,0 c 0,0 -21.7615,95.5068 -12.53116,205.3126 9.23024,109.8057 49.45232,233.9105 -10.45288,291.1063 -25.22928,24.0882 -79.54393,24.2204 -104.64642,0 -59.57831,-57.4849 -20.13977,-181.5896 -9.68527,-291.3231 10.45445,-109.7335 -8.07513,-205.0958 -8.07513,-205.0958 z"
     style="color:#000000;font-style:normal;font-variant:normal;font-weight:normal;font-stretch:normal;font-size:medium;line-height:normal;font-family:sans-serif;text-indent:0;text-align:start;text-decoration:none;text-decoration-line:none;text-decoration-style:solid;text-decoration-color:#000000;letter-spacing:normal;word-spacing:normal;text-transform:none;direction:ltr;block-progression:tb;writing-mode:lr-tb;baseline-shift:baseline;text-anchor:start;white-space:normal;clip-rule:nonzero;display:inline;overflow:visible;visibility:visible;opacity:1;isolation:auto;mix-blend-mode:normal;color-interpolation:sRGB;color-interpolation-filters:linearRGB;solid-color:#000000;solid-opacity:1;fill:#000000;fill-opacity:1;fill-rule:nonzero;stroke:none;stroke-width:10;stroke-linecap:round;stroke-linejoin:miter;stroke-miterlimit:4;stroke-dasharray:none;stroke-dashoffset:0;stroke-opacity:1;color-rendering:auto;image-rendering:auto;shape-rendering:auto;text-rendering:auto;enable-background:accumulate" />
  <path
     inkscape:export-ydpi="90"
     inkscape:export-xdpi="90"
     sodipodi:nodetypes="cscccsssssssssscccssccccccssssscssscscssssssssssscscsssscssccssccscsccsscccsccsssssssccscsssssscsscssssscccssssscsscssssssssssssssssssscsssssscsscssssscccssssscsscssssssssssscssssssssssssssscsccc"
     style="fill:#f8e1c7"
     d="m 789.82572,1218.9028 c -5.41593,-1.419 -12.67419,-3.9092 -16.88607,-8.4152 l -3.35974,-2.5495 -2.19038,2.2887 c -2.13532,2.2312 -2.28885,2.2797 -6.10812,1.9274 -8.77645,-0.8094 -23.13882,-5.4622 -30.9932,-10.0405 -6.28128,-3.6613 -13.78066,-11.0774 -16.53869,-16.3551 -3.92667,-7.514 -4.48299,-10.2771 -4.69622,-23.3244 -0.14558,-8.9102 -0.51604,-15.2941 -1.53178,-19.8433 -3.17081,-14.201 -9.89213,-25.826 -20.94458,-36.2253 -4.29734,-4.0433 -6.08398,-6.4604 -11.502,-15.5606 -29.56574,-49.6591 -43.99622,-95.82089 -42.55878,-136.14134 0.37088,-10.40477 1.52578,-18.9657 3.47869,-25.78627 1.04468,-3.64851 1.34144,-14.28338 0.5208,-18.65819 -0.34742,-1.85199 -0.96329,-2.48922 -3.7733,-3.90389 -1.84687,-0.92981 -4.73377,-2.62582 -6.41537,-3.76881 -1.68149,-1.14298 -5.35434,-3.54001 -8.16195,-5.32671 -2.80755,-1.78659 -5.48859,-3.76996 -5.95778,-4.40745 -0.46929,-0.63739 -1.09587,-1.15892 -1.39236,-1.15892 -0.29655,0 -1.68008,-1.10187 -3.07454,-2.44858 -1.39455,-1.34671 -3.26556,-3.06414 -4.15786,-3.8164 -0.8922,-0.75231 -2.06303,-2.03874 -2.60174,-2.85869 -0.53872,-0.82001 -1.49015,-2.11433 -2.11448,-2.8764 -7.13577,-8.71059 -7.88724,-10.75173 -7.96168,-21.62716 -0.0334,-4.90009 0.25633,-7.28698 1.16132,-9.5646 l 1.20599,-3.03509 -6.56942,-9.15345 c -11.93342,-16.62713 -20.48307,-30.79089 -28.17055,-46.66812 -5.58674,-11.53867 -9.78765,-22.82911 -9.78765,-26.3056 0,-2.75704 -2.57688,-9.68668 -5.68218,-15.28027 -7.91513,-14.25763 -18.56019,-26.09222 -28.82393,-32.04488 l -3.88159,-2.25123 -5.24934,-10.77378 c -9.81242,-20.13893 -14.12971,-36.16915 -15.47532,-57.46011 -1.09493,-17.32344 3.2092,-41.28468 10.89386,-60.64654 l 1.91254,-4.81882 -1.13233,-6.93439 c -1.53455,-9.39698 -1.51308,-30.81403 0.0413,-40.8881 6.22539,-40.35627 24.87564,-68.1933 57.29281,-85.51418 5.06756,-2.70768 5.50551,-3.13471 11.7717,-11.47949 25.67668,-34.19383 56.09486,-62.23646 88.68237,-81.75645 30.02782,-17.98668 61.83712,-28.95781 95.33156,-32.88003 12.3836,-1.45014 44.1148,-1.68082 47.88502,-0.34816 3.3692,1.19094 6.90869,4.4086 8.35736,7.59753 2.33095,5.13104 1.1748,15.92408 -2.73881,25.56652 -0.79081,1.94842 -1.31437,3.66601 -1.16346,3.81692 0.15086,0.15086 5.40475,-0.13932 11.67532,-0.64481 96.99372,-7.81954 156.80249,-4.32638 186.23238,10.87699 4.2931,2.21786 6.7848,4.1762 12.2942,9.66286 8.0838,8.05048 9.988,11.35031 10.0002,17.32861 0.01,4.78163 -1.6979,8.4457 -6.0041,12.88392 l -2.9977,3.08953 4.3358,8.34357 c 6.23,11.98858 10.057,22.21011 12.6532,33.79606 1.5935,7.11121 1.6231,21.20419 0.057,27.09766 -1.8829,7.08499 -5.9831,14.60997 -10.665,19.57301 l -4.2124,4.46533 3.6837,2.10759 c 10.5865,6.05697 18.3099,17.16762 21.8874,31.48621 1.9401,7.76563 2.4001,24.80939 0.9643,35.74055 -70.24913,102.03721 -106.68683,203.93186 -107.77158,238.36881 -2.873,0.98084 1.09065,60.96738 -3.96072,82.57494 -2.7817,11.89879 -10.0561,29.1712 -10.84116,31.32595 -0.78506,2.15475 -2.16426,5.24 -3.06487,6.85604 l -1.6374,2.9383 0.85955,7.83547 c 1.11953,10.20539 -12.44952,41.9299 -13.56111,52.23647 -5.54292,51.39887 -23.59548,98.96137 -54.02761,142.34437 l -5.49643,9.9249 -0.012,6.5467 c -0.0329,18.2529 -3.82799,30.8303 -12.99899,43.078 -7.77629,10.3852 -8.78848,11.569 -12.61511,14.7536 -9.39483,7.8184 -19.96478,10.1874 -31.71704,7.1083 z M 634.87804,899.32565 c -0.0308,-0.80804 -0.70608,-4.70128 -1.50023,-8.65166 l -1.44393,-7.18252 -0.83567,2.44859 c -0.45969,1.34671 -1.07195,2.44858 -1.36061,2.44858 -0.73011,0 -10.34324,-10.77931 -20.51598,-23.00473 -9.46394,-11.37366 -9.21263,-11.27738 -9.9512,-3.81269 -0.36968,3.73642 0.78381,9.57338 2.46917,12.4947 2.0566,3.56488 13.2329,14.97568 14.66789,14.97568 0.32068,0 0.95003,0.58766 1.39858,1.30591 0.44856,0.71825 1.21784,1.30591 1.70949,1.30591 0.49165,0 1.29724,0.48847 1.79009,1.08553 0.49291,0.59706 2.07149,1.64686 3.508,2.33283 1.4365,0.68607 4.07757,2.25431 5.86913,3.48516 3.83813,2.63695 4.27002,2.71609 4.19527,0.76871 z m 94.08206,-12.89588 c 0,-0.35912 1.01103,-0.65295 2.24679,-0.65295 1.23581,0 2.42842,-0.29383 2.65038,-0.65296 0.22195,-0.35912 1.12078,-0.65295 1.99736,-0.65295 0.87664,0 1.59389,-0.22446 1.59389,-0.49891 0,-0.49745 4.74041,-2.76587 5.77987,-2.76587 0.30098,0 1.0791,-0.58766 1.72913,-1.30591 0.64998,-0.71826 1.49803,-1.30592 1.88453,-1.30592 0.94747,0 12.80697,-11.85585 12.80697,-12.803 0,-0.41204 0.45833,-1.12951 1.01846,-1.59441 1.14523,-0.95044 3.55224,-5.64384 3.55224,-6.9264 0,-0.46036 0.58766,-1.88323 1.30591,-3.16203 0.71825,-1.2788 1.30591,-3.1976 1.30591,-4.26406 0,-1.06646 0.29383,-1.93902 0.65295,-1.93902 0.4097,0 0.65296,-4.13535 0.65296,-11.10025 l 0,-11.10025 -50.60408,0 -50.60408,0 0,11.10025 c 0,6.9649 0.24327,11.10025 0.65296,11.10025 0.35912,0 0.65295,0.87256 0.65295,1.93902 0,1.06646 0.58766,2.98526 1.30591,4.26406 0.71825,1.2788 1.30592,2.70167 1.30592,3.16203 0,1.28256 2.407,5.97596 3.55218,6.9264 0.56018,0.4649 1.01851,1.17104 1.01851,1.56923 0,0.94904 11.83615,12.82818 12.78174,12.82818 0.40034,0 1.25973,0.58766 1.90976,1.30592 0.64998,0.71825 1.45918,1.30591 1.79814,1.30591 0.6821,0 4.04174,1.4154 7.89465,3.32589 1.38067,0.68462 3.36403,1.2448 4.40746,1.2448 1.04342,0 1.89717,0.29383 1.89717,0.65295 0,0.41048 4.24422,0.65296 11.42673,0.65296 7.18251,0 11.42673,-0.24248 11.42673,-0.65296 z m -20.08273,-14.14594 c -6.67598,-2.36292 -11.60929,-10.67656 -11.56009,-19.48128 0.0376,-6.72931 3.2313,-11.83355 9.44232,-15.09091 3.32986,-1.74632 10.58332,-1.64388 14.03855,0.19834 5.60952,2.99085 9.93428,10.02857 10.60066,17.25078 1.13332,12.28278 -10.72472,21.29843 -22.52144,17.12307 z m 9.33863,-12.26905 c 0.88149,-0.88149 1.60272,-2.21712 1.60272,-2.96802 0,-1.76167 -2.80902,-4.57069 -4.5707,-4.57069 -1.76167,0 -4.57069,2.80902 -4.57069,4.57069 0,1.76168 2.80902,4.57069 4.57069,4.57069 0.7509,0 2.08649,-0.72118 2.96798,-1.60267 z m -3.91225,-9.55446 c 0.67285,-1.08877 -0.84044,-2.33722 -1.7412,-1.43651 -0.75346,0.75346 -0.28197,2.14635 0.72661,2.14635 0.31671,0 0.77331,-0.31943 1.01459,-0.70984 z m 171.36576,32.05172 c 0,-0.35913 0.8537,-0.65296 1.89712,-0.65296 1.04348,0 3.02679,-0.56018 4.40745,-1.24479 3.85291,-1.9105 7.21266,-3.3259 7.89466,-3.3259 0.33901,0 1.14821,-0.58766 1.79819,-1.30591 0.64998,-0.71825 1.49803,-1.30591 1.88453,-1.30591 0.94752,0 12.80697,-11.85585 12.80697,-12.803 0,-0.41204 0.45833,-1.12951 1.01846,-1.59442 1.14523,-0.95044 3.55224,-5.64383 3.55224,-6.9264 0,-0.46036 0.58766,-1.88323 1.30591,-3.16203 0.71825,-1.2788 1.30591,-3.1976 1.30591,-4.26406 0,-1.06646 0.29383,-1.93902 0.65295,-1.93902 0.4097,0 0.65296,-4.13535 0.65296,-11.10025 l 0,-11.10025 -50.60408,0 -50.60408,0 0,11.10025 c 0,6.9649 0.24327,11.10025 0.65296,11.10025 0.35912,0 0.65295,0.87256 0.65295,1.93902 0,1.06646 0.58766,2.98526 1.30591,4.26406 0.71825,1.2788 1.30592,2.70167 1.30592,3.16203 0,1.28257 2.407,5.97596 3.55218,6.9264 0.56018,0.46491 1.01851,1.17104 1.01851,1.56924 0,0.94903 11.83621,12.82818 12.78174,12.82818 0.40034,0 1.25973,0.58766 1.90976,1.30591 0.65003,0.71825 1.42815,1.30591 1.72908,1.30591 1.03951,0 5.77992,2.26842 5.77992,2.76587 0,0.27445 0.7172,0.49891 1.59384,0.49891 0.87668,0 1.77546,0.29383 1.99741,0.65296 0.22196,0.35912 1.41462,0.65295 2.65038,0.65295 1.23576,0 2.24679,0.29383 2.24679,0.65296 0,0.41047 4.24422,0.65296 11.42673,0.65296 7.18251,0 11.42673,-0.24249 11.42673,-0.65296 z m -14.85908,-14.14595 c -3.89684,-1.37925 -8.28314,-5.96817 -9.65633,-10.10243 -2.81137,-8.46424 1.87022,-20.03075 9.8239,-24.27141 3.45518,-1.84223 10.70863,-1.94466 14.03855,-0.19835 6.21097,3.25737 9.40471,8.36165 9.44237,15.09091 0.0802,14.36393 -11.39596,23.81795 -23.64849,19.48128 z m 8.68572,-12.26904 c 0.88149,-0.88149 1.60267,-2.21713 1.60267,-2.96802 0,-0.7509 -0.72118,-2.08654 -1.60267,-2.96803 -0.88149,-0.88149 -2.21712,-1.60267 -2.96802,-1.60267 -0.7509,0 -2.08649,0.72118 -2.96798,1.60267 -0.88149,0.88149 -1.60272,2.21713 -1.60272,2.96803 0,0.75089 0.72123,2.08653 1.60272,2.96802 0.88149,0.88149 2.21708,1.60267 2.96798,1.60267 0.7509,0 2.08653,-0.72118 2.96802,-1.60267 z m 0.005,-9.55447 c 0.67291,-1.08876 -0.84048,-2.33727 -1.74125,-1.4365 -0.7534,0.75346 -0.28192,2.14634 0.72666,2.14634 0.31677,0 0.77337,-0.31942 1.01459,-0.70984 z M 937.6473,735.77384 c -0.21699,-0.21699 -0.37129,0.16867 -0.34293,0.85699 0.0313,0.76067 0.18601,0.91539 0.39449,0.39449 0.18857,-0.47133 0.16538,-1.03454 -0.0517,-1.25148 z"
     id="path3488"
     inkscape:connector-curvature="0" />
  <path
     inkscape:export-ydpi="90"
     inkscape:export-xdpi="90"
     sodipodi:nodetypes="ssssssscccscccsssssccccscccccccscsccccccsssssssssccccccccssccscssscsssscccsssccccssssscccssscsssscssssssscccccssssssscscssscccsssscsssccccssssccccsssssssssssccscscccccssccscccssssssccsscccsssssscccssccccccsccsscccsssscccccsscccsssscccccsccscscscccscsccccccsscssssccscccssccsccccssccscccccccscccccccssccccccscsscsccccccccccccscsssssscccccscscccccccsccccsccccccssccccccccscsssccccscsscsccccccsscccssccccccsccsscccsssscccccssssssscssccccscscccccccscsccscccccssssccscscccssccsccccssccsccccccsscccccccssccccccscsscsccccccccccccsscccssccccscsccccscccccscscccccccsssssscccccscsssccccscsscsccccccsscccccssscccscscsccscccccccscccscccscssscccccssccccssccccscccccccscsssssscccscscscc"
     inkscape:connector-curvature="0"
     id="path3490"
     d="m 781.59895,321.09024 c -9.95795,0.0724 -20.98491,0.49133 -27.20068,1.21919 -33.53138,3.92657 -65.37828,14.9107 -95.43567,32.91509 -32.62063,19.53984 -63.06211,47.60529 -88.75707,81.82352 -3.13263,4.17176 -4.80639,6.35875 -6.30918,7.82429 -1.50284,1.4655 -2.84516,2.22946 -5.37664,3.58207 -32.4831,17.35604 -51.19289,45.28844 -57.42747,85.70453 -1.56255,10.12881 -1.58564,31.51024 -0.0408,40.9699 l 1.12021,6.86319 -1.88542,4.75232 c -7.69955,19.39942 -12.01105,43.37696 -10.91251,60.75854 1.34738,21.31781 5.67847,37.39718 15.50159,57.55806 l 5.28487,10.84622 3.95038,2.29041 c 10.20157,5.91662 20.82929,17.72154 28.72598,31.9459 1.54531,2.78357 2.96165,5.90496 3.98915,8.66796 1.02743,2.76305 1.65991,5.18854 1.65991,6.48573 0,1.84343 1.0637,5.51142 2.81586,10.2208 1.75228,4.70938 4.20211,10.42211 6.99891,16.19837 7.69396,15.89075 16.25353,30.0705 28.19338,46.70677 l 6.48573,9.03733 -1.15291,2.90257 c -0.92109,2.31805 -1.21398,4.75179 -1.18039,9.66275 0.0745,10.88723 0.87831,13.07124 8.02112,21.79034 0.61488,0.75054 1.56819,2.0472 2.09865,2.85467 0.5652,0.86034 1.73326,2.14045 2.65163,2.9148 0.88008,0.74197 2.75391,2.4618 4.14423,3.80449 0.70269,0.67865 1.40193,1.29483 1.96801,1.74563 0.28307,0.22546 0.5324,0.40964 0.73769,0.5418 0.10264,0.066 0.19379,0.11889 0.27852,0.15911 0.0847,0.0402 0.15342,0.0755 0.27137,0.0755 -0.005,0 0.23219,0.0866 0.46522,0.28056 0.23302,0.19395 0.49535,0.47091 0.71726,0.77232 0.14934,0.20293 0.40895,0.44218 0.77639,0.75089 0.36743,0.30872 0.8374,0.67568 1.3804,1.07738 1.08594,0.80335 2.46185,1.74789 3.87077,2.64447 2.80536,1.78529 6.48014,4.18357 8.15584,5.32264 1.69711,1.15359 4.58166,2.84809 6.44488,3.7861 1.39775,0.70373 2.23045,1.20995 2.73933,1.73644 0.50889,0.52655 0.7252,1.07853 0.89476,1.98232 0.40228,2.1441 0.53652,5.89499 0.43466,9.54544 -0.10191,3.65044 -0.44422,7.22644 -0.94987,8.9924 -1.96127,6.84998 -3.11778,15.42992 -3.48923,25.8489 -1.4399,40.38966 13.0132,86.59605 42.59617,136.28415 5.42058,9.1045 7.23825,11.5638 11.54714,15.6179 11.02017,10.3689 17.70779,21.9371 20.86805,36.0911 1.01103,4.5283 1.38082,8.7969 1.52629,17.7013 0.21334,13.0541 0.7916,15.9128 4.72579,23.4411 2.80149,5.3608 10.30244,12.7675 16.6381,16.4606 7.90755,4.6092 22.25947,11.3489 31.10112,12.1643 1.91107,0.1763 2.93036,0.2646 3.78819,-0.01 0.85777,-0.2707 1.46304,-0.8846 2.53221,-2.0017 l 2.02929,-2.1201 3.17498,2.4088 c 4.86264,3.6901 11.29086,4.8119 16.69728,6.2785 l -0.006,0.016 0.28672,0.075 c 11.82117,3.0972 22.50102,0.7034 31.94992,-7.16 3.83373,-3.1905 4.88008,-4.4114 12.65715,-14.7976 9.20167,-12.2888 13.01817,-24.9461 13.05097,-43.2349 l 0.0115,-6.4643 5.4491,-7.7681 c 30.4558,-43.4168 48.2233,-86.3054 53.77082,-137.7473 9.09797,-53.53962 20.11313,-79.60557 26.92617,-110.00531 6.31779,-28.18988 -2.63245,-79.41323 9.55619,-102.41075 12.18865,-22.99747 33.11479,-32.86823 45.66993,-67.99966 12.55511,-35.13143 45.99151,-80.89737 58.12711,-146.43267 0.3604,-2.7433 0.6023,-5.86459 0.732,-9.12603 0.1297,-3.26138 0.1471,-6.66291 0.058,-9.96666 -0.089,-3.30375 -0.284,-6.50966 -0.5794,-9.3799 -0.2954,-2.87018 -0.6911,-5.40469 -1.181,-7.36555 -3.5912,-14.37349 -11.3523,-25.55183 -22.0107,-31.64997 l -3.3954,-1.94356 3.9841,-4.2228 c 4.7201,-5.00352 8.8327,-12.55404 10.7278,-19.68557 1.593,-5.99419 1.5554,-20.03979 -0.054,-27.22215 -2.6011,-11.60742 -6.4387,-21.85517 -12.6766,-33.85885 l -4.2493,-8.17725 2.8669,-2.95361 c 4.3322,-4.46496 6.0871,-8.22223 6.0776,-13.06622 -0.01,-3.01681 -0.498,-5.40188 -2.0079,-8.01809 -1.5097,-2.61626 -4.0218,-5.46482 -8.0691,-9.49544 -5.5152,-5.49251 -8.047,-7.48193 -12.3592,-9.70966 -29.54355,-15.26209 -89.36439,-18.7261 -186.37294,-10.90536 -3.13346,0.25262 -6.01336,0.45159 -8.12627,0.56828 -1.05644,0.0584 -1.92158,0.0954 -2.52815,0.10918 -0.30328,0.007 -0.54258,0.008 -0.70399,0.005 -0.0214,0 -0.0282,0 -0.047,-0.005 0.005,-0.0371 0.005,-0.0602 0.0141,-0.11022 0.0371,-0.1962 0.11153,-0.47979 0.21532,-0.82027 0.20754,-0.68095 0.53449,-1.59279 0.92736,-2.56079 1.96623,-4.84441 3.23819,-9.97356 3.72801,-14.54561 0.48977,-4.5721 0.20701,-8.58365 -0.99375,-11.22677 -1.48759,-3.27423 -5.05346,-6.51414 -8.5078,-7.73517 -0.52665,-0.18617 -1.4341,-0.32267 -2.69446,-0.44177 -1.26042,-0.11915 -2.8612,-0.21296 -4.71351,-0.28463 -3.70466,-0.14339 -8.41477,-0.19437 -13.3938,-0.15817 z m 0.005,0.52236 c 4.97307,-0.036 9.67696,0.0141 13.3693,0.15713 1.84614,0.0715 3.43898,0.16595 4.68394,0.28364 1.2449,0.11764 2.15412,0.2662 2.56998,0.41319 3.284,1.1608 6.79706,4.35673 8.20682,7.46 1.13024,2.48792 1.43384,6.43757 0.94992,10.95539 -0.48402,4.51783 -1.74595,9.60676 -3.69333,14.40484 -0.39794,0.98037 -0.72854,1.90198 -0.94266,2.60467 -0.10708,0.35134 -0.18518,0.64621 -0.22853,0.87537 -0.0219,0.11456 -0.035,0.21203 -0.0366,0.30198 0,0.0899 -0.0313,0.18414 0.10202,0.31729 0.0754,0.0754 0.11388,0.0718 0.14694,0.0806 0.0329,0.009 0.0616,0.0136 0.0928,0.0172 0.0625,0.008 0.13477,0.0125 0.22446,0.0152 0.17927,0.006 0.42405,0.005 0.73245,-0.005 0.61702,-0.0141 1.48582,-0.0517 2.54559,-0.11017 2.11939,-0.11706 5.00138,-0.31639 8.13844,-0.56932 96.979,-7.81829 156.77528,-4.2953 186.09141,10.84931 4.2741,2.20793 6.7272,4.13498 12.2307,9.61579 4.0365,4.01986 6.5181,6.84538 7.9844,9.38621 1.4663,2.54084 1.9325,4.79641 1.9385,7.75796 0.01,4.71914 -1.6505,8.28961 -5.9307,12.70098 l -3.1291,3.22503 4.4228,8.51083 c 6.2222,11.97354 10.0391,22.16785 12.6306,33.73233 1.5776,7.04001 1.5986,21.18037 0.059,26.97319 -1.8705,7.03839 -5.9587,14.53856 -10.6025,19.46117 l -4.4401,4.70635 3.9719,2.27312 c 10.5145,6.01581 18.2001,17.05886 21.7638,31.3225 0.4803,1.92194 0.8697,4.43007 1.1614,7.28124 0.2916,2.85123 0.4856,6.04549 0.5748,9.33983 0.089,3.29435 0.074,6.68872 -0.053,9.94008 -0.1272,3.25141 -0.3661,6.35974 -0.7236,9.08209 -7.8473,47.3778 -40.4479,90.29946 -53.76896,129.81975 -13.32108,39.52028 -31.89674,61.95663 -46.20467,95.72882 -14.30794,33.77223 -3.45356,78.88025 -14.26139,109.01385 -10.80778,30.1336 -21.878,58.97524 -24.69871,87.57967 -5.53827,51.35589 -22.52891,98.87259 -52.93738,142.22199 l -4.49824,7.9028 -0.012,6.6295 c -0.0329,18.2168 -5.89604,33.8491 -15.03633,46.0558 -7.77545,10.3841 -8.75383,11.5302 -12.57347,14.7089 -9.34072,7.7734 -20.84507,10.118 -32.52843,7.057 -5.37091,-1.4072 -11.91138,-2.5763 -16.79419,-6.2817 l -3.54539,-2.6903 -2.35163,-0.6774 c -1.06615,1.114 -1.60434,1.6416 -2.31188,1.865 -0.7076,0.2232 -1.67486,0.1596 -3.58311,-0.016 -8.71122,-0.8034 -23.08466,-2.3251 -30.88586,-6.8724 -6.2268,-3.6296 -13.72367,-13.1454 -16.43814,-18.3399 -3.91914,-7.4996 -7.58766,-13.3012 -7.80084,-26.3416 -0.14568,-8.9162 -0.51813,-13.2363 -1.53852,-17.8063 -3.1812,-14.2482 -7.84586,-23.8394 -18.9306,-34.269 -4.28579,-4.0325 -8.13118,-8.4981 -13.5468,-17.5941 -29.54844,-49.6301 -42.91194,-95.74735 -41.47695,-135.99843 0.3704,-10.39061 1.52436,-18.93227 3.46881,-25.72343 0.53903,-1.8825 0.86775,-5.4481 0.97024,-9.12096 0.10254,-3.67285 2.06413,-7.42692 1.64566,-9.65763 -0.17781,-0.94815 -1.48884,-1.63986 -2.07724,-2.24862 -0.58834,-0.60877 -0.42322,-1.12951 -1.83532,-1.8405 -1.83063,-0.92161 -4.71983,-2.61909 -6.38576,-3.75147 -1.68739,-1.14701 -5.35935,-3.54263 -8.16905,-5.33073 -1.39868,-0.89006 -2.76649,-1.82974 -3.84022,-2.6241 -0.53693,-0.39716 -1.00095,-0.75868 -1.35595,-1.05695 -0.35489,-0.29827 -0.60647,-0.5453 -0.69172,-0.66116 -0.24733,-0.33599 -0.53223,-0.63797 -0.80397,-0.8641 -0.27168,-0.22618 -0.49744,-0.40096 -0.7988,-0.40096 0.0439,0 0.006,0 -0.047,-0.0246 -0.0532,-0.0251 -0.12981,-0.0682 -0.22039,-0.12651 -0.1811,-0.11654 -0.42055,-0.29274 -0.69479,-0.51114 -0.54843,-0.4368 -1.23848,-1.04488 -1.9303,-1.71299 -1.39863,-1.35073 -3.26619,-3.06539 -4.17071,-3.82794 -0.86624,-0.73037 -2.04052,-2.02306 -2.55264,-2.80264 -0.54697,-0.83255 -1.49663,-2.12493 -2.13031,-2.8985 -7.12887,-8.70207 -7.82842,-10.60024 -7.9028,-21.46386 -0.0334,-4.88923 0.25366,-7.22864 1.14267,-9.46582 l 1.25895,-3.16788 -6.65294,-9.26994 c -11.92684,-16.61809 -20.46667,-30.76556 -28.14752,-46.62925 -2.79005,-5.76236 -5.23357,-11.46387 -6.97848,-16.1535 -1.7449,-4.68963 -2.78321,-8.40511 -2.78321,-10.03818 0,-1.4599 -0.65531,-3.87777 -1.69256,-6.66725 -1.03737,-2.78948 -2.46181,-5.92942 -4.0218,-8.73943 -7.93362,-14.2909 -18.59508,-26.1561 -28.92093,-32.1448 l -3.81357,-2.21086 -5.21451,-10.70237 c -9.80175,-20.11704 -14.10567,-36.09806 -15.44956,-57.36217 -1.09122,-17.2653 3.20711,-41.20987 10.87683,-60.53413 l 1.9385,-4.88594 -1.14372,-7.00501 c -1.52426,-9.33429 -1.50378,-30.78734 0.0418,-40.80666 6.21614,-40.29652 24.80585,-68.03732 57.15704,-85.323 2.53614,-1.35501 3.94652,-2.15867 5.49612,-3.66977 1.54959,-1.51115 3.22763,-3.71041 6.36114,-7.88342 25.6583,-34.1696 56.05376,-62.18987 88.6081,-81.69 29.9982,-17.96893 61.76999,-28.92679 95.2275,-32.84468 6.16772,-0.72227 17.19855,-1.14283 27.14453,-1.21512 z m 41.7768,501.91088 0,11.36144 c 0,3.48542 0.0608,6.26346 0.17342,8.17725 0.0563,0.95687 0.12505,1.69638 0.20821,2.20981 0.0418,0.25674 0.0855,0.45566 0.14177,0.61117 0.0282,0.0777 0.0574,0.14532 0.10819,0.21218 0.0507,0.0669 0.14709,0.15102 0.2826,0.15102 -0.0162,0 -4.7e-4,-0.008 0.0491,0.0541 0.0496,0.0623 0.11246,0.1809 0.16527,0.33771 0.10557,0.31358 0.17756,0.77728 0.17756,1.28653 0,1.16237 0.59643,3.06911 1.3395,4.39215 0.35374,0.62982 0.67703,1.29714 0.90901,1.85889 0.23199,0.5617 0.36331,1.05627 0.36331,1.17532 0,0.40232 0.16397,0.93508 0.41209,1.5824 0.24823,0.64731 0.58813,1.39095 0.96413,2.12414 0.37605,0.73314 0.78726,1.4551 1.18049,2.05885 0.39319,0.6037 0.75764,1.08464 1.09065,1.36097 0.257,0.21333 0.49776,0.48982 0.66716,0.7509 0.16951,0.26108 0.25617,0.51938 0.25617,0.61827 0,0.19505 0.0781,0.28625 0.17343,0.43873 0.0953,0.15248 0.22665,0.33374 0.39271,0.54582 0.33222,0.42416 0.80157,0.96852 1.36619,1.59462 1.12904,1.25232 2.63998,2.82824 4.1809,4.37481 1.54098,1.54662 3.11079,3.06309 4.35846,4.19626 0.62391,0.56661 1.16691,1.03679 1.58955,1.37021 0.21135,0.16669 0.39178,0.29916 0.54379,0.39481 0.152,0.0957 0.2429,0.17347 0.43873,0.17347 0.0724,0 0.38634,0.11524 0.71313,0.33871 0.32679,0.22346 0.69255,0.53855 1.00289,0.88149 0.33604,0.37129 0.70201,0.70717 1.03146,0.95598 0.16476,0.12442 0.31974,0.22712 0.46318,0.30302 0.1435,0.0758 0.26724,0.13263 0.42751,0.13263 0.16485,0 0.67029,0.12918 1.25085,0.34586 0.58045,0.21667 1.26449,0.51364 1.91598,0.82538 0.6515,0.31175 1.27196,0.63917 1.72015,0.91414 0.22409,0.13749 0.40556,0.26254 0.52033,0.35808 0.0574,0.0475 0.098,0.0895 0.11528,0.11121 0.0172,0.0219 -0.005,0.0225 -0.005,-0.0501 0,0.18235 0.11523,0.31754 0.23261,0.40399 0.11737,0.0865 0.2569,0.1471 0.4193,0.19793 0.32481,0.1017 0.74327,0.15817 1.20389,0.15817 0.40912,0 0.83062,0.0709 1.1631,0.17954 0.33243,0.1087 0.56729,0.27742 0.61211,0.34993 0.10212,0.16522 0.25705,0.26165 0.44281,0.35098 0.18575,0.0893 0.40932,0.16423 0.66215,0.22649 0.50559,0.12459 1.12846,0.19897 1.76705,0.19897 0.59717,0 1.14079,0.0731 1.51402,0.18158 0.18664,0.0543 0.33045,0.1193 0.40813,0.17243 0.0776,0.0531 0.0633,0.0705 0.0633,0.0376 0,0.13816 0.0882,0.23438 0.15603,0.28464 0.0678,0.0501 0.13602,0.0802 0.21532,0.10812 0.15838,0.0559 0.362,0.0993 0.62542,0.14083 0.52665,0.0831 1.28607,0.15191 2.26999,0.20811 1.96796,0.11247 4.82691,0.17244 8.42115,0.17244 3.59418,0 6.45413,-0.06 8.42208,-0.17244 0.98398,-0.0562 1.7434,-0.12505 2.27004,-0.20811 0.26333,-0.0418 0.46695,-0.0849 0.62543,-0.14083 0.0792,-0.0277 0.14741,-0.0579 0.21527,-0.10812 0.0678,-0.0502 0.15509,-0.14648 0.15509,-0.28464 0,0.0136 -0.007,0 0.053,-0.0501 0.0603,-0.0491 0.17583,-0.11173 0.32851,-0.16428 0.30543,-0.1051 0.75769,-0.1775 1.25493,-0.1775 1.13693,0 3.10473,-0.5686 4.52373,-1.27227 1.92241,-0.95321 3.7218,-1.78231 5.12163,-2.37206 0.69992,-0.29488 1.29965,-0.53015 1.76199,-0.68968 0.46229,-0.15953 0.81452,-0.23668 0.89476,-0.23668 0.32042,0 0.5922,-0.18429 0.93555,-0.43362 0.3433,-0.24932 0.71852,-0.5852 1.05596,-0.95801 0.31086,-0.34351 0.67412,-0.65897 0.99678,-0.88249 0.32261,-0.22357 0.63389,-0.33771 0.69475,-0.33771 0.19541,0 0.28646,-0.078 0.43873,-0.17347 0.15227,-0.0954 0.33306,-0.22744 0.54477,-0.39381 0.42348,-0.3327 0.96753,-0.80162 1.59264,-1.36714 1.25018,-1.13092 2.8226,-2.64452 4.36666,-4.18806 1.544,-1.54353 3.05782,-3.11684 4.1891,-4.36665 0.56562,-0.62491 1.03533,-1.16822 1.36813,-1.59159 0.16642,-0.21167 0.29936,-0.39256 0.39485,-0.54478 0.0955,-0.15227 0.17243,-0.24326 0.17243,-0.43873 0,-0.10918 0.0887,-0.37135 0.2581,-0.63661 0.16946,-0.26526 0.41001,-0.54441 0.66623,-0.75706 0.33301,-0.27633 0.69741,-0.75727 1.09064,-1.36097 0.39324,-0.60375 0.80439,-1.32571 1.18039,-2.05885 0.37605,-0.73319 0.71595,-1.47683 0.96418,-2.12414 0.24818,-0.64732 0.41116,-1.18008 0.41116,-1.5824 0,-0.11905 0.13221,-0.61362 0.36419,-1.17532 0.23198,-0.56175 0.55527,-1.22907 0.90907,-1.85889 0.74312,-1.32305 1.3396,-3.22978 1.3396,-4.39215 0,-0.50925 0.0719,-0.97295 0.1775,-1.28653 0.0528,-0.15681 0.11586,-0.27539 0.16528,-0.33771 0.0496,-0.0623 0.065,-0.0541 0.0491,-0.0541 0.13545,0 0.23183,-0.0841 0.2826,-0.15102 0.0507,-0.0669 0.08,-0.13445 0.10813,-0.21218 0.0563,-0.15551 0.10024,-0.35443 0.14182,-0.61117 0.0832,-0.51343 0.15185,-1.25294 0.20811,-2.20981 0.11257,-1.91379 0.17348,-4.69183 0.17348,-8.17725 l 0,-11.36144 -50.86631,0 -50.86526,0 z m 0.52236,0.52237 50.3429,0 50.34394,0 0,10.83907 c 0,3.47936 -0.061,6.2515 -0.17243,8.14664 -0.0557,0.94757 -0.12537,1.67721 -0.20305,2.15679 -0.0387,0.23982 -0.0809,0.41941 -0.11627,0.51725 -0.0178,0.0491 -0.0361,0.0764 -0.0334,0.0734 0,-0.005 0.0496,-0.0551 0.13367,-0.0551 -0.19558,0 -0.35244,0.11738 -0.45911,0.25199 -0.10672,0.13462 -0.18445,0.3012 -0.25,0.49583 -0.13106,0.38932 -0.20498,0.89559 -0.20498,1.45285 0,0.9705 -0.57993,2.90148 -1.27326,4.13603 -0.36451,0.64899 -0.69417,1.33151 -0.93561,1.91604 -0.24138,0.58452 -0.404,1.03297 -0.404,1.37429 0,0.23893 -0.13753,0.77258 -0.37646,1.39565 -0.23893,0.62313 -0.57178,1.35282 -0.94068,2.07212 -0.36894,0.71929 -0.77373,1.42929 -1.15395,2.01293 -0.38013,0.58369 -0.74693,1.04483 -0.98654,1.2437 -0.30391,0.25225 -0.57251,0.56468 -0.77232,0.87741 -0.19975,0.31269 -0.34074,0.61535 -0.34074,0.91822 0,-0.077 -0.0141,0.0355 -0.0928,0.1612 -0.0787,0.12552 -0.20247,0.29675 -0.36221,0.4999 -0.31942,0.40635 -0.7837,0.94428 -1.34467,1.56407 -1.12199,1.23952 -2.63256,2.80844 -4.17181,4.34722 -1.53926,1.53883 -3.10833,3.0481 -4.34832,4.16978 -0.61989,0.56081 -1.15751,1.02529 -1.56396,1.34467 -0.2032,0.15963 -0.37438,0.28348 -0.49991,0.36215 -0.12557,0.0787 -0.23814,0.0929 -0.16125,0.0929 -0.32564,0 -0.63217,0.18069 -0.9927,0.43053 -0.36054,0.24985 -0.74641,0.5863 -1.08553,0.96105 -0.31263,0.34544 -0.66789,0.66257 -0.9764,0.88661 -0.30851,0.22404 -0.60992,0.33363 -0.62846,0.33363 -0.26082,0 -0.58526,0.0997 -1.06515,0.26526 -0.4798,0.16559 -1.08772,0.4041 -1.79459,0.7019 -1.41373,0.5956 -3.22064,1.42909 -5.15119,2.38637 -1.34222,0.6656 -3.3412,1.21716 -4.29118,1.21716 -0.54618,0 -1.0429,0.0745 -1.42527,0.20608 -0.19108,0.0658 -0.35427,0.1448 -0.48663,0.25199 -0.13232,0.10724 -0.24687,0.2628 -0.24687,0.45607 0,-0.0869 0.0549,-0.1331 0.0571,-0.13466 0,0 -0.0277,0.0167 -0.0785,0.0345 -0.1017,0.0361 -0.28579,0.0784 -0.53255,0.11733 -0.49358,0.0778 -1.24422,0.1473 -2.21906,0.20299 -1.94983,0.11142 -4.80419,0.17144 -8.39252,0.17144 -3.58833,0 -6.4417,-0.06 -8.39153,-0.17144 -0.97489,-0.0557 -1.72542,-0.12516 -2.219,-0.20299 -0.24677,-0.0387 -0.43085,-0.0814 -0.53255,-0.11733 -0.0507,-0.0178 -0.0808,-0.036 -0.0786,-0.0345 0,0 0.0562,0.0475 0.0562,0.13466 0,-0.21234 -0.14021,-0.36633 -0.29075,-0.46934 -0.15055,-0.10296 -0.33646,-0.1787 -0.55705,-0.2428 -0.44124,-0.12824 -1.02138,-0.202 -1.65997,-0.202 -0.59717,0 -1.18744,-0.0715 -1.64258,-0.18366 -0.22754,-0.056 -0.42123,-0.12296 -0.56013,-0.18977 -0.1389,-0.0668 -0.21657,-0.14073 -0.22545,-0.15504 -0.17714,-0.28662 -0.5021,-0.44438 -0.89377,-0.57236 -0.39162,-0.12803 -0.85777,-0.20508 -1.32529,-0.20508 -0.41601,0 -0.79483,-0.0555 -1.04776,-0.13466 -0.12646,-0.0397 -0.22075,-0.0866 -0.26526,-0.11942 -0.0444,-0.0329 -0.0204,-0.0287 -0.0204,0.0162 0,-0.13482 -0.0576,-0.20926 -0.11022,-0.27545 -0.0527,-0.0662 -0.11445,-0.12489 -0.18873,-0.18674 -0.14856,-0.1237 -0.34601,-0.25685 -0.58254,-0.40196 -0.47316,-0.29028 -1.10349,-0.62313 -1.76711,-0.94067 -0.66356,-0.31755 -1.3582,-0.61953 -1.95886,-0.84373 -0.60062,-0.2242 -1.07858,-0.3785 -1.43342,-0.3785 0.01,0 -0.0763,-0.0157 -0.18367,-0.0725 -0.10734,-0.0568 -0.2441,-0.14584 -0.39276,-0.2581 -0.29739,-0.22461 -0.64502,-0.54273 -0.95901,-0.88969 -0.3397,-0.37526 -0.72922,-0.71214 -1.09472,-0.96209 -0.36561,-0.2499 -0.68007,-0.42949 -1.00801,-0.42949 0.0776,0 -0.035,-0.0141 -0.16021,-0.0929 -0.12526,-0.0788 -0.29608,-0.2032 -0.49891,-0.3632 -0.40562,-0.31995 -0.94323,-0.7848 -1.56198,-1.34671 -1.23748,-1.12382 -2.80384,-2.63606 -4.34011,-4.17788 -1.53628,-1.54186 -3.04283,-3.11449 -4.16257,-4.35646 -0.55992,-0.62099 -1.02384,-1.15997 -1.34264,-1.5671 -0.15942,-0.20356 -0.2826,-0.37516 -0.36121,-0.50095 -0.0786,-0.12578 -0.0938,-0.23757 -0.0938,-0.1612 0,-0.29926 -0.14104,-0.59414 -0.34079,-0.90186 -0.19975,-0.30778 -0.46814,-0.61764 -0.77127,-0.86927 -0.23966,-0.19886 -0.60641,-0.66001 -0.98659,-1.2437 -0.38018,-0.58363 -0.78501,-1.29363 -1.1539,-2.01293 -0.3689,-0.71929 -0.70175,-1.44899 -0.94068,-2.07211 -0.23888,-0.62308 -0.37746,-1.15673 -0.37746,-1.39566 0,-0.34131 -0.16162,-0.78976 -0.403,-1.37429 -0.24144,-0.58452 -0.5711,-1.26705 -0.93556,-1.91603 -0.69344,-1.23456 -1.27326,-3.16553 -1.27326,-4.13603 0,-0.55726 -0.074,-1.06354 -0.20508,-1.45286 -0.0656,-0.19463 -0.14329,-0.36121 -0.24995,-0.49582 -0.10672,-0.13462 -0.26359,-0.25199 -0.45911,-0.25199 0.0842,0 0.13143,0.0522 0.13362,0.055 0,0.005 -0.0162,-0.0245 -0.0334,-0.0734 -0.0355,-0.0978 -0.0775,-0.27743 -0.11628,-0.51725 -0.0777,-0.47958 -0.14731,-1.20922 -0.20304,-2.15679 -0.11148,-1.89514 -0.17244,-4.66727 -0.17244,-8.14664 l 0,-10.83907 z m -157.23177,3.39537 0,11.36143 c 0,3.48543 0.0608,6.26347 0.17342,8.17725 0.0563,0.95687 0.12505,1.69638 0.20821,2.20982 0.0418,0.25674 0.0855,0.45566 0.14177,0.61116 0.0282,0.0777 0.0574,0.14532 0.10819,0.21219 0.0507,0.0669 0.14709,0.15101 0.2826,0.15101 -0.0162,0 -4.7e-4,-0.008 0.0491,0.0541 0.0496,0.0623 0.11246,0.18089 0.16527,0.33771 0.10557,0.31357 0.17756,0.77728 0.17756,1.28653 0,1.16236 0.59643,3.0691 1.3395,4.39215 0.35374,0.62981 0.67703,1.29713 0.90901,1.85888 0.23199,0.5617 0.36331,1.05628 0.36331,1.17532 0,0.40233 0.16397,0.93509 0.41209,1.5824 0.24823,0.64732 0.58813,1.39096 0.96413,2.12415 0.37605,0.73314 0.78726,1.4551 1.18049,2.05884 0.39319,0.6037 0.75764,1.08464 1.09065,1.36097 0.257,0.21334 0.49776,0.48983 0.66716,0.7509 0.16951,0.26108 0.25617,0.51939 0.25617,0.61827 0,0.19505 0.0781,0.28626 0.17343,0.43874 0.0953,0.15248 0.22665,0.33374 0.39271,0.54582 0.33222,0.42416 0.80157,0.96851 1.36619,1.59462 1.12904,1.25232 2.63998,2.82824 4.1809,4.3748 1.54098,1.54662 3.11079,3.0631 4.35846,4.19626 0.62391,0.56661 1.16691,1.03679 1.58955,1.37022 0.21135,0.16669 0.39178,0.29916 0.54379,0.3948 0.152,0.0957 0.2429,0.17348 0.43873,0.17348 0.0724,0 0.38634,0.11523 0.71313,0.3387 0.32679,0.22347 0.69255,0.53856 1.00289,0.88149 0.3374,0.37281 0.71261,0.70869 1.05596,0.95802 0.34335,0.24932 0.61514,0.43361 0.93556,0.43361 0.0802,0 0.43246,0.0772 0.89475,0.23669 0.4623,0.15953 1.06202,0.3948 1.76194,0.68967 1.39983,0.58975 3.19928,1.41885 5.12163,2.37206 1.41906,0.70368 3.38686,1.27227 4.52378,1.27227 0.49719,0 0.94945,0.0724 1.25488,0.1775 0.15274,0.0525 0.26823,0.11539 0.32851,0.16429 0.0603,0.0486 0.0522,0.0637 0.0522,0.0501 0,0.13817 0.0883,0.23439 0.15614,0.28464 0.0678,0.0502 0.13602,0.0802 0.21526,0.10813 0.15844,0.056 0.36205,0.0993 0.62538,0.14083 0.5267,0.0831 1.28611,0.1519 2.27004,0.20811 1.96795,0.11246 4.82691,0.17243 8.42109,0.17243 3.59424,0 6.45418,-0.06 8.42214,-0.17243 0.98398,-0.0562 1.74339,-0.12505 2.27004,-0.20811 0.26332,-0.0418 0.46694,-0.0849 0.62543,-0.14083 0.0792,-0.0277 0.14741,-0.0579 0.21526,-0.10813 0.0678,-0.0502 0.15504,-0.14647 0.15504,-0.28464 0,0.0329 -0.0136,0.0151 0.0643,-0.0376 0.0777,-0.0531 0.22149,-0.11815 0.40813,-0.17243 0.37323,-0.10844 0.91685,-0.18157 1.51402,-0.18157 0.63854,0 1.26141,-0.0744 1.76706,-0.19897 0.25287,-0.0623 0.47634,-0.13717 0.66214,-0.2265 0.18576,-0.0893 0.34069,-0.18575 0.44276,-0.35098 0.0449,-0.0725 0.27973,-0.24122 0.61221,-0.34993 0.33238,-0.10865 0.75393,-0.17953 1.1631,-0.17953 0.46052,0 0.87898,-0.0565 1.20379,-0.15818 0.16245,-0.0507 0.30198,-0.11142 0.41935,-0.19792 0.11738,-0.0865 0.23157,-0.22164 0.23157,-0.404 0,0.0726 -0.0204,0.0717 -0.005,0.0502 0.0172,-0.0219 0.0579,-0.0634 0.11529,-0.11121 0.11482,-0.0955 0.29623,-0.2206 0.52033,-0.35808 0.44819,-0.27498 1.06865,-0.60239 1.72014,-0.91414 0.6515,-0.31175 1.33553,-0.60871 1.91604,-0.82539 0.5805,-0.21668 1.08594,-0.34586 1.2508,-0.34586 0.16026,0 0.28401,-0.0568 0.4275,-0.13263 0.14345,-0.0759 0.29848,-0.17859 0.46318,-0.30302 0.32946,-0.2488 0.69543,-0.58468 1.03152,-0.95598 0.31081,-0.34351 0.67411,-0.65896 0.99672,-0.88248 0.32261,-0.22357 0.63389,-0.33771 0.69485,-0.33771 0.19531,0 0.28636,-0.078 0.43863,-0.17348 0.15232,-0.0954 0.33306,-0.22744 0.54483,-0.39381 0.42348,-0.33269 0.96747,-0.80162 1.59258,-1.36713 1.25023,-1.13092 2.82265,-2.64452 4.36666,-4.18806 1.544,-1.54354 3.05787,-3.11685 4.1891,-4.36666 0.56567,-0.6249 1.03533,-1.16821 1.36818,-1.59159 0.16643,-0.21166 0.29942,-0.39256 0.3948,-0.54477 0.0955,-0.15227 0.17244,-0.24327 0.17244,-0.43874 0,-0.10917 0.0887,-0.37135 0.2581,-0.6366 0.16945,-0.26526 0.41005,-0.54441 0.66622,-0.75707 0.33301,-0.27633 0.69741,-0.75727 1.09065,-1.36097 0.39323,-0.60374 0.80444,-1.3257 1.18044,-2.05884 0.37599,-0.73319 0.71595,-1.47683 0.96412,-2.12415 0.24818,-0.64731 0.41116,-1.18007 0.41116,-1.5824 0,-0.11904 0.13226,-0.61362 0.36424,-1.17532 0.23198,-0.56175 0.55528,-1.22907 0.90902,-1.85888 0.74312,-1.32305 1.33856,-3.22979 1.33856,-4.39215 0,-0.50925 0.0729,-0.97296 0.17854,-1.28653 0.0528,-0.15682 0.11587,-0.27539 0.16528,-0.33771 0.0496,-0.0623 0.0639,-0.0541 0.0481,-0.0541 0.13545,0 0.23282,-0.0841 0.28364,-0.15101 0.0507,-0.0669 0.08,-0.13446 0.10813,-0.21219 0.0563,-0.1555 0.10024,-0.35442 0.14182,-0.61116 0.0832,-0.51344 0.15186,-1.25295 0.20817,-2.20982 0.11251,-1.91378 0.17238,-4.69182 0.17238,-8.17725 l 0,-11.36143 -50.86527,0 -50.86526,0 z m 0.52236,0.52236 50.3429,0 50.3429,0 0,10.83907 c 0,3.47937 -0.0599,6.25151 -0.17139,8.14664 -0.0557,0.94757 -0.12532,1.67721 -0.20305,2.1568 -0.0386,0.23981 -0.0808,0.4194 -0.11627,0.51724 -0.0178,0.0491 -0.036,0.0764 -0.0334,0.0734 0,-0.005 0.0486,-0.0551 0.13268,-0.0551 -0.19558,0 -0.3514,0.11737 -0.45812,0.25199 -0.10672,0.13461 -0.18439,0.30119 -0.24995,0.49583 -0.13111,0.38931 -0.20607,0.89559 -0.20607,1.45285 0,0.9705 -0.57883,2.90147 -1.27227,4.13603 -0.36451,0.64899 -0.69417,1.33151 -0.93556,1.91603 -0.24144,0.58453 -0.404,1.03298 -0.404,1.37429 0,0.23893 -0.13759,0.77258 -0.37652,1.39566 -0.23887,0.62313 -0.57172,1.35282 -0.94062,2.07211 -0.36889,0.7193 -0.77373,1.4293 -1.1539,2.01294 -0.38018,0.58369 -0.74698,1.04483 -0.98659,1.24369 -0.30397,0.25225 -0.57257,0.56468 -0.77232,0.87742 -0.19975,0.31269 -0.34074,0.61535 -0.34074,0.91821 0,-0.077 -0.0141,0.0355 -0.0929,0.1612 -0.0787,0.12553 -0.20247,0.29676 -0.36216,0.49991 -0.31942,0.40634 -0.7837,0.94428 -1.34467,1.56406 -1.12199,1.23952 -2.63251,2.80844 -4.17181,4.34723 -1.53931,1.53883 -3.10833,3.0481 -4.34827,4.16977 -0.61989,0.56081 -1.15761,1.0253 -1.56401,1.34467 -0.20326,0.15964 -0.37438,0.28349 -0.49991,0.36216 -0.12557,0.0787 -0.23814,0.0929 -0.16125,0.0929 -0.32559,0 -0.63217,0.18069 -0.9927,0.43054 -0.36054,0.24984 -0.74636,0.5863 -1.08553,0.96104 -0.31399,0.34696 -0.66168,0.66508 -0.95901,0.8897 -0.14872,0.11225 -0.28542,0.20132 -0.39276,0.2581 -0.1074,0.0568 -0.19344,0.0725 -0.18367,0.0725 -0.35489,0 -0.8328,0.1543 -1.43347,0.3785 -0.60067,0.2242 -1.29531,0.52618 -1.95887,0.84373 -0.66351,0.31754 -1.29395,0.65039 -1.76705,0.94067 -0.23658,0.14511 -0.43398,0.27827 -0.58255,0.40196 -0.0743,0.0618 -0.13607,0.12051 -0.18878,0.18675 -0.0527,0.0662 -0.11116,0.14062 -0.11116,0.27544 0,-0.0449 0.0251,-0.0491 -0.0193,-0.0162 -0.0444,0.0329 -0.1388,0.0798 -0.26531,0.11941 -0.25293,0.0791 -0.63175,0.13466 -1.04776,0.13466 -0.46752,0 -0.93368,0.077 -1.32529,0.20508 -0.39162,0.12798 -0.71664,0.28574 -0.89377,0.57236 -0.009,0.0141 -0.0866,0.0883 -0.22545,0.15504 -0.1389,0.0668 -0.33254,0.13372 -0.56013,0.18977 -0.45509,0.11215 -1.04541,0.18367 -1.64258,0.18367 -0.63859,0 -1.21873,0.0738 -1.65992,0.20199 -0.22065,0.0641 -0.40655,0.13984 -0.55705,0.2428 -0.15054,0.10301 -0.29179,0.257 -0.29179,0.46934 0,-0.0869 0.055,-0.13309 0.0571,-0.13466 0,0 -0.0277,0.0167 -0.0786,0.0345 -0.1017,0.036 -0.28573,0.0784 -0.53255,0.11733 -0.49358,0.0778 -1.24412,0.1473 -2.21901,0.20299 -1.94983,0.11142 -4.80424,0.17144 -8.39252,0.17144 -3.58833,0 -6.44175,-0.06 -8.39152,-0.17144 -0.97489,-0.0557 -1.72543,-0.12516 -2.21901,-0.20299 -0.24682,-0.0387 -0.4309,-0.0814 -0.5326,-0.11733 -0.0507,-0.0178 -0.0807,-0.036 -0.0786,-0.0345 0,0 0.0562,0.0475 0.0562,0.13466 0,-0.19327 -0.11356,-0.34883 -0.24588,-0.45607 -0.13237,-0.10719 -0.29555,-0.18623 -0.48669,-0.25199 -0.38226,-0.13158 -0.87903,-0.20607 -1.42527,-0.20607 -0.94997,0 -2.94885,-0.55157 -4.29112,-1.21717 -1.93056,-0.95728 -3.73747,-1.79077 -5.15125,-2.38637 -0.70686,-0.2978 -1.31474,-0.53631 -1.79458,-0.7019 -0.4799,-0.16559 -0.80429,-0.26526 -1.06515,-0.26526 -0.0188,0 -0.321,-0.10959 -0.62951,-0.33363 -0.30845,-0.22404 -0.66272,-0.54117 -0.9753,-0.88661 -0.3397,-0.37527 -0.72922,-0.71214 -1.09472,-0.96209 -0.36555,-0.2499 -0.68007,-0.42949 -1.00801,-0.42949 0.0776,0 -0.035,-0.0141 -0.16021,-0.0929 -0.12526,-0.0788 -0.29608,-0.20319 -0.49891,-0.3632 -0.40562,-0.31994 -0.94323,-0.7848 -1.56198,-1.3467 -1.23748,-1.12382 -2.80384,-2.63606 -4.34011,-4.17788 -1.53628,-1.54186 -3.04283,-3.11449 -4.16257,-4.35647 -0.55992,-0.62098 -1.02384,-1.15996 -1.34264,-1.56709 -0.15942,-0.20357 -0.2826,-0.37516 -0.36121,-0.50095 -0.0786,-0.12578 -0.0938,-0.23757 -0.0938,-0.1612 0,-0.29926 -0.14104,-0.59414 -0.34079,-0.90186 -0.19975,-0.30778 -0.46814,-0.61765 -0.77122,-0.86927 -0.23971,-0.19886 -0.60646,-0.66001 -0.98664,-1.2437 -0.38013,-0.58364 -0.78501,-1.29363 -1.1539,-2.01293 -0.3689,-0.7193 -0.7017,-1.44899 -0.94068,-2.07212 -0.23888,-0.62307 -0.37746,-1.15672 -0.37746,-1.39565 0,-0.34131 -0.16162,-0.78976 -0.40295,-1.37429 -0.24144,-0.58453 -0.57115,-1.26705 -0.93561,-1.91603 -0.69344,-1.23456 -1.27326,-3.16553 -1.27326,-4.13603 0,-0.55726 -0.074,-1.06354 -0.20508,-1.45286 -0.0656,-0.19463 -0.14329,-0.36121 -0.2499,-0.49583 -0.10672,-0.13461 -0.26359,-0.25198 -0.45916,-0.25198 0.0843,0 0.13148,0.0522 0.13362,0.055 0,0.005 -0.0162,-0.0245 -0.034,-0.0734 -0.0355,-0.0978 -0.0775,-0.27743 -0.11628,-0.51725 -0.0777,-0.47958 -0.14736,-1.20922 -0.2031,-2.15679 -0.11142,-1.89514 -0.17238,-4.66728 -0.17238,-8.14664 l 0,-10.83907 z m -66.65859,30.13188 c -0.17165,0.0219 -0.32993,0.0909 -0.45812,0.20712 -0.25632,0.2324 -0.4006,0.58562 -0.52033,1.04776 -0.23934,0.92432 -0.35823,2.32854 -0.54273,4.19323 -0.37757,3.81587 0.76881,9.64389 2.50364,12.65099 1.07038,1.85534 4.36864,5.57092 7.60594,8.87613 1.61865,1.6526 3.21787,3.19347 4.50744,4.3258 0.6448,0.56619 1.21193,1.03026 1.67115,1.35799 0.22963,0.16382 0.4311,0.29446 0.60907,0.38765 0.17797,0.0932 0.32371,0.15817 0.49996,0.15817 5.2e-4,0 0.23997,0.0952 0.47336,0.31321 0.2334,0.21793 0.49181,0.53052 0.704,0.87026 0.24284,0.3889 0.56556,0.73476 0.90186,0.99166 0.33635,0.25695 0.67954,0.4367 1.02942,0.4367 0.15938,0 0.45963,0.1 0.7591,0.28155 0.29942,0.18163 0.60521,0.43748 0.82941,0.70911 0.28579,0.34612 0.81045,0.75456 1.45693,1.18446 0.64648,0.42991 1.40803,0.8689 2.13945,1.21821 1.40918,0.67301 4.05564,2.24309 5.83377,3.46474 0.96089,0.66017 1.70991,1.16143 2.29861,1.51507 0.58871,0.35359 1.00869,0.56379 1.36714,0.6295 0.17922,0.0329 0.35573,0.0277 0.51113,-0.0491 0.15535,-0.0769 0.26327,-0.22028 0.32444,-0.37339 0.12229,-0.30626 0.12208,-0.68299 0.10301,-1.17945 -0.0178,-0.46051 -0.19484,-1.61113 -0.46726,-3.18214 -0.27241,-1.57096 -0.64005,-3.53291 -1.03757,-5.51032 l -1.63443,-8.13134 -1.14883,3.36476 c -0.2254,0.66043 -0.4893,1.26157 -0.72536,1.68646 -0.11805,0.21244 -0.23015,0.38159 -0.31728,0.48465 -0.0757,0.0894 -0.10609,0.0856 -0.0612,0.0867 -0.023,-0.0131 -0.0527,-0.0308 -0.0949,-0.0612 -0.0998,-0.0724 -0.24086,-0.18915 -0.41319,-0.34487 -0.34465,-0.31143 -0.8175,-0.7778 -1.3967,-1.37627 -1.15839,-1.197 -2.74513,-2.92498 -4.62679,-5.03492 -3.76338,-4.21987 -8.70808,-9.96943 -13.79267,-16.08005 -2.36574,-2.84313 -4.12501,-4.9702 -5.45015,-6.451 -1.32518,-1.4808 -2.1862,-2.32087 -2.90565,-2.59652 -0.1799,-0.0689 -0.36398,-0.0934 -0.53563,-0.0714 z m 0.34888,0.55909 c 0.49301,0.18888 1.39012,0.99103 2.70267,2.45777 1.31254,1.4667 3.07166,3.59299 5.43787,6.43669 5.08814,6.1148 10.03598,11.86718 13.80494,16.09332 1.88444,2.11307 3.47378,3.84403 4.64106,5.05022 0.58369,0.60307 1.06165,1.07498 1.42224,1.40078 0.18027,0.16292 0.32982,0.28907 0.45603,0.38054 0.0631,0.046 0.11977,0.0832 0.17755,0.11325 0.0577,0.0303 0.1121,0.0602 0.21526,0.0602 0.23831,0 0.34612,-0.14005 0.4693,-0.28568 0.12317,-0.14564 0.24587,-0.33588 0.37443,-0.56724 0.2571,-0.46276 0.52994,-1.08589 0.76416,-1.77217 l 0.52341,-1.53346 1.25284,6.23474 c 0.39663,1.97297 0.76313,3.93184 1.03455,5.49705 0.27142,1.56521 0.44678,2.76524 0.4601,3.11277 0.0183,0.47729 -0.008,0.82095 -0.0653,0.96518 -0.0287,0.0721 -0.0486,0.0877 -0.0714,0.0989 -0.023,0.0115 -0.0747,0.024 -0.18465,0.005 -0.21997,-0.0402 -0.62324,-0.22216 -1.19267,-0.5642 -0.56943,-0.34199 -1.3139,-0.83939 -2.27207,-1.49767 -1.80493,-1.2401 -4.44031,-2.80646 -5.90419,-3.50559 -0.70503,-0.33672 -1.45097,-0.76568 -2.07619,-1.18143 -0.62516,-0.41575 -1.13546,-0.83156 -1.34263,-1.0825 -0.26865,-0.32543 -0.61263,-0.61138 -0.96209,-0.8233 -0.34947,-0.21192 -0.6971,-0.35709 -1.02943,-0.35709 -0.14177,0 -0.42975,-0.11309 -0.71313,-0.32956 -0.28338,-0.21647 -0.56969,-0.52356 -0.7754,-0.85292 -0.23637,-0.3785 -0.51714,-0.71992 -0.7907,-0.97535 -0.27356,-0.25544 -0.50957,-0.45399 -0.82941,-0.45399 -0.005,0 -0.11273,-0.0235 -0.25711,-0.099 -0.14443,-0.0756 -0.33155,-0.19484 -0.5489,-0.34993 -0.43471,-0.31023 -0.99239,-0.76501 -1.62936,-1.3243 -1.27384,-1.11854 -2.86695,-2.65356 -4.47886,-4.29927 -3.22372,-3.29142 -6.5411,-7.06253 -7.52733,-8.77207 -1.63589,-2.83555 -2.79716,-8.68191 -2.43531,-12.33883 0.18476,-1.86766 0.31148,-3.27481 0.52847,-4.11258 0.1085,-0.41888 0.24619,-0.68477 0.36524,-0.79274 0.11905,-0.10797 0.20957,-0.12913 0.45602,-0.0345 z"
     style="color:#000000;font-style:normal;font-variant:normal;font-weight:normal;font-stretch:normal;font-size:medium;line-height:normal;font-family:sans-serif;text-indent:0;text-align:start;text-decoration:none;text-decoration-line:none;text-decoration-style:solid;text-decoration-color:#000000;letter-spacing:normal;word-spacing:normal;text-transform:none;direction:ltr;block-progression:tb;writing-mode:lr-tb;baseline-shift:baseline;text-anchor:start;white-space:normal;clip-rule:nonzero;display:inline;overflow:visible;visibility:visible;opacity:1;isolation:auto;mix-blend-mode:normal;color-interpolation:sRGB;color-interpolation-filters:linearRGB;solid-color:#000000;solid-opacity:1;fill:#000000;fill-opacity:1;fill-rule:nonzero;stroke:#000000;stroke-width:2.61182356;stroke-linecap:butt;stroke-linejoin:miter;stroke-miterlimit:4;stroke-dasharray:none;stroke-dashoffset:0;stroke-opacity:1;color-rendering:auto;image-rendering:auto;shape-rendering:auto;text-rendering:auto;enable-background:accumulate" />
  <path
     inkscape:export-ydpi="90"
     inkscape:export-xdpi="90"
     sodipodi:nodetypes="sssscccsscssssccsssssscsssssccccssscssscsscscccccccsssssccsssccscscscssssscssscssscssscsscsssssscscsscsscsscscssscsscssscscsscsssssscccssssscsssssscscssccsssssssccscscsssssscsccccssssscssssccscsccccccsscsccccssssccccccccssscccssssscscccssssccsssscsscsssscccccccccssccsscscssssscscsscsssssssssssssscccscssscssscscssscsssssscccscc"
     style="fill:#000000"
     d="m 771.58521,1079.9221 c -5.46618,-2.3162 -8.23487,-3.2534 -15.20426,-5.1467 -3.33456,-0.9059 -7.8889,-2.6091 -10.12081,-3.7848 -3.30892,-1.7432 -4.05794,-2.4365 -4.05794,-3.7563 0,-2.4354 2.1464,-2.3721 7.98356,0.2355 2.79157,1.247 7.27936,2.7843 9.97273,3.4163 2.69352,0.6319 7.22989,2.1645 10.08101,3.4057 4.52425,1.9696 5.66285,2.2133 8.94993,1.9153 3.83515,-0.3478 5.41541,-1.0899 12.65324,-5.9426 5.57724,-3.7393 9.68512,-4.9778 16.45501,-4.9608 4.24495,0.01 6.45001,0.3413 8.50959,1.2761 3.45215,1.567 4.62172,3.9826 3.07281,6.3467 -1.3476,2.0566 -3.69401,1.804 -4.22165,-0.4547 -0.37218,-1.5929 -0.54148,-1.6368 -7.01092,-1.818 -6.11642,-0.1714 -6.94954,-0.041 -10.76536,1.6896 -2.27485,1.0314 -5.15553,2.7614 -6.40153,3.8444 -2.90147,2.5219 -4.69214,3.4478 -8.76496,4.5324 -4.65182,1.2389 -6.66381,1.0946 -11.13045,-0.7981 z m 3.91774,-111.85033 c -1.07738,-0.23407 3.03624,2.81894 9.14138,2.95392 24.584,0.54347 37.3239,-7.42191 43.55472,-19.65083 1.71085,-3.35771 2.05488,-4.92481 2.50871,-11.42673 l 0.52602,-7.53532 -0.18534,7.50899 c -0.17018,6.89574 -0.34852,10.96313 -2.18317,14.56092 -4.49573,8.8161 -14.12568,16.24972 -28.37302,20.42566 -11.98524,3.5129 -21.133,-5.99879 -24.9893,-6.83661 z m -25.05298,-9.70585 c -1.95557,-4.20456 -3.33477,-9.6698 -3.33639,-13.22047 0,-4.32764 4.01317,-12.44503 6.12687,-12.38631 0.39328,0.011 1.21919,0.3341 0.55846,0.7182 -1.88235,1.09419 -2.9113,8.31077 -2.91182,11.57387 0,3.50037 -1.51674,9.9254 0.22561,13.34068 0.71579,1.40307 2.22861,2.66865 2.08486,2.81235 -0.1437,0.14371 -1.95474,-1.13353 -2.74759,-2.83832 z m 87.83343,-1.65218 c -0.0172,-0.2813 -0.33812,-1.96775 0.5639,-3.74771 2.61135,-5.15334 3.67227,-11.43937 2.92519,-17.33164 -0.34743,-2.74028 -0.94836,-6.15837 -1.33543,-7.59586 -0.38707,-1.4375 0.46945,-2.74211 0.62652,-2.89913 0.44396,-0.44401 2.78437,5.23431 3.46621,10.6121 0.75805,5.97878 -2.46353,12.18202 -5.32431,17.72415 -1.06447,2.06224 -0.90473,3.51933 -0.92208,3.23809 z M 711.1868,932.0798 c -4.489,-0.24729 -9.33727,-0.77414 -10.77378,-1.17083 -1.4365,-0.39673 -5.02457,-1.01897 -7.97363,-1.38291 -2.94896,-0.36388 -6.76875,-1.09513 -8.48843,-1.62497 -1.71957,-0.52994 -5.59155,-1.71283 -8.60429,-2.6288 -3.01273,-0.91591 -5.8042,-1.92068 -6.20308,-2.23274 -0.39898,-0.31211 -1.54149,-0.7625 -2.53895,-1.00096 -1.71006,-0.4087 -4.79296,-1.71283 -12.67361,-5.36118 -1.86281,-0.86232 -3.69401,-1.56793 -4.06948,-1.56793 -0.37538,0 -2.60279,-1.17532 -4.94978,-2.61183 -2.34693,-1.4365 -4.58395,-2.61182 -4.97103,-2.61182 -0.38723,0 -1.48388,-0.55402 -2.43709,-1.23121 -0.95331,-0.6772 -2.76164,-1.71357 -4.0186,-2.30306 -1.25686,-0.58949 -3.65222,-2.01878 -5.3229,-3.17624 -1.67068,-1.1574 -5.56397,-3.6999 -8.65166,-5.65 -3.0877,-1.95014 -5.61412,-3.79383 -5.61412,-4.09716 0,-0.30329 -0.7345,-0.83077 -1.63239,-1.17214 -0.89774,-0.34136 -1.63239,-0.91492 -1.63239,-1.27457 0,-0.35965 -1.53319,-1.86588 -3.40723,-3.34726 -1.87403,-1.48127 -4.06734,-3.61842 -4.87408,-4.74908 -0.80663,-1.13071 -1.84013,-2.48478 -2.29663,-3.00908 -0.45639,-0.5243 -2.12148,-2.70778 -3.70006,-4.85214 -2.60002,-3.53186 -2.92514,-4.39507 -3.45283,-9.16761 -0.32037,-2.89771 -0.70869,-5.70934 -0.86295,-6.24805 -0.44986,-1.57148 0.6913,-8.60899 1.80446,-11.12715 l 1.02206,-2.31225 -7.31765,-10.24629 c -4.02472,-5.63532 -9.94139,-14.43811 -13.14813,-19.56162 -11.78915,-18.836 -23.52308,-44.30363 -24.14474,-52.4043 -0.49641,-6.46865 -7.44746,-20.04115 -15.32885,-29.93066 -5.20599,-6.53238 -14.06221,-14.70112 -18.88066,-17.41496 l -4.05768,-2.28535 -5.4993,-11.1003 c -11.47442,-23.16071 -15.90778,-42.81228 -15.16686,-67.22949 0.52775,-17.39333 3.77571,-32.99109 10.27053,-49.32314 l 2.46681,-6.20308 -0.92777,-4.57069 c -1.35799,-6.68987 -1.89806,-28.63577 -0.92625,-37.63606 4.50309,-41.70408 24.29648,-73.04262 57.06019,-90.34235 l 5.98719,-3.16135 7.94793,-10.49948 c 45.85548,-60.5768 105.33949,-99.75379 168.02368,-110.66275 15.1364,-2.63418 20.19738,-3.00375 41.13622,-3.00375 l 20.56811,0 3.0447,1.78988 c 7.8023,4.58657 8.94414,14.41533 3.45795,29.76507 l -2.20855,6.17926 6.01492,-0.42426 c 3.30819,-0.23329 13.94829,-0.99704 23.64468,-1.69717 30.96343,-2.23567 49.86912,-2.83142 77.56682,-2.4443 26.93678,0.37652 38.79284,1.19126 54.65675,3.75596 20.39087,3.29659 35.58233,8.66326 43.74803,15.45479 4.6031,3.82851 12.0313,12.1164 13.3823,14.93111 0.6747,1.40579 1.3522,4.21946 1.5055,6.25266 0.3477,4.6095 -1.5781,9.18238 -5.8419,13.87218 l -2.9128,3.20392 5.322,10.56806 c 5.7904,11.49793 10.0685,23.48087 11.6873,32.73529 1.2702,7.26145 1.289,18.74276 0.041,24.72582 -1.3746,6.58749 -5.9909,15.44424 -10.8213,20.76128 -2.2171,2.44049 -3.9222,4.5334 -3.789,4.65088 0.1332,0.11743 1.136,0.66758 2.2285,1.22254 3.9428,2.0029 9.8967,6.98736 12.8759,10.77947 15.4782,19.70135 16.0536,52.11632 1.7041,96.01533 -13.8472,42.36237 -28.8965,80.91429 -70.30308,143.00799 -6.4031,9.60169 -22.98572,28.95254 -22.98572,29.13703 0,0.18445 0.51416,0.34053 1.14267,0.34685 2.29005,0.023 18.98932,4.51987 27.26091,7.34085 4.66863,1.59222 9.81069,3.28599 11.42673,3.76395 4.65113,1.37559 6.66642,2.52553 9.51983,5.43233 1.46508,1.49245 4.81239,4.60736 7.43846,6.92196 3.8966,3.4345 5.2059,5.11557 7.1195,9.14138 2.2765,4.78909 2.3512,5.19011 2.5642,13.74786 l 0.2193,8.81485 -2.1772,3.26478 c -1.1974,1.79563 -3.0048,4.90709 -4.0165,6.91444 -3.2804,6.50908 -12.06858,16.77976 -22.8446,26.69842 -5.64885,5.19941 -10.7755,9.72554 -11.39256,10.05793 -0.61707,0.33243 -2.36219,1.73278 -3.87809,3.11193 -1.51585,1.3791 -4.30727,3.53761 -6.20308,4.79661 -1.89582,1.25896 -4.18153,2.85306 -5.07932,3.54232 -5.09332,3.91021 -17.93853,11.68801 -24.30887,14.71903 -15.54609,7.39695 -34.60771,13.04711 -47.43683,14.06107 -4.44537,0.35139 -8.85282,0.45978 -9.79433,0.24091 -0.94151,-0.21887 -5.70658,-2.5938 -10.58907,-5.27771 -13.56017,-7.45388 -23.76827,-16.60676 -32.7567,-29.37037 -6.81535,-9.6778 -12.52171,-25.0125 -14.81782,-39.81986 -0.73418,-4.73446 -1.33485,-9.47586 -1.33485,-10.53641 0,-1.67403 -0.27994,-1.97104 -2.12211,-2.2516 -1.16717,-0.17777 -2.22543,-0.23021 -2.35173,-0.11654 -0.6563,0.59063 -0.79781,19.88637 -0.19213,26.2005 8.2087,39.3698 3.5888,36.14931 -0.65452,0 -0.38593,-4.01484 -0.5442,-11.63374 -0.35166,-16.93083 0.32434,-8.9212 0.26468,-9.6311 -0.80914,-9.6311 -1.18755,0 -5.27192,1.26966 -5.27192,1.63882 0,0.11283 -0.46391,2.50818 -1.03093,5.323 -0.56703,2.81481 -1.41781,7.21255 -1.8907,9.77271 -0.4729,2.56021 -1.29134,5.6454 -1.81888,6.85604 -0.52743,1.21068 -1.76376,4.40494 -2.74722,7.09836 -0.98345,2.69347 -2.11072,5.48483 -2.50495,6.20308 -0.39428,0.71825 -1.93682,3.65655 -3.42801,6.52956 -1.49104,2.873 -3.85631,6.83974 -5.25599,8.8149 -4.63692,6.54346 -7.71365,10.4473 -8.23382,10.4473 -0.28244,0 -0.51364,0.37547 -0.51364,0.83437 0,0.45879 -0.51417,1.28726 -1.14268,1.84086 -0.6284,0.55366 -3.19948,2.85614 -5.71336,5.11667 -2.51388,2.26053 -5.45218,4.90182 -6.52956,5.86966 -2.71306,2.43693 -9.59249,7.06331 -19.16566,12.88861 -5.17669,3.15007 -13.27193,3.863 -32.09137,2.82631 z m 19.58867,-4.89466 c 2.77156,-0.39998 4.71852,-1.02551 7.33693,-2.35754 0.6236,-0.31718 1.90632,-0.57674 2.85049,-0.57674 1.56171,0 4.51182,-1.69795 14.46167,-8.32362 1.88542,-1.2555 3.42801,-2.55024 3.42801,-2.87719 0,-0.32694 0.56494,-0.80533 1.2554,-1.06311 2.4547,-0.91644 11.56296,-10.40404 17.15634,-17.87093 5.14158,-6.86372 8.23884,-12.39013 13.16641,-23.49257 7.13707,-16.08074 11.20802,-45.55637 8.31396,-60.19778 -1.40777,-7.12208 -6.67248,-13.74728 -13.12091,-16.51164 -0.53867,-0.23093 -2.44859,-1.08443 -4.24422,-1.89675 -7.43053,-3.36132 -14.50977,-3.25099 -35.60579,0.55485 -8.78774,1.58538 -16.71227,2.9043 -17.61011,2.93099 -0.89779,0.0266 -2.89724,0.40008 -4.44318,0.82983 -2.11156,0.58698 -2.99681,0.59534 -3.55861,0.0334 -1.00921,-1.00916 -3.56645,-0.94125 -10.2301,0.27179 -5.25049,0.95582 -17.92479,4.7916 -20.44687,6.18808 -0.6236,0.34529 -1.52086,0.62778 -1.99397,0.62778 -1.01877,0 -13.45643,4.04431 -16.90597,5.49726 -1.32215,0.5569 -2.58826,1.31083 -2.81361,1.67538 -0.22529,0.36456 -1.13087,0.66283 -2.01236,0.66283 -0.88149,0 -2.11291,0.28051 -2.73651,0.62329 -0.6236,0.34283 -4.51286,1.67679 -8.64284,2.96442 -4.12992,1.28763 -8.09665,2.58267 -8.8149,2.87786 -5.24976,2.15773 -9.99738,4.41038 -11.10025,5.2668 -1.19752,0.92991 -3.17942,1.93525 -7.50899,3.80903 -0.89779,0.38853 -2.58733,0.89382 -3.7545,1.12287 -1.16717,0.22901 -2.1221,0.67187 -2.1221,0.98409 0,1.34482 3.51133,17.29241 7.41914,33.69628 2.32144,9.74461 4.30303,18.41257 4.40348,19.2622 0.21872,1.84948 -1.24072,6.44185 -2.0472,6.44185 -0.99447,0 -19.41556,-20.96202 -27.49942,-31.29267 l -1.72662,-2.20647 -0.79133,3.5362 c -1.41639,6.32907 -0.16899,13.58832 3.14328,18.29217 3.06304,4.34973 11.80486,12.97668 13.14954,12.97668 0.35113,0 0.95289,0.58766 1.3373,1.30592 0.38441,0.71825 1.05586,1.31787 1.49214,1.33244 0.43628,0.0141 1.81051,0.89612 3.0539,1.95887 1.24338,1.0628 2.74999,1.93233 3.34804,1.93233 0.59811,0 1.41995,0.40066 1.82629,0.89032 0.90975,1.09618 8.20008,5.63924 9.04934,5.63924 0.33912,0 1.1432,0.58192 1.78686,1.29312 0.64366,0.7113 2.14786,1.47662 3.34271,1.70071 1.19486,0.22415 2.51723,0.82299 2.93862,1.33078 0.42139,0.50773 1.82754,1.3898 3.12478,1.96012 1.29724,0.57037 4.70928,2.14404 7.58228,3.49707 2.87301,1.35308 6.39897,2.85091 7.83547,3.32846 1.43651,0.47765 2.89098,1.10224 3.23214,1.38808 0.34115,0.28584 1.09404,0.51965 1.67297,0.51965 0.57899,0 2.29872,0.60202 3.82162,1.33777 7.57555,3.66016 25.42114,7.16408 41.55088,8.1584 3.95038,0.24353 7.30699,0.55919 7.45905,0.70143 0.29895,0.27962 4.48351,-0.0542 9.19132,-0.73377 z m -21.23553,-55.0866 c -6.00542,-2.72805 -12.15564,-8.36133 -12.66238,-16.34275 -0.25753,-4.05648 -0.0823,-7.06368 1.55732,-10.24692 4.66817,-9.06266 17.95075,-11.70044 26.02479,-5.64059 5.89483,4.42422 9.24616,16.60388 6.6942,23.28613 -1.34216,3.51441 -4.96889,7.32893 -8.48759,8.92705 -3.5013,1.59018 -9.64578,1.59823 -13.12634,0.0172 z m 7.42949,-11.85057 c 3.2583,-3.22257 4.0454,-3.63362 1.03558,-7.27189 -4.37282,0.45801 -4.26181,0.41449 -4.37282,0.45801 -1.75028,0.67171 -1.67961,3.92431 -0.78046,6.09505 1.1983,2.89286 1.21288,2.04229 4.1177,0.71883 z m 182.76689,59.74457 c 9.33335,-2.47026 22.3757,-7.15906 30.19069,-10.85374 6.47623,-3.06179 22.56511,-12.8485 26.11824,-15.88752 0.89779,-0.76787 2.92049,-2.21764 4.49479,-3.22168 1.57436,-1.00399 4.07189,-2.92545 5.55013,-4.26981 1.47824,-1.34446 3.17608,-2.70998 3.77298,-3.03452 0.59686,-0.32449 5.11025,-4.26291 10.02967,-8.75201 9.26539,-8.45484 15.77458,-16.04203 20.93058,-24.39678 4.6539,-7.54128 5.2889,-12.5786 2.6142,-20.737 -3.3061,-10.08445 -6.4223,-15.22703 -12.46579,-20.57244 -4.80487,-4.24991 -6.70926,-5.10481 -14.38551,-6.4582 -2.88789,-0.50915 -6.70768,-1.48326 -8.48843,-2.16463 -5.43891,-2.08121 -7.48877,-2.58216 -16.29683,-3.98241 -4.66864,-0.74217 -9.42346,-1.50582 -10.56619,-1.697 -1.55315,-0.25977 -2.24883,-0.0536 -2.75521,0.8164 -0.60594,1.04107 -0.67955,1.04865 -0.69731,0.0719 -0.0319,-1.74329 -3.6122,-2.56199 -22.64863,-5.17893 -10.27115,-1.41196 -14.62418,-1.4141 -30.9136,-0.0152 -4.12992,0.35468 -12.79793,0.66763 -19.2622,0.69537 -6.46426,0.0277 -13.66307,0.35954 -15.99741,0.73727 -4.75478,0.76939 -10.76693,3.19708 -14.69151,5.93233 -1.4365,1.00122 -3.68565,2.54972 -4.99809,3.44113 -1.31244,0.89147 -3.7219,3.61822 -5.35434,6.05943 -2.67984,4.00748 -3.0737,5.1045 -4.05549,11.29463 -0.84738,5.34269 -0.98967,8.94586 -0.6446,16.32379 1.58449,33.87744 11.6887,57.62179 31.59231,74.24014 7.37218,6.15544 18.96774,12.61025 23.34474,12.99518 1.7658,0.15525 5.5612,0.50074 8.4342,0.76772 5.83398,0.54216 7.98435,0.2721 17.14861,-2.15345 z M 871.4347,868.16373 c -3.5187,-1.59813 -9.23488,-5.41264 -10.57705,-8.92701 -2.55995,-6.70319 0.79844,-18.86071 6.72968,-23.31324 8.03491,-6.03169 21.33202,-3.37395 25.98932,5.66766 1.63975,3.18324 1.81495,5.14571 1.55732,9.20218 -0.50674,7.98142 -4.5674,14.65944 -10.57287,17.38749 -3.48057,1.58114 -9.62499,1.5731 -13.12634,-0.0172 z m 8.46633,-13.08028 c 2.31418,-1.05449 1.30289,-0.81896 0.29018,-3.26373 -0.43555,-1.05157 -0.20618,-1.04337 -0.76709,-1.25864 -1.78116,-2.82432 -3.32815,-1.50274 -3.32815,-1.50274 -2.83325,1.02452 -4.1295,3.84769 -3.00887,6.55307 1.19825,2.89285 3.90912,0.79551 6.81393,-0.52796 z M 814.35382,831.2047 c 0,-2.06637 -0.26802,-2.93825 -0.90327,-2.93825 -1.78518,0 -2.30373,4.97223 -0.56588,5.42638 0.62846,0.16428 1.21612,0.33274 1.30592,0.37438 0.0898,0.0418 0.16323,-1.24642 0.16323,-2.86251 z m -3.01221,-0.33797 c 0.23073,-1.44277 0.25209,-3.29038 0.0475,-4.10579 -0.20461,-0.81536 0.37501,-3.82193 1.28805,-6.68125 0.91304,-2.85937 1.67104,-6.22721 1.68442,-7.48418 0.0386,-3.62098 1.18885,-7.72452 3.44928,-12.30435 1.61896,-3.28024 2.92466,-4.85559 5.7633,-6.95362 7.70378,-5.69377 14.76923,-8.27896 29.56124,-10.81629 8.10642,-1.39053 9.50056,-1.42966 37.54497,-1.05324 26.02128,0.34925 36.05481,0.82455 44.89291,2.12665 l 2.70783,0.39893 0.46491,-6.82073 c 0.62333,-9.14525 -0.0428,-50.336 -0.87403,-54.03231 -0.36335,-1.61609 -1.26715,-7.49269 -2.00849,-13.05917 -0.74139,-5.56642 -2.07379,-13.9406 -2.96097,-18.60924 l -1.61301,-8.48842 -3.42635,-3.10954 c -3.51123,-3.18668 -9.04584,-6.35832 -11.09549,-6.35832 -0.63666,0 -2.721,1.96722 -4.66994,4.40745 -15.19251,19.02233 -39.78215,30.42487 -72.27846,33.51654 -9.88946,0.94088 -31.65593,0.41585 -42.44213,-1.02363 -18.88004,-2.51973 -54.69373,-10.63284 -65.15512,-14.75999 -10.14762,-4.0034 -22.59463,-11.61426 -34.74713,-21.24661 -7.85939,-6.22946 -29.13003,-27.69577 -37.70371,-38.0504 -6.75882,-8.16284 -7.18653,-8.84604 -6.34427,-10.13147 0.98288,-1.50013 3.01451,-6.90723 2.59526,-6.90723 -0.14229,0 -2.40643,0.76469 -5.03147,1.6993 -11.26819,4.01182 -21.47206,10.78401 -27.47999,18.23805 -2.53268,3.14234 -3.57548,5.27103 -5.39331,11.00941 -11.89884,37.56059 -12.20291,93.13575 -0.86869,158.73938 1.99293,11.53517 2.77297,13.66338 4.17599,11.39324 0.23251,-0.37626 3.40854,-2.15893 7.05783,-3.96156 3.64924,-1.80268 7.24165,-3.84549 7.98304,-4.53961 0.74139,-0.69417 1.68828,-1.26209 2.10424,-1.26209 0.68895,0 6.68167,-2.52396 9.43479,-3.97368 0.6236,-0.32836 1.4458,-0.59701 1.82718,-0.59701 0.38133,0 1.90966,-0.58766 3.39631,-1.30591 1.48655,-0.71825 3.11659,-1.30591 3.62213,-1.30591 0.50565,0 1.6992,-0.4121 2.65247,-0.91581 0.95326,-0.50367 4.37757,-1.72036 7.6097,-2.70376 3.23213,-0.98341 6.33487,-2.00797 6.89495,-2.27689 0.56019,-0.26891 2.76384,-0.84805 4.89717,-1.28705 2.13339,-0.439 4.33944,-1.04076 4.90245,-1.33731 0.563,-0.29649 3.79513,-1.00565 7.18251,-1.57592 3.38738,-0.57026 6.74655,-1.3126 7.4648,-1.64968 0.71825,-0.33703 6.15419,-1.50368 12.07969,-2.59249 5.92565,-1.08887 17.64365,-3.28589 26.04019,-4.88234 13.3471,-2.5377 16.73024,-2.94546 26.91061,-3.24352 7.15123,-0.20936 11.79432,-0.0982 12.03314,0.28814 0.21375,0.34601 1.67914,0.62908 3.25637,0.62908 3.85087,0 9.54804,1.24219 10.81875,2.3589 0.56697,0.49823 1.37899,0.90588 1.80456,0.90588 0.42547,0 1.4307,0.36728 2.23389,0.8162 5.05937,2.82782 9.91767,9.42241 10.88869,14.7802 0.30036,1.65705 0.43639,9.69749 0.30235,17.86759 l -0.24368,14.85464 3.17174,0 3.1717,0 z m 17.12933,99.93928 c -285.75522,482.58209 -142.87761,241.29109 0,0 z"
     id="path3492"
     inkscape:connector-curvature="0" />
  <path
     inkscape:export-ydpi="90"
     inkscape:export-xdpi="90"
     inkscape:connector-curvature="0"
     inkscape:original-d="m 1013.4944,1422.0522 c -35.29159,-79.9792 -136.05851,453.7959 -165.85257,-10.061 -45.51035,61.5822 -94.78334,-125.5132 -136.954,-80.4889"
     inkscape:path-effect="#path-effect4268;#path-effect4270"
     id="path3502"
     d="m 1013.4944,1422.0522 c -0.1708,2.8153 -73.20723,0.4493 -163.60154,-5.1817 -1.22622,-0.076 -2.4492,-0.153 -3.66876,-0.2297 -76.70237,-44.9691 -136.94613,-82.7396 -135.53627,-85.1385 1.41014,-2.3994 63.30505,31.6132 138.37173,75.8393 1.20374,0.07 2.4106,0.1411 3.62045,0.2125 88.68323,5.233 160.98519,11.682 160.81439,14.4981 z"
     style="fill:#000000;fill-rule:evenodd;stroke:#000000;stroke-width:8.03459835;stroke-linecap:butt;stroke-linejoin:miter;stroke-miterlimit:4;stroke-dasharray:none;stroke-opacity:1"
     sodipodi:nodetypes="ccc" />
  <path
     style="fill:#000000;fill-opacity:1;stroke:#000000;stroke-width:5.22364712;stroke-linecap:round;stroke-linejoin:miter;stroke-miterlimit:4;stroke-dasharray:none;stroke-opacity:1"
     d="m 683.64355,1635.906 174.99944,0 c 0,0 -7.3946,535.7727 -43.21409,385.8299 -18.89189,-79.0827 -14.66288,-129.2229 -18.67824,-164.2387 -10.0362,-87.5195 -9.55599,-63.8804 -28.82691,-61.4907 -25.20007,3.1249 2.66913,24.0225 -42.49108,300.7669 C 700.61351,2248.8669 683.6435,1635.906 683.6435,1635.906 Z"
     id="path3504"
     inkscape:connector-curvature="0"
     sodipodi:nodetypes="ccsssscc"
     inkscape:export-xdpi="90"
     inkscape:export-ydpi="90" />
  <text
     xml:space="preserve"
     style="font-style:normal;font-weight:normal;font-size:40px;line-height:125%;font-family:sans-serif;letter-spacing:0px;word-spacing:0px;fill:#000000;fill-opacity:1;stroke:none;stroke-width:1px;stroke-linecap:butt;stroke-linejoin:miter;stroke-opacity:1"
     x="480.04031"
     y="1602.6106"
     id="text3562"
     sodipodi:linespacing="125%"
     transform="matrix(0.98312677,-0.18292557,0.18292557,0.98312677,0,0)"><tspan
       sodipodi:role="line"
       id="tspan3564"
       x="480.04031"
       y="1602.6106"
       style="font-style:normal;font-variant:normal;font-weight:normal;font-stretch:normal;font-size:34.375px;line-height:125%;font-family:'Courier 10 Pitch';-inkscape-font-specification:'Courier 10 Pitch, Normal';text-align:start;writing-mode:lr-tb;text-anchor:start">L<tspan
   style="font-style:normal;font-variant:normal;font-weight:normal;font-stretch:normal;font-size:31.25px;line-height:125%;font-family:'Courier 10 Pitch';-inkscape-font-specification:'Courier 10 Pitch, Normal';text-align:start;writing-mode:lr-tb;text-anchor:start"
   id="tspan3723">i</tspan><tspan
   style="font-style:normal;font-variant:normal;font-weight:normal;font-stretch:normal;font-size:28.125px;line-height:125%;font-family:'Courier 10 Pitch';-inkscape-font-specification:'Courier 10 Pitch, Normal';text-align:start;writing-mode:lr-tb;text-anchor:start"
   id="tspan3725">n</tspan><tspan
   style="font-style:normal;font-variant:normal;font-weight:normal;font-stretch:normal;font-size:27.5px;line-height:125%;font-family:'Courier 10 Pitch';-inkscape-font-specification:'Courier 10 Pitch, Normal';text-align:start;writing-mode:lr-tb;text-anchor:start"
   id="tspan3727">u</tspan></tspan></text>
  <text
     xml:space="preserve"
     style="font-style:normal;font-weight:normal;font-size:40px;line-height:1000%;font-family:sans-serif;letter-spacing:0px;word-spacing:0px;fill:#000000;fill-opacity:1;stroke:none;stroke-width:1px;stroke-linecap:butt;stroke-linejoin:miter;stroke-opacity:1"
     x="991.8125"
     y="1460.696"
     id="text3679"
     sodipodi:linespacing="1000%"><tspan
       sodipodi:role="line"
       id="tspan3681"
       x="991.8125"
       y="1460.696" /></text>
  <text
     xml:space="preserve"
     style="font-style:normal;font-weight:normal;font-size:40px;line-height:1000%;font-family:sans-serif;letter-spacing:0px;word-spacing:0px;fill:#000000;fill-opacity:1;stroke:none;stroke-width:1px;stroke-linecap:butt;stroke-linejoin:miter;stroke-opacity:1"
     x="1027.0658"
     y="1571.2574"
     id="text3695"
     sodipodi:linespacing="1000%"><tspan
       sodipodi:role="line"
       id="tspan3697"
       x="1027.0658"
       y="1571.2574" /></text>
  <text
     xml:space="preserve"
     style="font-style:normal;font-weight:normal;font-size:40px;line-height:1000%;font-family:sans-serif;letter-spacing:0px;word-spacing:0px;fill:#000000;fill-opacity:1;stroke:none;stroke-width:1px;stroke-linecap:butt;stroke-linejoin:miter;stroke-opacity:1"
     x="1034.7305"
     y="1555.9282"
     id="text3699"
     sodipodi:linespacing="1000%"><tspan
       sodipodi:role="line"
       id="tspan3701"
       x="1034.7305"
       y="1555.9282" /></text>
  <text
     xml:space="preserve"
     style="font-style:normal;font-weight:normal;font-size:40px;line-height:1000%;font-family:sans-serif;letter-spacing:0px;word-spacing:0px;fill:#000000;fill-opacity:1;stroke:none;stroke-width:1px;stroke-linecap:butt;stroke-linejoin:miter;stroke-opacity:1"
     x="502.68439"
     y="1553.5328"
     id="text3715"
     sodipodi:linespacing="1000%"
     transform="matrix(0.98601154,-0.16667708,0.16667708,0.98601154,0,0)"><tspan
       sodipodi:role="line"
       id="tspan3717"
       x="502.68439"
       y="1553.5328"
       style="font-style:normal;font-variant:normal;font-weight:normal;font-stretch:normal;font-size:40px;line-height:1000%;font-family:'Courier 10 Pitch';-inkscape-font-specification:'Courier 10 Pitch, Normal';text-align:start;writing-mode:lr-tb;text-anchor:start">G<tspan
   style="font-style:normal;font-variant:normal;font-weight:normal;font-stretch:normal;font-size:36.25px;line-height:1000%;font-family:'Courier 10 Pitch';-inkscape-font-specification:'Courier 10 Pitch, Normal';text-align:start;writing-mode:lr-tb;text-anchor:start"
   id="tspan3719">N</tspan><tspan
   style="font-style:normal;font-variant:normal;font-weight:normal;font-stretch:normal;font-size:32.5px;line-height:1000%;font-family:'Courier 10 Pitch';-inkscape-font-specification:'Courier 10 Pitch, Normal';text-align:start;writing-mode:lr-tb;text-anchor:start"
   id="tspan3721">U</tspan></tspan></text>
</svg>
