<?xml version="1.0" encoding="UTF-8" standalone="no"?>
<!-- Created with Inkscape (http://www.inkscape.org/) -->

<svg
   xmlns:dc="http://purl.org/dc/elements/1.1/"
   xmlns:cc="http://creativecommons.org/ns#"
   xmlns:rdf="http://www.w3.org/1999/02/22-rdf-syntax-ns#"
   xmlns:svg="http://www.w3.org/2000/svg"
   xmlns="http://www.w3.org/2000/svg"
   xmlns:sodipodi="http://sodipodi.sourceforge.net/DTD/sodipodi-0.dtd"
   xmlns:inkscape="http://www.inkscape.org/namespaces/inkscape"
   id="svg4136"
   version="1.1"
   inkscape:version="0.48.4 r9939"
   width="1438.75"
   height="2560"
   viewBox="0 0 1438.75 2560"
   sodipodi:docname="3alaa.svg">
  <metadata
     id="metadata4142">
    <rdf:RDF>
      <cc:Work
         rdf:about="">
        <dc:format>image/svg+xml</dc:format>
        <dc:type
           rdf:resource="http://purl.org/dc/dcmitype/StillImage" />
        <dc:title></dc:title>
      </cc:Work>
    </rdf:RDF>
  </metadata>
  <defs
     id="defs4140">
    <inkscape:path-effect
       fuse_tolerance="0"
       vertical_pattern="false"
       prop_units="false"
       tang_offset="0"
       normal_offset="0"
       spacing="0"
       scale_y_rel="false"
       prop_scale="1"
       copytype="single_stretched"
       pattern="m 66.46595,-1496.0478 c 0,-2.76 2.24,-5 5,-5 2.76,0 5,2.24 5,5 0,2.76 -2.24,5 -5,5 -2.76,0 -5,-2.24 -5,-5 z"
       is_visible="true"
       id="path-effect4276"
       effect="skeletal" />
    <inkscape:path-effect
       is_visible="true"
       id="path-effect4274"
       effect="spiro" />
    <inkscape:path-effect
       effect="skeletal"
       id="path-effect4270"
       is_visible="true"
       pattern="m -339.53405,-1500.0478 c 0,-2.76 2.24,-5 5,-5 2.76,0 5,2.24 5,5 0,2.76 -2.24,5 -5,5 -2.76,0 -5,-2.24 -5,-5 z"
       copytype="single_stretched"
       prop_scale="1"
       scale_y_rel="false"
       spacing="0"
       normal_offset="0"
       tang_offset="0"
       prop_units="false"
       vertical_pattern="false"
       fuse_tolerance="0" />
    <inkscape:path-effect
       effect="spiro"
       id="path-effect4268"
       is_visible="true" />
  </defs>
  <sodipodi:namedview
     pagecolor="#ffffff"
     bordercolor="#666666"
     borderopacity="1"
     objecttolerance="10"
     gridtolerance="10"
     guidetolerance="10"
     inkscape:pageopacity="0"
     inkscape:pageshadow="2"
     inkscape:window-width="1305"
     inkscape:window-height="744"
     id="namedview4138"
     showgrid="false"
     showguides="true"
     inkscape:zoom="0.78281252"
     inkscape:cx="675.65578"
     inkscape:cy="1187.5148"
     inkscape:window-x="61"
     inkscape:window-y="24"
     inkscape:window-maximized="1"
     inkscape:current-layer="svg4136" />
  <path
     sodipodi:type="arc"
     style="fill:#ffffff;fill-opacity:1;stroke:none"
     id="path3015"
     sodipodi:cx="807.54132"
     sodipodi:cy="1323.3959"
     sodipodi:rx="15.807576"
     sodipodi:ry="16.259222"
     d="m 823.3489,1323.3959 a 15.807576,16.259222 0 1 1 -31.61516,0 15.807576,16.259222 0 1 1 31.61516,0 z"
     transform="translate(2.7098702,-5.8713855)"
     inkscape:export-filename="/home/rana/Desktop/character/3ALA2/a3edbelwesh2.png"
     inkscape:export-xdpi="90"
     inkscape:export-ydpi="90" />
  <path
     sodipodi:type="arc"
     style="fill:#ffffff;fill-opacity:1;stroke:none"
     id="path3000"
     sodipodi:cx="611.5274"
     sodipodi:cy="1080.4109"
     sodipodi:rx="35.228313"
     sodipodi:ry="34.325024"
     d="m 646.75572,1080.4109 a 35.228313,34.325024 0 1 1 -70.45663,0 35.228313,34.325024 0 1 1 70.45663,0 z"
     transform="matrix(0.50247791,0,0,0.38043515,459.13959,909.17599)"
     inkscape:export-filename="/home/rana/Desktop/character/3ALA2/a3edbelwesh2.png"
     inkscape:export-xdpi="90"
     inkscape:export-ydpi="90" />
  <rect
     style="fill:#f8e1c7;fill-opacity:1;fill-rule:evenodd;stroke:#000000;stroke-width:1.4326427;stroke-linecap:round;stroke-linejoin:miter;stroke-miterlimit:4;stroke-opacity:1;stroke-dasharray:none"
     id="rect4280"
     width="11.632335"
     height="24.400589"
     x="775.98236"
     y="1418.5635"
     inkscape:export-xdpi="90"
     inkscape:export-ydpi="90"
     inkscape:export-filename="/home/rana/Desktop/character/3ALA2/a3edbelwesh2.png" />
  <path
     inkscape:export-ydpi="90"
     inkscape:export-xdpi="90"
     sodipodi:nodetypes="cccsssscc"
     inkscape:connector-curvature="0"
     id="path4282"
     d="m 757.78966,1440.5499 0,0.4016 0,0.4015 c 0,0 5.39226,29.7846 2.20339,64.0592 -3.18893,34.2747 -14.95904,73.0395 3.09707,91.0001 8.23725,8.1937 26.07125,8.1507 34.34863,0 18.24531,-17.9662 6.24144,-56.9318 3.39496,-91.4059 -2.84653,-34.474 3.46443,-64.4565 3.46443,-64.4565 z"
     style="font-size:medium;font-style:normal;font-variant:normal;font-weight:normal;font-stretch:normal;text-indent:0;text-align:start;text-decoration:none;line-height:normal;letter-spacing:normal;word-spacing:normal;text-transform:none;direction:ltr;block-progression:tb;writing-mode:lr-tb;text-anchor:start;baseline-shift:baseline;color:#000000;fill:#aa0000;fill-opacity:1;fill-rule:nonzero;stroke:none;visibility:visible;display:inline;overflow:visible;enable-background:accumulate;font-family:sans-serif"
     inkscape:export-filename="/home/rana/Desktop/character/3ALA2/a3edbelwesh2.png" />
  <path
     style="font-size:medium;font-style:normal;font-variant:normal;font-weight:normal;font-stretch:normal;text-indent:0;text-align:start;text-decoration:none;line-height:normal;letter-spacing:normal;word-spacing:normal;text-transform:none;direction:ltr;block-progression:tb;writing-mode:lr-tb;text-anchor:start;baseline-shift:baseline;color:#000000;fill:#000000;fill-opacity:1;fill-rule:nonzero;stroke:none;visibility:visible;display:inline;overflow:visible;enable-background:accumulate;font-family:sans-serif"
     d="m 757.8249,1439.1922 0,0.4015 0,0.4016 c 0,0 5.55595,29.7845 2.27022,64.0592 -3.28574,34.2747 -15.41317,73.0395 3.19113,91 8.48742,8.1937 26.86281,8.1508 35.39149,0 18.79936,-17.9661 6.43095,-56.9317 3.49805,-91.4058 -2.93296,-34.4741 3.56966,-64.4565 3.56966,-64.4565 z m 1.60628,1.6062 44.70798,0 c 0,0 -6.69169,29.3686 -3.8534,63.134 2.83836,33.7655 15.20671,71.928 -3.21425,89.5158 -7.75809,7.4072 -24.45994,7.4478 -32.17897,0 -18.32044,-17.6767 -6.19301,-55.8391 -2.97829,-89.5825 3.21479,-33.7432 -2.48307,-63.0673 -2.48307,-63.0673 z"
     id="rect4211"
     inkscape:connector-curvature="0"
     sodipodi:nodetypes="cccssssccccssssc"
     inkscape:export-xdpi="90"
     inkscape:export-ydpi="90"
     inkscape:export-filename="/home/rana/Desktop/character/3ALA2/a3edbelwesh2.png" />
  <path
     inkscape:connector-curvature="0"
     id="path4207"
     d="m 785.80886,1425.6312 c -1.55689,-0.4079 -3.64329,-1.1238 -4.85404,-2.419 l -0.96582,-0.7329 -0.62966,0.6579 c -0.61376,0.6414 -0.65789,0.6554 -1.75577,0.5541 -2.5229,-0.2327 -6.65144,-1.5702 -8.90924,-2.8863 -1.80558,-1.0524 -3.96137,-3.1843 -4.75418,-4.7014 -1.12875,-2.1599 -1.28869,-2.9542 -1.34996,-6.7048 -0.0418,-2.5613 -0.14835,-4.3964 -0.44033,-5.7041 -0.91148,-4.0822 -2.84362,-7.4239 -6.02072,-10.4133 -1.23529,-1.1622 -1.74884,-1.857 -3.30634,-4.473 -8.49888,-14.2748 -12.64707,-27.5444 -12.23385,-39.1349 0.1066,-2.9909 0.4386,-5.4518 0.99999,-7.4124 0.30028,-1.0488 0.38563,-4.1059 0.14972,-5.3634 -0.0999,-0.5324 -0.27693,-0.7156 -1.08467,-1.1222 -0.53093,-0.2673 -1.36077,-0.7549 -1.84416,-1.0834 -0.48334,-0.3286 -1.53916,-1.0177 -2.34621,-1.5312 -0.80705,-0.5136 -1.57774,-1.0838 -1.71263,-1.2669 -0.1349,-0.1833 -0.315,-0.3332 -0.40024,-0.3332 -0.0852,0 -0.48294,-0.3168 -0.8838,-0.7039 -0.40086,-0.3871 -0.9387,-0.8808 -1.1952,-1.0971 -0.25648,-0.2162 -0.59305,-0.586 -0.74789,-0.8217 -0.15485,-0.2357 -0.42837,-0.6078 -0.60782,-0.8269 -2.05125,-2.5039 -2.26725,-3.0906 -2.28865,-6.2168 -0.01,-1.4086 0.0737,-2.0947 0.33383,-2.7495 l 0.34667,-0.8724 -1.88844,-2.6313 c -3.43034,-4.7796 -5.88802,-8.8511 -8.09784,-13.415 -1.60595,-3.3169 -2.81353,-6.5625 -2.81353,-7.5618 0,-0.7926 -0.74074,-2.7846 -1.63339,-4.3925 -2.27528,-4.0984 -5.33529,-7.5004 -8.28566,-9.2116 l -1.1158,-0.647 -1.50898,-3.0971 c -2.82066,-5.789 -4.06169,-10.3971 -4.4485,-16.5173 -0.31473,-4.9798 0.92252,-11.8676 3.13154,-17.4333 l 0.54977,-1.3853 -0.32551,-1.9933 c -0.4411,-2.7012 -0.43493,-8.8578 0.0118,-11.7536 1.78954,-11.6007 7.1507,-19.6027 16.46928,-24.5818 1.4567,-0.7783 1.5826,-0.9011 3.38386,-3.2998 7.38097,-9.8293 16.1249,-17.8904 25.49244,-23.5016 8.63171,-5.1704 17.7756,-8.3241 27.40377,-9.4516 3.5598,-0.4168 12.68123,-0.4832 13.76495,-0.1001 0.96852,0.3424 1.98594,1.2673 2.40245,2.184 0.67002,1.4749 0.33767,4.5775 -0.78732,7.3493 -0.22736,0.5601 -0.3778,1.0538 -0.33444,1.0972 0.0436,0.044 1.55367,-0.04 3.35614,-0.1853 27.88161,-2.2479 45.07414,-1.2437 53.53396,3.1266 1.2341,0.6376 1.95035,1.2005 3.53406,2.7777 2.32379,2.3141 2.87115,3.2627 2.87461,4.9813 0.006,1.3745 -0.48805,2.4277 -1.72591,3.7035 l -0.86167,0.8881 1.2464,2.3984 c 1.79083,3.4463 2.89091,6.3845 3.6372,9.715 0.45807,2.0442 0.46661,6.0953 0.0161,7.7894 -0.54126,2.0366 -1.71988,4.1998 -3.06572,5.6265 l -1.21093,1.2836 1.05888,0.6058 c 3.0432,1.7411 5.26343,4.935 6.29173,9.051 0.55768,2.2323 0.68997,7.1316 0.27729,10.2738 -20.19375,29.3315 -30.66806,58.6219 -30.97987,68.5211 -0.82584,0.2819 0.31354,17.5256 -1.13855,23.7368 -0.79956,3.4204 -2.89067,8.3855 -3.11636,9.0049 -0.22569,0.6193 -0.62213,1.5063 -0.88102,1.9708 l -0.47067,0.8446 0.24707,2.2524 c 0.32178,2.9336 -3.57874,12.0531 -3.89825,15.0158 -1.59333,14.775 -6.78265,28.4472 -15.53064,40.918 l -1.58001,2.853 -0.006,1.8819 c -0.01,5.2469 -1.10038,8.8624 -3.73664,12.3831 -2.2354,2.9853 -2.52631,3.3256 -3.62633,4.2411 -2.70064,2.2474 -5.73906,2.9284 -9.11731,2.0433 z m -44.54093,-91.865 c -0.009,-0.2323 -0.20299,-1.3514 -0.43125,-2.487 l -0.41507,-2.0646 -0.24026,0.7039 c -0.13211,0.3871 -0.30811,0.7038 -0.39112,0.7038 -0.20987,0 -2.97321,-3.0986 -5.89746,-6.6129 -2.72049,-3.2695 -2.64825,-3.2418 -2.86055,-1.096 -0.10627,1.074 0.2253,2.752 0.70978,3.5918 0.59118,1.0247 3.8039,4.3047 4.2164,4.3047 0.0922,0 0.27309,0.169 0.40203,0.3755 0.12894,0.2065 0.3501,0.3754 0.4914,0.3754 0.14131,0 0.37291,0.1404 0.51457,0.312 0.14172,0.1717 0.59549,0.4734 1.00841,0.6706 0.41292,0.1972 1.17211,0.648 1.68715,1.0019 1.10325,0.758 1.22741,0.7807 1.20597,0.2209 z m 27.0446,-3.707 c 0,-0.1032 0.29067,-0.1877 0.64584,-0.1877 0.35528,0 0.69809,-0.084 0.76193,-0.1877 0.0638,-0.1032 0.32214,-0.1877 0.57411,-0.1877 0.25203,0 0.45819,-0.065 0.45819,-0.1434 0,-0.143 1.36268,-0.7951 1.66147,-0.7951 0.0865,0 0.3102,-0.1689 0.49701,-0.3753 0.18687,-0.2065 0.43066,-0.3755 0.54174,-0.3755 0.27239,0 3.68151,-3.408 3.68151,-3.6803 0,-0.1184 0.13175,-0.3247 0.29276,-0.4583 0.32919,-0.2733 1.02107,-1.6224 1.02107,-1.9911 0,-0.1323 0.16896,-0.5413 0.37542,-0.9089 0.20652,-0.3676 0.37541,-0.9192 0.37541,-1.2258 0,-0.3065 0.0845,-0.5573 0.18765,-0.5573 0.11783,0 0.1877,-1.1888 0.1877,-3.1909 l 0,-3.1909 -14.54653,0 -14.54653,0 0,3.1909 c 0,2.0021 0.0699,3.1909 0.1877,3.1909 0.10326,0 0.18771,0.2508 0.18771,0.5573 0,0.3066 0.16889,0.8582 0.37541,1.2258 0.20646,0.3676 0.37536,0.7766 0.37536,0.9089 0,0.3687 0.69194,1.7178 1.02113,1.9911 0.16101,0.1336 0.29275,0.3366 0.29275,0.4511 0,0.2728 3.40244,3.6875 3.67423,3.6875 0.11509,0 0.3621,0.169 0.54897,0.3755 0.18687,0.2064 0.41943,0.3753 0.5169,0.3753 0.19606,0 1.16183,0.4069 2.26938,0.9561 0.39685,0.1967 0.96702,0.3578 1.26695,0.3578 0.29992,0 0.54538,0.084 0.54538,0.1877 0,0.118 1.22,0.1877 3.28466,0.1877 2.06472,0 3.28472,-0.07 3.28472,-0.1877 z m -5.77293,-4.0664 c -1.91905,-0.6792 -3.33721,-3.0691 -3.32306,-5.6 0.0108,-1.9344 0.92886,-3.4017 2.71432,-4.338 0.95716,-0.502 3.04224,-0.4725 4.03542,0.057 1.61256,0.8598 2.85574,2.8829 3.04727,4.9589 0.32578,3.5308 -3.08286,6.1224 -6.47395,4.9222 z m 2.68446,-3.5268 c 0.2534,-0.2534 0.46075,-0.6373 0.46075,-0.8532 0,-0.5063 -0.8075,-1.3139 -1.31394,-1.3139 -0.50639,0 -1.31383,0.8076 -1.31383,1.3139 0,0.5064 0.80744,1.3139 1.31383,1.3139 0.21589,0 0.59979,-0.2073 0.85319,-0.4607 z m -1.12463,-2.7465 c 0.19344,-0.313 -0.24158,-0.6719 -0.50053,-0.413 -0.21656,0.2167 -0.0811,0.617 0.20891,0.617 0.091,0 0.22228,-0.092 0.29162,-0.204 z m 49.26048,9.2135 c 0,-0.1032 0.2454,-0.1877 0.54532,-0.1877 0.29998,0 0.87009,-0.161 1.26695,-0.3578 1.10755,-0.5492 2.07331,-0.9561 2.26938,-0.9561 0.0975,0 0.33009,-0.1689 0.5169,-0.3754 0.18681,-0.2064 0.43065,-0.3753 0.54174,-0.3753 0.27239,0 3.68145,-3.4081 3.68145,-3.6804 0,-0.1184 0.13175,-0.3246 0.29282,-0.4583 0.32913,-0.2732 1.02107,-1.6224 1.02107,-1.991 0,-0.1324 0.16895,-0.5414 0.37541,-0.909 0.20646,-0.3676 0.37542,-0.9192 0.37542,-1.2257 0,-0.3066 0.0844,-0.5575 0.1877,-0.5575 0.11772,0 0.18765,-1.1887 0.18765,-3.1908 l 0,-3.1909 -14.54653,0 -14.54654,0 0,3.1909 c 0,2.0021 0.0699,3.1908 0.18771,3.1908 0.1032,0 0.18765,0.2509 0.18765,0.5575 0,0.3065 0.16895,0.8581 0.37547,1.2257 0.20646,0.3676 0.37535,0.7766 0.37535,0.909 0,0.3686 0.69188,1.7178 1.02113,1.991 0.16101,0.1337 0.2927,0.3366 0.2927,0.4511 0,0.2728 3.40243,3.6876 3.67423,3.6876 0.11514,0 0.36216,0.1689 0.54903,0.3753 0.18687,0.2065 0.41047,0.3754 0.49706,0.3754 0.29879,0 1.66148,0.6521 1.66148,0.7951 0,0.079 0.2061,0.1434 0.45812,0.1434 0.25197,0 0.51033,0.085 0.57417,0.1877 0.0639,0.1033 0.40665,0.1877 0.76188,0.1877 0.35523,0 0.6459,0.084 0.6459,0.1877 0,0.118 1.21994,0.1877 3.28466,0.1877 2.06465,0 3.28472,-0.07 3.28472,-0.1877 z m -4.27133,-4.0663 c -1.12021,-0.3966 -2.38113,-1.7157 -2.77583,-2.9041 -0.80816,-2.4331 0.53756,-5.758 2.82396,-6.977 0.99324,-0.5296 3.07826,-0.559 4.03549,-0.057 1.7854,0.9365 2.70344,2.4037 2.71425,4.3381 0.0233,4.1291 -3.27582,6.8467 -6.79787,5.6001 z m 2.49674,-3.5269 c 0.25334,-0.2534 0.4607,-0.6373 0.4607,-0.8531 0,-0.2159 -0.20736,-0.5998 -0.4607,-0.8532 -0.2534,-0.2534 -0.63735,-0.4607 -0.85319,-0.4607 -0.2159,0 -0.59979,0.2073 -0.85319,0.4607 -0.25334,0.2534 -0.4607,0.6373 -0.4607,0.8532 0,0.2158 0.20736,0.5997 0.4607,0.8531 0.2534,0.2534 0.63729,0.4607 0.85319,0.4607 0.21584,0 0.59979,-0.2073 0.85319,-0.4607 z m 0.006,-2.7465 c 0.19344,-0.313 -0.24157,-0.6719 -0.50053,-0.4129 -0.21655,0.2166 -0.081,0.617 0.20891,0.617 0.091,0 0.22229,-0.092 0.29162,-0.2041 z m 16.71457,-31.8413 c -0.0624,-0.062 -0.10672,0.048 -0.0985,0.2463 0.009,0.2187 0.0538,0.2632 0.11336,0.1134 0.0543,-0.1355 0.0478,-0.2974 -0.0149,-0.3597 z"
     style="fill:#f8e1c7"
     sodipodi:nodetypes="cscccsssssssssscccssccccccssssscssscscssssssssssscscsssscssccssccscsccsscccsccsssssssccscsssssscsscssssscccssssscsscssssssssssssssssssscsssssscsscssssscccssssscsscssssssssssscssssssssssssssscsccc"
     inkscape:export-xdpi="90"
     inkscape:export-ydpi="90"
     inkscape:export-filename="/home/rana/Desktop/character/3ALA2/a3edbelwesh2.png" />
  <path
     style="font-size:medium;font-style:normal;font-variant:normal;font-weight:normal;font-stretch:normal;text-indent:0;text-align:start;text-decoration:none;line-height:normal;letter-spacing:normal;word-spacing:normal;text-transform:none;direction:ltr;block-progression:tb;writing-mode:lr-tb;text-anchor:start;baseline-shift:baseline;color:#000000;fill:#000000;fill-opacity:1;fill-rule:nonzero;stroke:#000000;stroke-width:0.746261;stroke-linecap:butt;stroke-linejoin:miter;stroke-miterlimit:4;stroke-opacity:1;stroke-dasharray:none;stroke-dashoffset:0;visibility:visible;display:inline;overflow:visible;enable-background:accumulate;font-family:sans-serif"
     d="m 783.4106,1169.1957 c -2.84528,0.021 -5.99593,0.1404 -7.77189,0.3484 -9.58069,1.1219 -18.68014,4.2603 -27.26826,9.4046 -9.32054,5.5831 -18.0184,13.6021 -25.36007,23.379 -0.89507,1.192 -1.37329,1.8169 -1.80269,2.2356 -0.42939,0.4188 -0.81293,0.637 -1.53625,1.0234 -9.28118,4.9591 -14.62703,12.9401 -16.40841,24.4879 -0.44644,2.8941 -0.45303,9.0033 -0.0116,11.7061 l 0.32008,1.961 -0.5387,1.3578 c -2.19995,5.5429 -3.43186,12.3939 -3.11798,17.3603 0.38496,6.0909 1.62247,10.6852 4.42918,16.4457 l 1.51001,3.099 1.12872,0.6545 c 2.91482,1.6905 5.95143,5.0634 8.2077,9.1277 0.44154,0.7953 0.84623,1.6872 1.1398,2.4767 0.29357,0.7894 0.47428,1.4824 0.47428,1.853 0,0.5268 0.30391,1.5748 0.80457,2.9204 0.50065,1.3456 1.20064,2.9778 1.99974,4.6283 2.19836,4.5403 4.64403,8.5918 8.05554,13.3452 l 1.85312,2.5822 -0.3294,0.8293 c -0.26318,0.6623 -0.34687,1.3577 -0.33728,2.7609 0.0213,3.1107 0.25097,3.7348 2.29184,6.226 0.17567,0.2144 0.44807,0.585 0.59963,0.8157 0.16149,0.2458 0.49523,0.6115 0.75763,0.8328 0.25146,0.2119 0.78686,0.7034 1.18411,1.087 0.20077,0.1939 0.40057,0.37 0.56232,0.4988 0.0809,0.064 0.1521,0.117 0.21076,0.1548 0.0293,0.019 0.0554,0.034 0.0796,0.045 0.0242,0.011 0.0438,0.022 0.0775,0.022 -10e-4,0 0.0663,0.024 0.13293,0.08 0.0666,0.056 0.14153,0.1346 0.20492,0.2208 0.0427,0.058 0.11686,0.1262 0.22184,0.2145 0.10499,0.088 0.23927,0.193 0.39441,0.3078 0.31028,0.2296 0.70342,0.4994 1.10595,0.7556 0.80159,0.5101 1.85157,1.1953 2.33036,1.5208 0.48488,0.3296 1.30905,0.8137 1.84141,1.0818 0.39943,0.201 0.6373,0.3457 0.78272,0.4961 0.14543,0.1505 0.20724,0.3081 0.25567,0.5664 0.11491,0.6127 0.15331,1.6844 0.12417,2.7274 -0.0293,1.043 -0.12691,2.0648 -0.27138,2.5693 -0.56037,1.9573 -0.89082,4.4087 -0.99694,7.3857 -0.41143,11.5403 3.71818,24.7426 12.17072,38.9397 1.54878,2.6013 2.06818,3.304 3.2993,4.4623 3.14873,2.9627 5.05954,6.268 5.96254,10.3122 0.28888,1.2938 0.39453,2.5134 0.43609,5.0576 0.0609,3.7299 0.22617,4.5467 1.35026,6.6978 0.80046,1.5317 2.94359,3.6479 4.75389,4.7032 2.25941,1.3169 6.36005,3.2426 8.8863,3.4755 0.54604,0.05 0.83731,0.076 1.08241,-0.01 0.2451,-0.077 0.41805,-0.2528 0.72353,-0.572 l 0.57978,-0.6057 0.90718,0.6882 c 1.38938,1.0543 3.22608,1.3749 4.77085,1.794 l 0,0.01 0.0819,0.022 c 3.37759,0.8849 6.42904,0.2009 9.12884,-2.0459 1.09542,-0.9115 1.39433,-1.2604 3.61641,-4.228 2.62916,-3.5112 3.71962,-7.1277 3.729,-12.3533 l 0.006,-1.8469 1.55696,-2.2196 c 8.70194,-12.4052 13.77857,-24.6595 15.36365,-39.3577 2.59947,-15.2976 5.74677,-22.7453 7.69342,-31.4311 1.80516,-8.0546 -0.75215,-22.6904 2.73043,-29.2613 3.48259,-6.571 9.46167,-9.3912 13.04901,-19.4291 3.58727,-10.038 13.14085,-23.1144 16.60838,-41.8394 0.1029,-0.7838 0.17206,-1.6757 0.20909,-2.6076 0.037,-0.9318 0.0424,-1.9037 0.0167,-2.8476 -0.0257,-0.9441 -0.0812,-1.86 -0.16561,-2.6801 -0.0844,-0.8201 -0.19738,-1.5443 -0.33737,-2.1045 -1.02609,-4.1069 -3.24363,-7.3008 -6.28899,-9.0432 l -0.97018,-0.5554 1.13836,-1.2065 c 1.34865,-1.4296 2.52368,-3.587 3.06518,-5.6246 0.45515,-1.7127 0.44446,-5.7259 -0.0149,-7.7781 -0.74318,-3.3165 -1.83968,-6.2445 -3.62203,-9.6742 l -1.21409,-2.3365 0.81915,-0.8439 c 1.2378,-1.2757 1.73923,-2.3493 1.73648,-3.7333 -0.006,-0.862 -0.14232,-1.5435 -0.57369,-2.291 -0.43137,-0.7475 -1.14912,-1.5615 -2.30552,-2.7131 -1.57583,-1.5693 -2.29924,-2.1377 -3.53137,-2.7743 -8.44125,-4.3607 -25.53357,-5.3505 -53.25124,-3.1159 -0.89529,0.072 -1.71814,0.1291 -2.32181,0.1623 -0.3019,0.017 -0.54909,0.027 -0.7224,0.031 -0.0867,0.01 -0.15504,0.01 -0.20109,0 -0.006,-10e-5 -0.008,0 -0.0137,0 0,-0.011 0,-0.017 0.006,-0.032 0.0108,-0.056 0.0317,-0.137 0.0615,-0.2344 0.0591,-0.1945 0.15271,-0.4551 0.26499,-0.7316 0.56175,-1.3842 0.92521,-2.8497 1.06514,-4.1561 0.13993,-1.3063 0.0591,-2.4525 -0.28392,-3.2077 -0.42504,-0.9356 -1.4439,-1.8612 -2.43087,-2.2101 -0.1505,-0.053 -0.40975,-0.092 -0.76988,-0.1263 -0.36012,-0.034 -0.81753,-0.061 -1.34673,-0.081 -1.05858,-0.041 -2.40436,-0.055 -3.82694,-0.045 z m 0,0.1493 c 1.42091,-0.01 2.76496,0.01 3.81995,0.045 0.52747,0.02 0.98255,0.047 1.33826,0.081 0.3557,0.034 0.61549,0.076 0.73434,0.118 0.9383,0.3317 1.94205,1.2449 2.34487,2.1316 0.32298,0.7108 0.4097,1.8394 0.27144,3.1301 -0.13832,1.2909 -0.49886,2.745 -1.05529,4.1159 -0.11371,0.2801 -0.20819,0.5434 -0.26935,0.7442 -0.0305,0.1004 -0.0532,0.1846 -0.0653,0.2501 -0.006,0.033 -0.0102,0.061 -0.0107,0.086 0,0.026 -0.009,0.053 0.0293,0.091 0.0221,0.022 0.0323,0.02 0.0424,0.023 0.009,0.01 0.0179,0.01 0.0263,0.01 0.0179,0.01 0.0382,0.01 0.0641,0.01 0.0514,0.01 0.12112,0 0.20927,0 0.1763,-0.01 0.42456,-0.015 0.72735,-0.032 0.60559,-0.034 1.42898,-0.09 2.32535,-0.1626 27.70924,-2.2339 44.79445,-1.2273 53.17079,3.0999 1.22126,0.6308 1.92216,1.1814 3.49464,2.7474 1.15336,1.1486 1.86238,1.9559 2.28133,2.6819 0.41895,0.726 0.55213,1.3704 0.55386,2.2166 0.006,1.3484 -0.47156,2.3685 -1.69455,3.629 l -0.89405,0.9214 1.26373,2.4319 c 1.77781,3.4211 2.86839,6.3338 3.60883,9.638 0.45078,2.0115 0.45681,6.0518 0.0173,7.707 -0.53446,2.011 -1.70256,4.154 -3.02941,5.5605 l -1.26862,1.3447 1.13484,0.6495 c 3.00421,1.7189 5.20019,4.8741 6.21846,8.9496 0.13718,0.5491 0.24844,1.2658 0.33181,2.0804 0.0833,0.8147 0.13874,1.7274 0.16424,2.6686 0.0257,0.9413 0.0209,1.9112 -0.0155,2.8402 -0.0364,0.9289 -0.10457,1.817 -0.2067,2.5949 -2.24221,13.537 -11.55696,25.8007 -15.36311,37.0927 -3.80616,11.2919 -9.11367,17.7025 -13.20177,27.352 -4.08817,9.6496 -0.98679,22.538 -4.07485,31.148 -3.08805,8.6097 -6.25106,16.8506 -7.05701,25.0236 -1.58246,14.6736 -6.43704,28.2503 -15.12548,40.6362 l -1.28529,2.258 -0.006,1.8942 c -0.009,5.205 -1.6847,9.6716 -4.29629,13.1593 -2.22161,2.967 -2.50117,3.2944 -3.59253,4.2027 -2.66887,2.221 -5.95592,2.891 -9.29415,2.0163 -1.53456,-0.4021 -3.40339,-0.736 -4.79856,-1.7948 l -1.01295,-0.7687 -0.67193,-0.1935 c -0.30464,0.3183 -0.45843,0.469 -0.66059,0.5328 -0.20216,0.064 -0.47855,0.046 -1.02376,-0.01 -2.48898,-0.2295 -6.59583,-0.6643 -8.82485,-1.9636 -1.77912,-1.0371 -3.92118,-3.756 -4.69673,-5.2401 -1.11985,-2.1429 -2.16803,-3.8005 -2.22889,-7.5265 -0.0418,-2.5475 -0.14805,-3.7819 -0.43962,-5.0877 -0.90897,-4.071 -2.24173,-6.8115 -5.40892,-9.7914 -1.22454,-1.1523 -2.32331,-2.4282 -3.87065,-5.0271 -8.44269,-14.1805 -12.26097,-27.3574 -11.85097,-38.8581 0.10582,-2.9688 0.43555,-5.4094 0.99115,-7.3497 0.15402,-0.538 0.2479,-1.5568 0.27723,-2.6061 0.0293,-1.0495 0.58975,-2.1221 0.47019,-2.7595 -0.0508,-0.2709 -0.4254,-0.4685 -0.59352,-0.6425 -0.16812,-0.1739 -0.12094,-0.3227 -0.52442,-0.5258 -0.52305,-0.2634 -1.34859,-0.7484 -1.82457,-1.0719 -0.48208,-0.3278 -1.53128,-1.0122 -2.33407,-1.5231 -0.39963,-0.2543 -0.79045,-0.5228 -1.09725,-0.7498 -0.15341,-0.1135 -0.28599,-0.2168 -0.38742,-0.302 -0.10143,-0.085 -0.17328,-0.1558 -0.19764,-0.1889 -0.0707,-0.096 -0.15208,-0.1823 -0.22971,-0.2469 -0.0776,-0.065 -0.14214,-0.1145 -0.22825,-0.1145 0.0125,0 0.002,0 -0.0134,-0.01 -0.0152,-0.01 -0.0371,-0.019 -0.063,-0.036 -0.0517,-0.034 -0.12016,-0.084 -0.19851,-0.1461 -0.15671,-0.1248 -0.35387,-0.2985 -0.55154,-0.4894 -0.39963,-0.3859 -0.93325,-0.8758 -1.19169,-1.0937 -0.24749,-0.2087 -0.58301,-0.578 -0.72935,-0.8008 -0.15627,-0.2379 -0.4276,-0.6071 -0.60867,-0.8282 -2.03688,-2.4864 -2.23678,-3.0288 -2.25802,-6.1328 -0.01,-1.3969 0.0725,-2.0653 0.32649,-2.7046 l 0.35972,-0.9051 -1.90093,-2.6487 c -3.40778,-4.7481 -5.8478,-8.7904 -8.04241,-13.323 -0.79718,-1.6465 -1.49536,-3.2756 -1.99392,-4.6154 -0.49857,-1.34 -0.79524,-2.4016 -0.79524,-2.8682 0,-0.4172 -0.18723,-1.108 -0.48361,-1.905 -0.29638,-0.7971 -0.7034,-1.6942 -1.14913,-2.4971 -2.26682,-4.0832 -5.31303,-7.4734 -8.26337,-9.1845 l -1.08967,-0.6317 -1.48989,-3.058 c -2.80057,-5.7479 -4.0303,-10.3141 -4.41429,-16.3897 -0.31178,-4.9331 0.91635,-11.7747 3.10777,-17.2961 l 0.55386,-1.396 -0.32677,-2.0015 c -0.43553,-2.6671 -0.42967,-8.7967 0.0119,-11.6594 1.77611,-11.5137 7.08762,-19.44 16.33117,-24.3789 0.72461,-0.3872 1.1276,-0.6168 1.57035,-1.0486 0.44276,-0.4317 0.92222,-1.0601 1.81756,-2.2524 7.33118,-9.7631 16.01587,-17.7692 25.31748,-23.3408 8.57121,-5.1342 17.64911,-8.2651 27.20872,-9.3846 1.76228,-0.2063 4.91406,-0.3265 7.75588,-0.3472 z m 11.93662,143.4081 0,3.2463 c 0,0.9958 0.0173,1.7896 0.0496,2.3364 0.0161,0.2734 0.0358,0.4847 0.0597,0.6314 0.0119,0.073 0.0245,0.1302 0.0406,0.1746 0.008,0.022 0.0161,0.042 0.0311,0.061 0.0143,0.019 0.0418,0.043 0.0807,0.043 -0.006,0 -6e-5,-0.01 0.0137,0.015 0.0143,0.018 0.0323,0.052 0.0472,0.097 0.0299,0.09 0.0508,0.2221 0.0508,0.3676 0,0.3321 0.17039,0.8769 0.3827,1.255 0.10111,0.1798 0.1935,0.3705 0.25979,0.5311 0.0663,0.1604 0.10374,0.3017 0.10374,0.3358 0,0.115 0.0472,0.2672 0.11777,0.4521 0.0709,0.1849 0.16806,0.3974 0.27544,0.6069 0.1075,0.2095 0.22497,0.4158 0.33731,0.5883 0.11234,0.1725 0.21649,0.3099 0.31163,0.3889 0.0735,0.061 0.1422,0.1399 0.19063,0.2145 0.0484,0.075 0.0732,0.1484 0.0732,0.1767 0,0.055 0.0221,0.082 0.0496,0.1253 0.0275,0.044 0.0648,0.095 0.11222,0.156 0.095,0.1212 0.22903,0.2767 0.39034,0.4556 0.32262,0.3578 0.7543,0.8081 1.19463,1.25 0.44027,0.4419 0.88878,0.8752 1.24527,1.1989 0.17827,0.162 0.33342,0.2963 0.45424,0.3916 0.0604,0.048 0.11186,0.085 0.15534,0.1128 0.0436,0.027 0.0694,0.05 0.12536,0.05 0.0209,0 0.11036,0.033 0.20377,0.097 0.0933,0.064 0.19786,0.1538 0.28655,0.2518 0.096,0.1061 0.20054,0.202 0.29472,0.2731 0.0472,0.036 0.0913,0.065 0.13229,0.087 0.0412,0.022 0.0764,0.038 0.12213,0.038 0.0472,0 0.19153,0.037 0.35744,0.099 0.16585,0.062 0.36132,0.1467 0.54741,0.2358 0.18616,0.089 0.36347,0.1826 0.49152,0.2612 0.064,0.039 0.11586,0.075 0.1487,0.1023 0.0161,0.014 0.0281,0.026 0.0329,0.032 0.006,0.01 0,0.01 0,-0.014 0,0.052 0.0328,0.091 0.0664,0.1154 0.0334,0.024 0.0734,0.042 0.11981,0.057 0.0928,0.029 0.21243,0.045 0.34399,0.045 0.11688,0 0.23734,0.02 0.33236,0.051 0.095,0.031 0.16208,0.079 0.17487,0.1 0.0293,0.047 0.0734,0.075 0.12649,0.1003 0.0532,0.026 0.11699,0.047 0.1892,0.065 0.14447,0.036 0.32244,0.057 0.50489,0.057 0.17062,0 0.32596,0.021 0.43263,0.052 0.0532,0.015 0.0944,0.034 0.11657,0.049 0.0221,0.015 0.0179,0.02 0.0179,0.011 0,0.039 0.0251,0.067 0.0442,0.081 0.0197,0.014 0.0388,0.023 0.0615,0.031 0.0454,0.016 0.10344,0.028 0.17869,0.04 0.15044,0.023 0.36747,0.044 0.64858,0.06 0.56229,0.032 1.37917,0.049 2.40615,0.049 1.02692,0 1.8441,-0.017 2.40638,-0.049 0.28112,-0.016 0.49809,-0.036 0.64859,-0.06 0.0753,-0.011 0.13342,-0.024 0.17869,-0.04 0.0227,-0.01 0.0424,-0.017 0.0615,-0.031 0.0197,-0.014 0.0442,-0.042 0.0442,-0.081 0,0.01 -0.006,0 0.0155,-0.014 0.0173,-0.014 0.0502,-0.032 0.0938,-0.047 0.0872,-0.03 0.21649,-0.051 0.35857,-0.051 0.32483,0 0.88705,-0.1624 1.29251,-0.3635 0.54926,-0.2724 1.06341,-0.5093 1.46337,-0.6778 0.20001,-0.084 0.37135,-0.1515 0.50346,-0.197 0.13204,-0.046 0.23273,-0.068 0.25561,-0.068 0.0915,0 0.16925,-0.053 0.26731,-0.1239 0.0981,-0.071 0.20533,-0.1672 0.30172,-0.2738 0.0888,-0.098 0.19266,-0.1882 0.28488,-0.2521 0.0921,-0.064 0.18107,-0.096 0.19851,-0.096 0.0555,0 0.0818,-0.022 0.1253,-0.05 0.0436,-0.027 0.0951,-0.065 0.1557,-0.1125 0.12093,-0.095 0.27639,-0.2291 0.45502,-0.3906 0.3572,-0.3231 0.80649,-0.7557 1.24765,-1.1967 0.44117,-0.441 0.87368,-0.8906 1.19696,-1.2477 0.16161,-0.1785 0.2958,-0.3337 0.39088,-0.4547 0.0478,-0.061 0.0855,-0.1121 0.11281,-0.1556 0.0275,-0.044 0.049,-0.07 0.049,-0.1254 0,-0.031 0.0257,-0.1061 0.0738,-0.1819 0.0484,-0.076 0.11712,-0.1556 0.19034,-0.2163 0.0951,-0.079 0.19929,-0.2164 0.31163,-0.3889 0.11234,-0.1725 0.22987,-0.3788 0.33725,-0.5883 0.1075,-0.2094 0.20461,-0.4219 0.2755,-0.6068 0.0709,-0.185 0.11747,-0.3373 0.11747,-0.4522 0,-0.034 0.0376,-0.1753 0.10404,-0.3358 0.0663,-0.1605 0.15868,-0.3512 0.25979,-0.5311 0.21231,-0.3781 0.3827,-0.9229 0.3827,-1.255 0,-0.1455 0.0203,-0.2779 0.0508,-0.3676 0.0155,-0.045 0.0335,-0.079 0.0472,-0.097 0.0137,-0.018 0.0185,-0.015 0.0137,-0.015 0.0388,0 0.0663,-0.024 0.0808,-0.043 0.0143,-0.019 0.0233,-0.038 0.0311,-0.061 0.0161,-0.044 0.0287,-0.1012 0.0406,-0.1746 0.0239,-0.1467 0.0436,-0.358 0.0597,-0.6314 0.0317,-0.5468 0.0496,-1.3405 0.0496,-2.3365 l 0,-3.2462 -14.53369,0 -14.53346,0 z m 0.1493,0.1493 14.38415,0 14.38445,0 0,3.097 c 0,0.9941 -0.0173,1.7861 -0.049,2.3276 -0.0155,0.2708 -0.0358,0.4793 -0.0579,0.6163 -0.0113,0.069 -0.0233,0.1198 -0.0335,0.1478 -0.006,0.014 -0.0102,0.021 -0.009,0.021 0,-0.01 0.0137,-0.016 0.0382,-0.016 -0.0561,0 -0.10069,0.034 -0.13121,0.072 -0.0305,0.038 -0.0526,0.086 -0.0714,0.1417 -0.0376,0.1112 -0.0585,0.2559 -0.0585,0.4151 0,0.2773 -0.16573,0.8291 -0.36389,1.1818 -0.10409,0.1854 -0.19833,0.3804 -0.26731,0.5475 -0.069,0.1669 -0.11539,0.2951 -0.11539,0.3926 0,0.068 -0.0394,0.2208 -0.10756,0.3987 -0.0683,0.1781 -0.1634,0.3866 -0.2688,0.5921 -0.10535,0.2055 -0.22104,0.4084 -0.32967,0.5751 -0.10864,0.1668 -0.21345,0.2986 -0.28189,0.3554 -0.0868,0.072 -0.16364,0.1614 -0.22067,0.2507 -0.0573,0.089 -0.0974,0.1758 -0.0974,0.2624 0,-0.022 -0.006,0.01 -0.0263,0.046 -0.0221,0.036 -0.0579,0.085 -0.1035,0.1429 -0.0912,0.1162 -0.2239,0.2698 -0.38419,0.4469 -0.32053,0.3542 -0.75214,0.8024 -1.19194,1.2421 -0.43985,0.4397 -0.88818,0.8709 -1.2424,1.1914 -0.17713,0.1602 -0.3308,0.2929 -0.4469,0.3843 -0.0579,0.046 -0.10702,0.081 -0.14285,0.1034 -0.0358,0.022 -0.068,0.026 -0.0466,0.026 -0.093,0 -0.18066,0.051 -0.28362,0.123 -0.10302,0.071 -0.21327,0.1675 -0.31019,0.2746 -0.0893,0.099 -0.19082,0.1893 -0.27897,0.2533 -0.0881,0.064 -0.17427,0.095 -0.17952,0.095 -0.0745,0 -0.16722,0.029 -0.30435,0.076 -0.13712,0.047 -0.31079,0.1155 -0.51277,0.2005 -0.40396,0.1702 -0.92026,0.4084 -1.47179,0.6819 -0.38354,0.1902 -0.95472,0.3478 -1.22616,0.3478 -0.15605,0 -0.29801,0.022 -0.40719,0.059 -0.0543,0.018 -0.10123,0.041 -0.13903,0.072 -0.0382,0.031 -0.0706,0.075 -0.0706,0.1303 0,-0.024 0.0155,-0.038 0.0161,-0.038 0,0 -0.008,0.01 -0.0227,0.01 -0.0293,0.01 -0.0816,0.023 -0.15217,0.034 -0.14101,0.022 -0.35541,0.042 -0.63401,0.058 -0.55709,0.032 -1.37266,0.049 -2.39797,0.049 -1.02525,0 -1.84052,-0.017 -2.39761,-0.049 -0.27854,-0.015 -0.49306,-0.036 -0.63407,-0.058 -0.0705,-0.011 -0.12308,-0.023 -0.15211,-0.034 -0.0143,-0.01 -0.0233,-0.01 -0.0227,-0.01 0,0 0.0161,0.014 0.0161,0.038 0,-0.061 -0.04,-0.1046 -0.0831,-0.1341 -0.043,-0.029 -0.0962,-0.051 -0.15916,-0.069 -0.12608,-0.036 -0.2918,-0.058 -0.47426,-0.058 -0.17068,0 -0.33928,-0.02 -0.46935,-0.053 -0.065,-0.016 -0.1204,-0.035 -0.16,-0.054 -0.04,-0.019 -0.0619,-0.04 -0.0644,-0.044 -0.0508,-0.082 -0.14351,-0.127 -0.25537,-0.1636 -0.11192,-0.036 -0.2451,-0.059 -0.3787,-0.059 -0.11885,0 -0.22706,-0.015 -0.29933,-0.038 -0.0358,-0.011 -0.0631,-0.025 -0.0758,-0.034 -0.0125,-0.01 -0.006,-0.01 -0.006,0.01 0,-0.038 -0.0161,-0.06 -0.0317,-0.079 -0.0155,-0.019 -0.0329,-0.036 -0.0538,-0.053 -0.0424,-0.035 -0.0988,-0.073 -0.16645,-0.1148 -0.13515,-0.083 -0.31527,-0.178 -0.50483,-0.2688 -0.18967,-0.091 -0.38813,-0.177 -0.55977,-0.241 -0.17158,-0.064 -0.30811,-0.1082 -0.40952,-0.1082 0.006,0 -0.0215,-0.01 -0.0525,-0.021 -0.0305,-0.016 -0.0698,-0.042 -0.11222,-0.074 -0.0849,-0.064 -0.1843,-0.1551 -0.27401,-0.2542 -0.097,-0.1072 -0.20837,-0.2035 -0.31276,-0.2749 -0.10452,-0.071 -0.19434,-0.1227 -0.28804,-0.1227 0.0221,0 -0.0102,-0.01 -0.046,-0.026 -0.0358,-0.023 -0.0846,-0.058 -0.14256,-0.1038 -0.11586,-0.091 -0.26952,-0.2242 -0.4463,-0.3848 -0.35355,-0.3211 -0.80111,-0.7532 -1.24007,-1.1937 -0.43896,-0.4406 -0.86938,-0.8899 -1.18937,-1.2448 -0.15993,-0.1774 -0.29252,-0.3314 -0.38365,-0.4478 -0.0454,-0.058 -0.0807,-0.1071 -0.10314,-0.143 -0.0227,-0.036 -0.0269,-0.068 -0.0269,-0.046 0,-0.086 -0.04,-0.1698 -0.0974,-0.2577 -0.0573,-0.088 -0.13377,-0.1765 -0.22037,-0.2484 -0.0685,-0.057 -0.17326,-0.1886 -0.28189,-0.3554 -0.10863,-0.1667 -0.22432,-0.3696 -0.32973,-0.5752 -0.10541,-0.2054 -0.20048,-0.4139 -0.26881,-0.592 -0.0682,-0.178 -0.10779,-0.3304 -0.10779,-0.3987 0,-0.098 -0.0466,-0.2257 -0.11515,-0.3927 -0.069,-0.167 -0.16322,-0.362 -0.26732,-0.5474 -0.19815,-0.3528 -0.36382,-0.9045 -0.36382,-1.1818 0,-0.1592 -0.0215,-0.3039 -0.0585,-0.4151 -0.0185,-0.056 -0.0406,-0.1032 -0.0714,-0.1417 -0.0305,-0.038 -0.0753,-0.072 -0.13115,-0.072 0.0239,0 0.0376,0.015 0.0382,0.016 0,0.01 -0.006,-0.01 -0.01,-0.021 -0.0101,-0.028 -0.0221,-0.079 -0.0335,-0.1479 -0.0221,-0.137 -0.0424,-0.3454 -0.0579,-0.6162 -0.0317,-0.5415 -0.049,-1.3336 -0.049,-2.3277 l 0,-3.097 z m -44.92494,0.9701 0,3.2462 c 0,0.9959 0.0173,1.7897 0.0496,2.3365 0.0161,0.2734 0.0358,0.4847 0.0597,0.6314 0.0119,0.073 0.0245,0.1302 0.0406,0.1746 0.008,0.022 0.0161,0.042 0.031,0.061 0.0143,0.019 0.0424,0.043 0.0807,0.043 -0.006,0 -1.2e-4,-0.01 0.0137,0.015 0.0143,0.018 0.0323,0.051 0.0472,0.097 0.0299,0.09 0.0508,0.222 0.0508,0.3675 0,0.3321 0.17045,0.8769 0.38276,1.255 0.10105,0.1799 0.19344,0.3706 0.25973,0.531 0.0663,0.1606 0.1038,0.3019 0.1038,0.3359 0,0.1149 0.0466,0.2672 0.11777,0.4522 0.0709,0.1849 0.168,0.3974 0.27544,0.6069 0.10744,0.2095 0.22491,0.4157 0.33731,0.5882 0.11234,0.1725 0.21643,0.3099 0.31163,0.3889 0.0734,0.061 0.1422,0.1399 0.19063,0.2146 0.0484,0.074 0.0732,0.1483 0.0732,0.1766 0,0.055 0.0221,0.082 0.0496,0.1254 0.0269,0.044 0.0647,0.095 0.11222,0.1559 0.0949,0.1212 0.22903,0.2768 0.39034,0.4556 0.32256,0.3578 0.75429,0.8081 1.19457,1.25 0.44033,0.4419 0.88884,0.8752 1.24532,1.1989 0.17827,0.162 0.33343,0.2963 0.45419,0.3916 0.0604,0.048 0.11192,0.085 0.1554,0.1127 0.0436,0.027 0.0694,0.05 0.1253,0.05 0.0209,0 0.11042,0.033 0.20377,0.097 0.0934,0.064 0.19792,0.1539 0.28655,0.2518 0.0965,0.1066 0.20365,0.2025 0.30171,0.2738 0.0981,0.071 0.17576,0.1238 0.26732,0.1238 0.0227,0 0.12356,0.022 0.25567,0.068 0.1321,0.045 0.30345,0.1128 0.50346,0.197 0.39996,0.1685 0.91405,0.4054 1.46337,0.6778 0.40545,0.201 0.96768,0.3635 1.29251,0.3635 0.14208,0 0.27132,0.021 0.35857,0.051 0.0436,0.016 0.0766,0.033 0.0939,0.047 0.0173,0.014 0.0149,0.018 0.0149,0.014 0,0.039 0.0251,0.067 0.0448,0.081 0.0191,0.014 0.0388,0.023 0.0615,0.031 0.0454,0.016 0.10344,0.028 0.17869,0.04 0.1505,0.024 0.36747,0.044 0.64858,0.06 0.56234,0.032 1.37917,0.049 2.40615,0.049 1.02692,0 1.84404,-0.017 2.40638,-0.049 0.28112,-0.016 0.49815,-0.036 0.64859,-0.06 0.0752,-0.012 0.13342,-0.024 0.17869,-0.04 0.0227,-0.01 0.0424,-0.017 0.0615,-0.031 0.0197,-0.014 0.0442,-0.042 0.0442,-0.081 0,0.01 -0.006,0.01 0.0185,-0.011 0.0221,-0.015 0.0632,-0.034 0.11658,-0.049 0.1066,-0.031 0.262,-0.052 0.43256,-0.052 0.18252,0 0.36049,-0.022 0.50496,-0.057 0.0722,-0.018 0.1361,-0.039 0.18914,-0.065 0.0532,-0.026 0.0973,-0.053 0.12655,-0.1004 0.0131,-0.021 0.0799,-0.069 0.17492,-0.1 0.095,-0.031 0.21536,-0.051 0.3323,-0.051 0.13163,0 0.25113,-0.016 0.34394,-0.045 0.0466,-0.015 0.0863,-0.032 0.1198,-0.057 0.0334,-0.025 0.0662,-0.063 0.0662,-0.1155 0,0.021 -0.006,0.02 0,0.014 0.006,-0.01 0.0167,-0.018 0.0329,-0.032 0.0328,-0.027 0.0847,-0.063 0.14871,-0.1022 0.12804,-0.079 0.3053,-0.1722 0.49151,-0.2613 0.1861,-0.089 0.38157,-0.1739 0.54742,-0.2358 0.1659,-0.062 0.31025,-0.099 0.35737,-0.099 0.046,0 0.0812,-0.016 0.12219,-0.038 0.0412,-0.021 0.0852,-0.051 0.13229,-0.087 0.0941,-0.071 0.19875,-0.167 0.29473,-0.2731 0.0888,-0.098 0.19266,-0.1882 0.28481,-0.2521 0.0922,-0.064 0.18108,-0.097 0.19852,-0.097 0.0555,0 0.0818,-0.022 0.12536,-0.05 0.0436,-0.028 0.0951,-0.065 0.15569,-0.1125 0.12094,-0.095 0.2764,-0.229 0.45503,-0.3906 0.35719,-0.3232 0.80648,-0.7557 1.24765,-1.1967 0.44117,-0.441 0.87368,-0.8905 1.19689,-1.2476 0.16167,-0.1785 0.29581,-0.3338 0.39095,-0.4548 0.0478,-0.06 0.0855,-0.1121 0.11281,-0.1556 0.0275,-0.044 0.049,-0.07 0.049,-0.1254 0,-0.032 0.0257,-0.1061 0.0738,-0.1819 0.0484,-0.076 0.11712,-0.1555 0.19034,-0.2163 0.0951,-0.079 0.19929,-0.2164 0.31163,-0.3889 0.11233,-0.1724 0.22981,-0.3787 0.33725,-0.5882 0.10744,-0.2095 0.20455,-0.422 0.27544,-0.6069 0.0709,-0.185 0.11753,-0.3372 0.11753,-0.4522 0,-0.034 0.0376,-0.1753 0.10404,-0.3358 0.0663,-0.1605 0.15868,-0.3512 0.25979,-0.5311 0.21231,-0.378 0.38246,-0.9228 0.38246,-1.255 0,-0.1455 0.0209,-0.278 0.0508,-0.3675 0.0155,-0.045 0.0334,-0.079 0.0472,-0.097 0.0143,-0.018 0.0185,-0.015 0.0137,-0.015 0.0388,0 0.0665,-0.024 0.081,-0.043 0.0143,-0.019 0.0227,-0.038 0.0311,-0.061 0.0161,-0.044 0.0287,-0.1013 0.0406,-0.1746 0.0239,-0.1467 0.0436,-0.358 0.0597,-0.6314 0.0322,-0.5468 0.049,-1.3406 0.049,-2.3365 l 0,-3.2462 -14.53345,0 -14.5334,0 z m 0.14924,0.1493 14.38421,0 14.38415,0 0,3.0969 c 0,0.9942 -0.0173,1.7862 -0.049,2.3277 -0.0155,0.2707 -0.0358,0.4793 -0.0579,0.6163 -0.0113,0.069 -0.0233,0.1198 -0.0335,0.1477 -0.006,0.014 -0.0102,0.022 -0.01,0.021 0,-0.01 0.0137,-0.015 0.0376,-0.015 -0.0561,0 -0.10039,0.034 -0.13091,0.072 -0.0305,0.038 -0.0525,0.086 -0.0714,0.1417 -0.0376,0.1113 -0.0591,0.2559 -0.0591,0.4152 0,0.2773 -0.16537,0.829 -0.36353,1.1817 -0.1041,0.1854 -0.19834,0.3805 -0.26732,0.5475 -0.069,0.167 -0.11538,0.2952 -0.11538,0.3926 0,0.068 -0.0394,0.2208 -0.10756,0.3988 -0.0683,0.1781 -0.1634,0.3866 -0.26881,0.5921 -0.10541,0.2055 -0.22103,0.4083 -0.32967,0.5751 -0.10863,0.1668 -0.21344,0.2986 -0.28194,0.3554 -0.0868,0.072 -0.16358,0.1613 -0.22062,0.2507 -0.0573,0.089 -0.0973,0.1758 -0.0973,0.2623 0,-0.022 -0.006,0.01 -0.0263,0.046 -0.0221,0.036 -0.0579,0.085 -0.1035,0.1428 -0.0912,0.1162 -0.2239,0.2698 -0.38413,0.4469 -0.32059,0.3542 -0.75221,0.8024 -1.192,1.2421 -0.43985,0.4398 -0.88819,0.871 -1.2424,1.1914 -0.17714,0.1603 -0.3308,0.293 -0.4469,0.3843 -0.0579,0.046 -0.10696,0.081 -0.14286,0.1035 -0.0358,0.022 -0.0681,0.026 -0.046,0.026 -0.0931,0 -0.18066,0.051 -0.28362,0.1231 -0.10302,0.071 -0.21327,0.1676 -0.3102,0.2746 -0.0897,0.099 -0.18902,0.19 -0.27401,0.2542 -0.0424,0.032 -0.0816,0.057 -0.11221,0.074 -0.0305,0.016 -0.055,0.021 -0.0526,0.021 -0.10141,0 -0.23793,0.044 -0.40957,0.1082 -0.17165,0.064 -0.3701,0.1503 -0.55966,0.2411 -0.18962,0.091 -0.36974,0.1858 -0.50489,0.2687 -0.0676,0.042 -0.12399,0.08 -0.16651,0.1149 -0.0215,0.017 -0.0388,0.034 -0.0537,0.053 -0.0149,0.019 -0.0317,0.04 -0.0317,0.079 0,-0.013 0.007,-0.014 -0.006,-0.01 -0.0131,0.01 -0.04,0.023 -0.0758,0.034 -0.0723,0.023 -0.18048,0.038 -0.29939,0.038 -0.13354,0 -0.26672,0.022 -0.37864,0.059 -0.11192,0.036 -0.20472,0.082 -0.25537,0.1635 -0.006,0.01 -0.0245,0.026 -0.0644,0.044 -0.04,0.019 -0.095,0.038 -0.15999,0.054 -0.13008,0.032 -0.29873,0.053 -0.46936,0.053 -0.18245,0 -0.34824,0.021 -0.47425,0.058 -0.063,0.019 -0.11616,0.04 -0.15916,0.069 -0.043,0.03 -0.0834,0.073 -0.0834,0.1341 0,-0.024 0.0155,-0.038 0.0161,-0.038 0,0 -0.008,0.01 -0.0227,0.01 -0.0293,0.01 -0.0816,0.023 -0.15211,0.033 -0.141,0.022 -0.35552,0.043 -0.63407,0.058 -0.55709,0.032 -1.37265,0.049 -2.39791,0.049 -1.02531,0 -1.84057,-0.017 -2.39766,-0.049 -0.27855,-0.015 -0.49301,-0.036 -0.63401,-0.058 -0.0705,-0.011 -0.12315,-0.023 -0.15217,-0.033 -0.0143,-0.01 -0.0233,-0.01 -0.0227,-0.01 0,0 0.0161,0.013 0.0161,0.038 0,-0.055 -0.0322,-0.1 -0.0703,-0.1303 -0.0376,-0.031 -0.0844,-0.053 -0.13903,-0.072 -0.10923,-0.038 -0.25113,-0.059 -0.40725,-0.059 -0.27137,0 -0.84256,-0.1575 -1.22603,-0.3478 -0.55166,-0.2734 -1.0679,-0.5116 -1.47186,-0.6818 -0.20198,-0.085 -0.37565,-0.1532 -0.51277,-0.2005 -0.13712,-0.047 -0.22981,-0.076 -0.30435,-0.076 -0.006,0 -0.0917,-0.032 -0.17982,-0.095 -0.0882,-0.064 -0.18938,-0.1545 -0.27872,-0.2532 -0.097,-0.1073 -0.20831,-0.2036 -0.31277,-0.2749 -0.10445,-0.072 -0.19427,-0.1228 -0.28798,-0.1228 0.0221,0 -0.0102,-0.01 -0.046,-0.026 -0.0358,-0.023 -0.0846,-0.058 -0.1425,-0.1038 -0.11592,-0.091 -0.26953,-0.2243 -0.44631,-0.3848 -0.35361,-0.3212 -0.80117,-0.7532 -1.24007,-1.1938 -0.43896,-0.4405 -0.86943,-0.8898 -1.18936,-1.2447 -0.16,-0.1774 -0.29252,-0.3314 -0.38366,-0.4477 -0.0454,-0.058 -0.0807,-0.1072 -0.1032,-0.1432 -0.0221,-0.036 -0.0269,-0.068 -0.0269,-0.046 0,-0.085 -0.04,-0.1698 -0.0973,-0.2577 -0.0573,-0.088 -0.13378,-0.1764 -0.22038,-0.2483 -0.0685,-0.057 -0.17325,-0.1886 -0.28189,-0.3554 -0.10863,-0.1667 -0.22431,-0.3696 -0.32972,-0.5751 -0.10541,-0.2055 -0.20049,-0.414 -0.26875,-0.592 -0.0683,-0.1781 -0.10786,-0.3306 -0.10786,-0.3989 0,-0.098 -0.046,-0.2256 -0.11514,-0.3926 -0.069,-0.167 -0.16317,-0.362 -0.26732,-0.5475 -0.1981,-0.3527 -0.36383,-0.9045 -0.36383,-1.1817 0,-0.1593 -0.0209,-0.3039 -0.0585,-0.4152 -0.0185,-0.055 -0.0406,-0.1032 -0.0714,-0.1416 -0.0305,-0.038 -0.0753,-0.072 -0.13115,-0.072 0.0239,0 0.0376,0.016 0.0382,0.016 0,0.01 -0.006,-0.01 -0.01,-0.021 -0.0102,-0.028 -0.0221,-0.079 -0.0334,-0.1478 -0.0221,-0.137 -0.0424,-0.3455 -0.0579,-0.6163 -0.0317,-0.5415 -0.049,-1.3335 -0.049,-2.3276 l 0,-3.097 z m -19.04597,8.6094 c -0.049,0.01 -0.0943,0.026 -0.13089,0.059 -0.0732,0.066 -0.11448,0.1673 -0.14867,0.2994 -0.0684,0.2641 -0.10237,0.6653 -0.15508,1.1981 -0.10788,1.0902 0.21967,2.7554 0.71536,3.6146 0.30583,0.5301 1.24822,1.5918 2.17319,2.5362 0.46249,0.4722 0.91942,0.9124 1.28789,1.236 0.18423,0.1617 0.34628,0.2943 0.47749,0.388 0.0656,0.047 0.12318,0.084 0.17403,0.1108 0.0508,0.027 0.0925,0.045 0.14284,0.045 1.5e-4,0 0.0686,0.027 0.13526,0.09 0.0667,0.062 0.14051,0.1516 0.20116,0.2487 0.0693,0.1111 0.16155,0.2099 0.25764,0.2833 0.0961,0.073 0.19422,0.1248 0.29413,0.1248 0.0454,0 0.13133,0.029 0.21691,0.08 0.0856,0.052 0.17296,0.125 0.23698,0.2027 0.0816,0.099 0.2316,0.2156 0.41633,0.3384 0.18466,0.1228 0.40228,0.2482 0.61125,0.348 0.40265,0.1923 1.15879,0.6409 1.66685,0.99 0.27454,0.1886 0.48859,0.3318 0.65676,0.4329 0.16824,0.101 0.28822,0.1611 0.39065,0.1799 0.0514,0.01 0.10164,0.01 0.14602,-0.014 0.0442,-0.022 0.0752,-0.063 0.0927,-0.1067 0.0346,-0.088 0.0346,-0.1951 0.0293,-0.3369 -0.006,-0.1316 -0.0555,-0.4604 -0.13354,-0.9093 -0.0778,-0.4488 -0.18287,-1.0094 -0.29646,-1.5744 l -0.46697,-2.3234 -0.32823,0.9615 c -0.0644,0.1886 -0.13981,0.3604 -0.2073,0.4818 -0.0334,0.061 -0.0657,0.1091 -0.0906,0.1385 -0.0215,0.026 -0.0305,0.024 -0.0173,0.024 -0.007,-0.01 -0.0149,-0.01 -0.0269,-0.017 -0.0287,-0.021 -0.0689,-0.054 -0.11807,-0.099 -0.0985,-0.089 -0.23357,-0.2223 -0.39906,-0.3933 -0.33098,-0.342 -0.78439,-0.8357 -1.32201,-1.4386 -1.0753,-1.2057 -2.4881,-2.8485 -3.94091,-4.5944 -0.67595,-0.8124 -1.17861,-1.4201 -1.55723,-1.8432 -0.37864,-0.4231 -0.62465,-0.6632 -0.83022,-0.7419 -0.0514,-0.02 -0.104,-0.027 -0.15304,-0.02 z m 0.0997,0.1597 c 0.14085,0.054 0.39718,0.2832 0.7722,0.7023 0.37502,0.419 0.87765,1.0266 1.55374,1.839 1.4538,1.7472 2.8675,3.3908 3.94441,4.5983 0.5384,0.6038 0.99253,1.0983 1.32608,1.443 0.16674,0.1723 0.30333,0.3071 0.40635,0.4002 0.0514,0.047 0.0942,0.083 0.13031,0.1088 0.0179,0.013 0.034,0.024 0.0508,0.032 0.0167,0.01 0.0322,0.017 0.0615,0.017 0.0681,0 0.0989,-0.04 0.13407,-0.082 0.0352,-0.042 0.0703,-0.096 0.10703,-0.1621 0.0734,-0.1321 0.15139,-0.3102 0.21834,-0.5063 l 0.14948,-0.4381 0.35798,1.7814 c 0.11335,0.5637 0.21805,1.1234 0.29562,1.5706 0.0775,0.4472 0.12763,0.7901 0.13145,0.8894 0.006,0.1363 0,0.2346 -0.0185,0.2757 -0.008,0.021 -0.0137,0.025 -0.0203,0.028 -0.007,0.01 -0.0215,0.01 -0.0525,0.01 -0.0628,-0.011 -0.17809,-0.063 -0.34078,-0.1612 -0.16268,-0.098 -0.37541,-0.2399 -0.64918,-0.4279 -0.5157,-0.3544 -1.26874,-0.8019 -1.68697,-1.0017 -0.20144,-0.096 -0.41459,-0.2188 -0.59322,-0.3375 -0.17863,-0.1188 -0.32441,-0.2376 -0.3836,-0.3093 -0.0768,-0.093 -0.17504,-0.1747 -0.2749,-0.2353 -0.0998,-0.061 -0.19917,-0.102 -0.29413,-0.102 -0.0406,0 -0.12279,-0.032 -0.20377,-0.094 -0.081,-0.062 -0.1628,-0.1496 -0.22157,-0.2436 -0.0675,-0.1082 -0.14774,-0.2057 -0.22591,-0.2788 -0.0781,-0.073 -0.14559,-0.1297 -0.23699,-0.1297 -10e-4,0 -0.0322,-0.01 -0.0735,-0.028 -0.0413,-0.022 -0.0947,-0.055 -0.15683,-0.1 -0.12419,-0.089 -0.28354,-0.2186 -0.46553,-0.3784 -0.36397,-0.3196 -0.81917,-0.7582 -1.27972,-1.2285 -0.92111,-0.9403 -1.86896,-2.0178 -2.15075,-2.5063 -0.46741,-0.8102 -0.79921,-2.4806 -0.69583,-3.5255 0.0528,-0.5337 0.089,-0.9357 0.15101,-1.1751 0.031,-0.1197 0.0703,-0.1956 0.10435,-0.2264 0.034,-0.031 0.0599,-0.037 0.13031,-0.01 z"
     id="path4158"
     inkscape:connector-curvature="0"
     sodipodi:nodetypes="ssssssscccscccsssssccccscccccccscsccccccsssssssssccccccccssccscssscsssscccsssccccssssscccssscsssscssssssscccccssssssscscssscccsssscsssccccssssccccsssssssssssccscscccccssccscccssssssccsscccsssssscccssccccccsccsscccsssscccccsscccsssscccccsccscscscccscsccccccsscssssccscccssccsccccssccscccccccscccccccssccccccscsscsccccccccccccscsssssscccccscscccccccsccccsccccccssccccccccscsssccccscsscsccccccsscccssccccccsccsscccsssscccccssssssscssccccscscccccccscsccscccccssssccscscccssccsccccssccsccccccsscccccccssccccccscsscsccccccccccccsscccssccccscsccccscccccscscccccccsssssscccccscsssccccscsscsccccccsscccccssscccscscsccscccccccscccscccscssscccccssccccssccccscccccccscsssssscccscscscc"
     inkscape:export-xdpi="90"
     inkscape:export-ydpi="90"
     inkscape:export-filename="/home/rana/Desktop/character/3ALA2/a3edbelwesh2.png" />
  <path
     inkscape:connector-curvature="0"
     id="path4156"
     d="m 780.56549,1385.6801 c -1.57135,-0.6658 -2.3672,-0.9352 -4.37064,-1.4795 -0.95855,-0.2604 -2.26766,-0.75 -2.90931,-1.0879 -0.95114,-0.5011 -1.16644,-0.7005 -1.16644,-1.0799 0,-0.7 0.61699,-0.6818 2.29495,0.068 0.80243,0.3584 2.09243,0.8003 2.86666,0.982 0.7743,0.1817 2.07834,0.6222 2.8979,0.979 1.30057,0.5662 1.62779,0.6363 2.57272,0.5506 1.10247,-0.1 1.55672,-0.3133 3.63726,-1.7083 1.60324,-1.0749 2.78407,-1.4309 4.73017,-1.426 1.22025,0.01 1.85408,0.098 2.44617,0.3669 0.99228,0.4504 1.32852,1.1448 0.88329,1.8243 -0.38736,0.5912 -1.06186,0.5186 -1.21356,-0.1306 -0.10696,-0.458 -0.15563,-0.4706 -2.01538,-0.5227 -1.75816,-0.049 -1.99771,-0.011 -3.09457,0.4858 -0.65396,0.2964 -1.482,0.7937 -1.84016,1.105 -0.83408,0.725 -1.34882,0.9912 -2.51962,1.3029 -1.33718,0.3561 -1.91553,0.3146 -3.19944,-0.2294 z m 1.12619,-32.1523 c -0.30978,-0.067 0.87278,0.8103 2.62771,0.8492 7.06687,0.1562 10.72904,-2.1335 12.52016,-5.6489 0.49176,-0.9652 0.59072,-1.4156 0.72115,-3.2846 l 0.15122,-2.1661 -0.0532,2.1585 c -0.049,1.9822 -0.10021,3.1514 -0.62756,4.1856 -1.29233,2.5343 -4.06057,4.6712 -8.15608,5.8716 -3.44525,1.0098 -6.07488,-1.7245 -7.18332,-1.9653 z m -7.20172,-2.79 c -0.56217,-1.2087 -0.95861,-2.7797 -0.95908,-3.8003 0,-1.244 1.15365,-3.5775 1.7612,-3.5606 0.11306,0.01 0.35051,0.096 0.16054,0.2065 -0.54109,0.3145 -0.83683,2.389 -0.83701,3.327 0,1.0062 -0.43597,2.8531 0.0649,3.8349 0.20574,0.4033 0.64064,0.7671 0.59931,0.8084 -0.0412,0.041 -0.56186,-0.3258 -0.78982,-0.8159 z m 25.24839,-0.4749 c -0.006,-0.081 -0.0972,-0.5656 0.16215,-1.0773 0.75064,-1.4814 1.05558,-3.2884 0.84082,-4.9821 -0.0998,-0.7878 -0.27263,-1.7703 -0.38389,-2.1835 -0.11126,-0.4132 0.13497,-0.7882 0.18012,-0.8335 0.12763,-0.1276 0.8004,1.5047 0.99641,3.0506 0.21792,1.7186 -0.70819,3.5018 -1.5305,5.095 -0.30602,0.5928 -0.26009,1.0116 -0.26511,0.9308 z m -36.53487,-7.0813 c -1.29042,-0.071 -2.6841,-0.2225 -3.09702,-0.3365 -0.41292,-0.114 -1.44438,-0.2929 -2.29208,-0.3975 -0.84775,-0.1047 -1.94574,-0.3149 -2.44007,-0.4672 -0.49432,-0.1523 -1.60736,-0.4923 -2.47339,-0.7556 -0.86603,-0.2633 -1.66846,-0.5522 -1.78313,-0.6419 -0.11466,-0.09 -0.44307,-0.2191 -0.7298,-0.2876 -0.49157,-0.1175 -1.37779,-0.4925 -3.64317,-1.5412 -0.53547,-0.2478 -1.06186,-0.4507 -1.16978,-0.4507 -0.10792,0 -0.7482,-0.3379 -1.42288,-0.7508 -0.67463,-0.413 -1.31765,-0.7508 -1.42898,-0.7508 -0.11126,0 -0.42653,-0.1592 -0.70054,-0.3539 -0.274,-0.1947 -0.79383,-0.4925 -1.15515,-0.662 -0.36131,-0.1695 -1.04991,-0.5804 -1.53014,-0.9131 -0.48022,-0.3327 -1.59936,-1.0636 -2.48701,-1.6241 -0.88756,-0.5606 -1.61378,-1.0905 -1.61378,-1.1777 0,-0.087 -0.21115,-0.2389 -0.46925,-0.337 -0.25807,-0.098 -0.46924,-0.263 -0.46924,-0.3664 0,-0.1034 -0.44074,-0.5363 -0.97945,-0.9622 -0.53869,-0.4258 -1.16917,-1.0401 -1.40108,-1.3652 -0.23188,-0.325 -0.52897,-0.7142 -0.66018,-0.8649 -0.13119,-0.1508 -0.60984,-0.7784 -1.06361,-1.3948 -0.7474,-1.0153 -0.84086,-1.2634 -0.99255,-2.6353 -0.0921,-0.833 -0.20372,-1.6413 -0.24806,-1.7961 -0.12931,-0.4517 0.19872,-2.4747 0.51869,-3.1986 l 0.2938,-0.6646 -2.10352,-2.9454 c -1.15691,-1.6199 -2.85771,-4.1504 -3.77951,-5.6231 -3.3889,-5.4146 -6.76191,-12.7355 -6.94061,-15.064 -0.1427,-1.8596 -2.14084,-5.7611 -4.4064,-8.6039 -1.49649,-1.8778 -4.04228,-4.226 -5.42738,-5.0061 l -1.16641,-0.6568 -1.58082,-3.191 c -3.29841,-6.6577 -4.57282,-12.3067 -4.35983,-19.3256 0.1517,-4.9999 1.08535,-9.4836 2.95234,-14.1783 l 0.70911,-1.7832 -0.2667,-1.3139 c -0.39037,-1.923 -0.54561,-8.2315 -0.26626,-10.8187 1.29445,-11.9882 6.98422,-20.9967 16.40241,-25.9696 l 1.72106,-0.9088 2.28469,-3.0182 c 13.18151,-17.4132 30.28069,-28.675 48.29971,-31.8109 4.35112,-0.7572 5.80596,-0.8634 11.825,-0.8634 l 5.91244,0 0.87516,0.5145 c 2.24287,1.3185 2.57111,4.1438 0.99408,8.5562 l -0.63485,1.7763 1.72902,-0.1219 c 0.95096,-0.067 4.00951,-0.2866 6.7968,-0.4879 8.9007,-0.6427 14.3353,-0.8139 22.29723,-0.7027 7.74322,0.1083 11.15126,0.3424 15.71153,1.0797 5.8615,0.9476 10.22844,2.4903 12.5757,4.4426 1.32321,1.1005 3.45852,3.483 3.84683,4.2921 0.19398,0.4041 0.38873,1.2129 0.43275,1.7974 0.1,1.325 -0.45365,2.6395 -1.67927,3.9876 l -0.83731,0.921 1.52985,3.0379 c 1.66451,3.3051 2.89431,6.7497 3.35961,9.41 0.36514,2.0874 0.37052,5.3877 0.0113,7.1076 -0.39512,1.8937 -1.72215,4.4396 -3.11069,5.968 -0.6373,0.7015 -1.12744,1.3032 -1.08916,1.3369 0.0382,0.034 0.32656,0.192 0.64058,0.3514 1.13341,0.5758 2.84493,2.0087 3.70129,3.0987 4.44936,5.6634 4.61473,14.9813 0.48984,27.6004 -3.98049,12.1774 -8.30646,23.2595 -20.20916,41.1088 -1.84057,2.76 -6.60742,8.3226 -6.60742,8.3757 0,0.053 0.14781,0.098 0.32847,0.1 0.65826,0.01 5.45861,1.2992 7.83639,2.1102 1.34202,0.4577 2.82014,0.9446 3.28466,1.0819 1.337,0.3955 1.91637,0.726 2.73653,1.5616 0.42122,0.429 1.38341,1.3244 2.13829,1.9898 1.12009,0.9872 1.49646,1.4704 2.04656,2.6277 0.65438,1.3767 0.67588,1.492 0.7371,3.952 l 0.063,2.5339 -0.62577,0.9384 c -0.34424,0.5162 -0.86376,1.4106 -1.15467,1.9877 -0.94295,1.8711 -3.46914,4.8234 -6.56681,7.6746 -1.62379,1.4946 -3.09749,2.7957 -3.27487,2.8913 -0.17743,0.095 -0.67904,0.4981 -1.11483,0.8945 -0.43573,0.3964 -1.23816,1.0169 -1.78313,1.3788 -0.54496,0.3619 -1.20196,0.8202 -1.46008,1.0183 -1.46409,1.124 -5.15654,3.3598 -6.98774,4.2311 -4.46889,2.1263 -9.94828,3.7504 -13.63607,4.042 -1.27788,0.1009 -2.54482,0.1321 -2.81554,0.069 -0.2706,-0.063 -1.64033,-0.7456 -3.04386,-1.5171 -3.89801,-2.1426 -6.8324,-4.7738 -9.41616,-8.4427 -1.95913,-2.782 -3.59946,-7.1901 -4.25951,-11.4466 -0.21106,-1.3609 -0.38371,-2.7239 -0.38371,-3.0287 0,-0.4813 -0.0805,-0.5667 -0.61007,-0.6473 -0.33546,-0.051 -0.63968,-0.066 -0.67599,-0.033 -0.18866,0.1697 -0.22934,5.7164 -0.0549,7.5315 2.35963,11.3171 1.03158,10.3914 -0.18818,0 -0.11091,-1.1541 -0.15647,-3.3442 -0.10105,-4.8669 0.0932,-2.5645 0.076,-2.7686 -0.23262,-2.7686 -0.34137,0 -1.51545,0.3651 -1.51545,0.4712 0,0.032 -0.13336,0.721 -0.2964,1.5301 -0.16298,0.8091 -0.40755,2.0733 -0.54347,2.8092 -0.13593,0.736 -0.37118,1.6229 -0.52281,1.9709 -0.15164,0.348 -0.50704,1.2661 -0.78977,2.0404 -0.28266,0.7743 -0.60672,1.5767 -0.72001,1.7832 -0.11335,0.2064 -0.55679,1.0511 -0.98547,1.8769 -0.42863,0.8259 -1.10851,1.9662 -1.51086,2.534 -1.33294,1.8809 -2.21736,3.0031 -2.36685,3.0031 -0.0812,0 -0.14769,0.1079 -0.14769,0.2398 0,0.1319 -0.14781,0.3701 -0.32847,0.5292 -0.18066,0.1592 -0.91966,0.821 -1.6423,1.4709 -0.7227,0.6498 -1.56729,1.409 -1.87701,1.6872 -0.77985,0.7005 -2.75743,2.0304 -5.50931,3.705 -1.4881,0.9055 -3.81512,1.1104 -9.22493,0.8124 z m 5.6309,-1.407 c 0.7967,-0.1149 1.35641,-0.2947 2.10903,-0.6776 0.17929,-0.091 0.54801,-0.1658 0.81939,-0.1658 0.44893,0 1.29699,-0.4881 4.15714,-2.3927 0.54198,-0.3609 0.98542,-0.7331 0.98542,-0.8271 0,-0.094 0.16238,-0.2315 0.36084,-0.3056 0.70568,-0.2635 3.3239,-2.9907 4.93174,-5.1372 1.47801,-1.973 2.36834,-3.5616 3.78478,-6.753 2.05163,-4.6226 3.22183,-13.0956 2.38996,-17.3044 -0.40468,-2.0472 -1.91804,-3.9518 -3.7717,-4.7464 -0.15486,-0.066 -0.70388,-0.3117 -1.22006,-0.5453 -2.13597,-0.9661 -4.17094,-0.9345 -10.23519,0.1596 -2.52607,0.4557 -4.80405,0.8348 -5.06211,0.8425 -0.25812,0.01 -0.83289,0.115 -1.27722,0.2386 -0.60702,0.1687 -0.8615,0.1711 -1.02298,0.01 -0.29014,-0.2901 -1.0252,-0.2705 -2.94073,0.078 -1.50929,0.2748 -5.15265,1.3774 -5.87762,1.7789 -0.17922,0.099 -0.43716,0.1804 -0.57315,0.1804 -0.29288,0 -3.86821,1.1626 -4.85977,1.5802 -0.38008,0.1601 -0.74402,0.3769 -0.80882,0.4816 -0.0647,0.1048 -0.32507,0.1906 -0.57847,0.1906 -0.2534,0 -0.60737,0.081 -0.7866,0.1791 -0.17929,0.099 -1.29729,0.482 -2.48444,0.8522 -1.18722,0.3701 -2.3275,0.7424 -2.53396,0.8273 -1.50906,0.6202 -2.87383,1.2677 -3.19083,1.5139 -0.34424,0.2673 -0.91393,0.5563 -2.15854,1.0949 -0.25806,0.1117 -0.74372,0.257 -1.07924,0.3229 -0.33552,0.066 -0.61001,0.1931 -0.61001,0.2829 0,0.3865 1.00937,4.9708 2.13268,9.6862 0.66734,2.8012 1.23691,5.2929 1.26582,5.5371 0.0629,0.5316 -0.35667,1.8517 -0.58851,1.8517 -0.28583,0 -5.58114,-6.0257 -7.9049,-8.9953 l -0.49634,-0.6343 -0.22747,1.0165 c -0.40715,1.8194 -0.0485,3.9061 0.90356,5.2583 0.8805,1.2503 3.3934,3.7302 3.77994,3.7302 0.10094,0 0.27392,0.1689 0.3844,0.3754 0.11054,0.2065 0.3035,0.3789 0.42892,0.383 0.12542,0.01 0.52048,0.2576 0.87792,0.5631 0.35737,0.3055 0.79048,0.5555 0.96242,0.5555 0.17188,0 0.40814,0.1151 0.52496,0.2559 0.26152,0.3151 2.35717,1.621 2.60132,1.621 0.0975,0 0.32859,0.1673 0.51361,0.3718 0.18502,0.2045 0.61741,0.4244 0.96093,0.4889 0.34346,0.064 0.72359,0.2365 0.84471,0.3825 0.12112,0.146 0.52532,0.3995 0.89822,0.5635 0.37291,0.1639 1.35372,0.6163 2.17962,1.0052 0.82584,0.389 1.83945,0.8195 2.25237,0.9568 0.41292,0.1373 0.83103,0.3169 0.92909,0.399 0.0981,0.082 0.3145,0.1494 0.48089,0.1494 0.16644,0 0.66082,0.1731 1.09859,0.3846 2.17765,1.0521 7.30749,2.0593 11.94408,2.3451 1.13561,0.07 2.10049,0.1608 2.14414,0.2017 0.086,0.08 1.28887,-0.015 2.64217,-0.2109 z m -6.10432,-15.835 c -1.72633,-0.7842 -3.49423,-2.4035 -3.63989,-4.6979 -0.0741,-1.1661 -0.0239,-2.0305 0.44768,-2.9455 1.3419,-2.6052 5.16005,-3.3634 7.48104,-1.6214 1.6945,1.2717 2.65787,4.7728 1.92425,6.6937 -0.38581,1.0102 -1.42832,2.1068 -2.43983,2.5662 -1.00644,0.4571 -2.77273,0.4594 -3.77325,0.01 z m 2.13572,-3.4066 c 0.93657,-0.9263 1.16285,-1.0445 0.2976,-2.0904 -1.25697,0.1317 -1.22508,0.1192 -1.25697,0.1317 -0.50316,0.1931 -0.4828,1.1281 -0.22438,1.7521 0.34448,0.8316 0.34872,0.5871 1.18375,0.2066 z m 52.53774,17.1741 c 2.68296,-0.7101 6.43208,-2.058 8.67853,-3.12 1.86166,-0.8801 6.48655,-3.6934 7.50791,-4.5671 0.25806,-0.2206 0.83952,-0.6374 1.29209,-0.926 0.45252,-0.2886 1.17044,-0.8409 1.59542,-1.2274 0.42493,-0.3865 0.91298,-0.779 1.08456,-0.8723 0.17152,-0.093 1.46898,-1.2254 2.88309,-2.5158 2.66343,-2.4304 4.53458,-4.6114 6.01671,-7.0131 1.33778,-2.1678 1.52029,-3.6158 0.75142,-5.961 -0.95036,-2.8988 -1.84613,-4.3771 -3.58339,-5.9137 -1.38119,-1.2217 -1.92861,-1.4674 -4.13522,-1.8564 -0.83014,-0.1464 -1.92819,-0.4265 -2.44007,-0.6223 -1.56347,-0.5983 -2.15269,-0.7423 -4.68461,-1.1448 -1.34208,-0.2133 -2.70888,-0.4328 -3.03735,-0.4878 -0.44649,-0.075 -0.64649,-0.015 -0.79204,0.2347 -0.17415,0.2993 -0.19529,0.3014 -0.20043,0.021 -0.009,-0.5011 -1.03839,-0.7365 -6.51055,-1.4888 -2.95249,-0.4058 -4.20385,-0.4064 -8.88636,-0.01 -1.18716,0.102 -3.67889,0.1919 -5.53709,0.1999 -1.85813,0.01 -3.92751,0.1033 -4.59855,0.2119 -1.3668,0.2212 -3.09504,0.9191 -4.22319,1.7053 -0.41292,0.2878 -1.05947,0.7329 -1.43674,0.9892 -0.37726,0.2563 -1.06992,1.0401 -1.53916,1.7419 -0.7703,1.1519 -0.88359,1.4673 -1.16578,3.2467 -0.24354,1.5358 -0.28451,2.5715 -0.18526,4.6924 0.45545,9.7383 3.35998,16.5638 9.08142,21.3409 2.11924,1.7694 5.45246,3.6249 6.71063,3.7356 0.50757,0.044 1.59864,0.1439 2.42448,0.2207 1.67706,0.1558 2.29518,0.078 4.92953,-0.6191 z m -8.13554,-14.8986 c -1.01145,-0.4594 -2.65459,-1.5559 -3.04046,-2.5661 -0.73589,-1.927 0.22952,-5.4217 1.93453,-6.7016 2.30969,-1.7339 6.13203,-0.9699 7.47082,1.6292 0.47139,0.915 0.52168,1.4791 0.44762,2.6453 -0.1456,2.2942 -1.31293,4.2139 -3.0392,4.9981 -1.00053,0.4545 -2.76681,0.4522 -3.77331,-0.01 z m 2.43374,-3.76 c 0.66519,-0.3031 0.37452,-0.2355 0.0834,-0.9383 -0.12518,-0.3022 -0.0591,-0.2998 -0.22049,-0.3618 -0.512,-0.8118 -0.95669,-0.4319 -0.95669,-0.4319 -0.81443,0.2945 -1.18704,1.106 -0.8649,1.8837 0.34442,0.8316 1.12367,0.2287 1.95871,-0.1517 z m -18.84211,-6.8642 c 0,-0.5939 -0.077,-0.8446 -0.25968,-0.8446 -0.51313,0 -0.6622,1.4293 -0.16262,1.5599 0.18066,0.047 0.34961,0.096 0.37541,0.1075 0.0257,0.012 0.0466,-0.3582 0.0466,-0.8228 z m -0.86586,-0.097 c 0.0663,-0.4147 0.0725,-0.9458 0.0137,-1.1802 -0.0585,-0.2344 0.1078,-1.0986 0.37022,-1.9206 0.26248,-0.8219 0.48034,-1.7901 0.48423,-2.1513 0.0113,-1.0409 0.34179,-2.2205 0.9915,-3.537 0.46542,-0.943 0.84077,-1.3958 1.65676,-1.9989 2.2145,-1.6368 4.24547,-2.3799 8.49757,-3.1093 2.33024,-0.3996 2.73104,-0.4109 10.79264,-0.3027 7.48002,0.1004 10.36425,0.237 12.90477,0.6113 l 0.77842,0.1147 0.1336,-1.9607 c 0.17922,-2.6289 -0.0126,-14.4694 -0.25126,-15.532 -0.10439,-0.4645 -0.36418,-2.1538 -0.57733,-3.754 -0.21315,-1.6 -0.59615,-4.0074 -0.85116,-5.3493 l -0.46368,-2.4401 -0.98494,-0.8939 c -1.00931,-0.916 -2.60025,-1.8277 -3.18947,-1.8277 -0.18298,0 -0.78218,0.5655 -1.34237,1.2669 -4.36725,5.4681 -11.43573,8.7459 -20.77705,9.6347 -2.84278,0.2704 -9.09976,0.1195 -12.20029,-0.2943 -5.42726,-0.7243 -15.72217,-3.0565 -18.72936,-4.2429 -2.91701,-1.1508 -6.49503,-3.3386 -9.98836,-6.1075 -2.25923,-1.7907 -8.37365,-7.9613 -10.8382,-10.9379 -1.94289,-2.3465 -2.06585,-2.5428 -1.82374,-2.9123 0.28255,-0.4313 0.86657,-1.9856 0.74605,-1.9856 -0.0406,0 -0.69176,0.2198 -1.44635,0.4885 -3.2391,1.1532 -6.17229,3.0999 -7.89934,5.2426 -0.72801,0.9033 -1.02782,1.5153 -1.55036,3.1648 -3.4204,10.7971 -3.50782,26.7726 -0.2497,45.6309 0.57289,3.3159 0.79715,3.9277 1.20045,3.2751 0.0668,-0.1082 0.9798,-0.6207 2.02882,-1.1388 1.04896,-0.5182 2.08162,-1.1054 2.29477,-1.305 0.21309,-0.1995 0.4853,-0.3627 0.60487,-0.3627 0.19803,0 1.92072,-0.7256 2.7121,-1.1423 0.17929,-0.094 0.41561,-0.1716 0.52526,-0.1716 0.10959,0 0.54896,-0.1689 0.97628,-0.3754 0.42731,-0.2064 0.89589,-0.3754 1.04119,-0.3754 0.14537,0 0.48847,-0.1184 0.76248,-0.2633 0.27406,-0.1447 1.2584,-0.4945 2.1875,-0.7772 0.9291,-0.2826 1.82099,-0.5772 1.982,-0.6545 0.16101,-0.077 0.79448,-0.2438 1.40771,-0.37 0.61329,-0.1262 1.24742,-0.2991 1.40927,-0.3844 0.16184,-0.085 1.09094,-0.2891 2.06465,-0.453 0.97377,-0.1639 1.93936,-0.3773 2.14582,-0.4742 0.20646,-0.097 1.76909,-0.4322 3.47243,-0.7453 1.70334,-0.313 5.07179,-0.9445 7.4854,-1.4034 3.83673,-0.7295 4.80931,-0.8467 7.7357,-0.9324 2.05569,-0.06 3.39037,-0.028 3.45905,0.083 0.0614,0.1 0.48267,0.1809 0.93608,0.1809 1.10689,0 2.74459,0.357 3.10992,0.6781 0.16298,0.1432 0.39637,0.2603 0.51868,0.2603 0.12237,0 0.41131,0.1056 0.6422,0.2347 1.45435,0.8129 2.85089,2.7085 3.13004,4.2487 0.0864,0.4763 0.12541,2.7876 0.0869,5.1362 l -0.0701,4.2701 0.91172,0 0.91177,0 z m 4.92392,28.7284 c -82.14255,138.722 -41.07125,69.361 0,0 z"
     style="fill:#000000"
     sodipodi:nodetypes="sssscccsscssssccsssssscsssssccccssscssscsscscccccccsssssccsssccscscscssssscssscssscssscsscsssssscscsscsscsscscssscsscssscscsscsssssscccssssscsssssscscssccsssssssccscscsssssscsccccssssscssssccscsccccccsscsccccssssccccccccssscccssssscscccssssccsssscsscsssscccccccccssccsscscssssscscsscsssssssssssssscccscssscssscscssscsssssscccscc"
     inkscape:export-xdpi="90"
     inkscape:export-ydpi="90"
     inkscape:export-filename="/home/rana/Desktop/character/3ALA2/a3edbelwesh2.png" />
  <path
     style="fill:#000000;fill-opacity:1;stroke:#000000;stroke-width:10;stroke-linecap:round;stroke-linejoin:miter;stroke-miterlimit:4;stroke-opacity:1;stroke-dasharray:none"
     d="m -1606.0199,2307.6089 335.014,0 c 0,0 26.5718,1169.3177 -42,882.2714 -126.5606,-529.7916 -74.9089,-536.1966 -126.5606,-529.7916 -48.2423,5.9822 0,0 -86.4534,529.7916 -47.5131,291.1634 -80,-882.2714 -80,-882.2714 z"
     id="rect4219"
     inkscape:connector-curvature="0"
     sodipodi:nodetypes="ccsssc"
     inkscape:export-xdpi="90"
     inkscape:export-ydpi="90" />
  <flowRoot
     xml:space="preserve"
     id="flowRoot4222"
     style="font-size:70px;font-style:normal;font-variant:normal;font-weight:bold;font-stretch:normal;text-align:center;line-height:125%;letter-spacing:0px;word-spacing:0px;text-anchor:middle;fill:#000000;fill-opacity:1;stroke:none;font-family:Segoe Print;-inkscape-font-specification:Segoe Print Bold"
     inkscape:export-xdpi="90"
     inkscape:export-ydpi="90"
     transform="matrix(0.16062818,0,0,0.16062818,666.30385,1175.7058)"
     inkscape:export-filename="/home/rana/Desktop/character/3ALA2/a3edbelwesh2.png"><flowRegion
       id="flowRegion4224"><rect
         id="rect4226"
         width="202.33698"
         height="289.05283"
         x="621.46356"
         y="1895.1785"
         style="font-size:70px;font-style:normal;font-variant:normal;font-weight:bold;font-stretch:normal;text-align:center;text-anchor:middle;font-family:Segoe Print;-inkscape-font-specification:Segoe Print Bold" /></flowRegion><flowPara
       id="flowPara4228"
       style="font-size:70px;font-style:normal;font-variant:normal;font-weight:bold;font-stretch:normal;text-align:center;text-anchor:middle;font-family:Segoe Print;-inkscape-font-specification:Segoe Print Bold">GNU Linux</flowPara></flowRoot>  <path
     style="fill:#000000;fill-rule:evenodd;stroke:#000000;stroke-width:1.60628176;stroke-linecap:butt;stroke-linejoin:miter;stroke-miterlimit:4;stroke-opacity:1;stroke-dasharray:none"
     d="m 758.58713,1439.9599 c 1.25592,0.5719 0.14557,5.9799 -2.65755,13.9959 -2.80312,8.016 -7.29901,18.6402 -12.82931,30.2916 -0.28357,0.5975 -0.56712,1.192 -0.85052,1.7834 0,0 0,0 0,0 4.7528,11.4306 8.54173,21.7675 10.82662,29.531 2.28489,7.7635 3.06575,12.9528 1.8173,13.4522 -1.24845,0.4994 -4.29476,-3.8792 -8.23254,-11.6724 -3.93778,-7.7932 -8.767,-19.0016 -13.59614,-31.5258 0,0 0,0 0,0 0.27927,-0.6442 0.56137,-1.292 0.84619,-1.9427 5.55464,-12.692 11.09945,-24.118 15.5658,-32.0663 4.46635,-7.9483 7.85423,-12.4188 9.11015,-11.8469 z"
     id="path4266"
     inkscape:path-effect="#path-effect4268;#path-effect4270"
     inkscape:original-d="m 758.58713,1439.9599 c -9.78692,11.5271 -14.37657,30.3252 -20.92976,45.9634 7.53574,14.8647 11.72675,29.3168 17.2363,43.0907"
     inkscape:connector-curvature="0"
     inkscape:export-xdpi="90"
     inkscape:export-ydpi="90"
     inkscape:export-filename="/home/rana/Desktop/character/3ALA2/a3edbelwesh2.png" />
  <path
     inkscape:connector-curvature="0"
     inkscape:original-d="m 805.02974,1439.9854 c 9.00891,12.1449 12.35425,31.2038 17.86643,47.2386 -8.4956,14.3378 -13.62652,28.4835 -20.02862,41.8658"
     inkscape:path-effect="#path-effect4274;#path-effect4276"
     id="path4272"
     d="m 805.02974,1439.9854 c 1.29076,-0.4882 4.37778,4.1951 8.31256,12.4195 3.93479,8.2244 8.71734,19.9899 13.42658,33.0192 0.24148,0.6681 0.48044,1.333 0.71681,1.9942 0,0 0,0 0,0 -5.64111,12.1801 -11.1959,23.0472 -15.63691,30.5649 -4.44101,7.5178 -7.76827,11.6869 -8.98123,11.1066 -1.21296,-0.5803 -0.093,-5.7071 2.69671,-13.3038 2.78974,-7.5967 7.24925,-17.6625 12.74239,-28.7563 0,0 0,0 0,0 -0.24396,-0.6088 -0.48788,-1.2206 -0.73162,-1.8354 -4.75326,-11.9895 -8.54181,-22.8859 -10.81251,-31.0687 -2.2707,-8.1828 -3.02354,-13.652 -1.73278,-14.1402 z"
     style="fill:#000000;fill-rule:evenodd;stroke:#000000;stroke-width:1.60628176;stroke-linecap:butt;stroke-linejoin:miter;stroke-miterlimit:4;stroke-opacity:1;stroke-dasharray:none"
     inkscape:export-xdpi="90"
     inkscape:export-ydpi="90"
     inkscape:export-filename="/home/rana/Desktop/character/3ALA2/a3edbelwesh2.png" />
  <path
     style="fill:#000000;stroke:#000000;stroke-width:0.16062818px;stroke-linecap:butt;stroke-linejoin:miter;stroke-opacity:1"
     d="m 808.38388,1559.7614 -54.17113,2.4623 -37.7556,42.361 c 0,0 -1.65806,74.2883 4.92458,77.9736 9.1102,5.1002 18.87782,-68.9451 18.87782,-68.9451 l 23.80252,-21.3401 -11.49091,24.6232 c 0,0 -8.32378,63.0757 0.82083,67.3035 7.979,3.689 18.77767,-66.4827 21.34011,-66.4827 12.96061,-10.3024 24.02851,-21.2212 29.11194,-31.6038 4.66759,-9.5333 3.839,-18.6146 4.53984,-26.3519 z"
     id="path2998"
     inkscape:connector-curvature="0"
     sodipodi:nodetypes="cccscccscsc"
     inkscape:export-filename="/home/rana/Desktop/character/3ALA2/a3edbelwesh2.png"
     inkscape:export-xdpi="90"
     inkscape:export-ydpi="90" />
  <path
     transform="matrix(0.16062818,0,0,0.18599052,712.73387,1119.256)"
     d="m 646.75572,1080.4109 a 35.228313,34.325024 0 1 1 -70.45663,0 35.228313,34.325024 0 1 1 70.45663,0 z"
     sodipodi:ry="34.325024"
     sodipodi:rx="35.228313"
     sodipodi:cy="1080.4109"
     sodipodi:cx="611.5274"
     id="path3005"
     style="fill:#ffffff;fill-opacity:1;stroke:none"
     sodipodi:type="arc"
     inkscape:export-filename="/home/rana/Desktop/character/3ALA2/a3edbelwesh2.png"
     inkscape:export-xdpi="90"
     inkscape:export-ydpi="90" />
  <path
     sodipodi:type="arc"
     style="fill:#ffffff;fill-opacity:1;stroke:none"
     id="path3007"
     sodipodi:cx="611.5274"
     sodipodi:cy="1080.4109"
     sodipodi:rx="35.228313"
     sodipodi:ry="34.325024"
     d="m 646.75572,1080.4109 a 35.228313,34.325024 0 1 1 -70.45663,0 35.228313,34.325024 0 1 1 70.45663,0 z"
     transform="matrix(0.16062818,0,0,0.18599052,665.72347,1120.4169)"
     inkscape:export-filename="/home/rana/Desktop/character/3ALA2/a3edbelwesh2.png"
     inkscape:export-xdpi="90"
     inkscape:export-ydpi="90" />
  <path
     sodipodi:type="arc"
     style="fill:#000000;fill-opacity:1;stroke:none"
     id="path3009"
     sodipodi:cx="612.43066"
     sodipodi:cy="1084.9272"
     sodipodi:rx="27.098701"
     sodipodi:ry="29.808573"
     d="m 639.52937,1084.9272 a 27.098701,29.808573 0 1 1 -54.19741,0 27.098701,29.808573 0 1 1 54.19741,0 z"
     transform="matrix(0.19810809,0,0,0.19810809,640.13453,1107.2488)"
     inkscape:export-filename="/home/rana/Desktop/character/3ALA2/a3edbelwesh2.png"
     inkscape:export-xdpi="90"
     inkscape:export-ydpi="90" />
  <path
     transform="matrix(0.19810809,0,0,0.19810809,685.5016,1106.9949)"
     d="m 639.52937,1084.9272 a 27.098701,29.808573 0 1 1 -54.19741,0 27.098701,29.808573 0 1 1 54.19741,0 z"
     sodipodi:ry="29.808573"
     sodipodi:rx="27.098701"
     sodipodi:cy="1084.9272"
     sodipodi:cx="612.43066"
     id="path3011"
     style="fill:#000000;fill-opacity:1;stroke:none"
     sodipodi:type="arc"
     inkscape:export-filename="/home/rana/Desktop/character/3ALA2/a3edbelwesh2.png"
     inkscape:export-xdpi="90"
     inkscape:export-ydpi="90" />
</svg>
