<?xml version="1.0" encoding="UTF-8" standalone="no"?>
<!-- Created with Inkscape (http://www.inkscape.org/) -->

<svg
   xmlns:dc="http://purl.org/dc/elements/1.1/"
   xmlns:cc="http://creativecommons.org/ns#"
   xmlns:rdf="http://www.w3.org/1999/02/22-rdf-syntax-ns#"
   xmlns:svg="http://www.w3.org/2000/svg"
   xmlns="http://www.w3.org/2000/svg"
   xmlns:sodipodi="http://sodipodi.sourceforge.net/DTD/sodipodi-0.dtd"
   xmlns:inkscape="http://www.inkscape.org/namespaces/inkscape"
   id="svg3336"
   version="1.1"
   inkscape:version="0.91 r13725"
   width="375"
   height="292.5"
   viewBox="0 0 375 292.5"
   sodipodi:docname="afashrook.svg">
  <metadata
     id="metadata3342">
    <rdf:RDF>
      <cc:Work
         rdf:about="">
        <dc:format>image/svg+xml</dc:format>
        <dc:type
           rdf:resource="http://purl.org/dc/dcmitype/StillImage" />
        <dc:title />
      </cc:Work>
    </rdf:RDF>
  </metadata>
  <defs
     id="defs3340" />
  <sodipodi:namedview
     pagecolor="#ffffff"
     bordercolor="#666666"
     borderopacity="1"
     objecttolerance="10"
     gridtolerance="10"
     guidetolerance="10"
     inkscape:pageopacity="0"
     inkscape:pageshadow="2"
     inkscape:window-width="1024"
     inkscape:window-height="706"
     id="namedview3338"
     showgrid="false"
     inkscape:zoom="0.57535525"
     inkscape:cx="396.70518"
     inkscape:cy="-94.496009"
     inkscape:window-x="-8"
     inkscape:window-y="-8"
     inkscape:window-maximized="1"
     inkscape:current-layer="layer11" />
  <path
     inkscape:connector-curvature="0"
     id="path3358"
     d="m -380.78563,262.94493 c -2.42601,-2.13006 -6.51781,-8.13581 -9.09287,-13.34611 -5.48685,-11.10188 -6.71331,-22.5053 -3.65058,-33.94244 1.67082,-6.23933 1.63155,-7.19664 -0.48713,-11.875 -7.07822,-15.6298 -8.9322,-20.84436 -10.81133,-30.4082 -1.93547,-9.85059 -1.93314,-11.27439 0.0354,-21.54325 1.1593,-6.04755 4.06768,-16.25866 6.46305,-22.69135 5.7413,-15.41801 5.9343,-24.83155 0.77333,-37.720195 -14.40585,-35.97621 -14.30005,-35.61856 -14.89559,-50.3551 -0.6103,-15.1017 1.14123,-26.68232 6.69435,-44.2610405 3.24481,-10.2716495 9.77869,-18.8043595 16.29708,-21.2826395 8.12818,-3.09033 25.11902,0.51904 35.82486,7.61029 5.7636,3.81765 12.81494,12.3627095 15.61492,18.9226795 1.1231,2.63128 3.14149,3.89422 9.30875,5.8246 4.33109,1.35565 10.96846,3.6968005 14.74971,5.2025505 3.78125,1.50575 8.07847,3.0165 9.54938,3.35722 3.27812,0.75933 9.19891,-2.90713 9.20529,-5.70041 0.009,-3.7686505 4.65753,-9.7235905 9.31725,-11.9347705 5.75657,-2.73167 16.48443,-2.92745 21.36408,-0.3899 3.89735,2.02674001 8.15387,6.23911 10.20192,10.09609 1.07159,2.0180705 1.72239,1.44151 5.07164,-4.49302 4.19437,-7.43202 10.00351,-13.01377 14.79569,-14.2165295 1.68442,-0.42276 8.60162,-0.54618 15.37159,-0.27426 11.52347,0.46284 12.77771,0.7813195 19.65357,4.9903795 4.03953,2.47279 8.75084,4.91817001 10.46959,5.43418001 8.57971,2.57585999 22.5,14.15993049 22.5,18.72387049 0,1.01618 1.54687,2.17129 3.4375,2.56693 1.89062,0.39565 5.7692,1.30672 8.61906,2.02461 5.82148,1.46646 7.45879,1.10974 19.81844,-4.31776 4.8125,-2.11331 11.51911,-4.7658 14.90358,-5.89441 5.73364,-1.91198 6.29217,-2.47719 8.18473,-8.2826505 3.7985,-11.65195 13.019121,-21.2884295 25.057831,-26.1880095 8.50473,-3.46129 19.99335,-5.15834 25.52386,-3.77027 5.0305,1.26258 12.6244,8.87277 15.48183,15.5150395 6.04004,14.04047 7.72317,24.0504405 7.72317,45.9316105 l 0,20.73583 -5.15546,13.34964 c -2.83552,7.34231 -6.60578,16.72465 -8.37838,20.84965 -2.01543,4.69012 -3.41236,10.614925 -3.72862,15.814205 -0.43915,7.21974 0.0964,9.93479 4.0684,20.625 5.20205,14.00082 8.19406,26.76561 8.19406,34.95825 0,8.78307 -3.5806,22.36273 -8.99126,34.09993 -4.79314,10.39764 -4.91225,10.97615 -3.60776,17.52359 2.16798,10.88148 1.6774,22.8826 -1.2559,30.72252 -2.85767,7.6378 -8.65333,15.89093 -13.87797,19.76249 -2.96267,2.1954 -3.81244,2.29999 -7.21994,0.88855 -4.99552,-2.06921 -8.35692,-6.88845 -10.13207,-14.52639 -0.78206,-3.36497 -2.59643,-10.3369 -4.03193,-15.49315 -2.35105,-8.44491 -2.68475,-13.96341 -3.36356,-55.625 -0.75306,-46.21799 -0.75592,-46.25655 -4.1366,-55.71897 -4.167141,-11.6637 -4.256051,-17.89793 -0.38696,-27.131185 7.0142,-16.73888 8.81164,-29.77872 5.27236,-38.2494 -0.95237,-2.27934 -3.72351,-5.37534 -6.158101,-6.88 l -4.4265,-2.73573 -13.20552,4.04191 c -12.86448,3.93753 -13.15645,4.10818 -11.30535,6.60765 3.53251,4.7698 8.05256,15.04571 8.06485,18.33466 0.006,1.79791 -1.05043,4.61985 -2.34922,6.27099 -1.29878,1.65114 -3.27785,5.19538 -4.39792,7.8761 -1.94675,4.65922 -1.92531,4.9924 0.48642,7.55958 1.79455,1.910195 2.52293,4.388035 2.52293,8.582605 0,7.91358 -2.73981,13.9892 -7.65694,16.97948 -3.73151,2.26927 -4.2449,3.3957 -6.39245,14.02577 -9.88486,48.9287 -47.92229,81.87695 -91.69036,79.42275 -41.4662,-2.32512 -75.79654,-37.31426 -83.28081,-84.87896 -1.396,-8.87201 -1.94836,-10.1691 -5.00318,-11.74881 -7.62817,-3.94468 -9.82075,-17.20825 -3.99014,-24.137525 1.77986,-2.11525 4.35799,-3.84591 5.72916,-3.84591 1.37118,0 2.2803,-0.42187 2.02028,-0.9375 -9.47667,-18.79209 -11.51213,-27.16777 -8.61913,-35.46664 1.81382,-5.20314 1.21609,-5.54544 -11.37967,-6.51675 -8.00217,-0.61709 -10.75761,-0.36741 -13.44142,1.21795 -5.4733,3.23316 -6.62586,6.29663 -6.54393,17.39365 0.0636,8.61252 0.80034,12.13627 4.71903,22.5701 5.51551,14.685465 5.65567,18.988835 1.05414,32.364185 l -3.4403,10 -0.46335,44.375 c -0.35145,33.65834 -0.90306,46.03532 -2.28405,51.25 -1.00138,3.78125 -2.44111,9.40625 -3.19941,12.5 -0.75829,3.09375 -1.94323,7.84692 -2.6332,10.56261 -1.44833,5.70054 -8.30977,13.18739 -12.08578,13.18739 -1.41982,0 -4.56642,-1.74278 -6.99242,-3.87285 z m 175.57393,-49.34176 c 13.56323,-3.99748 23.72869,-10.35923 35.68661,-22.3334 9.81101,-9.82436 12.16639,-13.06814 17.75514,-24.45199 6.48794,-13.21542 9.45141,-22.54496 11.0353,-34.74097 0.77594,-5.97475 1.2589,-6.78298 4.98306,-8.33903 5.07518,-2.12055 8.03989,-7.55332 8.03989,-14.73293 0,-7.01865 -1.58706,-8.43707 -9.44015,-8.43707 -8.02445,0 -13.47574,-3.396655 -18.05509,-11.249995 -2.55257,-4.37754 -5.20381,-6.66423 -11.95487,-10.31105 -4.77119,-2.57733 -10.72007,-6.9367 -13.21973,-9.6875 -2.49966,-2.7508 -5.59341,-5.0138 -6.875,-5.0289 -1.28159,-0.0151 -4.74421,-1.12309 -7.69472,-2.4622 -4.44224,-2.01613 -5.8769,-3.59319 -8.34442,-9.17267 -2.53782,-5.73849 -3.5932,-6.86061 -7.11497,-7.56496 -2.27433,-0.45487 -6.38985,-2.31912 -9.14559,-4.14279 -3.73066,-2.46883 -6.35851,-3.24598 -10.28814,-3.04257 -5.60261,0.29002 -10.04866,-1.52984 -18.24756,-7.4691 -2.74717,-1.99004 -5.33234,-3.61614 -5.74481,-3.61357 -0.41248,0.003 -1.82953,2.67445 -3.14901,5.9375 -2.90612,7.18677 -23.65375,28.14668 -30.20748,30.51654 -3.84393,1.38998 -4.26846,2.01854 -4.26846,6.31983 0,5.01739 -5.81932,19.33261 -8.85163,21.77454 -0.97535,0.78545 -5.42962,2.41159 -9.89837,3.61363 -10.0643,2.70718 -12.61792,5.0069 -13.33127,12.005755 -0.602,5.90635 2.94887,13.57751 6.28484,13.57751 3.03603,0 4.45815,3.0639 5.79401,12.48294 5.97867,42.15511 35.37538,75.89986 71.87742,82.50873 8.42668,1.5257 25.94314,0.52883 34.375,-1.95628 z m -45,-2.96162 c 0,-0.72807 0.5625,-1.32377 1.25,-1.32377 0.6875,0 1.25,0.24805 1.25,0.55122 0,0.30318 -0.5625,0.89888 -1.25,1.32378 -0.6875,0.4249 -1.25,0.17685 -1.25,-0.55123 z m -8.49937,-2.5977 c -5.3064,-3.23525 -4.03827,-5.95822 1.31798,-2.83001 3.70985,2.16668 6.00625,5.35895 3.84805,5.34926 -0.57291,-0.002 -2.89762,-1.13623 -5.16603,-2.51925 z m -7.12563,-6.22607 c -0.4249,-0.6875 -0.17685,-1.25 0.55122,-1.25 0.72808,0 1.32378,0.5625 1.32378,1.25 0,0.6875 -0.24805,1.25 -0.55123,1.25 -0.30317,0 -0.89887,-0.5625 -1.32377,-1.25 z m 32.5,-4.91884 c -2.0625,-0.50211 -5.71875,-1.92989 -8.125,-3.17282 -13.76568,-7.11065 -19.99866,-14.35989 -26.3061,-30.5952 -3.06226,-7.88225 -3.36579,-8.21434 -8.125,-8.88963 -13.44086,-1.90711 -21.92906,-12.74625 -20.00892,-25.55066 1.78647,-11.913 11.95026,-19.96105 24.05228,-19.04545 22.09669,1.67176 28.96313,29.61399 10.15096,41.30826 -3.30727,2.05591 -6.01322,3.92235 -6.01322,4.14765 0,2.47855 7.08925,18.10164 10.14431,22.35573 6.94603,9.67216 20.01868,16.86096 30.66124,16.86096 9.78621,0 16.45245,-3.50761 25.17079,-13.24424 6.55701,-7.32286 16.52366,-22.07466 16.52366,-24.45695 0,-0.5489 -2.19331,-2.11695 -4.87404,-3.48455 -10.05157,-5.12794 -14.10823,-18.63082 -8.85649,-29.47949 3.03349,-6.26635 7.64117,-9.80492 15.60115,-11.98123 10.68549,-2.92149 24.37205,5.29821 26.34649,15.82282 2.84626,15.17189 -5.17368,26.84766 -19.82029,28.8552 -4.99738,0.68496 -5.65315,1.2303 -8.87182,7.3779 -4.3336,8.27706 -17.64295,23.94628 -24.19886,28.48953 -2.96323,2.05351 -7.87997,3.90068 -12.31662,4.62723 -4.06148,0.66512 -7.38452,1.15498 -7.38452,1.08859 0,-0.0664 -1.6875,-0.53154 -3.75,-1.03365 z m 92.70834,-77.1645 c -0.45834,-0.45832 -0.83334,-1.6522 -0.83334,-2.65305 0,-1.53022 0.31981,-1.5543 2.01026,-0.15135 1.70998,1.41915 2.2772,1.30333 3.79718,-0.77537 2.56491,-3.50773 1.62191,-7.22585 -2.05744,-8.11225 l -3.125,-0.75285 2.72569,-1.48341 c 2.21326,-1.20454 3.09452,-1.1146 4.6875,0.47838 2.2393,2.2393 2.58,8.29251 0.66784,11.86541 -1.24428,2.32495 -6.14575,3.31144 -7.87269,1.58449 z m -175.55521,-3.61254 c -4.0847,-2.86103 -3.91194,-11.00358 0.2919,-13.75805 1.68851,-1.10636 3.65727,-1.64863 4.375,-1.20504 2.03169,1.25564 1.55538,2.45628 -1.50753,3.80006 -2.01747,0.88511 -2.8125,2.29396 -2.8125,4.98391 0,3.3448 0.37143,3.71112 3.4375,3.39019 3.66873,-0.38402 4.37581,0.7965 1.9375,3.23481 -1.92883,1.92882 -2.3819,1.89352 -5.72187,-0.44588 z m 97.93616,-20.018405 c -1.08037,-1.08035 -1.96429,-2.52358 -1.96429,-3.20717 0,-6.27127 8.91812,-8.57062 11.47513,-2.95862 2.64756,5.81076 -4.94421,10.732425 -9.51084,6.16579 z m 60.53672,-2.40883 c -0.9193,-1.71771 -1.24961,-3.54495 -0.73402,-4.06053 1.08405,-1.08405 4.48301,3.12204 4.48301,5.54756 0,2.65063 -1.94814,1.87791 -3.74899,-1.48703 z m -75.58042,-3.07651 c -4.94313,-5.46209 1.30422,-12.32007 7.51561,-8.25021 3.71706,2.43551 3.88505,4.87859 0.5638,8.19984 -3.14654,3.14654 -5.26547,3.15974 -8.07941,0.0504 z m 29.32941,-7.59253 c 0,-0.71068 -1.96875,-2.45374 -4.375,-3.87347 -2.40625,-1.41972 -4.375,-3.08825 -4.375,-3.70784 0,-2.47468 5.98256,-0.91747 9.14114,2.37937 3.73661,3.90018 4.3293,6.4941 1.48386,6.4941 -1.03125,0 -1.875,-0.58147 -1.875,-1.29216 z m -40,-5.28494 c 0,-2.79008 4.26269,-5.96043 9.06105,-6.73909 4.66309,-0.75672 7.82254,1.54545 3.83067,2.79127 -1.88183,0.5873 -5.38361,2.13515 -11.95422,5.28398 -0.51563,0.2471 -0.9375,-0.35417 -0.9375,-1.33616 z m 46.34267,-10.76948 c -1.66777,-0.46605 -3.28996,-1.62028 -3.60485,-2.56495 -0.42682,-1.28045 0.18584,-1.49789 2.40733,-0.85437 1.63891,0.47476 4.80797,1.19616 7.04235,1.60311 2.23437,0.40694 4.0625,1.2288 4.0625,1.82634 0,1.2452 -5.43506,1.23964 -9.90733,-0.0101 z m -86.34267,-2.65342 c 1.71875,-1.34442 4.19655,-2.45691 5.50624,-2.4722 2.3021,-0.0269 2.30605,0.0553 0.11875,2.4722 -1.24437,1.375 -3.72217,2.4875 -5.50624,2.47221 l -3.24375,-0.0278 3.125,-2.44441 z m 60.625,-21.24999 c -0.4249,-0.6875 -0.17685,-1.25 0.55122,-1.25 0.72808,0 1.32378,0.5625 1.32378,1.25 0,0.6875 -0.24805,1.25 -0.55123,1.25 -0.30317,0 -0.89887,-0.5625 -1.32377,-1.25 z m -20.9129,-3.78646 c -11.75744,-7.78781 -10.38753,-10.61706 1.47997,-3.05655 3.7494,2.38865 8.39003,4.34301 10.31251,4.34301 1.92248,0 3.49542,0.5625 3.49542,1.25 0,2.81624 -9.61525,1.22095 -15.2879,-2.53646 z"
     style="fill:#deb19f" />
  <path
     inkscape:connector-curvature="0"
     id="path3356"
     d="m 474.41233,1180.7666 c -4.62283,-2.506 -12.91817,-15.4728 -15.43328,-24.1244 -2.12553,-7.3116 -1.71746,-21.5538 0.80788,-28.1959 1.0976,-2.8869 0.46972,-5.2934 -4.19967,-16.096 -6.59509,-15.2578 -6.69057,-15.5609 -8.13384,-25.8267 -1.37721,-9.7958 1.12062,-26.9864 5.44884,-37.5 9.63054,-23.3934 9.59685,-23.7288 -6.37845,-63.50176 -5.52327,-13.75104 -7.23381,-24.27517 -6.32961,-38.94311 0.73035,-11.84765 5.65099,-33.45148 9.26559,-40.6801 2.43023,-4.86006 8.81163,-11.61227 13.0957,-13.85665 4.95461,-2.59567 12.09742,-2.17052 23.37203,1.39113 8.01601,2.53226 11.37412,4.41395 16.91561,9.47857 3.80275,3.4755 8.47173,9.11816 10.37551,12.53925 3.44299,6.18705 3.53465,6.24523 17.21142,10.92619 7.5625,2.5883 15.03047,5.39536 16.59548,6.23789 2.41747,1.30146 3.4046,1.13376 6.5625,-1.11486 2.04436,-1.45572 3.71702,-3.50604 3.71702,-4.55627 0,-7.13602 9.91888,-14.17025 19.98129,-14.17025 8.33255,0 14.50468,2.95768 18.62728,8.92617 3.36937,4.87799 5.14143,5.9963 5.14143,3.24465 0,-2.92362 8.86875,-14.77972 12.8897,-17.23147 3.12842,-1.90753 6.29424,-2.43101 14.72414,-2.43468 12.4188,-0.005 20.73475,2.13353 26.21131,6.74175 2.12666,1.78947 4.72914,3.25358 5.78329,3.25358 1.05413,0 5.24005,1.77137 9.30201,3.93638 8.21601,4.37909 16.08955,12.2417 16.08955,16.06722 0,1.99852 0.83535,2.4964 4.18847,2.4964 2.30365,0 6.01238,0.63582 8.24159,1.41293 4.49431,1.56672 9.97245,0.40043 20.06994,-4.27289 3.09375,-1.43185 9,-3.78548 13.125,-5.2303 7.0217,-2.45941 7.61989,-2.98272 9.3798,-8.20584 4.943,-14.66993 13.61356,-22.98935 29.26637,-28.08114 23.78074,-7.73576 34.28227,-0.31959 41.92168,29.60506 2.44907,9.59339 2.71577,13.29236 2.29817,31.87501 -0.43726,19.45788 -0.71865,21.58026 -3.7815,28.52217 -15.37193,34.84037 -16.38167,41.68227 -9.04316,61.27547 10.23809,27.3348 10.21833,40.8787 -0.0955,65.4643 l -5.80597,13.8399 1.52752,8.5475 c 2.27496,12.73 1.21576,23.3379 -3.21162,32.1643 -4.2386,8.4501 -12.83595,18.0835 -16.13858,18.0835 -5.67832,0 -14.41172,-13.2767 -14.43524,-21.9448 -0.004,-1.4133 -1.09232,-5.9133 -2.41886,-10 -2.10596,-6.4877 -2.55904,-13.4549 -3.57215,-54.9302 -1.14176,-46.742 -1.21297,-47.6481 -4.46311,-56.7814 -1.81658,-5.1048 -3.30285,-11.1729 -3.30285,-13.4846 0,-2.3118 2.04169,-9.3851 4.53709,-15.7186 3.44805,-8.7514 4.676,-13.91566 5.11583,-21.51537 0.70731,-12.22085 -0.55867,-15.78449 -7.15901,-20.1524 l -5.1068,-3.37951 -12.71535,4.01693 c -6.99345,2.2093 -12.97027,4.27183 -13.28182,4.58338 -0.31155,0.31156 0.67866,1.89183 2.20047,3.51173 2.71649,2.89157 7.65959,14.19086 7.65959,17.50884 0,0.92794 -1.311,3.61904 -2.91334,5.9802 -1.60235,2.3612 -3.57629,6.1948 -4.38655,8.5191 -1.30995,3.7577 -1.17521,4.5432 1.21585,7.0884 2.32916,2.4793 2.59846,3.8614 2.01217,10.3272 -0.74323,8.1965 -2.6621,11.7973 -8.02457,15.0584 -3.09056,1.8795 -3.82008,3.5629 -5.80971,13.4058 -7.6568,37.8794 -31.87115,66.6948 -64.59385,76.8675 -7.55003,2.3471 -12.05164,2.8962 -23.125,2.8209 -11.89791,-0.081 -15.1886,-0.5961 -24.43021,-3.8249 -13.49744,-4.7157 -23.22283,-11.0521 -34.31979,-22.3605 -14.4194,-14.6941 -24.99252,-36.5871 -28.25135,-58.4979 -1.30057,-8.7444 -1.79382,-9.8805 -5.01193,-11.5447 -4.48804,-2.3208 -7.36714,-7.782 -7.34329,-13.9289 0.0258,-6.6392 2.35829,-10.6234 7.77126,-13.2744 4.61684,-2.2611 4.63044,-2.2904 2.24526,-4.8506 -3.57136,-3.8334 -8.78495,-17.81129 -8.78495,-23.55287 0,-2.76484 0.79734,-6.9353 1.77187,-9.26768 2.08898,-4.99962 1.25701,-5.66051 -7.1866,-5.70883 -2.86565,-0.0164 -7.19242,-0.49098 -9.61506,-1.0546 -3.59433,-0.83623 -5.25219,-0.48848 -9.01033,1.89 -8.84983,5.60094 -9.48406,20.27611 -1.73983,40.25738 5.44231,14.0419 5.63696,19.1656 1.19788,31.5306 -3.31694,9.2393 -3.33595,9.4971 -4.18413,56.7814 -0.79023,44.0536 -1.04729,48.0749 -3.54292,55.4239 -1.47998,4.3581 -2.69088,9.3836 -2.69088,11.1678 0,5.0998 -4.96051,14.0454 -9.23313,16.6508 -4.5976,2.8035 -4.21149,2.7868 -8.6596,0.3755 z m 175.42083,-51.4645 c 34.58776,-12.2662 55.60093,-40.342 63.01189,-84.1904 0.63668,-3.7671 1.38917,-4.6614 4.43457,-5.2705 4.8604,-0.9721 7.52544,-6.3148 7.52544,-15.0865 0,-7.9962 -1.90681,-9.8259 -9.03453,-8.6692 -6.81064,1.1052 -12.78892,-2.4151 -17.51237,-10.3122 -3.19398,-5.3399 -5.53042,-7.49987 -11.5414,-10.66942 -9.2814,-4.89403 -16.9117,-10.73706 -16.9117,-12.95041 0,-0.95066 -2.04796,-2.00609 -4.79225,-2.46974 -7.72333,-1.30485 -12.68074,-5.08709 -15.5409,-11.8569 -2.079,-4.92086 -3.27992,-6.21331 -6.34246,-6.82581 -2.07782,-0.41557 -6.3477,-2.27763 -9.48863,-4.13793 -4.15376,-2.46018 -7.44886,-3.39354 -12.08577,-3.4234 -5.44417,-0.0351 -7.48089,-0.81676 -13.94869,-5.35355 -4.16551,-2.92188 -8.05005,-5.31251 -8.6323,-5.31251 -0.58225,0 -2.37825,2.8765 -3.99111,6.39222 -1.61288,3.51572 -5.20324,8.43759 -7.97859,10.9375 -2.77535,2.49991 -7.52136,7.14167 -10.54669,10.31504 -3.02534,3.17336 -7.72856,6.77441 -10.45161,8.00234 -4.39703,1.98278 -4.951,2.72116 -4.951,6.59908 0,2.42533 -1.94718,8.41484 -4.38001,13.47292 -4.71798,9.80907 -4.57283,9.71407 -20.97613,13.72307 -4.24678,1.0379 -7.14386,6.1953 -7.14386,12.7176 0,5.5569 2.4658,9.6119 7.39464,12.1607 2.99182,1.5472 3.59237,2.7703 4.18645,8.5263 2.71428,26.2988 16.88883,53.4179 36.20015,69.2589 8.03557,6.5916 21.5578,13.4187 31.60903,15.9588 10.31974,2.6079 32.49587,1.7947 41.88783,-1.536 z m -55.9656,-5.5541 c -2.51528,-1.2131 -3.89861,-3.4744 -2.12543,-3.4744 1.1561,0 8.06293,3.7752 8.06293,4.4071 0,0.9757 -2.93703,0.5144 -5.9375,-0.9327 z m 16.01896,-15.3653 c -9.38932,-5.0592 -13.8182,-9.0279 -18.78099,-16.8296 -4.99642,-7.8546 -12.55047,-30.2565 -12.55047,-37.2192 0,-5.4407 -0.10313,-5.6044 -2.28593,-3.629 -1.25726,1.1378 -2.66351,2.0687 -3.125,2.0687 -1.67951,0 -0.64766,-1.9738 3.46529,-6.6288 l 4.20029,-4.7539 0.0366,9.3384 c 0.0286,7.3117 1.00244,12.2247 4.48698,22.6381 6.68366,19.9739 13.34032,28.0929 28.85691,35.1967 5.93925,2.7191 8.13672,3.1129 13.44217,2.4091 3.48823,-0.4628 8.09336,-1.573 10.2336,-2.4673 5.98543,-2.5008 22.63608,-21.2226 27.47211,-30.8893 5.25542,-10.5049 8.05179,-24.671 5.96261,-30.2058 -1.93609,-5.1293 -0.89883,-5.8047 2.42504,-1.5791 1.48815,1.8919 4.14081,4.7705 5.89481,6.3969 1.754,1.6264 2.79209,3.3541 2.30686,3.8393 -0.48522,0.4853 -2.21644,-0.3712 -3.84715,-1.9031 l -2.96492,-2.7854 -1.5885,8.4187 c -2.60482,13.805 -9.92851,26.7008 -22.33886,39.3348 -11.64869,11.8586 -15.19645,13.6458 -27.00794,13.6054 -4.72465,-0.016 -8.21308,-1.0792 -14.29354,-4.3555 z m 102.73104,-72.6869 c -0.85938,-0.3468 -1.5625,-1.4322 -1.5625,-2.4119 0,-1.4735 0.43872,-1.5096 2.53814,-0.2084 3.07482,1.9057 4.91247,-0.1816 4.94272,-5.6144 0.0145,-2.6105 -0.58229,-3.4375 -2.48086,-3.4375 -1.375,0 -2.5,-0.5625 -2.5,-1.25 0,-0.6875 1.34528,-1.25 2.98949,-1.25 3.7807,0 5.20126,4.7445 3.21897,10.7509 -1.34936,4.0886 -3.24405,4.9957 -7.14596,3.4213 z m -177.5625,-4.4222 c -1.84223,-1.8422 -1.9533,-7.8173 -0.20602,-11.0822 1.33279,-2.4903 7.45602,-3.4494 7.45602,-1.1678 0,0.6875 -0.42187,1.1834 -0.9375,1.102 -2.54366,-0.4016 -4.09393,0.3711 -5.3125,2.648 -1.85545,3.4669 0.58498,7.9655 3.85703,7.1098 1.51959,-0.3973 2.39297,0.016 2.39297,1.1322 0,2.1574 -5.16679,2.3412 -7.25,0.258 z m 99.21241,-20.0045 c -1.64402,-2.3472 -1.67863,-3.1328 -0.23402,-5.3125 3.24142,-4.8908 9.52161,-3.3441 9.52161,2.3451 0,5.7775 -5.98089,7.6884 -9.28759,2.9674 z m 61.42593,-0.9988 c -1.14447,-1.634 -1.79913,-3.2525 -1.45483,-3.5969 1.07343,-1.0734 4.63569,3.2676 4.07117,4.9612 -0.35396,1.0618 -1.24094,0.5993 -2.61634,-1.3643 z m -75.76732,-3.6256 c -3.86032,-3.8604 -1.85407,-8.24607 3.77217,-8.24607 3.82882,0 4.23181,0.34259 4.23181,3.59757 0,2.3082 -0.97511,4.2449 -2.72088,5.4041 -2.44751,1.6251 -2.9783,1.5492 -5.2831,-0.7556 z m 25.81648,-10.61807 c -5.03066,-4.44623 -5.69953,-5.753 -2.9447,-5.753 2.11532,0 9.5072,6.70715 9.5072,8.62651 0,2.22076 -1.58263,1.52786 -6.5625,-2.87351 z m -35.9375,-3.72985 c 0,-2.23996 2.68954,-3.8655 8.4375,-5.09958 4.32237,-0.928 5.94374,1.31368 1.875,2.59236 -1.87206,0.58832 -6.03251,2.35708 -9.375,3.98563 -0.51563,0.25122 -0.9375,-0.41406 -0.9375,-1.47841 z m 45.3125,-9.67162 c -2.23438,-0.64515 -4.0625,-1.7796 -4.0625,-2.521 0,-0.7414 0.80856,-1.03772 1.79681,-0.6585 0.98825,0.37923 4.082,1.30484 6.875,2.05692 2.793,0.75208 5.07819,1.62698 5.07819,1.94423 0,0.90855 -5.23216,0.46478 -9.6875,-0.82165 z m -85.48653,-2.39311 c 2.94734,-2.45538 5.17403,-3.16922 5.17403,-1.65872 0,1.32457 -4.24311,4.12092 -6.25,4.11896 -1.30273,-10e-4 -0.97431,-0.75217 1.07597,-2.46024 z m 42.04903,-23.72761 c -6.53224,-3.28863 -11.42035,-7.10212 -10.40498,-8.1175 0.44423,-0.44422 3.73332,1.20481 7.30909,3.66451 3.77429,2.59625 8.01559,4.47219 10.11115,4.47219 1.98537,0 3.60974,0.5625 3.60974,1.25 0,2.05154 -5.28231,1.42055 -10.625,-1.2692 z"
     style="fill:#e5b446" />
  <g
     id="g3402" />
  <path
     inkscape:connector-curvature="0"
     id="path3352"
     d="m -384.58311,257.63003 c -11.77133,-12.25589 -15.98439,-30.88828 -10.77351,-47.6462 1.089,-3.50217 0.84104,-5.28584 -1.47709,-10.625 -1.53218,-3.52896 -4.1269,-9.51005 -5.76604,-13.2913 -7.95111,-18.342 -7.22998,-37.81553 2.24587,-60.64808 3.49919,-8.43147 4.12361,-11.42913 4.03105,-19.35192 -0.0947,-8.110512 -0.91258,-11.398172 -6.06344,-24.375002 -12.21612,-30.776701 -11.8966,-29.475611 -11.92567,-48.562061 -0.0222,-14.605387 0.46746,-19.168023 3.13216,-29.1828724 4.23254,-15.9073546 6.13896,-20.1588376 11.51215,-25.6730606 7.93723,-8.145566 15.79774,-8.886476 32.81058,-3.092639 6.38251,2.173606 9.73139,4.355464 15.74879,10.260638 4.57352,4.488227 8.25632,9.3736146 9.171,12.1657286 1.35021,4.121605 2.26771,4.885258 7.86727,6.54815 6.75,2.004536 21.04125,7.3933804 25.61252,9.6577914 3.90311,1.933436 8.3714,-1.302168 11.9163,-8.6289044 3.84099,-7.938689 8.00481,-10.710415 17.07532,-11.366516 6.07792,-0.439638 8.33361,-0.01437 12.57855,2.37141 2.84488,1.598912 6.31559,4.75666497 7.7127,7.017227 3.09159,5.0023 3.99128,5.10366 5.97021,0.672613 3.08267,-6.902354 8.19778,-13.058451 12.80202,-15.4073596 8.97221,-4.577276 30.92373,-2.433318 38.83972,3.7933916 1.71571,1.349583 6.15245,3.608843 9.85941,5.020579 9.52208,3.62632997 18.50403,10.58647 20.89912,16.1948034 1.92542,4.508538 2.33408,4.742812 10.94081,6.27207 9.98557,1.774255 10.405,1.694385 26.15,-4.979574 6.1875,-2.622746 12.78831,-5.1006964 14.66846,-5.5065564 2.45181,-0.529263 3.61329,-1.704574 4.10743,-4.156392 1.34983,-6.697586 7.2971,-16.7253256 12.78381,-21.5549286 8.544953,-7.521569 27.977443,-13.749743 36.832343,-11.804882 4.95559,1.088431 14.361,9.770951 16.77708,15.487621 4.87924,11.5447176 7.95027,26.910347 7.76043,38.828732 l -0.18914,11.875 -0.88318,-11.875 c -0.88445,-11.891877 -4.39588,-27.7345284 -8.19172,-36.95877 -2.33961,-5.685512 -7.2029,-11.250324 -12.04093,-13.777829 -9.29358,-4.855188 -29.46798,0.940448 -40.482503,11.629675 -5.46687,5.3054106 -9.06275,11.8792116 -10.14458,18.5457836 -0.93575,5.7662864 2.21896,5.8557834 5.73744,0.16277 3.32511,-5.38015003 15.968813,-17.4231986 21.051813,-20.0517146 6.24551,-3.229682 16.94769,-2.690658 24.12369,1.215011 4.965,2.702294 6.53876,4.4794206 9.13242,10.3124996 4.50577,10.133389 6.20792,20.7264174 5.58979,34.7872644 -0.51802,11.78396 -0.81277,12.84724 -7.58635,27.36691 -9.97377,21.379521 -12.57155,32.254311 -11.88614,49.757443 0.43467,11.09951 1.25299,15.89261 4.07808,23.88595 2.86951,8.11907 3.6431,12.75323 4.11281,24.63766 l 0.57853,14.63766 -5.85618,11.33863 c -6.1452,11.89825 -7.02524,16.76211 -4.52387,25.0028 0.72901,2.40171 1.32547,8.38345 1.32547,13.29275 0,7.9154 -0.56611,10.05706 -5,18.9157 -2.75,5.49434 -5,10.62197 -5,11.39475 0,1.89779 -2.11706,1.7869 -3.00612,-0.15745 -0.39295,-0.85938 -0.39513,0.26562 -0.005,2.5 0.45763,2.61995 0.20428,4.0625 -0.71348,4.0625 -0.7827,0 -1.07545,0.5625 -0.65055,1.25 2.85365,4.61731 12.30038,-3.97634 18.14884,-16.50994 4.42924,-9.49209 5.17611,-19.06217 2.44136,-31.2823 -1.55479,-6.94755 -1.53327,-7.05592 4.07635,-20.53359 7.40121,-17.78211 8.98506,-24.8856 8.00849,-35.91775 -0.86871,-9.81376 -2.54118,-16.27033 -8.23321,-31.78452 -5.76183,-15.70439 -5.37043,-21.00081 3.22138,-43.591292 10.33717,-27.179541 10.51965,-27.733281 11.63338,-35.300811 l 1.02371,-6.95479 0.15242,7.27535 c 0.15121,7.21681 -3.05135,17.19025 -13.26613,41.313661 -1.70919,4.03645 -3.69136,10.78646 -4.40483,14.999992 -1.21746,7.19013 -1.04709,8.35244 2.77216,18.91099 7.25429,20.05498 9.10322,28.06477 9.08905,39.375 -0.0143,11.36721 -1.60121,17.48129 -9.24687,35.625 -4.1425,9.83045 -4.18647,10.12716 -2.59404,17.5 0.89094,4.125 1.40271,11.24116 1.13725,15.81369 -0.87984,15.15537 -12.1444,33.56131 -20.53976,33.56131 -4.8786,0 -11.10793,-6.83873 -12.21575,-13.41078 -0.43706,-2.59282 -2.12038,-9.77672 -3.7407,-15.96422 -2.71488,-10.36729 -3.0318,-14.92796 -4.03908,-58.125 -1.01518,-43.53562 -1.28395,-47.35599 -3.772733,-53.62663 -3.97542,-10.01631 -4.5597,-16.09194 -2.1769,-22.636412 7.633003,-20.96443 8.150763,-23.05433 8.150763,-32.899441 l 0,-9.9746 -5.174923,-4.92279 c -4.32282,-4.11219 -5.81508,-4.82025 -9.0625,-4.30003 -5.06132,0.81079 -22.85337,6.28402 -23.93108,7.36174 -0.45867,0.45868 0.5514,2.69904 2.24464,4.97856 5.60182,7.54152 7.81038,19.147821 4.21191,22.134281 -0.94158,0.78144 -2.66549,3.91759 -3.83092,6.96923 -2.07117,5.42326 -2.05662,5.63275 0.64448,9.28619 2.30472,3.117292 2.6405,4.775912 2.02278,9.991632 -0.97171,8.20451 -3.66564,13.18785 -8.12852,15.03642 -3.25164,1.34689 -3.78498,2.41217 -5.21571,10.41803 -9.37822,52.47737 -50.86575,87.95234 -96.20981,82.26668 -41.66216,-5.224 -71.73271,-38.98842 -79.4832,-89.24695 -0.55161,-3.57691 -1.66734,-5.31705 -4.40808,-6.875 -10.15389,-5.7719 -9.17423,-25.174382 1.37766,-27.284762 2.0313,-0.40625 3.69328,-0.92461 3.69328,-1.15189 0,-0.22728 -1.38163,-2.44918 -3.07029,-4.93756 -4.09619,-6.03606 -8.19274,-17.227341 -8.12485,-22.196091 0.0302,-2.20858 0.86546,-6.26561 1.85618,-9.0156 0.99072,-2.75 1.80978,-5.14063 1.82014,-5.3125 0.0104,-0.17188 -2.65306,-0.337 -5.91868,-0.36694 -3.26563,-0.0299 -8.46875,-0.56616 -11.5625,-1.1916 -5.07008,-1.02497 -6.11326,-0.80145 -10.57426,2.26572 -5.62206,3.86546 -6.62548,6.4269 -6.80114,17.36119 -0.0979,6.091261 0.94853,10.764221 4.8754,21.772481 2.75,7.70913 5,15.792332 5,17.962682 0,2.17035 -1.47527,8.12272 -3.27838,13.22752 -3.21918,9.11388 -3.29895,10.13898 -4.41863,56.78144 -0.99364,41.39255 -1.45609,48.56965 -3.59662,55.81905 -1.35101,4.57547 -2.46873,9.63797 -2.48383,11.25 -0.0151,1.61203 -1.0903,5.27177 -2.38934,8.13279 -5.25325,11.5698 -11.63249,13.48766 -19.07801,5.73566 z m 13.44844,-0.50534 c 2.88836,-3.10194 3.13818,-3.73817 1.17137,-2.98318 -5.03871,1.93417 -6.875,2.18939 -6.875,0.95555 0,-0.69413 0.84375,-1.58583 1.875,-1.98157 1.03125,-0.39572 1.875,-1.6007 1.875,-2.67771 0,-1.52493 -0.5168,-1.68164 -2.33565,-0.70821 -3.60922,1.9316 -4.25468,-0.0139 -1.11329,-3.35554 2.68551,-2.85673 2.8651,-4.3012 3.66362,-29.46774 0.46183,-14.55507 1.43489,-30.12001 2.16237,-34.58876 1.87173,-11.49775 1.6996,-19.00696 -0.72584,-31.66411 -2.46343,-12.85543 -1.89589,-16.20809 5.31547,-31.40078 2.70122,-5.69086 4.29866,-10.6921 3.93509,-12.31992 -0.33662,-1.5071 -1.46089,-6.11519 -2.49839,-10.240192 -2.74002,-10.89407 -6.52838,-38.716701 -6.52838,-47.946011 l 0,-7.94602 6.11796,-5.30617 c 4.04478,-3.50808 5.616,-5.61641 4.63666,-6.22168 -0.81473,-0.50353 -1.13928,-1.99317 -0.72124,-3.31031 0.46599,-1.46818 0.16887,-2.394804 -0.76788,-2.394804 -1.00683,0 -0.82239,-0.779664 0.54076,-2.285926 1.13781,-1.257259 2.06874,-3.165828 2.06874,-4.241264 0,-4.516611 -11.23635,-4.786532 -17.65619,-0.424141 -6.92896,4.708351 -9.00805,10.352355 -8.26994,22.449985 0.55389,9.07841 1.49071,12.12696 9.05255,29.45855 8.11032,18.588701 8.40748,19.623831 7.72665,26.914721 -0.38944,4.17038 -1.92711,10.377142 -3.41706,13.792792 -9.01231,20.66039 -11.70891,36.26723 -8.26297,47.82277 1.10418,3.70272 2.31964,14.15367 2.76216,23.75 0.74014,16.05031 0.58487,17.83258 -2.44747,28.0939 -3.41406,11.55306 -4.24774,24.19575 -1.88646,28.60785 1.81779,3.39657 0.15077,4.80606 -2.07848,1.75738 -2.77855,-3.7999 -2.31366,-20.02063 0.82938,-28.93843 4.51704,-12.81624 4.38021,-36.09452 -0.33192,-56.46755 -2.20111,-9.51658 0.1309,-23.5418 6.55697,-39.43498 2.92674,-7.23852 5.41005,-15.696612 5.75626,-19.605662 0.5519,-6.23157 0.0221,-8.17353 -5.66076,-20.74972 -9.99623,-22.121651 -11.72181,-28.264921 -11.226,-39.965791 0.3753,-8.85676 0.87389,-10.691079 4.03055,-14.82839 4.77778,-6.262036 10.76804,-8.685346 19.29432,-7.805356 6.46463,0.667208 6.70236,0.57989 7.91839,-2.9084324 0.68952,-1.97796 2.06951,-3.76977 3.06664,-3.981798 1.10256,-0.234448 -1.46153,-3.184043 -6.54361,-7.5274 -6.46107,-5.521909 -9.87196,-7.4810206 -15.03734,-8.6369826 -9.03793,-2.022599 -11.77003,-0.590573 -16.22536,8.5044866 -3.49701,7.138743 -3.56298,7.670637 -3.53789,28.5243924 0.0289,24.02141 0.46178,25.95379 10.71847,47.846341 8.14469,17.38458 8.34663,19.00279 3.79979,30.448792 -2.06249,5.19205 -4.40174,13.03427 -5.19833,17.42717 -0.79658,4.3929 -2.80599,12.14615 -4.46534,17.22944 -2.33449,7.15151 -3.01701,11.9459 -3.01701,21.19302 0,10.50868 0.53908,13.4794 4.46775,24.62025 l 4.46775,12.66959 -3.21775,15.24009 c -4.02674,19.07165 -4.03039,22.40395 -0.031,28.29741 3.51651,5.18188 3.35466,6.5658 -0.52503,4.48945 -2.71946,-1.45541 -5.14971,-8.28652 -5.14487,-14.46156 0.002,-2.0625 1.37803,-10.3587 3.05869,-18.43601 3.33758,-16.04052 3.43276,-14.9958 -2.95827,-32.47027 -2.88676,-7.89303 -3.62718,-27.74651 -1.34141,-35.96872 0.66893,-2.40625 3.11458,-11.6875 5.43477,-20.625 2.32019,-8.9375 5.41906,-19.23246 6.88639,-22.87769 3.16921,-7.873162 2.91976,-9.287922 -4.38372,-24.862732 -10.13747,-21.618301 -10.77085,-24.508721 -10.90399,-49.759571 l -0.11864,-22.5000044 4.02388,-7.765435 c 4.31227,-8.3219716 6.77176,-10.3595646 12.50458,-10.3595646 7.75399,0 15.23268,3.436131 22.87178,10.5085916 5.61034,5.19418197 8.49722,6.991408 11.23031,6.991408 2.19123,0 3.67875,-0.659209 3.67875,-1.63027403 0,-3.06069197 -7.11219,-12.85249557 -12.34637,-16.99804857 -6.60429,-5.23069 -20.14556,-10.061032 -28.30097,-10.095312 -12.3662,-0.05198 -19.23271,7.954244 -25.17078,29.3486346 -3.01551,10.8646414 -3.47513,14.7895034 -3.51314,30.0000044 -0.0389,15.57802 0.28392,18.3237 2.93972,24.99999 1.64091,4.125 4.36836,11.4375 6.061,16.250001 1.69264,4.8125 3.51003,9.3125 4.03863,10 1.53853,2.00098 4.84016,13.24938 5.70565,19.438662 0.65248,4.66599 -0.0347,8.03676 -3.82238,18.75 -2.53983,7.18374 -5.76694,18.40509 -7.17136,24.93634 -3.2429,15.08111 -2.04729,23.40997 6.14745,42.82435 5.25379,12.44688 5.65562,14.11522 4.68645,19.45742 -0.58303,3.21378 -1.07555,10.65634 -1.09448,16.53902 -0.0314,9.74046 0.34797,11.44868 4.24688,19.12512 4.16084,8.19217 11.0379,15.80409 14.27833,15.80409 0.8787,0 3.24975,-1.77428 5.269,-3.94284 z m 296.926983,-17.56594 c 5.44003,-10.77661 6.49147,-19.73528 3.60612,-30.72536 -2.78065,-10.5913 -2.23669,-13.5959 4.95498,-27.36875 l 5.34063,-10.2279 -0.56725,-13.5221 c -0.43788,-10.43817 -1.35219,-15.80277 -4.00895,-23.52211 -2.69442,-7.82873 -3.58058,-13.12121 -4.08124,-24.375 -0.82557,-18.557262 1.85876,-30.315162 11.74309,-51.436963 6.83784,-14.61175 7.24952,-16.04016 7.692,-26.68803 0.807,-19.420308 -4.15911,-36.0913394 -12.6057,-42.316843 -4.7636,-3.510982 -16.66591,-4.297173 -22.14683,-1.462881 -5.53553,2.8625336 -14.14441,10.9509296 -19.675883,18.4863096 l -4.55407,6.2038834 3.63355,10.482263 c 2.18998,6.317768 4.31827,10.482268 5.357033,10.482268 1.2244,0 1.45919,-0.81443 0.81079,-2.8125 -0.50198,-1.54688 -1.18917,-4.92188 -1.527093,-7.500004 -0.45857,-3.49876 -1.1986,-4.6875 -2.91808,-4.6875 -2.02537,0 -2.14306,-0.460737 -0.97417,-3.813809 0.73123,-2.097593 1.59659,-3.54672 1.92303,-3.220278 0.32644,0.32644 3.157683,-0.769847 6.291653,-2.4361934 4.68978,-2.493581 7.50398,-3.02972 15.90308,-3.02972 9.51968,0 10.42094,0.230835 13.42113,3.4375 5.33287,5.6998914 7.56504,11.4424894 7.62652,19.6204644 0.071,9.43897 -1.06468,12.90613 -12.10022,36.94203 l -8.89558,19.375001 -0.42716,18.334642 c -0.3571,15.32742 0.0424,20.65804 2.43544,32.5 4.11976,20.38631 3.9193,37.6156 -0.56365,48.44337 -3.94524,9.52901 -4.17696,15.9758 -0.91505,25.45674 1.32481,3.85062 2.49589,10.26681 2.60237,14.25819 0.25677,9.62271 0.17599,10.38206 -1.10438,10.38206 -0.6013,0 -1.10058,-3.51563 -1.10949,-7.8125 -0.01,-4.74964 -1.05141,-10.70705 -2.65673,-15.19569 -3.42762,-9.58403 -3.33948,-17.57147 0.30094,-27.27577 4.90134,-13.0655 5.22136,-23.18531 1.38309,-43.7362 -2.91484,-15.60665 -3.26458,-20.18686 -2.84064,-37.20138 l 0.48346,-19.403462 7.89094,-16.875001 c 10.47744,-22.40629 14.31976,-34.14311 13.29952,-40.62499 -0.83362,-5.296388 -5.40307,-14.070061 -8.79321,-16.8836244 -4.63319,-3.845207 -26.7899,-0.2465 -28.67149,4.6568444 -1.19003,3.101194 0.41373,6.578245 2.64012,5.7239 1.51705,-0.582146 1.77135,-0.170844 1.13466,1.835191 -0.68163,2.147579 -0.38848,2.472489 1.73075,1.918299 3.2983,-0.862523 3.34622,1.70363 0.0514,2.74939 -4.10498,1.30287 -3.34013,8.11871 1.41153,12.57863 5.8477,5.48866 9.83847,15.38714 9.83847,24.40276 0,5.71678 -1.02235,10.006601 -4.23657,17.776861 -9.1275,22.065402 -10.40655,33.422542 -5.51794,48.995712 2.60655,8.30343 2.72983,10.64378 2.43595,46.24603 -0.24926,30.19601 0.0645,39.08252 1.61103,45.625 2.23507,9.45546 2.36795,11.25 0.83301,11.25 -0.61849,0 -2.05656,-4.18933 -3.19571,-9.3096 -1.71777,-7.721 -2.0164,-15.55984 -1.7501,-45.9375 0.30638,-34.95105 0.18866,-37.11035 -2.57139,-47.16631 -4.46881,-16.28166 -3.4732,-27.73155 4.05257,-46.606062 6.68665,-16.769991 7.34902,-23.484411 3.26169,-33.064391 -2.69684,-6.32084 -9.31549,-14.16613 -11.95124,-14.16613 -0.84604,0 -2.431203,1.78997 -3.522603,3.97772 -2.08895,4.18741 -2.05371,4.26272 3.469573,7.41475 6.38455,3.64354 7.7224,20.31963 2.81842,35.131401 -1.65729,5.00562 -3.907293,11.19243 -5.000003,13.74847 -2.80845,6.569502 -2.4843,11.684262 1.414693,22.322242 l 3.40142,9.28041 0.77096,47.5 c 0.71846,44.26526 0.95501,48.03961 3.47358,55.42386 1.48643,4.35814 2.75868,9.70189 2.82721,11.875 0.11862,3.75973 0.17079,3.79975 1.07794,0.82614 0.82017,-2.68846 1.08297,-2.82043 1.88138,-0.94468 0.51042,1.19918 1.4316,1.8691 2.04705,1.48873 0.61547,-0.38038 1.11903,0.4864 1.11903,1.92616 0,4.681 4.66605,0.62005 8.88062,-7.72899 z m -291.875413,5.59732 c -0.41536,-0.41536 -0.7108,0.32292 -0.65652,1.64062 0.06,1.45619 0.35618,1.75238 0.75521,0.75521 0.36109,-0.90235 0.31668,-1.98047 -0.0987,-2.39583 z m -2.0052,-4.85202 c 0,-2.83095 2.28009,-1.97548 2.86783,1.07598 0.42807,2.22246 0.58081,2.02579 0.72806,-0.9375 0.1025,-2.0625 1.24196,-7.125 2.53214,-11.25 2.03895,-6.519 2.45222,-13.49944 3.15951,-53.36744 0.78668,-44.34279 0.91592,-46.1679 3.88809,-54.90644 3.54767,-10.43057 3.93658,-19.55793 1.06958,-25.102102 -2.35669,-4.55733 -6.43195,-16.79279 -6.78597,-20.37402 -0.13592,-1.375 -0.18236,-6.665221 -0.10318,-11.756041 0.14178,-9.11729 0.21968,-9.3281 5.19657,-14.0625 2.81657,-2.67934 4.25572,-4.80645 3.25193,-4.80645 -0.99039,0 -3.15618,-2.29522 -4.81287,-5.10049 l -3.01215,-5.1005 -3.91818,3.66013 c -2.155,2.01307 -4.3222,5.26989 -4.81601,7.23737 -1.04503,4.16375 4.01604,39.418311 8.42376,58.678483 1.36931,5.98342 1.23893,6.65245 -3.05684,15.68567 -6.64603,13.97537 -7.97505,19.90215 -6.06461,27.04509 2.74782,10.27379 3.07621,23.94876 0.96013,39.98181 -1.10429,8.36693 -2.04886,22.42943 -2.09905,31.25 -0.0502,8.82059 -0.52365,19.0826 -1.05214,22.80447 -0.953,6.71151 -0.94199,6.74371 1.34125,3.92402 1.26618,-1.56366 2.30215,-3.62446 2.30215,-4.57954 z m 158.17486,-28.62233 c 17.05045,-4.31588 36.0107,-17.53057 47.38555,-33.02623 9.44483,-12.86641 16.39903,-29.91627 19.46163,-47.71471 1.31174,-7.62323 1.74799,-8.40821 5.72732,-10.30583 4.62668,-2.2063 6.41944,-5.55225 7.6035,-14.1909 1.02344,-7.466802 -1.97218,-10.916822 -8.56378,-9.862782 -8.08539,1.2929 -15.31168,-3.05869 -19.88393,-11.97388 -1.75852,-3.42886 -4.66074,-5.85985 -11.50852,-9.63991 -5.03635,-2.78013 -11.18447,-7.246071 -13.66247,-9.924321 -3.2356,-3.49705 -5.89396,-5.09157 -9.43181,-5.65729 -6.65416,-1.06404 -11.17984,-4.90991 -13.025,-11.06851 -1.00025,-3.33852 -2.42217,-5.34588 -4.09259,-5.77756 -1.40787,-0.36383 -6.21602,-2.56886 -10.68477,-4.90007 -5.82387,-3.03814 -9.12058,-4.04244 -11.64024,-3.54608 -4.20116,0.82761 -9.81791,-1.35022 -17.11482,-6.63608 -5.81922,-4.215417 -9.99494,-5.03133 -9.99494,-1.95296 0,4.23163 -4.53701,10.43918 -15.37758,21.03965 -6.24425,6.10594 -13.13375,11.84569 -15.31001,12.75498 -3.37926,1.41195 -4.06813,2.46533 -4.71937,7.21661 -0.86442,6.306641 -6.23504,18.424921 -9.37608,21.156211 -1.15057,1.00047 -3.4982,2.13461 -5.21695,2.52029 -14.05176,3.15318 -15.62983,4.11457 -17.58156,10.710972 -1.89229,6.39546 0.68963,13.80196 5.70656,16.36982 5.04529,2.58236 5.18374,2.85716 6.13945,12.18541 0.45838,4.47403 2.48555,13.27571 4.50484,19.55928 9.7969,30.48581 32.92846,54.22937 60.6057,62.20921 9.64484,2.78078 29.94965,3.01129 40.04987,0.45468 z m -52.0989,-8.17602 -2.95097,-2.56183 4.375,2.0958 c 5.4324,2.60233 5.92031,3.02786 3.47181,3.02786 -1.06966,0 -3.27279,-1.15283 -4.89584,-2.56183 z m 18.18618,-13.64483 c -10.60226,-5.31993 -16.12915,-10.36784 -21.0011,-19.18111 -5.0453,-9.12688 -12.01104,-30.29613 -12.01104,-36.50218 0,-4.94298 -0.60673,-5.25398 -4.27658,-2.19209 -1.42913,1.19238 -0.91528,0.208 1.14189,-2.1875 2.05718,-2.3955 4.02593,-4.74872 4.375,-5.22937 0.34908,-0.48066 0.69249,3.17559 0.76313,8.125 0.22143,15.51581 8.9446,37.96632 18.31001,47.12391 1.75776,1.71875 6.4652,5.09375 10.46099,7.5 6.50495,3.91726 8.18501,4.37031 16.05781,4.33021 6.12328,-0.0311 10.12098,-0.75395 13.16774,-2.38066 3.3669,-1.79762 4.00625,-1.89132 2.7747,-0.40659 -1.92664,2.32271 -10.79296,4.70704 -17.50358,4.70704 -2.90636,0 -7.85205,-1.4954 -12.25897,-3.70666 z m 39.92657,-11.68534 c 10.35567,-12.06925 14.13777,-17.98568 17.21499,-26.92979 3.92078,-11.39591 4.95756,-20.29406 2.76426,-23.72416 -3.42752,-5.36031 -1.0615,-3.87165 5.23154,3.2916 5.2706,5.99941 5.60158,6.64464 2.15783,4.20656 -4.5552,-3.22496 -4.20347,-3.64846 -6.58053,7.92279 -2.89199,14.07776 -11.33545,28.23965 -23.8484,40 -3.64349,3.42434 -2.67909,1.92211 3.06031,-4.767 z m 61.12378,-61.68585 c -2.7892,-1.12546 -1.65004,-2.5922 1.53969,-1.98245 2.48183,0.47444 3.35676,-0.0765 4.37518,-2.75519 1.54669,-4.0681 -0.4458,-8.7519 -3.26316,-7.67077 -1.03681,0.39786 -1.50975,0.1667 -1.08036,-0.52805 2.59,-4.190712 7.38254,1.97577 5.97866,7.69266 -1.32295,5.38738 -3.4805,6.88589 -7.55001,5.2438 z m -177.03577,-4.824 c -4.08224,-4.08224 -0.85258,-13.195972 4.60666,-12.999462 1.8337,0.066 2.12069,0.32699 0.86662,0.78811 -5.87925,2.161762 -7.87518,7.309462 -4.24257,10.942062 1.65469,1.65469 2.34935,1.72529 3.95328,0.40179 1.61943,-1.3363 1.84195,-1.29113 1.32648,0.26935 -0.88278,2.67246 -4.13716,2.97146 -6.51047,0.59815 z m 99.96847,-18.480682 c -4.68721,-3.42738 0.29542,-11.92809 5.1923,-8.85842 2.95209,1.85056 3.39821,5.97667 0.91474,8.46014 -2.45618,2.45618 -3.22419,2.50626 -6.10704,0.39828 z m 60.5048,-2.11747 c -0.7989,-1.49276 -1.1713,-2.99537 -0.82755,-3.33912 0.34375,-0.34375 1.27865,0.59636 2.07755,2.08912 0.7989,1.49276 1.1713,2.99537 0.82755,3.33912 -0.34375,0.34375 -1.27865,-0.59636 -2.07755,-2.08912 z m -76.14284,-4.24588 c -0.85199,-1.02658 -1.36526,-3.1631 -1.14061,-4.74782 0.31893,-2.24978 1.2005,-2.8813 4.02221,-2.8813 4.45563,0 7.01289,3.35495 5.00219,6.5625 -1.79466,2.86291 -5.92881,3.42223 -7.88379,1.06662 z m 26.872,-9.59092 c -2.0052,-2.01476 -4.11457,-3.6632 -4.6875,-3.6632 -0.57291,0 -1.04166,-0.5625 -1.04166,-1.25 0,-2.188241 2.34204,-1.3559 6.40859,2.27757 2.17142,1.94016 3.72717,4.15109 3.45722,4.91319 -0.27141,0.76623 -2.12056,-0.25188 -4.13665,-2.27756 z m -36.97916,-4.3392 c 0,-2.20999 4.98464,-4.365991 9.76887,-4.225311 1.85132,0.0544 2.51542,0.39219 1.48113,0.75329 -1.03125,0.36003 -3.98438,1.712841 -6.5625,3.006251 -3.97286,1.99312 -4.6875,2.06413 -4.6875,0.46577 z m 46.42543,-9.507991 c -2.30977,-0.66469 -3.91343,-1.49468 -3.56368,-1.84442 0.71696,-0.71696 10.88825,1.80674 10.88825,2.70159 0,0.82527 -2.49128,0.53372 -7.32457,-0.85717 z m -87.12401,-1.73076 c 1.33453,-1.00939 3.02203,-1.81736 3.75,-1.79549 0.72798,0.0219 0.2317,0.86561 -1.10282,1.875 -1.33453,1.00938 -3.02203,1.81735 -3.75,1.79549 -0.72798,-0.0219 -0.2317,-0.86562 1.10282,-1.875 z m 39.44858,-26.3425 c -2.40625,-1.72406 -5.21406,-3.62304 -6.23959,-4.21995 -1.02552,-0.59691 -1.55699,-1.39288 -1.18104,-1.76883 0.37596,-0.37596 3.52118,1.22742 6.98939,3.56304 3.4682,2.33563 8.21843,4.47977 10.55604,4.76475 4.10041,0.49989 4.07399,0.52304 -0.7498,0.6569 -3.50055,0.0971 -6.31201,-0.8013 -9.375,-2.99591 z m 108.60638,58.372471 c 1.38229,-0.87543 1.19007,-1.38619 -0.95339,-2.53335 -3.72117,-1.9915 -1.44444,-6.3284 3.32848,-6.34041 2.48085,-0.006 4.20565,-1.20094 6.41315,-4.44212 3.0032,-4.40948 3.00812,-4.47005 0.90477,-11.142681 -1.33752,-4.24308 -4.20437,-9.03313 -7.7996,-13.03189 -4.55905,-5.07077 -5.50539,-6.88488 -4.779,-9.16128 1.4337,-4.49305 0.70973,-12.37679 -1.43752,-15.6539 -2.45525,-3.74719 -16.0618,-10.307278 -21.38148,-10.308598 -4.00664,-9.95e-4 -7.90179,-2.670565 -7.90179,-5.415545 0,-3.955225 -13.57119,-14.3891574 -22.37905,-17.2056834 -2.47278,-0.790728 -5.63696,-2.47439 -7.03154,-3.741472 -3.66034,-3.325698 -12.1989,-6.0380666 -21.824,-6.9326256 -13.9612,-1.297556 -20.29309,2.2298176 -27.79102,15.4818396 -2.04216,3.609375 -4.40885,6.5625 -5.25929,6.5625 -0.85044,0 -2.90611,-2.109375 -4.56818,-4.6875 -1.82025,-2.823502 -5.37861,-5.85652503 -8.94842,-7.627315 -5.50888,-2.732664 -6.38814,-2.829067 -12.47802,-1.368127 -7.55376,1.812118 -13.47047,6.911575 -13.47047,11.609838 0,2.186076 -1.24516,3.8887594 -4.16226,5.6916214 -2.28924,1.41483 -5.24236,4.695082 -6.5625,7.28945 -1.32013,2.594368 -4.19658,6.792847 -6.39211,9.329957 -2.19552,2.5371 -4.37206,6.75585 -4.83674,9.375 -0.46468,2.61914 -2.4057,7.57458 -4.31338,11.01208 -5.50919,9.92717 -5.6496,12.72714 -1.2149,24.226671 5.45073,14.13424 10.34138,17.09148 17.29993,10.46082 4.38064,-4.17423 8.93196,-14.788911 8.93196,-20.831321 0,-3.96413 0.55907,-4.7086 5.3125,-7.07429 2.92188,-1.45415 7.88482,-5.26245 11.02877,-8.4629 3.14395,-3.20044 8.02358,-7.98522 10.84361,-10.63284 2.9603,-2.77932 6.28497,-7.66613 7.8664,-11.5625 1.50648,-3.711757 3.28942,-6.748644 3.96207,-6.748644 0.67265,0 5.20044,2.668564 10.06174,5.930144 7.63956,5.12559 9.6162,5.89895 14.56931,5.70024 4.21107,-0.16893 7.21145,0.63507 11.31541,3.03214 3.07165,1.79413 7.8529,3.92693 10.625,4.73957 4.4902,1.31631 5.29274,2.17077 7.35474,7.83059 2.5434,6.98119 6.80754,9.9683 15.98758,11.1996 3.51301,0.4712 4.82286,1.24087 4.82286,2.83394 0,2.65104 5.56168,7.02856 16.72789,13.166271 6.05407,3.32773 8.80666,5.67716 10.00136,8.53647 3.4123,8.16677 13.17284,14.03385 18.12713,10.89625 z m -10.86158,-12.07142 c -1.5841,-1.11671 -5.11146,-6.72681 -7.83855,-12.466871 -6.52684,-13.73782 -9.1946,-15.8044 -19.77994,-15.32247 -8.08165,0.36794 -8.14681,0.34415 -9.25585,-3.37945 -2.33795,-7.84967 -3.98574,-9.91726 -9.02567,-11.32516 -3.53873,-0.98855 -5.91665,-2.77739 -8.25804,-6.21231 -4.0725,-5.97452 -10.44401,-8.5848 -15.9146,-6.51988 -4.86771,1.83735 -12.60798,-0.42867 -18.03861,-5.280949 -4.93874,-4.412762 -3.64488,-6.530645 1.3976,-2.287684 5.85703,4.92837 10.77486,6.481233 16.18042,5.109153 7.28593,-1.849364 13.8701,0.52645 17.89878,6.45853 2.48381,3.65734 4.73221,5.29718 8.94881,6.52668 5.78315,1.68628 7.13383,3.49336 9.00922,12.05344 0.7576,3.45798 0.89117,3.50689 7.36715,2.69777 11.03382,-1.37859 14.42707,0.85271 20.64179,13.57343 6.03604,12.354961 7.90555,14.581971 12.24114,14.581971 1.95301,0 2.94537,0.59062 2.62531,1.5625 -0.78456,2.3823 -4.9798,2.50065 -8.19896,0.2313 z m -160.24479,-2.50871 c 0,-0.3932 1.40766,-3.11691 3.12813,-6.05267 2.61613,-4.464081 2.99616,-6.300661 2.3218,-11.220611 -0.76753,-5.59977 -0.58724,-6.08352 3.74687,-10.05341 2.50426,-2.29381 4.5532,-5.27315 4.5532,-6.62075 0,-3.23003 3.83091,-6.58764 7.51627,-6.58764 4.55979,0 13.22505,-4.71562 17.39734,-9.4676 2.07543,-2.36378 4.99492,-7.137044 6.48777,-10.607263 1.55947,-3.625102 3.18151,-5.842236 3.81251,-5.211241 0.631,0.630995 -0.27515,4.098149 -2.12985,8.149336 -4.97345,10.863448 -16.38323,19.596468 -25.64654,19.629798 -2.65596,0.01 -4.9375,2.51492 -4.9375,5.42187 0,1.3282 -2.02967,4.32913 -4.51037,6.66873 -4.25846,4.01624 -4.46315,4.56876 -3.66481,9.89241 0.71194,4.74761 0.32997,6.51836 -2.41733,11.206271 -2.80032,4.77839 -5.65749,7.22915 -5.65749,4.85277 z m 177.49999,-2.64043 c 0,-4.77913 -5.0817,-12.354671 -10.6246,-15.838631 -7.20024,-4.52565 -8.7386,-7.24855 -6.9668,-12.33115 2.01895,-5.79157 1.6342,-11.57242 -0.92433,-13.88786 -1.24615,-1.12775 -6.44927,-2.97957 -11.5625,-4.11516 -14.46537,-3.2126 -15.50465,-3.97793 -19.74065,-14.537225 -2.12057,-5.286069 -8.33858,-8.4244884 -16.7019,-8.4299564 -6.69466,-0.0044 -7.5456,-0.359776 -13.47922,-5.629673 -9.33243,-8.288511 -16.1437,-7.611025 -27.6077,2.746012 -2.72711,2.463772 -5.32693,4.111024 -5.7774,3.66056 -1.34595,-1.345951 7.38242,-9.661616 12.7601,-12.15676 9.11291,-4.228222 16.9662,-2.738573 24.05777,4.56338897 3.65678,3.76525103 4.96793,4.31179903 10.34397,4.31179903 8.9964,0 17.0378,4.232211 18.86375,9.9280564 2.68447,8.3739 5.53657,10.387238 18.56192,13.103098 10.21913,2.13075 12.21774,3.37831 14.62043,9.12627 1.42615,3.41179 1.41106,4.82922 -0.098,9.20939 -0.98099,2.84734 -1.4954,5.92806 -1.14313,6.84606 0.35227,0.91799 3.42676,3.45703 6.83221,5.64229 3.40544,2.18527 6.96348,5.46564 7.90675,7.28972 2.49799,4.830631 3.77377,12.605111 2.06844,12.605111 -0.76401,0 -1.38911,-0.94741 -1.38911,-2.10534 z m -185.75966,-6.149151 c -2.51654,-6.02294 -1.32482,-10.62929 4.48732,-17.34468 2.61592,-3.02246 5.69586,-8.20223 6.84431,-11.5106 3.89592,-11.2231 6.12722,-14.66508 10.99054,-16.95386 3.36331,-1.582848 4.68882,-2.997771 4.69217,-5.008701 0.0125,-7.367055 10.76118,-16.9390234 17.22145,-15.3358184 3.94208,0.978286 9.02387,5.343274 9.02387,7.7510484 0,2.519226 -2.2397,1.979128 -3.78774,-0.913402 -4.5838,-8.5649284 -16.75459,-3.0918214 -20.01015,8.998408 -1.0188,3.783515 -2.3184,5.329855 -5.90353,7.024315 -3.62379,1.71275 -5.10198,3.49609 -6.98154,8.42279 -5.03378,13.19454 -6.22888,15.5756 -9.2197,18.36889 -5.33069,4.97859 -6.94535,9.28905 -5.32207,14.20764 0.78024,2.36416 1.9375,4.298461 2.57168,4.298461 0.63418,0 1.15306,0.5625 1.15306,1.25 0,3.1019 -4.06305,0.80609 -5.75967,-3.254491 z m 159.19516,-19.74729 c -1.69996,-3.56485 -2.89861,-4.3942 -7.41902,-5.13327 -7.49217,-1.22493 -13.48471,-4.86574 -17.89148,-10.8701 -4.1551,-5.66143 -13.49136,-12.244844 -17.36504,-12.244844 -1.37532,0 -4.58057,-1.441437 -7.1228,-3.203194 -4.86902,-3.374237 -15.60452,-6.756961 -21.52344,-6.78197 -2.0196,-0.0085 -3.18307,-0.545865 -2.73872,-1.264836 1.96109,-3.1731114 22.04181,1.600001 26.23793,6.236657 1.25099,1.382339 3.41601,2.513343 4.81114,2.513343 4.95303,0 13.40276,5.316194 19.15909,12.054054 6.71195,7.85643 8.70119,9.13052 17.29184,11.07526 5.45242,1.23432 6.62086,2.08202 9.15615,6.64278 2.16901,3.90184 2.46554,5.22791 1.16902,5.22791 -0.95542,0 -2.64953,-1.91331 -3.76467,-4.25179 z m 39.64835,-3.47726 c 11.71706,-3.78897 15.66615,-6.24566 15.66615,-9.74575 0,-3.00832 -5.90888,-19.943397 -8.15415,-23.370119 -2.8646,-4.3719384 -8.09284,-3.721816 -23.99045,2.983169 l -14.0196,5.912911 3.58677,2.270979 c 5.35815,3.39255 8.02364,9.99335 7.2118,17.8593 -1.08532,10.51573 -0.52972,10.63107 19.69948,4.08951 z m -8.80388,-0.86721 c 0.37265,-0.60294 3.30332,-1.75743 6.5126,-2.56554 3.20929,-0.80811 7.50006,-2.33029 9.53504,-3.38262 2.6883,-1.39017 3.55638,-1.48255 3.17482,-0.33786 -0.28884,0.8665 -4.39835,2.88199 -9.13228,4.47887 -9.37603,3.16278 -11.12116,3.47533 -10.09018,1.80715 z m 12.02733,-28.796687 c -0.96747,-1.807735 -0.9865,-2.607057 -0.062,-2.607057 1.51539,0 3.16577,3.505641 2.13545,4.535967 -0.37299,0.372982 -1.30601,-0.495027 -2.0734,-1.92891 z m -205.047,24.580447 c 2.08308,-8.15713 3.7359,-11.79674 6.48694,-14.28464 1.38534,-1.25282 3.55746,-4.312923 4.82694,-6.800217 l 2.30814,-4.522353 -4.00366,-1.911529 c -7.56794,-3.613281 -20.26371,-8.1217964 -27.23702,-9.6723914 -12.48325,-2.775795 -14.70774,0.33085 -15.80026,22.0661504 l -0.70058,13.93753 3.88898,2.01107 c 5.50865,2.84863 12.13443,4.21817 21.10955,4.36331 l 7.76431,0.12557 1.35666,-5.3125 z m -23.76029,0.66142 c -1.71875,-0.30834 -3.6875,-1.14987 -4.375,-1.87006 -0.86754,-0.9088 0.0886,-1.01522 3.125,-0.34781 2.40625,0.52891 7.1875,1.36784 10.625,1.8643 l 6.25,0.90265 -6.25,0.006 c -3.4375,0.003 -7.65625,-0.24651 -9.375,-0.55485 z m -6.25,-31.831957 c 0,-1.0784704 0.84375,-2.6611064 1.875,-3.5169674 2.38549,-1.979788 2.3613,-0.123075 -0.0397,3.0514124 -1.4692,1.942442 -1.83525,2.035302 -1.83525,0.465555 z"
     style="fill:#5b4538" />
  <g
     inkscape:groupmode="layer"
     id="layer7"
     inkscape:label="LEFT UP ARM"
     style="display:inline" />
  <g
     inkscape:groupmode="layer"
     id="layer8"
     inkscape:label="LEFT DOWN ARM"
     style="display:inline" />
  <g
     inkscape:groupmode="layer"
     id="layer9"
     inkscape:label="RIGHT DOWN ARM "
     style="display:inline">
    <path
       style="display:inline;fill:#000000;fill-opacity:1;stroke:none;stroke-width:2.29999995;stroke-miterlimit:4;stroke-dasharray:none;stroke-opacity:1"
       id="path4177"
       d="m 678.18103,427.81024 c 4.0781,-3.95339 17.73059,-17.42444 24.60367,-23.58703 6.87305,-6.16259 11.10367,-9.80832 15.86973,-14.11363 4.76606,-4.3053 7.55189,-7.99434 12.03583,-12.34296 4.48393,-4.34863 9.60757,-9.34483 14.68744,-13.89714 5.07988,-4.5523 9.0625,-8.49758 15.1974,-13.99398 11.5616,-10.63102 -7.94914,-20.41877 -13.06101,-7.7265 -5.14519,4.47617 -10.18973,9.56613 -14.79549,13.78513 -4.60576,4.21903 -9.46058,7.33471 -14.13505,11.88125 -4.67446,4.54655 -10.57308,10.94754 -20.76374,20.37627 -10.19064,9.42871 -22.2126,19.92854 -26.66019,23.22919 -4.44758,3.30065 2.9433,20.34277 7.02141,16.3894 z"
       inkscape:connector-curvature="0"
       sodipodi:nodetypes="zzzzzcczzzzz"
       inkscape:export-xdpi="90"
       inkscape:export-ydpi="90" />
    <path
       inkscape:export-ydpi="90"
       inkscape:export-xdpi="90"
       sodipodi:nodetypes="zzzzzcczzzzz"
       inkscape:connector-curvature="0"
       d="m 568.12987,425.81024 c -4.0781,-3.95339 -17.73059,-17.42444 -24.60367,-23.58703 -6.87305,-6.16259 -11.10367,-9.80832 -15.86973,-14.11363 -4.76606,-4.3053 -7.55189,-7.99434 -12.03583,-12.34296 -4.48393,-4.34863 -9.60757,-9.34483 -14.68744,-13.89714 -5.07988,-4.5523 -9.0625,-8.49758 -15.1974,-13.99398 -11.5616,-10.63102 7.94914,-20.41877 13.06101,-7.7265 5.14519,4.47617 10.18973,9.56613 14.79549,13.78513 4.60576,4.21903 9.46058,7.33471 14.13505,11.88125 4.67446,4.54655 10.57308,10.94754 20.76374,20.37627 10.19064,9.42871 22.2126,19.92854 26.66019,23.22919 4.44758,3.30065 -2.9433,20.34277 -7.02141,16.3894 z"
       id="path4201"
       style="display:inline;fill:#000000;fill-opacity:1;stroke:none;stroke-width:2.29999995;stroke-miterlimit:4;stroke-dasharray:none;stroke-opacity:1" />
  </g>
  <g
     inkscape:groupmode="layer"
     id="layer15"
     inkscape:label="left leg">
    <path
       style="display:inline;fill:#000000;fill-opacity:1;stroke:none;stroke-width:2.29999995;stroke-miterlimit:4;stroke-dasharray:none;stroke-opacity:1"
       id="path4205"
       d="m 589.4485,577.14766 c 0.0283,7.48829 0.28002,32.78038 -0.005,44.92814 -0.2851,12.14774 -0.5588,19.4857 -0.73524,27.9396 -0.17646,8.45392 0.50034,14.50326 0.53264,22.73846 0.0323,8.23524 0.0873,17.671 -0.12507,26.64708 -0.21236,8.97607 -0.12857,16.36886 -0.38597,27.20786 -0.30364,20.68446 18.65432,11.9785 13.47217,-4.71839 0.30466,-8.96423 0.13687,-18.41582 0.2685,-26.64066 0.13163,-8.22488 -0.52325,-14.02888 -0.56567,-22.62645 -0.0424,-8.59754 0.18289,-16.90452 0.11314,-28.97507 -0.0697,-12.07058 0.2116,-36.22276 0.85325,-43.4343 0.64164,-7.21154 -13.45086,-30.55457 -13.42259,-23.06627 z"
       inkscape:connector-curvature="0"
       sodipodi:nodetypes="zzzzzcczzzzz"
       inkscape:export-xdpi="90"
       inkscape:export-ydpi="90" />
  </g>
  <g
     inkscape:groupmode="layer"
     id="layer14"
     inkscape:label="RIGHT leg">
    <path
       sodipodi:nodetypes="zzzzzcczzzzz"
       inkscape:connector-curvature="0"
       d="m 649.4485,577.14766 c 0.0283,7.48829 0.28002,32.78038 -0.005,44.92814 -0.2851,12.14774 -0.5588,19.4857 -0.73524,27.9396 -0.17646,8.45392 0.50034,14.50326 0.53264,22.73846 0.0323,8.23524 0.0873,17.671 -0.12507,26.64708 -0.21236,8.97607 -0.12857,16.36886 -0.38597,27.20786 -0.30364,20.68446 18.65432,11.9785 13.47217,-4.71839 0.30466,-8.96423 0.13687,-18.41582 0.2685,-26.64066 0.13163,-8.22488 -0.52325,-14.02888 -0.56567,-22.62645 -0.0424,-8.59754 0.18289,-16.90452 0.11314,-28.97507 -0.0697,-12.07058 0.2116,-36.22276 0.85325,-43.4343 0.64164,-7.21154 -13.45086,-30.55457 -13.42259,-23.06627 z"
       id="path4203"
       style="display:inline;fill:#000000;fill-opacity:1;stroke:none;stroke-width:2.29999995;stroke-miterlimit:4;stroke-dasharray:none;stroke-opacity:1"
       inkscape:export-xdpi="90"
       inkscape:export-ydpi="90" />
  </g>
  <g
     inkscape:groupmode="layer"
     id="layer10"
     inkscape:label="RIGHT UP ARM  1"
     style="display:inline">
    <path
       sodipodi:nodetypes="zzzzzcczzzzz"
       inkscape:connector-curvature="0"
       d="m 676.76807,285.74912 c 4.07862,2.37789 14.78655,3.75121 21.49815,7.22904 6.71161,3.47783 13.52402,5.13935 18.18849,7.58482 4.66445,2.44544 12.02641,5.99663 16.5115,8.61307 4.48509,2.61644 8.9439,4.60793 13.90364,7.17577 4.95974,2.56785 14.07637,6.03567 20.06576,9.13538 11.37582,6.1304 -7.21726,31.39838 -14.84001,20.22497 -4.97982,-2.45826 -8.38777,-5.25906 -12.91432,-7.68423 -4.52655,-2.42519 -10.58699,-2.96925 -15.26692,-5.71077 -4.67992,-2.74154 -10.80423,-6.28805 -17.3717,-10.1487 -6.56748,-3.86069 -22.23554,-8.05082 -26.35569,-9.57365 -4.12014,-1.52283 -7.49754,-29.2236 -3.4189,-26.8457 z"
       id="path4171"
       style="display:inline;fill:#000000;fill-opacity:1;stroke:none;stroke-width:2.29999995;stroke-miterlimit:4;stroke-dasharray:none;stroke-opacity:1"
       inkscape:export-xdpi="90"
       inkscape:export-ydpi="90" />
    <path
       inkscape:export-ydpi="90"
       inkscape:export-xdpi="90"
       style="display:inline;fill:#000000;fill-opacity:1;stroke:none;stroke-width:2.29999995;stroke-miterlimit:4;stroke-dasharray:none;stroke-opacity:1"
       id="path4204"
       d="m 569.54283,283.74912 c -4.07862,2.37789 -14.78655,3.75121 -21.49815,7.22904 -6.71161,3.47783 -13.52402,5.13935 -18.18849,7.58482 -4.66445,2.44544 -12.02641,5.99663 -16.5115,8.61307 -4.48509,2.61644 -8.9439,4.60793 -13.90364,7.17577 -4.95974,2.56785 -14.07637,6.03567 -20.06576,9.13538 -11.37582,6.1304 7.21726,31.39838 14.84001,20.22497 4.97982,-2.45826 8.38777,-5.25906 12.91432,-7.68423 4.52655,-2.42519 10.58699,-2.96925 15.26692,-5.71077 4.67992,-2.74154 10.80423,-6.28805 17.3717,-10.1487 6.56748,-3.86069 22.23554,-8.05082 26.35569,-9.57365 4.12014,-1.52283 7.49754,-29.2236 3.4189,-26.8457 z"
       inkscape:connector-curvature="0"
       sodipodi:nodetypes="zzzzzcczzzzz" />
  </g>
  <g
     inkscape:groupmode="layer"
     id="layer11"
     inkscape:label="BODY"
     style="display:inline">
    <path
       style="fill:#ff7f2a;fill-opacity:1;stroke:#000000;stroke-width:2.29999995;stroke-miterlimit:4;stroke-dasharray:none;stroke-opacity:1"
       d="m 150.25701,310.56758 115.61566,1.73806 c 0,0 -6.63232,91.30465 -0.22652,147.09847 6.4058,55.79383 41.77348,187.09847 41.77348,187.09847 l -203.57861,1.73806 c 0,0 45.30481,-136.36608 52.208,-192.83653 6.90318,-56.47045 -5.79201,-144.83653 -5.79201,-144.83653 z"
       id="rect4164"
       inkscape:connector-curvature="0"
       sodipodi:nodetypes="cczcczc"
       inkscape:export-xdpi="90"
       inkscape:export-ydpi="90" />
    <path
       style="display:inline;fill:#ff7f2a;fill-opacity:1;stroke:#000000;stroke-width:2.29999995;stroke-miterlimit:4;stroke-dasharray:none;stroke-opacity:1"
       d="m 567.90925,281.82786 115.61561,1.73806 c 0,0 -12.6323,91.30465 -6.2265,147.09846 6.4058,55.79383 3.7735,187.09847 3.7735,187.09847 l -111.57861,1.73806 c 0,0 -0.6952,-132.36608 6.208,-188.83653 6.9032,-56.47044 -7.792,-148.83652 -7.792,-148.83652 z"
       id="rect4164-9"
       inkscape:connector-curvature="0"
       sodipodi:nodetypes="cczcczc"
       inkscape:export-xdpi="90"
       inkscape:export-ydpi="90"
       inkscape:export-filename="/home/rana/SparkleShare/CCC/linuxCourse/Chapter 1/character/SHROOK/btbosleta7t.png" />
  </g>
  <g
     inkscape:groupmode="layer"
     id="layer13"
     inkscape:label="NECK">
    <path
       style="fill:#f4e3d7;fill-opacity:1;stroke:#000000;stroke-width:1.70865273;stroke-miterlimit:4;stroke-dasharray:none;stroke-opacity:1"
       d="m 600.22536,264.39583 53.55709,0 c 0,0 5.06957,-9.04029 0,2.06145 -5.06956,11.10175 -7.60026,27.53345 -26.77854,27.53345 -19.17828,0 -21.70898,-16.4317 -26.77855,-27.53345 -5.06958,-11.10174 0,-2.06145 0,-2.06145 z"
       id="rect3359"
       inkscape:connector-curvature="0"
       sodipodi:nodetypes="cczzzc"
       inkscape:export-xdpi="90"
       inkscape:export-ydpi="90" />
  </g>
  <g
     inkscape:groupmode="layer"
     id="layer2"
     inkscape:label="head"
     style="display:inline">
    <path
       inkscape:connector-curvature="0"
       id="path3360"
       d="m 568.73908,76.808325 c 1.44633,-1.282175 2.64396,-3.498512 2.66139,-4.925183 0.0404,-3.299182 0.43224,-7.378237 3.92336,-9.57294 8.16745,-5.1345 18.99156,-3.984171 23.69098,5.521817 l 3.31922,4.714111 4.22779,-7.817407 c 5.90956,-10.927086 10.45118,-13.552221 21.72919,-12.559842 9.23401,0.812525 13.87687,2.410869 18.30258,6.300838 1.66452,1.463011 5.1302,3.615537 7.70154,4.783405 6.85071,3.111489 15.0558,10.580803 17.21269,15.669172 1.69865,4.007318 2.5554,4.641219 8.74443,6.4699 l 6.86128,2.027309 7.48186,7.239876 c 4.02076,12.493579 -1.00985,14.692469 4.07478,28.009459 l -0.0743,8.80883 c -0.0463,5.48532 5.50841,4.42192 5.50841,8.60036 0,1.51049 -0.94648,4.20912 -2.10328,5.99695 -1.1568,1.78783 -2.55147,5.2239 -3.09926,7.63573 -0.81517,3.58903 2.84364,2.35193 4.26917,4.26686 1.27366,1.71093 -1.84081,4.18745 -1.97594,9.21506 -0.22597,8.40711 -0.21217,6.65867 -0.69735,12.85647 -0.32998,4.21526 -4.79108,9.8928 -5.37716,16.19047 -0.3601,3.8692 -4.67649,26.94935 -6.51599,33.45532 -8.21988,29.07212 -22.34918,45.22996 -44.03058,53.95539 -9.45033,3.80316 -29.26898,4.08838 -37.82975,0.54443 -20.81686,-8.61769 -34.89306,-24.15781 -43.41836,-49.66388 -2.97432,-8.89858 -10.03052,-42.48117 -10.04063,-48.0687 -0.005,-2.79216 -0.5687,-4.11977 -1.98035,-4.66444 -1.0853,-0.41876 0.35308,-1.79941 0.37515,-4.46903 0.0801,-9.69036 3.15031,-28.72452 0.8151,-21.10033 l -0.21522,-1.29732 -2.37181,-4.24886 c -1.3045,-2.33688 -0.3539,-9.26677 -1.57875,-13.89767 -2.20096,-8.32132 -2.11944,-12.92045 0.35775,-20.18214 0,0 2.77647,-32.177602 20.05205,-39.794015 z"
       style="fill:#000000"
       sodipodi:nodetypes="ccsscsssssscccsssssssssssscssscssccc"
       inkscape:export-xdpi="90"
       inkscape:export-ydpi="90" />
    <path
       sodipodi:nodetypes="sssss"
       inkscape:connector-curvature="0"
       id="path4286"
       d="m 692.43887,107.45501 c 12.78263,8.77895 2.76763,11.86914 15.46646,6.8892 16.93223,-6.64012 21.96139,-7.85016 26.34699,-24.508095 C 740.23345,67.1178 726.72621,68.82929 706.55493,65.918153 695.62795,64.341161 670.29852,92.249242 692.43887,107.45501 Z"
       style="fill:#ff6600;fill-opacity:1;stroke:none;stroke-width:5;stroke-miterlimit:4;stroke-dasharray:none;stroke-opacity:1"
       inkscape:export-xdpi="90"
       inkscape:export-ydpi="90" />
    <path
       style="fill:#ff6600;fill-opacity:1;stroke:none;stroke-width:5;stroke-miterlimit:4;stroke-dasharray:none;stroke-opacity:1"
       d="m 554.53559,99.581893 c -10.99279,11.595187 -0.76816,13.287747 -13.90446,9.993827 -17.51555,-4.39202 -29.54695,3.51716 -29.54695,-22.160223 0,-25.677381 2.78991,-28.796268 27.8089,-27.374394 23.47971,1.334395 34.68276,19.457143 15.64251,39.54079 z"
       id="path4283"
       inkscape:connector-curvature="0"
       sodipodi:nodetypes="sssss"
       inkscape:export-xdpi="90"
       inkscape:export-ydpi="90" />
    <path
       sodipodi:nodetypes="csssssssssssssssssssssssssssssssccssscscssssaasssssscaassssssccssaassssssssssssssssacsssscssssscsccsscccssccsssssssssssssscscssccccc"
       style="fill:#000000"
       d="m 482.71628,191.73338 c 7.88855,-23.39339 7.86095,-23.72886 -5.22469,-63.50179 -4.52423,-13.75104 -5.92534,-24.27517 -5.1847,-38.943112 0.59824,-11.847649 4.62882,-33.451474 7.58961,-40.680094 1.99064,-4.860062 7.21776,-11.612272 10.72691,-13.856649 4.05841,-2.595671 9.90922,-2.170524 19.14445,1.391127 6.56607,2.532255 9.31674,4.413951 13.85588,9.478568 3.1149,3.4755 6.93935,9.118165 8.49877,12.539256 2.82021,6.187042 7.87814,-5.921167 19.08103,-1.240215 6.19458,2.588307 11.59989,9.299814 12.88182,10.14235 1.98019,1.301456 -1.48225,-0.604299 1.10444,-2.852923 1.67458,-1.455713 3.04468,-3.506033 3.04468,-4.556266 0,-7.136022 8.12473,-18.170248 16.36703,-18.170248 6.82534,0 11.88104,2.957676 15.25793,8.926171 2.75992,4.877983 4.21144,5.996293 4.21144,3.244644 0,-2.92362 7.26456,-14.779721 10.55818,-17.231463 2.56255,-1.907535 5.15573,-2.431012 12.06081,-2.43468 10.17246,-0.0054 16.9842,-5.866477 21.47015,-1.258253 1.74198,1.78947 3.87372,3.253581 4.7372,3.253581 0.86346,0 4.29221,1.77137 7.61944,3.936376 6.72987,4.37909 13.17924,12.241699 13.17924,16.067225 0,1.998518 0.68424,2.496399 3.43085,2.496399 1.88696,0 10.92484,12.635818 12.75083,13.412926 3.68136,1.566726 -0.32282,-2.200478 7.94821,-6.873796 2.53415,-1.43185 9.02399,-2.960892 12.1746,-0.88516 6.81936,4.492819 7.30934,5.273044 8.75091,0.04993 4.0489,-14.669935 11.15112,-22.989349 23.97261,-28.081138 19.47922,-7.735766 28.08121,-0.319593 34.33879,29.605058 2.00608,9.593392 2.22454,13.292359 1.88247,31.875004 -0.35816,19.457882 -0.58865,21.580262 -3.09749,28.522172 -12.59142,34.84034 -11.41852,17.68226 -5.40741,37.27549 8.3862,27.33482 8.37004,30.87873 -0.0782,55.46426 l -4.75577,13.83994 c -67.43925,24.68388 -40.33597,-47.17088 -39.69161,-64.34575 0,-2.31175 1.67238,-9.3851 3.7164,-15.71856 2.82436,-8.75136 3.8302,-13.91567 4.19047,-21.51538 0.57937,-12.22085 0.3947,-18.08835 -5.86407,-20.1524 l -4.18307,-3.37951 -10.41537,4.01693 c -5.72846,2.20931 -10.62418,4.27183 -10.87938,4.58338 -0.25519,0.31156 0.5559,1.89183 1.80245,3.51173 2.22512,2.89157 6.2741,14.19086 6.2741,17.50884 0,0.92794 -1.07386,3.61904 -2.38637,5.98021 -1.31251,2.36118 -2.9294,6.19477 -3.59309,8.51908 -1.07301,3.75773 -0.38372,3.28681 -0.64232,4.91583 -0.93561,5.89396 -2.17203,11.71085 -3.28663,17.55823 -2.42648,12.72978 -4.24328,28.8825 -7.40376,38.15369 -5.27141,15.46358 -5.1337,23.045 -12.7599,37.59142 -6.92802,13.21474 -22.08988,29.10562 -35.49176,34.19197 -6.18436,2.34712 -9.87171,2.89626 -18.9421,2.82097 -9.74579,-0.0809 -12.44125,-0.5961 -20.01122,-3.8249 -11.056,-4.71569 -19.02223,-11.05211 -28.11195,-22.3605 -11.81119,-14.69412 -22.4852,-46.25095 -25.15457,-68.16178 -1.5397,-13.07725 -1.86483,-21.80241 -2.11656,-32.74803 -0.0831,-3.61637 0.69408,-7.28327 0.20089,-10.85061 -1.14228,-8.26243 -7.1959,-17.81127 -7.1959,-23.55285 0,-2.76484 0.65311,-6.9353 1.45137,-9.26768 1.71112,-4.99962 1.02963,-5.66051 -5.88669,-5.70883 -2.34729,-0.0164 -5.89143,-0.49098 -7.87585,-1.0546 -2.94418,-0.83623 -4.30218,-0.48848 -7.38052,1.89 -7.24906,5.60094 -7.76858,20.27611 -1.42514,40.25735 4.4579,14.04196 4.61734,19.16562 0.9812,31.53062 50.66328,57.35299 -63.3406,75.19628 -40.80907,8.65644 z m 163.323,89.94232 c 14.16572,-6.1331 25.0483,-18.63455 33.14826,-35.08379 8.09995,-16.44923 13.41729,-36.84624 16.45251,-58.77046 0.52152,-3.76707 1.52823,-12.82097 1.9942,-19.27048 0.23433,-3.24342 1.6671,-6.88922 0.40211,-9.7557 -2.63187,-5.96387 -10.47563,-2.4151 -14.34469,-10.31217 -2.61625,-5.33998 -4.53006,-7.49992 -9.45376,-10.66947 -7.60256,-4.89403 -13.85269,-10.73706 -13.85269,-12.95041 0,-0.95066 -1.67751,-2.00609 -3.92541,-2.46974 -6.32631,-1.30485 -10.38702,-5.08709 -12.72982,-11.8569 -1.70295,-4.92086 -2.68665,1.78669 -5.19523,1.17419 -1.70198,-0.41557 -5.19951,-2.27763 -7.77231,-4.13793 -3.40241,-2.46018 -6.10149,-3.39354 -9.89967,-3.4234 -4.45941,-0.0351 -6.12772,-8.816762 -11.42561,-13.353552 -3.41205,-2.92188 -6.59394,-5.312504 -7.07087,-5.312504 -0.47693,0 -1.94807,2.876494 -3.26919,6.392214 -1.32114,3.51572 -4.26207,8.437592 -6.5354,10.937502 -2.27335,2.49991 -6.16089,7.14167 -8.63899,10.31504 -2.47811,3.17336 -6.3306,6.77441 -8.5611,8.00234 -3.60169,1.98278 -4.05545,2.72116 -4.05545,6.59908 0,2.42533 -1.59497,8.41484 -3.58775,13.47292 -3.86457,9.80908 -11.48664,11.56686 -13.90544,19.72304 -2.54756,8.59035 -0.36599,19.13331 0.35814,27.4046 2.22332,26.29886 15.84732,63.08179 31.66557,78.92282 6.58207,6.59156 17.65837,13.41865 25.89152,15.95875 8.45308,2.60795 26.61795,1.79477 34.31107,-1.53599 z m 68.15904,-172.52866 c 9.49914,-3.71479 13.76413,-6.90618 13.76413,-10.299402 0,-2.33441 -6.09202,-22.407527 -7.37186,-24.290178 -1.84108,-2.708243 -10.5902,-10.420106 -21.1129,-4.576173 -5.11275,2.839442 -5.71341,13.040996 -6.8397,13.530597 -1.91501,0.832463 -1.83871,1.107613 1.17659,4.243344 4.53154,4.71251 5.68715,8.16879 5.44504,16.285492 -0.11595,3.88722 -0.1558,7.48954 -0.0886,8.00517 0.24266,1.8607 5.4011,0.86561 15.02728,-2.89885 z m -7.73772,0.19022 c 0,-1.22003 4.68131,-3.84087 6.95949,-3.89629 0.959,-0.0233 3.58407,-1.10461 5.83347,-2.40285 4.13264,-2.38513 5.88913,-2.36231 3.91249,0.0508 -1.4357,1.75274 -16.70545,7.46406 -16.70545,6.24831 z m 11.30981,-29.996819 c -0.79247,-1.807735 -0.80806,-2.607057 -0.0508,-2.607057 1.24129,0 2.59314,3.505641 1.7492,4.535967 -0.30553,0.372982 -1.06978,-0.495027 -1.69837,-1.92891 z M 549.16879,107.04589 c 0.2895,-1.20313 0.82172,-4.2263 1.18274,-6.71816 0.3682,-2.541492 2.41509,-7.128892 4.66213,-10.448602 2.20316,-3.25487 4.00574,-6.3732 4.00574,-6.929614 0,-0.556414 0.26773,-1.863395 0.59494,-2.904404 0.7448,-2.369521 2.44778,-12.07547 -10.10125,-17.314604 -10.10082,-4.217021 -21.62716,2.682942 -23.59731,5.288099 -0.93907,1.241759 -0.81092,1.4169 0.59489,0.812983 2.18649,-0.939292 2.29124,0.367846 0.28853,3.600384 -1.48348,2.394449 -1.50457,2.393479 -1.60074,-0.07359 -0.0902,-2.312739 -0.16648,-2.290509 -1.0187,0.296765 -1.25427,3.80783 -2.45205,24.309741 -1.64857,28.217993 0.94863,4.61424 8.5315,7.38056 22.34063,8.15012 2.80334,0.15622 3.90564,-0.35103 4.29697,-1.97737 z m -9.60343,-1.00558 c -0.84472,-0.22169 -4.18519,-0.75942 -7.42326,-1.19495 -3.76723,-0.5067 -5.88741,-1.36876 -5.88741,-2.39381 0,-1.2911 1.03669,-1.27365 5.34263,0.09 2.93843,0.93054 6.88203,1.69189 8.76355,1.69189 2.01989,0 3.16176,0.51193 2.78813,1.25 -0.63841,1.26106 -0.80311,1.28666 -3.58364,0.55692 z"
       id="path3354"
       inkscape:connector-curvature="0"
       inkscape:export-xdpi="90"
       inkscape:export-ydpi="90" />
  </g>
  <g
     inkscape:groupmode="layer"
     id="layer12"
     inkscape:label="NOSE">
    <path
       sodipodi:nodetypes="sssss"
       inkscape:connector-curvature="0"
       id="path3355"
       d="m 634.08397,205.33979 c 0,1.5272 -0.44709,2.76523 -0.9986,2.76523 -0.55152,0 -2.55207,-0.50479 -2.55207,-2.03199 0,-1.52719 2.00055,-3.49847 2.55207,-3.49847 0.55151,0 0.9986,1.23803 0.9986,2.76523 z"
       style="display:inline;fill:#000000;fill-opacity:1;stroke:none;stroke-width:5;stroke-miterlimit:4;stroke-dasharray:none;stroke-opacity:1"
       inkscape:export-xdpi="90"
       inkscape:export-ydpi="90" />
    <path
       style="display:inline;fill:#000000;fill-opacity:1;stroke:none;stroke-width:5;stroke-miterlimit:4;stroke-dasharray:none;stroke-opacity:1"
       d="m 622.5333,205.33979 c 0,1.5272 0.44709,2.76523 0.9986,2.76523 0.55152,0 2.55207,-0.50479 2.55207,-2.03199 0,-1.52719 -2.00055,-3.49847 -2.55207,-3.49847 -0.55151,0 -0.9986,1.23803 -0.9986,2.76523 z"
       id="path3357"
       inkscape:connector-curvature="0"
       sodipodi:nodetypes="sssss"
       inkscape:export-xdpi="90"
       inkscape:export-ydpi="90" />
  </g>
  <g
     inkscape:groupmode="layer"
     id="layer1"
     inkscape:label="mouth"
     style="display:inline" />
  <g
     inkscape:groupmode="layer"
     id="layer3"
     inkscape:label="tooth"
     style="display:inline" />
  <g
     inkscape:groupmode="layer"
     id="layer6"
     inkscape:label="glasses">
    <path
       inkscape:connector-curvature="0"
       d="m 696.44469,149.13006 c -0.72343,-8.92211 -4.0775,-17.43868 -9.50321,-23.68416 -5.623,-6.44825 -12.92305,-10.0171 -20.61768,-10.0171 -13.6465,0 -25.41863,11.11209 -29.10153,27.1719 -2.30182,-2.83886 -6.08338,-4.74495 -9.63476,-4.74495 -3.55137,0 -7.33291,0.16803 -9.63473,3.00689 -10.53417,-15.19078 -7.84254,-13.26745 -20.72776,-20.21967 -6.92703,-3.73748 -23.36846,-1.68588 -28.99147,4.76238 -5.42571,6.28603 -8.77978,14.8026 -9.5032,23.72471 l -4.80093,0 0,7.29992 4.80093,0.86903 c 0.72342,8.92211 -1.25127,2.66518 4.17445,8.91066 1.81674,12.53146 19.31062,22.86462 26.7077,20.44546 15.94335,-5.21417 21.56615,-11.24986 29.52407,-33.83456 l -0.76125,-7.86175 0.76125,0.86902 c 0,-4.01495 3.78155,-1.80766 8.45094,-1.80766 4.66941,0 9.21222,-0.46923 9.21222,3.54572 l 0.76125,-2.60709 1.52249,15.68301 c 0,0 1.41817,15.31232 22.67281,26.01331 0,0 14.99468,-0.0522 24.42394,-9.14808 5.42572,-6.24548 9.54104,-12.19552 10.26447,-21.11763 l 4.80094,0 0,-7.29991 -4.80094,0 z m -30.12089,34.87736 c -13.97532,0 -25.31999,-14.03205 -25.31999,-31.2274 0,-26.79522 11.37756,-31.22741 25.31999,-31.22741 13.9753,0 25.31997,14.03206 25.31997,31.22741 0,17.2359 -11.34467,31.2274 -25.31997,31.2274 z m -77.47255,0 c -13.97531,0 -25.31997,-14.03205 -25.31997,-31.2274 0,-17.23591 11.37754,-31.22741 25.31997,-31.22741 13.97531,0 25.31997,14.03206 25.31997,31.22741 0,17.2359 -11.34466,31.2274 -25.31997,31.2274 z"
       id="path3370"
       sodipodi:nodetypes="ccscscsccccccscccscccsccccccssssssssss"
       inkscape:export-xdpi="90"
       inkscape:export-ydpi="90" />
  </g>
  <g
     inkscape:groupmode="layer"
     id="layer5"
     inkscape:label="right eye"
     style="display:inline">
    <path
       style="display:inline;fill:#000000;fill-opacity:1;stroke:none;stroke-width:5;stroke-miterlimit:4;stroke-dasharray:none;stroke-opacity:1"
       d="m 668.20921,150.25963 c 1.9768,1.86108 -2.57522,4.83588 -3.73838,6.07137 -1.16317,1.23549 -3.70861,0.72837 -5.68541,-1.13271 -1.97679,-1.86107 -2.63636,-4.37134 -1.47319,-5.60683 1.16317,-1.23549 8.92019,-1.1929 10.89698,0.66817 z"
       id="ellipse4276"
       inkscape:connector-curvature="0"
       sodipodi:nodetypes="sssss"
       inkscape:export-xdpi="90"
       inkscape:export-ydpi="90" />
    <path
       sodipodi:nodetypes="sssss"
       inkscape:connector-curvature="0"
       id="path4207"
       d="m 598.20921,150.25963 c 1.9768,1.86108 -2.57522,4.83588 -3.73838,6.07137 -1.16317,1.23549 -3.70861,0.72837 -5.68541,-1.13271 -1.97679,-1.86107 -2.63636,-4.37134 -1.47319,-5.60683 1.16317,-1.23549 8.92019,-1.1929 10.89698,0.66817 z"
       style="display:inline;fill:#000000;fill-opacity:1;stroke:none;stroke-width:5;stroke-miterlimit:4;stroke-dasharray:none;stroke-opacity:1"
       inkscape:export-xdpi="90"
       inkscape:export-ydpi="90" />
  </g>
  <g
     inkscape:groupmode="layer"
     id="layer4"
     inkscape:label="LEFT EYE"
     style="display:inline" />
  <g
     inkscape:groupmode="layer"
     id="layer16"
     inkscape:label="BOTTEL" />
</svg>
