<?xml version="1.0" encoding="UTF-8" standalone="no"?>
<!-- Created with Inkscape (http://www.inkscape.org/) -->

<svg
   xmlns:dc="http://purl.org/dc/elements/1.1/"
   xmlns:cc="http://creativecommons.org/ns#"
   xmlns:rdf="http://www.w3.org/1999/02/22-rdf-syntax-ns#"
   xmlns:svg="http://www.w3.org/2000/svg"
   xmlns="http://www.w3.org/2000/svg"
   xmlns:sodipodi="http://sodipodi.sourceforge.net/DTD/sodipodi-0.dtd"
   xmlns:inkscape="http://www.inkscape.org/namespaces/inkscape"
   width="744.09448819"
   height="1052.3622047"
   id="svg3905"
   version="1.1"
   inkscape:version="0.48.4 r9939"
   sodipodi:docname="New document 3">
  <defs
     id="defs3907" />
  <sodipodi:namedview
     id="base"
     pagecolor="#ffffff"
     bordercolor="#666666"
     borderopacity="1.0"
     inkscape:pageopacity="0.0"
     inkscape:pageshadow="2"
     inkscape:zoom="0.35"
     inkscape:cx="375"
     inkscape:cy="520"
     inkscape:document-units="px"
     inkscape:current-layer="layer1"
     showgrid="false"
     inkscape:window-width="1305"
     inkscape:window-height="744"
     inkscape:window-x="61"
     inkscape:window-y="24"
     inkscape:window-maximized="1" />
  <metadata
     id="metadata3910">
    <rdf:RDF>
      <cc:Work
         rdf:about="">
        <dc:format>image/svg+xml</dc:format>
        <dc:type
           rdf:resource="http://purl.org/dc/dcmitype/StillImage" />
        <dc:title></dc:title>
      </cc:Work>
    </rdf:RDF>
  </metadata>
  <g
     inkscape:label="Layer 1"
     inkscape:groupmode="layer"
     id="layer1">
    <path
       inkscape:export-ydpi="90"
       inkscape:export-xdpi="90"
       sodipodi:nodetypes="zzzzzcczzzzz"
       inkscape:connector-curvature="0"
       d="m 356.99276,541.02539 c 0.564,-1.0532 2.3623,-4.6078 3.5041,-6.32231 1.1418,-1.71445 1.9009,-2.75187 2.6802,-3.94457 0.7796,-1.19275 0.7878,-2.03206 1.4074,-3.19036 0.6195,-1.15823 1.3168,-2.48501 2.1616,-3.75185 0.8449,-1.26693 1.3635,-2.30567 2.3843,-3.8355 1.8194,-2.91604 -11.8355,-1.35563 -9.5896,0.90233 -0.9068,1.26678 -1.5282,2.59378 -2.2595,3.75356 -0.7308,1.1597 -2.0097,2.22078 -2.6505,3.42985 -0.6409,1.20911 -1.1962,2.81525 -2.7778,5.39261 -1.5817,2.57737 -3.6853,5.54233 -4.6862,6.56843 -1.0011,1.02613 9.2617,2.0511 9.826,0.99781 z"
       id="path3054"
       style="fill:#000000;fill-opacity:1;stroke:none;display:inline" />
    <path
       inkscape:export-ydpi="90"
       inkscape:export-xdpi="90"
       sodipodi:nodetypes="zzzzzcczzzzz"
       inkscape:connector-curvature="0"
       d="m 352.32216,682.4028 c -0.6264,7.4621 -2.5849,32.67952 -3.9252,44.75635 -1.3453,12.07638 -2.2591,19.36238 -3.1734,27.76854 -0.9144,8.40617 -0.7687,14.4915 -1.456,22.69805 -0.6876,8.20654 -1.4572,17.61103 -2.4525,26.53426 -0.9958,8.92319 -1.5582,16.29504 -2.7616,27.07011 -2.1096,20.57884 17.5364,13.56244 13.8329,-3.52334 1.0866,-8.90334 1.7452,-18.33345 2.595,-26.51534 0.8496,-8.18193 0.7043,-14.02095 1.4132,-22.58935 0.7093,-8.56834 1.6591,-16.82391 2.6441,-28.8544 0.9848,-12.03054 3.3754,-36.06577 4.6447,-43.19367 1.2692,-7.12791 -10.73,-31.61289 -11.3561,-24.15075 z"
       id="path3058"
       style="fill:#000000;fill-opacity:1;stroke:none;display:inline" />
    <path
       inkscape:export-ydpi="90"
       inkscape:export-xdpi="90"
       style="fill:#000000;fill-opacity:1;stroke:none;display:inline"
       id="path3060"
       d="m 352.39966,682.2457 c 0.4254,7.47627 2.0192,32.71933 2.3843,44.86483 0.3599,12.14576 0.476,19.4879 0.7485,27.93925 0.2724,8.45137 1.2693,14.45628 1.7385,22.67817 0.469,8.22193 1.0247,17.64148 1.2892,26.61617 0.2644,8.97468 0.7404,16.35261 1.0585,27.19 0.7944,20.67143 19.2637,10.97167 13.2027,-5.42668 -0.1714,-8.96777 -0.8405,-18.39714 -1.1456,-26.61737 -0.305,-8.22028 -1.2669,-13.98136 -1.7655,-22.56456 -0.4982,-8.5832 -0.7145,-16.89041 -1.4247,-28.94025 -0.7105,-12.04985 -1.711,-36.18294 -1.4529,-43.41837 0.258,-7.23542 -15.0534,-29.79771 -14.6278,-22.32146 z"
       inkscape:connector-curvature="0"
       sodipodi:nodetypes="zzzzzcczzzzz" />
    <path
       inkscape:export-ydpi="90"
       inkscape:export-xdpi="90"
       sodipodi:nodetypes="cczzzc"
       inkscape:connector-curvature="0"
       id="path3068"
       d="m 351.36576,365.23955 19.2042,-2.2557 c 0,0 1.8478,14.60213 0.061,29.82329 -1.7874,15.22116 -2.6496,37.54055 -9.5264,38.34829 -6.8766,0.8077 -7.8294,-21.29849 -9.6778,-36.09261 -1.8483,-14.79414 -0.061,-29.82327 -0.061,-29.82327 z"
       style="fill:#f4e3d7;fill-opacity:1;stroke:#000000;stroke-width:1.18974638;stroke-miterlimit:4;stroke-opacity:1;stroke-dasharray:none"
       inkscape:transform-center-x="33.545683"
       inkscape:transform-center-y="12.06267" />
    <path
       inkscape:export-ydpi="90"
       inkscape:export-xdpi="90"
       sodipodi:nodetypes="cczcczsc"
       inkscape:connector-curvature="0"
       id="path3066"
       d="m 351.00686,399.51089 19.8727,0.85833 c 0,0 14.3196,74.02803 18.1174,129.04882 3.7976,55.02081 7.5871,188.56651 7.5871,188.56651 l -80.1366,2.20276 c 0,0 7.8986,-162.73839 8.6541,-194.71385 0.7553,-31.97547 3.1495,-51.4199 9.1672,-77.44691 5.5995,-24.2189 16.7381,-48.51566 16.7381,-48.51566 z"
       style="fill:#ff7f2a;fill-opacity:1;stroke:#000000;stroke-width:1.75862658;stroke-miterlimit:4;stroke-opacity:1;stroke-dasharray:none;display:inline" />
    <path
       sodipodi:nodetypes="cssccsccssscsssscc"
       style="fill:#f4e3d7;fill-opacity:1;display:inline"
       d="m 308.15816,147.35242 c 6.757,0 20.1395,-7.40219 14.2449,-4.04958 -8.4521,4.80714 16.2139,-1.79846 16.2139,-4.51015 0,-2.88117 7.0876,-0.36089 10.3482,-2.77703 9.7271,1.12114 19.4316,1.7959 35.1254,0.9447 24.151,3.88245 47.4739,26.45182 52.4872,50.56656 3.9186,18.84932 1.1521,44.35126 -7.9491,63.6155 -20.4696,55.4913 -23.6922,83.94494 -48.5044,110.05972 -6.3377,1.64105 -7.2222,6.70659 -16.2018,6.63239 -9.6483,-0.0797 -13.6274,5.32378 -21.6361,3.83281 -15.2038,-2.83049 -19.2619,-2.24639 -29.9813,-14.24697 -12.4019,-13.8841 -12.1902,-18.7473 -14.8329,-40.33995 -0.3811,-3.22183 1.3817,-12.54132 -4.8394,-14.57975 -6.9686,-2.28336 -14.7257,-3.42421 -14.7848,-10.76627 -0.059,-7.34207 6.2414,-15.32934 7.0608,-31.18159 0.8194,-15.85225 -0.032,-41.80055 -3.4737,-45.04408 -15.9769,-15.0583 -18.7887,-49.06034 -3.2425,-48.37499 26.8739,-22.09524 17.1327,-14.19134 29.9656,-19.78132 z"
       id="path3879"
       inkscape:connector-curvature="0"
       inkscape:export-xdpi="90"
       inkscape:export-ydpi="90" />
    <path
       inkscape:export-ydpi="90"
       inkscape:export-xdpi="90"
       inkscape:connector-curvature="0"
       id="path3076"
       d="m 305.69616,146.65045 c 6.8253,0 20.343,-7.51127 14.3888,-4.10926 -8.5375,4.87799 16.3778,-1.82496 16.3778,-4.57661 0,-2.92362 7.1592,-0.3662 10.4528,-2.81794 9.8254,1.13766 19.6279,1.82236 35.4803,0.95862 24.3951,3.93965 47.9537,26.84161 53.0176,51.31172 3.9582,19.12708 7.3084,46.32757 -8.0294,64.55294 -20.6765,56.30903 -24.3705,92.23665 -54.2615,116.09075 -6.4017,1.66524 -2.0282,1.7727 -11.0986,1.6974 -9.7458,-0.0809 -13.7651,0.81161 -21.8547,-0.70133 -15.3575,-2.8722 -19.0222,-2.8956 -28.1119,-14.20399 -11.8112,-14.69412 -12.6417,-22.03268 -15.3111,-43.94351 -0.7699,-6.53862 -17.6987,-6.95612 -17.8181,-21.85663 -0.06,-7.45026 3.3527,-13.02393 4.1804,-29.10978 0.8276,-16.08585 -2.9294,-40.84037 -6.4056,-44.1317 -16.1383,-15.2802 -16.9785,-49.78331 -1.2752,-49.08785 27.1454,-22.42085 17.3058,-14.40047 30.2684,-20.07283 z m 65.1238,219.02507 c 7.0662,-3.09153 16.2174,-9.6596 22.9951,-25.7433 3.3808,-8.02274 15.6482,-28.98182 10.0539,-36.54328 -6.5015,-8.78785 -23.1466,-28.62114 -21.2994,-31.3662 -4.29,-0.35796 -5.8796,-20.16434 -44.3503,-40.0283 -22.8242,-2.54827 -21.1313,-5.68689 -32.0203,-12.22259 -15.3922,-6.82622 -15.0507,-5.19338 -25.5756,-4.71223 -0.6368,2.14759 6.3723,29.98363 4.4279,45.72954 -1.9444,15.74592 -8.9989,21.2452 -8.4057,28.61383 1.1865,14.73727 19.908,12.50467 20.2701,16.64031 2.302,26.29209 7.9132,47.28886 27.3525,58.39152 9.2262,5.26951 23.1804,3.24484 31.5711,3.6062 8.3849,0.3611 7.2876,0.96526 14.9807,-2.3655 z"
       style="fill:#000000;display:inline"
       sodipodi:nodetypes="cssccsccssscssscccssccccsssssc" />
    <path
       inkscape:export-ydpi="90"
       inkscape:export-xdpi="90"
       style="fill:#ff6600;fill-opacity:1;stroke:none;display:inline"
       d="m 353.29556,205.46975 c 12.7826,8.77894 2.7676,11.86913 15.4664,6.88919 16.9323,-6.64011 21.9614,-7.85015 26.347,-24.50809 5.9812,-22.71832 -7.5261,-21.00683 -27.6974,-23.91796 -10.9269,-1.57699 -36.2564,26.33109 -14.116,41.53686 z"
       id="path3072"
       inkscape:connector-curvature="0"
       sodipodi:nodetypes="sssss" />
    <path
       style="fill:#000000;stroke:#000000;stroke-width:1.78452885;stroke-miterlimit:4;display:inline"
       d="m 394.98706,266.32976 c -4.9133,21.49507 -1.7743,24.1613 -0.774,34.21646 1.0003,10.05516 -7.7081,50.13482 -11.083,52.43201 -9.7761,6.65423 -18.9214,8.15224 -24.0303,-3.5934 -5.109,-11.74564 -6.8125,-41.08787 -2.9666,-69.99609 3.3196,-24.95268 -7.2219,-23.96102 -4.6197,-40.58659 2.6024,-16.62559 6.1975,-49.54429 10.1685,-49.54429 3.971,0 20.1825,-7.99945 22.7849,8.62613 2.6024,16.62558 16.0504,44.25127 10.5202,68.44576 z"
       id="path3874"
       inkscape:connector-curvature="0"
       sodipodi:nodetypes="sssssssss" />
    <rect
       style="fill:#000000;stroke:#000000;stroke-width:3;stroke-miterlimit:4;stroke-dasharray:none;display:inline"
       id="rect3877"
       width="35.630161"
       height="6.0831981"
       x="325.93826"
       y="252.01543" />
    <path
       inkscape:export-ydpi="90"
       inkscape:export-xdpi="90"
       style="fill:#000000;fill-opacity:1;stroke:none;display:inline"
       id="path3062"
       d="m 367.85196,421.99132 c -0.4498,4.52857 1.7293,12.06952 1.2627,19.35102 -0.4667,7.28147 0.2317,13.93978 -0.1105,19.01134 -0.3421,5.07176 -0.6886,12.95535 -1.1839,17.93592 -0.4952,4.98057 -0.6052,9.69287 -0.9488,15.07292 -0.3434,5.38001 -0.1894,14.77813 -0.6034,21.27452 -0.9389,12.43416 -21.5386,5.94772 -16.4776,-5.1546 0.2699,-5.3547 1.1559,-9.45782 1.5204,-14.39993 0.3647,-4.94215 -0.8423,-10.49908 -0.3186,-15.70051 0.524,-5.20137 1.1838,-11.992 1.9274,-19.29644 0.7438,-7.30454 -0.4802,-33.89057 -0.5776,-38.12046 -0.097,-4.22997 15.9591,-4.50247 15.5099,0.0262 z"
       inkscape:connector-curvature="0"
       sodipodi:nodetypes="zzzzzcczzzzz"
       inkscape:transform-center-x="-8.1347987"
       inkscape:transform-center-y="3.5336553" />
    <path
       style="fill:#ffffff;stroke:#ff0000;stroke-width:3;stroke-linecap:butt;stroke-linejoin:miter;stroke-miterlimit:4;stroke-opacity:1;stroke-dasharray:none;display:inline"
       d="m 299.86736,333.70412 19.9877,9.55931 -14.7735,4.34514"
       id="path3870"
       inkscape:connector-curvature="0"
       sodipodi:nodetypes="ccc" />
    <path
       inkscape:export-ydpi="90"
       inkscape:export-xdpi="90"
       sodipodi:nodetypes="csccccccsccccsssss"
       id="path3090"
       d="m 325.95846,248.11291 c -6.9506,-15.19079 -5.1746,-13.26746 -13.6766,-20.21968 -4.5707,-3.73748 -15.4192,-1.68588 -19.1293,4.76238 -3.5801,6.28604 -5.7932,14.80261 -6.2705,23.72472 l -3.1678,0 0,7.29992 3.1678,0.86903 c 0.4773,8.92211 -0.8257,2.66518 2.7544,8.91066 1.1987,12.53146 12.7417,22.86462 17.6224,20.44546 10.5198,-5.21417 14.2299,-11.24986 19.4807,-33.83456 l -0.5021,-7.86175 0.5021,0.86902 c -0.5187,15.07836 -0.7811,-4.9652 -0.7811,-4.9652 z m -19.2019,43.14478 c -9.2213,0 -16.7068,-14.03205 -16.7068,-31.2274 0,-17.23591 7.5073,-31.22742 16.7068,-31.22742 9.2213,0 16.7069,14.03207 16.7069,31.22742 0,17.2359 -7.4856,31.2274 -16.7069,31.2274 z"
       inkscape:connector-curvature="0" />
    <path
       inkscape:export-ydpi="90"
       inkscape:export-xdpi="90"
       style="fill:#000000;fill-opacity:1;stroke:none;display:inline"
       d="m 315.82766,255.77184 c 1.9768,1.86108 -2.5753,4.83588 -3.7384,6.07137 -1.1632,1.23549 -3.7086,0.72837 -5.6854,-1.13271 -1.9768,-1.86107 -2.6364,-4.37134 -1.4732,-5.60683 1.1631,-1.23549 8.9202,-1.1929 10.897,0.66817 z"
       id="path3094"
       inkscape:connector-curvature="0"
       sodipodi:nodetypes="sssss" />
  </g>
</svg>
