<?xml version="1.0" encoding="UTF-8" standalone="no"?>
<!-- Created with Inkscape (http://www.inkscape.org/) -->

<svg
   xmlns:dc="http://purl.org/dc/elements/1.1/"
   xmlns:cc="http://creativecommons.org/ns#"
   xmlns:rdf="http://www.w3.org/1999/02/22-rdf-syntax-ns#"
   xmlns:svg="http://www.w3.org/2000/svg"
   xmlns="http://www.w3.org/2000/svg"
   xmlns:sodipodi="http://sodipodi.sourceforge.net/DTD/sodipodi-0.dtd"
   xmlns:inkscape="http://www.inkscape.org/namespaces/inkscape"
   width="744.09448819"
   height="1052.3622047"
   id="svg3905"
   version="1.1"
   inkscape:version="0.91 r13725"
   sodipodi:docname="shrookbelganb2.svg"
   inkscape:export-filename="/home/rana/SparkleShare/CCC/linuxCourse/Chapter 1/character/SHROOK/shrookbelganb2.png"
   inkscape:export-xdpi="44.27623"
   inkscape:export-ydpi="44.27623">
  <defs
     id="defs3907" />
  <sodipodi:namedview
     id="base"
     pagecolor="#ffffff"
     bordercolor="#666666"
     borderopacity="1.0"
     inkscape:pageopacity="0.0"
     inkscape:pageshadow="2"
     inkscape:zoom="0.35"
     inkscape:cx="313.71695"
     inkscape:cy="881.44105"
     inkscape:document-units="px"
     inkscape:current-layer="layer1"
     showgrid="false"
     inkscape:window-width="1024"
     inkscape:window-height="706"
     inkscape:window-x="-8"
     inkscape:window-y="-8"
     inkscape:window-maximized="1"
     showguides="false" />
  <metadata
     id="metadata3910">
    <rdf:RDF>
      <cc:Work
         rdf:about="">
        <dc:format>image/svg+xml</dc:format>
        <dc:type
           rdf:resource="http://purl.org/dc/dcmitype/StillImage" />
        <dc:title />
      </cc:Work>
    </rdf:RDF>
  </metadata>
  <g
     inkscape:label="Layer 1"
     inkscape:groupmode="layer"
     id="layer1">
    <path
       inkscape:export-ydpi="44.27623"
       inkscape:export-xdpi="44.27623"
       inkscape:export-filename="C:\Users\Home\Desktop\belganb2.png"
       sodipodi:nodetypes="cssssssssc"
       inkscape:connector-curvature="0"
       id="path4168"
       d="m 274.89143,170.92397 c -4.15041,-25.15219 -1.4988,-28.27203 -0.65383,-40.03795 0.84498,-11.76588 -6.51123,-58.664575 -9.3621,-61.352605 -8.25815,-7.78636 -20.15895,-20.04496 -28.92131,-8.99395 -12.10797,15.27046 0.71501,56.157105 1.80514,92.463965 0.84349,28.09223 -1.7894,30.67741 0.40875,50.13161 2.19816,19.45423 5.23521,30.25629 8.58962,30.25629 3.35441,0 17.04871,9.36044 19.24703,-10.09375 2.19832,-19.4542 13.55822,-24.06273 8.8867,-52.3736 z"
       style="display:inline;fill:#000000;stroke:#000000;stroke-width:1.77419007;stroke-miterlimit:4" />
    <path
       style="display:inline;fill:#000000;fill-opacity:1;stroke:none"
       id="path4205-0"
       d="m 168.81075,545.49452 c 0.028,7.48829 0.28,32.78038 -0.01,44.92814 -0.2851,12.14774 -0.5588,19.4857 -0.7352,27.9396 -0.1765,8.45392 0.5003,14.50326 0.5326,22.73846 0.032,8.23524 0.087,17.671 -0.125,26.64708 -0.2124,8.97607 -0.1286,16.36886 -0.386,27.20786 -0.3037,20.68446 18.6543,11.9785 13.4722,-4.71839 0.3046,-8.96423 0.1368,-18.41582 0.2685,-26.64066 0.1316,-8.22488 -0.5233,-14.02888 -0.5657,-22.62645 -0.042,-8.59754 0.1829,-16.90452 0.1131,-28.97507 -0.07,-12.07058 0.2116,-36.22276 0.8533,-43.4343 0.6416,-7.21154 -13.4509,-30.55457 -13.4226,-23.06627 z"
       inkscape:connector-curvature="0"
       sodipodi:nodetypes="zzzzzcczzzzz"
       inkscape:export-xdpi="44.27623"
       inkscape:export-ydpi="44.27623"
       inkscape:export-filename="C:\Users\Home\Desktop\belganb2.png" />
    <path
       sodipodi:nodetypes="zzzzzcczzzzz"
       inkscape:connector-curvature="0"
       d="m 228.81075,535.49452 c 0.028,7.48829 0.28,32.78038 -0.01,44.92814 -0.2851,12.14774 -0.5588,19.4857 -0.7352,27.9396 -0.1765,8.45392 0.5003,14.50326 0.5326,22.73846 0.032,8.23524 0.087,17.671 -0.1251,26.64708 -0.2123,8.97607 -0.1285,16.36886 -0.3859,27.20786 -0.3037,20.68446 18.6543,11.9785 13.4721,-4.71839 0.3047,-8.96423 0.1369,-18.41582 0.2685,-26.64066 0.1317,-8.22488 -0.5232,-14.02888 -0.5656,-22.62645 -0.042,-8.59754 0.1829,-16.90452 0.1131,-28.97507 -0.07,-12.07058 0.2116,-36.22276 0.8533,-43.4343 0.6416,-7.21154 -13.4509,-30.55457 -13.4226,-23.06627 z"
       id="path4203-5"
       style="display:inline;fill:#000000;fill-opacity:1;stroke:none"
       inkscape:export-xdpi="44.27623"
       inkscape:export-ydpi="44.27623"
       inkscape:export-filename="C:\Users\Home\Desktop\belganb2.png" />
    <path
       sodipodi:nodetypes="zzzzzcczzzzz"
       inkscape:connector-curvature="0"
       d="m -417.81595,232.70225 c 4.0786,2.37789 14.7865,3.75121 21.4981,7.22904 6.7116,3.47783 13.5241,5.13935 18.1885,7.58482 4.6645,2.44544 12.0264,5.99663 16.5115,8.61307 4.4851,2.61644 8.9439,4.60793 13.9037,7.17577 4.9597,2.56785 14.0763,6.03567 20.0657,9.13538 11.3758,6.1304 -7.2172,31.39838 -14.84,20.22497 -4.9798,-2.45826 -8.3878,-5.25906 -12.9143,-7.68423 -4.5266,-2.42519 -10.587,-2.96925 -15.2669,-5.71077 -4.6799,-2.74154 -10.8043,-6.28805 -17.3717,-10.1487 -6.5675,-3.86069 -22.2356,-8.05082 -26.3557,-9.57365 -4.1202,-1.52283 -7.4976,-29.2236 -3.4189,-26.8457 z"
       id="path4171-2"
       style="fill:#000000;fill-opacity:1;stroke:none;display:inline"
       inkscape:export-xdpi="90"
       inkscape:export-ydpi="90"
       inkscape:export-filename="/home/rana/SparkleShare/CCC/linuxCourse/Chapter 1/character/SHROOK/btbosleta7t.png" />
    <path
       inkscape:export-ydpi="90"
       inkscape:export-xdpi="90"
       style="fill:#000000;fill-opacity:1;stroke:none;display:inline"
       id="path4204-3"
       d="m -205.04114,222.70225 c -4.0787,2.37789 -14.7866,3.75121 -21.4982,7.22904 -6.7116,3.47783 -13.524,5.13935 -18.1885,7.58482 -4.6644,2.44544 -12.0264,5.99663 -16.5115,8.61307 -4.4851,2.61644 -8.9439,4.60793 -13.90356,7.17577 -4.9598,2.56785 -14.0764,6.03567 -20.0658,9.13538 -11.3758,6.1304 7.2173,31.39838 14.84,20.22497 4.9798,-2.45826 8.3878,-5.25906 12.91426,-7.68423 4.5266,-2.42519 10.587,-2.96925 15.267,-5.71077 4.6799,-2.74154 10.8042,-6.28805 17.3717,-10.1487 6.5674,-3.86069 22.2355,-8.05082 26.3557,-9.57365 4.1201,-1.52283 7.4975,-29.2236 3.4189,-26.8457 z"
       inkscape:connector-curvature="0"
       sodipodi:nodetypes="zzzzzcczzzzz"
       inkscape:export-filename="/home/rana/SparkleShare/CCC/linuxCourse/Chapter 1/character/SHROOK/btbosleta7t.png" />
    <path
       style="display:inline;fill:#ff7f2a;fill-opacity:1;stroke:#000000;stroke-width:2.29999995;stroke-miterlimit:4;stroke-dasharray:none;stroke-opacity:1"
       d="m 145.01486,246.78267 115.61559,1.73806 c 0,0 -12.6323,91.30465 -6.2265,147.09847 6.4058,55.79383 13.87503,156.79389 13.87503,156.79389 l -135.82226,32.04264 c 0,0 13.44694,-132.36608 20.35014,-188.83653 6.90319,-56.47045 -7.792,-148.83653 -7.792,-148.83653 z"
       id="rect4164-9"
       inkscape:connector-curvature="0"
       sodipodi:nodetypes="cczcczc"
       inkscape:export-xdpi="44.27623"
       inkscape:export-ydpi="44.27623"
       inkscape:export-filename="C:\Users\Home\Desktop\belganb2.png" />
    <path
       style="fill:#f4e3d7;fill-opacity:1;stroke:#000000;stroke-width:1.64209092;stroke-miterlimit:4;stroke-dasharray:none;stroke-opacity:1"
       d="m 179.58278,224.33159 53.57494,0 c 0,0 5.07119,10.11908 0,20.3693 -5.07129,10.25023 -7.60283,25.42159 -26.78752,25.42159 -19.18459,0 -21.71614,-15.17136 -26.78742,-25.42159 -5.07129,-10.25022 0,-20.3693 0,-20.3693 z"
       id="rect3359-4"
       inkscape:connector-curvature="0"
       sodipodi:nodetypes="cczzzc"
       inkscape:export-xdpi="44.27623"
       inkscape:export-ydpi="44.27623"
       inkscape:export-filename="C:\Users\Home\Desktop\belganb2.png" />
    <path
       inkscape:export-ydpi="90"
       inkscape:export-xdpi="90"
       sodipodi:nodetypes="zzzzzcczzzzz"
       inkscape:connector-curvature="0"
       d="m -304.43581,292.45396 c 0.564,-1.0532 2.3623,-4.6078 3.5041,-6.32231 1.1418,-1.71445 1.9009,-2.75187 2.6802,-3.94457 0.7796,-1.19275 0.7878,-2.03206 1.4074,-3.19036 0.6195,-1.15823 1.3168,-2.48501 2.1616,-3.75185 0.8449,-1.26693 1.3635,-2.30567 2.3843,-3.8355 1.8194,-2.91604 -11.8355,-1.35563 -9.5896,0.90233 -0.9068,1.26678 -1.5282,2.59378 -2.2595,3.75356 -0.7308,1.1597 -2.0097,2.22078 -2.6505,3.42985 -0.6409,1.20911 -1.1962,2.81525 -2.7778,5.39261 -1.5817,2.57737 -3.6853,5.54233 -4.6862,6.56843 -1.0011,1.02613 9.2617,2.0511 9.826,0.99781 z"
       id="path3054"
       style="fill:#000000;fill-opacity:1;stroke:none;display:inline" />
    <path
       inkscape:export-ydpi="90"
       inkscape:export-xdpi="90"
       sodipodi:nodetypes="zzzzzcczzzzz"
       inkscape:connector-curvature="0"
       d="m -190.53498,643.83137 c -0.6264,7.4621 -2.5849,32.67952 -3.9252,44.75635 -1.3453,12.07638 -2.2591,19.36238 -3.1734,27.76854 -0.9144,8.40617 -0.7687,14.4915 -1.456,22.69805 -0.6876,8.20654 -1.4572,17.61103 -2.4525,26.53426 -0.9958,8.92319 -1.5582,16.29504 -2.7616,27.07011 -2.1096,20.57884 17.5364,13.56244 13.8329,-3.52334 1.0866,-8.90334 1.7452,-18.33345 2.595,-26.51534 0.8496,-8.18193 0.7043,-14.02095 1.4132,-22.58935 0.7093,-8.56834 1.6591,-16.82391 2.6441,-28.8544 0.9848,-12.03054 3.3754,-36.06577 4.6447,-43.19367 1.2692,-7.12791 -10.73,-31.61289 -11.3561,-24.15075 z"
       id="path3058"
       style="fill:#000000;fill-opacity:1;stroke:none;display:inline" />
    <path
       inkscape:export-ydpi="90"
       inkscape:export-xdpi="90"
       style="fill:#000000;fill-opacity:1;stroke:none;display:inline"
       id="path3060"
       d="m -190.45748,643.67427 c 0.4254,7.47627 2.0192,32.71933 2.3843,44.86483 0.3599,12.14576 0.476,19.4879 0.7485,27.93925 0.2724,8.45137 1.2693,14.45628 1.7385,22.67817 0.469,8.22193 1.0247,17.64148 1.2892,26.61617 0.2644,8.97468 0.7404,16.35261 1.0585,27.19 0.7944,20.67143 19.2637,10.97167 13.2027,-5.42668 -0.1714,-8.96777 -0.8405,-18.39714 -1.1456,-26.61737 -0.305,-8.22028 -1.2669,-13.98136 -1.7655,-22.56456 -0.4982,-8.5832 -0.7145,-16.89041 -1.4247,-28.94025 -0.7105,-12.04985 -1.711,-36.18294 -1.4529,-43.41837 0.258,-7.23542 -15.0534,-29.79771 -14.6278,-22.32146 z"
       inkscape:connector-curvature="0"
       sodipodi:nodetypes="zzzzzcczzzzz" />
    <path
       inkscape:export-ydpi="90"
       inkscape:export-xdpi="90"
       sodipodi:nodetypes="cczzzc"
       inkscape:connector-curvature="0"
       id="path3068"
       d="m -337.20567,335.23955 19.2042,-2.2557 c 0,0 1.8478,14.60213 0.061,29.82329 -1.7874,15.22116 -2.6496,37.54055 -9.5264,38.34829 -6.8766,0.8077 -7.8294,-21.29849 -9.6778,-36.09261 -1.8483,-14.79414 -0.061,-29.82327 -0.061,-29.82327 z"
       style="fill:#f4e3d7;fill-opacity:1;stroke:#000000;stroke-width:1.18974638;stroke-miterlimit:4;stroke-opacity:1;stroke-dasharray:none"
       inkscape:transform-center-x="33.545683"
       inkscape:transform-center-y="12.06267" />
    <path
       inkscape:export-ydpi="90"
       inkscape:export-xdpi="90"
       sodipodi:nodetypes="cczcczsc"
       inkscape:connector-curvature="0"
       id="path3066"
       d="m -163.27885,385.22518 19.8727,0.85833 c 0,0 14.3196,74.02803 18.1174,129.04882 3.7976,55.02081 7.5871,188.56651 7.5871,188.56651 l -80.1366,2.20276 c 0,0 7.8986,-162.73839 8.6541,-194.71385 0.7553,-31.97547 3.1495,-51.4199 9.1672,-77.44691 5.5995,-24.2189 16.7381,-48.51566 16.7381,-48.51566 z"
       style="fill:#ff7f2a;fill-opacity:1;stroke:#000000;stroke-width:1.75862658;stroke-miterlimit:4;stroke-opacity:1;stroke-dasharray:none;display:inline" />
    <path
       sodipodi:nodetypes="cssccsccssccccc"
       style="display:inline;fill:#f4e3d7;fill-opacity:1;stroke:#000000;stroke-width:2.70000005;stroke-miterlimit:4;stroke-dasharray:none;stroke-opacity:1"
       d="m 247.23437,65.300895 c -6.75925,0 -20.14621,-6.83443 -14.24965,-3.73897 8.45492,4.43842 -16.2193,-1.66051 -16.2193,-4.16422 0,-2.66017 -7.08997,-0.33321 -10.35164,-2.56403 -9.73035,1.03516 -16.40763,-4.11848 -32.10665,-4.90439 -24.15904,3.58466 -33.34759,11.29093 -38.36256,33.55604 -3.9199,17.403535 3.69524,51.050975 12.79947,68.837605 10.19663,25.78824 10.65128,57.77504 41.6973,84.85556 9.38552,2.07832 14.81656,7.42783 23.66361,6.9167 11.63706,-0.67232 20.19711,-1.38759 28.32791,-14.20961 9.36358,-14.76606 10.70329,-29.27754 13.88339,-35.38047 0.38123,-2.97471 3.13965,-8.84221 4.93295,-14.65558 3.32564,-12.31469 4.64716,-26.08035 5.24231,-36.0309 -0.48199,-14.64914 -2,0 9.55609,-41.58913 3.58266,-28.021935 -28.6553,-36.877765 -28.81323,-36.928605 z"
       id="path3879"
       inkscape:connector-curvature="0"
       inkscape:export-xdpi="44.27623"
       inkscape:export-ydpi="44.27623"
       inkscape:export-filename="C:\Users\Home\Desktop\belganb2.png" />
    <path
       inkscape:export-ydpi="44.27623"
       inkscape:export-xdpi="44.27623"
       inkscape:connector-curvature="0"
       id="path3076"
       d="m 235.3036,36.470245 c -4.82089,-0.29412 -23.49917,-4.339592 -34.566,-1.111728 -6.01136,1.753335 -9.41509,12.740083 -15.50705,10.603163 -19.5328,-6.85167 -22.69882,5.842905 -32.46167,11.985618 -8.40867,5.290675 -16.34091,-1.571403 -21.40649,20.737287 -3.95952,17.4376 -8.02537,39.956315 7.31755,56.571875 21.09363,48.50879 13.15874,40.1301 41.78208,96.58845 6.40383,1.51816 7.14628,7.51869 12.35272,8.15821 2.83132,0.34778 14.9092,6.42337 22.57649,5.38817 10.53356,-1.42219 20.54542,-3.98261 27.94264,-15.36279 8.28435,-12.74501 5.64409,-20.08655 15.3162,-40.06201 0.77016,-5.96108 4.18487,-10.94633 5.82004,-19.92605 1.22019,-6.70076 7.13445,-11.87354 6.30647,-26.53855 -0.82788,-14.66499 6.87525,-35.9751 7.92347,-40.23357 C 283.41135,84.128255 265.39374,63.630335 256.83043,54.496465 232.08531,39.703885 235.3036,36.470245 235.3036,36.470245 Z M 166.63362,141.19754 c -0.99042,-12.9788 6.8009,-15.98646 7.36211,-16.89233 13.42177,-27.460165 7.91255,3.81555 31.2221,-40.207082 19.79831,14.106928 22.98224,16.466832 43.97639,22.781062 21.21029,10.15553 17.11259,6.7865 21.21029,10.15553 0.63701,1.95789 -3.51632,18.86968 -1.57127,33.22477 1.94504,14.35509 -2.88028,10.49066 -3.86607,17.17 -0.82964,5.62122 -3.28764,12.31846 -4.70025,15.87755 -7.51655,18.93791 -11.52793,44.24743 -29.14792,55.45716 -8.89162,5.6568 -21.39914,4.18047 -31.58161,1.46431 -19.07537,-8.3836 -62.74969,-58.66652 -32.90377,-99.03097 z"
       style="display:inline;fill:#000000"
       sodipodi:nodetypes="casasccsascssscccccccsssacc"
       inkscape:export-filename="C:\Users\Home\Desktop\belganb2.png" />
    <path
       inkscape:export-ydpi="44.27623"
       inkscape:export-xdpi="44.27623"
       style="display:inline;fill:#ff6600;fill-opacity:1;stroke:none"
       d="m 166.66311,89.136445 c -8.91521,7.31433 -1.93025,9.88899 -10.78702,5.73986 -11.80942,-5.53233 -15.31695,-6.54049 -18.37569,-20.41936 -4.17159,-18.92819 5.24908,-17.50222 19.31753,-19.92769 7.62095,-1.3139 25.28699,21.93823 9.84518,34.60719 z"
       id="path3072"
       inkscape:connector-curvature="0"
       sodipodi:nodetypes="sssss"
       inkscape:export-filename="C:\Users\Home\Desktop\belganb2.png" />
    <path
       style="display:inline;fill:#000000;stroke:#000000;stroke-width:1.77419007;stroke-miterlimit:4"
       d="m 159.73404,176.98488 c -4.15041,-25.15219 -1.4988,-28.27203 -0.65383,-40.03795 0.84498,-11.76588 -6.51123,-58.664575 -9.3621,-61.352605 -8.25815,-7.78636 -20.15895,-20.04496 -28.92131,-8.99395 -12.10797,15.27046 0.71501,56.157105 1.80514,92.463965 0.84349,28.09223 -1.7894,30.67741 0.40875,50.13161 2.19816,19.45423 5.23521,30.25629 8.58962,30.25629 3.35441,0 17.04871,9.36044 19.24703,-10.09375 2.19832,-19.4542 13.55822,-24.06273 8.8867,-52.3736 z"
       id="path3874"
       inkscape:connector-curvature="0"
       sodipodi:nodetypes="cssssssssc"
       inkscape:export-filename="C:\Users\Home\Desktop\belganb2.png"
       inkscape:export-xdpi="44.27623"
       inkscape:export-ydpi="44.27623" />
    <rect
       style="display:inline;fill:#000000;stroke:#000000;stroke-width:2.8831327;stroke-miterlimit:4;stroke-dasharray:none"
       id="rect3877"
       width="35.642033"
       height="5.6166072"
       x="-179.70462"
       y="137.62932"
       transform="scale(-1,1)"
       inkscape:export-filename="C:\Users\Home\Desktop\belganb2.png"
       inkscape:export-xdpi="44.27623"
       inkscape:export-ydpi="44.27623" />
    <path
       inkscape:export-ydpi="90"
       inkscape:export-xdpi="90"
       style="fill:#000000;fill-opacity:1;stroke:none;display:inline"
       id="path3062"
       d="m -302.14804,453.41989 c -0.4498,4.52857 1.7293,12.06952 1.2627,19.35102 -0.4667,7.28147 0.2317,13.93978 -0.1105,19.01134 -0.3421,5.07176 -0.6886,12.95535 -1.1839,17.93592 -0.4952,4.98057 -0.6052,9.69287 -0.9488,15.07292 -0.3434,5.38001 -0.1894,14.77813 -0.6034,21.27452 -0.9389,12.43416 -21.5386,5.94772 -16.4776,-5.1546 0.2699,-5.3547 1.1559,-9.45782 1.5204,-14.39993 0.3647,-4.94215 -0.8423,-10.49908 -0.3186,-15.70051 0.524,-5.20137 1.1838,-11.992 1.9274,-19.29644 0.7438,-7.30454 -0.4802,-33.89057 -0.5776,-38.12046 -0.097,-4.22997 15.9591,-4.50247 15.5099,0.0262 z"
       inkscape:connector-curvature="0"
       sodipodi:nodetypes="zzzzzcczzzzz"
       inkscape:transform-center-x="-8.1347987"
       inkscape:transform-center-y="3.5336553" />
    <path
       inkscape:export-ydpi="44.27623"
       inkscape:export-xdpi="44.27623"
       sodipodi:nodetypes="csccccccsccccsssss"
       id="path3090"
       d="m 181.13216,136.90843 c 7.41464,-11.12291 5.52006,-9.71461 14.58967,-14.80512 4.87584,-2.73665 16.44861,-1.23443 20.40639,3.48707 3.81912,4.60273 6.17996,10.83867 6.68914,17.37157 l 3.37929,0 0,5.3451 -3.37929,0.63632 c -0.50918,6.5329 0.88082,1.95149 -2.93829,6.52451 -1.27872,9.17572 -13.59236,16.7418 -18.7989,14.97046 -11.22211,-3.8179 -15.17991,-8.23731 -20.78125,-24.77414 l 0.53561,-5.75649 -0.53561,0.63631 c 0.55332,11.04059 0.83324,-3.63559 0.83324,-3.63559 z m 20.48385,31.59121 c 9.83692,0 17.82216,-10.27446 17.82216,-22.86514 0,-12.62037 -8.00849,-22.86515 -17.82216,-22.86515 -9.83693,0 -17.82228,10.27448 -17.82228,22.86515 0,12.62037 7.98535,22.86514 17.82228,22.86514 z"
       inkscape:connector-curvature="0"
       inkscape:export-filename="C:\Users\Home\Desktop\belganb2.png" />
    <path
       inkscape:export-ydpi="44.27623"
       inkscape:export-xdpi="44.27623"
       style="display:inline;fill:#000000;fill-opacity:1;stroke:none"
       d="m 196.83379,146.37356 c -1.97745,1.71834 2.57616,4.46496 3.73965,5.60569 1.16359,1.14072 3.70983,0.6725 5.68729,-1.04583 1.97746,-1.71833 2.63728,-4.03605 1.4737,-5.17678 -1.16349,-1.14072 -8.92318,-1.1014 -10.90064,0.61692 z"
       id="path3094"
       inkscape:connector-curvature="0"
       sodipodi:nodetypes="sssss"
       inkscape:export-filename="C:\Users\Home\Desktop\belganb2.png" />
    <path
       inkscape:connector-curvature="0"
       d="m 695.84222,262.8272 c -6.48904,-15.19079 -4.83098,-13.26746 -12.76839,-20.21968 -4.26718,-3.73748 -14.39527,-1.68588 -17.859,4.76238 -3.34236,6.28604 -5.4085,14.80261 -5.8541,23.72472 l -2.95744,0 0,7.29992 2.95744,0.86903 c 0.4456,8.92211 -0.77087,2.66518 2.57149,8.91066 1.1191,12.53146 11.89557,22.86462 16.45216,20.44546 9.82123,-5.21417 13.28495,-11.24986 18.18707,-33.83456 l -0.46876,-7.86175 0.46876,0.86902 c -0.48426,15.07836 -0.72923,-4.9652 -0.72923,-4.9652 z m -17.92678,43.14478 c -8.60895,0 -15.59737,-14.03205 -15.59737,-31.2274 0,-17.23591 7.00877,-31.22742 15.59737,-31.22742 8.60895,0 15.59746,14.03207 15.59746,31.22742 0,17.2359 -6.98851,31.2274 -15.59746,31.2274 z"
       id="path3013"
       sodipodi:nodetypes="csccccccsccccsssss"
       inkscape:export-xdpi="90"
       inkscape:export-ydpi="90" />
    <path
       sodipodi:nodetypes="sssss"
       inkscape:connector-curvature="0"
       id="path3015"
       d="m 668.80241,270.48613 c 1.9768,1.86108 -2.5753,4.83588 -3.7384,6.07137 -1.1632,1.23549 -3.7086,0.72837 -5.6854,-1.13271 -1.9768,-1.86107 -2.6364,-4.37134 -1.4732,-5.60683 1.1631,-1.23549 8.9202,-1.1929 10.897,0.66817 z"
       style="fill:#000000;fill-opacity:1;stroke:none;display:inline"
       inkscape:export-xdpi="90"
       inkscape:export-ydpi="90" />
    <path
       inkscape:connector-curvature="0"
       d="m 269.28122,136.11988 c -7.41464,-11.38249 -5.52007,-9.94133 -14.58968,-15.15065 -4.87585,-2.80049 -16.44861,-1.26323 -20.4064,3.56846 -3.8191,4.71014 -6.17995,11.09163 -6.68912,17.77699 l -3.37929,0 0,5.46984 3.37929,0.65116 c 0.50917,6.68536 -0.88083,1.99704 2.93829,6.67678 1.27872,9.38985 13.59235,17.13252 18.7989,15.31984 11.2221,-3.907 15.1799,-8.42956 20.78125,-25.35231 l -0.53561,-5.89083 0.53561,0.65116 c -0.55332,11.29825 -0.83324,-3.72044 -0.83324,-3.72044 z m -20.48385,32.32848 c -9.83692,0 -17.82217,-10.51425 -17.82217,-23.39877 0,-12.9149 8.0085,-23.39876 17.82217,-23.39876 9.83692,0 17.82228,10.51426 17.82228,23.39876 0,12.9149 -7.98536,23.39877 -17.82228,23.39877 z"
       id="path3017"
       sodipodi:nodetypes="csccccccsccccsssss"
       inkscape:export-xdpi="44.27623"
       inkscape:export-ydpi="44.27623"
       inkscape:export-filename="C:\Users\Home\Desktop\belganb2.png" />
    <path
       sodipodi:nodetypes="sssss"
       inkscape:connector-curvature="0"
       id="path3019"
       d="m 248.85112,146.37356 c -1.97746,1.71834 2.57615,4.46496 3.73965,5.60569 1.16359,1.14072 3.70983,0.6725 5.68729,-1.04583 1.97745,-1.71833 2.63728,-4.03605 1.47369,-5.17678 -1.16348,-1.14072 -8.92317,-1.1014 -10.90063,0.61692 z"
       style="display:inline;fill:#000000;fill-opacity:1;stroke:none"
       inkscape:export-xdpi="44.27623"
       inkscape:export-ydpi="44.27623"
       inkscape:export-filename="C:\Users\Home\Desktop\belganb2.png" />
    <path
       sodipodi:nodetypes="sssss"
       inkscape:connector-curvature="0"
       id="path3355-9"
       d="m 232.41418,179.94117 c 0,1.41006 -0.44725,2.55313 -0.99893,2.55313 -0.55168,0 -2.55294,-0.46607 -2.55294,-1.87613 0,-1.41005 2.00126,-3.23014 2.55294,-3.23014 0.55168,0 0.99893,1.14308 0.99893,2.55314 z"
       style="display:inline;fill:#000000;fill-opacity:1;stroke:none"
       inkscape:export-xdpi="44.27623"
       inkscape:export-ydpi="44.27623"
       inkscape:export-filename="C:\Users\Home\Desktop\belganb2.png" />
    <path
       style="display:inline;fill:#000000;fill-opacity:1;stroke:none"
       d="m 220.85963,179.94117 c 0,1.41006 0.44725,2.55313 0.99893,2.55313 0.5517,0 2.55296,-0.46607 2.55296,-1.87613 0,-1.41005 -2.00126,-3.23014 -2.55296,-3.23014 -0.55168,0 -0.99893,1.14308 -0.99893,2.55314 z"
       id="path3357-8"
       inkscape:connector-curvature="0"
       sodipodi:nodetypes="sssss"
       inkscape:export-xdpi="44.27623"
       inkscape:export-ydpi="44.27623"
       inkscape:export-filename="C:\Users\Home\Desktop\belganb2.png" />
    <path
       style="display:inline;fill:#c8b7b7;fill-opacity:1;stroke:none"
       d="m 241.42308,214.54258 c 0,3.22904 -6.64242,12.47881 -12.98623,11.61745 -8.88326,-1.20618 -11.35755,2.89465 -19.76805,-11.5481 -1.56615,-2.68947 10.19158,-4.57131 16.95169,-4.57131 6.76019,0 15.80259,1.27294 15.80259,4.50196 z"
       id="path4268-5"
       inkscape:connector-curvature="0"
       sodipodi:nodetypes="sssss"
       inkscape:export-xdpi="44.27623"
       inkscape:export-ydpi="44.27623"
       inkscape:export-filename="C:\Users\Home\Desktop\belganb2.png" />
    <path
       style="color:#000000;font-style:normal;font-variant:normal;font-weight:normal;font-stretch:normal;font-size:medium;line-height:normal;font-family:sans-serif;text-indent:0;text-align:start;text-decoration:none;text-decoration-line:none;letter-spacing:normal;word-spacing:normal;text-transform:none;direction:ltr;block-progression:tb;writing-mode:lr-tb;baseline-shift:baseline;text-anchor:start;display:inline;overflow:visible;visibility:visible;fill:#c60003;fill-opacity:1;fill-rule:nonzero;stroke:none;enable-background:accumulate"
       d="m 224.43869,210.07891 c -4.49146,0.42504 -9.15157,1.09998 -13.12114,2.76579 -1.45941,0.61247 -3.22869,1.37116 -3.665,2.54557 -0.39606,1.06627 0.68673,2.15439 1.31636,3.10269 0.90982,1.37025 1.6992,2.62452 3.4731,3.61255 3.5721,1.98962 8.03939,4.68333 13.74358,4.27587 5.84369,-0.41688 10.1203,-3.22116 13.2145,-6.33005 1.97343,-1.98282 2.85664,-4.64325 2.58749,-7.03066 -0.10411,-0.92467 -0.55003,-1.98359 -1.59067,-2.49746 -1.50223,-0.74182 -3.67625,-0.19487 -5.51916,-0.25404 -3.4749,-0.11156 -6.96716,-0.51882 -10.43906,-0.19026 z m -0.27649,4.74244 c 3.97491,-0.27963 7.965,-0.48813 11.91195,-0.97966 1.31325,-0.16358 2.91255,-1.26549 3.90313,-0.65365 0.8289,0.51199 0.19515,1.66366 -0.23893,2.41686 -0.69848,1.21199 -2.23852,2.16482 -3.5797,2.98972 -3.27047,2.01154 -6.74739,4.38778 -10.67811,4.64628 -2.91952,0.19206 -5.86878,-1.39651 -8.37998,-2.37822 -2.22207,-0.86866 -4.43096,-1.82711 -5.79752,-3.06071 -0.74127,-0.66912 -1.82432,-1.56352 -1.18872,-2.2515 0.59581,-0.64486 2.10074,-0.0477 3.15076,-0.094 3.63468,-0.16011 7.26774,-0.38017 10.89712,-0.63515 z"
       id="path3444-6"
       inkscape:connector-curvature="0"
       sodipodi:nodetypes="aaaaaaaaaaaaaaaaaaaaaa"
       inkscape:export-xdpi="44.27623"
       inkscape:export-ydpi="44.27623"
       inkscape:export-filename="C:\Users\Home\Desktop\belganb2.png" />
    <path
       style="display:inline;fill:#ffffff"
       d="m 225.15994,213.97351 c 0,0 -1.93414,3.35112 0,4.38455 1.23077,0.65763 3.99095,0.65763 5.2218,0 1.79321,-0.95816 0,-4.06515 0,-4.06515 -1.50855,-0.14491 -3.24808,-0.25228 -5.2218,-0.3194 z"
       id="path4250-7"
       inkscape:connector-curvature="0"
       inkscape:export-xdpi="44.27623"
       inkscape:export-ydpi="44.27623"
       sodipodi:nodetypes="caacc"
       inkscape:export-filename="C:\Users\Home\Desktop\belganb2.png" />
    <path
       inkscape:connector-curvature="0"
       id="path4257-0"
       d="m 224.95684,213.97228 c 0,0 1.93422,3.35111 0,4.38455 -1.23078,0.65764 -3.99095,0.65764 -5.22173,0 -1.79329,-0.95816 0,-4.06515 0,-4.06515 1.50848,-0.14492 3.24802,-0.25229 5.22173,-0.3194 z"
       style="display:inline;fill:#ffffff"
       inkscape:export-xdpi="44.27623"
       inkscape:export-ydpi="44.27623"
       sodipodi:nodetypes="caacc"
       inkscape:export-filename="C:\Users\Home\Desktop\belganb2.png" />
    <path
       inkscape:export-ydpi="44.27623"
       inkscape:export-xdpi="44.27623"
       sodipodi:nodetypes="zzzzzcczzzzz"
       inkscape:connector-curvature="0"
       d="m 151.62379,381.67218 c -4.83069,-2.62673 -21.09222,-11.68643 -29.04381,-15.54962 -7.9515,-3.86324 -12.78998,-6.0749 -18.31605,-8.78976 -5.526092,-2.71486 -9.201082,-5.62308 -14.513142,-8.51327 -5.31215,-2.89016 -11.39237,-6.2233 -17.26844,-9.07584 -5.87608,-2.85251 -10.62568,-5.51293 -17.7216,-8.95636 -13.47623,-6.79667 -1.25705,-26.57407 7.73414,-14.56285 5.90048,2.73746 11.95179,6.21168 17.31412,8.9012 5.36243,2.68951 10.5095,4.024 16.05232,7.05176 5.542762,3.02785 12.789072,7.59655 24.689402,13.65303 11.90039,6.05641 25.70273,12.49886 30.58746,14.22435 4.8847,1.7255 5.31627,24.24409 0.4856,21.61736 z"
       id="path4201-4"
       style="display:inline;fill:#000000;fill-opacity:1;stroke:none"
       inkscape:export-filename="C:\Users\Home\Desktop\belganb2.png" />
    <path
       inkscape:export-ydpi="44.27623"
       inkscape:export-xdpi="44.27623"
       style="display:inline;fill:#000000;fill-opacity:1;stroke:none"
       id="path4204-3-7"
       d="m 142.5092,250.1575 c -4.10232,3.43061 -16.70874,7.83887 -23.62329,13.07321 -6.91453,5.23433 -14.63766,8.78281 -19.432482,12.44746 -4.79471,3.66459 -12.47877,9.15718 -16.98923,12.93115 -4.51047,3.77397 -9.2244,6.95014 -14.33484,10.8161 -5.11062,3.86602 -14.97668,9.78974 -21.14864,14.45717 -11.63091,9.09446 20.688,27.55248 25.81684,14.78643 5.17647,-3.76834 8.29722,-7.40341 12.93052,-11.00879 4.63346,-3.60542 11.85632,-5.88016 16.558492,-9.82887 4.70205,-3.9487 10.87085,-9.07724 17.4644,-14.63122 6.5934,-5.55397 24.21703,-14.06344 28.6927,-16.69868 4.47555,-2.6352 -1.83228,-29.77455 -5.93447,-26.34396 z"
       inkscape:connector-curvature="0"
       sodipodi:nodetypes="zzzzzcczzzzz"
       inkscape:export-filename="C:\Users\Home\Desktop\belganb2.png"
       inkscape:transform-center-y="-11.97637"
       inkscape:transform-center-x="-6.4770277" />
    <path
       inkscape:export-filename="C:\Users\Home\Desktop\belganb2.png"
       style="display:inline;fill:#000000;fill-opacity:1;stroke:none"
       id="path3051"
       d="m 256.23726,380.21309 c 4.25445,-2.47077 18.58223,-11.00533 25.57254,-14.61202 6.99024,-3.60675 11.23992,-5.6624 16.09877,-8.19899 4.85886,-2.53659 8.1207,-5.32569 12.79916,-8.04437 4.67853,-2.71864 10.03421,-5.85546 15.19985,-8.51845 5.16564,-2.66297 9.35084,-5.17 15.58881,-8.38454 11.85397,-6.36183 1.82484,-26.52021 -6.29128,-14.80294 -5.18358,2.54719 -10.51813,5.82594 -15.23455,8.34244 -4.71649,2.51649 -9.20899,3.68555 -14.09101,6.53434 -4.88197,2.84888 -11.28132,7.18331 -21.75061,12.85577 -10.46935,5.6724 -22.59581,11.66976 -26.87205,13.23802 -4.27624,1.56826 -5.27407,24.06149 -1.01963,21.59074 z"
       inkscape:connector-curvature="0"
       sodipodi:nodetypes="zzzzzcczzzzz"
       inkscape:export-xdpi="44.27623"
       inkscape:export-ydpi="44.27623" />
    <path
       inkscape:transform-center-x="5.6096471"
       inkscape:transform-center-y="-11.97637"
       inkscape:export-filename="C:\Users\Home\Desktop\belganb2.png"
       sodipodi:nodetypes="zzzzzcczzzzz"
       inkscape:connector-curvature="0"
       d="m 262.84684,253.58607 c 3.55295,3.43061 14.47117,7.83887 20.45975,13.07321 5.98856,5.23433 12.67743,8.78281 16.83015,12.44746 4.15262,3.66459 10.80766,9.15718 14.7141,12.93115 3.90644,3.77397 7.9891,6.95014 12.41517,10.8161 4.42622,3.86602 12.97106,9.78974 18.31649,14.45717 10.07334,9.09446 -17.91754,27.55248 -22.35955,14.78643 -4.48325,-3.76834 -7.18608,-7.40341 -11.19891,-11.00879 -4.01296,-3.60542 -10.26856,-5.88016 -14.34104,-9.82887 -4.07236,-3.9487 -9.41506,-9.07724 -15.12563,-14.63122 -5.71043,-5.55397 -20.97397,-14.06344 -24.85028,-16.69868 -3.8762,-2.6352 1.58691,-29.77455 5.13975,-26.34396 z"
       id="path3053"
       style="display:inline;fill:#000000;fill-opacity:1;stroke:none"
       inkscape:export-xdpi="44.27623"
       inkscape:export-ydpi="44.27623" />
  </g>
</svg>
