<?xml version="1.0" encoding="UTF-8" standalone="no"?>
<!-- Created with Inkscape (http://www.inkscape.org/) -->

<svg
   xmlns:dc="http://purl.org/dc/elements/1.1/"
   xmlns:cc="http://creativecommons.org/ns#"
   xmlns:rdf="http://www.w3.org/1999/02/22-rdf-syntax-ns#"
   xmlns:svg="http://www.w3.org/2000/svg"
   xmlns="http://www.w3.org/2000/svg"
   xmlns:sodipodi="http://sodipodi.sourceforge.net/DTD/sodipodi-0.dtd"
   xmlns:inkscape="http://www.inkscape.org/namespaces/inkscape"
   width="744.09448819"
   height="1052.3622047"
   id="svg3905"
   version="1.1"
   inkscape:version="0.48.4 r9939"
   sodipodi:docname="shrookbelganb.svg"
   inkscape:export-filename="/home/rana/SparkleShare/CCC/linuxCourse/Chapter 1/character/SHROOK/shrookbelganb.png"
   inkscape:export-xdpi="45.898903"
   inkscape:export-ydpi="45.898903">
  <defs
     id="defs3907" />
  <sodipodi:namedview
     id="base"
     pagecolor="#ffffff"
     bordercolor="#666666"
     borderopacity="1.0"
     inkscape:pageopacity="0.0"
     inkscape:pageshadow="2"
     inkscape:zoom="0.49497475"
     inkscape:cx="549.18367"
     inkscape:cy="663.45568"
     inkscape:document-units="px"
     inkscape:current-layer="layer1"
     showgrid="false"
     inkscape:window-width="1305"
     inkscape:window-height="744"
     inkscape:window-x="61"
     inkscape:window-y="24"
     inkscape:window-maximized="1" />
  <metadata
     id="metadata3910">
    <rdf:RDF>
      <cc:Work
         rdf:about="">
        <dc:format>image/svg+xml</dc:format>
        <dc:type
           rdf:resource="http://purl.org/dc/dcmitype/StillImage" />
        <dc:title></dc:title>
      </cc:Work>
    </rdf:RDF>
  </metadata>
  <g
     inkscape:label="Layer 1"
     inkscape:groupmode="layer"
     id="layer1">
    <path
       inkscape:export-ydpi="90"
       inkscape:export-xdpi="90"
       sodipodi:nodetypes="zzzzzcczzzzz"
       inkscape:connector-curvature="0"
       d="m 590.99276,541.02539 c 0.564,-1.0532 2.3623,-4.6078 3.5041,-6.32231 1.1418,-1.71445 1.9009,-2.75187 2.6802,-3.94457 0.7796,-1.19275 0.7878,-2.03206 1.4074,-3.19036 0.6195,-1.15823 1.3168,-2.48501 2.1616,-3.75185 0.8449,-1.26693 1.3635,-2.30567 2.3843,-3.8355 1.8194,-2.91604 -11.8355,-1.35563 -9.5896,0.90233 -0.9068,1.26678 -1.5282,2.59378 -2.2595,3.75356 -0.7308,1.1597 -2.0097,2.22078 -2.6505,3.42985 -0.6409,1.20911 -1.1962,2.81525 -2.7778,5.39261 -1.5817,2.57737 -3.6853,5.54233 -4.6862,6.56843 -1.0011,1.02613 9.2617,2.0511 9.826,0.99781 z"
       id="path3054"
       style="display:inline;fill:#000000;fill-opacity:1;stroke:none"
       inkscape:export-filename="/home/rana/SparkleShare/CCC/linuxCourse/Chapter 1/character/SHROOK/shrokbelganb3.png" />
    <path
       inkscape:export-ydpi="90"
       inkscape:export-xdpi="90"
       style="fill:#000000;fill-opacity:1;stroke:none;display:inline"
       id="path3060"
       d="m 599.06615,681.75083 c -0.011,7.48835 0.10917,32.78139 -0.23408,44.92753 -0.34846,12.14609 -0.6604,19.48252 -0.88083,27.93539 -0.22053,8.45288 0.42476,14.50568 0.41406,22.74094 -0.0109,8.23529 -0.005,17.67121 -0.26395,26.64606 -0.25901,8.97484 -0.21374,16.36797 -0.52769,27.20548 -0.4115,20.6826 18.59163,12.07555 13.49648,-4.64812 0.35146,-8.96252 0.23296,-18.41485 0.40738,-26.63889 0.17452,-8.22409 -0.45004,-14.03143 -0.44764,-22.6291 0.003,-8.59765 0.27094,-16.90335 0.26411,-28.97409 -0.007,-12.07078 0.40033,-36.22116 1.07961,-43.42926 0.67918,-7.20809 -13.29147,-30.62426 -13.30224,-23.13591 z"
       inkscape:connector-curvature="0"
       sodipodi:nodetypes="zzzzzcczzzzz"
       inkscape:export-filename="/home/rana/SparkleShare/CCC/linuxCourse/Chapter 1/character/SHROOK/shrokbelganb3.png" />
    <path
       inkscape:export-ydpi="90"
       inkscape:export-xdpi="90"
       sodipodi:nodetypes="cczzzc"
       inkscape:connector-curvature="0"
       id="path3068"
       d="m 585.36576,365.23955 19.2042,-2.2557 c 0,0 1.8478,14.60213 0.061,29.82329 -1.7874,15.22116 -2.6496,37.54055 -9.5264,38.34829 -6.8766,0.8077 -7.8294,-21.29849 -9.6778,-36.09261 -1.8483,-14.79414 -0.061,-29.82327 -0.061,-29.82327 z"
       style="fill:#f4e3d7;fill-opacity:1;stroke:#000000;stroke-width:1.18974638;stroke-miterlimit:4;stroke-dasharray:none;stroke-opacity:1"
       inkscape:transform-center-x="33.545683"
       inkscape:transform-center-y="12.06267"
       inkscape:export-filename="/home/rana/SparkleShare/CCC/linuxCourse/Chapter 1/character/SHROOK/shrokbelganb3.png" />
    <path
       inkscape:export-filename="/home/rana/SparkleShare/CCC/linuxCourse/Chapter 1/character/SHROOK/shrokbelganb3.png"
       sodipodi:nodetypes="zzzzzcczzzzz"
       inkscape:connector-curvature="0"
       d="m 575.06615,681.75083 c -0.011,7.48835 0.10917,32.78139 -0.23408,44.92753 -0.34846,12.14609 -0.6604,19.48252 -0.88083,27.93539 -0.22053,8.45288 0.42476,14.50568 0.41406,22.74094 -0.0109,8.23529 -0.005,17.67121 -0.26395,26.64606 -0.25901,8.97484 -0.21374,16.36797 -0.52769,27.20548 -0.4115,20.6826 18.59163,12.07555 13.49648,-4.64812 0.35146,-8.96252 0.23296,-18.41485 0.40738,-26.63889 0.17452,-8.22409 -0.45004,-14.03143 -0.44764,-22.6291 0.003,-8.59765 0.27094,-16.90335 0.26411,-28.97409 -0.007,-12.07078 0.40033,-36.22116 1.07961,-43.42926 0.67918,-7.20809 -13.29147,-30.62426 -13.30224,-23.13591 z"
       id="path2999"
       style="fill:#000000;fill-opacity:1;stroke:none;display:inline"
       inkscape:export-xdpi="90"
       inkscape:export-ydpi="90" />
    <path
       inkscape:export-ydpi="90"
       inkscape:export-xdpi="90"
       sodipodi:nodetypes="cszcczsc"
       inkscape:connector-curvature="0"
       id="path3066"
       d="m 574.09911,400.81923 c 0,0 27.4346,-9.78997 41.9726,-3.43005 19.95511,8.72973 10.54153,74.08557 13.33732,129.14912 2.79564,55.06358 5.58532,188.71308 5.58532,188.71308 l -80.02655,0.77479 c 0,0 0.55634,-168.58361 1.11251,-200.58393 0.55602,-32.00032 -7.14638,-62.89731 -2.71639,-88.94455 4.12213,-24.23772 20.73519,-25.67846 20.73519,-25.67846 z"
       style="fill:#ff7f2a;fill-opacity:1;stroke:#000000;stroke-width:1.50948429;stroke-miterlimit:4;stroke-opacity:1;stroke-dasharray:none;display:inline"
       inkscape:export-filename="/home/rana/SparkleShare/CCC/linuxCourse/Chapter 1/character/SHROOK/shrokbelganb3.png" />
    <path
       sodipodi:nodetypes="cssccsccssscsssscc"
       style="display:inline;fill:#f4e3d7;fill-opacity:1"
       d="m 542.15816,147.35242 c 6.757,0 20.1395,-7.40219 14.2449,-4.04958 -8.4521,4.80714 16.2139,-1.79846 16.2139,-4.51015 0,-2.88117 7.0876,-0.36089 10.3482,-2.77703 9.7271,1.12114 19.4316,1.7959 35.1254,0.9447 24.151,3.88245 47.4739,26.45182 52.4872,50.56656 3.9186,18.84932 1.1521,44.35126 -7.9491,63.6155 -20.4696,55.4913 -23.6922,83.94494 -48.5044,110.05972 -6.3377,1.64105 -7.2222,4.70659 -16.2018,4.63239 -9.6483,-0.0797 -13.6274,5.32378 -21.6361,3.83281 -15.2038,-2.83049 -19.2619,-0.24639 -29.9813,-12.24697 -12.4019,-13.8841 -12.1902,-18.7473 -14.8329,-40.33995 -0.3811,-3.22183 1.3817,-12.54132 -4.8394,-14.57975 -6.9686,-2.28336 -14.7257,-3.42421 -14.7848,-10.76627 -0.059,-7.34207 6.2414,-15.32934 7.0608,-31.18159 0.8194,-15.85225 -0.032,-41.80055 -3.4737,-45.04408 -15.9769,-15.0583 -18.7887,-49.06034 -3.2425,-48.37499 26.8739,-22.09524 17.1327,-14.19134 29.9656,-19.78132 z"
       id="path3879"
       inkscape:connector-curvature="0"
       inkscape:export-xdpi="90"
       inkscape:export-ydpi="90"
       inkscape:export-filename="/home/rana/SparkleShare/CCC/linuxCourse/Chapter 1/character/SHROOK/shrokbelganb3.png" />
    <path
       inkscape:export-ydpi="90"
       inkscape:export-xdpi="90"
       inkscape:connector-curvature="0"
       id="path3076"
       d="m 539.69616,146.65045 c 6.8253,0 20.343,-7.51127 14.3888,-4.10926 -8.5375,4.87799 16.3778,-1.82496 16.3778,-4.57661 0,-2.92362 7.1592,-0.3662 10.4528,-2.81794 9.8254,1.13766 19.6279,1.82236 35.4803,0.95862 24.3951,3.93965 47.9537,26.84161 53.0176,51.31172 3.9582,19.12708 7.3084,46.32757 -8.0294,64.55294 -20.6765,56.30903 -26.51336,91.52236 -56.40436,115.37646 -6.4017,1.66524 0.11466,2.48699 -8.95574,2.41169 -9.7458,-0.0809 -13.7651,0.81161 -21.8547,-0.70133 -15.3575,-2.8722 -19.0222,-2.8956 -28.1119,-14.20399 -11.8112,-14.69412 -14.6417,-22.03268 -17.3111,-43.94351 -0.7699,-6.53862 -10.43564,-12.19272 -12.24667,-19.71377 -2.44727,-10.16329 2.927,-20.8037 2.60897,-31.25264 -0.45222,-14.85784 -2.9294,-40.84037 -6.4056,-44.1317 -16.1383,-15.2802 -18.9785,-49.78331 -3.2752,-49.08785 27.1454,-22.42085 17.3058,-14.40047 30.2684,-20.07283 z m 61.90951,220.0965 c 7.0662,-3.09153 17.89308,-10.89155 8.50634,-26.06019 -6.40934,-10.35727 -6.64875,-10.02207 -12.24305,-17.58353 -6.5015,-8.78785 -5.31049,-48.987 -3.46329,-51.73206 -4.29,-0.35796 8.75275,8.04995 -14.71795,-27.52829 -22.8242,-2.54827 -30.74262,10.75038 -41.63162,4.21468 -18.96363,-25.39764 -6.62213,-25.62195 -17.14703,-25.1408 -0.6368,2.14759 0.20798,25.24835 0.14219,37.8724 -0.0497,9.53877 -2.52022,19.31225 -0.4057,28.61383 1.37305,6.03993 7.908,12.50467 8.2701,16.64031 2.302,26.29209 9.9132,47.28886 29.3525,58.39152 9.2262,5.26951 23.1804,3.24484 31.5711,3.6062 8.3849,0.3611 4.07331,2.03669 11.76641,-1.29407 z"
       style="fill:#000000;display:inline"
       sodipodi:nodetypes="cssccsccssscaascccssccccaasssc"
       inkscape:export-filename="/home/rana/SparkleShare/CCC/linuxCourse/Chapter 1/character/SHROOK/shrokbelganb3.png" />
    <path
       inkscape:export-ydpi="90"
       inkscape:export-xdpi="90"
       style="fill:#ff6600;fill-opacity:1;stroke:none;display:inline"
       d="m 576.40564,231.46975 c -12.7826,8.77894 -2.7676,11.86913 -15.4664,6.88919 -16.9323,-6.64011 -21.9614,-7.85015 -26.347,-24.50809 -5.9812,-22.71832 7.5261,-21.00683 27.6974,-23.91796 10.9269,-1.57699 36.2564,26.33109 14.116,41.53686 z"
       id="path3072"
       inkscape:connector-curvature="0"
       sodipodi:nodetypes="sssss"
       inkscape:export-filename="/home/rana/SparkleShare/CCC/linuxCourse/Chapter 1/character/SHROOK/shrokbelganb3.png" />
    <path
       style="fill:#c8b7b7;fill-opacity:1;stroke:#c60003;stroke-width:3;stroke-linecap:butt;stroke-linejoin:miter;stroke-miterlimit:4;stroke-opacity:1;stroke-dasharray:none;display:inline"
       d="m 536.60023,337.22572 c 0.85015,-1.64496 7.20629,0.45004 7.68341,3.18057 0.37036,2.11954 -4.7735,4.34514 -4.7735,4.34514"
       id="path3870"
       inkscape:connector-curvature="0"
       sodipodi:nodetypes="cac"
       inkscape:export-filename="/home/rana/SparkleShare/CCC/linuxCourse/Chapter 1/character/SHROOK/shrokbelganb3.png"
       inkscape:export-xdpi="90"
       inkscape:export-ydpi="90" />
    <path
       style="fill:#000000;stroke:#000000;stroke-width:1.78452885;stroke-miterlimit:4;display:inline"
       d="m 534.71414,286.32976 c 4.9133,21.49507 1.7743,24.1613 0.774,34.21646 -1.0003,10.05516 7.7081,50.13482 11.083,52.43201 9.7761,6.65423 18.9214,8.15224 24.0303,-3.5934 5.109,-11.74564 6.8125,-41.08787 2.9666,-69.99609 -3.3196,-24.95268 7.2219,-23.96102 4.6197,-40.58659 -2.6024,-16.62559 -6.1975,-49.54429 -10.1685,-49.54429 -3.971,0 -20.1825,-7.99945 -22.7849,8.62613 -2.6024,16.62558 -16.0504,44.25127 -10.5202,68.44577 z"
       id="path3874"
       inkscape:connector-curvature="0"
       sodipodi:nodetypes="sssssssss"
       inkscape:export-filename="/home/rana/SparkleShare/CCC/linuxCourse/Chapter 1/character/SHROOK/shrokbelganb3.png"
       inkscape:export-xdpi="90"
       inkscape:export-ydpi="90" />
    <rect
       style="fill:#000000;stroke:#000000;stroke-width:3;stroke-miterlimit:4;stroke-dasharray:none;display:inline"
       id="rect3877"
       width="35.630161"
       height="6.0831981"
       x="-282.52899"
       y="203.52809"
       inkscape:export-filename="/home/rana/SparkleShare/CCC/linuxCourse/Chapter 1/character/SHROOK/shrokbelganb2.png"
       inkscape:export-xdpi="90"
       inkscape:export-ydpi="90" />
    <path
       inkscape:export-ydpi="90"
       inkscape:export-xdpi="90"
       style="fill:#000000;fill-opacity:1;stroke:none;display:inline"
       id="path3062"
       d="m 566.49423,423.93537 c -2.11359,6.37097 -3.43866,17.65131 -6.64478,27.95407 -3.20617,10.30269 -5.2947,19.98165 -7.54066,27.15357 -2.24596,7.17222 -5.59826,18.36329 -7.92326,25.37001 -2.32493,7.00675 -6.25593,17.71831 -8.62396,25.33093 -2.36785,7.6126 26.3654,-2.10929 23.5067,7.08313 0.64738,12.7491 -25.37753,9.10188 -34.0657,4.00484 -6.84397,-4.01511 -1.98954,-9.2154 0.22234,-16.19713 2.21206,-6.98175 3.48736,-15.20279 5.9203,-22.51875 2.43313,-7.31581 5.59147,-16.87251 9.01419,-27.14455 3.42289,-10.27212 12.93485,-48.56061 14.52117,-54.63006 1.58666,-6.06947 13.72685,-2.77734 11.61367,3.59389 z"
       inkscape:connector-curvature="0"
       sodipodi:nodetypes="czzzzcszzzzzc"
       inkscape:transform-center-x="-5.0120013"
       inkscape:transform-center-y="6.957803"
       inkscape:export-filename="/home/rana/SparkleShare/CCC/linuxCourse/Chapter 1/character/SHROOK/shrokbelganb3.png" />
    <path
       inkscape:export-ydpi="90"
       inkscape:export-xdpi="90"
       sodipodi:nodetypes="csccccccsccccsssss"
       id="path3090"
       d="m 539.66295,248.61799 c -3.27889,-15.19079 -2.44107,-13.26746 -6.45183,-20.21968 -2.15619,-3.73748 -7.27389,-1.68588 -9.0241,4.76238 -1.68889,6.28604 -2.7329,14.80261 -2.95807,23.72472 l -1.49438,0 0,7.29992 1.49438,0.86903 c 0.22517,8.92211 -0.38951,2.66518 1.29937,8.91066 0.56548,12.53146 6.01081,22.86462 8.31323,20.44546 4.96264,-5.21417 6.71285,-11.24986 9.18988,-33.83456 l -0.23686,-7.86175 0.23686,0.86902 c -0.24469,15.07836 -0.36848,-4.9652 -0.36848,-4.9652 z m -9.05835,43.14478 c -4.35008,0 -7.88131,-14.03205 -7.88131,-31.2274 0,-17.23591 3.54151,-31.22742 7.88131,-31.22742 4.35008,0 7.88135,14.03207 7.88135,31.22742 0,17.2359 -3.53127,31.2274 -7.88135,31.2274 z"
       inkscape:connector-curvature="0"
       inkscape:export-filename="/home/rana/SparkleShare/CCC/linuxCourse/Chapter 1/character/SHROOK/shrokbelganb3.png" />
    <path
       inkscape:export-ydpi="90"
       inkscape:export-xdpi="90"
       style="fill:#000000;fill-opacity:1;stroke:none;display:inline"
       d="m 530.51979,255.77184 c 1.14216,1.86108 -1.48796,4.83588 -2.15998,6.07137 -0.67208,1.23549 -2.14276,0.72837 -3.28492,-1.13271 -1.14217,-1.86107 -1.52327,-4.37134 -0.85119,-5.60683 0.67202,-1.23549 5.15393,-1.1929 6.29609,0.66817 z"
       id="path3094"
       inkscape:connector-curvature="0"
       sodipodi:nodetypes="sssss"
       inkscape:export-filename="/home/rana/SparkleShare/CCC/linuxCourse/Chapter 1/character/SHROOK/shrokbelganb3.png" />
  </g>
</svg>
