<?xml version="1.0" encoding="UTF-8" standalone="no"?>
<!-- Created with Inkscape (http://www.inkscape.org/) -->

<svg
   xmlns:dc="http://purl.org/dc/elements/1.1/"
   xmlns:cc="http://creativecommons.org/ns#"
   xmlns:rdf="http://www.w3.org/1999/02/22-rdf-syntax-ns#"
   xmlns:svg="http://www.w3.org/2000/svg"
   xmlns="http://www.w3.org/2000/svg"
   xmlns:sodipodi="http://sodipodi.sourceforge.net/DTD/sodipodi-0.dtd"
   xmlns:inkscape="http://www.inkscape.org/namespaces/inkscape"
   width="744.09448819"
   height="1052.3622047"
   id="svg2"
   version="1.1"
   inkscape:version="0.91 r13725"
   inkscape:export-filename="mofedz.png"
   inkscape:export-xdpi="90"
   inkscape:export-ydpi="90"
   sodipodi:docname="MOFEDBELWE4.svg">
  <defs
     id="defs4" />
  <sodipodi:namedview
     id="base"
     pagecolor="#ffffff"
     bordercolor="#666666"
     borderopacity="1.0"
     inkscape:pageopacity="0.0"
     inkscape:pageshadow="2"
     inkscape:zoom="0.4442888"
     inkscape:cx="317.40588"
     inkscape:cy="604.52087"
     inkscape:document-units="px"
     inkscape:current-layer="layer1"
     showgrid="false"
     inkscape:window-width="1024"
     inkscape:window-height="706"
     inkscape:window-x="-8"
     inkscape:window-y="-8"
     inkscape:window-maximized="1" />
  <metadata
     id="metadata7">
    <rdf:RDF>
      <cc:Work
         rdf:about="">
        <dc:format>image/svg+xml</dc:format>
        <dc:type
           rdf:resource="http://purl.org/dc/dcmitype/StillImage" />
        <dc:title></dc:title>
      </cc:Work>
    </rdf:RDF>
  </metadata>
  <g
     inkscape:label="Layer 1"
     inkscape:groupmode="layer"
     id="layer1">
    <path
       style="fill:#784421;stroke:#000000;stroke-width:1px;stroke-linecap:butt;stroke-linejoin:miter;stroke-opacity:1"
       d="m 418.2226,629.8682 c -46.13644,104.83075 39.21808,241.95717 49.61719,338.56289 l 35.33101,-0.0756 9.38766,-205.67867 14.83168,206.59287 35.32897,-0.16613 c 13.95177,-96.71029 87.2484,-267.23627 43.22362,-336.64389"
       id="path4101"
       inkscape:connector-curvature="0"
       sodipodi:nodetypes="ccccccc" />
    <rect
       style="fill:#ffe6d5;fill-opacity:1;stroke:#000000;stroke-width:0.40000001;stroke-miterlimit:4;stroke-dasharray:none"
       id="rect4014"
       width="39.39595"
       height="38.385796"
       x="497.01025"
       y="365.96353" />
    <ellipse
       style="fill:#ffe6d5;fill-opacity:1;stroke:#000000;stroke-width:1.02377343"
       id="path2985"
       cx="517.66296"
       cy="270.56595"
       rx="78.8955"
       ry="98.904091" />
    <path
       style="fill:none;stroke:#000000;stroke-width:1px;stroke-linecap:butt;stroke-linejoin:miter;stroke-opacity:1"
       d="m 530.85037,172.51932 c 34.68368,17.40788 52.08144,41.45561 63.88164,79.0593"
       id="path2995"
       inkscape:connector-curvature="0"
       sodipodi:nodetypes="cc" />
    <path
       style="fill:#000000;fill-opacity:1;stroke:#000000;stroke-width:0.47367957"
       d="m 440.03178,249.25045 c 1.7224,-23.33668 11.41169,-43.93113 29.03774,-58.41563 16.07826,-13.2126 36.15461,-19.62171 56.85073,-18.14885 3.09705,0.2204 6.98365,0.25539 7.09011,0.34861 0.27047,0.23681 -4.1298,14.54932 -6.94241,20.81836 -3.23253,7.20506 -11.48415,20.22987 -14.72231,24.47298 -4.85201,6.3578 -10.02503,10.43759 -20.92309,16.1611 -9.19641,4.82982 -29.01138,12.33336 -40.75031,16.22234 -1.6705,0.55342 -4.60213,1.52365 -6.5147,2.15608 l -3.47743,1.14987 z"
       id="path2997"
       inkscape:connector-curvature="0"
       sodipodi:nodetypes="ssscssssscs" />
    <path
       style="fill:#000000;fill-opacity:1;stroke:#000000;stroke-width:0.49723428"
       d="m 594.32643,254.38381 c -2.62768,-6.97086 -10.81486,-25.72559 -14.92366,-32.50428 -10.78195,-17.78801 -27.47909,-33.95231 -41.92182,-44.03246 -5.14078,-3.58794 -3.52745,-3.29265 1.76417,-1.49973 31.64418,10.72177 54.27966,44.9207 56.79796,80.53785 0.0744,1.05243 0.21578,1.89414 0.11801,1.89414 -0.0978,0 -0.92339,-1.97799 -1.83469,-4.39552 z"
       id="path2999"
       inkscape:connector-curvature="0"
       sodipodi:nodetypes="cssssscc" />
    <path
       style="fill:#000000;stroke:#000000;stroke-width:1px;stroke-linecap:butt;stroke-linejoin:miter;stroke-opacity:1"
       d="m 532.87067,173.02439 c -0.3414,6.60686 11.29727,22.64734 18.94036,34.59772 -11.21876,-12.74198 -21.31356,-26.49788 -18.94036,-34.59772 z"
       id="path3001"
       inkscape:connector-curvature="0"
       sodipodi:nodetypes="ccc" />
    <path
       style="fill:#000000;fill-opacity:1;stroke:#000000;stroke-width:0.24174342;stroke-miterlimit:4;stroke-dasharray:none"
       d="m 473.16079,248.38029 c 6.21028,-6.44809 12.71175,-10.20047 19.91857,-11.49607 l 3.18246,-0.57214 0,4.7355 0,4.73554 -5.13988,0.72481 c -2.82694,0.39863 -8.1839,1.56349 -11.90436,2.58849 -3.72044,1.02505 -7.16425,1.8637 -7.65297,1.8637 -0.48866,0 0.22963,-1.16091 1.59618,-2.57983 z"
       id="path3952"
       inkscape:connector-curvature="0" />
    <path
       inkscape:connector-curvature="0"
       id="path3115"
       d="m 562.25737,248.38029 c -6.21028,-6.44809 -12.71175,-10.20047 -19.91857,-11.49607 l -3.18246,-0.57214 0,4.7355 0,4.73554 5.13988,0.72481 c 2.82694,0.39863 8.1839,1.56349 11.90436,2.58849 3.72044,1.02505 7.16425,1.8637 7.65297,1.8637 0.48866,0 -0.22963,-1.16091 -1.59618,-2.57983 z"
       style="fill:#000000;fill-opacity:1;stroke:#000000;stroke-width:0.24174342;stroke-miterlimit:4;stroke-dasharray:none" />
    <g
       id="g3992"
       transform="translate(96.88683,36.507627)">
      <path
         sodipodi:nodetypes="ccsc"
         inkscape:connector-curvature="0"
         id="path3210"
         d="m 400.23379,309.1464 40.23205,0 c 2.37994,-0.24202 -1.0751,9.08406 -19.60897,9.14542 -17.79563,0.0589 -25.96131,-8.93974 -20.62308,-9.14542 z"
         style="fill:#ffffff;stroke:#000000;stroke-width:0.92125827px;stroke-linecap:butt;stroke-linejoin:miter;stroke-opacity:1" />
      <path
         inkscape:connector-curvature="0"
         id="path3222"
         d="m 420.22346,309.18577 0,7.07107 -4.29315,0 0,-6.9448 8.71257,0 0,6.9448 -4.54569,0"
         style="fill:none;stroke:#000000;stroke-width:0.2;stroke-linecap:butt;stroke-linejoin:miter;stroke-miterlimit:4;stroke-dasharray:none;stroke-opacity:1" />
    </g>
    <g
       id="g4010"
       transform="matrix(0.58893875,0,0,0.78991602,268.33406,93.87962)">
      <path
         sodipodi:nodetypes="ccccc"
         inkscape:connector-curvature="0"
         id="rect4003"
         d="m 393.33794,304.17546 25.26836,-0.41958 0,5.03488 -25.78405,5.03488 z"
         style="fill:#000000;fill-opacity:1;stroke:#000000;stroke-width:0.13024242;stroke-miterlimit:4" />
      <path
         sodipodi:nodetypes="ccccc"
         inkscape:connector-curvature="0"
         id="path4008"
         d="m 449.51918,304.17546 -25.26836,-0.41958 0,5.03488 25.78405,5.03488 z"
         style="fill:#000000;fill-opacity:1;stroke:#000000;stroke-width:0.13024242;stroke-miterlimit:4" />
    </g>
    <path
       style="fill:#c87137;fill-opacity:1;stroke:#000000;stroke-width:0.77027482;stroke-miterlimit:4"
       d="m 640.66915,554.10228 c -3.7158,98.19327 -44.18284,146.22897 -125.22361,148.00499 -74.79371,1.63911 -126.67914,-36.28233 -125.22361,-148.00499 1.31695,-101.08571 35.26325,-170.54374 125.22361,-171.13261 99.17643,-0.64919 129.0035,71.24585 125.22361,171.13261 z"
       id="path4016"
       inkscape:connector-curvature="0"
       sodipodi:nodetypes="sssss" />
    <path
       style="fill:none;stroke:#000000;stroke-width:0.99794739px;stroke-linecap:butt;stroke-linejoin:miter;stroke-opacity:1"
       d="m 533.87979,384.95362 c -6.88395,101.94392 2.92853,205.743 20.20511,310.37142"
       id="path4019"
       inkscape:connector-curvature="0"
       sodipodi:nodetypes="cc" />
    <path
       inkscape:connector-curvature="0"
       id="path4021"
       d="m 499.2831,384.95465 c 5.76945,106.66659 -4.55125,209.31064 -20.20305,310.62191"
       style="fill:none;stroke:#000000;stroke-width:1px;stroke-linecap:butt;stroke-linejoin:miter;stroke-opacity:1"
       sodipodi:nodetypes="cc" />
    <path
       style="fill:#000000;fill-opacity:1;stroke:#000000;stroke-width:0.72730988;stroke-miterlimit:4;stroke-dasharray:none"
       d="m 503.91312,700.55933 c -4.86831,-0.43733 -12.25984,-1.59869 -16.42564,-2.58077 l -7.57416,-1.78561 0.52667,-3.09579 c 7.53893,-44.31409 15.82287,-119.87065 19.27801,-175.83187 1.8343,-29.70924 2.48142,-100.02638 1.10311,-119.86613 -0.79396,-11.42848 -0.75519,-11.79986 1.29975,-12.45207 2.81946,-0.89486 24.06555,-0.8629 27.66946,0.0416 l 2.84436,0.71389 -0.84368,21.33464 c -1.13561,28.71692 -0.82952,81.29836 0.62109,106.69252 2.93045,51.30011 9.22519,109.02511 17.74918,162.76621 1.37739,8.68396 2.50434,16.51257 2.50434,17.39691 0,4.29379 -29.80158,8.36888 -48.75249,6.66645 l 0,0 z"
       id="path4023"
       inkscape:connector-curvature="0" />
    <circle
       style="fill:#000000;fill-opacity:1;stroke:#000000;stroke-width:0.72000003;stroke-miterlimit:4;stroke-dasharray:none"
       id="path4025"
       cx="539.18408"
       cy="416.72369"
       r="2.2728431" />
    <circle
       id="path4027"
       style="fill:#000000;fill-opacity:1;stroke:#000000;stroke-width:0.72000003;stroke-miterlimit:4;stroke-dasharray:none"
       cx="538.67908"
       cy="443.9978"
       r="2.2728431" />
    <circle
       style="fill:#000000;fill-opacity:1;stroke:#000000;stroke-width:0.72000003;stroke-miterlimit:4;stroke-dasharray:none"
       id="path4029"
       cx="538.67908"
       cy="472.78717"
       r="2.2728431" />
    <circle
       id="path4031"
       style="fill:#000000;fill-opacity:1;stroke:#000000;stroke-width:0.72000003;stroke-miterlimit:4;stroke-dasharray:none"
       cx="539.68921"
       cy="502.08157"
       r="2.2728431" />
    <circle
       style="fill:#000000;fill-opacity:1;stroke:#000000;stroke-width:0.72000003;stroke-miterlimit:4;stroke-dasharray:none"
       id="path4033"
       cx="541.70947"
       cy="531.37598"
       r="2.2728431" />
    <circle
       id="path4035"
       style="fill:#000000;fill-opacity:1;stroke:#000000;stroke-width:0.72000003;stroke-miterlimit:4;stroke-dasharray:none"
       cx="543.7298"
       cy="563.70087"
       r="2.2728431" />
    <circle
       style="fill:#000000;fill-opacity:1;stroke:#000000;stroke-width:0.72000003;stroke-miterlimit:4;stroke-dasharray:none"
       id="path4037"
       cx="547.77039"
       cy="598.04608"
       r="2.2728431" />
    <circle
       id="path4039"
       style="fill:#000000;fill-opacity:1;stroke:#000000;stroke-width:0.72000003;stroke-miterlimit:4;stroke-dasharray:none"
       cx="552.3161"
       cy="625.82526"
       r="2.2728431" />
    <circle
       style="fill:#000000;fill-opacity:1;stroke:#000000;stroke-width:0.72000003;stroke-miterlimit:4;stroke-dasharray:none"
       id="path4041"
       cx="555.34656"
       cy="653.60449"
       r="2.2728431" />
    <path
       style="fill:#c87137;stroke:#000000;stroke-width:1px;stroke-linecap:butt;stroke-linejoin:miter;stroke-opacity:1;fill-opacity:1"
       d="m 498.52549,396.77318 -31.31474,20.20305 15.65737,-41.41625 13.13198,-1.01015 z"
       id="path4063"
       inkscape:connector-curvature="0"
       sodipodi:nodetypes="ccccc" />
    <path
       sodipodi:nodetypes="ccccc"
       inkscape:connector-curvature="0"
       id="path4065"
       d="m 534.38589,396.77318 31.31474,20.20305 -15.65737,-41.41625 -13.13198,-1.01015 z"
       style="fill:#c87137;stroke:#000000;stroke-width:1px;stroke-linecap:butt;stroke-linejoin:miter;stroke-opacity:1;fill-opacity:1" />
    <path
       style="fill:#c87137;stroke:#000000;stroke-width:1px;stroke-linecap:butt;stroke-linejoin:miter;stroke-opacity:1;fill-opacity:1"
       d="m 444.43156,405.35948 c 0.13054,-6.38496 -111.81139,32.55817 -112.58125,88.89342 -0.8417,61.59246 116.41315,81.28849 117.60156,74.04316 l 10.10152,-19.1929 c 0,0 -73.25836,-37.19307 -77.19545,-56.87056 -1.89315,-9.46194 18.18275,-19.69797 18.18275,-19.69797 7.20871,-28.48335 26.08511,-49.28885 43.89087,-67.17515 z"
       id="path4071"
       inkscape:connector-curvature="0"
       sodipodi:nodetypes="csccscc" />
    <path
       sodipodi:nodetypes="csccscc"
       inkscape:connector-curvature="0"
       id="path4073"
       d="m 589.00762,403.33917 c 2.2781,-6.38445 119.81857,35.71908 116.20345,90.91373 -3.48033,53.1366 -113.14248,78.71228 -115.60156,70.04316 l -10.10152,-19.1929 c 0,0 70.24821,-31.17277 74.1853,-50.85026 1.89315,-9.46194 -21.03989,-24.157 -21.03989,-24.157 -7.20871,-28.48335 -25.84002,-48.87043 -43.64578,-66.75673 z"
       style="fill:#c87137;stroke:#000000;stroke-width:1px;stroke-linecap:butt;stroke-linejoin:miter;stroke-opacity:1;fill-opacity:1" />
    <path
       style="fill:#ffccaa;stroke:#000000;stroke-width:0.6046474px;stroke-linecap:butt;stroke-linejoin:miter;stroke-opacity:1"
       d="m 468.93794,542.00954 c 5.77234,-4.88079 20.50432,-10.01754 24.20709,-4.50039 3.53795,5.27157 -17.29096,6.12895 -16.89485,6.92576 2.73379,5.49953 20.52925,-3.16128 21.51977,4.11741 0.94505,6.94463 -25.84935,3.79304 -20.98381,8.88741 1.38337,1.44842 21.21108,-4.10701 21.05976,1.08975 -0.22187,7.61943 -23.26248,3.56338 -22.25966,7.62204 0.34944,1.41426 22.74972,-2.03319 21.68419,5.90542 -0.63769,4.75108 -18.65761,-1.76406 -22.49826,0.50838 -3.98697,2.359 16.74045,1.13668 18.52921,5.53847 -4.40305,5.50595 -28.67832,-4.69958 -32.45637,-5.37978 -4.90429,-0.007 -22.86264,-1.33833 -21.68897,-13.11393 1.68862,-16.94175 23.68562,-12.44583 29.78189,-17.60052 z"
       id="path4906"
       inkscape:connector-curvature="0"
       sodipodi:nodetypes="cssssssssccssc" />
    <path
       sodipodi:nodetypes="cssssssssccssc"
       inkscape:connector-curvature="0"
       id="path4097"
       d="m 564.51926,539.28628 c -5.27738,-5.10334 -18.74613,-10.47431 -22.13139,-4.7056 -3.23459,5.51194 15.8083,6.40842 15.44615,7.24157 -2.49937,5.75029 -18.76891,-3.30543 -19.6745,4.30515 -0.86402,7.26128 23.63283,3.96598 19.1845,9.29265 -1.26475,1.51446 -19.39229,-4.29429 -19.25394,1.13943 0.20284,7.96686 21.26779,3.72586 20.35096,7.96959 -0.31948,1.47874 -20.799,-2.1259 -19.82483,6.17469 0.58301,4.96771 17.05776,-1.8445 20.56909,0.53155 3.6451,2.46657 -15.305,1.18852 -16.94038,5.79101 4.0255,5.75701 26.21922,-4.91386 29.67332,-5.62507 4.48376,-0.007 20.90223,-1.39936 19.8292,-13.71189 -1.54383,-17.71425 -21.65465,-13.01333 -27.22817,-18.40306 z"
       style="fill:#ffccaa;stroke:#000000;stroke-width:0.59117693px;stroke-linecap:butt;stroke-linejoin:miter;stroke-opacity:1" />
    <g
       transform="matrix(1.7876149,0,0,1.8556599,-179.83726,-74.613443)"
       id="g4183">
      <ellipse
         ry="13.580034"
         rx="10.637693"
         cy="202.34251"
         cx="365.0766"
         transform="matrix(0.96808691,0,0,0.96847814,22.016585,-0.63813895)"
         id="ellipse4185"
         style="fill:#ffe6d5;fill-opacity:1;stroke:#000000;stroke-width:0.89999998;stroke-miterlimit:4;stroke-dasharray:none" />
      <path
         sodipodi:nodetypes="cac"
         inkscape:connector-curvature="0"
         id="path4187"
         d="m 386.07293,196.60724 c -2.92721,-0.56314 -7.11054,0.33264 -10.66853,0.41999 -3.5552,0.0873 -7.74131,-0.55926 -10.66852,0.10397"
         style="fill:none;stroke:#000000;stroke-width:0.98120147px;stroke-linecap:butt;stroke-linejoin:miter;stroke-opacity:1" />
      <path
         sodipodi:nodetypes="sssss"
         inkscape:connector-curvature="0"
         id="path4189"
         d="m 377.03564,199.50369 c 0,0.94703 -0.76772,1.71475 -1.71474,1.71475 -0.94704,0 -1.71476,-0.76772 -1.71476,-1.71475 0,-0.94703 0.76772,-1.71474 1.71476,-1.71474 0.94702,0 1.71474,0.76771 1.71474,1.71474 z"
         style="fill:#1a1a1a;fill-opacity:1;stroke:#000000;stroke-width:1.09184515;stroke-miterlimit:4" />
    </g>
    <g
       id="g4191"
       transform="matrix(1.7876149,0,0,1.8556599,-125.83726,-74.613443)">
      <ellipse
         style="fill:#ffe6d5;fill-opacity:1;stroke:#000000;stroke-width:0.89999998;stroke-miterlimit:4;stroke-dasharray:none"
         id="ellipse4193"
         transform="matrix(0.96808691,0,0,0.96847814,22.016585,-0.63813895)"
         cx="365.0766"
         cy="202.34251"
         rx="10.637693"
         ry="13.580034" />
      <path
         style="fill:none;stroke:#000000;stroke-width:0.98120147px;stroke-linecap:butt;stroke-linejoin:miter;stroke-opacity:1"
         d="m 386.07293,196.60724 c -2.92721,-0.56314 -7.11054,0.33264 -10.66853,0.41999 -3.5552,0.0873 -7.74131,-0.55926 -10.66852,0.10397"
         id="path4195"
         inkscape:connector-curvature="0"
         sodipodi:nodetypes="cac" />
      <path
         style="fill:#1a1a1a;fill-opacity:1;stroke:#000000;stroke-width:1.09184515;stroke-miterlimit:4"
         d="m 377.03564,199.50369 c 0,0.94703 -0.76772,1.71475 -1.71474,1.71475 -0.94704,0 -1.71476,-0.76772 -1.71476,-1.71475 0,-0.94703 0.76772,-1.71474 1.71476,-1.71474 0.94702,0 1.71474,0.76771 1.71474,1.71474 z"
         id="path4197"
         inkscape:connector-curvature="0"
         sodipodi:nodetypes="sssss" />
    </g>
    <path
       style="fill:none;stroke:#000000;stroke-width:0.53071666px;stroke-linecap:butt;stroke-linejoin:miter;stroke-opacity:1"
       d="m 109.9134,-113.76051 c -10.989299,0.69472 -15.866941,5.38865 -22.629885,12.65656 7.280443,-1.19919 14.055285,-4.13308 21.850075,-3.56747 z"
       id="path3878"
       inkscape:connector-curvature="0"
       sodipodi:nodetypes="cccc" />
    <ellipse
       style="fill:#ffffff;fill-opacity:1;stroke:#000000;stroke-width:0.85999656;stroke-miterlimit:4;stroke-dasharray:none"
       id="path3880"
       transform="matrix(0.99815176,0.06077055,-0.07578051,0.99712452,0,0)"
       cx="94.138039"
       cy="-93.430756"
       rx="11.079042"
       ry="11.905688" />
    <path
       style="fill:none;stroke:#000000;stroke-width:1.17311871px;stroke-linecap:butt;stroke-linejoin:miter;stroke-opacity:1"
       d="m 111.93084,-90.34544 c -7.56033,-1.69181 -13.965812,-1.923 -21.729022,-0.94526"
       id="path3882"
       inkscape:connector-curvature="0"
       sodipodi:nodetypes="cc" />
    <ellipse
       style="fill:#1a1a1a;fill-opacity:1;stroke:#000000;stroke-width:1.28093636;stroke-miterlimit:4;stroke-dasharray:none"
       id="path3884"
       transform="matrix(0.99815176,0.06077055,-0.07578051,0.99712452,0,0)"
       cx="97.291824"
       cy="-91.376892"
       rx="2.1253052"
       ry="1.9042009" />
    <path
       style="fill:#000000;fill-opacity:1;stroke:#000000;stroke-width:0.85801435;stroke-miterlimit:4"
       d="m 103.05755,-43.89186 12.45502,1.11947 -0.15656,2.06008 -12.48377,1.44755 z"
       id="rect3918"
       inkscape:connector-curvature="0"
       sodipodi:nodetypes="ccccc" />
    <path
       style="fill:none;stroke:#000000;stroke-width:0.58655936;stroke-linecap:butt;stroke-linejoin:miter;stroke-miterlimit:4;stroke-dasharray:none;stroke-opacity:1"
       d="m 27.771158,-149.9995 c -4.51372,-1.23064 -14.54543,-2.62405 -22.2055574,0.59188 0,0 5.5555574,17.05808 12.1975874,17.47777"
       id="path3925"
       inkscape:connector-curvature="0"
       sodipodi:nodetypes="ccc" />
    <path
       style="fill:#000000;fill-opacity:1;stroke:#000000;stroke-width:0.26269463;stroke-miterlimit:4;stroke-dasharray:none"
       d="m 84.191675,-102.35927 c 7.127588,-6.74772 14.336781,-10.48809 22.086795,-11.45924 l 3.42233,-0.42886 -0.39898,5.24995 -0.39899,5.24998 -5.51051,0.4718 c -3.03078,0.25945 -8.808523,1.20506 -12.83941,2.10126 -4.030876,0.89626 -7.752757,1.60372 -8.270914,1.57217 -0.518082,-0.0315 0.341272,-1.2722 1.909679,-2.75706 z"
       id="path3952-3"
       inkscape:connector-curvature="0" />
    <path
       style="fill:#000000;fill-opacity:1;stroke:#000000;stroke-width:0.24174342;stroke-miterlimit:4;stroke-dasharray:none"
       d="m 184.59887,-117.31605 c -6.21028,-6.44809 -12.71175,-10.20047 -19.91857,-11.49607 l -3.18246,-0.57214 0,4.7355 0,4.73554 5.13988,0.72481 c 2.82694,0.39863 8.1839,1.56349 11.90436,2.58849 3.72044,1.02505 7.16425,1.8637 7.65297,1.8637 0.48866,0 -0.22963,-1.16091 -1.59618,-2.57983 z"
       id="path4247"
       inkscape:connector-curvature="0" />
    <g
       transform="matrix(1.7876149,0,0,1.8556599,-503.49576,-440.30978)"
       id="g4269">
      <ellipse
         ry="13.580034"
         rx="10.637693"
         cy="202.34251"
         cx="365.0766"
         transform="matrix(0.96808691,0,0,0.96847814,22.016585,-0.63813895)"
         id="ellipse4271"
         style="fill:#ffe6d5;fill-opacity:1;stroke:#000000;stroke-width:0.89999998;stroke-miterlimit:4;stroke-dasharray:none" />
      <path
         sodipodi:nodetypes="cac"
         inkscape:connector-curvature="0"
         id="path4273"
         d="m 386.07293,196.60724 c -2.92721,-0.56314 -7.11054,0.33264 -10.66853,0.41999 -3.5552,0.0873 -7.74131,-0.55926 -10.66852,0.10397"
         style="fill:none;stroke:#000000;stroke-width:0.98120147px;stroke-linecap:butt;stroke-linejoin:miter;stroke-opacity:1" />
      <path
         sodipodi:nodetypes="sssss"
         inkscape:connector-curvature="0"
         id="path4275"
         d="m 377.03564,199.50369 c 0,0.94703 -0.76772,1.71475 -1.71474,1.71475 -0.94704,0 -1.71476,-0.76772 -1.71476,-1.71475 0,-0.94703 0.76772,-1.71474 1.71476,-1.71474 0.94702,0 1.71474,0.76771 1.71474,1.71474 z"
         style="fill:#1a1a1a;fill-opacity:1;stroke:#000000;stroke-width:1.09184515;stroke-miterlimit:4" />
    </g>
  </g>
</svg>
