<?xml version="1.0" encoding="UTF-8" standalone="no"?>
<!-- Created with Inkscape (http://www.inkscape.org/) -->

<svg
   xmlns:dc="http://purl.org/dc/elements/1.1/"
   xmlns:cc="http://creativecommons.org/ns#"
   xmlns:rdf="http://www.w3.org/1999/02/22-rdf-syntax-ns#"
   xmlns:svg="http://www.w3.org/2000/svg"
   xmlns="http://www.w3.org/2000/svg"
   xmlns:sodipodi="http://sodipodi.sourceforge.net/DTD/sodipodi-0.dtd"
   xmlns:inkscape="http://www.inkscape.org/namespaces/inkscape"
   id="svg3039"
   version="1.1"
   inkscape:version="0.91 r13725"
   width="744"
   height="1052"
   sodipodi:docname="MOFEDbelganb.svg"
   inkscape:export-filename="3elaaa2.png"
   inkscape:export-xdpi="90"
   inkscape:export-ydpi="90">
  <metadata
     id="metadata3045">
    <rdf:RDF>
      <cc:Work
         rdf:about="">
        <dc:format>image/svg+xml</dc:format>
        <dc:type
           rdf:resource="http://purl.org/dc/dcmitype/StillImage" />
        <dc:title></dc:title>
      </cc:Work>
    </rdf:RDF>
  </metadata>
  <defs
     id="defs3043">
    <inkscape:perspective
       sodipodi:type="inkscape:persp3d"
       inkscape:vp_x="0 : 526 : 1"
       inkscape:vp_y="0 : 1000 : 0"
       inkscape:vp_z="744 : 526 : 1"
       inkscape:persp3d-origin="372 : 350.66667 : 1"
       id="perspective3888" />
  </defs>
  <sodipodi:namedview
     pagecolor="#ffffff"
     bordercolor="#666666"
     borderopacity="1"
     objecttolerance="10"
     gridtolerance="10"
     guidetolerance="10"
     inkscape:pageopacity="0"
     inkscape:pageshadow="2"
     inkscape:window-width="1024"
     inkscape:window-height="706"
     id="namedview3041"
     showgrid="false"
     inkscape:zoom="0.27614069"
     inkscape:cx="186.54707"
     inkscape:cy="511.64575"
     inkscape:window-x="-8"
     inkscape:window-y="-8"
     inkscape:window-maximized="1"
     inkscape:current-layer="svg3039"
     showguides="true"
     inkscape:guide-bbox="true" />
  <path
     style="fill:#803300;fill-opacity:1;stroke:#000000;stroke-width:1.5;stroke-miterlimit:4;stroke-dasharray:none"
     d="m -283.30523,618.30594 103.3554,27.56324 -42.63031,287.12522 -34.57631,-1.06866 c -7.62535,-103.18243 -51.43037,-212.67578 -26.14878,-313.6198 z"
     id="rect4908"
     inkscape:connector-curvature="0"
     sodipodi:nodetypes="ccccc" />
  <path
     style="fill:#ffffff;fill-opacity:1;stroke:#000000;stroke-width:1.5;stroke-miterlimit:4"
     d="m -278.19934,380.75071 31.14053,-4.23374 -2.76485,40.64617 -30.71044,-2.089 z"
     id="rect3934"
     inkscape:connector-curvature="0"
     sodipodi:nodetypes="ccccc" />
  <path
     style="fill:#ffffff;fill-opacity:1;stroke:#000000;stroke-width:1.38703525;stroke-miterlimit:4"
     d="m -747.91056,626.72057 82.04763,0 -16.29604,359.28747 -34.98373,0 C -728.2628,880.8999 -767.47955,726.5941 -747.91056,626.72057 Z"
     id="rect3941"
     inkscape:connector-curvature="0"
     sodipodi:nodetypes="ccccc" />
  <path
     style="fill:#ffffff;fill-opacity:1;stroke:#000000;stroke-width:0.40000001;stroke-miterlimit:4;stroke-dasharray:none"
     d="m -202.90964,304.23379 c -2.57315,47.96127 -31.32627,81.50064 -63.13028,79.11999 -31.73124,-2.37519 -54.95373,-41.08393 -51.83447,-86.94018 3.11926,-45.85625 31.38365,-81.27948 63.13029,-79.11999 31.74664,2.15948 54.29683,41.04396 51.83446,86.94018 z"
     id="path3100"
     inkscape:connector-curvature="0"
     sodipodi:nodetypes="sssss" />
  <path
     style="fill:none;stroke:#000000;stroke-width:0.99483871px;stroke-linecap:butt;stroke-linejoin:miter;stroke-opacity:1"
     d="m -240.10419,220.95433 c 0,0 -1.0689,34.21019 -10.32754,45.09644 -7.20894,8.47624 -22.30788,9.86824 -31.08628,16.74383 -15.74312,12.33064 -35.43794,40.6943 -35.43794,40.6943"
     id="path3872"
     inkscape:connector-curvature="0"
     sodipodi:nodetypes="cssc" />
  <path
     style="fill:none;stroke:#000000;stroke-width:0.45239809px;stroke-linecap:butt;stroke-linejoin:miter;stroke-opacity:1"
     d="m -218.33449,265.11584 c -8.86237,0.62595 -12.79597,4.85529 -18.24998,11.40384 5.87135,-1.08049 11.33496,-3.724 17.6211,-3.21436 z"
     id="path3878"
     inkscape:connector-curvature="0"
     sodipodi:nodetypes="cccc" />
  <ellipse
     style="fill:#ffffff;fill-opacity:1;stroke:#000000;stroke-width:0.73304421;stroke-miterlimit:4;stroke-dasharray:none"
     id="path3880"
     transform="matrix(0.99769447,0.06786564,-0.06786564,0.99769447,0,0)"
     cx="-205.36523"
     cy="303.46628"
     rx="8.9388456"
     ry="10.721171" />
  <path
     style="fill:none;stroke:#000000;stroke-width:1px;stroke-linecap:butt;stroke-linejoin:miter;stroke-opacity:1"
     d="m -216.70751,286.21335 c -6.09707,-1.52436 -11.2628,-1.73266 -17.52348,-0.85171"
     id="path3882"
     inkscape:connector-curvature="0"
     sodipodi:nodetypes="cc" />
  <circle
     style="fill:#1a1a1a;fill-opacity:1;stroke:#000000;stroke-width:1.09184515;stroke-miterlimit:4;stroke-dasharray:none"
     id="path3884"
     transform="matrix(0.99769447,0.06786564,-0.06786564,0.99769447,0,0)"
     cx="-202.82068"
     cy="305.31577"
     r="1.7147487" />
  <path
     style="fill:#000000;fill-opacity:1;stroke:#000000;stroke-width:0.73139602;stroke-miterlimit:4"
     d="m -223.86342,328.0691 10.04442,1.00866 -0.12626,1.85619 -10.0676,1.30427 z"
     id="rect3918"
     inkscape:connector-curvature="0"
     sodipodi:nodetypes="ccccc" />
  <path
     style="fill:none;stroke:#000000;stroke-width:0.5;stroke-linecap:butt;stroke-linejoin:miter;stroke-miterlimit:4;stroke-dasharray:none;stroke-opacity:1"
     d="m -210.13483,338.88565 c -3.64012,-1.10884 -11.73024,-2.36433 -17.90779,0.5333 0,0 4.48031,15.36972 9.83681,15.74787"
     id="path3925"
     inkscape:connector-curvature="0"
     sodipodi:nodetypes="ccc" />
  <path
     style="fill:#000000;fill-opacity:1;stroke:#000000;stroke-width:0.22392842;stroke-miterlimit:4;stroke-dasharray:none"
     d="m -239.0779,275.38861 c 5.74808,-6.07985 11.56197,-9.45001 17.81201,-10.32503 l 2.75996,-0.38642 -0.32177,4.73032 -0.32177,4.73037 -4.44397,0.42508 c -2.44419,0.23378 -7.10368,1.0858 -10.35441,1.8933 -3.25072,0.80755 -6.25225,1.44499 -6.67012,1.41656 -0.41781,-0.0284 0.27522,-1.14628 1.54007,-2.48418 z"
     id="path3952"
     inkscape:connector-curvature="0" />
  <path
     style="fill:#000000;fill-opacity:1;stroke:#000000;stroke-width:0.2263339;stroke-miterlimit:4;stroke-dasharray:none"
     d="m -316.97048,317.12688 c -0.79512,-7.92912 -0.84948,-12.35504 -0.25678,-20.90632 1.90322,-27.45907 12.31784,-51.05719 28.99713,-65.70371 5.12643,-4.50166 9.06371,-7.05554 14.22111,-9.22442 6.58111,-2.76761 10.35575,-3.51763 17.26541,-3.43066 5.16968,0.0651 11.21968,1.26754 14.41387,2.86483 l 1.44881,0.72449 -0.41462,6.09538 c -1.03604,15.23079 -4.25026,29.16379 -8.27983,35.89127 -2.59508,4.33258 -7.60421,7.52838 -18.69032,11.92434 -3.78904,1.50246 -8.34223,3.56139 -10.1182,4.57539 -7.45755,4.25794 -20.24059,17.7231 -33.0459,34.80928 l -5.09731,6.80136 -0.44337,-4.42123 z"
     id="path3964"
     inkscape:connector-curvature="0" />
  <path
     style="fill:#000000;fill-opacity:1;stroke:#000000;stroke-width:0.16446507;stroke-miterlimit:4;stroke-dasharray:none"
     d="m -316.91112,319.06573 c -3.35548,-19.19803 -0.2729,-44.23327 8.56155,-63.38352 8.36862,-18.14045 23.7485,-33.31533 38.7921,-36.62841 6.94376,-1.52924 9.31643,-2.1814 16.69834,-1.6505 4.84963,0.34883 8.24864,1.08756 11.53533,2.50725 l 1.73735,0.75043 -0.27081,5.46566 c -0.77028,15.54404 -4.54804,32.18504 -8.78994,38.71975 -2.67196,4.11623 -5.82596,6.14109 -18.50842,11.88244 -5.34068,2.41772 -10.54823,4.96677 -11.57233,5.6645 -7.92579,5.40002 -18.83512,17.36626 -31.98893,35.08808 l -5.26739,7.09663 -0.90068,-2.56139 z"
     id="path3966"
     inkscape:connector-curvature="0"
     sodipodi:nodetypes="csssscsssssccc" />
  <path
     style="fill:#ffe6d5;fill-opacity:1;stroke:#000000;stroke-width:0.32008448;stroke-miterlimit:4;stroke-dasharray:none"
     d="m -274.62902,381.14403 c -11.8341,-3.91208 -23.27904,-13.70698 -30.13149,-25.78736 -5.01965,-8.84929 -10.97894,-25.4328 -10.68613,-29.7374 0.0881,-1.29526 11.88537,-16.92072 19.71891,-26.11764 2.55911,-3.00452 7.36305,-7.94859 10.67541,-10.98682 5.59436,-5.13139 6.86877,-5.93195 17.92818,-11.26211 13.60947,-6.55917 16.15031,-8.25228 18.91915,-12.60696 3.70035,-5.81971 7.78595,-23.25718 8.74191,-37.3108 l 0.35183,-5.17229 2.62135,1.55307 c 1.44176,0.85419 4.39552,3.06255 6.56391,4.90747 15.49065,13.17982 25.00959,36.024 26.51478,63.63201 0.68532,12.57 -2.3886,34.10703 -6.26903,43.92391 l -0.74897,1.89476 -4.34897,-0.54366 c -4.75986,-0.59502 -10.79217,-0.0112 -12.7655,1.23553 -1.20531,0.76147 -1.16783,1.01159 0.92371,6.1623 2.14544,5.28348 4.88689,9.48052 6.66365,10.20176 0.70947,0.28799 0.39501,1.08477 -1.45754,3.69307 -11.46808,16.1465 -28.28604,25.12278 -44.59588,23.80223 -3.01488,-0.24407 -6.89355,-0.91058 -8.61928,-1.48107 z m 56.10073,-48.88312 c 4.88332,-0.62867 5.34914,-0.81668 5.44302,-2.19684 0.0922,-1.35588 -0.18046,-1.52859 -2.6823,-1.69877 -1.53173,-0.10419 -4.10601,-0.46291 -5.72061,-0.79716 l -2.93563,-0.60774 -0.20141,2.96094 c -0.11078,1.6285 0.0141,2.97582 0.27757,2.99401 0.26345,0.0182 2.88215,-0.2763 5.81936,-0.65444 l 0,0 z m -2.99709,-33.18564 c 6.39285,-3.37428 7.31951,-15.56134 1.50454,-19.78702 -1.5638,-1.13639 -2.78836,-1.46537 -5.39762,-1.45009 -3.67898,0.0215 -5.9526,1.36109 -8.02824,4.73001 -1.66715,2.70591 -1.9671,9.05372 -0.56163,11.88566 2.46022,4.95719 7.97718,6.99968 12.48295,4.62144 z m 1.06275,-24.28277 c 0.75293,0.0492 1.57433,-0.35302 1.82535,-0.89416 0.56918,-1.22704 1.11685,-8.83518 0.6726,-9.34425 -0.58876,-0.67469 -5.69047,0.38891 -9.76535,2.03588 -4.14056,1.6735 -13.09084,9.00388 -13.21458,10.82285 -0.0506,0.74387 1.84876,0.56632 9.52489,-0.89045 5.27345,-1.00079 10.20412,-1.77923 10.95705,-1.72987 z"
     id="path3968"
     inkscape:connector-curvature="0" />
  <path
     style="fill:#800000;fill-opacity:1;stroke:#000000;stroke-width:0.64016896;stroke-miterlimit:4;stroke-dasharray:none"
     d="m -258.52561,647.18044 c -30.67527,-9.5831 -40.9189,-25.70133 -42.28102,-66.52876 -0.74038,-22.19196 0.44881,-119.32609 2.98057,-143.52647 1.18587,-11.33541 5.41141,-20.63567 6.8777,-24.33927 5.42724,-13.70833 13.84935,-19.49025 26.95639,-18.50599 40.01632,3.00496 87.25862,48.09171 109.19786,104.21544 9.83783,25.16663 12.87882,42.326 11.33951,63.9856 -1.62337,22.8425 -13.99862,60.09136 -28.95129,76.66873 -12.52903,13.89039 -27.65753,5.72803 -46.01578,9.4591 -10.16629,2.06615 -31.33098,1.31234 -40.10394,-1.42838 z"
     id="path3973"
     inkscape:connector-curvature="0"
     sodipodi:nodetypes="cssssssssc" />
  <path
     style="fill:none;stroke:#000000;stroke-width:1px;stroke-linecap:butt;stroke-linejoin:miter;stroke-opacity:1"
     d="m -248.98197,396.70542 c 101.05066,85.70332 105.36308,168.33039 65.15652,249.54177"
     id="path4886"
     inkscape:connector-curvature="0"
     sodipodi:nodetypes="cc" />
  <path
     style="fill:#000000;fill-opacity:1;stroke:#000000;stroke-width:0.60880065;stroke-miterlimit:4;stroke-dasharray:none"
     d="m -182.12972,644.5984 c 0.007,-0.10768 1.33509,-3.00689 2.95061,-6.44269 6.13651,-13.05088 13.45272,-34.6078 16.04006,-47.26141 8.48644,-41.50379 2.32615,-80.50704 -18.54077,-117.38872 -12.77205,-22.57422 -30.10033,-43.90418 -52.60587,-64.75433 -4.57708,-4.24041 -8.05485,-7.77914 -7.72837,-7.86384 0.91598,-0.23763 9.85869,4.1722 15.00235,7.39798 35.6184,22.33752 66.57991,66.39364 78.77366,112.08954 6.92227,25.94107 5.72078,49.76362 -3.95071,78.33318 -5.40708,15.97252 -13.68733,32.0667 -20.17725,39.21817 -3.59076,3.95679 -9.87093,8.2484 -9.76371,6.67212 z"
     id="path4888"
     inkscape:connector-curvature="0" />
  <path
     style="fill:#ffe6d5;fill-opacity:1;stroke:#000000;stroke-width:0;stroke-miterlimit:4;stroke-dasharray:none"
     d="m -262.37819,389.79496 -13.38306,-8.26217 9.35331,1.99029 c 4.93007,1.04906 11.10661,-0.36924 13.48057,-0.88466 2.37393,-0.51541 4.60635,-1.6698 4.88127,-1.39436 0.27491,0.27543 0.0808,4.47752 -0.35167,8.16703 l -0.78635,6.70821 z"
     id="path4915"
     inkscape:connector-curvature="0"
     sodipodi:nodetypes="ccsssscc" />
  <path
     style="fill:#aa0000;stroke:#000000;stroke-width:1.51199996;stroke-linecap:butt;stroke-linejoin:miter;stroke-miterlimit:4;stroke-dasharray:none;stroke-opacity:1"
     d="m -280.99966,379.87573 36.82877,20.04889 9.53719,20.10836 -45.07429,-22.842 z"
     id="path4890"
     inkscape:connector-curvature="0"
     sodipodi:nodetypes="ccccc" />
  <path
     style="fill:none;stroke:#000000;stroke-width:1.91574967;stroke-linecap:butt;stroke-linejoin:miter;stroke-miterlimit:4;stroke-dasharray:none;stroke-opacity:1"
     d="m -252.14375,428.60463 c 27.98823,20.64037 20.65243,93.34898 30.11987,101.00949 16.91497,13.68659 71.66301,20.9389 71.44816,24.0975 l -1.35073,19.85715 c 0.037,-0.0901 -70.99862,-0.67416 -95.19474,-18.4448 -31.72402,-23.29945 -35.44293,-91.9098 -24.96028,-122.38955 2.11507,-6.14986 14.38119,-8.22753 19.93772,-4.12979 z"
     id="path4902"
     inkscape:connector-curvature="0"
     sodipodi:nodetypes="ssccsss" />
  <path
     style="fill:#ffccaa;stroke:#000000;stroke-width:0.55189449px;stroke-linecap:butt;stroke-linejoin:miter;stroke-opacity:1"
     d="m -163.10578,543.33684 c 4.21193,-5.46844 8.20161,-13.23606 12.78259,-9.26986 4.06068,3.51573 -7.76684,5.04401 -5.77537,10.00086 2.33719,5.8174 10.01689,-7.15947 12.05397,-1.07876 2.02745,6.052 -10.97045,6.40823 -9.04944,12.54384 1.30384,4.16443 10.16574,-8.1123 11.05482,-3.68253 1.36591,6.80544 -10.96028,7.89539 -10.43562,11.66705 0.44858,3.22477 9.70407,-7.24325 12.19185,0.45563 0.48304,1.49487 -8.68224,2.63818 -11.67402,5.40921 -3.10574,2.87659 7.20304,-2.79801 9.65676,0.76899 -2.86655,5.75746 -18.56587,1.95757 -22.07506,2.0896 -4.38506,0.95121 -10.60424,-3.41484 -11.02611,-9.91462 -0.54966,-8.46892 7.84734,-13.21406 12.29563,-18.98939 z"
     id="path4906"
     inkscape:connector-curvature="0"
     sodipodi:nodetypes="cssssssssccssc" />
  <path
     style="fill:#784421;fill-opacity:1;stroke:#000000;stroke-width:1.85976624;stroke-miterlimit:4;stroke-dasharray:none"
     d="m 420.93502,613.75841 145.53902,19.85473 -29.34251,321.85148 -47.85022,2.37167 C 468.14502,844.53253 396.40578,727.96895 420.93502,613.75841 Z"
     id="rect4908-3"
     inkscape:connector-curvature="0"
     sodipodi:nodetypes="ccccc" />
  <path
     style="fill:#ffffff;fill-opacity:1;stroke:#000000;stroke-width:1.75967813;stroke-miterlimit:4"
     d="m 438.95557,344.53648 38.61409,-4.69882 -3.4284,45.11113 -38.08078,-2.31847 z"
     id="rect3934-0"
     inkscape:connector-curvature="0"
     sodipodi:nodetypes="ccccc" />
  <path
     style="fill:#ffffff;fill-opacity:1;stroke:#000000;stroke-width:0.46924749;stroke-miterlimit:4;stroke-dasharray:none"
     d="m 532.31439,259.61422 c -3.19068,53.22978 -38.8444,90.45344 -78.28121,87.81127 -39.34657,-2.63611 -68.14233,-45.59697 -64.27446,-96.49051 3.86786,-50.89354 38.91555,-90.208 78.28122,-87.81127 39.36566,2.39669 67.32778,45.55261 64.27445,96.49051 z"
     id="path3100-7"
     inkscape:connector-curvature="0"
     sodipodi:nodetypes="sssss" />
  <path
     style="fill:none;stroke:#000000;stroke-width:1.16706383px;stroke-linecap:butt;stroke-linejoin:miter;stroke-opacity:1"
     d="m 486.19335,167.18655 c 0,0 -1.32543,37.96817 -12.80609,50.05026 -8.93905,9.40736 -27.66166,10.95225 -38.54683,18.58313 -19.52138,13.68516 -43.94285,45.16455 -43.94285,45.16455"
     id="path3872-8"
     inkscape:connector-curvature="0"
     sodipodi:nodetypes="cssc" />
  <path
     style="fill:#000000;fill-opacity:1;stroke:#000000;stroke-width:0.26551652;stroke-miterlimit:4;stroke-dasharray:none"
     d="m 390.87956,273.92361 c -0.98594,-8.80013 -1.05335,-13.71224 -0.31841,-23.20288 2.35999,-30.47543 15.27406,-56.66579 35.95629,-72.92123 6.35675,-4.99616 11.23895,-7.83058 17.6341,-10.23772 8.16054,-3.07162 12.84108,-3.90403 21.40902,-3.80751 6.41037,0.0723 13.91234,1.40678 17.87312,3.17954 l 1.79652,0.80408 -0.51413,6.76495 c -1.28468,16.90388 -5.2703,32.3674 -10.26694,39.8339 -3.21789,4.80851 -9.42919,8.35537 -23.1759,13.23422 -4.69839,1.66751 -10.34432,3.95261 -12.54652,5.07799 -9.24732,4.72569 -25.09822,19.66997 -40.97674,38.63307 l -6.32063,7.54848 -0.54978,-4.90689 z"
     id="path3964-1"
     inkscape:connector-curvature="0" />
  <path
     style="fill:#000000;fill-opacity:1;stroke:#000000;stroke-width:0.19293705;stroke-miterlimit:4;stroke-dasharray:none"
     d="m 390.95317,266.07543 c -4.16078,-21.30692 -0.3384,-49.09226 10.61627,-70.34616 10.37704,-20.13317 29.44801,-36.975 48.102,-40.65202 8.61022,-1.69723 11.55232,-2.42103 20.70585,-1.83182 6.01352,0.38716 10.22827,1.20703 14.30375,2.78268 l 2.15431,0.83286 -0.33581,6.06606 c -0.95514,17.25155 -5.63954,35.72056 -10.89948,42.97309 -3.31321,4.5684 -7.22416,6.8157 -22.95034,13.18773 -6.62241,2.68331 -13.07975,5.51237 -14.34963,6.28674 -9.82794,5.99322 -23.35545,19.27394 -39.6661,38.94249 l -6.53153,7.87619 -1.11684,-2.84276 z"
     id="path3966-0"
     inkscape:connector-curvature="0"
     sodipodi:nodetypes="csssscsssssccc" />
  <path
     style="fill:#ffe6d5;fill-opacity:1;stroke:#000000;stroke-width:0.3754971;stroke-miterlimit:4;stroke-dasharray:none"
     d="m 443.38275,344.973 c -14.67423,-4.34182 -28.86589,-15.21267 -37.36289,-28.62008 -6.22434,-9.82138 -13.61383,-28.22658 -13.25075,-33.00405 0.10925,-1.43754 14.7378,-30.77944 24.45135,-40.98665 3.17328,-3.33455 9.13014,-8.82173 13.23745,-12.19371 6.93698,-5.69507 8.51724,-6.58357 22.23085,-12.49924 16.87567,-7.27969 20.0263,-9.1588 23.45964,-13.99183 4.58842,-6.45901 9.02776,-25.87232 10.83992,-41.40938 l 0.43627,-5.74045 3.25046,1.72366 c 1.78778,0.94803 5.45042,3.39897 8.13921,5.44656 19.20832,14.62762 34.38795,44.10346 37.37976,96.12669 -4.25491,43.17497 -34.7154,89.21394 -82.12341,86.79225 -3.73844,-0.27088 -8.54797,-1.01061 -10.68786,-1.64377 z"
     id="path3968-5"
     inkscape:connector-curvature="0"
     sodipodi:nodetypes="sssssssscssccs" />
  <path
     style="fill:#c87137;fill-opacity:1;stroke:#000000;stroke-width:0.75099421;stroke-miterlimit:4;stroke-dasharray:none"
     d="m 463.35089,640.23338 c -38.03717,-10.6358 -50.73922,-28.52461 -52.42824,-73.83692 -0.91807,-24.62973 0.55652,-132.43399 3.69589,-159.29277 1.47047,-12.5806 6.71012,-22.90249 8.52831,-27.01293 6.72975,-15.21418 17.17312,-21.63125 33.42578,-20.53886 49.62003,3.33504 108.20023,53.37456 135.40478,115.66345 12.19884,27.93117 15.96965,46.97549 14.06092,71.01438 -2.01298,25.35174 -17.35821,66.69237 -35.89945,85.09076 -15.53593,15.41623 -34.29519,6.35725 -57.05932,10.49817 -12.60615,2.29312 -38.85025,1.4565 -49.72867,-1.58528 z"
     id="path3973-8"
     inkscape:connector-curvature="0"
     sodipodi:nodetypes="cssssssssc" />
  <path
     style="fill:none;stroke:#000000;stroke-width:1.17311871px;stroke-linecap:butt;stroke-linejoin:miter;stroke-opacity:1"
     d="m 475.18495,362.24381 c 125.30228,95.11778 130.64966,186.82139 80.79374,276.9538"
     id="path4886-8"
     inkscape:connector-curvature="0"
     sodipodi:nodetypes="cc" />
  <path
     style="fill:#000000;fill-opacity:1;stroke:#000000;stroke-width:0.71419543;stroke-miterlimit:4;stroke-dasharray:none"
     d="m 558.08139,637.36769 c 0.009,-0.11951 1.65551,-3.33719 3.65874,-7.15041 7.60924,-14.48451 16.6813,-38.40945 19.88958,-52.45304 10.52315,-46.06296 2.88443,-89.35071 -22.99045,-130.28382 -15.83728,-25.05399 -37.32425,-48.72703 -65.231,-71.86755 -5.67556,-4.70622 -9.98797,-8.63368 -9.58314,-8.72769 1.13581,-0.26373 12.22472,4.63051 18.60284,8.21065 44.16662,24.79128 82.55873,73.68694 97.67891,124.40252 8.58358,28.79068 7.09374,55.23012 -4.89886,86.93803 -6.70475,17.7271 -16.97222,35.58921 -25.01968,43.52627 -4.45252,4.39144 -12.23989,9.15448 -12.10694,7.40504 z"
     id="path4888-2"
     inkscape:connector-curvature="0" />
  <path
     style="fill:#ffe6d5;fill-opacity:1;stroke:#000000;stroke-width:0;stroke-miterlimit:4;stroke-dasharray:none"
     d="m 458.57371,354.57423 -16.59492,-9.16976 11.59805,2.20891 c 6.11326,1.16432 13.77214,-0.40979 16.71584,-0.98183 2.94365,-0.57203 5.71185,-1.85322 6.05274,-1.54753 0.34089,0.30569 0.1002,4.96938 -0.43606,9.06418 l -0.97507,7.4451 z"
     id="path4915-7"
     inkscape:connector-curvature="0"
     sodipodi:nodetypes="ccsssscc" />
  <path
     style="fill:#c87137;stroke:#000000;stroke-width:1.77375543;stroke-linecap:butt;stroke-linejoin:miter;stroke-miterlimit:4;stroke-dasharray:none;stroke-opacity:1"
     d="m 435.48318,343.56539 45.66748,22.25124 11.82607,22.31725 -55.89188,-25.35118 z"
     id="path4890-6"
     inkscape:connector-curvature="0"
     sodipodi:nodetypes="ccccc" />
  <path
     style="fill:#c87137;stroke:#000000;stroke-width:2.24740171;stroke-linecap:butt;stroke-linejoin:miter;stroke-miterlimit:4;stroke-dasharray:none;stroke-opacity:1"
     d="m 471.26436,397.64712 c 34.70526,22.90772 25.6089,103.60332 37.34848,112.10533 20.97447,15.19007 88.86175,23.23904 88.59534,26.74461 l -1.67491,22.03843 c 0.0459,-0.10001 -88.0379,-0.7482 -118.04096,-20.47094 -39.33762,-25.85888 -43.94905,-102.00604 -30.95062,-135.83397 2.62268,-6.82542 17.8326,-9.13133 24.72267,-4.58346 z"
     id="path4902-3"
     inkscape:connector-curvature="0"
     sodipodi:nodetypes="ssccsss" />
  <path
     style="fill:#ffccaa;stroke:#000000;stroke-width:0.64743769px;stroke-linecap:butt;stroke-linejoin:miter;stroke-opacity:1"
     d="m 581.67097,524.98261 c 5.22277,-6.06914 10.16996,-14.69004 15.85035,-10.28815 5.03522,3.90194 -9.63085,5.59809 -7.16144,11.09945 2.89811,6.45644 12.4209,-7.94593 14.94687,-1.19726 2.51402,6.71681 -13.6033,7.11216 -11.22126,13.92177 1.61675,4.62189 12.60546,-9.00343 13.70791,-4.08705 1.69373,7.55301 -13.59068,8.76269 -12.94011,12.94867 0.55624,3.57901 12.033,-8.03891 15.11783,0.50569 0.59897,1.65907 -10.76593,2.92797 -14.47571,6.0034 -3.85112,3.19257 8.93172,-3.10538 11.97432,0.85346 -3.5545,6.38991 -23.02158,2.17261 -27.37295,2.31914 -5.43745,1.0557 -13.14922,-3.78996 -13.67232,-11.00373 -0.68158,-9.39923 9.73065,-14.66562 15.24651,-21.07536 z"
     id="path4906-0"
     inkscape:connector-curvature="0"
     sodipodi:nodetypes="cssssssssccssc" />
  <path
     inkscape:connector-curvature="0"
     id="path4245"
     d="m 500.83697,219.94566 c 2.64968,-8.5513 6.77104,-14.82536 12.62668,-19.22176 l 2.58578,-1.94143 2.12832,4.23027 2.12834,4.23031 -4.26575,2.95755 c -2.34617,1.62664 -6.60807,5.07485 -9.47092,7.66262 -2.86281,2.5878 -5.56228,4.88476 -5.99885,5.10441 -0.43653,0.21963 -0.31663,-1.14025 0.2664,-3.02197 z"
     style="fill:#000000;fill-opacity:1;stroke:#000000;stroke-width:0.24174342;stroke-miterlimit:4;stroke-dasharray:none" />
  <g
     transform="matrix(0.98966946,-0.1433679,0.1433679,0.98966946,65.846732,58.580486)"
     id="g4249">
    <path
       style="fill:#ffffff;stroke:#000000;stroke-width:0.92125827px;stroke-linecap:butt;stroke-linejoin:miter;stroke-opacity:1"
       d="m 404.23379,307.1464 14.23205,-2 c 2.37994,-0.24202 -7.60897,11.14542 -7.60897,11.14542 0,0 -11.96131,-8.93974 -6.62308,-9.14542 z"
       id="path4251"
       inkscape:connector-curvature="0"
       sodipodi:nodetypes="cccc" />
  </g>
  <g
     transform="matrix(0.58893875,0,0,0.78991602,366.53775,32.321957)"
     id="g4255">
    <path
       style="fill:#000000;fill-opacity:1;stroke:#000000;stroke-width:0.13024242;stroke-miterlimit:4"
       d="m 244.85063,329.81205 25.26836,-0.41958 0,5.03488 -25.78405,5.03488 z"
       id="path4257"
       inkscape:connector-curvature="0"
       sodipodi:nodetypes="ccccc"
       inkscape:transform-center-x="-1.1266789"
       inkscape:transform-center-y="1.1199801" />
  </g>
  <g
     id="g4261"
     transform="matrix(1.7876149,0,0,1.8556599,-164.56299,-114.65376)">
    <ellipse
       style="fill:#ffe6d5;fill-opacity:1;stroke:#000000;stroke-width:0.5750289;stroke-miterlimit:4;stroke-dasharray:none"
       id="ellipse4263"
       cx="381.45212"
       cy="195.32616"
       rx="4.4348373"
       ry="13.297346" />
    <path
       style="fill:none;stroke:#000000;stroke-width:0.98120147px;stroke-linecap:butt;stroke-linejoin:miter;stroke-opacity:1"
       d="m 386.07293,196.60724 c -2.92721,-0.56314 -4.87292,0.33264 -8.43091,0.41999"
       id="path4265"
       inkscape:connector-curvature="0"
       sodipodi:nodetypes="cc" />
    <path
       style="fill:#1a1a1a;fill-opacity:1;stroke:#000000;stroke-width:1.09184515;stroke-miterlimit:4"
       d="m 383.7485,199.50369 c 0,0.94703 -0.76772,1.71475 -1.71474,1.71475 -0.94704,0 -1.71476,-0.76772 -1.71476,-1.71475 0,-0.94703 0.76772,-1.71474 1.71476,-1.71474 0.94702,0 1.71474,0.76771 1.71474,1.71474 z"
       id="path4267"
       inkscape:connector-curvature="0"
       sodipodi:nodetypes="sssss" />
  </g>
</svg>
