<?xml version="1.0" encoding="UTF-8" standalone="no"?>
<!-- Created with Inkscape (http://www.inkscape.org/) -->

<svg
   xmlns:dc="http://purl.org/dc/elements/1.1/"
   xmlns:cc="http://creativecommons.org/ns#"
   xmlns:rdf="http://www.w3.org/1999/02/22-rdf-syntax-ns#"
   xmlns:svg="http://www.w3.org/2000/svg"
   xmlns="http://www.w3.org/2000/svg"
   xmlns:sodipodi="http://sodipodi.sourceforge.net/DTD/sodipodi-0.dtd"
   xmlns:inkscape="http://www.inkscape.org/namespaces/inkscape"
   width="744.09448819"
   height="1052.3622047"
   id="svg2"
   version="1.1"
   inkscape:version="0.91 r13725"
   inkscape:export-filename="mofedz.png"
   inkscape:export-xdpi="90"
   inkscape:export-ydpi="90"
   sodipodi:docname="mofedbymot.svg">
  <defs
     id="defs4" />
  <sodipodi:namedview
     id="base"
     pagecolor="#ffffff"
     bordercolor="#666666"
     borderopacity="1.0"
     inkscape:pageopacity="0.0"
     inkscape:pageshadow="2"
     inkscape:zoom="0.2221444"
     inkscape:cx="585.99913"
     inkscape:cy="400.2697"
     inkscape:document-units="px"
     inkscape:current-layer="layer1"
     showgrid="false"
     inkscape:window-width="1024"
     inkscape:window-height="706"
     inkscape:window-x="-8"
     inkscape:window-y="-8"
     inkscape:window-maximized="1" />
  <metadata
     id="metadata7">
    <rdf:RDF>
      <cc:Work
         rdf:about="">
        <dc:format>image/svg+xml</dc:format>
        <dc:type
           rdf:resource="http://purl.org/dc/dcmitype/StillImage" />
        <dc:title></dc:title>
      </cc:Work>
    </rdf:RDF>
  </metadata>
  <g
     inkscape:label="Layer 1"
     inkscape:groupmode="layer"
     id="layer1">
    <path
       style="fill:#784421;stroke:#000000;stroke-width:1px;stroke-linecap:butt;stroke-linejoin:miter;stroke-opacity:1"
       d="m 384.95187,599.36798 c -55.17417,100.36865 17.79415,244.46818 19.65969,341.61409 l 35.20084,3.03089 27.43393,-204.05691 -3.38873,207.09685 35.20676,2.94053 c 22.4002,-95.10922 110.40512,-258.53088 72.65291,-331.54026"
       id="path4101"
       inkscape:connector-curvature="0"
       sodipodi:nodetypes="ccccccc"
       inkscape:export-filename="C:\Users\Home\Desktop\mofedmat.png"
       inkscape:export-xdpi="34.128929"
       inkscape:export-ydpi="34.128929" />
    <rect
       style="fill:#ffe6d5;fill-opacity:1;stroke:#000000;stroke-width:0.40000001;stroke-miterlimit:4;stroke-dasharray:none"
       id="rect4014"
       width="39.39595"
       height="38.385796"
       x="504.95059"
       y="310.28156"
       inkscape:export-filename="C:\Users\Home\Desktop\mofedmat.png"
       inkscape:export-xdpi="34.128929"
       inkscape:export-ydpi="34.128929"
       transform="matrix(0.99779099,0.06643153,-0.06643153,0.99779099,0,0)" />
    <ellipse
       style="opacity:1;fill:#ffe680;fill-opacity:1;stroke:#000000;stroke-width:1.02377343"
       id="path2985"
       cx="535.67139"
       cy="189.90031"
       rx="78.8955"
       ry="98.904091"
       inkscape:export-filename="C:\Users\Home\Desktop\mofedmat.png"
       inkscape:export-xdpi="34.128929"
       inkscape:export-ydpi="34.128929"
       transform="matrix(0.99226992,0.12409836,-0.12409836,0.99226992,0,0)" />
    <path
       style="fill:#000000;fill-opacity:1;stroke:#000000;stroke-width:0.43760553"
       d="m 436.35524,216.59547 c 4.60588,-20.24861 16.51473,-37.27596 35.27163,-48.13743 17.1098,-9.90772 37.19797,-13.44845 56.8842,-10.02637 2.94594,0.5121 6.67345,0.94326 6.76387,1.03583 0.22976,0.23514 -5.80589,12.30911 -9.29959,17.50641 -4.01533,5.97331 -13.58617,16.52325 -17.23222,19.90345 -5.46318,5.0648 -10.94643,8.10264 -22.1348,11.98917 -9.44141,3.27967 -29.41706,7.80526 -41.18081,9.99942 -1.67403,0.31223 -4.61172,0.85933 -6.52818,1.21578 l -3.48451,0.64808 z"
       id="path2997"
       inkscape:connector-curvature="0"
       sodipodi:nodetypes="ssscssssscs"
       inkscape:export-filename="C:\Users\Home\Desktop\mofedmat.png"
       inkscape:export-xdpi="34.128929"
       inkscape:export-ydpi="34.128929" />
    <path
       style="fill:#000000;fill-opacity:1;stroke:#000000;stroke-width:0.49723428"
       d="m 586.04326,248.36507 c -1.7423,-7.24307 -7.53875,-26.86884 -10.77457,-34.10502 -8.49114,-18.98854 -23.05325,-37.09998 -36.1334,-48.89452 -4.65578,-4.19817 -3.09157,-3.70494 1.93665,-1.2692 30.069,14.56588 48.28549,51.30948 46.36428,86.96381 -0.0572,1.0535 -0.021,1.90629 -0.11761,1.89417 -0.0971,-0.0118 -0.6708,-2.07728 -1.27503,-4.58922 z"
       id="path2999"
       inkscape:connector-curvature="0"
       sodipodi:nodetypes="cssssscc"
       inkscape:export-filename="C:\Users\Home\Desktop\mofedmat.png"
       inkscape:export-xdpi="34.128929"
       inkscape:export-ydpi="34.128929" />
    <path
       style="fill:#000000;stroke:#000000;stroke-width:1px;stroke-linecap:butt;stroke-linejoin:miter;stroke-opacity:1"
       d="m 534.45761,160.18156 c -0.15335,6.61391 11.93687,22.31685 19.91678,34.04501 -11.57665,-12.41773 -22.05862,-25.88093 -19.91678,-34.04501 z"
       id="path3001"
       inkscape:connector-curvature="0"
       sodipodi:nodetypes="ccc"
       inkscape:export-filename="C:\Users\Home\Desktop\mofedmat.png"
       inkscape:export-xdpi="34.128929"
       inkscape:export-ydpi="34.128929" />
    <path
       style="fill:#000000;fill-opacity:1;stroke:#000000;stroke-width:0.24174342;stroke-miterlimit:4;stroke-dasharray:none"
       d="m 464.57621,224.70138 c 6.96248,-5.62756 13.87935,-8.5441 21.19124,-8.93534 l 3.22888,-0.17272 -0.58768,4.69891 -0.58767,4.69892 -5.1901,0.0813 c -2.85456,0.0447 -8.31466,0.53581 -12.13356,1.09118 -3.81889,0.55542 -7.34015,0.96022 -7.82509,0.89957 -0.48488,-0.0606 0.37192,-1.12345 1.90399,-2.36181 z"
       id="path3952"
       inkscape:connector-curvature="0"
       inkscape:export-filename="C:\Users\Home\Desktop\mofedmat.png"
       inkscape:export-xdpi="34.128929"
       inkscape:export-ydpi="34.128929" />
    <g
       id="g3992"
       transform="matrix(0.85068215,0.1848398,-0.17634848,0.8738494,192.71741,-11.82498)"
       inkscape:export-filename="C:\Users\Home\Desktop\mofedmat.png"
       inkscape:export-xdpi="34.128929"
       inkscape:export-ydpi="34.128929">
      <path
         sodipodi:nodetypes="sssss"
         inkscape:connector-curvature="0"
         id="path3210"
         d="m 401.00995,280.69938 c 1.52262,-9.18214 11.78788,-20.09402 19.38816,-20.09402 17.43122,0 19.04946,10.61154 20.84389,20.09402 2.95691,15.62545 -1.33971,43.31056 -19.87358,43.37192 -17.79563,0.0589 -22.97114,-27.6163 -20.35847,-43.37192 z"
         style="fill:#ffffff;stroke:#000000;stroke-width:0.92125827px;stroke-linecap:butt;stroke-linejoin:miter;stroke-opacity:1" />
    </g>
    <g
       id="g4010"
       transform="matrix(0.588919,-0.00482438,0.00647073,0.78988952,235.59087,71.465389)"
       inkscape:export-filename="C:\Users\Home\Desktop\mofedmat.png"
       inkscape:export-xdpi="34.128929"
       inkscape:export-ydpi="34.128929">
      <path
         sodipodi:nodetypes="ccccc"
         inkscape:connector-curvature="0"
         id="rect4003"
         d="m 425.89062,269.60671 25.05939,2.45401 -1.0283,4.97617 -26.51167,2.04892 z"
         style="fill:#000000;fill-opacity:1;stroke:#000000;stroke-width:0.13024242;stroke-miterlimit:4" />
      <path
         sodipodi:nodetypes="ccccc"
         inkscape:connector-curvature="0"
         id="path4008"
         d="m 481.41671,275.98493 -24.888,-3.28339 -1.0283,4.97617 24.45508,7.90341 z"
         style="fill:#000000;fill-opacity:1;stroke:#000000;stroke-width:0.13024242;stroke-miterlimit:4" />
    </g>
    <path
       style="fill:#c87137;fill-opacity:1;stroke:#000000;stroke-width:0.75425529;stroke-miterlimit:4"
       d="M 611.9728,545.9391 C 593.14637,641.5358 547.10337,682.04653 469.59416,670.67133 398.05978,660.173 354.51544,614.62531 373.29386,505.40833 390.2844,406.58973 433.44777,344.03671 519.27264,358.01841 613.88993,373.43249 631.12392,448.6937 611.9728,545.9391 Z"
       id="path4016"
       inkscape:connector-curvature="0"
       sodipodi:nodetypes="sssss"
       inkscape:export-filename="C:\Users\Home\Desktop\mofedmat.png"
       inkscape:export-xdpi="34.128929"
       inkscape:export-ydpi="34.128929" />
    <path
       style="fill:none;stroke:#000000;stroke-width:0.99794739px;stroke-linecap:butt;stroke-linejoin:miter;stroke-opacity:1"
       d="M 524.03102,354.21736 C 505.28673,454.65941 502.90787,558.89412 507.84516,664.82432"
       id="path4019"
       inkscape:connector-curvature="0"
       sodipodi:nodetypes="cc"
       inkscape:export-filename="C:\Users\Home\Desktop\mofedmat.png"
       inkscape:export-xdpi="34.128929"
       inkscape:export-ydpi="34.128929" />
    <path
       inkscape:connector-curvature="0"
       id="path4021"
       d="m 480.39102,355.81166 c 2.55532,106.79193 -10.85109,209.07872 -29.54607,309.87281"
       style="fill:none;stroke:#000000;stroke-width:1px;stroke-linecap:butt;stroke-linejoin:miter;stroke-opacity:1"
       sodipodi:nodetypes="cc"
       inkscape:export-filename="C:\Users\Home\Desktop\mofedmat.png"
       inkscape:export-xdpi="34.128929"
       inkscape:export-ydpi="34.128929" />
    <path
       style="fill:#000000;fill-opacity:1;stroke:#000000;stroke-width:0.72730988;stroke-miterlimit:4;stroke-dasharray:none"
       d="m 478.08911,671.72736 c -4.85361,-0.57804 -12.20843,-1.95283 -16.34407,-3.05506 l -7.51931,-2.00406 0.61605,-3.07926 c 8.81826,-44.07734 19.28542,-119.3625 24.35868,-175.20028 2.69335,-29.64372 5.37525,-99.91268 4.5717,-119.78401 -0.46287,-11.44666 -0.41337,-11.81676 1.65958,-12.40924 2.84419,-0.81287 24.08045,-0.16605 27.65668,0.84238 l 2.82249,0.7959 -1.46076,21.30129 c -1.96623,28.67202 -3.18203,81.2403 -2.46697,106.6658 1.44456,51.36343 6.06603,109.24642 13.03113,163.21171 1.12549,8.72018 2.0254,16.57813 1.99981,17.4621 -0.12427,4.292 -30.03131,7.50288 -48.925,5.25271 l 0,0 z"
       id="path4023"
       inkscape:connector-curvature="0"
       inkscape:export-filename="C:\Users\Home\Desktop\mofedmat.png"
       inkscape:export-xdpi="34.128929"
       inkscape:export-ydpi="34.128929" />
    <circle
       style="fill:#000000;fill-opacity:1;stroke:#000000;stroke-width:0.72000003;stroke-miterlimit:4;stroke-dasharray:none"
       id="path4025"
       cx="497.68875"
       cy="426.39777"
       r="2.2728431"
       inkscape:export-filename="C:\Users\Home\Desktop\mofedmat.png"
       inkscape:export-xdpi="34.128929"
       inkscape:export-ydpi="34.128929"
       transform="matrix(0.99737808,-0.07236687,0.07236687,0.99737808,0,0)" />
    <circle
       id="path4027"
       style="fill:#000000;fill-opacity:1;stroke:#000000;stroke-width:0.72000003;stroke-miterlimit:4;stroke-dasharray:none"
       cx="490.43143"
       cy="449.17032"
       r="2.2728431"
       inkscape:export-filename="C:\Users\Home\Desktop\mofedmat.png"
       inkscape:export-xdpi="34.128929"
       inkscape:export-ydpi="34.128929"
       transform="matrix(0.99737808,-0.07236687,0.07236687,0.99737808,0,0)" />
    <circle
       style="fill:#000000;fill-opacity:1;stroke:#000000;stroke-width:0.72000003;stroke-miterlimit:4;stroke-dasharray:none"
       id="path4029"
       cx="483.67905"
       cy="466.70575"
       r="2.2728431"
       inkscape:export-filename="C:\Users\Home\Desktop\mofedmat.png"
       inkscape:export-xdpi="34.128929"
       inkscape:export-ydpi="34.128929"
       transform="matrix(0.99737808,-0.07236687,0.07236687,0.99737808,0,0)" />
    <circle
       id="path4031"
       style="fill:#000000;fill-opacity:1;stroke:#000000;stroke-width:0.72000003;stroke-miterlimit:4;stroke-dasharray:none"
       cx="457.67969"
       cy="505.0033"
       r="2.2728431"
       inkscape:export-filename="C:\Users\Home\Desktop\mofedmat.png"
       inkscape:export-xdpi="34.128929"
       inkscape:export-ydpi="34.128929"
       transform="matrix(0.99737808,-0.07236687,0.07236687,0.99737808,0,0)" />
    <circle
       style="fill:#000000;fill-opacity:1;stroke:#000000;stroke-width:0.72000003;stroke-miterlimit:4;stroke-dasharray:none"
       id="path4033"
       cx="479.95706"
       cy="536.54852"
       r="2.2728431"
       inkscape:export-filename="C:\Users\Home\Desktop\mofedmat.png"
       inkscape:export-xdpi="34.128929"
       inkscape:export-ydpi="34.128929"
       transform="matrix(0.99737808,-0.07236687,0.07236687,0.99737808,0,0)" />
    <circle
       id="path4035"
       style="fill:#000000;fill-opacity:1;stroke:#000000;stroke-width:0.72000003;stroke-miterlimit:4;stroke-dasharray:none"
       cx="479.72659"
       cy="568.87335"
       r="2.2728431"
       inkscape:export-filename="C:\Users\Home\Desktop\mofedmat.png"
       inkscape:export-xdpi="34.128929"
       inkscape:export-ydpi="34.128929"
       transform="matrix(0.99737808,-0.07236687,0.07236687,0.99737808,0,0)" />
    <circle
       style="fill:#000000;fill-opacity:1;stroke:#000000;stroke-width:0.72000003;stroke-miterlimit:4;stroke-dasharray:none"
       id="path4037"
       cx="477.0148"
       cy="607.72015"
       r="2.2728431"
       inkscape:export-filename="C:\Users\Home\Desktop\mofedmat.png"
       inkscape:export-xdpi="34.128929"
       inkscape:export-ydpi="34.128929"
       transform="matrix(0.99737808,-0.07236687,0.07236687,0.99737808,0,0)" />
    <circle
       id="path4039"
       style="fill:#000000;fill-opacity:1;stroke:#000000;stroke-width:0.72000003;stroke-miterlimit:4;stroke-dasharray:none"
       cx="474.8082"
       cy="640.00092"
       r="2.2728431"
       inkscape:export-filename="C:\Users\Home\Desktop\mofedmat.png"
       inkscape:export-xdpi="34.128929"
       inkscape:export-ydpi="34.128929"
       transform="matrix(0.99737808,-0.07236687,0.07236687,0.99737808,0,0)" />
    <circle
       style="fill:#000000;fill-opacity:1;stroke:#000000;stroke-width:0.72000003;stroke-miterlimit:4;stroke-dasharray:none"
       id="path4041"
       cx="468.83545"
       cy="681.28485"
       r="2.2728431"
       inkscape:export-filename="C:\Users\Home\Desktop\mofedmat.png"
       inkscape:export-xdpi="34.128929"
       inkscape:export-ydpi="34.128929"
       transform="matrix(0.99737808,-0.07236687,0.07236687,0.99737808,0,0)" />
    <path
       style="fill:#c87137;fill-opacity:1;stroke:#000000;stroke-width:1px;stroke-linecap:butt;stroke-linejoin:miter;stroke-opacity:1"
       d="m 483.16459,374.90666 -32.08498,18.95601 17.27391,-40.76851 13.16154,-0.49297 z"
       id="path4063"
       inkscape:connector-curvature="0"
       sodipodi:nodetypes="ccccc"
       inkscape:export-filename="C:\Users\Home\Desktop\mofedmat.png"
       inkscape:export-xdpi="34.128929"
       inkscape:export-ydpi="34.128929" />
    <path
       sodipodi:nodetypes="ccccc"
       inkscape:connector-curvature="0"
       id="path4065"
       d="m 512.12338,375.3256 27.41236,25.24558 -8.36795,-43.47915 -12.76756,-3.23399 z"
       style="fill:#c87137;fill-opacity:1;stroke:#000000;stroke-width:1px;stroke-linecap:butt;stroke-linejoin:miter;stroke-opacity:1"
       inkscape:export-filename="C:\Users\Home\Desktop\mofedmat.png"
       inkscape:export-xdpi="34.128929"
       inkscape:export-ydpi="34.128929" />
    <path
       style="fill:#c87137;fill-opacity:1;stroke:#000000;stroke-width:1.19071901px;stroke-linecap:butt;stroke-linejoin:miter;stroke-opacity:1"
       d="m 424.55792,386.85963 c -0.52071,-8.00837 -115.88839,69.56393 -110.86455,140.18572 0.53803,7.57142 8.79193,13.07644 11.82016,17.6678 27.85353,42.23073 136.42317,-44.52068 136.42317,-44.52068 l -14.43746,-25.53368 c 0,0 -77.15431,51.25898 -83.6371,26.99844 -3.11725,-11.66571 18.38017,-26.42732 18.38017,-26.42732 5.12572,-36.36678 24.16983,-64.24817 42.31561,-88.37028 z"
       id="path4071"
       inkscape:connector-curvature="0"
       sodipodi:nodetypes="cssccscc"
       inkscape:export-filename="C:\Users\Home\Desktop\mofedmat.png"
       inkscape:export-xdpi="34.128929"
       inkscape:export-ydpi="34.128929" />
    <path
       sodipodi:nodetypes="cssccscc"
       inkscape:connector-curvature="0"
       id="path4073"
       d="m 583.28821,386.06499 c 3.88571,-6.65975 96.70405,92.01246 82.49826,152.18194 -1.29244,5.47422 -0.63572,13.69634 -3.14616,17.07146 -26.18975,35.21038 -139.17879,-61.79115 -135.94273,-81.49848 l 24.6293,-13.53581 c 0,0 66.47271,72.83075 75.17125,51.5351 4.18268,-10.24004 -18.86801,-57.33618 -18.86801,-57.33618 -1.12573,-34.04657 -9.52349,-43.7247 -24.34191,-68.41803 z"
       style="fill:#c87137;fill-opacity:1;stroke:#000000;stroke-width:1.12267184px;stroke-linecap:butt;stroke-linejoin:miter;stroke-opacity:1"
       inkscape:export-filename="C:\Users\Home\Desktop\mofedmat.png"
       inkscape:export-xdpi="34.128929"
       inkscape:export-ydpi="34.128929" />
    <path
       style="fill:#ffccaa;stroke:#000000;stroke-width:0.83736151px;stroke-linecap:butt;stroke-linejoin:miter;stroke-opacity:1"
       d="m 443.60943,454.42109 c 0.74273,-10.94556 9.50775,-31.0088 18.09997,-28.73006 8.20976,2.17733 -10.1937,23.65575 -9.08064,24.12171 7.68209,3.21613 15.96501,-23.66028 23.70915,-16.8104 7.38873,6.5355 -20.27824,29.59014 -11.01049,30.2667 2.63498,0.1923 15.70626,-25.35021 20.44362,-19.61232 6.94588,8.41281 -18.10819,26.79015 -13.37454,30.1651 1.64945,1.176 19.07135,-24.63857 25.53873,-15.04987 3.87061,5.73862 -18.86121,16.51645 -20.27042,22.75062 -1.4629,6.47165 16.50449,-15.29906 22.28492,-12.33079 1.10664,10.2665 -30.85698,23.24925 -34.97939,26.2464 -4.52922,4.83258 -22.3395,21.12429 -32.30799,7.30263 -14.34181,-19.88553 10.16266,-36.75986 10.94709,-48.31969 z"
       id="path4906"
       inkscape:connector-curvature="0"
       sodipodi:nodetypes="cssssssssccssc"
       inkscape:export-filename="C:\Users\Home\Desktop\mofedmat.png"
       inkscape:export-xdpi="34.128929"
       inkscape:export-ydpi="34.128929" />
    <path
       sodipodi:nodetypes="cssssssssccssc"
       inkscape:connector-curvature="0"
       id="path4097"
       d="m 556.44185,450.12138 c 0.11369,-9.68602 -6.59933,-27.50347 -14.8004,-25.56138 -7.83603,1.85566 7.78348,21.00662 6.70847,21.40924 -7.41941,2.7788 -13.17874,-21.05973 -20.92446,-15.06796 -7.3902,5.71675 16.77336,26.34048 8.05903,26.85996 -2.47763,0.14768 -12.81207,-22.55206 -17.66465,-17.51808 -7.11483,7.38075 14.95133,23.84589 10.27667,26.79023 -1.62889,1.02595 -16.01065,-21.95134 -22.76495,-13.52663 -4.04228,5.04199 16.41385,14.76677 17.27103,20.29193 0.88986,5.73565 -14.30041,-13.67011 -19.92367,-11.09431 -1.7926,9.06971 27.13154,20.82297 30.76427,23.50856 3.87726,4.31252 19.32548,18.87133 29.6655,6.73298 14.87627,-17.46367 -6.78698,-32.59495 -6.66686,-42.8245 z"
       style="fill:#ffccaa;stroke:#000000;stroke-width:0.76167762px;stroke-linecap:butt;stroke-linejoin:miter;stroke-opacity:1"
       inkscape:export-filename="C:\Users\Home\Desktop\mofedmat.png"
       inkscape:export-xdpi="34.128929"
       inkscape:export-ydpi="34.128929" />
    <g
       transform="matrix(1.8885176,-0.04929536,0.0633603,2.0646309,-273.935,-95.4681)"
       id="g4183"
       inkscape:export-filename="C:\Users\Home\Desktop\mofedmat.png"
       inkscape:export-xdpi="34.128929"
       inkscape:export-ydpi="34.128929"
       style="opacity:0.69800002;fill:#ff8080">
      <ellipse
         ry="13.16379"
         rx="10.289613"
         cy="120.96433"
         cx="413.75482"
         id="ellipse4185"
         style="fill:#ff8080;fill-opacity:1;stroke:#000000;stroke-width:0.87148178;stroke-miterlimit:4;stroke-dasharray:none"
         transform="matrix(0.98916461,0.14681064,-0.15792589,0.98745097,0,0)" />
      <path
         sodipodi:nodetypes="ccc"
         inkscape:connector-curvature="0"
         id="path4187"
         d="m 399.37772,173.17189 c -3.23834,-0.95777 -6.57883,0.0662 -6.57883,0.0662 0,0 -7.28482,-1.68229 -10.75676,-1.43695"
         style="fill:#ff8080;stroke:#000000;stroke-width:1.05113447px;stroke-linecap:butt;stroke-linejoin:miter;stroke-opacity:1" />
      <path
         sodipodi:nodetypes="sssss"
         inkscape:connector-curvature="0"
         id="path4189"
         d="m 393.99162,178.02717 c 0.002,1.97847 -1.5701,3.58105 -3.51076,3.57945 -1.94071,-0.001 -3.51535,-1.60679 -3.51707,-3.58526 -0.002,-1.97849 1.57009,-3.58104 3.5108,-3.57943 1.94066,10e-4 3.51529,1.60675 3.51703,3.58524 z"
         style="fill:#ff8080;fill-opacity:1;stroke:#000000;stroke-width:2.25912452;stroke-miterlimit:4" />
    </g>
    <g
       id="g4191"
       transform="matrix(1.6808902,-0.04127099,0.06083721,1.8987547,-131.9782,-74.908644)"
       inkscape:export-filename="C:\Users\Home\Desktop\mofedmat.png"
       inkscape:export-xdpi="34.128929"
       inkscape:export-ydpi="34.128929"
       style="opacity:0.68699999;fill:#ff8080;fill-opacity:1">
      <ellipse
         style="fill:#ff8080;fill-opacity:1;stroke:#000000;stroke-width:0.87148178;stroke-miterlimit:4;stroke-dasharray:none"
         id="ellipse4193"
         cx="414.66937"
         cy="125.62084"
         rx="10.289613"
         ry="13.16379"
         transform="matrix(0.98916461,0.14681064,-0.15792589,0.98745097,0,0)" />
      <path
         style="fill:#ff8080;fill-opacity:1;stroke:#000000;stroke-width:0.89293563px;stroke-linecap:butt;stroke-linejoin:miter;stroke-opacity:1"
         d="m 400.1596,180.31307 c -2.30941,-1.01769 -6.13945,-1.09416 -9.2085,-1.64409 -2.89315,-0.51841 -6.22017,-1.76479 -8.67817,-1.5606"
         id="path4195"
         inkscape:connector-curvature="0"
         sodipodi:nodetypes="cac" />
      <path
         style="fill:#ff8080;fill-opacity:1;stroke:#000000;stroke-width:2.5296936;stroke-miterlimit:4"
         d="m 394.38481,183.71405 c 0.008,2.27478 -1.70257,4.11341 -3.81899,4.10668 -2.11646,-0.007 -3.83805,-1.85626 -3.8453,-4.13104 -0.008,-2.27478 1.70259,-4.1134 3.81904,-4.10666 2.11642,0.007 3.83802,1.85622 3.84525,4.13102 z"
         id="path4197"
         inkscape:connector-curvature="0"
         sodipodi:nodetypes="sssss" />
    </g>
    <path
       style="fill:none;stroke:#000000;stroke-width:0.53071666px;stroke-linecap:butt;stroke-linejoin:miter;stroke-opacity:1"
       d="m 109.9134,-113.76051 c -10.989299,0.69472 -15.866941,5.38865 -22.629885,12.65656 7.280443,-1.19919 14.055285,-4.13308 21.850075,-3.56747 z"
       id="path3878"
       inkscape:connector-curvature="0"
       sodipodi:nodetypes="cccc" />
    <ellipse
       style="fill:#ffffff;fill-opacity:1;stroke:#000000;stroke-width:0.85999656;stroke-miterlimit:4;stroke-dasharray:none"
       id="path3880"
       transform="matrix(0.99815176,0.06077055,-0.07578051,0.99712452,0,0)"
       cx="94.138039"
       cy="-93.430756"
       rx="11.079042"
       ry="11.905688" />
    <path
       style="fill:none;stroke:#000000;stroke-width:1.17311871px;stroke-linecap:butt;stroke-linejoin:miter;stroke-opacity:1"
       d="m 111.93084,-90.34544 c -7.56033,-1.69181 -13.965812,-1.923 -21.729022,-0.94526"
       id="path3882"
       inkscape:connector-curvature="0"
       sodipodi:nodetypes="cc" />
    <ellipse
       style="fill:#1a1a1a;fill-opacity:1;stroke:#000000;stroke-width:1.28093636;stroke-miterlimit:4;stroke-dasharray:none"
       id="path3884"
       transform="matrix(0.99815176,0.06077055,-0.07578051,0.99712452,0,0)"
       cx="97.291824"
       cy="-91.376892"
       rx="2.1253052"
       ry="1.9042009" />
    <path
       style="fill:#000000;fill-opacity:1;stroke:#000000;stroke-width:0.85801435;stroke-miterlimit:4"
       d="m 103.05755,-43.89186 12.45502,1.11947 -0.15656,2.06008 -12.48377,1.44755 z"
       id="rect3918"
       inkscape:connector-curvature="0"
       sodipodi:nodetypes="ccccc" />
    <path
       style="fill:none;stroke:#000000;stroke-width:0.58655936;stroke-linecap:butt;stroke-linejoin:miter;stroke-miterlimit:4;stroke-dasharray:none;stroke-opacity:1"
       d="m 27.771158,-149.9995 c -4.51372,-1.23064 -14.54543,-2.62405 -22.2055574,0.59188 0,0 5.5555574,17.05808 12.1975874,17.47777"
       id="path3925"
       inkscape:connector-curvature="0"
       sodipodi:nodetypes="ccc" />
    <path
       style="fill:#000000;fill-opacity:1;stroke:#000000;stroke-width:0.26269463;stroke-miterlimit:4;stroke-dasharray:none"
       d="m 84.191675,-102.35927 c 7.127588,-6.74772 14.336781,-10.48809 22.086795,-11.45924 l 3.42233,-0.42886 -0.39898,5.24995 -0.39899,5.24998 -5.51051,0.4718 c -3.03078,0.25945 -8.808523,1.20506 -12.83941,2.10126 -4.030876,0.89626 -7.752757,1.60372 -8.270914,1.57217 -0.518082,-0.0315 0.341272,-1.2722 1.909679,-2.75706 z"
       id="path3952-3"
       inkscape:connector-curvature="0" />
    <path
       style="fill:#000000;fill-opacity:1;stroke:#000000;stroke-width:0.24174342;stroke-miterlimit:4;stroke-dasharray:none"
       d="m 184.59887,-117.31605 c -6.21028,-6.44809 -12.71175,-10.20047 -19.91857,-11.49607 l -3.18246,-0.57214 0,4.7355 0,4.73554 5.13988,0.72481 c 2.82694,0.39863 8.1839,1.56349 11.90436,2.58849 3.72044,1.02505 7.16425,1.8637 7.65297,1.8637 0.48866,0 -0.22963,-1.16091 -1.59618,-2.57983 z"
       id="path4247"
       inkscape:connector-curvature="0" />
    <g
       transform="matrix(1.7876149,0,0,1.8556599,-503.49576,-440.30978)"
       id="g4269">
      <ellipse
         ry="13.580034"
         rx="10.637693"
         cy="202.34251"
         cx="365.0766"
         transform="matrix(0.96808691,0,0,0.96847814,22.016585,-0.63813895)"
         id="ellipse4271"
         style="fill:#ffe6d5;fill-opacity:1;stroke:#000000;stroke-width:0.89999998;stroke-miterlimit:4;stroke-dasharray:none" />
      <path
         sodipodi:nodetypes="cac"
         inkscape:connector-curvature="0"
         id="path4273"
         d="m 386.07293,196.60724 c -2.92721,-0.56314 -7.11054,0.33264 -10.66853,0.41999 -3.5552,0.0873 -7.74131,-0.55926 -10.66852,0.10397"
         style="fill:none;stroke:#000000;stroke-width:0.98120147px;stroke-linecap:butt;stroke-linejoin:miter;stroke-opacity:1" />
      <path
         sodipodi:nodetypes="sssss"
         inkscape:connector-curvature="0"
         id="path4275"
         d="m 377.03564,199.50369 c 0,0.94703 -0.76772,1.71475 -1.71474,1.71475 -0.94704,0 -1.71476,-0.76772 -1.71476,-1.71475 0,-0.94703 0.76772,-1.71474 1.71476,-1.71474 0.94702,0 1.71474,0.76771 1.71474,1.71474 z"
         style="fill:#1a1a1a;fill-opacity:1;stroke:#000000;stroke-width:1.09184515;stroke-miterlimit:4" />
    </g>
    <path
       inkscape:export-ydpi="34.128929"
       inkscape:export-xdpi="34.128929"
       inkscape:export-filename="C:\Users\Home\Desktop\mofedmat.png"
       inkscape:connector-curvature="0"
       id="path4192"
       d="m 555.37052,237.75693 c -4.0673,-7.97511 -9.19695,-13.45562 -15.71577,-16.79056 l -2.87867,-1.47264 -1.3768,4.53093 -1.37681,4.53098 4.70712,2.18786 c 2.58893,1.2033 7.37581,3.87535 10.63755,5.93773 3.2617,2.06246 6.31291,3.86613 6.78053,4.00823 0.46755,0.14204 0.11781,-1.17754 -0.77717,-2.93247 z"
       style="fill:#000000;fill-opacity:1;stroke:#000000;stroke-width:0.24174342;stroke-miterlimit:4;stroke-dasharray:none"
       inkscape:transform-center-x="-0.24479942"
       inkscape:transform-center-y="-1.2115352" />
  </g>
</svg>
