<?xml version="1.0" encoding="UTF-8" standalone="no"?>
<!-- Created with Inkscape (http://www.inkscape.org/) -->

<svg
   xmlns:dc="http://purl.org/dc/elements/1.1/"
   xmlns:cc="http://creativecommons.org/ns#"
   xmlns:rdf="http://www.w3.org/1999/02/22-rdf-syntax-ns#"
   xmlns:svg="http://www.w3.org/2000/svg"
   xmlns="http://www.w3.org/2000/svg"
   xmlns:sodipodi="http://sodipodi.sourceforge.net/DTD/sodipodi-0.dtd"
   xmlns:inkscape="http://www.inkscape.org/namespaces/inkscape"
   width="744.09448819"
   height="1052.3622047"
   id="svg2"
   version="1.1"
   inkscape:version="0.91 r13725"
   inkscape:export-filename="mofedz.png"
   inkscape:export-xdpi="90"
   inkscape:export-ydpi="90"
   sodipodi:docname="mofedbymot.svg">
  <defs
     id="defs4" />
  <sodipodi:namedview
     id="base"
     pagecolor="#ffffff"
     bordercolor="#666666"
     borderopacity="1.0"
     inkscape:pageopacity="0.0"
     inkscape:pageshadow="2"
     inkscape:zoom="1.2566385"
     inkscape:cx="225.09156"
     inkscape:cy="431.90993"
     inkscape:document-units="px"
     inkscape:current-layer="layer1"
     showgrid="false"
     inkscape:window-width="2434"
     inkscape:window-height="1471"
     inkscape:window-x="126"
     inkscape:window-y="55"
     inkscape:window-maximized="1" />
  <metadata
     id="metadata7">
    <rdf:RDF>
      <cc:Work
         rdf:about="">
        <dc:format>image/svg+xml</dc:format>
        <dc:type
           rdf:resource="http://purl.org/dc/dcmitype/StillImage" />
        <dc:title />
      </cc:Work>
    </rdf:RDF>
  </metadata>
  <g
     inkscape:label="Layer 1"
     inkscape:groupmode="layer"
     id="layer1">
    <path
       style="fill:#784421;stroke:#000000;stroke-width:1px;stroke-linecap:butt;stroke-linejoin:miter;stroke-opacity:1"
       d="m 259.21961,589.81869 c -55.17417,100.36865 17.79415,244.46818 19.65969,341.61409 l 35.20084,3.03089 27.43393,-204.05691 -3.38873,207.09685 35.20676,2.94053 c 22.4002,-95.10922 110.40512,-258.53088 72.65291,-331.54026"
       id="path4101"
       inkscape:connector-curvature="0"
       sodipodi:nodetypes="ccccccc"
       inkscape:export-filename="C:\Users\Home\Desktop\mofedmat.png"
       inkscape:export-xdpi="34.128929"
       inkscape:export-ydpi="34.128929" />
    <rect
       style="fill:#ffe6d5;fill-opacity:1;stroke:#000000;stroke-width:0.40000001;stroke-miterlimit:4;stroke-dasharray:none"
       id="rect4014"
       width="39.39595"
       height="38.385796"
       x="378.86169"
       y="309.10596"
       inkscape:export-filename="C:\Users\Home\Desktop\mofedmat.png"
       inkscape:export-xdpi="34.128929"
       inkscape:export-ydpi="34.128929"
       transform="matrix(0.99779099,0.06643153,-0.06643153,0.99779099,0,0)" />
    <ellipse
       style="opacity:1;fill:#ffe680;fill-opacity:1;stroke:#000000;stroke-width:1.02377343"
       id="path2985"
       cx="409.72598"
       cy="196.02802"
       rx="78.8955"
       ry="98.904091"
       inkscape:export-filename="C:\Users\Home\Desktop\mofedmat.png"
       inkscape:export-xdpi="34.128929"
       inkscape:export-ydpi="34.128929"
       transform="matrix(0.99226992,0.12409836,-0.12409836,0.99226992,0,0)" />
    <path
       style="fill:#000000;fill-opacity:1;stroke:#000000;stroke-width:0.43760553"
       d="m 310.62298,207.04618 c 4.60588,-20.24861 16.51473,-37.27596 35.27163,-48.13743 17.1098,-9.90772 37.19797,-13.44845 56.8842,-10.02637 2.94594,0.5121 6.67345,0.94326 6.76387,1.03583 0.22976,0.23514 -5.80589,12.30911 -9.29959,17.50641 -4.01533,5.97331 -13.58617,16.52325 -17.23222,19.90345 -5.46318,5.0648 -10.94643,8.10264 -22.1348,11.98917 -9.44141,3.27967 -29.41706,7.80526 -41.18081,9.99942 -1.67403,0.31223 -4.61172,0.85933 -6.52818,1.21578 l -3.48451,0.64808 z"
       id="path2997"
       inkscape:connector-curvature="0"
       sodipodi:nodetypes="ssscssssscs"
       inkscape:export-filename="C:\Users\Home\Desktop\mofedmat.png"
       inkscape:export-xdpi="34.128929"
       inkscape:export-ydpi="34.128929" />
    <path
       style="fill:#000000;fill-opacity:1;stroke:#000000;stroke-width:0.49723428"
       d="m 460.311,238.81578 c -1.7423,-7.24307 -7.53875,-26.86884 -10.77457,-34.10502 -8.49114,-18.98854 -23.05325,-37.09998 -36.1334,-48.89452 -4.65578,-4.19817 -3.09157,-3.70494 1.93665,-1.2692 30.069,14.56588 48.28549,51.30948 46.36428,86.96381 -0.0572,1.0535 -0.021,1.90629 -0.11761,1.89417 -0.0971,-0.0118 -0.6708,-2.07728 -1.27503,-4.58922 z"
       id="path2999"
       inkscape:connector-curvature="0"
       sodipodi:nodetypes="cssssscc"
       inkscape:export-filename="C:\Users\Home\Desktop\mofedmat.png"
       inkscape:export-xdpi="34.128929"
       inkscape:export-ydpi="34.128929" />
    <path
       style="fill:#000000;stroke:#000000;stroke-width:1px;stroke-linecap:butt;stroke-linejoin:miter;stroke-opacity:1"
       d="m 408.72535,150.63227 c -0.15335,6.61391 11.93687,22.31685 19.91678,34.04501 -11.57665,-12.41773 -22.05862,-25.88093 -19.91678,-34.04501 z"
       id="path3001"
       inkscape:connector-curvature="0"
       sodipodi:nodetypes="ccc"
       inkscape:export-filename="C:\Users\Home\Desktop\mofedmat.png"
       inkscape:export-xdpi="34.128929"
       inkscape:export-ydpi="34.128929" />
    <path
       style="fill:#000000;fill-opacity:1;stroke:#000000;stroke-width:0.24174342;stroke-miterlimit:4;stroke-dasharray:none"
       d="m 338.84395,215.15209 c 6.96248,-5.62756 13.87935,-8.5441 21.19124,-8.93534 l 3.22888,-0.17272 -0.58768,4.69891 -0.58767,4.69892 -5.1901,0.0813 c -2.85456,0.0447 -8.31466,0.53581 -12.13356,1.09118 -3.81889,0.55542 -7.34015,0.96022 -7.82509,0.89957 -0.48488,-0.0606 0.37192,-1.12345 1.90399,-2.36181 z"
       id="path3952"
       inkscape:connector-curvature="0"
       inkscape:export-filename="C:\Users\Home\Desktop\mofedmat.png"
       inkscape:export-xdpi="34.128929"
       inkscape:export-ydpi="34.128929" />
    <g
       id="g3992"
       transform="matrix(0.85068215,0.1848398,-0.17634848,0.8738494,66.985148,-21.374266)"
       inkscape:export-filename="C:\Users\Home\Desktop\mofedmat.png"
       inkscape:export-xdpi="34.128929"
       inkscape:export-ydpi="34.128929">
      <path
         sodipodi:nodetypes="sssss"
         inkscape:connector-curvature="0"
         id="path3210"
         d="m 401.00995,280.69938 c 1.52262,-9.18214 11.78788,-20.09402 19.38816,-20.09402 17.43122,0 19.04946,10.61154 20.84389,20.09402 2.95691,15.62545 -1.33971,43.31056 -19.87358,43.37192 -17.79563,0.0589 -22.97114,-27.6163 -20.35847,-43.37192 z"
         style="fill:#ffffff;stroke:#000000;stroke-width:0.92125827px;stroke-linecap:butt;stroke-linejoin:miter;stroke-opacity:1" />
    </g>
    <g
       id="g4010"
       transform="matrix(0.588919,-0.00482438,0.00647073,0.78988952,109.85861,61.916103)"
       inkscape:export-filename="C:\Users\Home\Desktop\mofedmat.png"
       inkscape:export-xdpi="34.128929"
       inkscape:export-ydpi="34.128929">
      <path
         sodipodi:nodetypes="ccccc"
         inkscape:connector-curvature="0"
         id="rect4003"
         d="m 425.89062,269.60671 25.05939,2.45401 -1.0283,4.97617 -26.51167,2.04892 z"
         style="fill:#000000;fill-opacity:1;stroke:#000000;stroke-width:0.13024242;stroke-miterlimit:4" />
      <path
         sodipodi:nodetypes="ccccc"
         inkscape:connector-curvature="0"
         id="path4008"
         d="m 481.41671,275.98493 -24.888,-3.28339 -1.0283,4.97617 24.45508,7.90341 z"
         style="fill:#000000;fill-opacity:1;stroke:#000000;stroke-width:0.13024242;stroke-miterlimit:4" />
    </g>
    <path
       style="fill:#c87137;fill-opacity:1;stroke:#000000;stroke-width:0.75425529;stroke-miterlimit:4"
       d="m 486.24054,536.38981 c -18.82643,95.5967 -64.86943,136.10743 -142.37864,124.73223 -71.53438,-10.49833 -115.07872,-56.04602 -96.3003,-165.263 16.99054,-98.8186 60.15391,-161.37162 145.97878,-147.38992 94.61729,15.41408 111.85128,90.67529 92.70016,187.92069 z"
       id="path4016"
       inkscape:connector-curvature="0"
       sodipodi:nodetypes="sssss"
       inkscape:export-filename="C:\Users\Home\Desktop\mofedmat.png"
       inkscape:export-xdpi="34.128929"
       inkscape:export-ydpi="34.128929" />
    <path
       style="fill:none;stroke:#000000;stroke-width:0.99794739px;stroke-linecap:butt;stroke-linejoin:miter;stroke-opacity:1"
       d="M 398.29876,344.66807 C 379.55447,445.11012 377.17561,549.34483 382.1129,655.27503"
       id="path4019"
       inkscape:connector-curvature="0"
       sodipodi:nodetypes="cc"
       inkscape:export-filename="C:\Users\Home\Desktop\mofedmat.png"
       inkscape:export-xdpi="34.128929"
       inkscape:export-ydpi="34.128929" />
    <path
       inkscape:connector-curvature="0"
       id="path4021"
       d="m 354.65876,346.26237 c 2.55532,106.79193 -10.85109,209.07872 -29.54607,309.87281"
       style="fill:none;stroke:#000000;stroke-width:1px;stroke-linecap:butt;stroke-linejoin:miter;stroke-opacity:1"
       sodipodi:nodetypes="cc"
       inkscape:export-filename="C:\Users\Home\Desktop\mofedmat.png"
       inkscape:export-xdpi="34.128929"
       inkscape:export-ydpi="34.128929" />
    <path
       style="fill:#000000;fill-opacity:1;stroke:#000000;stroke-width:0.72730988;stroke-miterlimit:4;stroke-dasharray:none"
       d="m 352.35685,662.17807 c -4.85361,-0.57804 -12.20843,-1.95283 -16.34407,-3.05506 l -7.51931,-2.00406 0.61605,-3.07926 c 8.81826,-44.07734 19.28542,-119.3625 24.35868,-175.20028 2.69335,-29.64372 5.37525,-99.91268 4.5717,-119.78401 -0.46287,-11.44666 -0.41337,-11.81676 1.65958,-12.40924 2.84419,-0.81287 24.08045,-0.16605 27.65668,0.84238 l 2.82249,0.7959 -1.46076,21.30129 c -1.96623,28.67202 -3.18203,81.2403 -2.46697,106.6658 1.44456,51.36343 6.06603,109.24642 13.03113,163.21171 1.12549,8.72018 2.0254,16.57813 1.99981,17.4621 -0.12427,4.292 -30.03131,7.50288 -48.925,5.25271 l 0,0 z"
       id="path4023"
       inkscape:connector-curvature="0"
       inkscape:export-filename="C:\Users\Home\Desktop\mofedmat.png"
       inkscape:export-xdpi="34.128929"
       inkscape:export-ydpi="34.128929" />
    <circle
       style="fill:#000000;fill-opacity:1;stroke:#000000;stroke-width:0.72000003;stroke-miterlimit:4;stroke-dasharray:none"
       id="path4025"
       cx="372.9772"
       cy="407.77466"
       r="2.2728431"
       inkscape:export-filename="C:\Users\Home\Desktop\mofedmat.png"
       inkscape:export-xdpi="34.128929"
       inkscape:export-ydpi="34.128929"
       transform="matrix(0.99737808,-0.07236687,0.07236687,0.99737808,0,0)" />
    <circle
       id="path4027"
       style="fill:#000000;fill-opacity:1;stroke:#000000;stroke-width:0.72000003;stroke-miterlimit:4;stroke-dasharray:none"
       cx="365.71988"
       cy="430.54721"
       r="2.2728431"
       inkscape:export-filename="C:\Users\Home\Desktop\mofedmat.png"
       inkscape:export-xdpi="34.128929"
       inkscape:export-ydpi="34.128929"
       transform="matrix(0.99737808,-0.07236687,0.07236687,0.99737808,0,0)" />
    <circle
       style="fill:#000000;fill-opacity:1;stroke:#000000;stroke-width:0.72000003;stroke-miterlimit:4;stroke-dasharray:none"
       id="path4029"
       cx="358.9675"
       cy="448.08264"
       r="2.2728431"
       inkscape:export-filename="C:\Users\Home\Desktop\mofedmat.png"
       inkscape:export-xdpi="34.128929"
       inkscape:export-ydpi="34.128929"
       transform="matrix(0.99737808,-0.07236687,0.07236687,0.99737808,0,0)" />
    <circle
       id="path4031"
       style="fill:#000000;fill-opacity:1;stroke:#000000;stroke-width:0.72000003;stroke-miterlimit:4;stroke-dasharray:none"
       cx="332.96814"
       cy="486.38019"
       r="2.2728431"
       inkscape:export-filename="C:\Users\Home\Desktop\mofedmat.png"
       inkscape:export-xdpi="34.128929"
       inkscape:export-ydpi="34.128929"
       transform="matrix(0.99737808,-0.07236687,0.07236687,0.99737808,0,0)" />
    <circle
       style="fill:#000000;fill-opacity:1;stroke:#000000;stroke-width:0.72000003;stroke-miterlimit:4;stroke-dasharray:none"
       id="path4033"
       cx="355.24551"
       cy="517.92542"
       r="2.2728431"
       inkscape:export-filename="C:\Users\Home\Desktop\mofedmat.png"
       inkscape:export-xdpi="34.128929"
       inkscape:export-ydpi="34.128929"
       transform="matrix(0.99737808,-0.07236687,0.07236687,0.99737808,0,0)" />
    <circle
       id="path4035"
       style="fill:#000000;fill-opacity:1;stroke:#000000;stroke-width:0.72000003;stroke-miterlimit:4;stroke-dasharray:none"
       cx="355.01505"
       cy="550.25024"
       r="2.2728431"
       inkscape:export-filename="C:\Users\Home\Desktop\mofedmat.png"
       inkscape:export-xdpi="34.128929"
       inkscape:export-ydpi="34.128929"
       transform="matrix(0.99737808,-0.07236687,0.07236687,0.99737808,0,0)" />
    <circle
       style="fill:#000000;fill-opacity:1;stroke:#000000;stroke-width:0.72000003;stroke-miterlimit:4;stroke-dasharray:none"
       id="path4037"
       cx="352.30325"
       cy="589.09705"
       r="2.2728431"
       inkscape:export-filename="C:\Users\Home\Desktop\mofedmat.png"
       inkscape:export-xdpi="34.128929"
       inkscape:export-ydpi="34.128929"
       transform="matrix(0.99737808,-0.07236687,0.07236687,0.99737808,0,0)" />
    <circle
       id="path4039"
       style="fill:#000000;fill-opacity:1;stroke:#000000;stroke-width:0.72000003;stroke-miterlimit:4;stroke-dasharray:none"
       cx="350.09665"
       cy="621.37781"
       r="2.2728431"
       inkscape:export-filename="C:\Users\Home\Desktop\mofedmat.png"
       inkscape:export-xdpi="34.128929"
       inkscape:export-ydpi="34.128929"
       transform="matrix(0.99737808,-0.07236687,0.07236687,0.99737808,0,0)" />
    <circle
       style="fill:#000000;fill-opacity:1;stroke:#000000;stroke-width:0.72000003;stroke-miterlimit:4;stroke-dasharray:none"
       id="path4041"
       cx="344.1239"
       cy="662.66174"
       r="2.2728431"
       inkscape:export-filename="C:\Users\Home\Desktop\mofedmat.png"
       inkscape:export-xdpi="34.128929"
       inkscape:export-ydpi="34.128929"
       transform="matrix(0.99737808,-0.07236687,0.07236687,0.99737808,0,0)" />
    <path
       style="fill:#c87137;fill-opacity:1;stroke:#000000;stroke-width:1px;stroke-linecap:butt;stroke-linejoin:miter;stroke-opacity:1"
       d="m 357.43233,365.35737 -32.08498,18.95601 17.27391,-40.76851 13.16154,-0.49297 z"
       id="path4063"
       inkscape:connector-curvature="0"
       sodipodi:nodetypes="ccccc"
       inkscape:export-filename="C:\Users\Home\Desktop\mofedmat.png"
       inkscape:export-xdpi="34.128929"
       inkscape:export-ydpi="34.128929" />
    <path
       sodipodi:nodetypes="ccccc"
       inkscape:connector-curvature="0"
       id="path4065"
       d="m 386.39112,365.77631 27.41236,25.24558 -8.36795,-43.47915 -12.76756,-3.23399 z"
       style="fill:#c87137;fill-opacity:1;stroke:#000000;stroke-width:1px;stroke-linecap:butt;stroke-linejoin:miter;stroke-opacity:1"
       inkscape:export-filename="C:\Users\Home\Desktop\mofedmat.png"
       inkscape:export-xdpi="34.128929"
       inkscape:export-ydpi="34.128929" />
    <path
       style="fill:#c87137;fill-opacity:1;stroke:#000000;stroke-width:1.19071901px;stroke-linecap:butt;stroke-linejoin:miter;stroke-opacity:1"
       d="m 298.82566,377.31034 c -0.52071,-8.00837 -115.88839,69.56393 -110.86455,140.18572 0.53803,7.57142 8.79193,13.07644 11.82016,17.6678 27.85353,42.23073 136.42317,-44.52068 136.42317,-44.52068 L 321.76698,465.1095 c 0,0 -77.15431,51.25898 -83.6371,26.99844 -3.11725,-11.66571 18.38017,-26.42732 18.38017,-26.42732 5.12572,-36.36678 24.16983,-64.24817 42.31561,-88.37028 z"
       id="path4071"
       inkscape:connector-curvature="0"
       sodipodi:nodetypes="cssccscc"
       inkscape:export-filename="C:\Users\Home\Desktop\mofedmat.png"
       inkscape:export-xdpi="34.128929"
       inkscape:export-ydpi="34.128929" />
    <path
       sodipodi:nodetypes="cssccscc"
       inkscape:connector-curvature="0"
       id="path4073"
       d="m 457.55595,376.5157 c 3.88571,-6.65975 96.70405,92.01246 82.49826,152.18194 -1.29244,5.47422 -0.63572,13.69634 -3.14616,17.07146 -26.18975,35.21038 -139.17879,-61.79115 -135.94273,-81.49848 l 24.6293,-13.53581 c 0,0 66.47271,72.83075 75.17125,51.5351 4.18268,-10.24004 -18.86801,-57.33618 -18.86801,-57.33618 -1.12573,-34.04657 -9.52349,-43.7247 -24.34191,-68.41803 z"
       style="fill:#c87137;fill-opacity:1;stroke:#000000;stroke-width:1.12267184px;stroke-linecap:butt;stroke-linejoin:miter;stroke-opacity:1"
       inkscape:export-filename="C:\Users\Home\Desktop\mofedmat.png"
       inkscape:export-xdpi="34.128929"
       inkscape:export-ydpi="34.128929" />
    <path
       style="fill:#ffccaa;stroke:#000000;stroke-width:0.83736151px;stroke-linecap:butt;stroke-linejoin:miter;stroke-opacity:1"
       d="m 317.87717,444.8718 c 0.74273,-10.94556 9.50775,-31.0088 18.09997,-28.73006 8.20976,2.17733 -10.1937,23.65575 -9.08064,24.12171 7.68209,3.21613 15.96501,-23.66028 23.70915,-16.8104 7.38873,6.5355 -20.27824,29.59014 -11.01049,30.2667 2.63498,0.1923 15.70626,-25.35021 20.44362,-19.61232 6.94588,8.41281 -18.10819,26.79015 -13.37454,30.1651 1.64945,1.176 19.07135,-24.63857 25.53873,-15.04987 3.87061,5.73862 -18.86121,16.51645 -20.27042,22.75062 -1.4629,6.47165 16.50449,-15.29906 22.28492,-12.33079 1.10664,10.2665 -30.85698,23.24925 -34.97939,26.2464 -4.52922,4.83258 -22.3395,21.12429 -32.30799,7.30263 -14.34181,-19.88553 10.16266,-36.75986 10.94709,-48.31969 z"
       id="path4906"
       inkscape:connector-curvature="0"
       sodipodi:nodetypes="cssssssssccssc"
       inkscape:export-filename="C:\Users\Home\Desktop\mofedmat.png"
       inkscape:export-xdpi="34.128929"
       inkscape:export-ydpi="34.128929" />
    <path
       sodipodi:nodetypes="cssssssssccssc"
       inkscape:connector-curvature="0"
       id="path4097"
       d="m 430.70959,440.57209 c 0.11369,-9.68602 -6.59933,-27.50347 -14.8004,-25.56138 -7.83603,1.85566 7.78348,21.00662 6.70847,21.40924 -7.41941,2.7788 -13.17874,-21.05973 -20.92446,-15.06796 -7.3902,5.71675 16.77336,26.34048 8.05903,26.85996 -2.47763,0.14768 -12.81207,-22.55206 -17.66465,-17.51808 -7.11483,7.38075 14.95133,23.84589 10.27667,26.79023 -1.62889,1.02595 -16.01065,-21.95134 -22.76495,-13.52663 -4.04228,5.04199 16.41385,14.76677 17.27103,20.29193 0.88986,5.73565 -14.30041,-13.67011 -19.92367,-11.09431 -1.7926,9.06971 27.13154,20.82297 30.76427,23.50856 3.87726,4.31252 19.32548,18.87133 29.6655,6.73298 14.87627,-17.46367 -6.78698,-32.59495 -6.66686,-42.8245 z"
       style="fill:#ffccaa;stroke:#000000;stroke-width:0.76167762px;stroke-linecap:butt;stroke-linejoin:miter;stroke-opacity:1"
       inkscape:export-filename="C:\Users\Home\Desktop\mofedmat.png"
       inkscape:export-xdpi="34.128929"
       inkscape:export-ydpi="34.128929" />
    <g
       transform="matrix(1.8885176,-0.04929536,0.0633603,2.0646309,-399.66726,-105.01739)"
       id="g4183"
       inkscape:export-filename="C:\Users\Home\Desktop\mofedmat.png"
       inkscape:export-xdpi="34.128929"
       inkscape:export-ydpi="34.128929"
       style="opacity:0.69800002;fill:#ff8080">
      <ellipse
         ry="13.16379"
         rx="10.289613"
         cy="120.96433"
         cx="413.75482"
         id="ellipse4185"
         style="fill:#ff8080;fill-opacity:1;stroke:#000000;stroke-width:0.87148178;stroke-miterlimit:4;stroke-dasharray:none"
         transform="matrix(0.98916461,0.14681064,-0.15792589,0.98745097,0,0)" />
      <path
         sodipodi:nodetypes="ccc"
         inkscape:connector-curvature="0"
         id="path4187"
         d="m 399.37772,173.17189 c -3.23834,-0.95777 -6.57883,0.0662 -6.57883,0.0662 0,0 -7.28482,-1.68229 -10.75676,-1.43695"
         style="fill:#ff8080;stroke:#000000;stroke-width:1.05113447px;stroke-linecap:butt;stroke-linejoin:miter;stroke-opacity:1" />
      <path
         sodipodi:nodetypes="sssss"
         inkscape:connector-curvature="0"
         id="path4189"
         d="m 393.99162,178.02717 c 0.002,1.97847 -1.5701,3.58105 -3.51076,3.57945 -1.94071,-0.001 -3.51535,-1.60679 -3.51707,-3.58526 -0.002,-1.97849 1.57009,-3.58104 3.5108,-3.57943 1.94066,10e-4 3.51529,1.60675 3.51703,3.58524 z"
         style="fill:#000000;fill-opacity:1;stroke:#000000;stroke-width:2.25912452;stroke-miterlimit:4" />
    </g>
    <g
       id="g4191"
       transform="matrix(1.6808902,-0.04127099,0.06083721,1.8987547,-257.71046,-84.45793)"
       inkscape:export-filename="C:\Users\Home\Desktop\mofedmat.png"
       inkscape:export-xdpi="34.128929"
       inkscape:export-ydpi="34.128929"
       style="opacity:0.68699999;fill:#ff8080;fill-opacity:1">
      <ellipse
         style="fill:#ff8080;fill-opacity:1;stroke:#000000;stroke-width:0.87148178;stroke-miterlimit:4;stroke-dasharray:none"
         id="ellipse4193"
         cx="414.66937"
         cy="125.62084"
         rx="10.289613"
         ry="13.16379"
         transform="matrix(0.98916461,0.14681064,-0.15792589,0.98745097,0,0)" />
      <path
         style="fill:#ff8080;fill-opacity:1;stroke:#000000;stroke-width:0.89293563px;stroke-linecap:butt;stroke-linejoin:miter;stroke-opacity:1"
         d="m 400.1596,180.31307 c -2.30941,-1.01769 -6.13945,-1.09416 -9.2085,-1.64409 -2.89315,-0.51841 -6.22017,-1.76479 -8.67817,-1.5606"
         id="path4195"
         inkscape:connector-curvature="0"
         sodipodi:nodetypes="cac" />
      <path
         style="fill:#ff8080;fill-opacity:1;stroke:#000000;stroke-width:2.5296936;stroke-miterlimit:4"
         d="m 394.38481,183.71405 c 0.008,2.27478 -1.70257,4.11341 -3.81899,4.10668 -2.11646,-0.007 -3.83805,-1.85626 -3.8453,-4.13104 -0.008,-2.27478 1.70259,-4.1134 3.81904,-4.10666 2.11642,0.007 3.83802,1.85622 3.84525,4.13102 z"
         id="path4197"
         inkscape:connector-curvature="0"
         sodipodi:nodetypes="sssss" />
    </g>
    <path
       style="fill:none;stroke:#000000;stroke-width:0.53071666px;stroke-linecap:butt;stroke-linejoin:miter;stroke-opacity:1"
       d="m 109.9134,-113.76051 c -10.989299,0.69472 -15.866941,5.38865 -22.629885,12.65656 7.280443,-1.19919 14.055285,-4.13308 21.850075,-3.56747 z"
       id="path3878"
       inkscape:connector-curvature="0"
       sodipodi:nodetypes="cccc" />
    <ellipse
       style="fill:#ffffff;fill-opacity:1;stroke:#000000;stroke-width:0.85999656;stroke-miterlimit:4;stroke-dasharray:none"
       id="path3880"
       transform="matrix(0.99815176,0.06077055,-0.07578051,0.99712452,0,0)"
       cx="94.138039"
       cy="-93.430756"
       rx="11.079042"
       ry="11.905688" />
    <path
       style="fill:none;stroke:#000000;stroke-width:1.17311871px;stroke-linecap:butt;stroke-linejoin:miter;stroke-opacity:1"
       d="m 111.93084,-90.34544 c -7.56033,-1.69181 -13.965812,-1.923 -21.729022,-0.94526"
       id="path3882"
       inkscape:connector-curvature="0"
       sodipodi:nodetypes="cc" />
    <ellipse
       style="fill:#1a1a1a;fill-opacity:1;stroke:#000000;stroke-width:1.28093636;stroke-miterlimit:4;stroke-dasharray:none"
       id="path3884"
       transform="matrix(0.99815176,0.06077055,-0.07578051,0.99712452,0,0)"
       cx="97.291824"
       cy="-91.376892"
       rx="2.1253052"
       ry="1.9042009" />
    <path
       style="fill:#000000;fill-opacity:1;stroke:#000000;stroke-width:0.85801435;stroke-miterlimit:4"
       d="m 103.05755,-43.89186 12.45502,1.11947 -0.15656,2.06008 -12.48377,1.44755 z"
       id="rect3918"
       inkscape:connector-curvature="0"
       sodipodi:nodetypes="ccccc" />
    <path
       style="fill:none;stroke:#000000;stroke-width:0.58655936;stroke-linecap:butt;stroke-linejoin:miter;stroke-miterlimit:4;stroke-dasharray:none;stroke-opacity:1"
       d="m 27.771158,-149.9995 c -4.51372,-1.23064 -14.54543,-2.62405 -22.2055574,0.59188 0,0 5.5555574,17.05808 12.1975874,17.47777"
       id="path3925"
       inkscape:connector-curvature="0"
       sodipodi:nodetypes="ccc" />
    <path
       style="fill:#000000;fill-opacity:1;stroke:#000000;stroke-width:0.26269463;stroke-miterlimit:4;stroke-dasharray:none"
       d="m 84.191675,-102.35927 c 7.127588,-6.74772 14.336781,-10.48809 22.086795,-11.45924 l 3.42233,-0.42886 -0.39898,5.24995 -0.39899,5.24998 -5.51051,0.4718 c -3.03078,0.25945 -8.808523,1.20506 -12.83941,2.10126 -4.030876,0.89626 -7.752757,1.60372 -8.270914,1.57217 -0.518082,-0.0315 0.341272,-1.2722 1.909679,-2.75706 z"
       id="path3952-3"
       inkscape:connector-curvature="0" />
    <path
       style="fill:#000000;fill-opacity:1;stroke:#000000;stroke-width:0.24174342;stroke-miterlimit:4;stroke-dasharray:none"
       d="m 184.59887,-117.31605 c -6.21028,-6.44809 -12.71175,-10.20047 -19.91857,-11.49607 l -3.18246,-0.57214 0,4.7355 0,4.73554 5.13988,0.72481 c 2.82694,0.39863 8.1839,1.56349 11.90436,2.58849 3.72044,1.02505 7.16425,1.8637 7.65297,1.8637 0.48866,0 -0.22963,-1.16091 -1.59618,-2.57983 z"
       id="path4247"
       inkscape:connector-curvature="0" />
    <g
       transform="matrix(1.7876149,0,0,1.8556599,-503.49576,-440.30978)"
       id="g4269">
      <ellipse
         ry="13.580034"
         rx="10.637693"
         cy="202.34251"
         cx="365.0766"
         transform="matrix(0.96808691,0,0,0.96847814,22.016585,-0.63813895)"
         id="ellipse4271"
         style="fill:#ffe6d5;fill-opacity:1;stroke:#000000;stroke-width:0.89999998;stroke-miterlimit:4;stroke-dasharray:none" />
      <path
         sodipodi:nodetypes="cac"
         inkscape:connector-curvature="0"
         id="path4273"
         d="m 386.07293,196.60724 c -2.92721,-0.56314 -7.11054,0.33264 -10.66853,0.41999 -3.5552,0.0873 -7.74131,-0.55926 -10.66852,0.10397"
         style="fill:none;stroke:#000000;stroke-width:0.98120147px;stroke-linecap:butt;stroke-linejoin:miter;stroke-opacity:1" />
      <path
         sodipodi:nodetypes="sssss"
         inkscape:connector-curvature="0"
         id="path4275"
         d="m 377.03564,199.50369 c 0,0.94703 -0.76772,1.71475 -1.71474,1.71475 -0.94704,0 -1.71476,-0.76772 -1.71476,-1.71475 0,-0.94703 0.76772,-1.71474 1.71476,-1.71474 0.94702,0 1.71474,0.76771 1.71474,1.71474 z"
         style="fill:#1a1a1a;fill-opacity:1;stroke:#000000;stroke-width:1.09184515;stroke-miterlimit:4" />
    </g>
    <path
       inkscape:export-ydpi="34.128929"
       inkscape:export-xdpi="34.128929"
       inkscape:export-filename="C:\Users\Home\Desktop\mofedmat.png"
       inkscape:connector-curvature="0"
       id="path4192"
       d="m 429.63826,228.20764 c -4.0673,-7.97511 -9.19695,-13.45562 -15.71577,-16.79056 l -2.87867,-1.47264 -1.3768,4.53093 -1.37681,4.53098 4.70712,2.18786 c 2.58893,1.2033 7.37581,3.87535 10.63755,5.93773 3.2617,2.06246 6.31291,3.86613 6.78053,4.00823 0.46755,0.14204 0.11781,-1.17754 -0.77717,-2.93247 z"
       style="fill:#000000;fill-opacity:1;stroke:#000000;stroke-width:0.24174342;stroke-miterlimit:4;stroke-dasharray:none"
       inkscape:transform-center-x="-0.24479942"
       inkscape:transform-center-y="-1.2115352" />
    <path
       style="opacity:1;fill:#ffe6d5;fill-opacity:1;stroke:#000000;stroke-width:0.84010673;stroke-linecap:round;stroke-linejoin:bevel;stroke-miterlimit:4;stroke-dasharray:none;stroke-opacity:1"
       d="m 365.48486,341.94446 c -6.63123,-1.46289 -11.27185,-3.13268 -16.99593,-6.11548 -19.28003,-10.04673 -34.56332,-30.73876 -40.92361,-55.40644 -5.25954,-20.39851 -5.01932,-41.21836 0.71789,-62.22014 l 1.77599,-6.50124 14.34878,-2.92699 c 23.01152,-4.69409 36.34096,-8.3796 46.21258,-12.7775 7.69949,-3.43021 13.90936,-8.71965 23.27058,-19.82144 5.49011,-6.51091 8.29199,-10.58279 11.54521,-16.77831 1.96181,-3.73609 0,-9.09571 0,-7.33604 0,1.7692 6.73473,13.56478 10.24996,18.33435 4.88042,6.62188 12.33374,15.08406 12.95018,14.70308 0.79122,-0.489 0.31476,-1.31118 -6.23849,-10.76511 -6.48728,-9.35876 -11.89737,-18.35742 -11.89737,-19.78902 0,-1.18926 12.04301,10.85572 17.68927,17.69217 8.30289,10.05306 15.26986,20.76388 19.76471,30.38564 2.56075,5.48161 7.31905,19.66237 10.6678,31.79238 2.00063,7.24679 2.08087,7.86834 1.74336,13.50473 -2.67847,44.73 -30.52565,83.70961 -66.60569,93.23258 -7.55385,1.99375 -21.10852,2.37381 -28.27522,0.79278 z m 10.14022,-2.07998 c 4.25011,-1.26215 9.5879,-6.7119 12.56309,-12.8266 5.73004,-11.77652 7.0859,-28.87228 2.86722,-36.15214 -2.35876,-4.07033 -9.06403,-7.51672 -14.62446,-7.51672 -5.33991,0 -14.48951,6.65203 -17.63781,12.82321 -3.53542,6.92998 -4.95531,23.27438 -2.67448,30.78581 2.18689,7.20203 5.6377,11.40226 10.65661,12.97094 3.20219,1.00085 5.26126,0.98119 8.84983,-0.0845 z m 19.60537,-62.38736 c -0.33382,-0.33382 -14.58456,-2.71034 -14.79401,-2.46712 -0.0947,0.10995 -0.33693,1.1127 -0.53833,2.22833 l -0.36616,2.02842 7.4659,3.15068 7.46591,3.15067 0.50167,-3.92716 c 0.27592,-2.15994 0.39517,-4.03366 0.26502,-4.16382 z m -25.84907,2.24429 c 4.24642,-0.5007 7.17029,-1.10632 7.44712,-1.54253 0.57562,-0.90704 0.61421,-3.80705 0.051,-3.83084 -0.23212,-0.01 -3.08077,-0.38161 -6.33034,-0.82622 -8.73873,-1.19565 -8.24835,-1.305 -8.95653,1.99714 -0.79443,3.70431 -0.76951,5.03769 0.0941,5.03168 0.38685,-0.003 3.84947,-0.37584 7.69472,-0.82923 z m 45.34896,-4.73907 c 4.88409,-2.16047 9.52942,-8.30781 11.87855,-15.71934 0.4571,-1.44215 0.97138,-5.15423 1.14285,-8.24906 0.49712,-8.97266 -1.69555,-16.04016 -6.64093,-21.40526 -3.06825,-3.32866 -6.19211,-4.76153 -10.36582,-4.75466 -11.31176,0.0186 -20.14003,13.43892 -19.21215,29.20536 0.96643,16.42141 11.6303,26.03968 23.1975,20.92296 z m -60.22869,-0.86798 c 8.69822,-4.25564 14.53938,-15.45771 14.53938,-27.88335 0,-6.09263 -1.04788,-10.78662 -3.48638,-15.61726 -6.32774,-12.5352 -19.92072,-14.54664 -29.25855,-4.32958 -1.54114,1.68626 -3.04521,3.06593 -3.34236,3.06593 -0.29715,0 -0.66942,0.69634 -0.82726,1.54742 -0.15784,0.85108 -0.94463,3.35348 -1.74843,5.5609 -3.52099,9.66949 -3.05975,20.33181 1.24058,28.67766 2.50957,4.87045 7.61297,9.25836 12.10785,10.41036 2.90576,0.74472 7.60155,0.12063 10.77517,-1.43208 z m 74.82708,-47.18048 c -3.50284,-6.74618 -8.8237,-12.31179 -14.83187,-15.51412 -1.93206,-1.02978 -3.59122,-1.78466 -3.68701,-1.67751 -0.0958,0.10714 -0.80895,2.28505 -1.58481,4.8398 l -1.41064,4.645 4.57862,2.17135 c 2.51824,1.19424 7.61719,3.99098 11.33099,6.21497 7.54206,4.51652 8.25762,4.42976 5.60472,-0.67949 z m -84.66366,-9.98999 c 2.32113,-0.33224 7.29304,-0.75243 11.04869,-0.93376 l 6.82846,-0.32969 0.37414,-3.99709 c 0.20579,-2.1984 0.51771,-4.47987 0.69317,-5.06994 0.30071,-1.01125 0.0702,-1.05183 -4.01373,-0.70661 -7.38243,0.62404 -15.14245,3.96628 -20.905,9.00376 -1.359,1.18801 -2.33861,2.3741 -2.17689,2.63575 0.30039,0.48606 0.80966,0.44842 8.15116,-0.60242 z"
       id="path4299"
       inkscape:connector-curvature="0"
       sodipodi:nodetypes="sssscsssssssssssssssssssssssccccccsccscsscccssssssssssssssssssscscssssscsssscs"
       inkscape:export-xdpi="34.128929"
       inkscape:export-ydpi="34.128929" />
    <path
       style="opacity:1;fill:#ffe6d5;fill-opacity:1;stroke:#000000;stroke-width:0.84010673;stroke-linecap:round;stroke-linejoin:bevel;stroke-miterlimit:4;stroke-dasharray:none;stroke-opacity:1"
       d="m 404.02961,273.25968 c -2.83091,-1.36022 -4.1274,-2.50021 -6.38007,-5.60994 -4.74757,-6.55382 -5.71976,-18.1693 -2.28835,-27.34058 1.02647,-2.74347 1.32881,-3.0813 2.7576,-3.0813 2.09748,0 7.31756,1.21095 7.31756,1.69752 0,0.20837 -0.53235,0.86062 -1.183,1.44945 -3.2453,2.93695 -3.96324,8.90706 -1.58359,13.16849 1.7069,3.0567 3.63813,4.5019 6.53516,4.89047 7.13055,0.95641 11.86699,-8.13932 8.08292,-15.52221 l -1.26874,-2.47538 2.66901,0.36583 c 1.46796,0.20121 3.61928,0.62171 4.78072,0.93445 l 2.1117,0.56863 0.37597,3.79171 c 1.68633,17.00692 -10.81995,32.49959 -21.92689,27.16286 z"
       id="path4303"
       inkscape:connector-curvature="0"
       inkscape:export-xdpi="34.128929"
       inkscape:export-ydpi="34.128929" />
    <path
       style="opacity:1;fill:#ffe6d5;fill-opacity:1;stroke:#000000;stroke-width:0.84010673;stroke-linecap:round;stroke-linejoin:bevel;stroke-miterlimit:4;stroke-dasharray:none;stroke-opacity:1"
       d="m 422.27037,239.24522 c -0.12895,-0.12839 -2.76659,-0.52994 -5.86142,-0.89234 -3.09484,-0.36239 -8.53893,-1.36282 -12.09799,-2.22316 l -6.47102,-1.56427 3.18582,-3.13381 c 7.73429,-7.60806 16.89308,-5.6747 22.1366,4.67289 0.77313,1.5257 1.40569,2.90903 1.40569,3.07406 0,0.3519 -1.95424,0.40856 -2.29768,0.0666 z"
       id="path4305"
       inkscape:connector-curvature="0"
       inkscape:export-xdpi="34.128929"
       inkscape:export-ydpi="34.128929" />
    <path
       style="opacity:1;fill:#ffe6d5;fill-opacity:1;stroke:#000000;stroke-width:0.84010673;stroke-linecap:round;stroke-linejoin:bevel;stroke-miterlimit:4;stroke-dasharray:none;stroke-opacity:1"
       d="m 344.09873,273.31019 c -4.6456,-1.52108 -8.23502,-4.79693 -10.791,-9.84827 -4.1694,-8.23993 -4.24603,-19.47573 -0.19321,-28.32826 l 1.43029,-3.12417 4.67513,0.37934 c 4.25769,0.34547 9.09568,1.29773 7.18634,1.41448 -1.64158,0.10038 -4.48261,2.91682 -5.42107,5.37415 -2.61532,6.84812 1.56759,13.80966 8.29417,13.80381 7.88416,-0.007 11.60395,-10.21656 6.03371,-16.56072 -1.48613,-1.6926 -1.56598,-1.95039 -0.6797,-2.19427 2.67968,-0.73735 5.50982,-0.96347 7.78623,-0.6221 2.47347,0.37092 2.52208,0.42048 3.47936,3.54734 1.32789,4.33743 1.29219,13.79531 -0.0692,18.33458 -2.28014,7.60263 -6.46881,13.5012 -11.5521,16.26787 -3.05791,1.66432 -7.68722,2.37208 -10.17895,1.55622 z"
       id="path4307"
       inkscape:connector-curvature="0"
       inkscape:export-xdpi="34.128929"
       inkscape:export-ydpi="34.128929" />
    <path
       style="opacity:1;fill:#ffe6d5;fill-opacity:1;stroke:#000000;stroke-width:0.84010673;stroke-linecap:round;stroke-linejoin:bevel;stroke-miterlimit:4;stroke-dasharray:none;stroke-opacity:1"
       d="m 347.7599,230.95964 c -2.78535,-0.5525 -5.95052,-1.03186 -7.03371,-1.06524 -1.08319,-0.0334 -2.45072,-0.24951 -3.03896,-0.48029 -0.96877,-0.38005 -0.86733,-0.62179 1.07673,-2.56584 6.8587,-6.8587 16.86647,-6.24652 22.69878,1.3885 l 1.92507,2.52007 -4.76598,0.33084 c -2.62129,0.18196 -4.99811,0.45361 -5.28182,0.60367 -0.28371,0.15005 -2.79475,-0.17922 -5.58011,-0.73171 z"
       id="path4309"
       inkscape:connector-curvature="0"
       inkscape:export-xdpi="34.128929"
       inkscape:export-ydpi="34.128929" />
    <path
       style="opacity:1;fill:#000000;fill-opacity:1;stroke:#000000;stroke-width:0.84010673;stroke-linecap:round;stroke-linejoin:bevel;stroke-miterlimit:4;stroke-dasharray:none;stroke-opacity:1"
       d="m 343.96579,274.86594 c -4.42367,-1.00989 -9.79615,-5.83074 -12.20214,-10.94927 -3.12666,-6.65167 -3.7872,-16.2723 -1.66207,-24.20734 0.65562,-2.448 1.31739,-5.14725 1.47061,-5.99833 0.15322,-0.85108 0.50305,-1.54741 0.77741,-1.54741 0.27436,0 0.49883,-0.64798 0.49883,-1.43996 0,-0.79197 0.19438,-1.31982 0.43195,-1.17299 0.23756,0.14682 1.82015,-1.12363 3.51685,-2.82323 4.57191,-4.57972 7.73387,-6.06749 12.93211,-6.08485 3.64172,-0.0122 4.63358,0.21484 7.23561,1.65599 13.82594,7.65754 15.38758,34.17527 2.77516,47.12397 -4.27809,4.39214 -10.68889,6.6044 -15.77432,5.44342 z m 7.48494,-1.66355 c 5.11932,-1.30407 9.65443,-5.97921 13.15942,-13.56575 2.27442,-4.92296 2.74137,-7.45227 2.68398,-14.53817 -0.0576,-7.10866 -1.37024,-11.25873 -3.77871,-11.94666 -1.79116,-0.51161 -7.8084,-0.14815 -8.91035,0.53821 -0.36052,0.22455 -1.28853,0.36611 -2.06224,0.31456 l -1.40674,-0.0937 1.44529,0.60582 c 0.79491,0.3332 1.68116,1.04798 1.96944,1.58841 0.28828,0.54042 0.99649,1.8177 1.57379,2.83839 1.37274,2.42702 1.37274,6.69086 0,9.03501 -1.67886,2.86691 -3.84265,4.16085 -6.95796,4.16085 -6.47172,0 -10.35926,-7.12433 -7.21313,-13.21884 1.49937,-2.90449 4.34671,-5.03513 6.87432,-5.144 1.45666,-0.0627 1.32648,-0.15142 -0.78659,-0.53585 -6.75792,-1.22945 -10.41037,-1.68631 -12.23057,-1.52982 -1.90061,0.1634 -2.06759,0.35553 -3.57239,4.1103 -2.5922,6.46803 -3.41035,14.78145 -1.99355,20.25709 2.11122,8.15942 6.25937,14.10569 11.76001,16.85769 3.0417,1.52177 4.37095,1.55928 9.44598,0.26649 z m 11.63019,-41.75452 c 1.00107,0.0259 1.14935,-0.1538 0.73609,-0.892 -0.99077,-1.76983 -4.81956,-5.53047 -7.28341,-7.15378 -2.1964,-1.4471 -2.93697,-1.62484 -6.47102,-1.5531 -5.14414,0.10443 -8.8283,1.67583 -12.07108,5.14867 l -2.4593,2.63379 3.01902,0.48119 c 1.66046,0.26466 4.91812,0.82206 7.23924,1.23868 2.81732,0.50568 6.1843,0.64225 10.12855,0.41081 3.24958,-0.19067 6.47244,-0.33209 7.16191,-0.31426 z"
       id="path4311"
       inkscape:connector-curvature="0"
       inkscape:export-xdpi="34.128929"
       inkscape:export-ydpi="34.128929" />
    <path
       style="opacity:1;fill:#000000;fill-opacity:1;stroke:#000000;stroke-width:0.84010673;stroke-linecap:round;stroke-linejoin:bevel;stroke-miterlimit:4;stroke-dasharray:none;stroke-opacity:1"
       d="m 408.45471,252.88795 c -2.43056,-1.17689 -3.31106,-6.10568 -1.47094,-8.2338 1.74041,-2.01279 3.3308,-2.07194 5.20902,-0.19372 2.22867,2.22866 2.36294,5.6444 0.30285,7.70448 -1.49499,1.49499 -2.18989,1.61933 -4.04093,0.72304 z"
       id="path4313"
       inkscape:connector-curvature="0"
       inkscape:export-xdpi="34.128929"
       inkscape:export-ydpi="34.128929" />
    <path
       style="opacity:1;fill:#000000;fill-opacity:1;stroke:#000000;stroke-width:0.84010673;stroke-linecap:round;stroke-linejoin:bevel;stroke-miterlimit:4;stroke-dasharray:none;stroke-opacity:1"
       d="m 402.78588,274.31767 c -4.32057,-2.13866 -7.54282,-6.61368 -9.499,-13.19212 -1.35808,-4.56707 -1.35992,-13.96197 -0.004,-18.52265 3.65612,-12.29413 12.20364,-19.04477 21.08199,-16.65008 2.95362,0.79665 7.31034,4.67211 9.34522,8.31292 1.55141,2.77577 2.8932,6.74105 2.43583,7.19842 -0.15959,0.15959 -1.90935,-0.0915 -3.88836,-0.55801 -1.97901,-0.46649 -4.3867,-0.85191 -5.35043,-0.85649 l -1.75223,-0.008 1.33021,2.62751 c 2.73821,5.40866 1.2021,12.06843 -3.3226,14.40498 -7.2825,3.76067 -14.27021,-6.74575 -9.68745,-14.56564 0.77839,-1.32823 1.90812,-2.76017 2.51049,-3.18209 1.00173,-0.70164 0.77281,-0.84957 -2.68132,-1.73262 -4.90203,-1.2532 -6.77008,-1.07223 -7.70121,0.74607 -2.84795,5.56142 -3.35517,18.65106 -0.95992,24.77237 2.50873,6.41135 8.91124,11.81664 13.99667,11.81664 2.35426,0 6.82266,-1.96856 9.23577,-4.06883 3.10713,-2.70432 6.87923,-9.76192 8.14356,-15.23659 l 0.80455,-3.48381 -0.28745,3.2236 c -0.69919,7.84091 -6.14691,16.23693 -12.37841,19.07758 -3.14904,1.4355 -8.33729,1.37946 -11.37228,-0.12284 z m 10.02112,-21.9565 c 1.76846,-1.89314 1.94857,-2.99989 1.02781,-6.31578 -0.47007,-1.69284 -1.03135,-2.33595 -2.61687,-2.99843 -1.86838,-0.78066 -2.12661,-0.7626 -3.47335,0.24289 -2.1374,1.5958 -2.67257,4.07561 -1.52695,7.07536 1.49792,3.92226 4.06388,4.69951 6.58936,1.99596 z m 10.59054,-16.61891 c -4.69365,-8.20365 -9.46411,-10.66178 -16.62863,-8.56842 -1.75207,0.51193 -3.73439,1.78526 -5.92199,3.80395 -3.35463,3.09561 -4.06088,4.47821 -2.30361,4.50966 0.5416,0.01 4.52972,0.756 8.86248,1.65846 12.62717,2.63006 17.41137,3.30142 17.62555,2.47336 0.10007,-0.38688 -0.63514,-2.13153 -1.6338,-3.87701 z"
       id="path4315"
       inkscape:connector-curvature="0"
       inkscape:export-xdpi="34.128929"
       inkscape:export-ydpi="34.128929" />
    <path
       style="opacity:1;fill:#000000;fill-opacity:1;stroke:#000000;stroke-width:0.84010673;stroke-linecap:round;stroke-linejoin:bevel;stroke-miterlimit:4;stroke-dasharray:none;stroke-opacity:1"
       d="m 344.36915,275.51484 c 0.32048,-0.51854 0.11828,-0.60573 -0.75901,-0.32729 -0.73621,0.23366 -1.19586,0.13593 -1.19586,-0.25428 0,-0.3486 -0.25321,-0.47733 -0.56269,-0.28606 -0.30949,0.19128 -0.5627,0.0374 -0.5627,-0.34192 0,-0.37933 -0.1599,-0.52979 -0.35534,-0.33435 -0.19543,0.19543 -0.85087,0.0901 -1.45652,-0.23401 -1.85568,-0.99313 -5.51157,-4.52927 -5.20144,-5.03107 0.16085,-0.26026 -0.22816,-0.75182 -0.86446,-1.09236 -0.6363,-0.34054 -1.02467,-0.83314 -0.86304,-1.09466 0.16163,-0.26153 -0.11076,-0.63078 -0.60532,-0.82056 -0.51267,-0.19673 -0.76075,-0.70583 -0.57712,-1.18436 0.17714,-0.46161 0.0619,-0.8393 -0.25618,-0.8393 -0.31803,0 -0.42175,-0.25321 -0.23048,-0.5627 0.19127,-0.30948 0.0525,-0.56269 -0.30834,-0.56269 -0.36086,0 -0.51036,-0.37982 -0.33222,-0.84405 0.17814,-0.46422 0.0866,-0.84404 -0.20348,-0.84404 -0.29006,0 -0.38163,-0.37982 -0.20349,-0.84405 0.17814,-0.46422 0.0388,-0.84405 -0.30973,-0.84405 -0.40439,0 -0.49827,-0.53928 -0.25948,-1.49067 0.24153,-0.96233 0.16878,-1.36375 -0.20526,-1.13258 -0.38184,0.23599 -0.51796,-0.93451 -0.39924,-3.43293 0.14546,-3.06123 0.0941,-3.35773 -0.26688,-1.54023 -0.38341,1.93054 -0.4489,1.65032 -0.46029,-1.96944 -0.0102,-3.24119 0.0972,-3.82861 0.46298,-2.53213 0.35928,1.27346 0.42201,0.89338 0.25543,-1.54742 -0.13626,-1.99656 0.002,-3.23551 0.36142,-3.23551 0.32024,0 0.42568,-0.40799 0.23433,-0.90665 -0.19135,-0.49866 0.40492,-3.25686 1.32506,-6.12933 1.54173,-4.81297 1.94221,-5.48123 5.10511,-8.51852 4.08296,-3.92083 8.27108,-6.51182 9.764,-6.04053 0.60827,0.19203 0.91324,0.10345 0.72006,-0.20914 -0.49712,-0.80435 8.05337,-0.42359 9.90072,0.44089 0.85108,0.39828 1.54741,0.9367 1.54741,1.19651 0,0.25981 0.18991,0.41607 0.42203,0.34724 0.74138,-0.21983 3.51974,1.91603 3.18885,2.45142 -0.17509,0.28329 -0.10961,0.44551 0.1455,0.36047 0.25512,-0.085 0.51605,0.049 0.57984,0.29789 0.0638,0.24888 0.69683,0.9368 1.40674,1.5287 0.70992,0.5919 1.09098,1.08461 0.84681,1.09491 -0.24416,0.0103 0.0724,0.57289 0.70338,1.25021 1.02871,1.1042 1.4093,2.17351 1.21394,3.41076 -0.0366,0.23211 0.21367,0.42202 0.55627,0.42202 0.34259,0 0.47715,0.37982 0.29901,0.84405 -0.17814,0.46422 -0.0515,0.84404 0.28135,0.84404 0.33288,0 0.45948,0.37982 0.28134,0.84405 -0.17814,0.46422 -0.0738,0.84404 0.23187,0.84404 0.32017,0 0.39716,0.6319 0.18162,1.49067 -0.2801,1.11603 -0.19663,1.38097 0.33212,1.05418 0.54367,-0.336 0.61819,0.0848 0.32371,1.82777 -0.23795,1.40841 -0.15484,2.40498 0.21986,2.63656 0.33132,0.20476 0.6024,1.38516 0.6024,2.62309 0,1.53559 -0.20292,2.12538 -0.6386,1.85611 -0.46142,-0.28517 -0.52991,0.33013 -0.24687,2.21758 0.26057,1.7376 0.18819,2.61226 -0.21617,2.61226 -0.36744,0 -0.46823,0.55643 -0.25482,1.40674 0.19419,0.77371 0.13571,1.40692 -0.12995,1.40714 -0.26567,2.2e-4 -0.523,0.68878 -0.57186,1.53014 -0.0489,0.84135 -0.35115,1.61717 -0.67176,1.72404 -0.32061,0.10687 -0.44346,0.55777 -0.27299,1.002 0.17047,0.44423 0.0147,0.8077 -0.34617,0.8077 -0.36086,0 -0.49961,0.25321 -0.30834,0.56269 0.19127,0.30949 0.0647,0.5627 -0.28135,0.5627 -0.34601,0 -0.47262,0.25321 -0.28135,0.5627 0.19127,0.30948 0.0647,0.56269 -0.28135,0.56269 -0.34601,0 -0.47832,0.24398 -0.29403,0.54218 0.1843,0.29819 -0.18058,1.05783 -0.81083,1.68809 -0.63026,0.63025 -0.97979,1.14592 -0.77674,1.14592 0.20305,0 -0.99972,1.32318 -2.67281,2.9404 -1.6731,1.61722 -3.23191,2.88329 -3.46402,2.81348 -0.23211,-0.0698 -0.42202,0.14124 -0.42202,0.46899 0,0.32775 -0.255,0.43831 -0.56667,0.24569 -0.31167,-0.19263 -0.71245,0.0297 -0.89062,0.49395 -0.18987,0.4948 -0.69219,0.70287 -1.21372,0.50274 -0.64089,-0.24593 -0.75945,-0.13054 -0.42382,0.41251 0.33673,0.54485 0.21636,0.65816 -0.43404,0.40858 -0.495,-0.18995 -0.98791,-0.0816 -1.09535,0.2407 -0.10745,0.32233 -1.93457,0.72567 -4.06028,0.8963 -3.01747,0.24221 -3.76913,0.15525 -3.42806,-0.39661 z m 10.02799,-4.14659 c 5.21865,-3.05833 10.43147,-11.11417 11.71453,-18.10352 0.82782,-4.50945 0.36592,-14.59343 -0.79257,-17.30294 l -0.90221,-2.11011 -4.10826,0.0395 c -2.25955,0.0218 -4.56732,0.22057 -5.12839,0.44181 -0.97044,0.38266 -0.96448,0.47299 0.12224,1.85454 0.6283,0.79875 0.98185,1.6128 0.78567,1.80898 -0.19619,0.19619 -0.0463,0.3567 0.33298,0.3567 0.37933,0 0.5332,0.25322 0.34193,0.5627 -0.19127,0.30948 -0.0625,0.5627 0.28606,0.5627 0.3902,0 0.48793,0.45964 0.25427,1.19586 -0.25541,0.80473 -0.1758,1.06993 0.24343,0.81083 0.41699,-0.25771 0.62298,0.38118 0.62298,1.93219 0,1.551 -0.20599,2.18989 -0.62298,1.93218 -0.41923,-0.2591 -0.49884,0.006 -0.24343,0.81084 0.23366,0.73621 0.13593,1.19586 -0.25427,1.19586 -0.34861,0 -0.49373,0.22668 -0.3225,0.50373 0.17123,0.27706 -0.10329,0.66284 -0.61003,0.85729 -0.50674,0.19446 -0.7607,0.51421 -0.56435,0.71056 0.5017,0.50169 -0.77657,1.92262 -1.38905,1.54409 -0.2766,-0.17095 -0.64869,0.0691 -0.82686,0.53336 -0.18987,0.4948 -0.69219,0.70287 -1.21372,0.50274 -0.50837,-0.19508 -0.74405,-0.10563 -0.5498,0.20867 0.20373,0.32964 -0.76057,0.55011 -2.40616,0.55011 -1.64559,0 -2.60989,-0.22047 -2.40616,-0.55011 0.19424,-0.3143 -0.0414,-0.40375 -0.5498,-0.20867 -0.52153,0.20013 -1.02386,-0.008 -1.21373,-0.50274 -0.17817,-0.4643 -0.55586,-0.70085 -0.83932,-0.52566 -0.73143,0.45205 -3.55166,-3.06119 -3.19773,-3.98351 0.16151,-0.42089 0.018,-0.76526 -0.31901,-0.76526 -0.8647,0 -0.31613,-6.7192 0.59451,-7.28201 0.39176,-0.24212 0.69067,-0.60182 0.66424,-0.79933 -0.1443,-1.07817 -0.003,-1.62713 0.33221,-1.2918 0.48281,0.48281 2.99591,-1.84371 2.99591,-2.77347 0,-0.69329 -1.38385,-1.00848 -7.35542,-1.67532 l -3.13519,-0.3501 -1.47424,3.28781 c -2.08237,4.64406 -2.77242,8.14361 -2.77395,14.06787 -0.003,10.07152 3.89696,18.35675 10.44777,22.19793 2.6295,1.54185 3.2394,1.6714 6.90436,1.46654 3.0534,-0.17067 4.62987,-0.58207 6.55604,-1.71088 z m 7.22956,-40.81827 c 1.30027,-0.48666 1.27113,-0.54958 -1.50002,-3.23955 -3.76772,-3.65733 -4.97442,-4.55089 -5.78213,-4.28166 -0.37198,0.124 -0.67633,0.002 -0.67633,-0.27001 0,-0.2725 -1.65167,-0.44709 -3.67038,-0.38799 -4.39074,0.12857 -8.88376,2.09058 -11.43095,4.99166 -0.92047,1.04836 -1.82404,1.79785 -2.00793,1.66554 -0.18389,-0.13231 -0.21878,-0.0828 -0.0775,0.11002 0.14124,0.19283 1.85044,0.46211 3.79821,0.59841 1.94777,0.1363 3.6225,0.47507 3.72163,0.75283 0.0991,0.27775 0.92208,0.35663 1.82877,0.1753 0.90669,-0.18134 1.64853,-0.0921 1.64853,0.19842 0,0.65442 12.28981,0.38257 14.14814,-0.31297 z"
       id="path4317"
       inkscape:connector-curvature="0"
       inkscape:export-xdpi="34.128929"
       inkscape:export-ydpi="34.128929" />
    <path
       style="opacity:1;fill:#000000;fill-opacity:1;stroke:#000000;stroke-width:0.84010673;stroke-linecap:round;stroke-linejoin:bevel;stroke-miterlimit:4;stroke-dasharray:none;stroke-opacity:1"
       d="m 405.63017,275.91328 c -0.14313,-0.23211 1.18959,-0.42202 2.96159,-0.42202 1.77201,0 3.06229,0.15953 2.8673,0.35452 -0.51103,0.51104 -5.51963,0.56904 -5.82889,0.0675 z"
       id="path4319"
       inkscape:connector-curvature="0"
       inkscape:export-xdpi="34.128929"
       inkscape:export-ydpi="34.128929" />
    <path
       style="opacity:1;fill:#000000;fill-opacity:1;stroke:#000000;stroke-width:0.07425565;stroke-linecap:round;stroke-linejoin:bevel;stroke-miterlimit:4;stroke-dasharray:none;stroke-opacity:1"
       d="m 374.57369,148.40901 c 0.0114,-0.0107 0.55787,-0.11082 1.21438,-0.2224 2.13128,-0.3622 4.18186,-0.61096 6.4408,-0.78133 1.26531,-0.0954 5.30281,-0.14923 6.78894,-0.0905 1.05404,0.0417 0.99382,0.0445 -1.64128,0.0757 -1.50451,0.0178 -3.16071,0.0576 -3.68045,0.0885 -2.97585,0.1764 -5.42476,0.4218 -8.00748,0.80241 -0.99093,0.14603 -1.15427,0.16473 -1.11491,0.12761 z"
       id="path4321"
       inkscape:connector-curvature="0"
       inkscape:export-xdpi="34.128929"
       inkscape:export-ydpi="34.128929" />
    <path
       style="opacity:1;fill:#000000;fill-opacity:1;stroke:#000000;stroke-width:0.07425565;stroke-linecap:round;stroke-linejoin:bevel;stroke-miterlimit:4;stroke-dasharray:none;stroke-opacity:1"
       d="m 391.02279,147.4496 c 0.0359,-0.0144 0.0788,-0.0126 0.0953,0.004 0.0165,0.0165 -0.0128,0.0283 -0.0653,0.0261 -0.0579,-0.002 -0.0697,-0.0142 -0.0301,-0.0301 z"
       id="path4323"
       inkscape:connector-curvature="0"
       inkscape:export-xdpi="34.128929"
       inkscape:export-ydpi="34.128929" />
    <path
       style="opacity:1;fill:#000000;fill-opacity:1;stroke:#000000;stroke-width:0.07425565;stroke-linecap:round;stroke-linejoin:bevel;stroke-miterlimit:4;stroke-dasharray:none;stroke-opacity:1"
       d="m 408.80119,158.38555 c -0.27819,-0.51147 -0.73979,-1.37602 -1.02578,-1.92123 l -0.51998,-0.99129 0.35542,-0.71285 0.35543,-0.71286 0.10678,0.70943 c 0.19297,1.28208 0.51484,2.5001 1.01678,3.84764 0.13855,0.37198 0.24409,0.68414 0.23453,0.69371 -0.01,0.01 -0.24499,-0.40109 -0.52318,-0.91255 z"
       id="path4325"
       inkscape:connector-curvature="0"
       inkscape:export-xdpi="34.128929"
       inkscape:export-ydpi="34.128929" />
    <path
       style="opacity:1;fill:#000000;fill-opacity:1;stroke:#000000;stroke-width:0.07425565;stroke-linecap:round;stroke-linejoin:bevel;stroke-miterlimit:4;stroke-dasharray:none;stroke-opacity:1"
       d="m 355.62188,177.18832 0.002,-23.31369 1.17953,-0.56904 c 10.10864,-4.87676 20.21715,-7.20147 30.64802,-7.04829 4.44986,0.0653 8.21374,0.48493 12.54638,1.39864 1.64649,0.34723 3.95395,0.93975 5.2342,1.34406 0.24546,0.0775 0.99804,0.21201 1.96456,0.35107 2.51382,0.36169 2.46765,0.35161 2.51738,0.54978 0.0161,0.0643 -0.006,0.22189 -0.0502,0.35029 -0.0437,0.1284 -0.074,0.23678 -0.0673,0.24086 0.007,0.004 0.42634,0.17201 0.9324,0.3732 2.76102,1.09768 5.81752,2.58252 8.52329,4.14059 4.52526,2.60577 8.76284,5.73409 12.91132,9.53152 1.11431,1.02002 4.03891,3.98469 5.1082,5.17819 4.23023,4.72164 7.80342,9.68625 11.04322,15.34352 2.31434,4.04123 5.06461,9.76096 6.8038,14.14985 0.26558,0.67019 0.49292,1.23532 0.5052,1.25583 0.0123,0.0205 -1.99139,0.0373 -4.4526,0.0373 l -4.47493,0 -0.6245,-1.21436 c -4.12098,-8.01326 -9.83045,-16.66153 -16.42607,-24.88094 -2.39831,-2.98877 -4.50876,-5.39904 -7.72136,-8.81833 -1.07829,-1.14765 -5.02528,-5.21135 -5.38438,-5.54358 -0.1461,-0.13517 -0.69088,-0.6618 -1.21062,-1.17029 -1.60904,-1.57422 -3.82756,-3.5824 -3.95761,-3.5824 -0.0734,0 0.0605,0.30591 0.5987,1.36774 1.96569,3.87851 6.0347,10.32441 11.66362,18.47687 4.24662,6.15046 5.31434,7.79472 5.71387,8.79923 0.26823,0.67439 0.18451,1.18292 -0.23769,1.44385 -0.26037,0.16092 -0.51076,0.13455 -0.85429,-0.09 -1.67196,-1.09272 -7.93678,-8.29838 -12.31241,-14.16145 -2.17934,-2.92018 -5.34913,-8.03538 -7.88756,-12.72843 -0.3845,-0.71087 -0.79522,-1.48697 -0.91271,-1.72468 -0.11748,-0.23771 -0.23167,-0.42103 -0.25375,-0.40739 -0.0221,0.0136 -0.0401,0.11079 -0.0401,0.21588 0,0.3745 -0.20349,1.3723 -0.3993,1.95795 -0.26828,0.80241 -0.86938,1.97883 -2.20112,4.30789 -2.73957,4.79116 -5.79764,8.96648 -11.0214,15.04798 -7.53879,8.77666 -12.93176,13.59442 -18.93031,16.91121 -2.93549,1.62313 -7.64274,3.57065 -12.80343,5.29712 l -1.48288,0.49609 -2.09528,0 -2.09528,0 0.002,-23.31368 z m 70.12587,-8.434 c 0,-0.009 -0.0616,-0.0704 -0.13677,-0.13677 l -0.13678,-0.12057 0.12058,0.13677 c 0.11269,0.12783 0.15297,0.15958 0.15297,0.12057 z m -0.82939,-0.93819 c -0.84952,-0.95665 -2.50005,-2.76423 -3.4186,-3.74387 -1.05499,-1.12517 -5.21726,-5.28558 -6.24628,-6.2435 -0.424,-0.3947 0.14672,0.19025 1.26827,1.29988 2.69717,2.66853 5.44488,5.52354 7.92866,8.23829 0.5311,0.58049 0.97479,1.05544 0.98597,1.05544 0.0112,0 -0.22193,-0.27281 -0.51802,-0.60624 z m -15.36743,-8.17507 c -0.22734,-0.53976 -0.3134,-0.70836 -0.23989,-0.46995 0.0356,0.11541 0.0319,0.11884 -0.053,0.0497 -0.0537,-0.0437 -0.002,0.0892 0.12706,0.32367 0.46456,0.8469 0.48744,0.86023 0.16579,0.0965 z m -0.4647,-0.71824 c -0.0558,-0.10942 -0.11268,-0.19894 -0.12635,-0.19894 -0.0137,0 0.0208,0.0895 0.0766,0.19894 0.0558,0.10942 0.11268,0.19894 0.12636,0.19894 0.0137,0 -0.0208,-0.0895 -0.0766,-0.19894 z m -0.24867,-0.44762 c -0.0558,-0.10942 -0.11269,-0.19894 -0.12636,-0.19894 -0.0137,0 0.0208,0.0895 0.0766,0.19894 0.0558,0.10942 0.11268,0.19894 0.12636,0.19894 0.0137,0 -0.0208,-0.0895 -0.0766,-0.19894 z m -0.37302,-0.6963 c -0.0693,-0.13678 -0.13721,-0.24868 -0.15089,-0.24868 -0.0137,0 0.0318,0.1119 0.10115,0.24868 0.0693,0.13677 0.13721,0.24868 0.15088,0.24868 0.0137,0 -0.0318,-0.11191 -0.10114,-0.24868 z m 12.80698,-0.27083 c 0,-0.0414 -1.71218,-1.08517 -2.85981,-1.74332 -1.159,-0.66465 -2.91735,-1.60373 -3.66763,-1.95875 -0.22589,-0.10689 -0.71286,-0.33914 -1.08215,-0.51611 -1.33985,-0.64207 -4.35723,-1.91329 -4.41182,-1.85869 -0.0692,0.0693 0.25052,1.42044 0.56319,2.37971 0.20525,0.62971 0.31739,0.86245 0.31739,0.65873 0,-0.13682 0.18879,-0.35766 0.3286,-0.38439 0.30612,-0.0585 0.80531,0.22763 1.71057,0.98055 l 0.52222,0.43434 -0.8004,-0.78789 c -1.24338,-1.22392 -1.58983,-1.6992 -1.46255,-2.00647 0.0781,-0.18866 0.28654,-0.26915 0.5821,-0.22483 1.09767,0.16461 5.95773,2.50692 9.34018,4.50152 0.38296,0.22583 0.74045,0.44146 0.7944,0.47917 0.10522,0.0736 0.12571,0.0811 0.12571,0.0464 z m -13.18,-0.42548 c -0.0829,-0.16412 -0.16183,-0.29841 -0.17551,-0.29841 -0.0137,0 0.0429,0.13429 0.12577,0.29841 0.0829,0.16413 0.16183,0.29842 0.17551,0.29842 0.0137,0 -0.0429,-0.13429 -0.12577,-0.29842 z m 6.31645,-0.0148 c 0,-0.008 -0.0951,-0.10325 -0.21138,-0.21138 l -0.21137,-0.1966 0.1966,0.21138 c 0.18284,0.19658 0.22615,0.23423 0.22615,0.1966 z m -6.81381,-0.93021 c -0.0293,-0.0547 -0.0644,-0.0995 -0.0781,-0.0995 -0.0137,0 -8.9e-4,0.0448 0.0284,0.0995 0.0293,0.0547 0.0644,0.0995 0.0781,0.0995 0.0137,0 8.9e-4,-0.0448 -0.0284,-0.0995 z m 5.42121,-0.36531 c 0,-0.009 -0.0504,-0.0598 -0.11191,-0.1119 l -0.1119,-0.0948 0.0947,0.11191 c 0.089,0.10516 0.12907,0.13454 0.12907,0.0947 z m -4.93961,-1.2853 c -0.0159,-0.0397 -0.0277,-0.0279 -0.0301,0.03 -0.002,0.0524 0.01,0.0818 0.0261,0.0653 0.0165,-0.0165 0.0183,-0.0594 0.004,-0.0953 l 0,0 z m -0.0729,-0.49711 c -0.03,-0.03 -0.0587,-0.0178 -0.0783,0.0332 -0.018,0.0469 -0.0104,0.0678 0.0183,0.0501 0.027,-0.0167 0.0522,0.0213 0.0559,0.0845 l 0.007,0.11484 0.0223,-0.11764 c 0.0123,-0.0647 9.9e-4,-0.13895 -0.025,-0.16499 z m -36.28173,-4.99455 c -0.0165,-0.0165 -0.0594,-0.0183 -0.0953,-0.004 -0.0397,0.0159 -0.0279,0.0277 0.03,0.0301 0.0524,0.002 0.0818,-0.01 0.0653,-0.0261 z m 0.22485,-0.0526 c -0.0342,-0.0138 -0.0901,-0.0138 -0.12434,0 -0.0342,0.0138 -0.006,0.0251 0.0622,0.0251 0.0684,0 0.0964,-0.0113 0.0622,-0.0251 z m 1.11671,-0.18728 c 0.51419,-0.0938 1.12513,-0.19953 1.35765,-0.23503 0.34183,-0.0522 0.39419,-0.0708 0.27355,-0.0972 -0.13863,-0.0303 -0.1404,-0.0333 -0.0249,-0.0424 0.0684,-0.005 0.0993,-0.0201 0.0687,-0.0327 -0.0521,-0.0215 -2.25414,0.426 -2.58035,0.52433 -0.28649,0.0863 -0.0227,0.0523 0.90533,-0.11696 z m 2.01665,-0.35981 c -0.0342,-0.0138 -0.0901,-0.0138 -0.12434,0 -0.0342,0.0138 -0.006,0.0251 0.0622,0.0251 0.0684,0 0.0964,-0.0113 0.0622,-0.0251 z m 0.37198,-0.0469 c -0.0165,-0.0165 -0.0594,-0.0183 -0.0953,-0.004 -0.0397,0.0159 -0.0279,0.0277 0.03,0.0301 0.0524,0.002 0.0818,-0.01 0.0653,-0.0261 z m -0.44762,-0.0497 c -0.0165,-0.0165 -0.0594,-0.0183 -0.0953,-0.004 -0.0397,0.0159 -0.0279,0.0277 0.0301,0.03 0.0524,0.002 0.0818,-0.01 0.0653,-0.0261 z m 0.79577,0 c -0.0165,-0.0165 -0.0594,-0.0183 -0.0953,-0.004 -0.0397,0.0159 -0.0279,0.0277 0.0301,0.03 0.0524,0.002 0.0818,-0.01 0.0653,-0.0261 z m -0.49736,-0.0497 c -0.0165,-0.0165 -0.0594,-0.0183 -0.0953,-0.004 -0.0397,0.0159 -0.0279,0.0277 0.0301,0.0301 0.0524,0.002 0.0818,-0.01 0.0653,-0.0261 z m 0.84551,0 c -0.0165,-0.0165 -0.0594,-0.0183 -0.0953,-0.004 -0.0397,0.0159 -0.0279,0.0277 0.03,0.0301 0.0524,0.002 0.0818,-0.01 0.0653,-0.0261 z m -0.59683,-0.0497 c -0.0165,-0.0165 -0.0594,-0.0183 -0.0953,-0.004 -0.0397,0.0159 -0.0279,0.0277 0.03,0.03 0.0524,0.002 0.0818,-0.01 0.0653,-0.0261 z m 0.94498,0 c -0.0165,-0.0165 -0.0594,-0.0183 -0.0953,-0.004 -0.0397,0.0159 -0.0279,0.0277 0.0301,0.03 0.0524,0.002 0.0818,-0.01 0.0653,-0.0261 z m -0.67039,-0.0526 c -0.0342,-0.0138 -0.0901,-0.0138 -0.12434,0 -0.0342,0.0138 -0.006,0.0251 0.0622,0.0251 0.0684,0 0.0964,-0.0113 0.0622,-0.0251 z m 1.01855,0.003 c -0.0165,-0.0165 -0.0594,-0.0183 -0.0953,-0.004 -0.0397,0.0159 -0.0279,0.0277 0.0301,0.0301 0.0524,0.002 0.0818,-0.01 0.0653,-0.0261 z m -0.69631,-0.0497 c -0.0165,-0.0165 -0.0594,-0.0183 -0.0953,-0.004 -0.0397,0.0159 -0.0279,0.0277 0.03,0.03 0.0524,0.002 0.0818,-0.01 0.0653,-0.0261 z m 1.09419,0 c -0.0165,-0.0165 -0.0594,-0.0183 -0.0953,-0.004 -0.0397,0.0159 -0.0279,0.0277 0.0301,0.03 0.0524,0.002 0.0818,-0.01 0.0653,-0.0261 z m -0.79577,-0.0497 c -0.0165,-0.0165 -0.0594,-0.0183 -0.0953,-0.004 -0.0397,0.0159 -0.0279,0.0277 0.0301,0.03 0.0524,0.002 0.0818,-0.01 0.0653,-0.0261 z m 1.16983,-0.003 c -0.0342,-0.0138 -0.0902,-0.0138 -0.12434,0 -0.0342,0.0138 -0.006,0.0251 0.0622,0.0251 0.0684,0 0.0964,-0.0113 0.0622,-0.0251 z m -0.84551,-0.0497 c -0.0342,-0.0138 -0.0901,-0.0138 -0.12434,0 -0.0342,0.0138 -0.006,0.0251 0.0622,0.0251 0.0684,0 0.0964,-0.0113 0.0622,-0.0251 z m 1.26723,0.003 c -0.0165,-0.0165 -0.0594,-0.0183 -0.0953,-0.004 -0.0397,0.0159 -0.0279,0.0277 0.0301,0.0301 0.0524,0.002 0.0818,-0.01 0.0653,-0.0261 z m -0.94499,-0.0497 c -0.0165,-0.0165 -0.0594,-0.0183 -0.0953,-0.004 -0.0397,0.0159 -0.0279,0.0277 0.0301,0.03 0.0524,0.002 0.0818,-0.01 0.0653,-0.0261 z m 1.36878,-0.003 c -0.0342,-0.0138 -0.0901,-0.0138 -0.12434,0 -0.0342,0.0138 -0.006,0.0251 0.0622,0.0251 0.0684,0 0.0964,-0.0113 0.0622,-0.0251 z m -1.04446,-0.0497 c -0.0342,-0.0138 -0.0901,-0.0138 -0.12434,0 -0.0342,0.0138 -0.006,0.0251 0.0622,0.0251 0.0684,0 0.0964,-0.0113 0.0622,-0.0251 z m 1.49208,0 c -0.0342,-0.0138 -0.0901,-0.0138 -0.12434,0 -0.0342,0.0138 -0.006,0.0251 0.0622,0.0251 0.0684,0 0.0964,-0.0113 0.0622,-0.0251 z m -1.14298,-0.0494 c -0.0337,-0.0136 -0.10081,-0.0145 -0.14921,-0.002 -0.0484,0.0126 -0.0208,0.0238 0.0612,0.0248 0.0821,0.001 0.12165,-0.009 0.088,-0.0229 z m 1.5906,-3.2e-4 c -0.0342,-0.0138 -0.0901,-0.0138 -0.12434,0 -0.0342,0.0138 -0.006,0.0251 0.0622,0.0251 0.0684,0 0.0964,-0.0113 0.0622,-0.0251 z m -1.24339,-0.0497 c -0.0342,-0.0138 -0.0901,-0.0138 -0.12434,0 -0.0342,0.0138 -0.006,0.0251 0.0622,0.0251 0.0684,0 0.0964,-0.0113 0.0622,-0.0251 z m 1.74075,0 c -0.0342,-0.0138 -0.0901,-0.0138 -0.12434,0 -0.0342,0.0138 -0.006,0.0251 0.0622,0.0251 0.0684,0 0.0964,-0.0113 0.0622,-0.0251 z m -1.34192,-0.0494 c -0.0337,-0.0136 -0.10082,-0.0145 -0.14921,-0.002 -0.0484,0.0126 -0.0208,0.0238 0.0612,0.0248 0.0821,0.001 0.12166,-0.009 0.088,-0.0229 z m 1.9397,0 c -0.0337,-0.0136 -0.10082,-0.0145 -0.14921,-0.002 -0.0484,0.0126 -0.0208,0.0238 0.0612,0.0248 0.0821,0.001 0.12166,-0.009 0.088,-0.0229 z M 378.90995,147.7 c -0.0337,-0.0136 -0.10082,-0.0145 -0.14921,-0.002 -0.0484,0.0126 -0.0208,0.0238 0.0612,0.0248 0.0821,0.001 0.12166,-0.009 0.088,-0.0229 z m 2.0889,0 c -0.0337,-0.0136 -0.10081,-0.0145 -0.14921,-0.002 -0.0484,0.0126 -0.0208,0.0238 0.0612,0.0248 0.0821,0.001 0.12165,-0.009 0.088,-0.0229 z m -1.64128,-0.0497 c -0.0337,-0.0136 -0.10082,-0.0145 -0.14921,-0.002 -0.0484,0.0126 -0.0208,0.0238 0.0612,0.0248 0.0821,0.001 0.12166,-0.009 0.088,-0.0229 z m 2.23811,0 c -0.0337,-0.0136 -0.10081,-0.0145 -0.1492,-0.002 -0.0484,0.0126 -0.0208,0.0238 0.0612,0.0248 0.0821,0.001 0.12166,-0.009 0.088,-0.0229 z m -1.8163,-0.0514 c -0.0479,-0.0125 -0.12621,-0.0125 -0.17408,0 -0.0479,0.0125 -0.009,0.0227 0.087,0.0227 0.0957,0 0.13491,-0.0102 0.087,-0.0227 z m 2.53711,1.1e-4 c -0.0476,-0.0125 -0.13708,-0.0129 -0.19895,-0.001 -0.0619,0.0119 -0.023,0.0221 0.0865,0.0226 0.10942,5.5e-4 0.16004,-0.009 0.11249,-0.0216 z m -2.03917,-0.0497 c -0.0476,-0.0125 -0.13708,-0.0129 -0.19895,-0.001 -0.0619,0.0119 -0.023,0.0221 0.0865,0.0226 0.10942,5.5e-4 0.16004,-0.009 0.11249,-0.0216 z m 2.7852,0 c -0.0476,-0.0125 -0.13707,-0.0129 -0.19894,-0.001 -0.0619,0.0119 -0.023,0.0221 0.0865,0.0226 0.10942,5.5e-4 0.16004,-0.009 0.11248,-0.0216 z m -2.28785,-0.0497 c -0.0476,-0.0124 -0.13707,-0.0129 -0.19894,-10e-4 -0.0619,0.0119 -0.023,0.0221 0.0865,0.0226 0.10942,5.6e-4 0.16004,-0.009 0.11248,-0.0216 z m 3.15765,-0.002 c -0.0889,-0.011 -0.23438,-0.011 -0.32328,0 -0.0889,0.011 -0.0162,0.0201 0.16164,0.0201 0.17781,0 0.25054,-0.009 0.16164,-0.0201 z m 8.36806,-0.0174 c -0.52841,-0.0615 -2.53219,-0.19622 -2.79882,-0.18821 l -0.23507,0.007 0.19895,0.0356 c 0.11704,0.0209 -0.1884,0.0385 -0.7419,0.0427 -0.51746,0.004 -0.93095,0.0169 -0.91886,0.029 0.0121,0.0121 0.7376,0.0274 1.61227,0.0341 0.87466,0.007 1.8253,0.0266 2.11252,0.0443 0.28723,0.0177 0.65652,0.033 0.82065,0.0341 l 0.29841,0.002 -0.34815,-0.0405 z m -10.97861,-0.0305 c -0.0476,-0.0125 -0.13708,-0.0129 -0.19894,-0.001 -0.0619,0.0119 -0.023,0.0221 0.0864,0.0226 0.10942,5.5e-4 0.16004,-0.009 0.11249,-0.0216 z m 3.8049,-8.4e-4 c -0.0612,-0.0118 -0.17308,-0.0121 -0.24868,-6.8e-4 -0.0756,0.0114 -0.0256,0.0211 0.11122,0.0215 0.13677,3.7e-4 0.19863,-0.009 0.13746,-0.0208 z m -3.20807,-0.0489 c -0.0476,-0.0124 -0.13708,-0.0129 -0.19894,-0.001 -0.0619,0.0119 -0.023,0.0221 0.0865,0.0226 0.10942,5.6e-4 0.16004,-0.009 0.11249,-0.0216 z m 0.72059,-0.0507 c -0.0615,-0.0119 -0.16226,-0.0119 -0.22381,0 -0.0616,0.0119 -0.0112,0.0215 0.1119,0.0215 0.1231,0 0.17346,-0.01 0.11191,-0.0215 z m 6.25428,-0.0865 c 0.14168,-0.0305 -4.50296,-0.0161 -5.14766,0.0159 -0.35561,0.0177 0.64035,0.0249 2.21325,0.0162 1.57289,-0.009 2.89338,-0.0232 2.93441,-0.032 z"
       id="path4327"
       inkscape:connector-curvature="0"
       inkscape:export-xdpi="34.128929"
       inkscape:export-ydpi="34.128929" />
    <path
       style="opacity:1;fill:#000000;fill-opacity:1;stroke:#000000;stroke-width:0.07425565;stroke-linecap:round;stroke-linejoin:bevel;stroke-miterlimit:4;stroke-dasharray:none;stroke-opacity:1"
       d="m 411.20001,154.2732 c -0.44328,-0.29647 -0.77169,-0.32334 -0.98999,-0.081 -0.0521,0.0579 -0.11254,0.10518 -0.13429,0.10518 -0.0217,0 -0.11724,-0.2406 -0.21223,-0.53466 -0.29364,-0.90914 -0.60985,-2.25055 -0.53051,-2.25055 0.20236,0 4.91618,2.06534 4.85453,2.12699 -0.0133,0.0133 -0.32422,-0.11231 -0.6909,-0.27916 -0.87717,-0.39914 -1.82857,-0.77077 -2.25337,-0.8802 -0.58026,-0.14948 -0.89206,-0.0143 -0.88167,0.38226 0.006,0.24716 0.22205,0.57061 0.77218,1.1586 0.21918,0.23426 0.3797,0.42433 0.35672,0.42239 -0.023,-0.002 -0.1537,-0.0784 -0.29047,-0.16986 z"
       id="path4329"
       inkscape:connector-curvature="0"
       inkscape:export-xdpi="34.128929"
       inkscape:export-ydpi="34.128929" />
    <path
       style="opacity:1;fill:#000000;fill-opacity:1;stroke:#000000;stroke-width:0.07425565;stroke-linecap:round;stroke-linejoin:bevel;stroke-miterlimit:4;stroke-dasharray:none;stroke-opacity:1"
       d="m 355.62018,177.17972 0,-23.32228 0.53466,-0.25863 c 2.77847,-1.34398 4.93412,-2.27546 7.24059,-3.12875 6.85656,-2.53661 13.37905,-3.86976 20.47472,-4.18487 1.46206,-0.0649 5.27039,-0.0344 6.59,0.0528 4.9528,0.32732 9.3956,1.09448 14.01972,2.42085 1.2028,0.345 1.30872,0.3667 2.98995,0.61253 1.88768,0.27602 2.0215,0.29993 2.15698,0.38546 0.12074,0.0762 0.12683,0.19905 0.0303,0.61144 -0.0277,0.11844 -0.002,0.13472 0.5331,0.34284 0.3092,0.12018 1.09934,0.44774 1.75586,0.72791 7.11507,3.03644 13.68893,7.31099 19.77,12.85514 1.1447,1.04363 4.24848,4.16417 5.26858,5.29702 4.13169,4.5884 7.69478,9.50494 10.92142,15.06997 1.9071,3.28921 4.4363,8.38191 6.07631,12.23502 0.45231,1.06269 1.4577,3.53004 1.4577,3.57738 0,0.0157 -2.02044,0.0285 -4.48987,0.0285 l -4.48987,0 -0.23948,-0.48492 c -0.63243,-1.2806 -1.81374,-3.4687 -2.90665,-5.38391 -4.62348,-8.10214 -11.27057,-17.42078 -17.4704,-24.492 -3.94077,-4.49465 -10.15538,-10.87117 -13.45071,-13.80117 -0.85293,-0.75836 -1.16664,-1.01631 -1.19794,-0.985 -0.0361,0.0361 0.47961,1.10977 0.99898,2.07988 2.07885,3.88296 5.97238,10.02078 10.81901,17.05527 4.34416,6.30518 5.36588,7.84965 5.91293,8.93815 0.46684,0.92889 0.51382,1.42748 0.17033,1.80768 -0.31974,0.35392 -0.61579,0.35048 -1.169,-0.0136 -0.35909,-0.23631 -2.36256,-2.22027 -3.35429,-3.32162 -3.08728,-3.42854 -6.89704,-8.08571 -9.19723,-11.24298 -2.23719,-3.0708 -5.43231,-8.30283 -7.91954,-12.96829 -0.73339,-1.37568 -0.80425,-1.46611 -0.80678,-1.02968 -0.002,0.29268 -0.21663,1.27638 -0.40274,1.8433 -0.42448,1.29309 -2.86428,5.60039 -4.8861,8.6261 -2.4352,3.64434 -5.95071,8.05428 -10.50682,13.18 -3.06896,3.45265 -6.26606,6.66 -8.82127,8.84957 -3.13707,2.68816 -6.18057,4.73287 -9.47738,6.36715 -2.91526,1.44514 -6.69527,2.95729 -11.18408,4.47406 l -1.48559,0.50198 -2.13269,0 -2.1327,0 0,-23.32228 z m 66.20978,-12.72378 c -0.30083,-0.32142 -0.86848,-0.91125 -1.26144,-1.31072 -0.39296,-0.39948 -0.57996,-0.57853 -0.41556,-0.39789 0.46435,0.51021 2.17578,2.293 2.20122,2.293 0.0125,0 -0.2234,-0.26298 -0.52422,-0.58439 z m -12.35198,-4.92849 c -0.0586,-0.14106 -0.12599,-0.25648 -0.1497,-0.25648 -0.0237,0 -0.0431,0.0135 -0.0431,0.03 0,0.0452 0.26859,0.5138 0.28507,0.49731 0.008,-0.008 -0.0336,-0.12973 -0.0923,-0.2708 z m 9.90358,-3.16046 c 0,-0.028 -1.78022,-1.04343 -2.71061,-1.54613 -0.83553,-0.45145 -3.08274,-1.56965 -3.14614,-1.56551 -0.0203,0.001 0.10853,0.0807 0.28633,0.17646 0.29284,0.15766 0.30051,0.18802 0.0249,0.0985 -0.0547,-0.0178 -0.0211,0.006 0.0746,0.0534 0.0957,0.0471 0.89028,0.43819 1.76563,0.86898 0.87535,0.4308 2.06155,1.04111 2.636,1.35624 1.10695,0.60724 1.06932,0.5876 1.06932,0.55801 z m -7.70906,-1.84579 c -0.36873,-0.37121 -0.54891,-0.51522 -0.27042,-0.21614 0.11436,0.12281 0.12481,0.14924 0.0481,0.12171 -0.0539,-0.0193 -0.0851,-0.0223 -0.0693,-0.007 0.0595,0.0595 0.61595,0.4714 0.63854,0.47267 0.013,7.3e-4 -0.14312,-0.16653 -0.34691,-0.37169 z m -1.52738,-0.17415 c 0.0158,-0.0602 0.006,-0.0872 -0.0246,-0.0682 -0.0279,0.0172 -0.0727,4.5e-4 -0.0995,-0.0372 -0.0372,-0.0522 -0.0418,-0.0468 -0.0193,0.0226 0.0163,0.0501 0.0296,0.11166 0.0296,0.13678 0,0.0869 0.088,0.0453 0.1139,-0.0539 z m 2.96972,-1.29306 c -0.0957,-0.0524 -0.19646,-0.0953 -0.22381,-0.0953 -0.0274,0 0.0286,0.0429 0.12434,0.0953 0.0957,0.0524 0.19645,0.0953 0.22381,0.0953 0.0273,0 -0.0286,-0.0429 -0.12434,-0.0953 z m -3.54701,-0.25801 c -0.0159,-0.0397 -0.0277,-0.0279 -0.03,0.03 -0.002,0.0524 0.01,0.0818 0.0261,0.0653 0.0165,-0.0165 0.0183,-0.0594 0.004,-0.0953 l -10e-6,0 z m 3.04965,0.0342 c -0.0684,-0.0391 -0.14672,-0.0711 -0.17407,-0.0711 -0.0274,0 0.006,0.032 0.0746,0.0711 0.0684,0.0391 0.14672,0.0711 0.17407,0.0711 0.0274,0 -0.006,-0.032 -0.0746,-0.0711 z m -3.09938,-0.23314 c -0.0159,-0.0397 -0.0277,-0.0279 -0.03,0.03 -0.002,0.0524 0.01,0.0818 0.0261,0.0653 0.0165,-0.0165 0.0183,-0.0594 0.004,-0.0953 l 0,0 z m 2.70149,0.0591 c -0.041,-0.0265 -0.097,-0.0482 -0.12434,-0.0482 -0.0273,0 -0.0162,0.0217 0.0249,0.0482 0.041,0.0265 0.097,0.0482 0.12434,0.0482 0.0274,0 0.0162,-0.0217 -0.0249,-0.0482 z m -2.75123,-0.258 c -0.0159,-0.0397 -0.0277,-0.0279 -0.03,0.03 -0.002,0.0524 0.01,0.0818 0.0261,0.0653 0.0165,-0.0165 0.0183,-0.0594 0.004,-0.0953 l -10e-6,0 z m -0.0497,-0.19895 c -0.0159,-0.0397 -0.0277,-0.0279 -0.0301,0.0301 -0.002,0.0524 0.01,0.0818 0.0261,0.0653 0.0165,-0.0165 0.0183,-0.0594 0.004,-0.0953 l -10e-6,0 z m 1.65705,-0.0404 c -0.041,-0.0265 -0.097,-0.0482 -0.12434,-0.0482 -0.0274,0 -0.0162,0.0217 0.0249,0.0482 0.041,0.0265 0.097,0.0482 0.12434,0.0482 0.0273,0 0.0162,-0.0217 -0.0249,-0.0482 z m -1.70678,-0.20826 c -0.0159,-0.0397 -0.0277,-0.0279 -0.03,0.03 -0.002,0.0524 0.01,0.0818 0.0261,0.0653 0.0165,-0.0165 0.0183,-0.0594 0.004,-0.0953 l 0,0 z m -0.0508,-0.30153 c -0.0138,-0.0342 -0.0251,-0.006 -0.0251,0.0622 0,0.0684 0.0113,0.0964 0.0251,0.0622 0.0138,-0.0342 0.0138,-0.0901 0,-0.12434 z m -35.62052,-3.02204 c 0.46416,-0.0817 0.86591,-0.14862 0.89276,-0.14862 0.0308,0 0.0314,-0.017 0.002,-0.046 -0.0391,-0.0381 -1.59785,0.23737 -1.78801,0.316 -0.11617,0.048 0.093,0.0196 0.89368,-0.12137 l 0,0 z m 16.86579,-1.25599 c -0.44901,-0.0309 -0.7813,-0.0305 -0.94498,0.001 -0.2013,0.0389 -0.061,0.0485 0.69254,0.0477 l 0.94498,-0.001 -0.69254,-0.0477 z"
       id="path4331"
       inkscape:connector-curvature="0"
       inkscape:export-xdpi="34.128929"
       inkscape:export-ydpi="34.128929" />
    <path
       style="opacity:1;fill:#000000;fill-opacity:1;stroke:#000000;stroke-width:0.07425565;stroke-linecap:round;stroke-linejoin:bevel;stroke-miterlimit:4;stroke-dasharray:none;stroke-opacity:1"
       d="m 355.62018,177.1722 0,-23.32979 1.05689,-0.51144 c 5.34613,-2.58703 10.56835,-4.42031 16.00251,-5.61774 2.97953,-0.65655 5.95525,-1.08275 9.45446,-1.35413 1.35194,-0.10485 5.86332,-0.14906 7.50547,-0.0736 4.68639,0.21548 9.46804,0.97554 14.00065,2.22545 0.65651,0.18104 1.38726,0.38081 1.62389,0.44393 0.44019,0.11742 1.16341,0.24222 3.11248,0.53707 0.71819,0.10864 1.15102,0.19698 1.23508,0.25206 0.1213,0.0795 0.12839,0.1056 0.11287,0.41589 l -0.0165,0.33109 0.59683,0.24176 c 6.59484,2.67134 12.13116,5.91377 17.6811,10.35522 3.00847,2.40758 5.49146,4.733 8.65579,8.10648 1.54535,1.6475 3.68719,4.24059 5.42167,6.56392 4.13226,5.53519 7.512,11.3656 10.91837,18.83536 0.79945,1.75311 2.35001,5.43355 2.43972,5.79098 l 0.0294,0.11725 -4.50617,0 -4.50618,0 -0.37986,-0.75847 c -3.42799,-6.84479 -9.08903,-15.62326 -14.88759,-23.0859 -3.35832,-4.3221 -6.11345,-7.50255 -10.49242,-12.1122 -1.66882,-1.75674 -6.43408,-6.4966 -7.58865,-7.54821 -1.16206,-1.05843 -1.81971,-1.61787 -1.8575,-1.58008 -0.041,0.041 0.9885,2.05337 1.6662,3.257 2.32822,4.13508 5.6437,9.28021 10.97693,17.03454 3.96701,5.7679 5.04693,7.45668 5.35008,8.36649 0.20825,0.62501 0.0858,1.10901 -0.34132,1.34906 -0.48551,0.27287 -0.82326,0.048 -2.59291,-1.72609 -2.83115,-2.83829 -7.08967,-7.88943 -10.4905,-12.44305 -2.36335,-3.16445 -5.50019,-8.24444 -8.30605,-13.45133 -0.30956,-0.57444 -0.61373,-1.12009 -0.67594,-1.21254 l -0.11312,-0.16809 -0.0279,0.19296 c -0.0808,0.55939 -0.25858,1.38885 -0.3824,1.7845 -0.41032,1.31109 -2.81575,5.57822 -4.93446,8.75352 -2.05643,3.08196 -5.03664,6.89704 -8.58627,10.99162 -6.83094,7.87967 -11.76728,12.42024 -16.96188,15.60198 -3.43241,2.10239 -8.06149,4.11287 -14.40813,6.25769 l -1.4695,0.4966 -2.15756,0 -2.15757,0 0,-23.3298 z m 62.07036,-21.75143 c 0,-0.081 -3.42487,-1.82982 -3.4966,-1.78549 -0.0283,0.0175 0.74131,0.42975 1.71017,0.91619 1.90897,0.95845 1.78643,0.89882 1.78643,0.8693 z m -6.04291,-0.8747 c -0.0495,-0.0547 -0.11453,-0.099 -0.14448,-0.0984 -0.0299,6.1e-4 10e-4,0.0449 0.0699,0.0984 0.1602,0.12531 0.18801,0.12531 0.0746,0 z m -1.51694,-0.19895 c 0,-0.0274 -0.0224,-0.0497 -0.0497,-0.0497 -0.0274,0 -0.0497,0.0224 -0.0497,0.0497 0,0.0274 0.0224,0.0497 0.0497,0.0497 0.0274,0 0.0497,-0.0224 0.0497,-0.0497 z"
       id="path4333"
       inkscape:connector-curvature="0"
       inkscape:export-xdpi="34.128929"
       inkscape:export-ydpi="34.128929" />
  </g>
</svg>
