<?xml version="1.0" encoding="UTF-8" standalone="no"?>
<!-- Created with Inkscape (http://www.inkscape.org/) -->

<svg
   xmlns:dc="http://purl.org/dc/elements/1.1/"
   xmlns:cc="http://creativecommons.org/ns#"
   xmlns:rdf="http://www.w3.org/1999/02/22-rdf-syntax-ns#"
   xmlns:svg="http://www.w3.org/2000/svg"
   xmlns="http://www.w3.org/2000/svg"
   xmlns:sodipodi="http://sodipodi.sourceforge.net/DTD/sodipodi-0.dtd"
   xmlns:inkscape="http://www.inkscape.org/namespaces/inkscape"
   id="svg2"
   version="1.1"
   inkscape:version="0.91 r13725"
   width="660"
   height="660"
   viewBox="0 0 660 660"
   sodipodi:docname="ARCs.svg">
  <metadata
     id="metadata8">
    <rdf:RDF>
      <cc:Work
         rdf:about="">
        <dc:format>image/svg+xml</dc:format>
        <dc:type
           rdf:resource="http://purl.org/dc/dcmitype/StillImage" />
        <dc:title></dc:title>
      </cc:Work>
    </rdf:RDF>
  </metadata>
  <defs
     id="defs6" />
  <sodipodi:namedview
     pagecolor="#ffffff"
     bordercolor="#666666"
     borderopacity="1"
     objecttolerance="10"
     gridtolerance="10"
     guidetolerance="10"
     inkscape:pageopacity="0"
     inkscape:pageshadow="2"
     inkscape:window-width="1920"
     inkscape:window-height="1072"
     id="namedview4"
     showgrid="false"
     inkscape:zoom="0.50568849"
     inkscape:cx="250.89992"
     inkscape:cy="1200.1009"
     inkscape:window-x="0"
     inkscape:window-y="33"
     inkscape:window-maximized="1"
     inkscape:current-layer="svg2" />
  <path
     style="fill:#000000"
     d="m -614.81664,-450.30162 c -2.13185,-0.34662 -4.60627,-1.5786 -5.57604,-2.77621 -1.6688,-2.06088 -1.63828,-2.4623 0.71287,-9.37685 6.61844,-19.46423 15.03764,-40.39235 16.8723,-41.94052 1.90537,-1.60783 13.20764,-1.71884 178.17363,-1.75 166.30374,-0.0314 176.2579,0.0644 178.26451,1.71673 1.16891,0.9625 3.26689,4.9 4.66217,8.75 1.39529,3.85 4.59973,12.625 7.12097,19.5 7.62624,20.79544 7.58127,20.5846 5.01527,23.51237 l -2.20213,2.51261 -189.60549,0.23751 c -104.28301,0.13063 -191.33013,-0.0429 -193.43806,-0.38564 z m 369.51779,-11.65491 2.19582,-1.77806 -6.08133,-16.78077 c -6.42838,-17.73843 -7.7186,-20.71605 -9.48843,-21.8978 -0.60517,-0.40408 -75.39306,-0.74158 -166.19532,-0.75 -155.98311,-0.0145 -165.18116,0.0813 -166.65609,1.73469 -1.68817,1.89247 -12.32555,29.88328 -13.402,35.26555 -0.50895,2.54473 -0.24107,3.58866 1.18923,4.63452 1.53335,1.12122 31.86808,1.34993 179.04422,1.34993 168.33545,0 177.30792,-0.0889 179.3939,-1.77806 z m 36.35216,1.78738 c -2.29548,-0.48342 -5.44548,-1.54619 -7,-2.36171 -4.52551,-2.37414 -10.11363,-8.78733 -11.78353,-13.52334 -2.05825,-5.83738 -2.01352,-15.0073 0.0878,-18.0074 3.17798,-4.53716 6.65353,-5.11687 30.67749,-5.11687 l 22.3724,0 6.23334,3.11484 c 11.57296,5.78308 17.75152,18.94069 13.97768,29.76632 -2.04188,5.85735 -4.80092,6.50384 -28.89158,6.76977 -11.825,0.13053 -23.37812,-0.1582 -25.6736,-0.64161 z m -540.71152,-30.09762 c -4.40731,-3.46678 -5.61488,-6.99442 -5.61488,-16.40253 0,-7.04138 -0.36308,-9.08125 -2.01379,-11.31395 -1.99546,-2.699 -2.0136,-3.96476 -1.99336,-139.06645 0.019,-126.48708 0.14327,-136.55062 1.71985,-139.21956 3.5687,-6.04132 1.96372,-5.90957 71.93843,-5.90547 61.56238,0.004 63.96352,0.0736 67.05032,1.95578 6.75003,4.11573 6.29855,-6.09332 6.29855,142.42572 0,87.58297 -0.3501,135.40541 -1.00388,137.12497 -0.55214,1.45223 -1.67714,3.31366 -2.5,4.13653 -1.12954,1.12954 -1.49612,3.957 -1.49612,11.53982 l 0,10.0437 -3.69542,3.38487 -3.69541,3.38487 -61.16973,0 c -60.51764,0 -61.19803,-0.0223 -63.82456,-2.0883 z m 119.88831,-9.5513 c 1.09477,-0.4201 1.49681,-2.15722 1.49681,-6.46739 l 0,-5.89301 -57.5,0 -57.5,0 0,5.91667 c 0,3.7933 0.4486,6.10061 1.25,6.42922 1.73233,0.71033 110.4033,0.72438 112.25319,0.0145 z m -4.56485,-170.18767 c 4.82417,-2.58723 7.06166,-7.31056 7.06166,-14.90713 l 0,-6.2656 -59.13691,0 -59.13691,0 0.50531,6.29519 c 0.61003,7.59962 2.78277,12.13301 7.06706,14.74529 3.05885,1.8651 5.36241,1.95221 51.71705,1.95578 45.08129,0.003 48.75679,-0.12561 51.92274,-1.82353 z m 7.06166,-39.17273 0,-12 -59,0 -59,0 0,12 0,12 59,0 59,0 0,-12 z m -0.22105,-29.5 0.27895,-12 -59.02895,0.26567 -59.02895,0.26568 0,11.40099 c 0,8.17894 0.35326,11.54681 1.25,11.91697 0.6875,0.28378 27.125,0.43378 58.75,0.33333 l 57.5,-0.18264 0.27895,-12 z m 0.22105,-26.59887 c 0,-10.51672 -1.63172,-15.09559 -6.41996,-18.01545 -2.90284,-1.77015 -5.89915,-1.8782 -52.08004,-1.8782 -46.80845,0 -49.14293,0.0871 -52.19567,1.94852 -5.3934,3.28856 -6.56372,6.11082 -7.09314,17.1052 l -0.47859,9.9388 59.13371,0 59.13369,0 0,-9.09887 z m 97.33282,252.52382 c -0.55736,-1.45244 1.80287,-7.60235 5.72793,-14.92495 l 1.60807,-3 24.06295,-0.5 c 21.85072,-0.45403 24.25626,-0.67514 26.16559,-2.40499 1.96822,-1.78321 2.10263,-2.91784 2.10263,-17.75 l 0,-15.84501 -58.35212,0 -58.3521,0 -3.30594,-2.25 c -1.81826,-1.2375 -4.24731,-3.5204 -5.39788,-5.0731 -2.08839,-2.8183 -2.0924,-3.00714 -2.35502,-111.0116 l -0.26306,-108.1885 2.26306,-4.44464 c 1.61236,-3.16667 3.53031,-5.10418 6.67035,-6.73841 l 4.40729,-2.29375 164.63081,0 164.63084,0 4.41814,2.25 c 3.1468,1.60256 5.08193,3.52533 6.72497,6.68203 l 2.30684,4.43203 -0.26308,108.24487 c -0.26264,108.06164 -0.26663,108.24965 -2.35504,111.06797 -1.15057,1.5527 -3.57962,3.8356 -5.39788,5.0731 l -3.30594,2.25 -60.85211,0 -60.85213,0 0,15.84501 c 0,14.83241 0.13438,15.96676 2.10273,17.75 1.91202,1.73222 4.12282,1.9324 24.37636,2.20725 l 22.27363,0.30226 4.04578,8.68909 c 2.92939,6.29142 3.75754,9.03641 3.0012,9.94774 -0.82728,0.99683 -22.76378,1.25865 -105.45353,1.25865 -94.09649,0 -104.46864,-0.15557 -105.01334,-1.57505 z m 141.83843,-39.07994 c 2.40001,-2.17198 2.32455,-5.8492 -0.17126,-8.34501 -1.91648,-1.91648 -3.33333,-2 -33.92742,-2 l -31.92742,0 -2.07258,2.63486 c -2.59091,3.2938 -2.60606,4.83166 -0.0726,7.36514 1.91711,1.91711 3.33333,2 34.17126,2 28.53237,0 32.37811,-0.1872 34,-1.65499 z m 130.06939,-134.42847 c 0.14265,-56.14591 0.0719,-102.27091 -0.15731,-102.5 -0.22916,-0.2291 -73.24166,-0.41654 -162.25001,-0.41654 l -161.83332,0 0,102.5 0,102.5 161.99063,0 161.99064,0 0.25937,-102.08346 z"
     id="path4138"
     inkscape:connector-curvature="0" />
  <text
     xml:space="preserve"
     style="font-style:normal;font-weight:normal;font-size:106.13200378px;line-height:125%;font-family:sans-serif;letter-spacing:0px;word-spacing:0px;fill:#000000;fill-opacity:1;stroke:none;stroke-width:1px;stroke-linecap:butt;stroke-linejoin:miter;stroke-opacity:1"
     x="-557.42957"
     y="-650.45032"
     id="text4140"
     sodipodi:linespacing="125%"><tspan
       sodipodi:role="line"
       id="tspan4142"
       x="-557.42957"
       y="-650.45032">MIPS</tspan></text>
  <path
     inkscape:connector-curvature="0"
     id="path4144"
     d="m 134.70393,-449.31285 c -2.13185,-0.34662 -4.60627,-1.5786 -5.57604,-2.77621 -1.6688,-2.06088 -1.63828,-2.4623 0.71287,-9.37685 6.61844,-19.46423 15.03764,-40.39235 16.8723,-41.94052 1.90537,-1.60783 13.20764,-1.71884 178.17364,-1.75 166.30373,-0.0314 176.25789,0.0644 178.2645,1.71673 1.16891,0.9625 3.26689,4.9 4.66217,8.75 1.39529,3.85 4.59973,12.625 7.12097,19.5 7.62624,20.79544 7.58127,20.5846 5.01527,23.51237 l -2.20213,2.51261 -189.60548,0.23751 c -104.28301,0.13063 -191.33014,-0.0429 -193.43807,-0.38564 z m 369.51779,-11.65491 2.19582,-1.77806 -6.08133,-16.78077 c -6.42838,-17.73843 -7.7186,-20.71605 -9.48843,-21.8978 -0.60517,-0.40408 -75.39306,-0.74158 -166.19531,-0.75 -155.98312,-0.0145 -165.18117,0.0813 -166.6561,1.73469 -1.68817,1.89247 -12.32555,29.88328 -13.402,35.26555 -0.50895,2.54473 -0.24107,3.58866 1.18923,4.63452 1.53335,1.12122 31.86808,1.34993 179.04423,1.34993 168.33544,0 177.30791,-0.0889 179.39389,-1.77806 z m 36.35216,1.78738 c -2.29548,-0.48342 -5.44548,-1.54619 -7,-2.36171 -4.52551,-2.37414 -10.11363,-8.78733 -11.78353,-13.52334 -2.05825,-5.83738 -2.01352,-15.0073 0.0878,-18.0074 3.17798,-4.53716 6.65353,-5.11687 30.67749,-5.11687 l 22.3724,0 6.23334,3.11484 c 11.57296,5.78308 17.75152,18.94069 13.97768,29.76632 -2.04188,5.85735 -4.80092,6.50384 -28.89158,6.76977 -11.825,0.13053 -23.37812,-0.1582 -25.6736,-0.64161 z M -0.137637,-489.278 c -4.4073102,-3.46678 -5.6148802,-6.99442 -5.6148802,-16.40253 0,-7.04138 -0.36308,-9.08125 -2.01379,-11.31395 -1.99546,-2.699 -2.0136,-3.96476 -1.99336,-139.06645 0.019,-126.48708 0.14327,-136.55062 1.71985,-139.21956 3.5687,-6.04132 1.96372,-5.90957 71.9384272,-5.90547 61.56238,0.004 63.96352,0.0736 67.05032,1.95578 6.75003,4.11573 6.29855,-6.09332 6.29855,142.42572 0,87.58297 -0.3501,135.40541 -1.00388,137.12497 -0.55214,1.45223 -1.67714,3.31366 -2.5,4.13653 -1.12954,1.12954 -1.49612,3.957 -1.49612,11.53982 l 0,10.0437 -3.69542,3.38487 -3.69541,3.38487 -61.16973,0 c -60.517637,0 -61.198027,-0.0223 -63.824557,-2.0883 z m 119.888307,-9.5513 c 1.09477,-0.4201 1.49681,-2.15722 1.49681,-6.46739 l 0,-5.89301 -57.5,0 -57.499997,0 0,5.91667 c 0,3.7933 0.4486,6.10061 1.25,6.42922 1.73233,0.71033 110.403297,0.72438 112.253187,0.0145 z m -4.56485,-170.18767 c 4.82417,-2.58723 7.06166,-7.31056 7.06166,-14.90713 l 0,-6.2656 -59.13691,0 -59.136907,0 0.50531,6.29519 c 0.61003,7.59962 2.78277,12.13301 7.06706,14.74529 3.05885,1.8651 5.36241,1.95221 51.717047,1.95578 45.08129,0.003 48.75679,-0.12561 51.92274,-1.82353 z m 7.06166,-39.17273 0,-12 -59,0 -58.999997,0 0,12 0,12 58.999997,0 59,0 0,-12 z m -0.22105,-29.5 0.27895,-12 -59.02895,0.26567 -59.028947,0.26568 0,11.40099 c 0,8.17894 0.35326,11.54681 1.25,11.91697 0.6875,0.28378 27.125,0.43378 58.749997,0.33333 l 57.5,-0.18264 0.27895,-12 z m 0.22105,-26.59887 c 0,-10.51672 -1.63172,-15.09559 -6.41996,-18.01545 -2.90284,-1.77015 -5.89915,-1.8782 -52.08004,-1.8782 -46.808447,0 -49.142927,0.0871 -52.195667,1.94852 -5.3934,3.28856 -6.56372,6.11082 -7.09314,17.1052 l -0.47859,9.9388 59.133707,0 59.13369,0 0,-9.09887 z m 97.33283,252.52382 c -0.55736,-1.45244 1.80287,-7.60235 5.72793,-14.92495 l 1.60807,-3 24.06295,-0.5 c 21.85072,-0.45403 24.25626,-0.67514 26.16559,-2.40499 1.96822,-1.78321 2.10263,-2.91784 2.10263,-17.75 l 0,-15.84501 -58.35212,0 -58.35211,0 -3.30594,-2.25 c -1.81826,-1.2375 -4.24731,-3.5204 -5.39788,-5.0731 -2.08839,-2.8183 -2.0924,-3.00714 -2.35502,-111.0116 l -0.26306,-108.1885 2.26306,-4.44464 c 1.61236,-3.16667 3.53031,-5.10418 6.67035,-6.73841 l 4.40729,-2.29375 164.63082,0 164.63083,0 4.41814,2.25 c 3.1468,1.60256 5.08193,3.52533 6.72497,6.68203 l 2.30684,4.43203 -0.26308,108.24487 c -0.26264,108.06164 -0.26663,108.24965 -2.35504,111.06797 -1.15057,1.5527 -3.57962,3.8356 -5.39788,5.0731 l -3.30594,2.25 -60.85211,0 -60.85212,0 0,15.84501 c 0,14.83241 0.13438,15.96676 2.10273,17.75 1.91202,1.73222 4.12282,1.9324 24.37635,2.20725 l 22.27363,0.30226 4.04578,8.68909 c 2.92939,6.29142 3.75754,9.03641 3.0012,9.94774 -0.82728,0.99683 -22.76378,1.25865 -105.45352,1.25865 -94.09649,0 -104.46864,-0.15557 -105.01334,-1.57505 z m 141.83843,-39.07994 c 2.40001,-2.17198 2.32455,-5.8492 -0.17126,-8.34501 -1.91648,-1.91648 -3.33333,-2 -33.92742,-2 l -31.92742,0 -2.07258,2.63486 c -2.59091,3.2938 -2.60606,4.83166 -0.0726,7.36514 1.91711,1.91711 3.33333,2 34.17126,2 28.53237,0 32.37811,-0.1872 34,-1.65499 z m 130.06938,-134.42847 c 0.14265,-56.14591 0.0719,-102.27091 -0.15731,-102.5 -0.22916,-0.2291 -73.24166,-0.41654 -162.25,-0.41654 l -161.83333,0 0,102.5 0,102.5 161.99064,0 161.99063,0 0.25937,-102.08346 z"
     style="fill:#000000" />
  <path
     style="fill:#000000"
     d="m 874.44717,-449.31285 c -2.13185,-0.34662 -4.60627,-1.5786 -5.57604,-2.77621 -1.6688,-2.06088 -1.63828,-2.4623 0.71287,-9.37685 6.61844,-19.46423 15.03764,-40.39235 16.8723,-41.94052 1.90537,-1.60783 13.20764,-1.71884 178.1737,-1.75 166.3037,-0.0314 176.2579,0.0644 178.2645,1.71673 1.1689,0.9625 3.2669,4.9 4.6622,8.75 1.3953,3.85 4.5997,12.625 7.121,19.5 7.6262,20.79544 7.5812,20.5846 5.0152,23.51237 l -2.2021,2.51261 -189.6055,0.23751 c -104.28304,0.13063 -191.3302,-0.0429 -193.43813,-0.38564 z m 369.51783,-11.65491 2.1959,-1.77806 -6.0814,-16.78077 c -6.4284,-17.73843 -7.7186,-20.71605 -9.4884,-21.8978 -0.6052,-0.40408 -75.3931,-0.74158 -166.1953,-0.75 -155.98321,-0.0145 -165.18126,0.0813 -166.65619,1.73469 -1.68817,1.89247 -12.32555,29.88328 -13.402,35.26555 -0.50895,2.54473 -0.24107,3.58866 1.18923,4.63452 1.53335,1.12122 31.86808,1.34993 179.04426,1.34993 168.3355,0 177.308,-0.0889 179.3939,-1.77806 z m 36.3522,1.78738 c -2.2955,-0.48342 -5.4455,-1.54619 -7,-2.36171 -4.5255,-2.37414 -10.1136,-8.78733 -11.7835,-13.52334 -2.0583,-5.83738 -2.0136,-15.0073 0.088,-18.0074 3.1779,-4.53716 6.6535,-5.11687 30.6775,-5.11687 l 22.3724,0 6.2333,3.11484 c 11.573,5.78308 17.7515,18.94069 13.9777,29.76632 -2.0419,5.85735 -4.8009,6.50384 -28.8916,6.76977 -11.825,0.13053 -23.3781,-0.1582 -25.6736,-0.64161 z M 739.60561,-489.278 c -4.40731,-3.46678 -5.61488,-6.99442 -5.61488,-16.40253 0,-7.04138 -0.36308,-9.08125 -2.01379,-11.31395 -1.99546,-2.699 -2.0136,-3.96476 -1.99336,-139.06645 0.019,-126.48708 0.14327,-136.55062 1.71985,-139.21956 3.5687,-6.04132 1.96372,-5.90957 71.93842,-5.90547 61.56238,0.004 63.96352,0.0736 67.05032,1.95578 6.75003,4.11573 6.29855,-6.09332 6.29855,142.42572 0,87.58297 -0.3501,135.40541 -1.00388,137.12497 -0.55214,1.45223 -1.67714,3.31366 -2.5,4.13653 -1.12954,1.12954 -1.49612,3.957 -1.49612,11.53982 l 0,10.0437 -3.69542,3.38487 -3.69541,3.38487 -61.16973,0 c -60.51763,0 -61.19802,-0.0223 -63.82455,-2.0883 z m 119.8883,-9.5513 c 1.09477,-0.4201 1.49681,-2.15722 1.49681,-6.46739 l 0,-5.89301 -57.5,0 -57.49999,0 0,5.91667 c 0,3.7933 0.4486,6.10061 1.25,6.42922 1.73233,0.71033 110.40329,0.72438 112.25318,0.0145 z m -4.56485,-170.18767 c 4.82417,-2.58723 7.06166,-7.31056 7.06166,-14.90713 l 0,-6.2656 -59.13691,0 -59.1369,0 0.50531,6.29519 c 0.61003,7.59962 2.78277,12.13301 7.06706,14.74529 3.05885,1.8651 5.36241,1.95221 51.71704,1.95578 45.08129,0.003 48.75679,-0.12561 51.92274,-1.82353 z m 7.06166,-39.17273 0,-12 -59,0 -58.99999,0 0,12 0,12 58.99999,0 59,0 0,-12 z m -0.22105,-29.5 0.27895,-12 -59.02895,0.26567 -59.02894,0.26568 0,11.40099 c 0,8.17894 0.35326,11.54681 1.25,11.91697 0.6875,0.28378 27.125,0.43378 58.74999,0.33333 l 57.5,-0.18264 0.27895,-12 z m 0.22105,-26.59887 c 0,-10.51672 -1.63172,-15.09559 -6.41996,-18.01545 -2.90284,-1.77015 -5.89915,-1.8782 -52.08004,-1.8782 -46.80844,0 -49.14292,0.0871 -52.19566,1.94852 -5.3934,3.28856 -6.56372,6.11082 -7.09314,17.1052 l -0.47859,9.9388 59.1337,0 59.13369,0 0,-9.09887 z m 97.33284,252.52382 c -0.5573,-1.45244 1.8029,-7.60235 5.728,-14.92495 l 1.608,-3 24.06301,-0.5 c 21.85073,-0.45403 24.25623,-0.67514 26.16563,-2.40499 1.9682,-1.78321 2.1026,-2.91784 2.1026,-17.75 l 0,-15.84501 -58.35214,0 -58.35217,0 -3.30594,-2.25 c -1.81826,-1.2375 -4.24731,-3.5204 -5.39788,-5.0731 -2.08839,-2.8183 -2.0924,-3.00714 -2.35502,-111.0116 l -0.26306,-108.1885 2.26306,-4.44464 c 1.61236,-3.16667 3.53031,-5.10418 6.67035,-6.73841 l 4.40729,-2.29375 164.63091,0 164.6308,0 4.4182,2.25 c 3.1468,1.60256 5.0819,3.52533 6.7249,6.68203 l 2.3069,4.43203 -0.2631,108.24487 c -0.2627,108.06164 -0.2666,108.24965 -2.3551,111.06797 -1.1505,1.5527 -3.5796,3.8356 -5.3978,5.0731 l -3.306,2.25 -60.8521,0 -60.8521,0 0,15.84501 c 0,14.83241 0.1344,15.96676 2.1027,17.75 1.912,1.73222 4.1228,1.9324 24.3764,2.20725 l 22.2736,0.30226 4.0458,8.68909 c 2.9294,6.29142 3.7575,9.03641 3.0012,9.94774 -0.8273,0.99683 -22.7638,1.25865 -105.4535,1.25865 -94.09654,0 -104.46874,-0.15557 -105.01344,-1.57505 z m 141.83854,-39.07994 c 2.4,-2.17198 2.3245,-5.8492 -0.1713,-8.34501 -1.9165,-1.91648 -3.3333,-2 -33.9274,-2 l -31.9274,0 -2.0726,2.63486 c -2.5909,3.2938 -2.6061,4.83166 -0.073,7.36514 1.9171,1.91711 3.3333,2 34.1712,2 28.5324,0 32.3781,-0.1872 34,-1.65499 z m 130.0693,-134.42847 c 0.1427,-56.14591 0.072,-102.27091 -0.1573,-102.5 -0.2291,-0.2291 -73.2416,-0.41654 -162.25,-0.41654 l -161.83338,0 0,102.5 0,102.5 161.99068,0 161.9907,0 0.2593,-102.08346 z"
     id="path4146"
     inkscape:connector-curvature="0" />
  <text
     xml:space="preserve"
     style="font-style:normal;font-weight:normal;font-size:137.03756714px;line-height:125%;font-family:sans-serif;letter-spacing:0px;word-spacing:0px;fill:#000000;fill-opacity:1;stroke:none;stroke-width:1px;stroke-linecap:butt;stroke-linejoin:miter;stroke-opacity:1"
     x="208.63972"
     y="-630.47882"
     id="text4148"
     sodipodi:linespacing="125%"><tspan
       sodipodi:role="line"
       id="tspan4150"
       x="208.63972"
       y="-630.47882">x86</tspan></text>
  <text
     xml:space="preserve"
     style="font-style:normal;font-weight:normal;font-size:121.05149841px;line-height:125%;font-family:sans-serif;letter-spacing:0px;word-spacing:0px;fill:#000000;fill-opacity:1;stroke:none;stroke-width:1px;stroke-linecap:butt;stroke-linejoin:miter;stroke-opacity:1"
     x="938.68036"
     y="-639.45703"
     id="text4152"
     sodipodi:linespacing="125%"><tspan
       sodipodi:role="line"
       id="tspan4154"
       x="938.68036"
       y="-639.45703">ARM</tspan></text>
  <text
     xml:space="preserve"
     style="font-style:normal;font-weight:normal;font-size:59.64726257px;line-height:125%;font-family:sans-serif;letter-spacing:0px;word-spacing:0px;fill:#d40000;fill-opacity:1;stroke:none;stroke-width:1px;stroke-linecap:butt;stroke-linejoin:miter;stroke-opacity:1"
     x="1003.2375"
     y="-831.92926"
     id="text4156"
     sodipodi:linespacing="125%"><tspan
       sodipodi:role="line"
       id="tspan4158"
       x="1003.2375"
       y="-831.92926">حمادة</tspan></text>
  <text
     xml:space="preserve"
     style="font-style:normal;font-weight:normal;font-size:58.64438629px;line-height:125%;font-family:sans-serif;letter-spacing:0px;word-spacing:0px;fill:#d40000;fill-opacity:1;stroke:none;stroke-width:1px;stroke-linecap:butt;stroke-linejoin:miter;stroke-opacity:1"
     x="208.27425"
     y="-830.71362"
     id="text4160"
     sodipodi:linespacing="125%"><tspan
       sodipodi:role="line"
       id="tspan4162"
       x="208.27425"
       y="-830.71362">حمادة تاني</tspan></text>
  <text
     xml:space="preserve"
     style="font-style:normal;font-weight:normal;font-size:56.17868042px;line-height:125%;font-family:sans-serif;letter-spacing:0px;word-spacing:0px;fill:#d40000;fill-opacity:1;stroke:none;stroke-width:1px;stroke-linecap:butt;stroke-linejoin:miter;stroke-opacity:1"
     x="-546.81738"
     y="-832.58704"
     id="text4164"
     sodipodi:linespacing="125%"><tspan
       sodipodi:role="line"
       id="tspan4166"
       x="-546.81738"
       y="-832.58704">حمادة تالت</tspan></text>
</svg>
