<?xml version="1.0" encoding="UTF-8" standalone="no"?>
<!-- Created with Inkscape (http://www.inkscape.org/) -->

<svg
   xmlns:dc="http://purl.org/dc/elements/1.1/"
   xmlns:cc="http://creativecommons.org/ns#"
   xmlns:rdf="http://www.w3.org/1999/02/22-rdf-syntax-ns#"
   xmlns:svg="http://www.w3.org/2000/svg"
   xmlns="http://www.w3.org/2000/svg"
   xmlns:sodipodi="http://sodipodi.sourceforge.net/DTD/sodipodi-0.dtd"
   xmlns:inkscape="http://www.inkscape.org/namespaces/inkscape"
   width="744.09448819"
   height="1052.3622047"
   id="svg3905"
   version="1.1"
   inkscape:version="0.48.4 r9939"
   sodipodi:docname="shrookbelganb1.svg">
  <defs
     id="defs3907" />
  <sodipodi:namedview
     id="base"
     pagecolor="#ffffff"
     bordercolor="#666666"
     borderopacity="1.0"
     inkscape:pageopacity="0.0"
     inkscape:pageshadow="2"
     inkscape:zoom="0.7"
     inkscape:cx="375"
     inkscape:cy="627.52022"
     inkscape:document-units="px"
     inkscape:current-layer="layer1"
     showgrid="false"
     inkscape:window-width="1305"
     inkscape:window-height="744"
     inkscape:window-x="61"
     inkscape:window-y="24"
     inkscape:window-maximized="1" />
  <metadata
     id="metadata3910">
    <rdf:RDF>
      <cc:Work
         rdf:about="">
        <dc:format>image/svg+xml</dc:format>
        <dc:type
           rdf:resource="http://purl.org/dc/dcmitype/StillImage" />
        <dc:title></dc:title>
      </cc:Work>
    </rdf:RDF>
  </metadata>
  <g
     inkscape:label="Layer 1"
     inkscape:groupmode="layer"
     id="layer1">
    <path
       style="fill:#000000;fill-opacity:1;stroke:none;display:inline"
       id="path4205-0"
       d="m 316.29302,662.67222 c 0.028,7.48829 0.28,32.78038 -0.01,44.92814 -0.2851,12.14774 -0.5588,19.4857 -0.7352,27.9396 -0.1765,8.45392 0.5003,14.50326 0.5326,22.73846 0.032,8.23524 0.087,17.671 -0.125,26.64708 -0.2124,8.97607 -0.1286,16.36886 -0.386,27.20786 -0.3037,20.68446 18.6543,11.9785 13.4722,-4.71839 0.3046,-8.96423 0.1368,-18.41582 0.2685,-26.64066 0.1316,-8.22488 -0.5233,-14.02888 -0.5657,-22.62645 -0.042,-8.59754 0.1829,-16.90452 0.1131,-28.97507 -0.07,-12.07058 0.2116,-36.22276 0.8533,-43.4343 0.6416,-7.21154 -13.4509,-30.55457 -13.4226,-23.06627 z"
       inkscape:connector-curvature="0"
       sodipodi:nodetypes="zzzzzcczzzzz"
       inkscape:export-xdpi="90"
       inkscape:export-ydpi="90"
       inkscape:export-filename="/home/rana/SparkleShare/CCC/linuxCourse/Chapter 1/character/SHROOK/btbosleta7t.png" />
    <path
       sodipodi:nodetypes="zzzzzcczzzzz"
       inkscape:connector-curvature="0"
       d="m 376.29302,652.67222 c 0.028,7.48829 0.28,32.78038 -0.01,44.92814 -0.2851,12.14774 -0.5588,19.4857 -0.7352,27.9396 -0.1765,8.45392 0.5003,14.50326 0.5326,22.73846 0.032,8.23524 0.087,17.671 -0.1251,26.64708 -0.2123,8.97607 -0.1285,16.36886 -0.3859,27.20786 -0.3037,20.68446 18.6543,11.9785 13.4721,-4.71839 0.3047,-8.96423 0.1369,-18.41582 0.2685,-26.64066 0.1317,-8.22488 -0.5232,-14.02888 -0.5656,-22.62645 -0.042,-8.59754 0.1829,-16.90452 0.1131,-28.97507 -0.07,-12.07058 0.2116,-36.22276 0.8533,-43.4343 0.6416,-7.21154 -13.4509,-30.55457 -13.4226,-23.06627 z"
       id="path4203-5"
       style="fill:#000000;fill-opacity:1;stroke:none;display:inline"
       inkscape:export-xdpi="90"
       inkscape:export-ydpi="90"
       inkscape:export-filename="/home/rana/SparkleShare/CCC/linuxCourse/Chapter 1/character/SHROOK/btbosleta7t.png" />
    <path
       sodipodi:nodetypes="zzzzzcczzzzz"
       inkscape:connector-curvature="0"
       d="m -417.81595,232.70225 c 4.0786,2.37789 14.7865,3.75121 21.4981,7.22904 6.7116,3.47783 13.5241,5.13935 18.1885,7.58482 4.6645,2.44544 12.0264,5.99663 16.5115,8.61307 4.4851,2.61644 8.9439,4.60793 13.9037,7.17577 4.9597,2.56785 14.0763,6.03567 20.0657,9.13538 11.3758,6.1304 -7.2172,31.39838 -14.84,20.22497 -4.9798,-2.45826 -8.3878,-5.25906 -12.9143,-7.68423 -4.5266,-2.42519 -10.587,-2.96925 -15.2669,-5.71077 -4.6799,-2.74154 -10.8043,-6.28805 -17.3717,-10.1487 -6.5675,-3.86069 -22.2356,-8.05082 -26.3557,-9.57365 -4.1202,-1.52283 -7.4976,-29.2236 -3.4189,-26.8457 z"
       id="path4171-2"
       style="fill:#000000;fill-opacity:1;stroke:none;display:inline"
       inkscape:export-xdpi="90"
       inkscape:export-ydpi="90"
       inkscape:export-filename="/home/rana/SparkleShare/CCC/linuxCourse/Chapter 1/character/SHROOK/btbosleta7t.png" />
    <path
       inkscape:export-ydpi="90"
       inkscape:export-xdpi="90"
       style="fill:#000000;fill-opacity:1;stroke:none;display:inline"
       id="path4204-3"
       d="m -205.04114,222.70225 c -4.0787,2.37789 -14.7866,3.75121 -21.4982,7.22904 -6.7116,3.47783 -13.524,5.13935 -18.1885,7.58482 -4.6644,2.44544 -12.0264,5.99663 -16.5115,8.61307 -4.4851,2.61644 -8.9439,4.60793 -13.90356,7.17577 -4.9598,2.56785 -14.0764,6.03567 -20.0658,9.13538 -11.3758,6.1304 7.2173,31.39838 14.84,20.22497 4.9798,-2.45826 8.3878,-5.25906 12.91426,-7.68423 4.5266,-2.42519 10.587,-2.96925 15.267,-5.71077 4.6799,-2.74154 10.8042,-6.28805 17.3717,-10.1487 6.5674,-3.86069 22.2355,-8.05082 26.3557,-9.57365 4.1201,-1.52283 7.4975,-29.2236 3.4189,-26.8457 z"
       inkscape:connector-curvature="0"
       sodipodi:nodetypes="zzzzzcczzzzz"
       inkscape:export-filename="/home/rana/SparkleShare/CCC/linuxCourse/Chapter 1/character/SHROOK/btbosleta7t.png" />
    <path
       style="fill:#ff7f2a;fill-opacity:1;stroke:#000000;stroke-width:2.29999995;stroke-miterlimit:4;stroke-opacity:1;stroke-dasharray:none;display:inline"
       d="m 292.49713,368.00098 115.61559,1.73806 c 0,0 -12.6323,91.30465 -6.2265,147.09847 6.4058,55.79383 13.87503,156.79389 13.87503,156.79389 l -135.82226,32.04264 c 0,0 13.44694,-132.36608 20.35014,-188.83653 6.90319,-56.47045 -7.792,-148.83653 -7.792,-148.83653 z"
       id="rect4164-9"
       inkscape:connector-curvature="0"
       sodipodi:nodetypes="cczcczc"
       inkscape:export-xdpi="90"
       inkscape:export-ydpi="90"
       inkscape:export-filename="/home/rana/SparkleShare/CCC/linuxCourse/Chapter 1/character/SHROOK/btbosleta7t.png" />
    <path
       style="fill:#f4e3d7;fill-opacity:1;stroke:#000000;stroke-width:1.70865273;stroke-miterlimit:4;stroke-opacity:1;stroke-dasharray:none"
       d="m 327.06992,349.92039 53.5571,0 c 0,0 5.0695,10.95971 0,22.06145 -5.0696,11.10175 -7.6003,27.53345 -26.7786,27.53345 -19.1782,0 -21.7089,-16.4317 -26.7785,-27.53345 -5.0696,-11.10174 0,-22.06145 0,-22.06145 z"
       id="rect3359-4"
       inkscape:connector-curvature="0"
       sodipodi:nodetypes="cczzzc"
       inkscape:export-xdpi="90"
       inkscape:export-ydpi="90"
       inkscape:export-filename="/home/rana/SparkleShare/CCC/linuxCourse/Chapter 1/character/SHROOK/btbosleta7t.png" />
    <path
       inkscape:export-ydpi="90"
       inkscape:export-xdpi="90"
       sodipodi:nodetypes="zzzzzcczzzzz"
       inkscape:connector-curvature="0"
       d="m -304.43581,292.45396 c 0.564,-1.0532 2.3623,-4.6078 3.5041,-6.32231 1.1418,-1.71445 1.9009,-2.75187 2.6802,-3.94457 0.7796,-1.19275 0.7878,-2.03206 1.4074,-3.19036 0.6195,-1.15823 1.3168,-2.48501 2.1616,-3.75185 0.8449,-1.26693 1.3635,-2.30567 2.3843,-3.8355 1.8194,-2.91604 -11.8355,-1.35563 -9.5896,0.90233 -0.9068,1.26678 -1.5282,2.59378 -2.2595,3.75356 -0.7308,1.1597 -2.0097,2.22078 -2.6505,3.42985 -0.6409,1.20911 -1.1962,2.81525 -2.7778,5.39261 -1.5817,2.57737 -3.6853,5.54233 -4.6862,6.56843 -1.0011,1.02613 9.2617,2.0511 9.826,0.99781 z"
       id="path3054"
       style="fill:#000000;fill-opacity:1;stroke:none;display:inline" />
    <path
       inkscape:export-ydpi="90"
       inkscape:export-xdpi="90"
       sodipodi:nodetypes="zzzzzcczzzzz"
       inkscape:connector-curvature="0"
       d="m -190.53498,643.83137 c -0.6264,7.4621 -2.5849,32.67952 -3.9252,44.75635 -1.3453,12.07638 -2.2591,19.36238 -3.1734,27.76854 -0.9144,8.40617 -0.7687,14.4915 -1.456,22.69805 -0.6876,8.20654 -1.4572,17.61103 -2.4525,26.53426 -0.9958,8.92319 -1.5582,16.29504 -2.7616,27.07011 -2.1096,20.57884 17.5364,13.56244 13.8329,-3.52334 1.0866,-8.90334 1.7452,-18.33345 2.595,-26.51534 0.8496,-8.18193 0.7043,-14.02095 1.4132,-22.58935 0.7093,-8.56834 1.6591,-16.82391 2.6441,-28.8544 0.9848,-12.03054 3.3754,-36.06577 4.6447,-43.19367 1.2692,-7.12791 -10.73,-31.61289 -11.3561,-24.15075 z"
       id="path3058"
       style="fill:#000000;fill-opacity:1;stroke:none;display:inline" />
    <path
       inkscape:export-ydpi="90"
       inkscape:export-xdpi="90"
       style="fill:#000000;fill-opacity:1;stroke:none;display:inline"
       id="path3060"
       d="m -190.45748,643.67427 c 0.4254,7.47627 2.0192,32.71933 2.3843,44.86483 0.3599,12.14576 0.476,19.4879 0.7485,27.93925 0.2724,8.45137 1.2693,14.45628 1.7385,22.67817 0.469,8.22193 1.0247,17.64148 1.2892,26.61617 0.2644,8.97468 0.7404,16.35261 1.0585,27.19 0.7944,20.67143 19.2637,10.97167 13.2027,-5.42668 -0.1714,-8.96777 -0.8405,-18.39714 -1.1456,-26.61737 -0.305,-8.22028 -1.2669,-13.98136 -1.7655,-22.56456 -0.4982,-8.5832 -0.7145,-16.89041 -1.4247,-28.94025 -0.7105,-12.04985 -1.711,-36.18294 -1.4529,-43.41837 0.258,-7.23542 -15.0534,-29.79771 -14.6278,-22.32146 z"
       inkscape:connector-curvature="0"
       sodipodi:nodetypes="zzzzzcczzzzz" />
    <path
       inkscape:export-ydpi="90"
       inkscape:export-xdpi="90"
       sodipodi:nodetypes="cczzzc"
       inkscape:connector-curvature="0"
       id="path3068"
       d="m -337.20567,335.23955 19.2042,-2.2557 c 0,0 1.8478,14.60213 0.061,29.82329 -1.7874,15.22116 -2.6496,37.54055 -9.5264,38.34829 -6.8766,0.8077 -7.8294,-21.29849 -9.6778,-36.09261 -1.8483,-14.79414 -0.061,-29.82327 -0.061,-29.82327 z"
       style="fill:#f4e3d7;fill-opacity:1;stroke:#000000;stroke-width:1.18974638;stroke-miterlimit:4;stroke-opacity:1;stroke-dasharray:none"
       inkscape:transform-center-x="33.545683"
       inkscape:transform-center-y="12.06267" />
    <path
       inkscape:export-ydpi="90"
       inkscape:export-xdpi="90"
       sodipodi:nodetypes="cczcczsc"
       inkscape:connector-curvature="0"
       id="path3066"
       d="m -163.27885,385.22518 19.8727,0.85833 c 0,0 14.3196,74.02803 18.1174,129.04882 3.7976,55.02081 7.5871,188.56651 7.5871,188.56651 l -80.1366,2.20276 c 0,0 7.8986,-162.73839 8.6541,-194.71385 0.7553,-31.97547 3.1495,-51.4199 9.1672,-77.44691 5.5995,-24.2189 16.7381,-48.51566 16.7381,-48.51566 z"
       style="fill:#ff7f2a;fill-opacity:1;stroke:#000000;stroke-width:1.75862658;stroke-miterlimit:4;stroke-opacity:1;stroke-dasharray:none;display:inline" />
    <path
       sodipodi:nodetypes="cssccsccssscccscc"
       style="fill:#f4e3d7;fill-opacity:1;display:inline"
       d="m 394.69898,147.35242 c -6.757,0 -20.1395,-7.40219 -14.2449,-4.04958 8.4521,4.80714 -16.2139,-1.79846 -16.2139,-4.51015 0,-2.88117 -7.0876,-0.36089 -10.3482,-2.77703 -9.7271,1.12114 -19.4316,1.7959 -35.1254,0.9447 -24.151,3.88245 -47.4739,26.45182 -52.4872,50.56656 -3.9186,18.84932 -1.1521,44.35126 7.9491,63.6155 20.4696,55.4913 23.6922,83.94494 48.5044,110.05972 6.3377,1.64105 7.2222,6.70659 16.2018,6.63239 9.6483,-0.0797 13.6274,5.32378 21.6361,3.83281 15.2038,-2.83049 19.2619,-2.24639 29.9813,-14.24697 12.4019,-13.8841 12.1902,-18.7473 14.8329,-40.33995 0.3811,-3.22183 1.53146,-9.04106 3.32417,-15.33736 3.32452,-13.33772 8.64428,-30.41307 9.23923,-41.19025 -0.48184,-15.8661 0.032,-41.80055 3.4737,-45.04408 15.9769,-15.0583 18.7887,-49.06034 3.2425,-48.37499 -26.8739,-22.09524 -17.1327,-14.19134 -29.9656,-19.78132 z"
       id="path3879"
       inkscape:connector-curvature="0"
       inkscape:export-xdpi="90"
       inkscape:export-ydpi="90" />
    <path
       sodipodi:nodetypes="cssssssssc"
       inkscape:connector-curvature="0"
       id="path3040"
       d="m 428.18882,286.02939 c 2.36375,-23.83659 -3.18701,-26.79325 -3.66824,-37.94374 -0.48125,-11.1505 8.56765,-55.23194 9.37255,-58.14358 2.36331,-8.54905 -6.64685,-28.06046 16.47142,-8.52352 12.24405,10.34728 3.59278,53.21981 2.97192,87.62765 -0.48039,26.62285 1.01911,29.07282 -0.2328,47.50946 -1.2519,18.43669 -2.98157,38.9413 -4.89199,38.9413 -1.91043,0 -18.70966,6.72798 -19.96167,-11.70866 -1.252,-18.43665 -2.72173,-30.92882 -0.0612,-57.75889 z"
       style="fill:#000000;stroke:#000000;stroke-width:1.30343926;stroke-miterlimit:4;display:inline" />
    <path
       inkscape:export-ydpi="90"
       inkscape:export-xdpi="90"
       inkscape:connector-curvature="0"
       id="path3076"
       d="m 397.16098,146.65045 c -6.8253,0 -20.343,-7.51127 -14.3888,-4.10926 8.5375,4.87799 -16.3778,-1.82496 -16.3778,-4.57661 0,-2.92362 -7.1592,-0.3662 -10.4528,-2.81794 -9.8254,1.13766 -19.6279,1.82236 -35.4803,0.95862 -24.3951,3.93965 -56.52513,28.27018 -61.58903,52.74029 -3.9582,19.12708 -8.02269,43.82758 7.31511,62.05295 20.79901,55.81901 41.13131,97.51486 61.76151,113.05503 6.4017,1.66524 6.5689,3.94745 12.88431,4.37597 2.82809,0.19189 11.46757,0.0859 22.03327,-0.16562 5.83096,-0.13882 19.47806,-1.52085 27.93333,-13.31113 10.02549,-13.97983 12.6417,-22.03268 15.3111,-43.94351 0.7699,-6.53862 4.18347,-12.00688 5.8181,-21.85663 1.21978,-7.34997 7.13207,-13.02393 6.30437,-29.10978 -0.8276,-16.08585 6.87296,-39.46064 7.92083,-44.1317 4.70973,-20.99449 2.69279,-39.06902 -5.86766,-49.08785 -27.1454,-22.42085 -10.16294,-14.40047 -23.12554,-20.07283 z m -65.1238,219.02507 c -7.0662,-3.09153 -22.64597,-18.58817 -29.42367,-34.67187 -3.3808,-8.02274 -20.9568,-36.38879 -21.60938,-45.77207 -0.99009,-14.23628 28.00814,-30.07235 28.56916,-31.06598 4.29,-0.35796 13.73675,-18.02149 52.20745,-37.88545 22.8242,-2.54827 23.98844,10.0274 34.87744,3.4917 15.3922,-6.82622 17.10689,7.44403 21.20322,11.13947 0.6368,2.14759 -3.51515,20.69792 -1.57075,36.44383 1.9444,15.74592 -2.87931,11.50707 -3.86478,18.83355 -0.82936,6.16585 -4.23557,13.29033 -4.69868,17.41588 -2.55454,22.75655 -9.27242,50.51008 -29.13821,60.83024 -9.2262,4.79295 -23.1804,2.76901 -31.5711,3.6062 -8.35121,0.83325 -7.2876,0.96526 -14.9807,-2.3655 z"
       style="fill:#000000;display:inline"
       sodipodi:nodetypes="cssccsccssscssscccssccccsssssc" />
    <path
       inkscape:export-ydpi="90"
       inkscape:export-xdpi="90"
       style="fill:#ff6600;fill-opacity:1;stroke:none;display:inline"
       d="m 276.79137,216.62297 c -8.91224,7.92196 -1.92961,10.7105 -10.78343,6.21669 -11.80549,-5.99192 -15.31186,-7.08384 -18.36957,-22.11567 -4.1702,-20.50062 5.24732,-18.95619 19.31109,-21.58315 7.61842,-1.42305 25.27857,23.76071 9.84191,37.48213 z"
       id="path3072"
       inkscape:connector-curvature="0"
       sodipodi:nodetypes="sssss" />
    <path
       style="fill:#000000;stroke:#000000;stroke-width:1.84610653;stroke-miterlimit:4;display:inline"
       d="m 270.87441,313.9574 c -4.14902,-27.24165 -1.4983,-30.62067 -0.6536,-43.36402 0.8447,-12.74333 -6.50907,-63.53806 -9.35899,-66.44939 -8.25539,-8.4332 -20.15224,-21.71017 -28.91168,-9.7411 -12.10393,16.53902 0.71477,60.82227 1.80455,100.14527 0.84321,30.42594 -1.78881,33.22588 0.40861,54.2962 2.19743,21.07037 5.23346,32.76979 8.58675,32.76979 3.3533,0 17.04304,10.13804 19.24063,-10.93227 2.19759,-21.07034 13.5537,-26.06171 8.88373,-56.72446 z"
       id="path3874"
       inkscape:connector-curvature="0"
       sodipodi:nodetypes="cssssssssc" />
    <rect
       style="fill:#000000;stroke:#000000;stroke-width:3;stroke-miterlimit:4;stroke-dasharray:none;display:inline"
       id="rect3877"
       width="35.630161"
       height="6.0831981"
       x="-327.19174"
       y="256.01544"
       transform="scale(-1,1)" />
    <path
       inkscape:export-ydpi="90"
       inkscape:export-xdpi="90"
       style="fill:#000000;fill-opacity:1;stroke:none;display:inline"
       id="path3062"
       d="m -302.14804,453.41989 c -0.4498,4.52857 1.7293,12.06952 1.2627,19.35102 -0.4667,7.28147 0.2317,13.93978 -0.1105,19.01134 -0.3421,5.07176 -0.6886,12.95535 -1.1839,17.93592 -0.4952,4.98057 -0.6052,9.69287 -0.9488,15.07292 -0.3434,5.38001 -0.1894,14.77813 -0.6034,21.27452 -0.9389,12.43416 -21.5386,5.94772 -16.4776,-5.1546 0.2699,-5.3547 1.1559,-9.45782 1.5204,-14.39993 0.3647,-4.94215 -0.8423,-10.49908 -0.3186,-15.70051 0.524,-5.20137 1.1838,-11.992 1.9274,-19.29644 0.7438,-7.30454 -0.4802,-33.89057 -0.5776,-38.12046 -0.097,-4.22997 15.9591,-4.50247 15.5099,0.0262 z"
       inkscape:connector-curvature="0"
       sodipodi:nodetypes="zzzzzcczzzzz"
       inkscape:transform-center-x="-8.1347987"
       inkscape:transform-center-y="3.5336553" />
    <path
       inkscape:export-ydpi="90"
       inkscape:export-xdpi="90"
       sodipodi:nodetypes="csccccccsccccsssss"
       id="path3090"
       d="m 328.61879,255.2347 c 7.41216,-12.04693 5.51822,-10.52164 14.58481,-16.03504 4.87422,-2.96398 16.44313,-1.33698 20.3996,3.77676 3.81784,4.98509 6.1779,11.73908 6.6869,18.81469 l 3.37816,0 0,5.78913 -3.37816,0.68918 c -0.509,7.07561 0.88053,2.1136 -2.93731,7.06652 -1.2783,9.93798 -13.58783,18.1326 -18.79264,16.21411 -11.21837,-4.13506 -15.17485,-8.92161 -20.77433,-26.83222 l 0.53544,-6.23469 -0.53544,0.68917 c 0.55314,11.95777 0.83297,-3.93761 0.83297,-3.93761 z m 20.47702,34.2156 c 9.83365,0 17.81623,-11.128 17.81623,-24.76462 0,-13.6688 -8.00583,-24.76465 -17.81623,-24.76465 -9.83365,0 -17.81634,11.12802 -17.81634,24.76465 0,13.66878 7.98269,24.76462 17.81634,24.76462 z"
       inkscape:connector-curvature="0" />
    <path
       inkscape:export-ydpi="90"
       inkscape:export-xdpi="90"
       style="fill:#000000;fill-opacity:1;stroke:none;display:inline"
       d="m 344.31519,265.48613 c -1.9768,1.86108 2.5753,4.83588 3.7384,6.07137 1.1632,1.23549 3.7086,0.72837 5.6854,-1.13271 1.9768,-1.86107 2.6364,-4.37134 1.4732,-5.60683 -1.1631,-1.23549 -8.9202,-1.1929 -10.897,0.66817 z"
       id="path3094"
       inkscape:connector-curvature="0"
       sodipodi:nodetypes="sssss" />
    <path
       inkscape:connector-curvature="0"
       d="m 695.84222,262.8272 c -6.48904,-15.19079 -4.83098,-13.26746 -12.76839,-20.21968 -4.26718,-3.73748 -14.39527,-1.68588 -17.859,4.76238 -3.34236,6.28604 -5.4085,14.80261 -5.8541,23.72472 l -2.95744,0 0,7.29992 2.95744,0.86903 c 0.4456,8.92211 -0.77087,2.66518 2.57149,8.91066 1.1191,12.53146 11.89557,22.86462 16.45216,20.44546 9.82123,-5.21417 13.28495,-11.24986 18.18707,-33.83456 l -0.46876,-7.86175 0.46876,0.86902 c -0.48426,15.07836 -0.72923,-4.9652 -0.72923,-4.9652 z m -17.92678,43.14478 c -8.60895,0 -15.59737,-14.03205 -15.59737,-31.2274 0,-17.23591 7.00877,-31.22742 15.59737,-31.22742 8.60895,0 15.59746,14.03207 15.59746,31.22742 0,17.2359 -6.98851,31.2274 -15.59746,31.2274 z"
       id="path3013"
       sodipodi:nodetypes="csccccccsccccsssss"
       inkscape:export-xdpi="90"
       inkscape:export-ydpi="90" />
    <path
       sodipodi:nodetypes="sssss"
       inkscape:connector-curvature="0"
       id="path3015"
       d="m 668.80241,270.48613 c 1.9768,1.86108 -2.5753,4.83588 -3.7384,6.07137 -1.1632,1.23549 -3.7086,0.72837 -5.6854,-1.13271 -1.9768,-1.86107 -2.6364,-4.37134 -1.4732,-5.60683 1.1631,-1.23549 8.9202,-1.1929 10.897,0.66817 z"
       style="fill:#000000;fill-opacity:1;stroke:none;display:inline"
       inkscape:export-xdpi="90"
       inkscape:export-ydpi="90" />
    <path
       inkscape:connector-curvature="0"
       d="m 416.73848,254.38064 c -7.41216,-12.32807 -5.51822,-10.76719 -14.58481,-16.40926 -4.87422,-3.03315 -16.44313,-1.36818 -20.3996,3.8649 -3.81784,5.10143 -6.1779,12.01305 -6.6869,19.25378 l -3.37816,0 0,5.92424 3.37816,0.70526 c 0.509,7.24074 -0.88053,2.16293 2.93731,7.23144 1.2783,10.1699 13.58783,18.55577 18.79264,16.5925 11.21837,-4.23156 15.17485,-9.12982 20.77433,-27.45841 l -0.53544,-6.3802 0.53544,0.70526 c -0.55314,12.23683 -0.83297,-4.02951 -0.83297,-4.02951 z m -20.47702,35.01411 c -9.83365,0 -17.81623,-11.3877 -17.81623,-25.34257 0,-13.98779 8.00583,-25.34259 17.81623,-25.34259 9.83365,0 17.81634,11.38772 17.81634,25.34259 0,13.98778 -7.98269,25.34257 -17.81634,25.34257 z"
       id="path3017"
       sodipodi:nodetypes="csccccccsccccsssss"
       inkscape:export-xdpi="90"
       inkscape:export-ydpi="90" />
    <path
       sodipodi:nodetypes="sssss"
       inkscape:connector-curvature="0"
       id="path3019"
       d="m 396.31519,265.48613 c -1.9768,1.86108 2.5753,4.83588 3.7384,6.07137 1.1632,1.23549 3.7086,0.72837 5.6854,-1.13271 1.9768,-1.86107 2.6364,-4.37134 1.4732,-5.60683 -1.1631,-1.23549 -8.9202,-1.1929 -10.897,0.66817 z"
       style="fill:#000000;fill-opacity:1;stroke:none;display:inline"
       inkscape:export-xdpi="90"
       inkscape:export-ydpi="90" />
    <path
       sodipodi:nodetypes="sssss"
       inkscape:connector-curvature="0"
       id="path3355-9"
       d="m 379.88373,301.84231 c 0,1.5272 -0.4471,2.76523 -0.9986,2.76523 -0.5515,0 -2.5521,-0.50479 -2.5521,-2.03199 0,-1.52719 2.0006,-3.49847 2.5521,-3.49847 0.5515,0 0.9986,1.23803 0.9986,2.76523 z"
       style="fill:#000000;fill-opacity:1;stroke:none;display:inline"
       inkscape:export-xdpi="90"
       inkscape:export-ydpi="90"
       inkscape:export-filename="/home/rana/SparkleShare/CCC/linuxCourse/Chapter 1/character/SHROOK/btbosleta7t.png" />
    <path
       style="fill:#000000;fill-opacity:1;stroke:none;display:inline"
       d="m 368.33303,301.84231 c 0,1.5272 0.4471,2.76523 0.9986,2.76523 0.5515,0 2.5521,-0.50479 2.5521,-2.03199 0,-1.52719 -2.0006,-3.49847 -2.5521,-3.49847 -0.5515,0 -0.9986,1.23803 -0.9986,2.76523 z"
       id="path3357-8"
       inkscape:connector-curvature="0"
       sodipodi:nodetypes="sssss"
       inkscape:export-xdpi="90"
       inkscape:export-ydpi="90"
       inkscape:export-filename="/home/rana/SparkleShare/CCC/linuxCourse/Chapter 1/character/SHROOK/btbosleta7t.png" />
    <path
       style="fill:#c8b7b7;fill-opacity:1;stroke:none;display:inline"
       d="m 386.50426,338.40745 c 0,4.29312 -5.66955,16.59106 -11.08422,15.44585 -7.58221,-1.60366 -9.69411,3.84855 -16.87278,-15.35365 -1.33677,-3.57575 8.69889,-6.07773 14.4689,-6.07773 5.77008,0 13.4881,1.69243 13.4881,5.98553 z"
       id="path4268-5"
       inkscape:connector-curvature="0"
       sodipodi:nodetypes="sssss"
       inkscape:export-xdpi="90"
       inkscape:export-ydpi="90"
       inkscape:export-filename="/home/rana/SparkleShare/CCC/linuxCourse/Chapter 1/character/SHROOK/btbosleta7t.png" />
    <path
       style="font-size:medium;font-style:normal;font-variant:normal;font-weight:normal;font-stretch:normal;text-indent:0;text-align:start;text-decoration:none;line-height:normal;letter-spacing:normal;word-spacing:normal;text-transform:none;direction:ltr;block-progression:tb;writing-mode:lr-tb;text-anchor:start;baseline-shift:baseline;color:#000000;fill:#c60003;fill-opacity:1;fill-rule:nonzero;stroke:none;visibility:visible;display:inline;overflow:visible;enable-background:accumulate;font-family:sans-serif"
       d="m 372.59991,332.44266 c -3.85263,0.13207 -7.86685,0.5792 -11.36518,2.406 -1.28616,0.67164 -2.84658,1.50736 -3.30282,3.0221 -0.41418,1.37528 0.42844,2.92151 0.89559,4.23892 0.67502,1.90358 1.25597,3.64184 2.69391,5.12179 2.89561,2.98017 6.50199,6.97956 11.38529,6.98723 5.00267,0.008 8.84466,-3.2977 11.70255,-7.1213 1.82271,-2.43866 2.76677,-5.88014 2.71051,-9.07041 -0.0217,-1.2356 -0.3245,-2.68199 -1.17281,-3.46303 -1.22461,-1.1275 -3.11411,-0.6113 -4.67799,-0.8667 -2.94879,-0.48155 -5.89096,-1.3567 -8.86905,-1.2546 z m -0.57844,6.25938 c 3.40257,0.0116 6.8129,0.11781 10.20701,-0.15465 1.12931,-0.0907 2.56993,-1.39767 3.36855,-0.4916 0.66828,0.75823 0.0457,2.22385 -0.3782,3.18052 -0.68205,1.53938 -2.06145,2.65442 -3.26238,3.61902 -2.92847,2.35216 -6.05901,5.1679 -9.42244,5.13309 -2.49818,-0.0258 -4.89281,-2.41459 -6.9586,-3.95693 -1.82795,-1.36476 -3.63819,-2.84726 -4.71175,-4.61357 -0.58234,-0.95806 -1.43922,-2.24756 -0.84858,-3.09843 0.55365,-0.79751 1.79102,0.13847 2.68784,0.178 3.10442,0.13681 6.21179,0.19399 9.31855,0.20455 z"
       id="path3444-6"
       inkscape:connector-curvature="0"
       sodipodi:nodetypes="aaaaaaaaaaaaaaaaaaaaaa"
       inkscape:export-xdpi="90"
       inkscape:export-ydpi="90"
       inkscape:export-filename="/home/rana/SparkleShare/CCC/linuxCourse/Chapter 1/character/SHROOK/btbosleta7t.png" />
    <path
       style="fill:#ffffff;display:inline"
       d="m 372.6319,338.70229 c 0,0 -1.93349,4.84367 0,6.3374 1.23037,0.95054 3.98962,0.95054 5.22007,0 1.79261,-1.38492 0,-5.87575 0,-5.87575 -1.50805,-0.20946 -3.247,-0.36465 -5.22007,-0.46165 z"
       id="path4250-7"
       inkscape:connector-curvature="0"
       inkscape:export-xdpi="90"
       inkscape:export-ydpi="90"
       sodipodi:nodetypes="caacc"
       inkscape:export-filename="/home/rana/SparkleShare/CCC/linuxCourse/Chapter 1/character/SHROOK/btbosleta7t.png" />
    <path
       inkscape:connector-curvature="0"
       id="path4257-0"
       d="m 372.42887,338.70051 c 0,0 1.93358,4.84367 0,6.3374 -1.23037,0.95054 -3.98962,0.95054 -5.21999,0 -1.79269,-1.38493 0,-5.87575 0,-5.87575 1.50797,-0.20946 3.24693,-0.36465 5.21999,-0.46165 z"
       style="fill:#ffffff;display:inline"
       inkscape:export-xdpi="90"
       inkscape:export-ydpi="90"
       sodipodi:nodetypes="caacc"
       inkscape:export-filename="/home/rana/SparkleShare/CCC/linuxCourse/Chapter 1/character/SHROOK/btbosleta7t.png" />
    <path
       sodipodi:nodetypes="sssss"
       inkscape:connector-curvature="0"
       id="path3038"
       d="m 430.35314,197.19706 c 3.54179,3.76838 4.80646,4.70079 6.69975,1.63211 2.52448,-4.09169 0.50754,-6.3566 -0.61058,-14.84365 -1.52491,-11.57477 -4.58237,-19.01651 -13.23716,-12.97697 -1.91946,1.33946 1.01335,19.66141 7.14799,26.18851 z"
       style="fill:#ff6600;fill-opacity:1;stroke:none;display:inline"
       inkscape:export-xdpi="90"
       inkscape:export-ydpi="90" />
    <path
       inkscape:export-ydpi="90"
       inkscape:export-xdpi="90"
       sodipodi:nodetypes="zzzzzcczzzzz"
       inkscape:connector-curvature="0"
       d="m 299.10606,498.84988 c -4.83069,-2.62673 -21.09222,-11.68643 -29.04381,-15.54962 -7.9515,-3.86324 -12.78998,-6.0749 -18.31605,-8.78976 -5.52609,-2.71486 -9.20108,-5.62308 -14.51314,-8.51327 -5.31215,-2.89016 -11.39237,-6.2233 -17.26844,-9.07584 -5.87608,-2.85251 -10.62568,-5.51293 -17.7216,-8.95636 -13.47623,-6.79667 -1.25705,-26.57407 7.73414,-14.56285 5.90048,2.73746 11.95179,6.21168 17.31412,8.9012 5.36243,2.68951 10.5095,4.024 16.05232,7.05176 5.54276,3.02785 12.78907,7.59655 24.6894,13.65303 11.90039,6.05641 25.70273,12.49886 30.58746,14.22435 4.8847,1.7255 5.31627,24.24409 0.4856,21.61736 z"
       id="path4201-4"
       style="fill:#000000;fill-opacity:1;stroke:none;display:inline"
       inkscape:export-filename="/home/rana/SparkleShare/CCC/linuxCourse/Chapter 1/character/SHROOK/btbosleta7t.png" />
    <path
       inkscape:export-ydpi="90"
       inkscape:export-xdpi="90"
       style="fill:#000000;fill-opacity:1;stroke:none;display:inline"
       id="path4204-3-7"
       d="m 289.27718,368.76377 c -4.10232,3.43061 -16.70874,7.83887 -23.62329,13.07321 -6.91453,5.23433 -14.63766,8.78281 -19.43248,12.44746 -4.79471,3.66459 -12.47877,9.15718 -16.98923,12.93115 -4.51047,3.77397 -9.2244,6.95014 -14.33484,10.8161 -5.11062,3.86602 -14.97668,9.78974 -21.14864,14.45717 -11.63091,9.09446 20.688,27.55248 25.81684,14.78643 5.17647,-3.76834 8.29722,-7.40341 12.93052,-11.00879 4.63346,-3.60542 11.85632,-5.88016 16.55849,-9.82887 4.70205,-3.9487 10.87085,-9.07724 17.4644,-14.63122 6.5934,-5.55397 24.21703,-14.06344 28.6927,-16.69868 4.47555,-2.6352 -1.83228,-29.77455 -5.93447,-26.34396 z"
       inkscape:connector-curvature="0"
       sodipodi:nodetypes="zzzzzcczzzzz"
       inkscape:export-filename="/home/rana/SparkleShare/CCC/linuxCourse/Chapter 1/character/SHROOK/btbosleta7t.png"
       inkscape:transform-center-y="-11.97637"
       inkscape:transform-center-x="-6.4770277" />
    <path
       inkscape:export-filename="/home/rana/SparkleShare/CCC/linuxCourse/Chapter 1/character/SHROOK/btbosleta7t.png"
       style="fill:#000000;fill-opacity:1;stroke:none;display:inline"
       id="path3051"
       d="m 403.00524,500.24793 c 4.25445,-2.47077 18.58223,-11.00533 25.57254,-14.61202 6.99024,-3.60675 11.23992,-5.6624 16.09877,-8.19899 4.85886,-2.53659 8.1207,-5.32569 12.79916,-8.04437 4.67853,-2.71864 10.03421,-5.85546 15.19985,-8.51845 5.16564,-2.66297 9.35084,-5.17 15.58881,-8.38454 11.85397,-6.36183 1.82484,-26.52021 -6.29128,-14.80294 -5.18358,2.54719 -10.51813,5.82594 -15.23455,8.34244 -4.71649,2.51649 -9.20899,3.68555 -14.09101,6.53434 -4.88197,2.84888 -11.28132,7.18331 -21.75061,12.85577 -10.46935,5.6724 -22.59581,11.66976 -26.87205,13.23802 -4.27624,1.56826 -5.27407,24.06149 -1.01963,21.59074 z"
       inkscape:connector-curvature="0"
       sodipodi:nodetypes="zzzzzcczzzzz"
       inkscape:export-xdpi="90"
       inkscape:export-ydpi="90" />
    <path
       inkscape:transform-center-x="5.6096471"
       inkscape:transform-center-y="-11.97637"
       inkscape:export-filename="/home/rana/SparkleShare/CCC/linuxCourse/Chapter 1/character/SHROOK/btbosleta7t.png"
       sodipodi:nodetypes="zzzzzcczzzzz"
       inkscape:connector-curvature="0"
       d="m 410.32911,370.76377 c 3.55295,3.43061 14.47117,7.83887 20.45975,13.07321 5.98856,5.23433 12.67743,8.78281 16.83015,12.44746 4.15262,3.66459 10.80766,9.15718 14.7141,12.93115 3.90644,3.77397 7.9891,6.95014 12.41517,10.8161 4.42622,3.86602 12.97106,9.78974 18.31649,14.45717 10.07334,9.09446 -17.91754,27.55248 -22.35955,14.78643 -4.48325,-3.76834 -7.18608,-7.40341 -11.19891,-11.00879 -4.01296,-3.60542 -10.26856,-5.88016 -14.34104,-9.82887 -4.07236,-3.9487 -9.41506,-9.07724 -15.12563,-14.63122 -5.71043,-5.55397 -20.97397,-14.06344 -24.85028,-16.69868 -3.8762,-2.6352 1.58691,-29.77455 5.13975,-26.34396 z"
       id="path3053"
       style="fill:#000000;fill-opacity:1;stroke:none;display:inline"
       inkscape:export-xdpi="90"
       inkscape:export-ydpi="90" />
  </g>
</svg>
