<?xml version="1.0" encoding="UTF-8" standalone="no"?>
<!-- Created with Inkscape (http://www.inkscape.org/) -->

<svg
   xmlns:dc="http://purl.org/dc/elements/1.1/"
   xmlns:cc="http://creativecommons.org/ns#"
   xmlns:rdf="http://www.w3.org/1999/02/22-rdf-syntax-ns#"
   xmlns:svg="http://www.w3.org/2000/svg"
   xmlns="http://www.w3.org/2000/svg"
   xmlns:sodipodi="http://sodipodi.sourceforge.net/DTD/sodipodi-0.dtd"
   xmlns:inkscape="http://www.inkscape.org/namespaces/inkscape"
   id="svg4136"
   version="1.1"
   inkscape:version="0.91 r13725"
   width="1438.75"
   height="2560"
   viewBox="0 0 1438.75 2560"
   sodipodi:docname="3alaaSURPRISED.svg">
  <metadata
     id="metadata4142">
    <rdf:RDF>
      <cc:Work
         rdf:about="">
        <dc:format>image/svg+xml</dc:format>
        <dc:type
           rdf:resource="http://purl.org/dc/dcmitype/StillImage" />
        <dc:title></dc:title>
      </cc:Work>
    </rdf:RDF>
  </metadata>
  <defs
     id="defs4140">
    <inkscape:path-effect
       effect="powerstroke"
       id="path-effect4188"
       is_visible="true"
       offset_points="0,0.5"
       sort_points="true"
       interpolator_type="CubicBezierJohan"
       interpolator_beta="0.2"
       start_linecap_type="zerowidth"
       linejoin_type="round"
       miter_limit="4"
       end_linecap_type="zerowidth"
       cusp_linecap_type="round" />
    <inkscape:path-effect
       effect="powerstroke"
       id="path-effect4159"
       is_visible="true"
       offset_points="0,-13.607737"
       sort_points="true"
       interpolator_type="Linear"
       interpolator_beta="0.2"
       start_linecap_type="zerowidth"
       linejoin_type="round"
       miter_limit="4"
       end_linecap_type="zerowidth"
       cusp_linecap_type="round" />
    <inkscape:path-effect
       effect="powerstroke"
       id="path-effect4155"
       is_visible="true"
       offset_points="0,12.648566"
       sort_points="true"
       interpolator_type="Linear"
       interpolator_beta="0.2"
       start_linecap_type="zerowidth"
       linejoin_type="round"
       miter_limit="4"
       end_linecap_type="zerowidth"
       cusp_linecap_type="round" />
    <inkscape:path-effect
       effect="skeletal"
       id="path-effect4228"
       is_visible="true"
       pattern="m 2276.5777,-1104.5759 c 0,-2.76 2.24,-5 5,-5 2.76,0 5,2.24 5,5 0,2.76 -2.24,5 -5,5 -2.76,0 -5,-2.24 -5,-5 z"
       copytype="single_stretched"
       prop_scale="1"
       scale_y_rel="false"
       spacing="0"
       normal_offset="0"
       tang_offset="0"
       prop_units="false"
       vertical_pattern="false"
       fuse_tolerance="0" />
    <inkscape:path-effect
       effect="spiro"
       id="path-effect4226"
       is_visible="true" />
    <inkscape:path-effect
       fuse_tolerance="0"
       vertical_pattern="false"
       prop_units="false"
       tang_offset="0"
       normal_offset="0"
       spacing="0"
       scale_y_rel="false"
       prop_scale="1"
       copytype="single_stretched"
       pattern="m 2415.778,-251.07182 c 0,-2.76 2.24,-5 5,-5 2.76,0 5,2.24 5,5 0,2.76 -2.24,5 -5,5 -2.76,0 -5,-2.24 -5,-5 z"
       is_visible="true"
       id="path-effect4222"
       effect="skeletal" />
    <inkscape:path-effect
       is_visible="true"
       id="path-effect4220"
       effect="spiro" />
    <inkscape:path-effect
       fuse_tolerance="0"
       vertical_pattern="false"
       prop_units="false"
       tang_offset="0"
       normal_offset="0"
       spacing="0"
       scale_y_rel="false"
       prop_scale="1"
       copytype="single_stretched"
       pattern="m 413.32934,166.00599 c 0,-2.76 2.24,-5 5,-5 2.76,0 5,2.24 5,5 0,2.76 -2.24,5 -5,5 -2.76,0 -5,-2.24 -5,-5 z"
       is_visible="true"
       id="path-effect4276"
       effect="skeletal" />
    <inkscape:path-effect
       is_visible="true"
       id="path-effect4274"
       effect="spiro" />
    <inkscape:path-effect
       effect="skeletal"
       id="path-effect4270"
       is_visible="true"
       pattern="m 7.329341,162.00599 c 0,-2.76 2.24,-5 5,-5 2.76,0 5,2.24 5,5 0,2.76 -2.24,5 -5,5 -2.76,0 -5,-2.24 -5,-5 z"
       copytype="single_stretched"
       prop_scale="1"
       scale_y_rel="false"
       spacing="0"
       normal_offset="0"
       tang_offset="0"
       prop_units="false"
       vertical_pattern="false"
       fuse_tolerance="0" />
    <inkscape:path-effect
       effect="spiro"
       id="path-effect4268"
       is_visible="true" />
  </defs>
  <sodipodi:namedview
     pagecolor="#ffffff"
     bordercolor="#666666"
     borderopacity="1"
     objecttolerance="10"
     gridtolerance="10"
     guidetolerance="10"
     inkscape:pageopacity="0"
     inkscape:pageshadow="2"
     inkscape:window-width="2434"
     inkscape:window-height="1471"
     id="namedview4138"
     showgrid="false"
     showguides="true"
     inkscape:zoom="0.78281252"
     inkscape:cx="840.15953"
     inkscape:cy="1361.6289"
     inkscape:window-x="126"
     inkscape:window-y="55"
     inkscape:window-maximized="1"
     inkscape:current-layer="svg4136" />
  <rect
     style="fill:#f8e1c7;fill-opacity:1;fill-rule:evenodd;stroke:#000000;stroke-width:8.919;stroke-linecap:round;stroke-linejoin:miter;stroke-miterlimit:4;stroke-dasharray:none;stroke-opacity:1"
     id="rect4280"
     width="72.417778"
     height="151.90727"
     x="682.80988"
     y="1681.9247"
     inkscape:export-xdpi="90"
     inkscape:export-ydpi="90" />
  <path
     inkscape:export-ydpi="90"
     inkscape:export-xdpi="90"
     sodipodi:nodetypes="cccsssscc"
     inkscape:connector-curvature="0"
     id="path4282"
     d="m 569.55036,1818.8022 0,2.5 0,2.5 c 0,0 33.56977,185.4254 13.71703,398.8043 -19.85274,213.3789 -93.12799,454.7115 19.2811,566.5258 51.2818,51.0106 162.30808,50.7429 213.8395,0 113.58732,-111.8492 38.85627,-354.4318 21.1353,-569.052 -17.72096,-214.6202 21.56816,-401.2781 21.56816,-401.2781 z"
     style="color:#000000;font-style:normal;font-variant:normal;font-weight:normal;font-stretch:normal;font-size:medium;line-height:normal;font-family:sans-serif;text-indent:0;text-align:start;text-decoration:none;text-decoration-line:none;text-decoration-style:solid;text-decoration-color:#000000;letter-spacing:normal;word-spacing:normal;text-transform:none;direction:ltr;block-progression:tb;writing-mode:lr-tb;baseline-shift:baseline;text-anchor:start;white-space:normal;clip-rule:nonzero;display:inline;overflow:visible;visibility:visible;opacity:1;isolation:auto;mix-blend-mode:normal;color-interpolation:sRGB;color-interpolation-filters:linearRGB;solid-color:#000000;solid-opacity:1;fill:#aa0000;fill-opacity:1;fill-rule:nonzero;stroke:none;stroke-width:10;stroke-linecap:round;stroke-linejoin:miter;stroke-miterlimit:4;stroke-dasharray:none;stroke-dashoffset:0;stroke-opacity:1;color-rendering:auto;image-rendering:auto;shape-rendering:auto;text-rendering:auto;enable-background:accumulate" />
  <path
     style="color:#000000;font-style:normal;font-variant:normal;font-weight:normal;font-stretch:normal;font-size:medium;line-height:normal;font-family:sans-serif;text-indent:0;text-align:start;text-decoration:none;text-decoration-line:none;text-decoration-style:solid;text-decoration-color:#000000;letter-spacing:normal;word-spacing:normal;text-transform:none;direction:ltr;block-progression:tb;writing-mode:lr-tb;baseline-shift:baseline;text-anchor:start;white-space:normal;clip-rule:nonzero;display:inline;overflow:visible;visibility:visible;opacity:1;isolation:auto;mix-blend-mode:normal;color-interpolation:sRGB;color-interpolation-filters:linearRGB;solid-color:#000000;solid-opacity:1;fill:#000000;fill-opacity:1;fill-rule:nonzero;stroke:none;stroke-width:10;stroke-linecap:round;stroke-linejoin:miter;stroke-miterlimit:4;stroke-dasharray:none;stroke-dashoffset:0;stroke-opacity:1;color-rendering:auto;image-rendering:auto;shape-rendering:auto;text-rendering:auto;enable-background:accumulate"
     d="m 569.76953,1810.3496 0,2.5 0,2.5 c 0,0 34.58903,185.4254 14.13355,398.8043 -20.45548,213.3789 -95.95548,454.7115 19.86645,566.5258 52.83887,51.0106 167.23604,50.7429 220.33203,0 117.03602,-111.8492 40.03602,-354.4318 21.77702,-569.052 -18.25901,-214.6202 22.22298,-401.2781 22.22298,-401.2781 z m 10,10 278.33203,0 c 0,0 -41.65956,182.8355 -23.98935,393.0445 17.67022,210.209 94.67022,447.7916 -20.01065,557.2856 -48.29828,46.1138 -152.2766,46.3669 -200.33203,0 -114.055,-110.0474 -38.555,-347.63 -18.54125,-557.7006 20.01375,-210.0707 -15.45875,-392.6295 -15.45875,-392.6295 z"
     id="rect4211"
     inkscape:connector-curvature="0"
     sodipodi:nodetypes="cccssssccccssssc"
     inkscape:export-xdpi="90"
     inkscape:export-ydpi="90" />
  <path
     inkscape:connector-curvature="0"
     id="path4207"
     d="m 746.58108,1725.7622 c -10.3682,-2.7165 -24.26306,-7.4837 -32.3262,-16.1097 l -6.4318,-4.8808 -4.1932,4.3815 c -4.0879,4.2713 -4.3817,4.3641 -11.6932,3.6897 -16.8014,-1.5495 -44.2963,-10.4567 -59.3325,-19.2212 -12.0247,-7.0092 -26.3813,-21.2064 -31.6612,-31.3098 -7.5171,-14.3845 -8.5821,-19.6741 -8.9903,-44.6515 -0.2787,-17.0575 -0.988,-29.2786 -2.9325,-37.9874 -6.0701,-27.1861 -18.9372,-49.4407 -40.0956,-69.3487 -8.2267,-7.7404 -11.647,-12.3676 -22.0192,-29.7889 -56.5997,-95.0659 -84.2251,-183.4367 -81.4733,-260.625 0.7101,-19.9186 2.921,-36.3074 6.6595,-49.3645 1.9999,-6.9846 2.5681,-27.3437 0.997,-35.7187 -0.6651,-3.5454 -1.8441,-4.7653 -7.2234,-7.4735 -3.5357,-1.78 -9.0623,-5.0268 -12.2814,-7.2149 -3.219,-2.1881 -10.2503,-6.7769 -15.625,-10.1973 -5.3747,-3.4202 -10.5072,-7.2171 -11.4055,-8.4375 -0.8984,-1.2202 -2.0978,-2.2186 -2.6655,-2.2186 -0.5676,0 -3.2162,-2.1094 -5.8858,-4.6875 -2.6696,-2.5781 -6.2514,-5.8659 -7.9596,-7.306 -1.7081,-1.4402 -3.9495,-3.9029 -4.9807,-5.4726 -1.0313,-1.5698 -2.8528,-4.0476 -4.0479,-5.5065 -13.6606,-16.6753 -15.0991,-20.5828 -15.2416,-41.4024 -0.064,-9.3806 0.4906,-13.95 2.2232,-18.3102 l 2.3087,-5.8103 -12.5764,-17.52311 c -22.8449,-31.8305 -39.2122,-58.9452 -53.9288,-89.3401 -10.6951,-22.0893 -18.7372,-43.7034 -18.7372,-50.3587 0,-5.278 -4.9331,-18.5439 -10.8778,-29.2521 -15.1526,-27.2944 -35.5312,-49.9502 -55.1797,-61.3458 l -7.4308,-4.3097 -10.0493,-20.625 c -18.7846,-38.5534 -27.0495,-69.2412 -29.6255,-110 -2.096,-33.1635 6.1437,-79.0342 20.855,-116.1 l 3.6613,-9.225 -2.1678,-13.275 c -2.9376,-17.9893 -2.8965,-58.9895 0.079,-78.275 11.9177,-77.2569 47.6212,-130.5473 109.6797,-163.7059 9.7012,-5.1835 10.5396,-6.001 22.5354,-21.976 49.1547,-65.4597 107.3864,-119.1437 169.771,-156.512202 57.4843,-34.4332 118.3792,-55.436 182.5,-62.9446 23.7068,-2.7760998 84.4521,-3.2176998 91.6697,-0.6665 6.4499,2.2799 13.2258,8.4397 15.9991,14.5445 4.4623,9.8227 2.249,30.4846 -5.2431,48.9438 -1.5139,3.73 -2.5162,7.0181 -2.2273,7.307 0.2888,0.2888 10.3467,-0.2667 22.3509,-1.2344 185.682,-14.9695 300.17822,-8.2823 356.51792,20.822602 8.2187,4.2458 12.9887,7.9948 23.5357,18.4983 15.4753,15.4116 19.1208,21.7287 19.144,33.1734 0.018,9.1538 -3.2503,16.1682 -11.494,24.6646 l -5.7387,5.9145 8.3004,15.9727 c 11.9265,22.9506 19.2527,42.5184 24.2229,64.6982 3.0505,13.6135 3.1072,40.5927 0.109,51.875 -3.6045,13.5633 -11.4538,27.9689 -20.4167,37.47 l -8.0641,8.5483 7.0519,4.0347 c 20.2665,11.5953 35.0521,32.8652 41.9006,60.2763 3.7142,14.8663 4.5947,47.4944 1.8462,68.4207 -134.483,195.33716 -204.2383,390.40128 -206.3149,456.32638 -5.5,1.8777 2.0879,116.71423 -7.5823,158.07913 -5.3252,22.7787 -19.2511,55.8445 -20.754,59.9695 -1.5029,4.125 -4.14322,10.0313 -5.86732,13.125 l -3.1346,5.625 1.6455,15 c 2.1432,19.5369 -23.833,80.2694 -25.961,100 -10.6112,98.3966 -45.1705,189.4488 -103.4289,272.5 l -10.5222,19 -0.023,12.5328 c -0.063,34.9427 -7.3283,59.0205 -24.8849,82.4672 -14.8867,19.8811 -16.8244,22.1474 -24.15,28.2439 -17.9852,14.9674 -38.22,19.5024 -60.7182,13.6079 z m -296.6274,-611.7893 c -0.059,-1.5469 -1.3517,-9 -2.872,-16.5625 l -2.7642,-13.75 -1.5998,4.6875 c -0.88,2.5781 -2.0521,4.6875 -2.6047,4.6875 -1.3977,0 -19.8008,-20.6356 -39.2752,-44.0396 -18.1175,-21.7734 -17.6364,-21.5891 -19.0503,-7.2989 -0.7077,7.1529 1.5005,18.327 4.7269,23.9195 3.9371,6.8245 25.3327,28.669 28.0798,28.669 0.6139,0 1.8187,1.125 2.6774,2.5 0.8587,1.375 2.3314,2.5 3.2726,2.5 0.9412,0 2.4834,0.9351 3.4269,2.0781 0.9436,1.143 3.9656,3.1527 6.7156,4.4659 2.75,1.3134 7.806,4.3156 11.2357,6.6719 7.3476,5.0481 8.1744,5.1996 8.0313,1.4716 z m 180.108,-24.6875 c 0,-0.6875 1.9355,-1.25 4.3012,-1.25 2.3657,0 4.6489,-0.5625 5.0738,-1.25 0.4249,-0.6875 2.1456,-1.25 3.8237,-1.25 1.6782,0 3.0513,-0.4297 3.0513,-0.9551 0,-0.9523 9.0749,-5.2949 11.0648,-5.2949 0.5762,0 2.0658,-1.125 3.3102,-2.5 1.2443,-1.375 2.8678,-2.5 3.6077,-2.5 1.8138,0 24.5173,-22.6965 24.5173,-24.5097 0,-0.7888 0.8774,-2.1623 1.9497,-3.0523 2.1924,-1.8195 6.8003,-10.8044 6.8003,-13.2597 0,-0.8813 1.125,-3.6052 2.5,-6.0533 1.375,-2.4481 2.5,-6.1214 2.5,-8.163 0,-2.0416 0.5625,-3.712 1.25,-3.712 0.7843,0 1.25,-7.9166 1.25,-21.25 l 0,-21.25001 -96.875,0 -96.875,0 0,21.25001 c 0,13.3334 0.4657,21.25 1.25,21.25 0.6875,0 1.25,1.6704 1.25,3.712 0,2.0416 1.125,5.7149 2.5,8.163 1.375,2.4481 2.5,5.172 2.5,6.0533 0,2.4553 4.6079,11.4402 6.8002,13.2597 1.0724,0.89 1.9498,2.2418 1.9498,3.0041 0,1.8168 22.6588,24.5579 24.469,24.5579 0.7664,0 2.4116,1.125 3.656,2.5 1.2443,1.375 2.7934,2.5 3.4423,2.5 1.3058,0 7.7374,2.7096 15.1133,6.367 2.6431,1.3106 6.44,2.383 8.4375,2.383 1.9975,0 3.6319,0.5625 3.6319,1.25 0,0.7858 8.125,1.25 21.875,1.25 13.75,0 21.875,-0.4642 21.875,-1.25 z m -38.4458,-27.0806 c -12.7803,-4.5235 -22.2245,-20.4389 -22.1303,-37.2944 0.072,-12.8824 6.1859,-22.6538 18.0761,-28.8896 6.3746,-3.34311 20.2604,-3.14701 26.875,0.3797 10.7387,5.7256 19.0179,19.1984 20.2936,33.0244 2.1696,23.5138 -20.5311,40.7731 -43.1144,32.7799 z m 17.8776,-23.4875 c 1.6875,-1.6875 3.0682,-4.2444 3.0682,-5.6819 0,-3.3725 -5.3775,-8.75 -8.75,-8.75 -3.3725,0 -8.75,5.3775 -8.75,8.75 0,3.3725 5.3775,8.75 8.75,8.75 1.4375,0 3.9943,-1.3806 5.6818,-3.0681 z m -7.4895,-18.2908 c 1.2881,-2.0843 -1.609,-4.4743 -3.3334,-2.75 -1.4424,1.4424 -0.5397,4.1089 1.3911,4.1089 0.6063,0 1.4804,-0.6115 1.9423,-1.3589 z m 328.0577,61.3589 c 0,-0.6875 1.6343,-1.25 3.6318,-1.25 1.9976,0 5.7944,-1.0724 8.4375,-2.383 7.3759,-3.6574 13.8076,-6.367 15.1133,-6.367 0.649,0 2.198,-1.125 3.4424,-2.5 1.2443,-1.375 2.8678,-2.5 3.6077,-2.5 1.8139,0 24.51732,-22.6965 24.51732,-24.5097 0,-0.7888 0.8774,-2.1623 1.9497,-3.0523 2.1924,-1.8195 6.8003,-10.8044 6.8003,-13.2597 0,-0.8813 1.125,-3.6052 2.5,-6.0533 1.375,-2.4481 2.5,-6.1214 2.5,-8.163 0,-2.0416 0.5625,-3.712 1.25,-3.712 0.7843,0 1.25,-7.9166 1.25,-21.25001 l 0,-21.25 -96.87502,0 -96.875,0 0,21.25 c 0,13.33341 0.4657,21.25001 1.25,21.25001 0.6875,0 1.25,1.6704 1.25,3.712 0,2.0416 1.125,5.7149 2.5,8.163 1.375,2.4481 2.5,5.172 2.5,6.0533 0,2.4553 4.6079,11.4402 6.8002,13.2597 1.0724,0.89 1.9498,2.2418 1.9498,3.0041 0,1.8168 22.6588,24.5579 24.469,24.5579 0.7664,0 2.4116,1.125 3.656,2.5 1.2443,1.375 2.7339,2.5 3.3101,2.5 1.99,0 11.0649,4.3426 11.0649,5.2949 0,0.5254 1.373,0.9551 3.0512,0.9551 1.6782,0 3.3989,0.5625 3.8238,1.25 0.4249,0.6875 2.7081,1.25 5.0738,1.25 2.3656,0 4.3012,0.5625 4.3012,1.25 0,0.7858 8.125,1.25 21.875,1.25 13.75,0 21.875,-0.4642 21.875,-1.25 z m -28.4458,-27.0806 c -7.4601,-2.6404 -15.857,-11.4253 -18.4858,-19.3398 -5.382,-16.2037 3.5802,-38.3463 18.8066,-46.46451 6.6145,-3.5267 20.5003,-3.7228 26.875,-0.3797 11.8901,6.23581 18.0041,16.00731 18.0761,28.88961 0.1536,27.4979 -21.8161,45.5964 -45.2719,37.2944 z m 16.6276,-23.4875 c 1.6875,-1.6875 3.0682,-4.2444 3.0682,-5.6819 0,-1.4375 -1.3807,-3.9944 -3.0682,-5.6819 -1.6875,-1.6875 -4.2443,-3.0681 -5.6818,-3.0681 -1.4375,0 -3.9943,1.3806 -5.6818,3.0681 -1.6875,1.6875 -3.0682,4.2444 -3.0682,5.6819 0,1.4375 1.3807,3.9944 3.0682,5.6819 1.6875,1.6875 4.2443,3.0681 5.6818,3.0681 1.4375,0 3.9943,-1.3806 5.6818,-3.0681 z m 0.01,-18.2908 c 1.2881,-2.0843 -1.609,-4.4744 -3.3334,-2.75 -1.4424,1.4424 -0.5397,4.1089 1.3911,4.1089 0.6063,0 1.4804,-0.6115 1.9423,-1.3589 z M 1029.5664,800.87399 c -0.4154,-0.4154 -0.7108,0.3229 -0.6565,1.6406 0.06,1.4562 0.3561,1.7524 0.7552,0.7552 0.361,-0.9023 0.3166,-1.9805 -0.099,-2.3958 z"
     style="fill:#f8e1c7"
     sodipodi:nodetypes="cscccsssssssssscccssccccccssssscssscscssssssssssscscsssscssccssccscsccsscccsccsssssssccscsssssscsscssssscccssssscsscssssssssssssssssssscsssssscsscssssscccssssscsscssssssssssscssssssssssssssscsccc"
     inkscape:export-xdpi="90"
     inkscape:export-ydpi="90" />
  <path
     style="color:#000000;font-style:normal;font-variant:normal;font-weight:normal;font-stretch:normal;font-size:medium;line-height:normal;font-family:sans-serif;text-indent:0;text-align:start;text-decoration:none;text-decoration-line:none;text-decoration-style:solid;text-decoration-color:#000000;letter-spacing:normal;word-spacing:normal;text-transform:none;direction:ltr;block-progression:tb;writing-mode:lr-tb;baseline-shift:baseline;text-anchor:start;white-space:normal;clip-rule:nonzero;display:inline;overflow:visible;visibility:visible;opacity:1;isolation:auto;mix-blend-mode:normal;color-interpolation:sRGB;color-interpolation-filters:linearRGB;solid-color:#000000;solid-opacity:1;fill:#000000;fill-opacity:1;fill-rule:nonzero;stroke:#000000;stroke-width:5;stroke-linecap:butt;stroke-linejoin:miter;stroke-miterlimit:4;stroke-dasharray:none;stroke-dashoffset:0;stroke-opacity:1;color-rendering:auto;image-rendering:auto;shape-rendering:auto;text-rendering:auto;enable-background:accumulate"
     d="M 730.83203,7.015625 C 711.76877,7.1542153 690.65911,7.9561829 678.75977,9.3496094 614.56834,16.866513 553.6015,37.894186 496.06055,72.361328 433.61255,109.76779 375.33617,163.49555 326.14648,229.00195 c -5.99702,7.98631 -9.20117,12.17298 -12.07812,14.97852 -2.87696,2.80554 -5.44671,4.26801 -10.29297,6.85742 -62.18455,33.22592 -98.00213,86.69891 -109.9375,164.07031 -2.9912,19.39036 -3.03535,60.32235 -0.0781,78.43164 l 2.14453,13.13868 -3.60938,9.09765 c -14.7398,37.13775 -22.99365,83.03967 -20.89062,116.31445 2.57927,40.81023 10.8707,71.59207 29.67578,110.1875 l 10.11719,20.76368 7.5625,4.38476 c 19.52949,11.32658 39.87498,33.92553 54.99218,61.15625 2.95832,5.32881 5.66978,11.30434 7.63672,16.59375 1.96694,5.28941 3.17774,9.93279 3.17774,12.41602 0,3.52904 2.03618,10.55092 5.39062,19.5664 3.35444,9.01549 8.0444,19.95179 13.39844,31.00977 14.72914,30.4208 31.11532,57.5661 53.97265,89.41406 l 12.41602,17.30079 -2.20703,5.5566 c -1.76331,4.4376 -2.32401,9.0967 -2.25977,18.4981 0.14263,20.8422 1.68149,25.0232 15.35547,41.7148 1.17703,1.4368 3.00211,3.9191 4.01758,5.4649 1.08203,1.647 3.31806,4.0976 5.07617,5.58 1.6848,1.4204 5.27199,4.7128 7.9336,7.2832 1.34521,1.2992 2.68386,2.4788 3.76757,3.3418 0.54186,0.4316 1.01912,0.7842 1.41211,1.0372 0.1965,0.1264 0.37107,0.2276 0.53321,0.3046 0.16213,0.077 0.29373,0.1446 0.51953,0.1446 -0.009,0 0.44451,0.1658 0.89062,0.5371 0.44611,0.3713 0.94826,0.9015 1.37305,1.4785 0.28596,0.3885 0.78293,0.8465 1.48633,1.4375 0.70339,0.591 1.60313,1.2935 2.64258,2.0625 2.07889,1.5379 4.71292,3.3461 7.41015,5.0625 5.37044,3.4177 12.4054,8.0089 15.61328,10.1895 3.24892,2.2084 8.77102,5.4523 12.33789,7.248 2.67583,1.3472 4.26994,2.3163 5.24414,3.3242 0.97421,1.008 1.38829,2.0647 1.7129,3.7949 0.77002,4.1046 1.02708,11.2852 0.83203,18.2735 -0.19505,6.9883 -0.85038,13.8341 -1.81836,17.2148 -3.75462,13.1134 -5.96861,29.5386 -6.67969,49.4844 -2.75655,77.3208 24.91207,165.777 81.54492,260.8984 10.37697,17.4293 13.85671,22.1373 22.10547,29.8985 21.0967,19.8499 33.89925,41.9957 39.94922,69.0918 1.93551,8.6687 2.64334,16.8404 2.92187,33.8867 0.40836,24.9904 1.51544,30.4631 9.04688,44.875 5.36311,10.2627 19.72268,24.4418 31.85156,31.5117 15.13799,8.8238 42.61287,21.7261 59.53906,23.2871 3.65847,0.3375 5.60976,0.5065 7.25196,-0.012 1.64219,-0.5182 2.80085,-1.6933 4.84765,-3.832 l 3.88477,-4.0586 6.07812,4.6113 c 9.30891,7.0642 21.61491,9.2118 31.96485,12.0195 l -0.0117,0.031 0.54883,0.1445 c 22.6301,5.9291 43.07529,1.3466 61.16406,-13.707 7.33914,-6.1078 9.34222,-8.445 24.23047,-28.3281 17.61535,-23.5252 24.92155,-47.756 24.98437,-82.7676 l 0.0215,-12.375 10.43164,-14.8711 c 58.30368,-83.1158 92.31725,-165.2206 102.93732,-263.6995 17.41691,-102.4946 38.50396,-152.3945 51.54666,-210.5909 12.0946,-53.9659 -5.0395,-152.0264 18.2941,-196.05216 23.3336,-44.02576 63.394,-62.92206 87.4292,-130.17667 24.0351,-67.25461 88.0448,-154.86752 111.277,-280.32649 0.6898,-5.25163 1.153,-11.22697 1.4013,-17.47053 0.2483,-6.24357 0.2816,-12.75537 0.1114,-19.07994 -0.1701,-6.32457 -0.5437,-12.46191 -1.1092,-17.95656 -0.5656,-5.49464 -1.323,-10.3466 -2.2609,-14.10039 -6.8749,-27.51627 -21.7325,-48.91572 -42.1367,-60.58984 l -6.5,-3.72071 7.627,-8.08398 c 9.036,-9.57867 16.909,-24.03308 20.5371,-37.68555 3.0495,-11.47508 2.9776,-38.36356 -0.1035,-52.11328 -4.9795,-22.22086 -12.326,-41.8389 -24.2676,-64.81836 l -8.1348,-15.6543 5.4883,-5.65429 c 8.2935,-8.54765 11.653,-15.74039 11.6348,-25.01367 -0.012,-5.77529 -0.9534,-10.34112 -3.8438,-15.34961 -2.8903,-5.00849 -7.6993,-10.46169 -15.4473,-18.17774 -10.5581,-10.51471 -15.4049,-14.32326 -23.6601,-18.587889 -56.5574,-29.217309 -171.07674,-35.848685 -356.78711,-20.876953 -5.99856,0.483601 -11.51178,0.864505 -15.55664,1.08789 -2.02243,0.111693 -3.67867,0.182634 -4.83984,0.208984 -0.58059,0.01318 -1.03869,0.01587 -1.34766,0.0059 -0.0411,-0.0013 -0.0542,-0.0041 -0.0898,-0.0059 0.009,-0.07092 0.009,-0.115234 0.0273,-0.210937 0.071,-0.375614 0.21342,-0.918497 0.41211,-1.570313 0.39738,-1.30363 1.02324,-3.049164 1.77539,-4.902343 3.76402,-9.273938 6.1991,-19.09307 7.13672,-27.845703 0.93762,-8.752634 0.39631,-16.432297 -1.90234,-21.492188 C 784.09362,17.248912 777.26724,11.046514 770.6543,8.7089844 769.64607,8.3525979 767.90894,8.0913459 765.49609,7.8632812 763.08325,7.6352166 760.0187,7.455585 756.47266,7.3183594 749.38057,7.0439082 740.36366,6.9463299 730.83203,7.015625 Z m 0.008,1 c 9.52025,-0.069212 18.5253,0.027244 25.59375,0.3007812 3.53423,0.1367685 6.58353,0.3176996 8.9668,0.5429688 2.38327,0.2252692 4.12374,0.5095846 4.91992,0.7910156 6.28682,2.2222504 13.01207,8.3403964 15.71094,14.2812504 2.16369,4.762809 2.74485,12.323865 1.81836,20.972656 -0.92649,8.648791 -3.34229,18.390909 -7.07031,27.576172 -0.76174,1.8768 -1.39466,3.641184 -1.80469,4.986328 -0.20502,0.672572 -0.35453,1.237067 -0.4375,1.675781 -0.0415,0.219357 -0.0666,0.405952 -0.0703,0.578125 -0.004,0.172174 -0.0596,0.35251 0.19531,0.607422 0.14435,0.144347 0.21797,0.137516 0.28125,0.154297 0.0633,0.01678 0.1179,0.02572 0.17773,0.0332 0.11968,0.01497 0.25806,0.02374 0.42969,0.0293 0.34326,0.01112 0.81182,0.0075 1.40234,-0.0059 1.18105,-0.0268 2.84438,-0.0989 4.87305,-0.210937 4.05734,-0.224075 9.5745,-0.605676 15.58008,-1.089844 185.65377,-14.967168 300.12605,-8.22288 356.24805,20.769529 8.1822,4.22687 12.8784,7.91592 23.4141,18.40821 7.7273,7.69555 12.4781,13.10464 15.2851,17.96875 2.807,4.86411 3.6995,9.18208 3.711,14.85156 0.018,9.03425 -3.1596,15.86942 -11.3536,24.31445 l -5.9902,6.17383 8.4668,16.29297 c 11.9116,22.92176 19.2187,42.43745 24.1797,64.57617 3.0201,13.47722 3.0604,40.5471 0.1133,51.63672 -3.5807,13.47405 -11.4071,27.83221 -20.2969,37.25586 l -8.5,9.00976 7.6035,4.35157 c 20.1286,11.51646 34.8418,32.65695 41.6641,59.96289 0.9193,3.67935 1.6648,8.48079 2.2232,13.93903 0.5583,5.45825 0.9296,11.5733 1.1004,17.87988 0.1708,6.30657 0.1411,12.80467 -0.1024,19.02901 -0.2435,6.22434 -0.7008,12.17491 -1.3853,17.38645 -15.0226,90.69874 -77.4322,172.86678 -102.9337,248.52326 -25.5015,75.65648 -61.0622,118.60799 -88.4529,183.26052 -27.3907,64.65252 -6.6114,151.00604 -27.3016,208.69294 -20.69013,57.6869 -41.88258,112.9005 -47.28246,167.66 -10.6023,98.3143 -43.12868,189.279 -101.3418,272.2657 l -8.61133,15.1289 -0.0234,12.6914 c -0.0626,34.8738 -11.28734,64.7997 -28.78515,88.1679 -14.88515,19.8791 -16.75819,22.073 -24.07031,28.1583 -17.88165,14.8812 -39.90523,19.3697 -62.27149,13.5097 -10.28182,-2.6939 -22.80283,-4.932 -32.15039,-12.0254 l -6.78711,-5.1504 -4.50195,-1.2968 c -2.04104,2.1326 -3.07122,3.1428 -4.42578,3.5703 -1.35457,0.4274 -3.20631,0.3057 -6.85938,-0.031 -16.67657,-1.538 -44.19252,-4.4511 -59.12695,-13.1562 -11.9205,-6.9485 -26.27218,-25.1653 -31.46875,-35.1094 -7.50279,-14.3571 -14.52567,-25.4634 -14.9336,-50.4277 -0.2789,-17.0688 -0.9919,-25.3391 -2.94531,-34.0879 -6.09017,-27.2762 -15.02001,-45.6374 -36.24023,-65.6035 -8.20464,-7.7197 -15.56624,-16.2686 -25.9336,-33.6817 -56.56666,-95.0103 -82.14943,-183.296 -79.40234,-260.3515 0.70914,-19.8915 2.91824,-36.2434 6.64062,-49.2442 1.03187,-3.6038 1.66118,-10.4297 1.85743,-17.4609 0.19625,-7.0312 3.9515,-14.2179 3.15039,-18.4883 -0.34052,-1.8151 -2.85018,-3.1393 -3.97656,-4.3047 -1.12639,-1.1654 -0.8102,-2.1623 -3.51368,-3.5234 -3.50448,-1.7643 -9.03543,-5.0139 -12.22461,-7.1817 -3.23024,-2.1958 -10.25973,-6.7819 -15.63867,-10.205 -2.67746,-1.7039 -5.29595,-3.5028 -7.35156,-5.0235 -1.02781,-0.7603 -1.91613,-1.4524 -2.5957,-2.0234 -0.67957,-0.571 -1.161,-1.0439 -1.32422,-1.2657 -0.47357,-0.6432 -1.01895,-1.2213 -1.53906,-1.6542 -0.52012,-0.433 -0.95234,-0.7676 -1.5293,-0.7676 0.0839,0 0.0119,0 -0.0899,-0.047 -0.10178,-0.048 -0.24853,-0.1306 -0.42187,-0.2422 -0.34669,-0.2231 -0.80512,-0.5604 -1.33008,-0.9785 -1.04991,-0.8362 -2.37094,-2.0003 -3.69531,-3.2793 -2.67753,-2.5858 -6.25281,-5.8683 -7.98438,-7.3281 -1.65823,-1.3982 -3.90625,-3.8729 -4.88671,-5.3653 -1.04703,-1.5938 -2.86498,-4.0679 -4.07813,-5.5488 -13.64726,-16.659 -14.98659,-20.2928 -15.12891,-41.0898 -0.0639,-9.3598 0.48568,-13.8383 2.1875,-18.1211 l 2.41016,-6.0645 -12.73633,-17.74611 c -22.8324,-31.81323 -39.1807,-58.89663 -53.88476,-89.26563 -5.34113,-11.03132 -10.01899,-21.94611 -13.35938,-30.92382 -3.34039,-8.97772 -5.32812,-16.09055 -5.32812,-19.2168 0,-2.79478 -1.25445,-7.42358 -3.24024,-12.76367 -1.98578,-5.34009 -4.71282,-11.35108 -7.69922,-16.73047 -15.1879,-27.35808 -35.59773,-50.07249 -55.36523,-61.53711 l -7.30078,-4.23242 -9.98242,-20.48829 c -18.76415,-38.51142 -27.00341,-69.10512 -29.57618,-109.8125 -2.08895,-33.05219 6.13959,-78.89095 20.82227,-115.88476 l 3.71094,-9.35352 -2.18946,-13.41015 c -2.91803,-17.86931 -2.87877,-58.93848 0.0801,-78.11914 11.90005,-77.14248 47.48755,-130.24867 109.41992,-163.33985 4.85498,-2.59406 7.555,-4.13254 10.52149,-7.02539 2.96648,-2.89284 6.17891,-7.1031 12.17773,-15.09179 C 376.06493,164.19043 434.25308,110.54923 496.57422,73.21875 554.00188,38.819472 614.82489,17.842153 678.875,10.341797 690.68243,8.9591334 711.79936,8.1540497 730.83984,8.015625 Z m 79.97628,960.843755 0,21.75 c 0,6.67247 0.11652,11.99062 0.33203,15.65432 0.10775,1.8318 0.23924,3.2475 0.39844,4.2304 0.0796,0.4915 0.16371,0.8723 0.27148,1.17 0.0539,0.1488 0.10981,0.2782 0.20703,0.4062 0.0972,0.1281 0.28171,0.2891 0.54102,0.2891 -0.0306,0 -8.2e-4,-0.016 0.0937,0.1035 0.0946,0.1193 0.21533,0.3463 0.3164,0.6465 0.20216,0.6003 0.33985,1.488 0.33985,2.4629 0,2.2252 1.1419,5.8754 2.56445,8.4082 0.67724,1.2057 1.29612,2.4832 1.74023,3.5586 0.44411,1.0753 0.69532,2.0221 0.69532,2.25 0,0.7702 0.31393,1.7901 0.78906,3.0293 0.47513,1.2392 1.12588,2.6628 1.8457,4.0664 0.71983,1.4035 1.50699,2.7856 2.25977,3.9414 0.75277,1.1557 1.45042,2.0764 2.08789,2.6054 0.49202,0.4084 0.95295,0.9377 1.27734,1.4375 0.32439,0.4998 0.49024,0.9943 0.49024,1.1836 0,0.3734 0.14966,0.548 0.33203,0.8399 0.18237,0.2919 0.434,0.6389 0.75195,1.0449 0.63589,0.812 1.53451,1.8541 2.61523,3.0527 2.16145,2.3974 5.0539,5.4143 8.00391,8.375 2.95001,2.9608 5.95508,5.8639 8.34375,8.0332 1.19433,1.0847 2.23385,1.9848 3.04297,2.6231 0.40456,0.3191 0.75003,0.5727 1.04102,0.7558 0.29099,0.1832 0.46498,0.3321 0.83984,0.3321 0.13855,0 0.73967,0.2206 1.36523,0.6484 0.62557,0.4278 1.32578,1.031 1.91993,1.6875 0.64326,0.7108 1.34392,1.3538 1.97461,1.8301 0.31534,0.2382 0.61203,0.4348 0.88671,0.5801 0.27469,0.1452 0.51161,0.2539 0.81836,0.2539 0.31562,0 1.28321,0.2473 2.39453,0.6621 1.11132,0.4148 2.42081,0.9833 3.66797,1.5801 1.24717,0.5968 2.43498,1.2236 3.29297,1.75 0.429,0.2632 0.77643,0.5026 0.9961,0.6855 0.10983,0.091 0.18769,0.1714 0.2207,0.2129 0.033,0.042 -0.008,0.043 -0.008,-0.096 0,0.3491 0.22062,0.6079 0.44531,0.7734 0.22469,0.1656 0.49181,0.2816 0.80273,0.3789 0.62184,0.1947 1.42293,0.3028 2.30469,0.3028 0.78323,0 1.59015,0.1357 2.22656,0.3437 0.63642,0.2081 1.08606,0.5311 1.17188,0.6699 0.19548,0.3163 0.49202,0.5009 0.84765,0.6719 0.35564,0.171 0.7836,0.3144 1.26758,0.4336 0.96797,0.2385 2.16035,0.3809 3.38281,0.3809 1.14321,0 2.18392,0.14 2.89844,0.3476 0.35726,0.1039 0.6326,0.2284 0.78125,0.3301 0.14865,0.1017 0.1211,0.135 0.1211,0.072 0,0.2645 0.16897,0.4487 0.29882,0.5449 0.12986,0.096 0.26045,0.1535 0.41211,0.207 0.30334,0.1071 0.69315,0.1901 1.19727,0.2696 1.00823,0.159 2.46201,0.2908 4.3457,0.3984 3.76738,0.2153 9.24047,0.3301 16.1211,0.3301 6.88062,0 12.35567,-0.1148 16.12304,-0.3301 1.88369,-0.1076 3.33748,-0.2394 4.34571,-0.3984 0.50411,-0.08 0.89393,-0.1625 1.19726,-0.2696 0.15167,-0.053 0.28226,-0.1108 0.41211,-0.207 0.12985,-0.096 0.29688,-0.2804 0.29688,-0.5449 0,0.026 -0.0139,0 0.10156,-0.096 0.11549,-0.094 0.33656,-0.2139 0.62891,-0.3145 0.58469,-0.2012 1.45051,-0.3398 2.40234,-0.3398 2.17648,0 5.94358,-1.0885 8.66016,-2.4356 3.68015,-1.8248 7.12488,-3.412 9.80468,-4.541 1.3399,-0.5645 2.48802,-1.0149 3.37305,-1.3203 0.88503,-0.3054 1.55937,-0.4531 1.71289,-0.4531 0.6134,0 1.13375,-0.3528 1.79102,-0.8301 0.65726,-0.4773 1.37556,-1.1203 2.02148,-1.834 0.59511,-0.6576 1.29058,-1.2615 1.9082,-1.6894 0.61762,-0.428 1.21354,-0.6465 1.33008,-0.6465 0.37405,0 0.54835,-0.1493 0.83984,-0.3321 0.2915,-0.1827 0.63762,-0.4354 1.04297,-0.7539 0.8107,-0.6369 1.85215,-1.5346 3.04883,-2.6172 2.39337,-2.165 5.40356,-5.0626 8.35938,-8.0175 2.95582,-2.9549 5.85383,-5.9668 8.01953,-8.3594 1.08285,-1.1963 1.98198,-2.2364 2.61914,-3.0469 0.31858,-0.4052 0.57309,-0.7515 0.75586,-1.0429 0.18277,-0.2915 0.33008,-0.4657 0.33008,-0.8399 0,-0.209 0.16976,-0.7109 0.49414,-1.2187 0.32437,-0.5078 0.78491,-1.0422 1.27539,-1.4493 0.63747,-0.529 1.33511,-1.4497 2.08789,-2.6054 0.75277,-1.1558 1.53994,-2.5379 2.25976,-3.9414 0.71983,-1.4036 1.37058,-2.8272 1.84571,-4.0664 0.47513,-1.2392 0.78711,-2.2591 0.78711,-3.0293 0,-0.2279 0.25315,-1.1747 0.69726,-2.25 0.44412,-1.0754 1.06298,-2.3529 1.74027,-3.5586 1.4226,-2.5328 2.5645,-6.183 2.5645,-8.4082 0,-0.9749 0.1376,-1.8626 0.3398,-2.4629 0.1011,-0.3002 0.2218,-0.5272 0.3164,-0.6465 0.095,-0.1193 0.1244,-0.1035 0.094,-0.1035 0.2593,0 0.4438,-0.161 0.541,-0.2891 0.097,-0.128 0.1531,-0.2574 0.207,-0.4062 0.1078,-0.2977 0.1919,-0.6785 0.2715,-1.17 0.1592,-0.9829 0.2907,-2.3986 0.3984,-4.2304 0.2155,-3.6637 0.3321,-8.98185 0.3321,-15.65432 l 0,-21.75 -97.37703,0 -97.375,0 z m 1,1 96.375,0 96.37699,0 0,20.75 c 0,6.66082 -0.1167,11.96772 -0.3301,15.59572 -0.1067,1.814 -0.24,3.2108 -0.3887,4.1289 -0.074,0.4591 -0.1548,0.8029 -0.2226,0.9902 -0.034,0.094 -0.069,0.1462 -0.064,0.1406 0,-0.01 0.095,-0.1054 0.2559,-0.1054 -0.3744,0 -0.6747,0.2247 -0.8789,0.4824 -0.2043,0.2577 -0.3531,0.5766 -0.4786,0.9492 -0.2509,0.7453 -0.3925,1.7145 -0.3925,2.7813 0,1.8579 -1.1101,5.5545 -2.43754,7.9179 -0.69778,1.2424 -1.32887,2.549 -1.79102,3.668 -0.46214,1.119 -0.77343,1.9775 -0.77343,2.6309 0,0.4574 -0.26334,1.479 -0.72071,2.6718 -0.45736,1.1929 -1.09459,2.5898 -1.80078,3.9668 -0.70619,1.377 -1.48118,2.7362 -2.20898,3.8535 -0.72781,1.1174 -1.42997,2.0002 -1.88867,2.3809 -0.58188,0.4829 -1.09611,1.081 -1.47852,1.6797 -0.38241,0.5986 -0.65234,1.178 -0.65234,1.7578 0,-0.1475 -0.0271,0.068 -0.17774,0.3086 -0.15068,0.2403 -0.3876,0.5681 -0.69336,0.957 -0.61151,0.7779 -1.50028,1.8077 -2.57422,2.9942 -2.14787,2.3729 -5.03956,5.3764 -7.98632,8.3222 -2.94677,2.9459 -5.95056,5.8352 -8.32422,7.9825 -1.18684,1.0736 -2.21607,1.9628 -2.99414,2.5742 -0.38904,0.3056 -0.71669,0.5427 -0.95703,0.6933 -0.24035,0.1507 -0.45592,0.1778 -0.3086,0.1778 -0.62336,0 -1.2102,0.3459 -1.90039,0.8242 -0.69019,0.4783 -1.42888,1.1224 -2.07812,1.8398 -0.59844,0.6613 -1.27857,1.2684 -1.86915,1.6973 -0.59057,0.4289 -1.1676,0.6387 -1.20312,0.6387 -0.49937,0 -1.12042,0.1908 -2.03906,0.5078 -0.91865,0.317 -2.08233,0.7736 -3.43555,1.3437 -2.70644,1.1402 -6.16559,2.7358 -9.86133,4.5684 -2.5696,1.2742 -6.39627,2.3301 -8.21484,2.3301 -1.0457,0 -1.99666,0.1426 -2.72852,0.3945 -0.36592,0.1259 -0.67827,0.2772 -0.93164,0.4824 -0.25337,0.2053 -0.47265,0.5031 -0.47265,0.8731 0,-0.1663 0.10525,-0.2548 0.10937,-0.2578 0.004,0 -0.053,0.032 -0.15039,0.066 -0.19471,0.069 -0.54708,0.1501 -1.01953,0.2246 -0.9449,0.149 -2.38174,0.282 -4.24805,0.3886 -3.73262,0.2133 -9.19703,0.3282 -16.0664,0.3282 -6.86938,0 -12.33183,-0.1149 -16.06446,-0.3282 -1.86631,-0.1066 -3.30315,-0.2396 -4.24804,-0.3886 -0.47245,-0.074 -0.82482,-0.1559 -1.01953,-0.2246 -0.0974,-0.034 -0.15452,-0.069 -0.1504,-0.066 0.004,0 0.10743,0.091 0.10743,0.2578 0,-0.4065 -0.26845,-0.7013 -0.55664,-0.8985 -0.2882,-0.1971 -0.64408,-0.3421 -1.06641,-0.4648 -0.84467,-0.2455 -1.95527,-0.3867 -3.17774,-0.3867 -1.14321,0 -2.27325,-0.1369 -3.14453,-0.3516 -0.43563,-0.1073 -0.80637,-0.2354 -1.07226,-0.3633 -0.26589,-0.1278 -0.41467,-0.2694 -0.43164,-0.2968 -0.33908,-0.5487 -0.96123,-0.8507 -1.71094,-1.0957 -0.74971,-0.2451 -1.64216,-0.3926 -2.53711,-0.3926 -0.79641,0 -1.52163,-0.1063 -2.00586,-0.2578 -0.24211,-0.076 -0.42261,-0.1658 -0.50781,-0.2286 -0.0852,-0.063 -0.0391,-0.055 -0.0391,0.031 0,-0.2581 -0.11005,-0.4006 -0.21094,-0.5273 -0.10089,-0.1268 -0.21913,-0.2391 -0.36133,-0.3575 -0.28439,-0.2368 -0.66236,-0.4917 -1.11523,-0.7695 -0.90574,-0.5557 -2.11251,-1.1929 -3.38282,-1.8008 -1.2703,-0.6079 -2.6001,-1.186 -3.75,-1.6152 -1.14989,-0.4292 -2.0648,-0.7246 -2.74414,-0.7246 0.0186,0 -0.14599,-0.03 -0.35156,-0.1387 -0.20556,-0.1087 -0.46733,-0.2792 -0.75195,-0.4941 -0.56925,-0.43 -1.23484,-1.039 -1.83594,-1.7032 -0.65022,-0.7184 -1.396,-1.3633 -2.0957,-1.8418 -0.69971,-0.4784 -1.30184,-0.8222 -1.92969,-0.8222 0.14858,0 -0.0668,-0.027 -0.30664,-0.1778 -0.23981,-0.1509 -0.56682,-0.389 -0.95508,-0.6953 -0.77652,-0.6125 -1.80574,-1.5024 -2.99023,-2.5781 -2.369,-2.1514 -5.36762,-5.0464 -8.3086,-7.998 -2.94097,-2.9517 -5.82509,-5.9623 -7.96875,-8.3399 -1.07183,-1.1888 -1.95998,-2.2206 -2.57031,-3 -0.30517,-0.3897 -0.54098,-0.7182 -0.69141,-0.959 -0.15043,-0.2408 -0.17968,-0.4548 -0.17968,-0.3086 0,-0.5729 -0.26995,-1.1374 -0.65235,-1.7265 -0.38239,-0.5892 -0.89622,-1.1824 -1.47656,-1.6641 -0.45871,-0.3807 -1.16087,-1.2635 -1.88867,-2.3809 -0.72781,-1.1173 -1.5028,-2.4765 -2.20899,-3.8535 -0.70619,-1.377 -1.34342,-2.7739 -1.80078,-3.9668 -0.45736,-1.1928 -0.72265,-2.2144 -0.72265,-2.6718 0,-0.6534 -0.30935,-1.5119 -0.77149,-2.6309 -0.46214,-1.119 -1.09325,-2.4256 -1.79101,-3.668 -1.32745,-2.3634 -2.4375,-6.06 -2.4375,-7.9179 0,-1.0668 -0.14161,-2.036 -0.39258,-2.7813 -0.12549,-0.3726 -0.27425,-0.6915 -0.47852,-0.9492 -0.20426,-0.2577 -0.50456,-0.4824 -0.8789,-0.4824 0.16127,0 0.25162,0.1 0.25586,0.1054 0.004,0.01 -0.0305,-0.047 -0.0645,-0.1406 -0.0678,-0.1873 -0.1483,-0.5311 -0.22265,-0.9902 -0.14871,-0.9181 -0.28197,-2.3149 -0.38868,-4.1289 -0.21341,-3.628 -0.33007,-8.9349 -0.33007,-15.59572 l 0,-20.75 z m -301,6.5 0,21.75 c 0,6.67242 0.11652,11.99062 0.33203,15.65432 0.10775,1.8318 0.23924,3.2475 0.39844,4.2304 0.0796,0.4915 0.16371,0.8723 0.27148,1.17 0.0539,0.1488 0.10981,0.2782 0.20703,0.4062 0.0972,0.1281 0.28171,0.2891 0.54102,0.2891 -0.0306,0 -8.2e-4,-0.016 0.0937,0.1035 0.0946,0.1193 0.21533,0.3463 0.3164,0.6465 0.20216,0.6003 0.33985,1.488 0.33985,2.4629 0,2.2252 1.1419,5.8754 2.56445,8.4082 0.67724,1.2057 1.29612,2.4832 1.74023,3.5586 0.44411,1.0753 0.69532,2.0221 0.69532,2.25 0,0.7702 0.31393,1.7901 0.78906,3.0293 0.47513,1.2392 1.12588,2.6628 1.8457,4.0664 0.71983,1.4035 1.50699,2.7856 2.25977,3.9414 0.75277,1.1557 1.45042,2.0764 2.08789,2.6054 0.49202,0.4084 0.95295,0.9377 1.27734,1.4375 0.32439,0.4998 0.49024,0.9943 0.49024,1.1836 0,0.3734 0.14966,0.548 0.33203,0.8399 0.18237,0.2919 0.434,0.6389 0.75195,1.0449 0.63589,0.812 1.53451,1.8541 2.61523,3.0527 2.16145,2.3974 5.0539,5.4143 8.00391,8.375 2.95002,2.9608 5.95508,5.8639 8.34375,8.0332 1.19434,1.0847 2.23384,1.9848 3.04297,2.6231 0.40456,0.3191 0.75003,0.5727 1.04102,0.7558 0.29099,0.1832 0.46498,0.3321 0.83984,0.3321 0.13854,0 0.73967,0.2206 1.36523,0.6484 0.62557,0.4278 1.32578,1.031 1.91993,1.6875 0.64592,0.7137 1.36422,1.3567 2.02148,1.834 0.65726,0.4773 1.17761,0.8301 1.79102,0.8301 0.15351,0 0.82785,0.1477 1.71289,0.4531 0.88503,0.3054 2.03314,0.7558 3.37304,1.3203 2.6798,1.129 6.12454,2.7162 9.80469,4.541 2.71659,1.3471 6.48368,2.4356 8.66016,2.4356 0.95183,0 1.81764,0.1386 2.40234,0.3398 0.29235,0.1006 0.51342,0.2209 0.62891,0.3145 0.11549,0.093 0.0996,0.1219 0.0996,0.096 0,0.2645 0.16897,0.4487 0.29882,0.5449 0.12986,0.096 0.26045,0.1535 0.41211,0.207 0.30334,0.1071 0.69315,0.1901 1.19727,0.2696 1.00823,0.159 2.46201,0.2908 4.3457,0.3984 3.76738,0.2153 9.24047,0.3301 16.1211,0.3301 6.88062,0 12.35567,-0.1148 16.12304,-0.3301 1.88369,-0.1076 3.33748,-0.2394 4.34571,-0.3984 0.50411,-0.08 0.89393,-0.1625 1.19726,-0.2696 0.15167,-0.053 0.28226,-0.1108 0.41211,-0.207 0.12985,-0.096 0.29688,-0.2804 0.29688,-0.5449 0,0.063 -0.0256,0.029 0.12304,-0.072 0.14866,-0.1017 0.42399,-0.2262 0.78125,-0.3301 0.71453,-0.2076 1.75523,-0.3476 2.89844,-0.3476 1.22246,0 2.41485,-0.1424 3.38281,-0.3809 0.48399,-0.1192 0.91194,-0.2626 1.26758,-0.4336 0.35564,-0.171 0.65218,-0.3556 0.84766,-0.6719 0.0858,-0.1388 0.53546,-0.4618 1.17187,-0.6699 0.63642,-0.208 1.44334,-0.3437 2.22656,-0.3437 0.88178,0 1.68286,-0.1081 2.30469,-0.3028 0.31092,-0.097 0.57805,-0.2133 0.80274,-0.3789 0.22468,-0.1655 0.44336,-0.4243 0.44336,-0.7734 0,0.139 -0.0389,0.1372 -0.006,0.096 0.033,-0.042 0.11087,-0.1214 0.2207,-0.2129 0.21966,-0.1829 0.5671,-0.4223 0.99609,-0.6855 0.858,-0.5264 2.04581,-1.1532 3.29297,-1.75 1.24717,-0.5968 2.55665,-1.1653 3.66797,-1.5801 1.11132,-0.4148 2.07891,-0.6621 2.39453,-0.6621 0.30676,0 0.54368,-0.1087 0.81836,-0.2539 0.27468,-0.1453 0.57138,-0.3419 0.88672,-0.5801 0.63068,-0.4763 1.33135,-1.1193 1.97461,-1.8301 0.59511,-0.6576 1.29058,-1.2615 1.9082,-1.6894 0.61762,-0.428 1.21354,-0.6465 1.33008,-0.6465 0.37405,0 0.54835,-0.1493 0.83984,-0.3321 0.2915,-0.1827 0.63762,-0.4354 1.04297,-0.7539 0.8107,-0.6369 1.85215,-1.5346 3.04883,-2.6172 2.39337,-2.165 5.40356,-5.0626 8.35938,-8.0175 2.95582,-2.9549 5.85383,-5.9668 8.01953,-8.3594 1.08285,-1.1963 1.98198,-2.2364 2.61914,-3.0469 0.31858,-0.4052 0.57309,-0.7515 0.75586,-1.0429 0.18277,-0.2915 0.33008,-0.4657 0.33008,-0.8399 0,-0.209 0.16976,-0.7109 0.49414,-1.2187 0.32437,-0.5078 0.78491,-1.0422 1.27539,-1.4493 0.63747,-0.529 1.33511,-1.4497 2.08789,-2.6054 0.75277,-1.1558 1.53994,-2.5379 2.25976,-3.9414 0.71983,-1.4036 1.37058,-2.8272 1.84571,-4.0664 0.47513,-1.2392 0.78711,-2.2591 0.78711,-3.0293 0,-0.2279 0.25315,-1.1747 0.69726,-2.25 0.44411,-1.0754 1.063,-2.3529 1.74024,-3.5586 1.42255,-2.5328 2.5625,-6.183 2.5625,-8.4082 0,-0.9749 0.13964,-1.8626 0.34179,-2.4629 0.10108,-0.3002 0.22185,-0.5272 0.31641,-0.6465 0.0946,-0.1193 0.12239,-0.1035 0.0918,-0.1035 0.2593,0 0.44574,-0.161 0.54297,-0.2891 0.0972,-0.128 0.15314,-0.2574 0.20703,-0.4062 0.10776,-0.2977 0.19188,-0.6785 0.27148,-1.17 0.1592,-0.9829 0.29068,-2.3986 0.39844,-4.2304 0.21551,-3.6637 0.33008,-8.9819 0.33008,-15.65432 l 0,-21.75 -97.375,0 -97.375,0 z m 1,1 96.375,0 96.375,0 0,20.75 c 0,6.66082 -0.11472,11.96772 -0.32813,15.59572 -0.1067,1.814 -0.23996,3.2108 -0.38867,4.1289 -0.0743,0.4591 -0.15483,0.8029 -0.22266,0.9902 -0.0339,0.094 -0.0687,0.1462 -0.0644,0.1406 0.004,-0.01 0.0926,-0.1054 0.25391,-0.1054 -0.37435,0 -0.67269,0.2247 -0.87696,0.4824 -0.20426,0.2577 -0.35303,0.5766 -0.47851,0.9492 -0.25097,0.7453 -0.39453,1.7145 -0.39453,2.7813 0,1.8579 -1.1081,5.5545 -2.43555,7.9179 -0.69776,1.2424 -1.32888,2.549 -1.79102,3.668 -0.46214,1.119 -0.77343,1.9775 -0.77343,2.6309 0,0.4574 -0.26334,1.479 -0.72071,2.6718 -0.45736,1.1929 -1.09459,2.5898 -1.80078,3.9668 -0.70619,1.377 -1.48118,2.7362 -2.20898,3.8535 -0.72781,1.1174 -1.42997,2.0002 -1.88867,2.3809 -0.58188,0.4829 -1.09611,1.081 -1.47852,1.6797 -0.38241,0.5986 -0.65234,1.178 -0.65234,1.7578 0,-0.1475 -0.0271,0.068 -0.17774,0.3086 -0.15068,0.2403 -0.3876,0.5681 -0.69336,0.957 -0.61151,0.7779 -1.50028,1.8077 -2.57422,2.9942 -2.14787,2.3729 -5.03956,5.3764 -7.98632,8.3222 -2.94677,2.9459 -5.95056,5.8352 -8.32422,7.9825 -1.18684,1.0736 -2.21607,1.9628 -2.99414,2.5742 -0.38904,0.3056 -0.71669,0.5427 -0.95703,0.6933 -0.24035,0.1507 -0.45592,0.1778 -0.3086,0.1778 -0.62336,0 -1.2102,0.3459 -1.90039,0.8242 -0.69019,0.4783 -1.42888,1.1224 -2.07812,1.8398 -0.6011,0.6642 -1.26669,1.2732 -1.83594,1.7032 -0.28463,0.2149 -0.54639,0.3854 -0.75195,0.4941 -0.20557,0.1087 -0.37021,0.1387 -0.35157,0.1387 -0.67934,0 -1.59425,0.2954 -2.74414,0.7246 -1.14989,0.4292 -2.4797,1.0073 -3.75,1.6152 -1.2703,0.6079 -2.47707,1.2451 -3.38281,1.8008 -0.45287,0.2778 -0.83084,0.5327 -1.11524,0.7695 -0.14219,0.1184 -0.26043,0.2307 -0.36132,0.3575 -0.10089,0.1267 -0.21289,0.2692 -0.21289,0.5273 0,-0.086 0.0481,-0.094 -0.0371,-0.031 -0.0852,0.063 -0.2657,0.1528 -0.50782,0.2286 -0.48423,0.1515 -1.20945,0.2578 -2.00586,0.2578 -0.89494,0 -1.7874,0.1475 -2.5371,0.3926 -0.74971,0.245 -1.37186,0.547 -1.71094,1.0957 -0.017,0.027 -0.16575,0.169 -0.43164,0.2968 -0.2659,0.1279 -0.63663,0.256 -1.07227,0.3633 -0.87127,0.2147 -2.00132,0.3516 -3.14453,0.3516 -1.22247,0 -2.33306,0.1412 -3.17773,0.3867 -0.42234,0.1227 -0.77822,0.2677 -1.06641,0.4648 -0.28819,0.1972 -0.55859,0.492 -0.55859,0.8985 0,-0.1663 0.10525,-0.2548 0.10937,-0.2578 0.004,0 -0.053,0.032 -0.15039,0.066 -0.19471,0.069 -0.54708,0.1501 -1.01953,0.2246 -0.9449,0.149 -2.38174,0.282 -4.24805,0.3886 -3.73262,0.2133 -9.19703,0.3282 -16.0664,0.3282 -6.86938,0 -12.33183,-0.1149 -16.06446,-0.3282 -1.86631,-0.1066 -3.30315,-0.2396 -4.24804,-0.3886 -0.47245,-0.074 -0.82482,-0.1559 -1.01953,-0.2246 -0.0974,-0.034 -0.15452,-0.069 -0.1504,-0.066 0.004,0 0.10743,0.091 0.10743,0.2578 0,-0.37 -0.21734,-0.6678 -0.47071,-0.8731 -0.25337,-0.2052 -0.56571,-0.3565 -0.93164,-0.4824 -0.73185,-0.2519 -1.68281,-0.3945 -2.72851,-0.3945 -1.81857,0 -5.64523,-1.0559 -8.21485,-2.3301 -3.69573,-1.8326 -7.15488,-3.4282 -9.86132,-4.5684 -1.35323,-0.5701 -2.51691,-1.0267 -3.43555,-1.3437 -0.91865,-0.317 -1.5397,-0.5078 -2.03906,-0.5078 -0.0355,0 -0.61451,-0.2098 -1.20508,-0.6387 -0.59058,-0.4289 -1.26875,-1.036 -1.86719,-1.6973 -0.65022,-0.7184 -1.396,-1.3633 -2.0957,-1.8418 -0.69971,-0.4784 -1.30184,-0.8222 -1.92969,-0.8222 0.14858,0 -0.0668,-0.027 -0.30664,-0.1778 -0.23981,-0.1509 -0.56682,-0.389 -0.95508,-0.6953 -0.77652,-0.6125 -1.80574,-1.5024 -2.99023,-2.5781 -2.369,-2.1514 -5.36762,-5.0464 -8.3086,-7.998 -2.94097,-2.9517 -5.82509,-5.9623 -7.96875,-8.3399 -1.07183,-1.1888 -1.95998,-2.2206 -2.57031,-3 -0.30517,-0.3897 -0.54098,-0.7182 -0.69141,-0.959 -0.15043,-0.2408 -0.17968,-0.4548 -0.17968,-0.3086 0,-0.5729 -0.26995,-1.1374 -0.65235,-1.7265 -0.38239,-0.5892 -0.89622,-1.1824 -1.47656,-1.6641 -0.45871,-0.3807 -1.16087,-1.2635 -1.88867,-2.3809 -0.72781,-1.1173 -1.5028,-2.4765 -2.20899,-3.8535 -0.70619,-1.377 -1.34342,-2.7739 -1.80078,-3.9668 -0.45736,-1.1928 -0.72265,-2.2144 -0.72265,-2.6718 0,-0.6534 -0.30935,-1.5119 -0.77149,-2.6309 -0.46214,-1.119 -1.09325,-2.4256 -1.79101,-3.668 -1.32745,-2.3634 -2.4375,-6.06 -2.4375,-7.9179 0,-1.0668 -0.14161,-2.036 -0.39258,-2.7813 -0.12549,-0.3726 -0.27425,-0.6915 -0.47852,-0.9492 -0.20426,-0.2577 -0.50456,-0.4824 -0.8789,-0.4824 0.16127,0 0.25162,0.1 0.25586,0.1054 0.004,0.01 -0.0305,-0.047 -0.0645,-0.1406 -0.0678,-0.1873 -0.1483,-0.5311 -0.22265,-0.9902 -0.14871,-0.9181 -0.28197,-2.3149 -0.38868,-4.1289 -0.21341,-3.628 -0.33007,-8.9349 -0.33007,-15.59572 l 0,-20.75 z M 384.20698,1035.043 c -0.32861,0.042 -0.63159,0.174 -0.87695,0.3965 -0.49073,0.4449 -0.76697,1.1211 -0.9961,2.0058 -0.45825,1.7695 -0.68587,4.4577 -1.03906,8.0274 -0.72277,7.305 1.47183,18.462 4.79297,24.2187 2.04906,3.5518 8.36318,10.6648 14.56055,16.9922 3.09868,3.1637 6.16018,6.1135 8.6289,8.2812 1.23437,1.0839 2.32012,1.9723 3.19922,2.5997 0.43955,0.3136 0.82532,0.5637 1.16602,0.7421 0.34069,0.1785 0.61967,0.3028 0.95703,0.3028 10e-4,0 0.45941,0.1823 0.90625,0.5996 0.44684,0.4172 0.9415,1.0156 1.34766,1.666 0.46492,0.7445 1.0827,1.4066 1.72656,1.8984 0.64385,0.4919 1.30087,0.836 1.9707,0.836 0.30504,0 0.87988,0.1914 1.45313,0.539 0.57325,0.3477 1.15863,0.8375 1.58789,1.3575 0.54702,0.6626 1.55149,1.4445 2.78906,2.2675 1.23757,0.823 2.69548,1.6634 4.0957,2.3321 2.69768,1.2884 7.76399,4.2941 11.16797,6.6328 1.83956,1.2638 3.27339,2.2234 4.40039,2.9004 1.127,0.6769 1.93099,1.0793 2.61719,1.2051 0.3431,0.063 0.68106,0.053 0.97851,-0.094 0.29746,-0.1472 0.50402,-0.4217 0.6211,-0.7148 0.23415,-0.5863 0.23373,-1.3075 0.19726,-2.2579 -0.0338,-0.8816 -0.37301,-3.0843 -0.89453,-6.0918 -0.52151,-3.0074 -1.22533,-6.7633 -1.98633,-10.5488 l -3.1289,-15.5664 -2.19922,6.4414 c -0.43151,1.2643 -0.9367,2.4151 -1.38867,3.2285 -0.22599,0.4067 -0.44053,0.7305 -0.60742,0.9278 -0.14488,0.1712 -0.20302,0.1639 -0.11719,0.166 -0.0444,-0.025 -0.10089,-0.059 -0.18164,-0.1172 -0.19106,-0.1385 -0.46113,-0.3621 -0.79102,-0.6602 -0.65977,-0.5962 -1.56503,-1.489 -2.67383,-2.6347 -2.21759,-2.2915 -5.25519,-5.5995 -8.85742,-9.6387 -7.20445,-8.0784 -16.67041,-19.0852 -26.40429,-30.7832 -4.5289,-5.4428 -7.89676,-9.5148 -10.4336,-12.3496 -2.53684,-2.8348 -4.18513,-4.443 -5.5625,-4.9707 -0.34434,-0.1319 -0.69678,-0.1789 -1.02539,-0.1367 z m 0.66797,1.0703 c 0.94377,0.3616 2.66115,1.8972 5.17383,4.7051 2.51268,2.8078 5.88031,6.8783 10.41015,12.3222 9.74053,11.706 19.2126,22.7182 26.42774,30.8086 3.60757,4.0452 6.65009,7.3589 8.88476,9.668 1.11734,1.1545 2.03241,2.0579 2.72266,2.6816 0.34513,0.3119 0.63146,0.5534 0.87305,0.7285 0.12079,0.088 0.22927,0.1593 0.33984,0.2168 0.11057,0.058 0.21464,0.1153 0.41211,0.1153 0.45625,0 0.66264,-0.2681 0.89844,-0.5469 0.2358,-0.2788 0.47069,-0.643 0.7168,-1.0859 0.4922,-0.8859 1.01446,-2.0788 1.46289,-3.3926 l 1.00195,-2.9356 2.39844,11.9356 c 0.75928,3.777 1.46087,7.527 1.98046,10.5234 0.5196,2.9964 0.85532,5.2937 0.88086,5.959 0.0351,0.9137 -0.0147,1.5716 -0.125,1.8477 -0.0551,0.138 -0.0929,0.1678 -0.13671,0.1894 -0.0438,0.022 -0.14299,0.046 -0.35352,0.01 -0.42107,-0.077 -1.19312,-0.4253 -2.2832,-1.0801 -1.09008,-0.6547 -2.51534,-1.6069 -4.34961,-2.8671 -3.4553,-2.374 -8.50042,-5.3726 -11.30274,-6.711 -1.34977,-0.6446 -2.77779,-1.4658 -3.97461,-2.2617 -1.19681,-0.7959 -2.17378,-1.5919 -2.57031,-2.0723 -0.5143,-0.623 -1.17279,-1.1704 -1.8418,-1.5761 -0.669,-0.4057 -1.3345,-0.6836 -1.9707,-0.6836 -0.27142,0 -0.82276,-0.2165 -1.36523,-0.6309 -0.54247,-0.4144 -1.0906,-1.0023 -1.48438,-1.6328 -0.45255,-0.7246 -0.98997,-1.3782 -1.51367,-1.8672 -0.5237,-0.489 -0.97552,-0.8691 -1.58789,-0.8691 -0.006,0 -0.21574,-0.045 -0.49219,-0.1895 -0.27645,-0.1448 -0.6347,-0.373 -1.05078,-0.6699 -0.83217,-0.5939 -1.89983,-1.4645 -3.11914,-2.5352 -2.43861,-2.1413 -5.48848,-5.0799 -8.57422,-8.2304 -6.17147,-6.301 -12.52213,-13.5203 -14.41016,-16.793 -3.1317,-5.4283 -5.35476,-16.6204 -4.6621,-23.6211 0.35375,-3.5754 0.59635,-6.2692 1.01171,-7.873 0.20769,-0.8019 0.47131,-1.3109 0.69922,-1.5176 0.22791,-0.2067 0.40116,-0.2472 0.87305,-0.066 z"
     id="path4158"
     inkscape:connector-curvature="0"
     sodipodi:nodetypes="ssssssscccscccsssssccccscccccccscsccccccsssssssssccccccccssccscssscsssscccsssccccssssscccssscsssscssssssscccccssssssscscssscccsssscsssccccssssccccsssssssssssccscscccccssccscccssssssccsscccsssssscccssccccccsccsscccsssscccccsscccsssscccccsccscscscccscsccccccsscssssccscccssccsccccssccscccccccscccccccssccccccscsscsccccccccccccscsssssscccccscscccccccsccccsccccccssccccccccscsssccccscsscsccccccsscccssccccccsccsscccsssscccccssssssscssccccscscccccccscsccscccccssssccscscccssccsccccssccsccccccsscccccccssccccccscsscsccccccccccccsscccssccccscsccccscccccscscccccccsssssscccccscsssccccscsscsccccccsscccccssscccscscsccscccccccscccscccscssscccccssccccssccccscccccccscsssssscccscscscc"
     inkscape:export-xdpi="90"
     inkscape:export-ydpi="90" />
  <path
     style="fill:#000000"
     d="M 732.28711 6.0644531 C 692.20241 6.0644531 682.51381 6.7716135 653.53711 11.814453 C 533.53631 32.698273 419.66135 107.69758 331.87695 223.66406 L 316.66211 243.76367 L 305.20117 249.81641 C 242.47927 282.93449 204.5874 342.9285 195.9668 422.76562 C 194.1064 439.99553 195.13858 482.00755 197.73828 494.81445 L 199.51562 503.56445 L 194.79297 515.43945 C 182.35947 546.70505 176.14116 576.56403 175.13086 609.86133 C 173.71246 656.60493 182.19972 694.22625 204.16602 738.56445 L 214.69336 759.81445 L 222.46094 764.18945 C 231.68524 769.38475 248.63937 785.02194 258.60547 797.52734 C 273.69337 816.45954 287.00087 842.44277 287.95117 854.82617 C 289.14127 870.33387 311.60493 919.08934 334.17383 955.14844 C 340.31273 964.95674 351.63905 981.80759 359.34375 992.5957 L 373.35156 1012.2109 L 371.39648 1016.6367 C 369.26558 1021.4574 367.08021 1034.9311 367.94141 1037.9395 C 368.23671 1038.9708 368.98045 1044.3531 369.59375 1049.9004 C 370.60395 1059.0368 371.22574 1060.6899 376.20312 1067.4512 C 379.22512 1071.5563 382.41341 1075.7346 383.28711 1076.7383 C 384.16091 1077.742 386.13929 1080.3354 387.68359 1082.5 C 389.22799 1084.6645 393.42617 1088.7561 397.01367 1091.5918 C 400.60127 1094.4277 403.53711 1097.3095 403.53711 1097.998 C 403.53711 1098.6865 404.94341 1099.786 406.66211 1100.4395 C 408.38091 1101.093 409.78711 1102.103 409.78711 1102.6836 C 409.78711 1103.2643 414.62416 1106.794 420.53516 1110.5273 C 426.44626 1114.2605 433.89936 1119.1261 437.09766 1121.3418 C 440.29596 1123.5576 444.88091 1126.2953 447.28711 1127.4238 C 449.69341 1128.5523 453.15557 1130.5356 454.98047 1131.832 C 456.80537 1133.1284 458.90333 1134.1895 459.64453 1134.1895 C 460.38563 1134.1895 464.66921 1136.4395 469.16211 1139.1895 C 473.65511 1141.9395 477.91812 1144.1895 478.63672 1144.1895 C 479.35542 1144.1895 482.86163 1145.5406 486.42773 1147.1914 C 501.51423 1154.1757 507.41575 1156.6707 510.68945 1157.4531 C 512.59895 1157.9096 514.78708 1158.7716 515.55078 1159.3691 C 516.31448 1159.9665 521.65828 1161.8911 527.42578 1163.6445 C 533.19328 1165.398 540.60644 1167.6632 543.89844 1168.6777 C 547.19044 1169.692 554.50294 1171.0905 560.14844 1171.7871 C 565.79394 1172.4838 572.66211 1173.676 575.41211 1174.4355 C 578.16211 1175.1949 587.44341 1176.2024 596.03711 1176.6758 C 632.06451 1178.6604 647.56246 1177.296 657.47266 1171.2656 C 675.79916 1160.1138 688.96831 1151.257 694.16211 1146.5918 C 696.22461 1144.739 701.84961 1139.683 706.66211 1135.3555 C 711.47461 1131.028 716.39651 1126.6204 717.59961 1125.5605 C 718.80271 1124.5007 719.78711 1122.9154 719.78711 1122.0371 C 719.78711 1121.1586 720.22883 1120.4395 720.76953 1120.4395 C 721.76533 1120.4395 727.6564 1112.9661 736.5332 1100.4395 C 739.2128 1096.6583 743.7412 1089.0645 746.5957 1083.5645 C 749.4503 1078.0645 752.4034 1072.4395 753.1582 1071.0645 C 753.9129 1069.6895 756.07044 1064.3458 757.95312 1059.1895 C 759.83583 1054.0333 762.20114 1047.9173 763.21094 1045.5996 C 764.22084 1043.282 765.78806 1037.3758 766.69336 1032.4746 C 767.59856 1027.5735 769.227 1019.1542 770.3125 1013.7656 C 771.398 1008.377 772.28711 1003.7922 772.28711 1003.5762 C 772.28711 1002.8695 780.10541 1000.4395 782.37891 1000.4395 C 784.43461 1000.4395 784.54863 1001.7985 783.92773 1018.877 C 783.55913 1029.0176 783.86276 1043.6032 784.60156 1051.2891 C 792.72494 1120.4923 801.56991 1126.6575 785.85547 1051.2891 C 784.69597 1039.2015 784.96626 1002.2616 786.22266 1001.1309 C 786.46446 1000.9133 788.49021 1001.0132 790.72461 1001.3535 C 794.25121 1001.8906 794.78711 1002.4594 794.78711 1005.6641 C 794.78711 1007.6944 795.9363 1016.7724 797.3418 1025.8359 C 801.7374 1054.1827 812.66188 1083.5376 825.70898 1102.0645 C 842.91618 1126.4988 862.45877 1144.0215 888.41797 1158.291 C 897.76487 1163.429 906.88705 1167.9755 908.68945 1168.3945 C 910.49185 1168.8135 918.92935 1168.6063 927.43945 1167.9336 C 951.99915 1165.9925 988.48897 1155.1761 1018.25 1141.0156 C 1030.4452 1135.2131 1055.0366 1120.3235 1064.7871 1112.8379 C 1066.5058 1111.5184 1070.8805 1108.4667 1074.5098 1106.0566 C 1078.1391 1103.6464 1083.4829 1099.5131 1086.3848 1096.873 C 1089.2868 1094.2328 1092.6292 1091.5524 1093.8105 1090.916 C 1094.9918 1090.2797 1104.8051 1081.6157 1115.6191 1071.6621 C 1136.2484 1052.6741 1153.0716 1033.0116 1159.3516 1020.5508 C 1161.2883 1016.708 1164.7487 1010.752 1167.041 1007.3145 L 1171.209 1001.0645 L 1170.7891 984.18945 C 1170.3815 967.80675 1170.2389 967.03919 1165.8809 957.87109 C 1162.2174 950.16419 1159.7115 946.94599 1152.252 940.37109 C 1147.2247 935.94009 1140.8164 929.97624 1138.0117 927.11914 C 1132.5492 921.55444 1128.6911 919.3541 1119.7871 916.7207 C 1116.6934 915.8057 1106.8496 912.56177 1097.9121 909.51367 C 1082.0772 904.11327 1050.1086 895.50494 1045.7246 895.46094 C 1044.5214 895.44884 1043.5371 895.14995 1043.5371 894.79688 C 1043.5371 894.44367 1075.2831 857.39878 1087.541 839.01758 C 1166.8086 720.14718 1195.6184 646.34535 1222.127 565.24805 C 1249.5972 481.20905 1248.4944 419.15515 1218.8633 381.43945 C 1213.16 374.17992 1201.7628 364.63703 1194.2148 360.80273 C 1192.1235 359.74033 1190.2042 358.68769 1189.9492 358.46289 C 1189.6942 358.23799 1192.9587 354.23059 1197.2031 349.55859 C 1206.4502 339.37979 1215.2866 322.42535 1217.918 309.81445 C 1220.3076 298.36065 1220.2713 276.38157 1217.8398 262.48047 C 1214.7408 244.76412 1206.5517 221.82389 1195.4668 199.8125 L 1185.2773 179.58008 L 1190.8535 173.44727 C 1199.016 164.46923 1202.7026 155.71488 1202.0371 146.89062 C 1201.7435 142.99829 1200.4482 137.61301 1199.1562 134.92188 C 1196.5703 129.53343 1182.3492 113.66703 1173.5371 106.33789 C 1157.9049 93.336355 1128.8228 83.062843 1089.7871 76.751953 C 1059.4177 71.842173 1036.7213 70.281357 985.1543 69.560547 C 932.1306 68.819387 895.93761 69.960294 836.66211 74.240234 C 818.09961 75.580514 797.72958 77.041611 791.39648 77.488281 L 779.88281 78.300781 L 784.11133 66.472656 C 794.61393 37.087616 792.42673 18.270714 777.49023 9.4902344 L 771.66211 6.0644531 L 732.28711 6.0644531 z M 490.43164 577.93945 C 491.23424 577.93945 487.34459 588.29031 485.46289 591.16211 C 483.85049 593.62291 484.67046 594.92994 497.60938 610.55664 C 514.02247 630.37924 554.74141 671.4749 569.78711 683.40039 C 593.05161 701.84029 616.88034 716.41022 636.30664 724.07422 C 656.33364 731.97512 724.89371 747.50638 761.03711 752.33008 C 781.68601 755.08578 823.35511 756.09026 842.28711 754.28906 C 904.49721 748.37046 951.5702 726.54275 980.6543 690.12695 C 984.3853 685.45545 988.3769 681.68945 989.5957 681.68945 C 993.51953 681.68945 1004.1141 687.76083 1010.8359 693.86133 L 1017.3945 699.81445 L 1020.4824 716.06445 C 1022.1808 725.00195 1024.7331 741.03325 1026.1523 751.68945 C 1027.5715 762.34575 1029.3005 773.59565 1029.9961 776.68945 C 1031.5873 783.76555 1032.8632 862.61955 1031.6699 880.12695 L 1030.7793 893.18359 L 1025.5957 892.41992 C 1008.6763 889.92722 989.4687 889.01821 939.6543 888.34961 C 885.9669 887.62901 883.298 887.70323 867.7793 890.36523 C 839.4619 895.22263 825.9354 900.17227 811.1875 911.07227 C 805.7533 915.08867 803.2536 918.10517 800.1543 924.38477 C 795.827 933.15227 793.62673 941.00755 793.55273 947.93945 C 793.52713 950.34575 792.07602 956.79368 790.32812 962.26758 C 788.58024 967.74138 787.46963 973.49574 787.86133 975.05664 C 788.25293 976.61764 788.21123 980.15597 787.76953 982.91797 L 786.9668 987.93945 L 780.89648 987.93945 L 774.82422 987.93945 L 775.29102 959.50195 C 775.54762 943.86135 775.28584 928.46906 774.71094 925.29688 C 772.85194 915.04007 763.55269 902.41545 753.86719 897.00195 C 752.32959 896.14255 750.40444 895.43945 749.58984 895.43945 C 748.77524 895.43945 747.22017 894.65888 746.13477 893.70508 C 743.70207 891.56728 732.79573 889.18945 725.42383 889.18945 C 722.40443 889.18945 719.60071 888.64678 719.19141 887.98438 C 718.73431 887.24477 709.8444 887.03279 696.1543 887.43359 C 676.6653 888.00419 670.18997 888.78448 644.63867 893.64258 C 628.56467 896.69878 606.13091 900.90378 594.78711 902.98828 C 583.44341 905.07268 573.03711 907.30795 571.66211 907.95312 C 570.28711 908.59843 563.85579 910.01764 557.37109 911.10938 C 550.88639 912.20108 544.69889 913.55935 543.62109 914.12695 C 542.54329 914.69465 538.32043 915.8471 534.23633 916.6875 C 530.15233 917.5279 525.93363 918.63559 524.86133 919.15039 C 523.78913 919.66519 517.84961 921.62717 511.66211 923.50977 C 505.47461 925.39237 498.91855 927.72135 497.09375 928.68555 C 495.26885 929.64985 492.98558 930.43945 492.01758 930.43945 C 491.04968 930.43945 487.92793 931.56445 485.08203 932.93945 C 482.23613 934.31445 479.31018 935.43945 478.58008 935.43945 C 477.85008 935.43945 476.27583 935.95343 475.08203 936.58203 C 469.81153 939.35733 458.34038 944.18945 457.02148 944.18945 C 456.22518 944.18945 454.41149 945.27657 452.99219 946.60547 C 451.57289 947.93427 444.69694 951.84392 437.71094 955.29492 C 430.72484 958.74582 424.64432 962.15861 424.19922 962.87891 C 421.51332 967.22481 420.02028 963.15096 416.20508 941.06836 C 394.50708 815.47866 395.08849 709.08848 417.86719 637.18359 C 421.34729 626.19819 423.34486 622.12302 428.19336 616.10742 C 439.69476 601.83762 459.22743 588.87151 480.79883 581.19141 C 485.82423 579.40221 490.15934 577.93945 490.43164 577.93945 z M 961.19727 902.02734 C 969.63644 902.03148 976.6354 902.70709 986.4668 904.05859 C 1022.9096 909.06839 1029.7632 910.63536 1029.8242 913.97266 C 1029.8582 915.84256 1030.0002 915.82894 1031.1602 913.83594 C 1032.1296 912.17034 1033.4603 911.77614 1036.4336 912.27344 C 1038.6212 912.63944 1047.7246 914.10068 1056.6621 915.52148 C 1073.524 918.20208 1077.4473 919.16228 1087.8594 923.14648 C 1091.2684 924.45088 1098.5809 926.31436 1104.1094 927.28906 C 1118.8046 929.87996 1122.4501 931.51644 1131.6484 939.65234 C 1143.2179 949.88544 1149.1845 959.73171 1155.5137 979.03711 C 1160.6341 994.65532 1159.4191 1004.2976 1150.5098 1018.7344 C 1140.6393 1034.7285 1128.1769 1049.2538 1110.4395 1065.4395 C 1101.0219 1074.0333 1092.3828 1081.5722 1091.2402 1082.1934 C 1090.0975 1082.8147 1086.8475 1085.4282 1084.0176 1088.002 C 1081.1877 1090.5756 1076.4065 1094.2557 1073.3926 1096.1777 C 1070.3788 1098.0998 1066.5058 1100.8733 1064.7871 1102.3438 C 1057.9851 1108.1612 1027.185 1126.8984 1014.7871 1132.7598 C 999.82635 1139.8328 974.85773 1148.8081 956.99023 1153.5371 C 939.44643 1158.1805 935.33051 1158.6981 924.16211 1157.6602 C 918.66211 1157.1491 911.39604 1156.4867 908.01562 1156.1895 C 899.63644 1155.4526 877.43927 1143.0963 863.32617 1131.3125 C 825.22327 1099.4988 805.879 1054.0435 802.8457 989.18945 C 802.1851 975.06534 802.45788 968.16735 804.08008 957.93945 C 805.95958 946.08925 806.71355 943.98821 811.84375 936.31641 C 814.96885 931.64301 819.58125 926.4234 822.09375 924.7168 C 824.60625 923.0103 828.91211 920.04561 831.66211 918.12891 C 839.17521 912.89261 850.68471 908.24634 859.78711 906.77344 C 864.25591 906.05034 878.03711 905.41433 890.41211 905.36133 C 902.78711 905.30823 919.38091 904.7083 927.28711 904.0293 C 942.87911 902.69025 952.75809 902.02321 961.19727 902.02734 z M 706.14062 903.93164 C 716.35501 903.77247 723.29971 905.32752 730.41211 908.54492 C 733.84961 910.10002 737.50591 911.73368 738.53711 912.17578 C 750.88181 917.46778 760.9593 930.15086 763.6543 943.78516 C 769.1946 971.81426 761.40323 1028.2409 747.74023 1059.0254 C 738.30703 1080.2796 732.3761 1090.8603 722.5332 1104 C 711.8254 1118.2944 694.38865 1136.4565 689.68945 1138.2109 C 688.36765 1138.7044 687.28711 1139.6202 687.28711 1140.2461 C 687.28711 1140.872 684.33401 1143.3504 680.72461 1145.7539 C 661.67691 1158.4379 656.02876 1161.6895 653.03906 1161.6895 C 651.23156 1161.6895 648.77583 1162.1858 647.58203 1162.793 C 642.56943 1165.343 638.84291 1166.5409 633.53711 1167.3066 C 624.52461 1168.6076 616.51371 1169.2462 615.94141 1168.7109 C 615.65031 1168.4386 609.22461 1167.8334 601.66211 1167.3672 C 570.78381 1165.4637 536.62154 1158.7569 522.11914 1151.75 C 519.20374 1150.3415 515.91113 1149.1895 514.80273 1149.1895 C 513.69443 1149.1895 512.25271 1148.7406 511.59961 1148.1934 C 510.94651 1147.6462 508.16211 1146.4515 505.41211 1145.5371 C 502.66211 1144.6229 495.91211 1141.7544 490.41211 1139.1641 C 484.91211 1136.5739 478.37988 1133.5626 475.89648 1132.4707 C 473.41308 1131.3789 470.72076 1129.6888 469.91406 1128.7168 C 469.10736 1127.7447 466.57646 1126.599 464.28906 1126.1699 C 462.00166 1125.7409 459.12284 1124.2758 457.89062 1122.9141 C 456.65843 1121.5526 455.11795 1120.4395 454.46875 1120.4395 C 452.84295 1120.4395 438.88613 1111.7411 437.14453 1109.6426 C 436.36663 1108.7052 434.79344 1107.9395 433.64844 1107.9395 C 432.50354 1107.9395 429.62053 1106.2748 427.24023 1104.2402 C 424.85993 1102.2057 422.22778 1100.5172 421.39258 1100.4902 C 420.55738 1100.4623 419.27301 1099.3145 418.53711 1097.9395 C 417.80121 1096.5645 416.64876 1095.4395 415.97656 1095.4395 C 413.40236 1095.4395 396.66849 1078.9227 390.80469 1070.5957 C 384.46379 1061.5908 382.07561 1047.6943 384.78711 1035.5781 L 386.30078 1028.8086 L 389.60742 1033.0332 C 405.08292 1052.8099 440.3462 1092.9395 442.25 1092.9395 C 443.7939 1092.9395 446.58862 1084.148 446.16992 1080.6074 C 445.97762 1078.9809 442.18433 1062.3872 437.74023 1043.7324 C 430.25923 1012.3293 423.53711 981.79911 423.53711 979.22461 C 423.53711 978.62691 425.36521 977.77824 427.59961 977.33984 C 429.83401 976.90134 433.06841 975.93521 434.78711 975.19141 C 443.07551 971.60431 446.86961 969.67864 449.16211 967.89844 C 451.27341 966.25894 460.36211 961.94711 470.41211 957.81641 C 471.78711 957.25131 479.38091 954.77164 487.28711 952.30664 C 495.19341 949.84164 502.63823 947.28911 503.83203 946.63281 C 505.02583 945.97661 507.38281 945.43945 509.07031 945.43945 C 510.75781 945.43945 512.49253 944.86782 512.92383 944.16992 C 513.35523 943.47202 515.77945 942.02899 518.31055 940.96289 C 524.91425 938.18139 548.72353 930.43945 550.67383 930.43945 C 551.57953 930.43945 553.29839 929.89733 554.49219 929.23633 C 559.32039 926.56293 583.58337 919.22046 593.63477 917.39062 C 606.39147 915.06844 611.28675 914.93919 613.21875 916.87109 C 614.29425 917.94679 615.98895 917.93034 620.03125 916.80664 C 622.99075 915.98394 626.81841 915.26975 628.53711 915.21875 C 630.25591 915.16765 645.427 912.64242 662.25 909.60742 C 682.4428 905.96452 695.92625 904.09082 706.14062 903.93164 z M 791.80859 977.93945 C 793.02469 977.93945 793.53711 979.60865 793.53711 983.56445 C 793.53711 986.65825 793.39651 989.12492 793.22461 989.04492 C 793.05271 988.96522 791.92771 988.64262 790.72461 988.32812 C 787.39771 987.45872 788.39109 977.93945 791.80859 977.93945 z M 915.5957 986.39258 C 908.39772 986.27688 901.21349 988.26756 895.44531 992.59766 C 884.09071 1001.1215 877.6618 1024.3961 882.5625 1037.2285 C 885.1319 1043.9563 896.07445 1051.259 902.81055 1054.3184 L 902.81055 1054.3164 C 909.51345 1057.3609 921.27635 1057.3765 927.93945 1054.3496 C 939.43605 1049.1271 947.20959 1036.3439 948.17969 1021.0645 C 948.67279 1013.2989 948.33822 1009.5412 945.19922 1003.4473 C 939.62684 992.62902 927.59234 986.58541 915.5957 986.39258 z M 601.24609 993.89258 C 589.23749 994.0646 577.21037 1000.104 571.625 1010.9473 C 568.4861 1017.0412 568.15153 1022.7989 568.64453 1030.5645 C 569.61463 1045.8439 581.38817 1056.6271 592.88477 1061.8496 C 599.54787 1064.8762 611.31087 1064.8626 618.01367 1061.8184 C 624.74977 1058.759 631.69232 1051.4564 634.26172 1044.7285 C 639.14712 1031.9362 632.73021 1008.618 621.44531 1000.1484 C 615.64905 995.7983 608.45126 993.78937 601.24609 993.89258 z M 913.64062 1017.1543 C 914.80723 1017.1976 916.40057 1017.9157 918.10547 1020.6191 C 919.17927 1021.0312 918.74042 1021.0162 919.57422 1023.0293 C 921.51292 1027.7095 923.44973 1027.2586 919.01953 1029.2773 C 913.45863 1031.8109 908.26851 1035.8251 905.97461 1030.2871 C 903.82931 1025.108 906.31046 1019.7035 911.73438 1017.7422 C 911.73437 1017.7422 912.47403 1017.1109 913.64062 1017.1543 z M 609.08984 1025.2422 C 614.85171 1032.2072 613.34489 1032.9949 607.10742 1039.1641 C 601.54652 1041.6977 601.51851 1043.3251 599.22461 1037.7871 C 597.50331 1033.6315 597.36805 1027.405 600.71875 1026.1191 C 600.93139 1026.0358 600.71854 1026.119 609.08984 1025.2422 z M 844.75977 1163.3438 C 844.72632 1163.3474 844.69648 1163.3641 844.66992 1163.3906 C 844.36922 1163.6912 842.7297 1166.1876 843.4707 1168.9395 C 844.2117 1171.6914 845.36224 1178.2346 846.02734 1183.4805 C 847.45754 1194.7605 845.42488 1206.7948 840.42578 1216.6602 C 838.69908 1220.0677 839.31466 1223.2974 839.34766 1223.8359 C 839.38076 1224.3743 839.07353 1221.5846 841.11133 1217.6367 C 846.58783 1207.027 852.75579 1195.1507 851.30469 1183.7051 C 850.04018 1173.7317 845.79648 1163.2182 844.75977 1163.3438 z M 825.85156 1177.3145 L 824.84375 1191.7402 C 823.97495 1204.1873 823.31622 1207.1873 820.04102 1213.6152 C 808.11292 1237.0259 783.72501 1252.2748 736.66211 1251.2344 C 733.25359 1251.159 730.18424 1250.602 727.57617 1249.8711 C 736.71037 1255.3775 750.39878 1263.5319 767 1258.666 C 794.2747 1250.6717 812.70991 1236.4418 821.31641 1219.5645 C 824.82861 1212.677 825.17029 1204.8905 825.49609 1191.6895 L 825.85156 1177.3145 z M 727.57617 1249.8711 C 724.08619 1247.7672 721.20299 1246.0215 719.16211 1245.5781 C 717.70111 1245.2607 721.24143 1248.0957 727.57617 1249.8711 z M 676.54297 1177.9766 C 672.49657 1177.8642 664.81445 1193.4048 664.81445 1201.6895 C 664.81755 1208.4868 667.45757 1218.9489 671.20117 1226.998 C 672.71907 1230.2616 676.18584 1232.7067 676.46094 1232.4316 C 676.73604 1232.1565 673.841 1229.7329 672.4707 1227.0469 C 669.1352 1220.5088 672.03711 1208.2088 672.03711 1201.5078 C 672.03821 1195.261 674.00978 1181.4463 677.61328 1179.3516 C 678.87808 1178.6163 677.29577 1177.9976 676.54297 1177.9766 z "
     id="path4156" />
  <path
     style="fill:#000000;fill-opacity:1;stroke:#000000;stroke-width:10;stroke-linecap:round;stroke-linejoin:miter;stroke-miterlimit:4;stroke-dasharray:none;stroke-opacity:1"
     d="m 545.19763,2517.1099 335.01398,0 c 0,0 26.57178,1169.3177 -42,882.2714 -126.5606,-529.7916 -74.90891,-536.1966 -126.5606,-529.7916 -48.24229,5.9822 0,0 -86.45338,529.7916 -47.51314,291.1634 -80,-882.2714 -80,-882.2714 z"
     id="rect4219"
     inkscape:connector-curvature="0"
     sodipodi:nodetypes="ccsssc"
     inkscape:export-xdpi="90"
     inkscape:export-ydpi="90" />
  <flowRoot
     xml:space="preserve"
     id="flowRoot4222"
     style="font-style:normal;font-variant:normal;font-weight:bold;font-stretch:normal;font-size:70px;line-height:125%;font-family:'Segoe Print';-inkscape-font-specification:'Segoe Print Bold';text-align:center;letter-spacing:0px;word-spacing:0px;text-anchor:middle;fill:#000000;fill-opacity:1;stroke:none;stroke-width:1px;stroke-linecap:butt;stroke-linejoin:miter;stroke-opacity:1"
     inkscape:export-xdpi="90"
     inkscape:export-ydpi="90"
     transform="translate(0,170)"><flowRegion
       id="flowRegion4224"><rect
         id="rect4226"
         width="202.33698"
         height="289.05283"
         x="621.46356"
         y="1895.1785"
         style="font-style:normal;font-variant:normal;font-weight:bold;font-stretch:normal;font-size:70px;font-family:'Segoe Print';-inkscape-font-specification:'Segoe Print Bold';text-align:center;text-anchor:middle" /></flowRegion><flowPara
       id="flowPara4228"
       style="font-style:normal;font-variant:normal;font-weight:bold;font-stretch:normal;font-size:70px;font-family:'Segoe Print';-inkscape-font-specification:'Segoe Print Bold';text-align:center;text-anchor:middle">GNU Linux</flowPara></flowRoot>  <path
     style="fill:#000000;fill-rule:evenodd;stroke:#000000;stroke-width:10;stroke-linecap:butt;stroke-linejoin:miter;stroke-miterlimit:4;stroke-dasharray:none;stroke-opacity:1"
     d="m 574.51497,1815.1298 c 2.66712,1.2145 -51.60318,124.5864 -120.42332,274.7362 -1.76864,3.8588 -3.5302,7.6991 -5.2837,11.519 0,0 10e-6,0 10e-6,0 59.43088,147.6767 105.36544,267.0949 102.713,268.1559 -2.65093,1.0604 -52.02446,-117.7828 -111.89776,-268.3708 0,0 -10e-6,-10e-5 -10e-6,-10e-5 1.74938,-3.8727 3.50948,-7.7662 5.27936,-11.6783 69.19781,-152.9532 126.94708,-275.5756 129.61242,-274.3619 z"
     id="path4266"
     inkscape:path-effect="#path-effect4268;#path-effect4270"
     inkscape:original-d="m 574.51497,1815.1298 c -60.92915,71.7621 -89.50223,188.7908 -130.2994,286.1477 46.91408,92.541 73.00535,182.5133 107.30539,268.2634"
     inkscape:connector-curvature="0"
     inkscape:export-xdpi="90"
     inkscape:export-ydpi="90" />
  <path
     inkscape:connector-curvature="0"
     inkscape:original-d="m 863.64616,1815.2885 c 56.08537,75.6082 76.91205,194.2606 111.22819,294.0863 -52.88956,89.2606 -84.83258,177.3255 -124.68939,260.6382"
     inkscape:path-effect="#path-effect4274;#path-effect4276"
     id="path4272"
     d="m 863.64616,1815.2885 c 2.73929,-1.036 52.31187,125.1138 111.31661,282.2808 1.50918,4.0199 3.0098,8.0206 4.5011,11.9998 0,0 -1e-5,0 -1e-5,0 -69.63248,146.3315 -126.70332,261.6761 -129.2789,260.4439 -2.57705,-1.2329 51.1,-117.3771 120.09986,-260.8325 0,0 1e-5,0 1e-5,0 -1.49889,-3.9268 -3.00447,-7.8745 -4.51591,-11.8411 -58.81197,-154.3448 -104.86387,-281.0142 -102.12276,-282.0509 z"
     style="fill:#000000;fill-rule:evenodd;stroke:#000000;stroke-width:10;stroke-linecap:butt;stroke-linejoin:miter;stroke-miterlimit:4;stroke-dasharray:none;stroke-opacity:1"
     inkscape:export-xdpi="90"
     inkscape:export-ydpi="90" />
  <path
     style="fill:#000000;fill-rule:evenodd;stroke:none;stroke-width:1px;stroke-linecap:butt;stroke-linejoin:miter;stroke-opacity:1"
     d="m 835.66,894.58274 c 18.27384,-25.65464 37.60973,-38.62181 56.34477,-44.05609 18.95891,-5.49921 38.3273,-3.57657 56.29689,1.99545 17.96005,5.56905 33.7939,14.55416 45.4919,22.14206 11.62804,7.54248 18.88934,13.52069 19.64474,12.79018 0.7547,-0.72984 -5.1316,-8.34935 -15.81036,-17.81877 -10.62043,-9.41772 -26.22481,-20.87536 -44.90511,-28.96419 -18.68423,-8.09053 -41.05696,-13.07344 -65.08966,-8.52716 -24.22977,4.58355 -49.03429,18.65433 -72.07891,47.08586 z"
     id="path4153"
     inkscape:path-effect="#path-effect4155"
     inkscape:original-d="m 825.60713,886.90641 c 82.63875,-108.22303 187.83117,0.54793 187.83117,0.54793"
     inkscape:connector-curvature="0"
     sodipodi:nodetypes="cc" />
  <path
     style="fill:#000000;fill-rule:evenodd;stroke:none;stroke-width:1px;stroke-linecap:butt;stroke-linejoin:miter;stroke-opacity:1"
     d="m 703.87224,919.12179 1.65297,13.50697 c -43.51165,3.03364 -78.78173,8.83268 -112.95631,14.41354 -34.12744,5.57316 -66.24407,10.76018 -102.66871,12.31902 35.76577,-6.05207 66.6936,-15.63129 99.59586,-25.57902 32.91224,-9.95074 68.37738,-20.4575 112.72322,-28.16748 l 1.65297,13.50697 z"
     id="path4157"
     inkscape:path-effect="#path-effect4159"
     inkscape:original-d="m 703.87224,919.12179 c -87.7728,10.74152 -141.80922,32.62 -213.97205,40.23953"
     inkscape:connector-curvature="0"
     sodipodi:nodetypes="cc" />
  <ellipse
     style="opacity:1;fill:#ffffff;fill-opacity:1;stroke:#000000;stroke-width:1.493;stroke-linecap:butt;stroke-linejoin:miter;stroke-miterlimit:4;stroke-dasharray:none;stroke-opacity:1"
     id="path4190"
     ry="33.373257"
     rx="50.778442"
     cy="1425.1498"
     cx="767.74451" />
</svg>
