<?xml version="1.0" encoding="UTF-8" standalone="no"?>
<!-- Created with Inkscape (http://www.inkscape.org/) -->

<svg
   xmlns:dc="http://purl.org/dc/elements/1.1/"
   xmlns:cc="http://creativecommons.org/ns#"
   xmlns:rdf="http://www.w3.org/1999/02/22-rdf-syntax-ns#"
   xmlns:svg="http://www.w3.org/2000/svg"
   xmlns="http://www.w3.org/2000/svg"
   xmlns:xlink="http://www.w3.org/1999/xlink"
   xmlns:sodipodi="http://sodipodi.sourceforge.net/DTD/sodipodi-0.dtd"
   xmlns:inkscape="http://www.inkscape.org/namespaces/inkscape"
   id="svg4136"
   version="1.1"
   inkscape:version="0.48.4 r9939"
   width="1438.75"
   height="2560"
   viewBox="0 0 1438.75 2560"
   sodipodi:docname="afa3alaa.svg">
  <metadata
     id="metadata4142">
    <rdf:RDF>
      <cc:Work
         rdf:about="">
        <dc:format>image/svg+xml</dc:format>
        <dc:type
           rdf:resource="http://purl.org/dc/dcmitype/StillImage" />
        <dc:title></dc:title>
      </cc:Work>
    </rdf:RDF>
  </metadata>
  <defs
     id="defs4140">
    <linearGradient
       inkscape:collect="always"
       id="linearGradient3017">
      <stop
         style="stop-color:#ff2a2a;stop-opacity:1"
         offset="0"
         id="stop3019" />
      <stop
         style="stop-color:#ff5555;stop-opacity:0;"
         offset="1"
         id="stop3021" />
    </linearGradient>
    <inkscape:path-effect
       fuse_tolerance="0"
       vertical_pattern="false"
       prop_units="false"
       tang_offset="0"
       normal_offset="0"
       spacing="0"
       scale_y_rel="false"
       prop_scale="1"
       copytype="single_stretched"
       pattern="m -2770.9829,4542.0397 c 0,-2.76 2.24,-5 5,-5 2.76,0 5,2.24 5,5 0,2.76 -2.24,5 -5,5 -2.76,0 -5,-2.24 -5,-5 z"
       is_visible="true"
       id="path-effect4173"
       effect="skeletal" />
    <inkscape:path-effect
       is_visible="true"
       id="path-effect4171"
       effect="spiro" />
    <inkscape:path-effect
       fuse_tolerance="0"
       vertical_pattern="false"
       prop_units="false"
       tang_offset="0"
       normal_offset="0"
       spacing="0"
       scale_y_rel="false"
       prop_scale="1"
       copytype="single_stretched"
       pattern="m -3845.8233,4798.95 c 0,-2.76 2.24,-5 5,-5 2.76,0 5,2.24 5,5 0,2.76 -2.24,5 -5,5 -2.76,0 -5,-2.24 -5,-5 z"
       is_visible="true"
       id="path-effect3510"
       effect="skeletal" />
    <inkscape:path-effect
       is_visible="true"
       id="path-effect3508"
       effect="spiro" />
    <inkscape:path-effect
       fuse_tolerance="0"
       vertical_pattern="false"
       prop_units="false"
       tang_offset="0"
       normal_offset="0"
       spacing="0"
       scale_y_rel="false"
       prop_scale="1"
       copytype="single_stretched"
       pattern="m 1281.7854,329.92615 c 0,-2.76 2.24,-5 5,-5 2.76,0 5,2.24 5,5 0,2.76 -2.24,5 -5,5 -2.76,0 -5,-2.24 -5,-5 z"
       is_visible="true"
       id="path-effect4276"
       effect="skeletal" />
    <inkscape:path-effect
       is_visible="true"
       id="path-effect4274"
       effect="spiro" />
    <inkscape:path-effect
       effect="skeletal"
       id="path-effect4270"
       is_visible="true"
       pattern="m -2603.7035,4545.4979 c 0,-2.76 2.24,-5 5,-5 2.76,0 5,2.24 5,5 0,2.76 -2.24,5 -5,5 -2.76,0 -5,-2.24 -5,-5 z"
       copytype="single_stretched"
       prop_scale="1"
       scale_y_rel="false"
       spacing="0"
       normal_offset="0"
       tang_offset="0"
       prop_units="false"
       vertical_pattern="false"
       fuse_tolerance="0" />
    <inkscape:path-effect
       effect="spiro"
       id="path-effect4268"
       is_visible="true" />
    <linearGradient
       inkscape:collect="always"
       xlink:href="#linearGradient3017"
       id="linearGradient3023"
       x1="818.96637"
       y1="1240.4293"
       x2="717.21234"
       y2="1255.6492"
       gradientUnits="userSpaceOnUse"
       gradientTransform="matrix(1.3894071,0,0,0.98798085,-274.57921,11.789499)" />
  </defs>
  <sodipodi:namedview
     pagecolor="#ffffff"
     bordercolor="#666666"
     borderopacity="1"
     objecttolerance="10"
     gridtolerance="10"
     guidetolerance="10"
     inkscape:pageopacity="0"
     inkscape:pageshadow="2"
     inkscape:window-width="1305"
     inkscape:window-height="744"
     id="namedview4138"
     showgrid="false"
     showguides="true"
     inkscape:zoom="0.39140626"
     inkscape:cx="610.56095"
     inkscape:cy="1610.7852"
     inkscape:window-x="61"
     inkscape:window-y="24"
     inkscape:window-maximized="1"
     inkscape:current-layer="svg4136"
     inkscape:snap-to-guides="false" />
  <path
     sodipodi:nodetypes="ccc"
     style="fill:#000000;fill-rule:evenodd;stroke:#000000;stroke-width:9.31799984;stroke-linecap:butt;stroke-linejoin:miter;stroke-miterlimit:0;stroke-opacity:1;stroke-dasharray:none"
     d="m 752.35848,1600.5713 c -1.23142,0.6229 -10.95461,-15.8583 -25.7043,-43.2085 -14.74969,-27.3502 -34.52587,-65.5693 -55.78568,-107.8975 -0.57944,-1.1536 -1.157,-2.3044 -1.73262,-3.4521 7.97535,-45.8145 15.68795,-87.184 21.76109,-116.9105 6.07315,-29.7266 10.50678,-47.8104 11.84724,-47.5737 1.34046,0.2367 -0.67303,18.6708 -5.05263,48.1508 -4.37961,29.4801 -11.12536,70.0059 -19.1725,114.9462 0.57379,1.1246 1.14874,2.2523 1.72478,3.383 21.13506,41.4843 39.76002,79.1822 52.81277,106.796 13.05275,27.6137 20.53327,45.1434 19.30185,45.7663 z"
     id="path4169"
     inkscape:path-effect="#path-effect4171;#path-effect4173"
     inkscape:original-d="m 752.35848,1600.5713 c 79.15037,-64.6173 -633.45519,60.1062 -78.531,-155.2517 2.51143,-4.0848 28.91673,-163.7906 28.91673,-163.7906"
     inkscape:connector-curvature="0"
     inkscape:export-xdpi="90"
     inkscape:export-ydpi="90"
     inkscape:export-filename="/home/rana/SparkleShare/CCC/linuxCourse/Chapter 1/character/3ALA2/afamadrob.png" />
  <path
     inkscape:export-ydpi="90"
     inkscape:export-xdpi="90"
     inkscape:connector-curvature="0"
     inkscape:original-d="m 838.52335,1247.8512 c 18.16749,4.1937 216.48095,-15.028 228.70515,-13.7243 -82.06217,-2.6869 -126.55497,54.8259 -168.86561,49.9643"
     inkscape:path-effect="#path-effect4268;#path-effect4270"
     id="path3502"
     d="m 838.52335,1247.8512 c -0.0413,-0.6888 5.58329,-1.6785 15.80826,-2.764 10.22497,-1.0855 25.05045,-2.2659 43.39532,-3.4244 18.34488,-1.1584 40.20914,-2.295 64.49484,-3.3888 24.28569,-1.0938 50.99263,-2.1459 79.00733,-3.2236 9.0013,-0.3463 17.865,-0.6855 26.5542,-1.0209 0,0 0,0 0,0 -23.7009,7.7312 -46.0761,14.986 -66.3316,21.4062 -20.2555,6.4202 -38.39146,12.005 -53.59888,16.4815 -15.20741,4.4765 -27.48627,7.8448 -36.01193,9.921 -8.52566,2.0763 -13.29796,2.8615 -13.478,2.253 -0.18004,-0.6085 4.24985,-2.5461 12.50399,-5.4346 8.25414,-2.8886 20.33267,-6.7272 35.43565,-11.219 15.10298,-4.4919 33.23042,-9.6367 53.56671,-15.2269 20.33626,-5.5903 42.88126,-11.6265 66.80446,-17.9864 0,0 0,0 0,0 -8.631,0.7039 -17.431,1.4247 -26.3649,2.1547 -27.8051,2.2719 -54.28871,4.4118 -78.39028,6.2216 -24.10157,1.8099 -45.82124,3.2887 -64.08282,4.327 -18.26158,1.0382 -33.06508,1.6358 -43.31749,1.7791 -10.2524,0.1433 -15.95353,-0.1667 -15.99486,-0.8555 z"
     style="fill:#000000;fill-rule:evenodd;stroke:#000000;stroke-width:9.53928566;stroke-linecap:butt;stroke-linejoin:miter;stroke-miterlimit:3;stroke-opacity:1;stroke-dasharray:none"
     sodipodi:nodetypes="ccc"
     inkscape:export-filename="/home/rana/SparkleShare/CCC/linuxCourse/Chapter 1/character/3ALA2/afamadrob.png" />
  <ellipse
     style="fill:#ffffff;fill-opacity:1;fill-rule:evenodd;stroke:none"
     id="path4165"
     cx="726.24567"
     cy="861.81464"
     rx="79.489532"
     ry="68.650047"
     inkscape:export-xdpi="90"
     inkscape:export-ydpi="90"
     inkscape:export-filename="/home/rana/SparkleShare/CCC/linuxCourse/Chapter 1/character/3ALA2/afamadrob.png"
     sodipodi:cx="726.24567"
     sodipodi:cy="861.81464"
     sodipodi:rx="79.489532"
     sodipodi:ry="68.650047"
     transform="matrix(1.1713897,0,0,1,-112.47328,0)" />
  <ellipse
     ry="68.650047"
     rx="61.423733"
     cy="850.97516"
     cx="863.54578"
     id="ellipse4167"
     style="fill:#ffffff;fill-opacity:1;fill-rule:evenodd;stroke:none"
     inkscape:export-xdpi="90"
     inkscape:export-ydpi="90"
     inkscape:export-filename="/home/rana/SparkleShare/CCC/linuxCourse/Chapter 1/character/3ALA2/afamadrob.png"
     sodipodi:cx="863.54578"
     sodipodi:cy="850.97516"
     sodipodi:rx="61.423733"
     sodipodi:ry="68.650047"
     transform="matrix(1.1713897,0,0,1,-112.47328,0)" />
  <rect
     inkscape:export-ydpi="90"
     inkscape:export-xdpi="90"
     y="1196.8951"
     x="758.30707"
     height="77.568069"
     width="73.983749"
     id="rect3482"
     style="fill:#ffaaaa;fill-opacity:1;fill-rule:evenodd;stroke:#000000;stroke-width:6.44189882;stroke-linecap:round;stroke-linejoin:miter;stroke-miterlimit:4;stroke-opacity:1;stroke-dasharray:none"
     inkscape:export-filename="/home/rana/SparkleShare/CCC/linuxCourse/Chapter 1/character/3ALA2/afamadrob.png" />
  <path
     style="font-size:medium;font-style:normal;font-variant:normal;font-weight:normal;font-stretch:normal;text-indent:0;text-align:start;text-decoration:none;line-height:normal;letter-spacing:normal;word-spacing:normal;text-transform:none;direction:ltr;block-progression:tb;writing-mode:lr-tb;text-anchor:start;baseline-shift:baseline;color:#000000;fill:#aa0000;fill-opacity:1;fill-rule:nonzero;stroke:none;visibility:visible;display:inline;overflow:visible;enable-background:accumulate;font-family:sans-serif"
     d="m 699.17953,1278.0668 0,1.3029 0,1.3029 c 0,0 23.63877,96.6365 9.65917,207.8412 -13.97974,111.2047 -65.57791,236.9778 13.57708,295.2511 36.11116,26.5847 114.29244,26.4452 150.57934,0 79.98466,-58.2915 27.36136,-184.7161 14.88277,-296.5677 -12.47859,-111.8516 15.1876,-209.1304 15.1876,-209.1304 z"
     id="path3484"
     inkscape:connector-curvature="0"
     sodipodi:nodetypes="cccsssscc"
     inkscape:export-xdpi="90"
     inkscape:export-ydpi="90"
     inkscape:export-filename="/home/rana/SparkleShare/CCC/linuxCourse/Chapter 1/character/3ALA2/afamadrob.png" />
  <path
     inkscape:export-ydpi="90"
     inkscape:export-xdpi="90"
     sodipodi:nodetypes="cccssssccccssssc"
     inkscape:connector-curvature="0"
     id="path3486"
     d="m 698.86928,1276.7014 0,1.3059 0,1.3059 c 0,0 23.83379,96.8597 9.73883,208.3213 -14.09497,111.4616 -66.11856,237.5252 13.68903,295.9331 36.40888,26.6461 115.23478,26.5063 151.82081,0 80.6442,-58.4261 27.587,-185.1427 15.00556,-297.2527 -12.58146,-112.11 15.31285,-209.6135 15.31285,-209.6135 z m 6.89055,5.2236 191.78598,0 c 0,0 -28.70572,95.5068 -16.52992,205.3126 12.17566,109.8057 65.23286,233.9105 -13.78846,291.1063 -33.2801,24.0882 -104.92689,24.2204 -138.03974,0 -78.59011,-57.4849 -26.56649,-181.5896 -12.77591,-291.3231 13.79053,-109.7335 -10.65195,-205.0958 -10.65195,-205.0958 z"
     style="font-size:medium;font-style:normal;font-variant:normal;font-weight:normal;font-stretch:normal;text-indent:0;text-align:start;text-decoration:none;line-height:normal;letter-spacing:normal;word-spacing:normal;text-transform:none;direction:ltr;block-progression:tb;writing-mode:lr-tb;text-anchor:start;baseline-shift:baseline;color:#000000;fill:#000000;fill-opacity:1;fill-rule:nonzero;stroke:none;visibility:visible;display:inline;overflow:visible;enable-background:accumulate;font-family:sans-serif"
     inkscape:export-filename="/home/rana/SparkleShare/CCC/linuxCourse/Chapter 1/character/3ALA2/afamadrob.png" />
  <path
     inkscape:export-filename="/home/rana/SparkleShare/CCC/linuxCourse/Chapter 1/character/3ALA2/afamadrob.png"
     inkscape:export-xdpi="90"
     inkscape:export-ydpi="90"
     style="fill:url(#linearGradient3023);fill-opacity:1;stroke:none"
     d="m 761.70008,1232.3555 c 1.42345,-4.1229 6.38994,-6.706 10.27204,-9.3262 15.10697,-10.1975 46.83213,-29.1293 49.56012,-24.1418 5.85091,10.6965 -39.38002,20.5181 -32.88951,25.6917 3.69029,6.2642 40.72722,-18.0662 40.6204,-11.3441 -0.23014,14.4947 -24.55756,22.2387 -24.55756,22.2387 4.32187,7.8283 23.89595,-12.3234 24.51058,-1.4097 0.59867,10.6305 -29.44288,12.0689 -26.53428,16.9885 0.43035,3.0107 26.92461,-9.5212 26.95052,-3.3876 0.0343,8.1344 -22.95188,14.6695 -22.95188,14.6695 -2.09923,1.639 28.43065,-5.7545 23.49654,-0.412 -11.6637,12.628 -32.17105,9.2647 -32.17105,9.2647 0,0 -8.88102,1.11 -13.26551,0.5117 -8.11778,-1.1077 -18.61721,-0.8476 -23.40898,-7.4932 -6.20977,-8.6122 0.12823,-24.8244 0.369,-31.8504 0.26251,-7.6603 -4.3e-4,2e-4 -4.3e-4,2e-4 z"
     id="path3039"
     inkscape:connector-curvature="0"
     sodipodi:nodetypes="cascscscscscaasc" />
  <path
     inkscape:export-ydpi="90"
     inkscape:export-xdpi="90"
     sodipodi:nodetypes="cscccsssssssssscccssccccccssssscssscscssssssssssscscsssscssccssccscsccsscccsccsssssssccscsssssscsscssssscccssssscsscssssssssssssssssssscsssssscsscssssscccssssscsscssssssssssscssssssssssssssscsccc"
     style="fill:#000000"
     d="m 812.72092,1218.9028 c -6.34416,-1.419 -14.84641,-3.9092 -19.78016,-8.4152 l -1.38068,2.5603 -5.44004,-0.2662 c -2.50129,2.2312 -2.36177,-0.2752 -6.83563,-0.6275 -10.28064,-0.8094 -27.10457,-5.4622 -36.30511,-10.0405 -7.35783,-3.6613 -16.14253,-11.0774 -19.37325,-16.3551 -4.59967,-7.514 -5.25133,-10.2771 -5.50111,-23.3244 -0.17053,-8.9102 -0.60448,-15.2941 -1.79431,-19.8433 -3.71425,-14.201 -11.58754,-25.826 -24.53427,-36.2253 -5.03386,-4.0433 -7.12671,-6.4604 -13.47332,-15.5606 -34.633,-49.6591 -51.53672,-95.82089 -49.85292,-136.14134 0.43445,-10.40477 1.78728,-18.9657 4.0749,-25.78627 1.22373,-3.64851 1.57135,-14.28338 0.61006,-18.65819 -0.40696,-1.85199 -1.12838,-2.48922 -4.42,-3.90389 -2.16341,-0.92981 -5.54509,-2.62582 -7.5149,-3.76881 -1.96968,-1.14298 -6.27202,-3.54001 -9.56082,-5.32671 -3.28874,-1.78659 -6.42928,-3.76996 -6.97889,-4.40745 -0.54972,-0.63739 -1.28369,-1.15892 -1.63099,-1.15892 -0.34738,0 -1.96803,-1.10187 -3.60149,-2.44858 -1.63356,-1.34671 -3.82524,-3.06414 -4.87047,-3.8164 -1.04512,-0.75231 -2.41661,-2.03874 -3.04765,-2.85869 -0.63105,-0.82001 -1.74555,-2.11433 -2.47688,-2.8764 -8.35877,-8.71059 -9.23904,-10.75173 -9.32623,-21.62716 -0.0391,-4.90009 0.30026,-7.28698 1.36035,-9.5646 l 1.41269,-3.03509 -7.69535,-9.15345 c -13.97869,-16.62713 -23.99366,-30.79089 -32.9987,-46.66812 -6.54425,-11.53867 -11.46515,-22.82911 -11.46515,-26.3056 0,-2.75704 -3.01853,-9.68668 -6.65605,-15.28027 -9.27165,-14.25763 -21.74121,-26.09222 -33.764,-32.04488 l -4.54687,-2.25123 -6.14909,-10.77378 c -11.49415,-20.13893 -16.55139,-36.16915 -18.12761,-57.46011 -1.28256,-17.32344 3.75922,-41.28468 12.761,-60.64654 l 2.24028,-4.81882 -1.32636,-6.93439 c -1.79762,-9.39698 -1.77243,-30.81403 0.048,-40.8881 7.29237,-40.35627 29.13902,-68.1933 67.11218,-85.51418 5.93609,-2.70768 6.4491,-3.13471 13.78925,-11.47949 30.0774,-34.19383 65.70894,-62.23646 103.88162,-81.75645 35.17428,-17.98668 72.43537,-28.95781 111.67041,-32.88003 14.50602,-1.45014 51.67562,-1.68082 56.09202,-0.34816 3.94665,1.19094 8.09277,4.4086 9.78972,7.59753 2.73046,5.13104 1.37615,15.92408 -3.20821,25.56652 -0.92635,1.94842 -1.53964,3.66601 -1.36286,3.81692 0.17671,0.15086 6.33106,-0.13932 13.67635,-0.64481 113.61744,-7.81954 183.67682,-4.32638 218.15072,10.87699 5.0288,2.21786 7.9476,4.1762 14.4013,9.66286 9.4692,8.05048 11.6998,11.35031 11.7141,17.32861 0.012,4.78163 -1.9889,8.4457 -7.0332,12.88392 l -3.5114,3.08953 5.0789,8.34357 c 7.2977,11.98858 11.7806,22.21011 14.8218,33.79606 1.8666,7.11121 1.9013,21.20419 0.067,27.09766 -2.2056,7.08499 -7.0086,14.60997 -12.4929,19.57301 l -4.9344,4.46533 4.3151,2.10759 c 12.4009,6.05697 21.448,17.16762 25.6387,31.48621 2.2726,7.76563 2.8114,24.80939 1.1295,35.74055 -82.289,102.03721 -124.9718,203.93186 -126.24246,238.36881 -3.36541,0.98084 1.27757,60.96738 -4.63955,82.57494 -3.25845,11.89879 -11.77961,29.1712 -12.69922,31.32595 -0.91961,2.15475 -2.5352,5.24 -3.59016,6.85604 l -1.91803,2.9383 1.00686,7.83547 c 1.31141,10.20539 -14.58324,41.9299 -15.88534,52.23647 -6.49292,51.39887 -27.6395,98.96137 -63.28739,142.34437 l -6.43846,9.9249 -0.0141,6.5467 c -0.0385,18.2529 -4.48406,30.8303 -15.22688,43.078 -9.10907,10.3852 -10.29474,11.569 -14.77721,14.7536 -11.00501,7.8184 -23.38654,10.1874 -37.15302,7.1083 z M 631.2168,899.32565 c -0.0361,-0.80804 -0.82709,-4.70128 -1.75735,-8.65166 l -1.69141,-7.18252 -0.97889,2.44859 c -0.53848,1.34671 -1.25567,2.44858 -1.5938,2.44858 -0.85525,0 -12.11597,-10.77931 -24.03221,-23.00473 -11.08597,-11.37366 -10.79158,-11.27738 -11.65674,-3.81269 -0.43304,3.73642 0.91815,9.57338 2.89236,12.4947 2.40908,3.56488 15.50089,14.97568 17.18182,14.97568 0.37564,0 1.11285,0.58766 1.63828,1.30591 0.52544,0.71825 1.42657,1.30591 2.00248,1.30591 0.57591,0 1.51957,0.48847 2.09689,1.08553 0.57739,0.59706 2.42653,1.64686 4.10924,2.33283 1.6827,0.68607 4.77642,2.25431 6.87504,3.48516 4.49594,2.63695 5.00186,2.71609 4.91429,0.76871 z m 110.20676,-12.89588 c 0,-0.35912 1.18431,-0.65295 2.63187,-0.65295 1.44761,0 2.84463,-0.29383 3.10463,-0.65296 0.25999,-0.35912 1.31287,-0.65295 2.33968,-0.65295 1.02689,0 1.86707,-0.22446 1.86707,-0.49891 0,-0.49745 5.55287,-2.76587 6.77048,-2.76587 0.35257,0 1.26405,-0.58766 2.02549,-1.30591 0.76138,-0.71826 1.75477,-1.30592 2.20752,-1.30592 1.10985,0 15.00195,-11.85585 15.00195,-12.803 0,-0.41204 0.53688,-1.12951 1.19301,-1.59441 1.34151,-0.95044 4.16106,-5.64384 4.16106,-6.9264 0,-0.46036 0.68838,-1.88323 1.52973,-3.16203 0.84135,-1.2788 1.52973,-3.1976 1.52973,-4.26406 0,-1.06646 0.34419,-1.93902 0.76486,-1.93902 0.47992,0 0.76487,-4.13535 0.76487,-11.10025 l 0,-11.10025 -59.2771,0 -59.2771,0 0,11.10025 c 0,6.9649 0.28496,11.10025 0.76487,11.10025 0.42067,0 0.76486,0.87256 0.76486,1.93902 0,1.06646 0.68838,2.98526 1.52973,4.26406 0.84135,1.2788 1.52974,2.70167 1.52974,3.16203 0,1.28256 2.81953,5.97596 4.16099,6.9264 0.65619,0.4649 1.19307,1.17104 1.19307,1.56923 0,0.94904 13.86474,12.82818 14.9724,12.82818 0.46895,0 1.47563,0.58766 2.23707,1.30592 0.76138,0.71825 1.70927,1.30591 2.10632,1.30591 0.79901,0 4.73446,1.4154 9.24772,3.32589 1.6173,0.68462 3.94059,1.2448 5.16285,1.2448 1.22225,0 2.22232,0.29383 2.22232,0.65295 0,0.41048 4.97164,0.65296 13.38516,0.65296 8.41352,0 13.38515,-0.24248 13.38515,-0.65296 z m -23.5247,-14.14594 c -7.82018,-2.36292 -13.599,-10.67656 -13.54137,-19.48128 0.044,-6.72931 3.78511,-11.83355 11.06063,-15.09091 3.90057,-1.74632 12.3972,-1.64388 16.44462,0.19834 6.57093,2.99085 11.63691,10.02857 12.4175,17.25078 1.32756,12.28278 -12.56282,21.29843 -26.38138,17.12307 z m 10.93917,-12.26905 c 1.03257,-0.88149 1.87741,-2.21712 1.87741,-2.96802 0,-1.76167 -3.29045,-4.57069 -5.35407,-4.57069 -2.0636,0 -5.35406,2.80902 -5.35406,4.57069 0,1.76168 3.29046,4.57069 5.35406,4.57069 0.8796,0 2.4441,-0.72118 3.47666,-1.60267 z m -4.58277,-9.55446 c 0.78817,-1.08877 -0.98448,-2.33722 -2.03962,-1.43651 -0.88259,0.75346 -0.3303,2.14635 0.85114,2.14635 0.371,0 0.90585,-0.31943 1.18848,-0.70984 z m 200.7361,32.05172 c 0,-0.35913 1.00001,-0.65296 2.22226,-0.65296 1.22232,0 3.54555,-0.56018 5.16284,-1.24479 4.51326,-1.9105 8.44884,-3.3259 9.24773,-3.3259 0.39711,0 1.345,-0.58766 2.10638,-1.30591 0.76138,-0.71825 1.75478,-1.30591 2.20752,-1.30591 1.10991,0 15.00195,-11.85585 15.00195,-12.803 0,-0.41204 0.53688,-1.12951 1.19302,-1.59442 1.34151,-0.95044 4.16105,-5.64383 4.16105,-6.9264 0,-0.46036 0.68838,-1.88323 1.52973,-3.16203 0.84135,-1.2788 1.52973,-3.1976 1.52973,-4.26406 0,-1.06646 0.34419,-1.93902 0.76486,-1.93902 0.47992,0 0.76487,-4.13535 0.76487,-11.10025 l 0,-11.10025 -59.2771,0 -59.2771,0 0,11.10025 c 0,6.9649 0.28497,11.10025 0.76487,11.10025 0.42067,0 0.76486,0.87256 0.76486,1.93902 0,1.06646 0.68838,2.98526 1.52973,4.26406 0.84135,1.2788 1.52974,2.70167 1.52974,3.16203 0,1.28257 2.81954,5.97596 4.16099,6.9264 0.65619,0.46491 1.19307,1.17104 1.19307,1.56924 0,0.94903 13.86482,12.82818 14.9724,12.82818 0.46896,0 1.47564,0.58766 2.23707,1.30591 0.76144,0.71825 1.67292,1.30591 2.02543,1.30591 1.21767,0 6.77054,2.26842 6.77054,2.76587 0,0.27445 0.84012,0.49891 1.86701,0.49891 1.02693,0 2.07975,0.29383 2.33974,0.65296 0.26,0.35912 1.65707,0.65295 3.10463,0.65295 1.44756,0 2.63187,0.29383 2.63187,0.65296 0,0.41047 4.97163,0.65296 13.38515,0.65296 8.41352,0 13.38516,-0.24249 13.38516,-0.65296 z m -17.40578,-14.14595 c -4.56472,-1.37925 -9.70278,-5.96817 -11.31132,-10.10243 -3.29321,-8.46424 2.19075,-20.03075 11.50761,-24.27141 4.04736,-1.84223 12.54398,-1.94466 16.44462,-0.19835 7.27546,3.25737 11.01658,8.36165 11.06069,15.09091 0.0939,14.36393 -13.34911,23.81795 -27.7016,19.48128 z m 10.17437,-12.26904 c 1.03256,-0.88149 1.87735,-2.21713 1.87735,-2.96802 0,-0.7509 -0.84479,-2.08654 -1.87735,-2.96803 -1.03257,-0.88149 -2.59712,-1.60267 -3.47671,-1.60267 -0.8796,0 -2.4441,0.72118 -3.47666,1.60267 -1.03257,0.88149 -1.87741,2.21713 -1.87741,2.96803 0,0.75089 0.84484,2.08653 1.87741,2.96802 1.03256,0.88149 2.59706,1.60267 3.47666,1.60267 0.87959,0 2.44414,-0.72118 3.47671,-1.60267 z m 0.006,-9.55447 c 0.78824,-1.08876 -0.98453,-2.33727 -2.03968,-1.4365 -0.88252,0.75346 -0.33024,2.14634 0.8512,2.14634 0.37106,0 0.90592,-0.31942 1.18848,-0.70984 z m 68.11181,-110.76874 c -0.25418,-0.21699 -0.43493,0.16867 -0.40171,0.85699 0.0367,0.76067 0.21789,0.91539 0.4621,0.39449 0.22089,-0.47133 0.19373,-1.03454 -0.0606,-1.25148 z"
     id="path3488"
     inkscape:connector-curvature="0"
     inkscape:export-filename="/home/rana/SparkleShare/CCC/linuxCourse/Chapter 1/character/3ALA2/afamadrob.png" />
  <path
     inkscape:export-ydpi="90"
     inkscape:export-xdpi="90"
     sodipodi:nodetypes="ssssssscccscccsssssccccscccccccscsccccccsssssssssccccccccssccscssscsssscccsssccccssssscccssscsssscssssssscccccssssssscscssscccsssscsssccccssssccccsssssssssssccscscccccssccscccssssssccsscccsssssscccssccccccsccsscccsssscccccsscccsssscccccsccscscscccscsccccccsscssssccscccssccsccccssccscccccccscccccccssccccccscsscsccccccccccccscsssssscccccscscccccccsccccsccccccssccccccccscsssccccscsscsccccccsscccssccccccsccsscccsssscccccssssssscssccccscscccccccscsccscccccssssccscscccssccsccccssccsccccccsscccccccssccccccscsscsccccccccccccsscccssccccscsccccscccccscscccccccsssssscccccscsssccccscsscsccccccsscccccssscccscscsccscccccccscccscccscssscccccssccccssccccscccccccscsssssscccscscscc"
     inkscape:connector-curvature="0"
     id="path3490"
     d="m 803.59935,321.09024 c -9.95795,0.0724 -20.98491,0.49133 -27.20068,1.21919 -33.53138,3.92657 -65.37828,14.9107 -95.43567,32.91509 -32.62063,19.53984 -63.06211,47.60529 -88.75707,81.82352 -3.13263,4.17176 -4.80639,6.35875 -6.30918,7.82429 -1.50284,1.4655 -2.84516,2.22946 -5.37664,3.58207 -32.4831,17.35604 -51.1929,45.28844 -57.4275,85.70453 -1.5625,10.12881 -1.5856,31.51024 -0.041,40.9699 l 1.1202,6.86319 -1.8854,4.75232 c -7.6995,19.39942 -12.011,43.37696 -10.9125,60.75854 1.3474,21.31781 5.6785,37.39718 15.5016,57.55806 l 5.2849,10.84622 3.9504,2.29041 c 10.2015,5.91662 20.8292,17.72154 28.72593,31.9459 1.54531,2.78357 2.96165,5.90496 3.98915,8.66796 1.02743,2.76305 1.65991,5.18854 1.65991,6.48573 0,1.84343 1.0637,5.51142 2.81586,10.2208 1.75228,4.70938 4.20211,10.42211 6.99891,16.19837 7.69396,15.89075 16.25353,30.0705 28.19338,46.70677 l 6.48573,9.03733 -1.15291,2.90257 c -0.92109,2.31805 -1.21398,4.75179 -1.18039,9.66275 0.0745,10.88723 0.87831,13.07124 8.02112,21.79034 0.61488,0.75054 1.56819,2.0472 2.09865,2.85467 0.5652,0.86034 1.73326,2.14045 2.65163,2.9148 0.88008,0.74197 2.75391,2.4618 4.14423,3.80449 0.70269,0.67865 1.40193,1.29483 1.96801,1.74563 0.28307,0.22546 0.5324,0.40964 0.73769,0.5418 0.10264,0.066 0.19379,0.11889 0.27852,0.15911 0.0847,0.0402 0.15342,0.0755 0.27137,0.0755 -0.005,0 0.23219,0.0866 0.46522,0.28056 0.23302,0.19395 0.49535,0.47091 0.71726,0.77232 0.14934,0.20293 0.40895,0.44218 0.77639,0.75089 0.36743,0.30872 0.8374,0.67568 1.3804,1.07738 1.08594,0.80335 2.46185,1.74789 3.87077,2.64447 2.80536,1.78529 6.48014,4.18357 8.15584,5.32264 1.69711,1.15359 4.58166,2.84809 6.44488,3.7861 1.39775,0.70373 2.23045,1.20995 2.73933,1.73644 0.50889,0.52655 0.7252,1.07853 0.89476,1.98232 0.40228,2.1441 0.53652,5.89499 0.43466,9.54544 -0.10191,3.65044 -0.44422,7.22644 -0.94987,8.9924 -1.96127,6.84998 -3.11778,15.42992 -3.48923,25.8489 -1.4399,40.38966 13.0132,86.59605 42.59617,136.28415 5.42058,9.1045 7.23825,11.5638 11.54714,15.6179 11.02017,10.3689 17.70779,21.9371 20.86805,36.0911 1.01103,4.5283 1.38082,8.7969 1.52629,17.7013 0.21334,13.0541 0.7916,15.9128 4.72579,23.4411 2.80149,5.3608 10.30244,12.7675 16.6381,16.4606 7.90755,4.6092 22.25947,11.3489 31.10112,12.1643 1.91107,0.1763 2.93036,0.2646 3.78819,-0.01 0.85777,-0.2707 1.46304,-0.8846 2.53221,-2.0017 l 2.02929,-2.1201 3.17498,2.4088 c 4.86264,3.6901 11.29086,4.8119 16.69728,6.2785 l -0.006,0.016 0.28672,0.075 c 11.82117,3.0972 22.50102,0.7034 31.94992,-7.16 3.83373,-3.1905 4.88008,-4.4114 12.65715,-14.7976 9.20167,-12.2888 13.01817,-24.9461 13.05097,-43.2349 l 0.0115,-6.4643 5.4491,-7.7681 c 30.4558,-43.4168 48.2233,-86.3054 53.77082,-137.7473 9.09797,-53.53962 20.11313,-79.60557 26.92617,-110.00531 6.31779,-28.18988 -2.63245,-79.41323 9.55619,-102.41075 12.18865,-22.99747 33.11474,-32.86823 45.66994,-67.99966 12.5551,-35.13143 45.9915,-80.89737 58.1271,-146.43267 0.3604,-2.7433 0.6023,-5.86459 0.732,-9.12603 0.1297,-3.26138 0.1471,-6.66291 0.058,-9.96666 -0.089,-3.30375 -0.284,-6.50966 -0.5794,-9.3799 -0.2954,-2.87018 -0.6911,-5.40469 -1.181,-7.36555 -3.5912,-14.37349 -11.3523,-25.55183 -22.0107,-31.64997 l -3.3954,-1.94356 3.9841,-4.2228 c 4.7201,-5.00352 8.8327,-12.55404 10.7278,-19.68557 1.593,-5.99419 1.5554,-20.03979 -0.054,-27.22215 -2.6011,-11.60742 -6.4387,-21.85517 -12.6766,-33.85885 l -4.2493,-8.17725 2.8669,-2.95361 c 4.3322,-4.46496 6.0871,-8.22223 6.0776,-13.06622 -0.01,-3.01681 -0.498,-5.40188 -2.0079,-8.01809 -1.5097,-2.61626 -4.0218,-5.46482 -8.0691,-9.49544 -5.5152,-5.49251 -8.047,-7.48193 -12.3592,-9.70966 -29.54355,-15.26209 -89.36439,-18.7261 -186.37294,-10.90536 -3.13346,0.25262 -6.01336,0.45159 -8.12627,0.56828 -1.05644,0.0584 -1.92158,0.0954 -2.52815,0.10918 -0.30328,0.007 -0.54258,0.008 -0.70399,0.005 -0.0214,0 -0.0282,0 -0.047,-0.005 0.005,-0.0371 0.005,-0.0602 0.0141,-0.11022 0.0371,-0.1962 0.11153,-0.47979 0.21532,-0.82027 0.20754,-0.68095 0.53449,-1.59279 0.92736,-2.56079 1.96623,-4.84441 3.23819,-9.97356 3.72801,-14.54561 0.48977,-4.5721 0.20701,-8.58365 -0.99375,-11.22677 -1.48759,-3.27423 -5.05346,-6.51414 -8.5078,-7.73517 -0.52665,-0.18617 -1.4341,-0.32267 -2.69446,-0.44177 -1.26042,-0.11915 -2.8612,-0.21296 -4.71351,-0.28463 -3.70466,-0.14339 -8.41477,-0.19437 -13.3938,-0.15817 z m 0.005,0.52236 c 4.97307,-0.036 9.67696,0.0141 13.3693,0.15713 1.84614,0.0715 3.43898,0.16595 4.68394,0.28364 1.2449,0.11764 2.15412,0.2662 2.56998,0.41319 3.284,1.1608 6.79706,4.35673 8.20682,7.46 1.13024,2.48792 1.43384,6.43757 0.94992,10.95539 -0.48402,4.51783 -1.74595,9.60676 -3.69333,14.40484 -0.39794,0.98037 -0.72854,1.90198 -0.94266,2.60467 -0.10708,0.35134 -0.18518,0.64621 -0.22853,0.87537 -0.0219,0.11456 -0.035,0.21203 -0.0366,0.30198 0,0.0899 -0.0313,0.18414 0.10202,0.31729 0.0754,0.0754 0.11388,0.0718 0.14694,0.0806 0.0329,0.009 0.0616,0.0136 0.0928,0.0172 0.0625,0.008 0.13477,0.0125 0.22446,0.0152 0.17927,0.006 0.42405,0.005 0.73245,-0.005 0.61702,-0.0141 1.48582,-0.0517 2.54559,-0.11017 2.11939,-0.11706 5.00138,-0.31639 8.13844,-0.56932 96.979,-7.81829 156.77528,-4.2953 186.09141,10.84931 4.2741,2.20793 6.7272,4.13498 12.2307,9.61579 4.0365,4.01986 6.5181,6.84538 7.9844,9.38621 1.4663,2.54084 1.9325,4.79641 1.9385,7.75796 0.01,4.71914 -1.6505,8.28961 -5.9307,12.70098 l -3.1291,3.22503 4.4228,8.51083 c 6.2222,11.97354 10.0391,22.16785 12.6306,33.73233 1.5776,7.04001 1.5986,21.18037 0.059,26.97319 -1.8705,7.03839 -5.9587,14.53856 -10.6025,19.46117 l -4.4401,4.70635 3.9719,2.27312 c 10.5145,6.01581 18.2001,17.05886 21.7638,31.3225 0.4803,1.92194 0.8697,4.43007 1.1614,7.28124 0.2916,2.85123 0.4856,6.04549 0.5748,9.33983 0.089,3.29435 0.074,6.68872 -0.053,9.94008 -0.1272,3.25141 -0.3661,6.35974 -0.7236,9.08209 -7.8473,47.3778 -40.4479,90.29946 -53.769,129.81975 -13.321,39.52028 -31.8967,61.95663 -46.20463,95.72882 -14.30794,33.77223 -3.45356,78.88025 -14.26139,109.01385 -10.80778,30.1336 -21.878,58.97524 -24.69871,87.57967 -5.53827,51.35589 -22.52891,98.87259 -52.93738,142.22199 l -4.49824,7.9028 -0.012,6.6295 c -0.0329,18.2168 -5.89604,33.8491 -15.03633,46.0558 -7.77545,10.3841 -8.75383,11.5302 -12.57347,14.7089 -9.34072,7.7734 -20.84507,10.118 -32.52843,7.057 -5.37091,-1.4072 -11.91138,-2.5763 -16.79419,-6.2817 l -3.54539,-2.6903 -2.35163,-0.6774 c -1.06615,1.114 -1.60434,1.6416 -2.31188,1.865 -0.7076,0.2232 -1.67486,0.1596 -3.58311,-0.016 -8.71122,-0.8034 -23.08466,-2.3251 -30.88586,-6.8724 -6.2268,-3.6296 -13.72367,-13.1454 -16.43814,-18.3399 -3.91914,-7.4996 -7.58766,-13.3012 -7.80084,-26.3416 -0.14568,-8.9162 -0.51813,-13.2363 -1.53852,-17.8063 -3.1812,-14.2482 -7.84586,-23.8394 -18.9306,-34.269 -4.28579,-4.0325 -8.13118,-8.4981 -13.5468,-17.5941 -29.54844,-49.6301 -42.91194,-95.74735 -41.47695,-135.99843 0.3704,-10.39061 1.52436,-18.93227 3.46881,-25.72343 0.53903,-1.8825 0.86775,-5.4481 0.97024,-9.12096 0.10254,-3.67285 2.06413,-7.42692 1.64566,-9.65763 -0.17781,-0.94815 -1.48884,-1.63986 -2.07724,-2.24862 -0.58834,-0.60877 -0.42322,-1.12951 -1.83532,-1.8405 -1.83063,-0.92161 -4.71983,-2.61909 -6.38576,-3.75147 -1.68739,-1.14701 -5.35935,-3.54263 -8.16905,-5.33073 -1.39868,-0.89006 -2.76649,-1.82974 -3.84022,-2.6241 -0.53693,-0.39716 -1.00095,-0.75868 -1.35595,-1.05695 -0.35489,-0.29827 -0.60647,-0.5453 -0.69172,-0.66116 -0.24733,-0.33599 -0.53223,-0.63797 -0.80397,-0.8641 -0.27168,-0.22618 -0.49744,-0.40096 -0.7988,-0.40096 0.0439,0 0.006,0 -0.047,-0.0246 -0.0532,-0.0251 -0.12981,-0.0682 -0.22039,-0.12651 -0.1811,-0.11654 -0.42055,-0.29274 -0.69479,-0.51114 -0.54843,-0.4368 -1.23848,-1.04488 -1.9303,-1.71299 -1.39863,-1.35073 -3.26619,-3.06539 -4.17071,-3.82794 -0.86624,-0.73037 -2.04052,-2.02306 -2.55264,-2.80264 -0.54697,-0.83255 -1.49663,-2.12493 -2.13031,-2.8985 -7.12887,-8.70207 -7.82842,-10.60024 -7.9028,-21.46386 -0.0334,-4.88923 0.25366,-7.22864 1.14267,-9.46582 l 1.25895,-3.16788 -6.65294,-9.26994 c -11.92684,-16.61809 -20.46667,-30.76556 -28.14752,-46.62925 -2.79005,-5.76236 -5.23357,-11.46387 -6.97848,-16.1535 -1.7449,-4.68963 -2.78321,-8.40511 -2.78321,-10.03818 0,-1.4599 -0.65531,-3.87777 -1.69256,-6.66725 -1.03737,-2.78948 -2.46181,-5.92942 -4.0218,-8.73943 -7.93365,-14.2909 -18.59505,-26.1561 -28.92095,-32.1448 l -3.8135,-2.21086 -5.2146,-10.70237 c -9.8017,-20.11704 -14.1056,-36.09806 -15.4495,-57.36217 -1.0912,-17.2653 3.2071,-41.20987 10.8768,-60.53413 l 1.9385,-4.88594 -1.1437,-7.00501 c -1.5243,-9.33429 -1.5038,-30.78734 0.042,-40.80666 6.2161,-40.29652 24.8058,-68.03732 57.15703,-85.323 2.53614,-1.35501 3.94652,-2.15867 5.49612,-3.66977 1.54959,-1.51115 3.22763,-3.71041 6.36114,-7.88342 25.6583,-34.1696 56.05376,-62.18987 88.6081,-81.69 29.9982,-17.96893 61.76999,-28.92679 95.2275,-32.84468 6.16772,-0.72227 17.19855,-1.14283 27.14453,-1.21512 z m 41.7768,501.91088 0,11.36144 c 0,3.48542 0.0608,6.26346 0.17342,8.17725 0.0563,0.95687 0.12505,1.69638 0.20821,2.20981 0.0418,0.25674 0.0855,0.45566 0.14177,0.61117 0.0282,0.0777 0.0574,0.14532 0.10819,0.21218 0.0507,0.0669 0.14709,0.15102 0.2826,0.15102 -0.0162,0 -4.7e-4,-0.008 0.0491,0.0541 0.0496,0.0623 0.11246,0.1809 0.16527,0.33771 0.10557,0.31358 0.17756,0.77728 0.17756,1.28653 0,1.16237 0.59643,3.06911 1.3395,4.39215 0.35374,0.62982 0.67703,1.29714 0.90901,1.85889 0.23199,0.5617 0.36331,1.05627 0.36331,1.17532 0,0.40232 0.16397,0.93508 0.41209,1.5824 0.24823,0.64731 0.58813,1.39095 0.96413,2.12414 0.37605,0.73314 0.78726,1.4551 1.18049,2.05885 0.39319,0.6037 0.75764,1.08464 1.09065,1.36097 0.257,0.21333 0.49776,0.48982 0.66716,0.7509 0.16951,0.26108 0.25617,0.51938 0.25617,0.61827 0,0.19505 0.0781,0.28625 0.17343,0.43873 0.0953,0.15248 0.22665,0.33374 0.39271,0.54582 0.33222,0.42416 0.80157,0.96852 1.36619,1.59462 1.12904,1.25232 2.63998,2.82824 4.1809,4.37481 1.54098,1.54662 3.11079,3.06309 4.35846,4.19626 0.62391,0.56661 1.16691,1.03679 1.58955,1.37021 0.21135,0.16669 0.39178,0.29916 0.54379,0.39481 0.152,0.0957 0.2429,0.17347 0.43873,0.17347 0.0724,0 0.38634,0.11524 0.71313,0.33871 0.32679,0.22346 0.69255,0.53855 1.00289,0.88149 0.33604,0.37129 0.70201,0.70717 1.03146,0.95598 0.16476,0.12442 0.31974,0.22712 0.46318,0.30302 0.1435,0.0758 0.26724,0.13263 0.42751,0.13263 0.16485,0 0.67029,0.12918 1.25085,0.34586 0.58045,0.21667 1.26449,0.51364 1.91598,0.82538 0.6515,0.31175 1.27196,0.63917 1.72015,0.91414 0.22409,0.13749 0.40556,0.26254 0.52033,0.35808 0.0574,0.0475 0.098,0.0895 0.11528,0.11121 0.0172,0.0219 -0.005,0.0225 -0.005,-0.0501 0,0.18235 0.11523,0.31754 0.23261,0.40399 0.11737,0.0865 0.2569,0.1471 0.4193,0.19793 0.32481,0.1017 0.74327,0.15817 1.20389,0.15817 0.40912,0 0.83062,0.0709 1.1631,0.17954 0.33243,0.1087 0.56729,0.27742 0.61211,0.34993 0.10212,0.16522 0.25705,0.26165 0.44281,0.35098 0.18575,0.0893 0.40932,0.16423 0.66215,0.22649 0.50559,0.12459 1.12846,0.19897 1.76705,0.19897 0.59717,0 1.14079,0.0731 1.51402,0.18158 0.18664,0.0543 0.33045,0.1193 0.40813,0.17243 0.0776,0.0531 0.0633,0.0705 0.0633,0.0376 0,0.13816 0.0882,0.23438 0.15603,0.28464 0.0678,0.0501 0.13602,0.0802 0.21532,0.10812 0.15838,0.0559 0.362,0.0993 0.62542,0.14083 0.52665,0.0831 1.28607,0.15191 2.26999,0.20811 1.96796,0.11247 4.82691,0.17244 8.42115,0.17244 3.59418,0 6.45413,-0.06 8.42208,-0.17244 0.98398,-0.0562 1.7434,-0.12505 2.27004,-0.20811 0.26333,-0.0418 0.46695,-0.0849 0.62543,-0.14083 0.0792,-0.0277 0.14741,-0.0579 0.21527,-0.10812 0.0678,-0.0502 0.15509,-0.14648 0.15509,-0.28464 0,0.0136 -0.007,0 0.053,-0.0501 0.0603,-0.0491 0.17583,-0.11173 0.32851,-0.16428 0.30543,-0.1051 0.75769,-0.1775 1.25493,-0.1775 1.13693,0 3.10473,-0.5686 4.52373,-1.27227 1.92241,-0.95321 3.7218,-1.78231 5.12163,-2.37206 0.69992,-0.29488 1.29965,-0.53015 1.76199,-0.68968 0.46229,-0.15953 0.81452,-0.23668 0.89476,-0.23668 0.32042,0 0.5922,-0.18429 0.93555,-0.43362 0.3433,-0.24932 0.71852,-0.5852 1.05596,-0.95801 0.31086,-0.34351 0.67412,-0.65897 0.99678,-0.88249 0.32261,-0.22357 0.63389,-0.33771 0.69475,-0.33771 0.19541,0 0.28646,-0.078 0.43873,-0.17347 0.15227,-0.0954 0.33306,-0.22744 0.54477,-0.39381 0.42348,-0.3327 0.96753,-0.80162 1.59264,-1.36714 1.25018,-1.13092 2.8226,-2.64452 4.36666,-4.18806 1.544,-1.54353 3.05782,-3.11684 4.1891,-4.36665 0.56562,-0.62491 1.03533,-1.16822 1.36813,-1.59159 0.16642,-0.21167 0.29936,-0.39256 0.39485,-0.54478 0.0955,-0.15227 0.17243,-0.24326 0.17243,-0.43873 0,-0.10918 0.0887,-0.37135 0.2581,-0.63661 0.16946,-0.26526 0.41001,-0.54441 0.66623,-0.75706 0.33301,-0.27633 0.69741,-0.75727 1.09064,-1.36097 0.39324,-0.60375 0.80439,-1.32571 1.18039,-2.05885 0.37605,-0.73319 0.71595,-1.47683 0.96418,-2.12414 0.24818,-0.64732 0.41116,-1.18008 0.41116,-1.5824 0,-0.11905 0.13221,-0.61362 0.36419,-1.17532 0.23198,-0.56175 0.55527,-1.22907 0.90907,-1.85889 0.74312,-1.32305 1.3396,-3.22978 1.3396,-4.39215 0,-0.50925 0.0719,-0.97295 0.1775,-1.28653 0.0528,-0.15681 0.11586,-0.27539 0.16528,-0.33771 0.0496,-0.0623 0.065,-0.0541 0.0491,-0.0541 0.13545,0 0.23183,-0.0841 0.2826,-0.15102 0.0507,-0.0669 0.08,-0.13445 0.10813,-0.21218 0.0563,-0.15551 0.10024,-0.35443 0.14182,-0.61117 0.0832,-0.51343 0.15185,-1.25294 0.20811,-2.20981 0.11257,-1.91379 0.17348,-4.69183 0.17348,-8.17725 l 0,-11.36144 -50.86631,0 -50.86526,0 z m 0.52236,0.52237 50.3429,0 50.34394,0 0,10.83907 c 0,3.47936 -0.061,6.2515 -0.17243,8.14664 -0.0557,0.94757 -0.12537,1.67721 -0.20305,2.15679 -0.0387,0.23982 -0.0809,0.41941 -0.11627,0.51725 -0.0178,0.0491 -0.0361,0.0764 -0.0334,0.0734 0,-0.005 0.0496,-0.0551 0.13367,-0.0551 -0.19558,0 -0.35244,0.11738 -0.45911,0.25199 -0.10672,0.13462 -0.18445,0.3012 -0.25,0.49583 -0.13106,0.38932 -0.20498,0.89559 -0.20498,1.45285 0,0.9705 -0.57993,2.90148 -1.27326,4.13603 -0.36451,0.64899 -0.69417,1.33151 -0.93561,1.91604 -0.24138,0.58452 -0.404,1.03297 -0.404,1.37429 0,0.23893 -0.13753,0.77258 -0.37646,1.39565 -0.23893,0.62313 -0.57178,1.35282 -0.94068,2.07212 -0.36894,0.71929 -0.77373,1.42929 -1.15395,2.01293 -0.38013,0.58369 -0.74693,1.04483 -0.98654,1.2437 -0.30391,0.25225 -0.57251,0.56468 -0.77232,0.87741 -0.19975,0.31269 -0.34074,0.61535 -0.34074,0.91822 0,-0.077 -0.0141,0.0355 -0.0928,0.1612 -0.0787,0.12552 -0.20247,0.29675 -0.36221,0.4999 -0.31942,0.40635 -0.7837,0.94428 -1.34467,1.56407 -1.12199,1.23952 -2.63256,2.80844 -4.17181,4.34722 -1.53926,1.53883 -3.10833,3.0481 -4.34832,4.16978 -0.61989,0.56081 -1.15751,1.02529 -1.56396,1.34467 -0.2032,0.15963 -0.37438,0.28348 -0.49991,0.36215 -0.12557,0.0787 -0.23814,0.0929 -0.16125,0.0929 -0.32564,0 -0.63217,0.18069 -0.9927,0.43053 -0.36054,0.24985 -0.74641,0.5863 -1.08553,0.96105 -0.31263,0.34544 -0.66789,0.66257 -0.9764,0.88661 -0.30851,0.22404 -0.60992,0.33363 -0.62846,0.33363 -0.26082,0 -0.58526,0.0997 -1.06515,0.26526 -0.4798,0.16559 -1.08772,0.4041 -1.79459,0.7019 -1.41373,0.5956 -3.22064,1.42909 -5.15119,2.38637 -1.34222,0.6656 -3.3412,1.21716 -4.29118,1.21716 -0.54618,0 -1.0429,0.0745 -1.42527,0.20608 -0.19108,0.0658 -0.35427,0.1448 -0.48663,0.25199 -0.13232,0.10724 -0.24687,0.2628 -0.24687,0.45607 0,-0.0869 0.0549,-0.1331 0.0571,-0.13466 0,0 -0.0277,0.0167 -0.0785,0.0345 -0.1017,0.0361 -0.28579,0.0784 -0.53255,0.11733 -0.49358,0.0778 -1.24422,0.1473 -2.21906,0.20299 -1.94983,0.11142 -4.80419,0.17144 -8.39252,0.17144 -3.58833,0 -6.4417,-0.06 -8.39153,-0.17144 -0.97489,-0.0557 -1.72542,-0.12516 -2.219,-0.20299 -0.24677,-0.0387 -0.43085,-0.0814 -0.53255,-0.11733 -0.0507,-0.0178 -0.0808,-0.036 -0.0786,-0.0345 0,0 0.0562,0.0475 0.0562,0.13466 0,-0.21234 -0.14021,-0.36633 -0.29075,-0.46934 -0.15055,-0.10296 -0.33646,-0.1787 -0.55705,-0.2428 -0.44124,-0.12824 -1.02138,-0.202 -1.65997,-0.202 -0.59717,0 -1.18744,-0.0715 -1.64258,-0.18366 -0.22754,-0.056 -0.42123,-0.12296 -0.56013,-0.18977 -0.1389,-0.0668 -0.21657,-0.14073 -0.22545,-0.15504 -0.17714,-0.28662 -0.5021,-0.44438 -0.89377,-0.57236 -0.39162,-0.12803 -0.85777,-0.20508 -1.32529,-0.20508 -0.41601,0 -0.79483,-0.0555 -1.04776,-0.13466 -0.12646,-0.0397 -0.22075,-0.0866 -0.26526,-0.11942 -0.0444,-0.0329 -0.0204,-0.0287 -0.0204,0.0162 0,-0.13482 -0.0576,-0.20926 -0.11022,-0.27545 -0.0527,-0.0662 -0.11445,-0.12489 -0.18873,-0.18674 -0.14856,-0.1237 -0.34601,-0.25685 -0.58254,-0.40196 -0.47316,-0.29028 -1.10349,-0.62313 -1.76711,-0.94067 -0.66356,-0.31755 -1.3582,-0.61953 -1.95886,-0.84373 -0.60062,-0.2242 -1.07858,-0.3785 -1.43342,-0.3785 0.01,0 -0.0763,-0.0157 -0.18367,-0.0725 -0.10734,-0.0568 -0.2441,-0.14584 -0.39276,-0.2581 -0.29739,-0.22461 -0.64502,-0.54273 -0.95901,-0.88969 -0.3397,-0.37526 -0.72922,-0.71214 -1.09472,-0.96209 -0.36561,-0.2499 -0.68007,-0.42949 -1.00801,-0.42949 0.0776,0 -0.035,-0.0141 -0.16021,-0.0929 -0.12526,-0.0788 -0.29608,-0.2032 -0.49891,-0.3632 -0.40562,-0.31995 -0.94323,-0.7848 -1.56198,-1.34671 -1.23748,-1.12382 -2.80384,-2.63606 -4.34011,-4.17788 -1.53628,-1.54186 -3.04283,-3.11449 -4.16257,-4.35646 -0.55992,-0.62099 -1.02384,-1.15997 -1.34264,-1.5671 -0.15942,-0.20356 -0.2826,-0.37516 -0.36121,-0.50095 -0.0786,-0.12578 -0.0938,-0.23757 -0.0938,-0.1612 0,-0.29926 -0.14104,-0.59414 -0.34079,-0.90186 -0.19975,-0.30778 -0.46814,-0.61764 -0.77127,-0.86927 -0.23966,-0.19886 -0.60641,-0.66001 -0.98659,-1.2437 -0.38018,-0.58363 -0.78501,-1.29363 -1.1539,-2.01293 -0.3689,-0.71929 -0.70175,-1.44899 -0.94068,-2.07211 -0.23888,-0.62308 -0.37746,-1.15673 -0.37746,-1.39566 0,-0.34131 -0.16162,-0.78976 -0.403,-1.37429 -0.24144,-0.58452 -0.5711,-1.26705 -0.93556,-1.91603 -0.69344,-1.23456 -1.27326,-3.16553 -1.27326,-4.13603 0,-0.55726 -0.074,-1.06354 -0.20508,-1.45286 -0.0656,-0.19463 -0.14329,-0.36121 -0.24995,-0.49582 -0.10672,-0.13462 -0.26359,-0.25199 -0.45911,-0.25199 0.0842,0 0.13143,0.0522 0.13362,0.055 0,0.005 -0.0162,-0.0245 -0.0334,-0.0734 -0.0355,-0.0978 -0.0775,-0.27743 -0.11628,-0.51725 -0.0777,-0.47958 -0.14731,-1.20922 -0.20304,-2.15679 -0.11148,-1.89514 -0.17244,-4.66727 -0.17244,-8.14664 l 0,-10.83907 z m -157.23177,3.39537 0,11.36143 c 0,3.48543 0.0608,6.26347 0.17342,8.17725 0.0563,0.95687 0.12505,1.69638 0.20821,2.20982 0.0418,0.25674 0.0855,0.45566 0.14177,0.61116 0.0282,0.0777 0.0574,0.14532 0.10819,0.21219 0.0507,0.0669 0.14709,0.15101 0.2826,0.15101 -0.0162,0 -4.7e-4,-0.008 0.0491,0.0541 0.0496,0.0623 0.11246,0.18089 0.16527,0.33771 0.10557,0.31357 0.17756,0.77728 0.17756,1.28653 0,1.16236 0.59643,3.0691 1.3395,4.39215 0.35374,0.62981 0.67703,1.29713 0.90901,1.85888 0.23199,0.5617 0.36331,1.05628 0.36331,1.17532 0,0.40233 0.16397,0.93509 0.41209,1.5824 0.24823,0.64732 0.58813,1.39096 0.96413,2.12415 0.37605,0.73314 0.78726,1.4551 1.18049,2.05884 0.39319,0.6037 0.75764,1.08464 1.09065,1.36097 0.257,0.21334 0.49776,0.48983 0.66716,0.7509 0.16951,0.26108 0.25617,0.51939 0.25617,0.61827 0,0.19505 0.0781,0.28626 0.17343,0.43874 0.0953,0.15248 0.22665,0.33374 0.39271,0.54582 0.33222,0.42416 0.80157,0.96851 1.36619,1.59462 1.12904,1.25232 2.63998,2.82824 4.1809,4.3748 1.54098,1.54662 3.11079,3.0631 4.35846,4.19626 0.62391,0.56661 1.16691,1.03679 1.58955,1.37022 0.21135,0.16669 0.39178,0.29916 0.54379,0.3948 0.152,0.0957 0.2429,0.17348 0.43873,0.17348 0.0724,0 0.38634,0.11523 0.71313,0.3387 0.32679,0.22347 0.69255,0.53856 1.00289,0.88149 0.3374,0.37281 0.71261,0.70869 1.05596,0.95802 0.34335,0.24932 0.61514,0.43361 0.93556,0.43361 0.0802,0 0.43246,0.0772 0.89475,0.23669 0.4623,0.15953 1.06202,0.3948 1.76194,0.68967 1.39983,0.58975 3.19928,1.41885 5.12163,2.37206 1.41906,0.70368 3.38686,1.27227 4.52378,1.27227 0.49719,0 0.94945,0.0724 1.25488,0.1775 0.15274,0.0525 0.26823,0.11539 0.32851,0.16429 0.0603,0.0486 0.0522,0.0637 0.0522,0.0501 0,0.13817 0.0883,0.23439 0.15614,0.28464 0.0678,0.0502 0.13602,0.0802 0.21526,0.10813 0.15844,0.056 0.36205,0.0993 0.62538,0.14083 0.5267,0.0831 1.28611,0.1519 2.27004,0.20811 1.96795,0.11246 4.82691,0.17243 8.42109,0.17243 3.59424,0 6.45418,-0.06 8.42214,-0.17243 0.98398,-0.0562 1.74339,-0.12505 2.27004,-0.20811 0.26332,-0.0418 0.46694,-0.0849 0.62543,-0.14083 0.0792,-0.0277 0.14741,-0.0579 0.21526,-0.10813 0.0678,-0.0502 0.15504,-0.14647 0.15504,-0.28464 0,0.0329 -0.0136,0.0151 0.0643,-0.0376 0.0777,-0.0531 0.22149,-0.11815 0.40813,-0.17243 0.37323,-0.10844 0.91685,-0.18157 1.51402,-0.18157 0.63854,0 1.26141,-0.0744 1.76706,-0.19897 0.25287,-0.0623 0.47634,-0.13717 0.66214,-0.2265 0.18576,-0.0893 0.34069,-0.18575 0.44276,-0.35098 0.0449,-0.0725 0.27973,-0.24122 0.61221,-0.34993 0.33238,-0.10865 0.75393,-0.17953 1.1631,-0.17953 0.46052,0 0.87898,-0.0565 1.20379,-0.15818 0.16245,-0.0507 0.30198,-0.11142 0.41935,-0.19792 0.11738,-0.0865 0.23157,-0.22164 0.23157,-0.404 0,0.0726 -0.0204,0.0717 -0.005,0.0502 0.0172,-0.0219 0.0579,-0.0634 0.11529,-0.11121 0.11482,-0.0955 0.29623,-0.2206 0.52033,-0.35808 0.44819,-0.27498 1.06865,-0.60239 1.72014,-0.91414 0.6515,-0.31175 1.33553,-0.60871 1.91604,-0.82539 0.5805,-0.21668 1.08594,-0.34586 1.2508,-0.34586 0.16026,0 0.28401,-0.0568 0.4275,-0.13263 0.14345,-0.0759 0.29848,-0.17859 0.46318,-0.30302 0.32946,-0.2488 0.69543,-0.58468 1.03152,-0.95598 0.31081,-0.34351 0.67411,-0.65896 0.99672,-0.88248 0.32261,-0.22357 0.63389,-0.33771 0.69485,-0.33771 0.19531,0 0.28636,-0.078 0.43863,-0.17348 0.15232,-0.0954 0.33306,-0.22744 0.54483,-0.39381 0.42348,-0.33269 0.96747,-0.80162 1.59258,-1.36713 1.25023,-1.13092 2.82265,-2.64452 4.36666,-4.18806 1.544,-1.54354 3.05787,-3.11685 4.1891,-4.36666 0.56567,-0.6249 1.03533,-1.16821 1.36818,-1.59159 0.16643,-0.21166 0.29942,-0.39256 0.3948,-0.54477 0.0955,-0.15227 0.17244,-0.24327 0.17244,-0.43874 0,-0.10917 0.0887,-0.37135 0.2581,-0.6366 0.16945,-0.26526 0.41005,-0.54441 0.66622,-0.75707 0.33301,-0.27633 0.69741,-0.75727 1.09065,-1.36097 0.39323,-0.60374 0.80444,-1.3257 1.18044,-2.05884 0.37599,-0.73319 0.71595,-1.47683 0.96412,-2.12415 0.24818,-0.64731 0.41116,-1.18007 0.41116,-1.5824 0,-0.11904 0.13226,-0.61362 0.36424,-1.17532 0.23198,-0.56175 0.55528,-1.22907 0.90902,-1.85888 0.74312,-1.32305 1.33856,-3.22979 1.33856,-4.39215 0,-0.50925 0.0729,-0.97296 0.17854,-1.28653 0.0528,-0.15682 0.11587,-0.27539 0.16528,-0.33771 0.0496,-0.0623 0.0639,-0.0541 0.0481,-0.0541 0.13545,0 0.23282,-0.0841 0.28364,-0.15101 0.0507,-0.0669 0.08,-0.13446 0.10813,-0.21219 0.0563,-0.1555 0.10024,-0.35442 0.14182,-0.61116 0.0832,-0.51344 0.15186,-1.25295 0.20817,-2.20982 0.11251,-1.91378 0.17238,-4.69182 0.17238,-8.17725 l 0,-11.36143 -50.86527,0 -50.86526,0 z m 0.52236,0.52236 50.3429,0 50.3429,0 0,10.83907 c 0,3.47937 -0.0599,6.25151 -0.17139,8.14664 -0.0557,0.94757 -0.12532,1.67721 -0.20305,2.1568 -0.0386,0.23981 -0.0808,0.4194 -0.11627,0.51724 -0.0178,0.0491 -0.036,0.0764 -0.0334,0.0734 0,-0.005 0.0486,-0.0551 0.13268,-0.0551 -0.19558,0 -0.3514,0.11737 -0.45812,0.25199 -0.10672,0.13461 -0.18439,0.30119 -0.24995,0.49583 -0.13111,0.38931 -0.20607,0.89559 -0.20607,1.45285 0,0.9705 -0.57883,2.90147 -1.27227,4.13603 -0.36451,0.64899 -0.69417,1.33151 -0.93556,1.91603 -0.24144,0.58453 -0.404,1.03298 -0.404,1.37429 0,0.23893 -0.13759,0.77258 -0.37652,1.39566 -0.23887,0.62313 -0.57172,1.35282 -0.94062,2.07211 -0.36889,0.7193 -0.77373,1.4293 -1.1539,2.01294 -0.38018,0.58369 -0.74698,1.04483 -0.98659,1.24369 -0.30397,0.25225 -0.57257,0.56468 -0.77232,0.87742 -0.19975,0.31269 -0.34074,0.61535 -0.34074,0.91821 0,-0.077 -0.0141,0.0355 -0.0929,0.1612 -0.0787,0.12553 -0.20247,0.29676 -0.36216,0.49991 -0.31942,0.40634 -0.7837,0.94428 -1.34467,1.56406 -1.12199,1.23952 -2.63251,2.80844 -4.17181,4.34723 -1.53931,1.53883 -3.10833,3.0481 -4.34827,4.16977 -0.61989,0.56081 -1.15761,1.0253 -1.56401,1.34467 -0.20326,0.15964 -0.37438,0.28349 -0.49991,0.36216 -0.12557,0.0787 -0.23814,0.0929 -0.16125,0.0929 -0.32559,0 -0.63217,0.18069 -0.9927,0.43054 -0.36054,0.24984 -0.74636,0.5863 -1.08553,0.96104 -0.31399,0.34696 -0.66168,0.66508 -0.95901,0.8897 -0.14872,0.11225 -0.28542,0.20132 -0.39276,0.2581 -0.1074,0.0568 -0.19344,0.0725 -0.18367,0.0725 -0.35489,0 -0.8328,0.1543 -1.43347,0.3785 -0.60067,0.2242 -1.29531,0.52618 -1.95887,0.84373 -0.66351,0.31754 -1.29395,0.65039 -1.76705,0.94067 -0.23658,0.14511 -0.43398,0.27827 -0.58255,0.40196 -0.0743,0.0618 -0.13607,0.12051 -0.18878,0.18675 -0.0527,0.0662 -0.11116,0.14062 -0.11116,0.27544 0,-0.0449 0.0251,-0.0491 -0.0193,-0.0162 -0.0444,0.0329 -0.1388,0.0798 -0.26531,0.11941 -0.25293,0.0791 -0.63175,0.13466 -1.04776,0.13466 -0.46752,0 -0.93368,0.077 -1.32529,0.20508 -0.39162,0.12798 -0.71664,0.28574 -0.89377,0.57236 -0.009,0.0141 -0.0866,0.0883 -0.22545,0.15504 -0.1389,0.0668 -0.33254,0.13372 -0.56013,0.18977 -0.45509,0.11215 -1.04541,0.18367 -1.64258,0.18367 -0.63859,0 -1.21873,0.0738 -1.65992,0.20199 -0.22065,0.0641 -0.40655,0.13984 -0.55705,0.2428 -0.15054,0.10301 -0.29179,0.257 -0.29179,0.46934 0,-0.0869 0.055,-0.13309 0.0571,-0.13466 0,0 -0.0277,0.0167 -0.0786,0.0345 -0.1017,0.036 -0.28573,0.0784 -0.53255,0.11733 -0.49358,0.0778 -1.24412,0.1473 -2.21901,0.20299 -1.94983,0.11142 -4.80424,0.17144 -8.39252,0.17144 -3.58833,0 -6.44175,-0.06 -8.39152,-0.17144 -0.97489,-0.0557 -1.72543,-0.12516 -2.21901,-0.20299 -0.24682,-0.0387 -0.4309,-0.0814 -0.5326,-0.11733 -0.0507,-0.0178 -0.0807,-0.036 -0.0786,-0.0345 0,0 0.0562,0.0475 0.0562,0.13466 0,-0.19327 -0.11356,-0.34883 -0.24588,-0.45607 -0.13237,-0.10719 -0.29555,-0.18623 -0.48669,-0.25199 -0.38226,-0.13158 -0.87903,-0.20607 -1.42527,-0.20607 -0.94997,0 -2.94885,-0.55157 -4.29112,-1.21717 -1.93056,-0.95728 -3.73747,-1.79077 -5.15125,-2.38637 -0.70686,-0.2978 -1.31474,-0.53631 -1.79458,-0.7019 -0.4799,-0.16559 -0.80429,-0.26526 -1.06515,-0.26526 -0.0188,0 -0.321,-0.10959 -0.62951,-0.33363 -0.30845,-0.22404 -0.66272,-0.54117 -0.9753,-0.88661 -0.3397,-0.37527 -0.72922,-0.71214 -1.09472,-0.96209 -0.36555,-0.2499 -0.68007,-0.42949 -1.00801,-0.42949 0.0776,0 -0.035,-0.0141 -0.16021,-0.0929 -0.12526,-0.0788 -0.29608,-0.20319 -0.49891,-0.3632 -0.40562,-0.31994 -0.94323,-0.7848 -1.56198,-1.3467 -1.23748,-1.12382 -2.80384,-2.63606 -4.34011,-4.17788 -1.53628,-1.54186 -3.04283,-3.11449 -4.16257,-4.35647 -0.55992,-0.62098 -1.02384,-1.15996 -1.34264,-1.56709 -0.15942,-0.20357 -0.2826,-0.37516 -0.36121,-0.50095 -0.0786,-0.12578 -0.0938,-0.23757 -0.0938,-0.1612 0,-0.29926 -0.14104,-0.59414 -0.34079,-0.90186 -0.19975,-0.30778 -0.46814,-0.61765 -0.77122,-0.86927 -0.23971,-0.19886 -0.60646,-0.66001 -0.98664,-1.2437 -0.38013,-0.58364 -0.78501,-1.29363 -1.1539,-2.01293 -0.3689,-0.7193 -0.7017,-1.44899 -0.94068,-2.07212 -0.23888,-0.62307 -0.37746,-1.15672 -0.37746,-1.39565 0,-0.34131 -0.16162,-0.78976 -0.40295,-1.37429 -0.24144,-0.58453 -0.57115,-1.26705 -0.93561,-1.91603 -0.69344,-1.23456 -1.27326,-3.16553 -1.27326,-4.13603 0,-0.55726 -0.074,-1.06354 -0.20508,-1.45286 -0.0656,-0.19463 -0.14329,-0.36121 -0.2499,-0.49583 -0.10672,-0.13461 -0.26359,-0.25198 -0.45916,-0.25198 0.0843,0 0.13148,0.0522 0.13362,0.055 0,0.005 -0.0162,-0.0245 -0.034,-0.0734 -0.0355,-0.0978 -0.0775,-0.27743 -0.11628,-0.51725 -0.0777,-0.47958 -0.14736,-1.20922 -0.2031,-2.15679 -0.11142,-1.89514 -0.17238,-4.66728 -0.17238,-8.14664 l 0,-10.83907 z m -66.65859,30.13188 c -0.17165,0.0219 -0.32993,0.0909 -0.45812,0.20712 -0.25632,0.2324 -0.4006,0.58562 -0.52033,1.04776 -0.23934,0.92432 -0.35823,2.32854 -0.54273,4.19323 -0.37757,3.81587 0.76881,9.64389 2.50364,12.65099 1.07038,1.85534 4.36864,5.57092 7.60594,8.87613 1.61865,1.6526 3.21787,3.19347 4.50744,4.3258 0.6448,0.56619 1.21193,1.03026 1.67115,1.35799 0.22963,0.16382 0.4311,0.29446 0.60907,0.38765 0.17797,0.0932 0.32371,0.15817 0.49996,0.15817 5.2e-4,0 0.23997,0.0952 0.47336,0.31321 0.2334,0.21793 0.49181,0.53052 0.704,0.87026 0.24284,0.3889 0.56556,0.73476 0.90186,0.99166 0.33635,0.25695 0.67954,0.4367 1.02942,0.4367 0.15938,0 0.45963,0.1 0.7591,0.28155 0.29942,0.18163 0.60521,0.43748 0.82941,0.70911 0.28579,0.34612 0.81045,0.75456 1.45693,1.18446 0.64648,0.42991 1.40803,0.8689 2.13945,1.21821 1.40918,0.67301 4.05564,2.24309 5.83377,3.46474 0.96089,0.66017 1.70991,1.16143 2.29861,1.51507 0.58871,0.35359 1.00869,0.56379 1.36714,0.6295 0.17922,0.0329 0.35573,0.0277 0.51113,-0.0491 0.15535,-0.0769 0.26327,-0.22028 0.32444,-0.37339 0.12229,-0.30626 0.12208,-0.68299 0.10301,-1.17945 -0.0178,-0.46051 -0.19484,-1.61113 -0.46726,-3.18214 -0.27241,-1.57096 -0.64005,-3.53291 -1.03757,-5.51032 l -1.63443,-8.13134 -1.14883,3.36476 c -0.2254,0.66043 -0.4893,1.26157 -0.72536,1.68646 -0.11805,0.21244 -0.23015,0.38159 -0.31728,0.48465 -0.0757,0.0894 -0.10609,0.0856 -0.0612,0.0867 -0.023,-0.0131 -0.0527,-0.0308 -0.0949,-0.0612 -0.0998,-0.0724 -0.24086,-0.18915 -0.41319,-0.34487 -0.34465,-0.31143 -0.8175,-0.7778 -1.3967,-1.37627 -1.15839,-1.197 -2.74513,-2.92498 -4.62679,-5.03492 -3.76338,-4.21987 -8.70808,-9.96943 -13.79267,-16.08005 -2.36574,-2.84313 -4.12501,-4.9702 -5.45015,-6.451 -1.32518,-1.4808 -2.1862,-2.32087 -2.90565,-2.59652 -0.1799,-0.0689 -0.36398,-0.0934 -0.53563,-0.0714 z m 0.34888,0.55909 c 0.49301,0.18888 1.39012,0.99103 2.70267,2.45777 1.31254,1.4667 3.07166,3.59299 5.43787,6.43669 5.08814,6.1148 10.03598,11.86718 13.80494,16.09332 1.88444,2.11307 3.47378,3.84403 4.64106,5.05022 0.58369,0.60307 1.06165,1.07498 1.42224,1.40078 0.18027,0.16292 0.32982,0.28907 0.45603,0.38054 0.0631,0.046 0.11977,0.0832 0.17755,0.11325 0.0577,0.0303 0.1121,0.0602 0.21526,0.0602 0.23831,0 0.34612,-0.14005 0.4693,-0.28568 0.12317,-0.14564 0.24587,-0.33588 0.37443,-0.56724 0.2571,-0.46276 0.52994,-1.08589 0.76416,-1.77217 l 0.52341,-1.53346 1.25284,6.23474 c 0.39663,1.97297 0.76313,3.93184 1.03455,5.49705 0.27142,1.56521 0.44678,2.76524 0.4601,3.11277 0.0183,0.47729 -0.008,0.82095 -0.0653,0.96518 -0.0287,0.0721 -0.0486,0.0877 -0.0714,0.0989 -0.023,0.0115 -0.0747,0.024 -0.18465,0.005 -0.21997,-0.0402 -0.62324,-0.22216 -1.19267,-0.5642 -0.56943,-0.34199 -1.3139,-0.83939 -2.27207,-1.49767 -1.80493,-1.2401 -4.44031,-2.80646 -5.90419,-3.50559 -0.70503,-0.33672 -1.45097,-0.76568 -2.07619,-1.18143 -0.62516,-0.41575 -1.13546,-0.83156 -1.34263,-1.0825 -0.26865,-0.32543 -0.61263,-0.61138 -0.96209,-0.8233 -0.34947,-0.21192 -0.6971,-0.35709 -1.02943,-0.35709 -0.14177,0 -0.42975,-0.11309 -0.71313,-0.32956 -0.28338,-0.21647 -0.56969,-0.52356 -0.7754,-0.85292 -0.23637,-0.3785 -0.51714,-0.71992 -0.7907,-0.97535 -0.27356,-0.25544 -0.50957,-0.45399 -0.82941,-0.45399 -0.005,0 -0.11273,-0.0235 -0.25711,-0.099 -0.14443,-0.0756 -0.33155,-0.19484 -0.5489,-0.34993 -0.43471,-0.31023 -0.99239,-0.76501 -1.62936,-1.3243 -1.27384,-1.11854 -2.86695,-2.65356 -4.47886,-4.29927 -3.22372,-3.29142 -6.5411,-7.06253 -7.52733,-8.77207 -1.63589,-2.83555 -2.79716,-8.68191 -2.43531,-12.33883 0.18476,-1.86766 0.31148,-3.27481 0.52847,-4.11258 0.1085,-0.41888 0.24619,-0.68477 0.36524,-0.79274 0.11905,-0.10797 0.20957,-0.12913 0.45602,-0.0345 z"
     style="font-size:medium;font-style:normal;font-variant:normal;font-weight:normal;font-stretch:normal;text-indent:0;text-align:start;text-decoration:none;line-height:normal;letter-spacing:normal;word-spacing:normal;text-transform:none;direction:ltr;block-progression:tb;writing-mode:lr-tb;text-anchor:start;baseline-shift:baseline;color:#000000;fill:#000000;fill-opacity:1;fill-rule:nonzero;stroke:#000000;stroke-width:2.61182356;stroke-linecap:butt;stroke-linejoin:miter;stroke-miterlimit:4;stroke-opacity:1;stroke-dasharray:none;stroke-dashoffset:0;visibility:visible;display:inline;overflow:visible;enable-background:accumulate;font-family:sans-serif"
     inkscape:export-filename="/home/rana/SparkleShare/CCC/linuxCourse/Chapter 1/character/3ALA2/afamadrob.png" />
  <path
     inkscape:export-ydpi="90"
     inkscape:export-xdpi="90"
     sodipodi:nodetypes="cscssscssscsscsssssscscsscssccc"
     style="fill:#000000"
     d="m 463.05499,635.99586 c 0.61814,-17.39333 4.42281,-32.99109 12.03076,-49.32314 l 2.88958,-6.20308 -1.08682,-4.57069 c -1.59074,-6.68987 -2.22329,-28.63577 -1.08494,-37.63606 5.27489,-41.70408 28.46067,-73.04262 66.83969,-90.34235 l 7.01333,-3.16135 9.31013,-10.49948 c 53.71463,-60.5768 123.39359,-99.75379 196.82121,-110.66275 17.73062,-2.63418 23.659,-3.00375 48.18654,-3.00375 l 24.09328,0 3.56653,1.78988 c 9.13953,4.58657 10.47707,14.41533 4.0506,29.76507 l -2.58707,6.17926 7.04582,-0.42426 c 3.87518,-0.23329 16.33888,-0.99704 27.69713,-1.69717 36.27025,-2.23567 58.41618,-2.83142 90.86098,-2.4443 31.55347,0.37652 45.44156,1.19126 64.02436,3.75596 23.8856,3.29659 41.6808,8.66326 51.246,15.45479 5.392,3.82851 14.0933,12.1164 15.6759,14.93111 0.7903,1.40579 1.5839,4.21946 1.7635,6.25266 0.4073,4.6095 -1.8486,9.18238 -6.8431,13.87218 l -3.4121,3.20392 6.2342,10.56806 c 6.7828,11.49793 11.7941,23.48087 13.6904,32.73529 1.4879,7.26145 1.5099,18.74276 0.048,24.72582 -1.6102,6.58749 -7.0177,15.44424 -12.676,20.76128 -2.5971,2.44049 -4.5944,4.5334 -4.4384,4.65088 0.1561,0.11743 1.3307,0.66758 2.6105,1.22254 4.6185,2.0029 11.5929,6.98736 15.0827,10.77947 276.3514,429.81153 -670.28343,656.62535 -638.65271,119.32021 z"
     id="path3492"
     inkscape:connector-curvature="0"
     inkscape:export-filename="/home/rana/SparkleShare/CCC/linuxCourse/Chapter 1/character/3ALA2/afamadrob.png" />
  <path
     style="fill:#000000;fill-opacity:1;stroke:#000000;stroke-width:5.22364712;stroke-linecap:round;stroke-linejoin:miter;stroke-miterlimit:4;stroke-opacity:1;stroke-dasharray:none"
     d="m 1986.6379,1600.1375 174.9995,0 c 0,0 -7.3946,535.7727 -43.2141,385.8299 -18.8919,-79.0827 -14.6629,-129.2229 -18.6783,-164.2387 -10.0362,-87.5195 -9.5559,-63.8804 -28.8269,-61.4907 -25.2,3.1249 2.6692,24.0225 -42.491,300.7669 -24.8192,152.0935 -41.7892,-460.8674 -41.7892,-460.8674 z"
     id="path3504"
     inkscape:connector-curvature="0"
     sodipodi:nodetypes="ccsssscc"
     inkscape:export-xdpi="90"
     inkscape:export-ydpi="90"
     inkscape:export-filename="C:\Users\Home\Downloads\afa3la2.png" />
  <text
     xml:space="preserve"
     style="font-style:normal;font-weight:normal;font-size:40px;line-height:1000%;font-family:sans-serif;letter-spacing:0px;word-spacing:0px;fill:#000000;fill-opacity:1;stroke:none;stroke-width:1px;stroke-linecap:butt;stroke-linejoin:miter;stroke-opacity:1"
     x="991.8125"
     y="1460.696"
     id="text3679"
     sodipodi:linespacing="1000%"><tspan
       sodipodi:role="line"
       id="tspan3681"
       x="991.8125"
       y="1460.696" /></text>
  <text
     xml:space="preserve"
     style="font-style:normal;font-weight:normal;font-size:40px;line-height:1000%;font-family:sans-serif;letter-spacing:0px;word-spacing:0px;fill:#000000;fill-opacity:1;stroke:none;stroke-width:1px;stroke-linecap:butt;stroke-linejoin:miter;stroke-opacity:1"
     x="1027.0658"
     y="1571.2574"
     id="text3695"
     sodipodi:linespacing="1000%"><tspan
       sodipodi:role="line"
       id="tspan3697"
       x="1027.0658"
       y="1571.2574" /></text>
  <text
     xml:space="preserve"
     style="font-style:normal;font-weight:normal;font-size:40px;line-height:1000%;font-family:sans-serif;letter-spacing:0px;word-spacing:0px;fill:#000000;fill-opacity:1;stroke:none;stroke-width:1px;stroke-linecap:butt;stroke-linejoin:miter;stroke-opacity:1"
     x="1034.7305"
     y="1555.9282"
     id="text3699"
     sodipodi:linespacing="1000%"><tspan
       sodipodi:role="line"
       id="tspan3701"
       x="1034.7305"
       y="1555.9282" /></text>
</svg>
